<svg xmlns="http://www.w3.org/2000/svg" width="900" height="520"><defs><marker id="m" markerWidth="10" markerHeight="10" refX="8" refY="3" orient="auto"><path d="M0,0 L8,3 L0,6 Z" fill="#277da1"/></marker><style>text{font-family:Inter,Arial;fill:#13202b}.box{fill:white;stroke:#b7d8e8;stroke-width:2}.arr{stroke:#277da1;stroke-width:3;marker-end:url(#m)}</style></defs><rect width="900" height="520" rx="28" fill="#f3fbff"/><text x="42" y="58" font-size="30" font-weight="700">E-GEO Optimization Loop</text><rect class="box" x="55" y="145" width="160" height="120" rx="20"/><text x="82" y="185" font-size="18" font-weight="700">Buyer Query</text><text x="82" y="220" font-size="14">multi-sentence intent</text><rect class="box" x="280" y="145" width="175" height="120" rx="20"/><text x="310" y="185" font-size="18" font-weight="700">10 Listings</text><text x="310" y="220" font-size="14">product descriptions</text><rect class="box" x="520" y="105" width="200" height="95" rx="18"/><text x="552" y="143" font-size="18" font-weight="700">LLM Re-ranker</text><text x="552" y="170" font-size="14">rank feedback</text><rect class="box" x="520" y="270" width="250" height="110" rx="18"/><text x="552" y="310" font-size="18" font-weight="700">Prompt Meta-Optimizer</text><text x="552" y="338" font-size="14">rewrite content, avoid manipulation</text><path class="arr" d="M215 205 L280 205"/><path class="arr" d="M455 205 C490 205 490 152 520 152"/><path class="arr" d="M620 200 L620 270"/><path class="arr" d="M520 330 C390 375 330 280 365 265"/><text x="180" y="430" font-size="18" font-weight="700">Goal: improve genuine product relevance in generative shopping engines</text></svg>