<?xml version="1.0" encoding="utf-8" standalone="no"?>
<!DOCTYPE svg PUBLIC "-//W3C//DTD SVG 1.1//EN"
  "http://www.w3.org/Graphics/SVG/1.1/DTD/svg11.dtd">
<svg xmlns:xlink="http://www.w3.org/1999/xlink" width="787.896pt" height="314.497062pt" viewBox="0 0 787.896 314.497062" xmlns="http://www.w3.org/2000/svg" version="1.1">
 <metadata>
  <rdf:RDF xmlns:dc="http://purl.org/dc/elements/1.1/" xmlns:cc="http://creativecommons.org/ns#" xmlns:rdf="http://www.w3.org/1999/02/22-rdf-syntax-ns#">
   <cc:Work>
    <dc:type rdf:resource="http://purl.org/dc/dcmitype/StillImage"/>
    <dc:date>2026-06-27T20:28:39.314822</dc:date>
    <dc:format>image/svg+xml</dc:format>
    <dc:creator>
     <cc:Agent>
      <dc:title>Matplotlib v3.10.5, https://matplotlib.org/</dc:title>
     </cc:Agent>
    </dc:creator>
   </cc:Work>
  </rdf:RDF>
 </metadata>
 <defs>
  <style type="text/css">*{stroke-linejoin: round; stroke-linecap: butt}</style>
 </defs>
 <g id="figure_1">
  <g id="patch_1">
   <path d="M 0 314.497062 
L 787.896 314.497062 
L 787.896 0 
L 0 0 
z
" style="fill: #ffffff"/>
  </g>
  <g id="axes_1">
   <g id="patch_2">
    <path d="M 46.496 274.556 
L 387.621 274.556 
L 387.621 75.372 
L 46.496 75.372 
z
" style="fill: #ffffff"/>
   </g>
   <g id="matplotlib.axis_1">
    <g id="xtick_1">
     <g id="line2d_1">
      <defs>
       <path id="m2690bcd769" d="M 0 0 
L 0 3.5 
" style="stroke: #475569; stroke-width: 0.8"/>
      </defs>
      <g>
       <use xlink:href="#m2690bcd769" x="87.122619" y="274.556" style="fill: #475569; stroke: #475569; stroke-width: 0.8"/>
      </g>
     </g>
     <g id="text_1">
      <!-- LLM -->
      <g style="fill: #475569" transform="translate(76.683791 290.311312) scale(0.11 -0.11)">
       <defs>
        <path id="NotoSansCJKsc-Regular-4c" d="M 646 0 
L 3290 0 
L 3290 506 
L 1235 506 
L 1235 4691 
L 646 4691 
L 646 0 
z
" transform="scale(0.015625)"/>
        <path id="NotoSansCJKsc-Regular-4d" d="M 646 0 
L 1178 0 
L 1178 2598 
C 1178 3002 1139 3571 1101 3981 
L 1126 3981 
L 1504 2912 
L 2394 474 
L 2790 474 
L 3674 2912 
L 4051 3981 
L 4077 3981 
C 4045 3571 4000 3002 4000 2598 
L 4000 0 
L 4550 0 
L 4550 4691 
L 3840 4691 
L 2944 2182 
C 2835 1862 2739 1530 2618 1203 
L 2592 1203 
C 2477 1530 2374 1862 2253 2182 
L 1357 4691 
L 646 4691 
L 646 0 
z
" transform="scale(0.015625)"/>
       </defs>
       <use xlink:href="#NotoSansCJKsc-Regular-4c"/>
       <use xlink:href="#NotoSansCJKsc-Regular-4c" transform="translate(54.299988 0)"/>
       <use xlink:href="#NotoSansCJKsc-Regular-4d" transform="translate(108.599976 0)"/>
      </g>
      <!-- Annotator -->
      <g style="fill: #475569" transform="translate(61.025978 303.337375) scale(0.11 -0.11)">
       <defs>
        <path id="NotoSansCJKsc-Regular-41" d="M 26 0 
L 621 0 
L 1075 1434 
L 2790 1434 
L 3238 0 
L 3866 0 
L 2272 4691 
L 1613 4691 
L 26 0 
z
M 1222 1901 
L 1453 2624 
C 1619 3155 1773 3661 1920 4211 
L 1946 4211 
C 2099 3667 2246 3155 2419 2624 
L 2643 1901 
L 1222 1901 
z
" transform="scale(0.015625)"/>
        <path id="NotoSansCJKsc-Regular-6e" d="M 589 0 
L 1178 0 
L 1178 2522 
C 1523 2874 1766 3053 2125 3053 
C 2586 3053 2784 2778 2784 2125 
L 2784 0 
L 3366 0 
L 3366 2202 
C 3366 3085 3034 3565 2304 3565 
C 1830 3565 1466 3302 1139 2970 
L 1126 2970 
L 1069 3475 
L 589 3475 
L 589 0 
z
" transform="scale(0.015625)"/>
        <path id="NotoSansCJKsc-Regular-6f" d="M 1939 -83 
C 2790 -83 3546 582 3546 1734 
C 3546 2893 2790 3565 1939 3565 
C 1088 3565 333 2893 333 1734 
C 333 582 1088 -83 1939 -83 
z
M 1939 403 
C 1338 403 934 934 934 1734 
C 934 2534 1338 3072 1939 3072 
C 2541 3072 2950 2534 2950 1734 
C 2950 934 2541 403 1939 403 
z
" transform="scale(0.015625)"/>
        <path id="NotoSansCJKsc-Regular-74" d="M 1677 -83 
C 1894 -83 2125 -19 2323 45 
L 2208 486 
C 2093 435 1939 390 1811 390 
C 1408 390 1274 634 1274 1056 
L 1274 3002 
L 2221 3002 
L 2221 3475 
L 1274 3475 
L 1274 4454 
L 787 4454 
L 723 3475 
L 173 3443 
L 173 3002 
L 691 3002 
L 691 1075 
C 691 378 941 -83 1677 -83 
z
" transform="scale(0.015625)"/>
        <path id="NotoSansCJKsc-Regular-61" d="M 1389 -83 
C 1818 -83 2208 141 2541 416 
L 2560 416 
L 2611 0 
L 3091 0 
L 3091 2138 
C 3091 3002 2739 3565 1888 3565 
C 1325 3565 838 3315 525 3110 
L 749 2707 
C 1024 2893 1389 3078 1792 3078 
C 2362 3078 2509 2650 2509 2202 
C 1030 2035 378 1658 378 902 
C 378 275 806 -83 1389 -83 
z
M 1555 390 
C 1210 390 941 544 941 941 
C 941 1389 1338 1677 2509 1811 
L 2509 845 
C 2170 544 1888 390 1555 390 
z
" transform="scale(0.015625)"/>
        <path id="NotoSansCJKsc-Regular-72" d="M 589 0 
L 1178 0 
L 1178 2234 
C 1408 2822 1760 3040 2048 3040 
C 2195 3040 2272 3021 2387 2982 
L 2496 3488 
C 2387 3546 2278 3565 2125 3565 
C 1741 3565 1382 3283 1139 2842 
L 1126 2842 
L 1069 3475 
L 589 3475 
L 589 0 
z
" transform="scale(0.015625)"/>
       </defs>
       <use xlink:href="#NotoSansCJKsc-Regular-41"/>
       <use xlink:href="#NotoSansCJKsc-Regular-6e" transform="translate(60.799988 0)"/>
       <use xlink:href="#NotoSansCJKsc-Regular-6e" transform="translate(121.799973 0)"/>
       <use xlink:href="#NotoSansCJKsc-Regular-6f" transform="translate(182.799957 0)"/>
       <use xlink:href="#NotoSansCJKsc-Regular-74" transform="translate(243.399948 0)"/>
       <use xlink:href="#NotoSansCJKsc-Regular-61" transform="translate(281.099945 0)"/>
       <use xlink:href="#NotoSansCJKsc-Regular-74" transform="translate(337.399933 0)"/>
       <use xlink:href="#NotoSansCJKsc-Regular-6f" transform="translate(375.09993 0)"/>
       <use xlink:href="#NotoSansCJKsc-Regular-72" transform="translate(435.699921 0)"/>
      </g>
     </g>
    </g>
    <g id="xtick_2">
     <g id="line2d_2">
      <g>
       <use xlink:href="#m2690bcd769" x="173.74654" y="274.556" style="fill: #475569; stroke: #475569; stroke-width: 0.8"/>
      </g>
     </g>
     <g id="text_2">
      <!-- GRM -->
      <g style="fill: #475569" transform="translate(161.998024 290.311312) scale(0.11 -0.11)">
       <defs>
        <path id="NotoSansCJKsc-Regular-47" d="M 2490 -83 
C 3117 -83 3635 147 3936 461 
L 3936 2432 
L 2394 2432 
L 2394 1939 
L 3392 1939 
L 3392 710 
C 3206 538 2880 435 2547 435 
C 1542 435 979 1178 979 2362 
C 979 3533 1594 4256 2541 4256 
C 3008 4256 3315 4058 3552 3814 
L 3872 4198 
C 3603 4480 3174 4774 2522 4774 
C 1280 4774 371 3859 371 2342 
C 371 819 1254 -83 2490 -83 
z
" transform="scale(0.015625)"/>
        <path id="NotoSansCJKsc-Regular-52" d="M 1235 2464 
L 1235 4211 
L 2022 4211 
C 2758 4211 3162 3994 3162 3379 
C 3162 2765 2758 2464 2022 2464 
L 1235 2464 
z
M 3219 0 
L 3885 0 
L 2694 2054 
C 3328 2208 3750 2643 3750 3379 
C 3750 4352 3066 4691 2112 4691 
L 646 4691 
L 646 0 
L 1235 0 
L 1235 1990 
L 2080 1990 
L 3219 0 
z
" transform="scale(0.015625)"/>
       </defs>
       <use xlink:href="#NotoSansCJKsc-Regular-47"/>
       <use xlink:href="#NotoSansCJKsc-Regular-52" transform="translate(68.899994 0)"/>
       <use xlink:href="#NotoSansCJKsc-Regular-4d" transform="translate(132.399979 0)"/>
      </g>
      <!-- Annotator -->
      <g style="fill: #475569" transform="translate(147.649899 303.337375) scale(0.11 -0.11)">
       <use xlink:href="#NotoSansCJKsc-Regular-41"/>
       <use xlink:href="#NotoSansCJKsc-Regular-6e" transform="translate(60.799988 0)"/>
       <use xlink:href="#NotoSansCJKsc-Regular-6e" transform="translate(121.799973 0)"/>
       <use xlink:href="#NotoSansCJKsc-Regular-6f" transform="translate(182.799957 0)"/>
       <use xlink:href="#NotoSansCJKsc-Regular-74" transform="translate(243.399948 0)"/>
       <use xlink:href="#NotoSansCJKsc-Regular-61" transform="translate(281.099945 0)"/>
       <use xlink:href="#NotoSansCJKsc-Regular-74" transform="translate(337.399933 0)"/>
       <use xlink:href="#NotoSansCJKsc-Regular-6f" transform="translate(375.09993 0)"/>
       <use xlink:href="#NotoSansCJKsc-Regular-72" transform="translate(435.699921 0)"/>
      </g>
     </g>
    </g>
    <g id="xtick_3">
     <g id="line2d_3">
      <g>
       <use xlink:href="#m2690bcd769" x="260.37046" y="274.556" style="fill: #475569; stroke: #475569; stroke-width: 0.8"/>
      </g>
     </g>
     <g id="text_3">
      <!-- Optimizer -->
      <g style="fill: #475569" transform="translate(234.894289 290.311312) scale(0.11 -0.11)">
       <defs>
        <path id="NotoSansCJKsc-Regular-4f" d="M 2374 -83 
C 3552 -83 4378 858 4378 2362 
C 4378 3866 3552 4774 2374 4774 
C 1197 4774 371 3866 371 2362 
C 371 858 1197 -83 2374 -83 
z
M 2374 435 
C 1530 435 979 1190 979 2362 
C 979 3533 1530 4256 2374 4256 
C 3219 4256 3770 3533 3770 2362 
C 3770 1190 3219 435 2374 435 
z
" transform="scale(0.015625)"/>
        <path id="NotoSansCJKsc-Regular-70" d="M 589 -1466 
L 1178 -1466 
L 1178 -288 
L 1158 320 
C 1472 58 1805 -83 2118 -83 
C 2912 -83 3629 602 3629 1792 
C 3629 2867 3142 3565 2246 3565 
C 1843 3565 1453 3334 1139 3072 
L 1126 3072 
L 1069 3475 
L 589 3475 
L 589 -1466 
z
M 2022 410 
C 1792 410 1485 499 1178 768 
L 1178 2598 
C 1510 2906 1811 3072 2099 3072 
C 2765 3072 3021 2560 3021 1786 
C 3021 928 2598 410 2022 410 
z
" transform="scale(0.015625)"/>
        <path id="NotoSansCJKsc-Regular-69" d="M 589 0 
L 1178 0 
L 1178 3475 
L 589 3475 
L 589 0 
z
M 883 4192 
C 1114 4192 1274 4346 1274 4582 
C 1274 4806 1114 4960 883 4960 
C 653 4960 499 4806 499 4582 
C 499 4346 653 4192 883 4192 
z
" transform="scale(0.015625)"/>
        <path id="NotoSansCJKsc-Regular-6d" d="M 589 0 
L 1178 0 
L 1178 2522 
C 1491 2880 1786 3053 2048 3053 
C 2490 3053 2694 2778 2694 2125 
L 2694 0 
L 3277 0 
L 3277 2522 
C 3603 2880 3885 3053 4154 3053 
C 4595 3053 4800 2778 4800 2125 
L 4800 0 
L 5382 0 
L 5382 2202 
C 5382 3085 5043 3565 4333 3565 
C 3904 3565 3546 3290 3181 2899 
C 3040 3309 2758 3565 2221 3565 
C 1805 3565 1446 3302 1139 2970 
L 1126 2970 
L 1069 3475 
L 589 3475 
L 589 0 
z
" transform="scale(0.015625)"/>
        <path id="NotoSansCJKsc-Regular-7a" d="M 224 0 
L 2854 0 
L 2854 474 
L 960 474 
L 2797 3162 
L 2797 3475 
L 422 3475 
L 422 3002 
L 2054 3002 
L 224 314 
L 224 0 
z
" transform="scale(0.015625)"/>
        <path id="NotoSansCJKsc-Regular-65" d="M 1997 -83 
C 2464 -83 2835 70 3136 269 
L 2931 659 
C 2669 486 2400 384 2061 384 
C 1402 384 947 858 909 1600 
L 3251 1600 
C 3264 1690 3277 1805 3277 1933 
C 3277 2925 2778 3565 1888 3565 
C 1094 3565 333 2867 333 1734 
C 333 589 1069 -83 1997 -83 
z
M 902 2016 
C 973 2707 1408 3098 1901 3098 
C 2445 3098 2765 2720 2765 2016 
L 902 2016 
z
" transform="scale(0.015625)"/>
       </defs>
       <use xlink:href="#NotoSansCJKsc-Regular-4f"/>
       <use xlink:href="#NotoSansCJKsc-Regular-70" transform="translate(74.199982 0)"/>
       <use xlink:href="#NotoSansCJKsc-Regular-74" transform="translate(136.199966 0)"/>
       <use xlink:href="#NotoSansCJKsc-Regular-69" transform="translate(173.899963 0)"/>
       <use xlink:href="#NotoSansCJKsc-Regular-6d" transform="translate(201.399948 0)"/>
       <use xlink:href="#NotoSansCJKsc-Regular-69" transform="translate(293.999939 0)"/>
       <use xlink:href="#NotoSansCJKsc-Regular-7a" transform="translate(321.499924 0)"/>
       <use xlink:href="#NotoSansCJKsc-Regular-65" transform="translate(368.999908 0)"/>
       <use xlink:href="#NotoSansCJKsc-Regular-72" transform="translate(424.399902 0)"/>
      </g>
     </g>
    </g>
    <g id="xtick_4">
     <g id="line2d_4">
      <g>
       <use xlink:href="#m2690bcd769" x="346.994381" y="274.556" style="fill: #475569; stroke: #475569; stroke-width: 0.8"/>
      </g>
     </g>
     <g id="text_4">
      <!-- Auto -->
      <g style="fill: #475569" transform="translate(334.905553 290.311312) scale(0.11 -0.11)">
       <defs>
        <path id="NotoSansCJKsc-Regular-75" d="M 1606 -83 
C 2080 -83 2426 166 2752 544 
L 2771 544 
L 2816 0 
L 3302 0 
L 3302 3475 
L 2720 3475 
L 2720 1011 
C 2387 602 2138 422 1779 422 
C 1318 422 1126 698 1126 1344 
L 1126 3475 
L 538 3475 
L 538 1274 
C 538 384 870 -83 1606 -83 
z
" transform="scale(0.015625)"/>
       </defs>
       <use xlink:href="#NotoSansCJKsc-Regular-41"/>
       <use xlink:href="#NotoSansCJKsc-Regular-75" transform="translate(60.799988 0)"/>
       <use xlink:href="#NotoSansCJKsc-Regular-74" transform="translate(121.499985 0)"/>
       <use xlink:href="#NotoSansCJKsc-Regular-6f" transform="translate(159.199982 0)"/>
      </g>
      <!-- Pipeline -->
      <g style="fill: #475569" transform="translate(326.066022 303.337375) scale(0.11 -0.11)">
       <defs>
        <path id="NotoSansCJKsc-Regular-50" d="M 646 0 
L 1235 0 
L 1235 1869 
L 2010 1869 
C 3040 1869 3738 2323 3738 3315 
C 3738 4339 3034 4691 1984 4691 
L 646 4691 
L 646 0 
z
M 1235 2349 
L 1235 4211 
L 1907 4211 
C 2733 4211 3149 4000 3149 3315 
C 3149 2643 2758 2349 1933 2349 
L 1235 2349 
z
" transform="scale(0.015625)"/>
        <path id="NotoSansCJKsc-Regular-6c" d="M 1203 -83 
C 1363 -83 1459 -58 1542 -32 
L 1459 416 
C 1395 403 1370 403 1338 403 
C 1248 403 1178 474 1178 653 
L 1178 5094 
L 589 5094 
L 589 691 
C 589 198 768 -83 1203 -83 
z
" transform="scale(0.015625)"/>
       </defs>
       <use xlink:href="#NotoSansCJKsc-Regular-50"/>
       <use xlink:href="#NotoSansCJKsc-Regular-69" transform="translate(63.299988 0)"/>
       <use xlink:href="#NotoSansCJKsc-Regular-70" transform="translate(90.799973 0)"/>
       <use xlink:href="#NotoSansCJKsc-Regular-65" transform="translate(152.799957 0)"/>
       <use xlink:href="#NotoSansCJKsc-Regular-6c" transform="translate(208.199951 0)"/>
       <use xlink:href="#NotoSansCJKsc-Regular-69" transform="translate(236.599945 0)"/>
       <use xlink:href="#NotoSansCJKsc-Regular-6e" transform="translate(264.09993 0)"/>
       <use xlink:href="#NotoSansCJKsc-Regular-65" transform="translate(325.099915 0)"/>
      </g>
     </g>
    </g>
   </g>
   <g id="matplotlib.axis_2">
    <g id="ytick_1">
     <g id="line2d_5">
      <path d="M 46.496 274.556 
L 387.621 274.556 
" clip-path="url(#p4e6d9b2d60)" style="fill: none; stroke: #e5e7eb; stroke-width: 0.8; stroke-linecap: square"/>
     </g>
     <g id="line2d_6">
      <defs>
       <path id="md3ba1a2eb0" d="M 0 0 
L -3.5 0 
" style="stroke: #475569; stroke-width: 0.8"/>
      </defs>
      <g>
       <use xlink:href="#md3ba1a2eb0" x="46.496" y="274.556" style="fill: #475569; stroke: #475569; stroke-width: 0.8"/>
      </g>
     </g>
     <g id="text_5">
      <!-- 0 -->
      <g style="fill: #475569" transform="translate(33.391 278.933656) scale(0.11 -0.11)">
       <defs>
        <path id="NotoSansCJKsc-Regular-30" d="M 1779 -83 
C 2669 -83 3238 723 3238 2362 
C 3238 3987 2669 4774 1779 4774 
C 883 4774 320 3987 320 2362 
C 320 723 883 -83 1779 -83 
z
M 1779 390 
C 1248 390 883 986 883 2362 
C 883 3731 1248 4314 1779 4314 
C 2310 4314 2675 3731 2675 2362 
C 2675 986 2310 390 1779 390 
z
" transform="scale(0.015625)"/>
       </defs>
       <use xlink:href="#NotoSansCJKsc-Regular-30"/>
      </g>
     </g>
    </g>
    <g id="ytick_2">
     <g id="line2d_7">
      <path d="M 46.496 247.998133 
L 387.621 247.998133 
" clip-path="url(#p4e6d9b2d60)" style="fill: none; stroke: #e5e7eb; stroke-width: 0.8; stroke-linecap: square"/>
     </g>
     <g id="line2d_8">
      <g>
       <use xlink:href="#md3ba1a2eb0" x="46.496" y="247.998133" style="fill: #475569; stroke: #475569; stroke-width: 0.8"/>
      </g>
     </g>
     <g id="text_6">
      <!-- 2 -->
      <g style="fill: #475569" transform="translate(33.391 252.37579) scale(0.11 -0.11)">
       <defs>
        <path id="NotoSansCJKsc-Regular-32" d="M 282 0 
L 3232 0 
L 3232 506 
L 1933 506 
C 1696 506 1408 480 1165 461 
C 2266 1504 3008 2458 3008 3398 
C 3008 4230 2477 4774 1638 4774 
C 1043 4774 634 4506 256 4090 
L 595 3757 
C 858 4070 1184 4301 1568 4301 
C 2150 4301 2432 3910 2432 3373 
C 2432 2566 1754 1632 282 346 
L 282 0 
z
" transform="scale(0.015625)"/>
       </defs>
       <use xlink:href="#NotoSansCJKsc-Regular-32"/>
      </g>
     </g>
    </g>
    <g id="ytick_3">
     <g id="line2d_9">
      <path d="M 46.496 221.440267 
L 387.621 221.440267 
" clip-path="url(#p4e6d9b2d60)" style="fill: none; stroke: #e5e7eb; stroke-width: 0.8; stroke-linecap: square"/>
     </g>
     <g id="line2d_10">
      <g>
       <use xlink:href="#md3ba1a2eb0" x="46.496" y="221.440267" style="fill: #475569; stroke: #475569; stroke-width: 0.8"/>
      </g>
     </g>
     <g id="text_7">
      <!-- 4 -->
      <g style="fill: #475569" transform="translate(33.391 225.817923) scale(0.11 -0.11)">
       <defs>
        <path id="NotoSansCJKsc-Regular-34" d="M 2176 0 
L 2726 0 
L 2726 1293 
L 3354 1293 
L 3354 1760 
L 2726 1760 
L 2726 4691 
L 2080 4691 
L 128 1677 
L 128 1293 
L 2176 1293 
L 2176 0 
z
M 2176 1760 
L 736 1760 
L 1805 3360 
C 1939 3590 2067 3827 2182 4051 
L 2208 4051 
C 2195 3814 2176 3430 2176 3200 
L 2176 1760 
z
" transform="scale(0.015625)"/>
       </defs>
       <use xlink:href="#NotoSansCJKsc-Regular-34"/>
      </g>
     </g>
    </g>
    <g id="ytick_4">
     <g id="line2d_11">
      <path d="M 46.496 194.8824 
L 387.621 194.8824 
" clip-path="url(#p4e6d9b2d60)" style="fill: none; stroke: #e5e7eb; stroke-width: 0.8; stroke-linecap: square"/>
     </g>
     <g id="line2d_12">
      <g>
       <use xlink:href="#md3ba1a2eb0" x="46.496" y="194.8824" style="fill: #475569; stroke: #475569; stroke-width: 0.8"/>
      </g>
     </g>
     <g id="text_8">
      <!-- 6 -->
      <g style="fill: #475569" transform="translate(33.391 199.260056) scale(0.11 -0.11)">
       <defs>
        <path id="NotoSansCJKsc-Regular-36" d="M 1926 -83 
C 2656 -83 3277 531 3277 1440 
C 3277 2426 2765 2912 1971 2912 
C 1606 2912 1197 2701 909 2349 
C 934 3802 1466 4294 2118 4294 
C 2400 4294 2682 4154 2861 3936 
L 3194 4294 
C 2931 4576 2579 4774 2093 4774 
C 1184 4774 358 4077 358 2240 
C 358 691 1030 -83 1926 -83 
z
M 922 1882 
C 1229 2317 1587 2477 1875 2477 
C 2445 2477 2720 2074 2720 1440 
C 2720 800 2374 378 1926 378 
C 1338 378 986 909 922 1882 
z
" transform="scale(0.015625)"/>
       </defs>
       <use xlink:href="#NotoSansCJKsc-Regular-36"/>
      </g>
     </g>
    </g>
    <g id="ytick_5">
     <g id="line2d_13">
      <path d="M 46.496 168.324533 
L 387.621 168.324533 
" clip-path="url(#p4e6d9b2d60)" style="fill: none; stroke: #e5e7eb; stroke-width: 0.8; stroke-linecap: square"/>
     </g>
     <g id="line2d_14">
      <g>
       <use xlink:href="#md3ba1a2eb0" x="46.496" y="168.324533" style="fill: #475569; stroke: #475569; stroke-width: 0.8"/>
      </g>
     </g>
     <g id="text_9">
      <!-- 8 -->
      <g style="fill: #475569" transform="translate(33.391 172.70219) scale(0.11 -0.11)">
       <defs>
        <path id="NotoSansCJKsc-Regular-38" d="M 1792 -83 
C 2669 -83 3258 448 3258 1126 
C 3258 1773 2880 2125 2470 2362 
L 2470 2394 
C 2746 2611 3091 3034 3091 3526 
C 3091 4250 2605 4762 1805 4762 
C 1075 4762 518 4282 518 3571 
C 518 3078 813 2726 1152 2490 
L 1152 2464 
C 723 2234 294 1792 294 1165 
C 294 442 922 -83 1792 -83 
z
M 2112 2547 
C 1555 2765 1050 3014 1050 3571 
C 1050 4026 1363 4326 1798 4326 
C 2298 4326 2592 3962 2592 3494 
C 2592 3149 2426 2829 2112 2547 
z
M 1798 352 
C 1235 352 813 717 813 1216 
C 813 1664 1082 2035 1459 2278 
C 2125 2010 2701 1779 2701 1146 
C 2701 678 2342 352 1798 352 
z
" transform="scale(0.015625)"/>
       </defs>
       <use xlink:href="#NotoSansCJKsc-Regular-38"/>
      </g>
     </g>
    </g>
    <g id="ytick_6">
     <g id="line2d_15">
      <path d="M 46.496 141.766667 
L 387.621 141.766667 
" clip-path="url(#p4e6d9b2d60)" style="fill: none; stroke: #e5e7eb; stroke-width: 0.8; stroke-linecap: square"/>
     </g>
     <g id="line2d_16">
      <g>
       <use xlink:href="#md3ba1a2eb0" x="46.496" y="141.766667" style="fill: #475569; stroke: #475569; stroke-width: 0.8"/>
      </g>
     </g>
     <g id="text_10">
      <!-- 10 -->
      <g style="fill: #475569" transform="translate(27.286 146.144323) scale(0.11 -0.11)">
       <defs>
        <path id="NotoSansCJKsc-Regular-31" d="M 563 0 
L 3136 0 
L 3136 486 
L 2195 486 
L 2195 4691 
L 1747 4691 
C 1491 4544 1190 4435 774 4358 
L 774 3987 
L 1613 3987 
L 1613 486 
L 563 486 
L 563 0 
z
" transform="scale(0.015625)"/>
       </defs>
       <use xlink:href="#NotoSansCJKsc-Regular-31"/>
       <use xlink:href="#NotoSansCJKsc-Regular-30" transform="translate(55.499985 0)"/>
      </g>
     </g>
    </g>
    <g id="ytick_7">
     <g id="line2d_17">
      <path d="M 46.496 115.2088 
L 387.621 115.2088 
" clip-path="url(#p4e6d9b2d60)" style="fill: none; stroke: #e5e7eb; stroke-width: 0.8; stroke-linecap: square"/>
     </g>
     <g id="line2d_18">
      <g>
       <use xlink:href="#md3ba1a2eb0" x="46.496" y="115.2088" style="fill: #475569; stroke: #475569; stroke-width: 0.8"/>
      </g>
     </g>
     <g id="text_11">
      <!-- 12 -->
      <g style="fill: #475569" transform="translate(27.286 119.586456) scale(0.11 -0.11)">
       <use xlink:href="#NotoSansCJKsc-Regular-31"/>
       <use xlink:href="#NotoSansCJKsc-Regular-32" transform="translate(55.499985 0)"/>
      </g>
     </g>
    </g>
    <g id="ytick_8">
     <g id="line2d_19">
      <path d="M 46.496 88.650933 
L 387.621 88.650933 
" clip-path="url(#p4e6d9b2d60)" style="fill: none; stroke: #e5e7eb; stroke-width: 0.8; stroke-linecap: square"/>
     </g>
     <g id="line2d_20">
      <g>
       <use xlink:href="#md3ba1a2eb0" x="46.496" y="88.650933" style="fill: #475569; stroke: #475569; stroke-width: 0.8"/>
      </g>
     </g>
     <g id="text_12">
      <!-- 14 -->
      <g style="fill: #475569" transform="translate(27.286 93.02859) scale(0.11 -0.11)">
       <use xlink:href="#NotoSansCJKsc-Regular-31"/>
       <use xlink:href="#NotoSansCJKsc-Regular-34" transform="translate(55.499985 0)"/>
      </g>
     </g>
    </g>
    <g id="text_13">
     <!-- SBS win-rate gain -->
     <g style="fill: #0f172a" transform="translate(20.536 220.202359) rotate(-90) scale(0.11 -0.11)">
      <defs>
       <path id="NotoSansCJKsc-Regular-53" d="M 1946 -83 
C 2925 -83 3539 506 3539 1248 
C 3539 1946 3117 2266 2573 2502 
L 1907 2790 
C 1542 2944 1126 3117 1126 3578 
C 1126 3994 1472 4256 2003 4256 
C 2438 4256 2784 4090 3072 3821 
L 3379 4198 
C 3053 4538 2560 4774 2003 4774 
C 1152 4774 525 4256 525 3533 
C 525 2848 1043 2515 1478 2330 
L 2150 2035 
C 2598 1837 2938 1683 2938 1197 
C 2938 742 2573 435 1952 435 
C 1466 435 992 666 659 1018 
L 307 608 
C 710 186 1280 -83 1946 -83 
z
" transform="scale(0.015625)"/>
       <path id="NotoSansCJKsc-Regular-42" d="M 646 0 
L 2138 0 
C 3187 0 3917 454 3917 1376 
C 3917 2016 3520 2387 2963 2496 
L 2963 2528 
C 3405 2669 3648 3078 3648 3546 
C 3648 4371 2982 4691 2035 4691 
L 646 4691 
L 646 0 
z
M 1235 2701 
L 1235 4224 
L 1958 4224 
C 2694 4224 3066 4019 3066 3469 
C 3066 2989 2739 2701 1933 2701 
L 1235 2701 
z
M 1235 474 
L 1235 2240 
L 2054 2240 
C 2880 2240 3334 1978 3334 1395 
C 3334 762 2861 474 2054 474 
L 1235 474 
z
" transform="scale(0.015625)"/>
       <path id="NotoSansCJKsc-Regular-20" transform="scale(0.015625)"/>
       <path id="NotoSansCJKsc-Regular-77" d="M 1139 0 
L 1818 0 
L 2310 1862 
C 2400 2195 2470 2522 2547 2874 
L 2579 2874 
C 2662 2522 2726 2202 2816 1875 
L 3315 0 
L 4026 0 
L 4966 3475 
L 4403 3475 
L 3898 1466 
C 3821 1133 3757 819 3686 499 
L 3654 499 
C 3571 819 3494 1133 3411 1466 
L 2867 3475 
L 2298 3475 
L 1754 1466 
C 1670 1133 1594 819 1523 499 
L 1491 499 
C 1421 819 1357 1133 1286 1466 
L 768 3475 
L 173 3475 
L 1139 0 
z
" transform="scale(0.015625)"/>
       <path id="NotoSansCJKsc-Regular-2d" d="M 294 1568 
L 1933 1568 
L 1933 2016 
L 294 2016 
L 294 1568 
z
" transform="scale(0.015625)"/>
       <path id="NotoSansCJKsc-Regular-67" d="M 1760 -1600 
C 2835 -1600 3520 -1043 3520 -397 
C 3520 179 3110 429 2310 429 
L 1626 429 
C 1158 429 1018 589 1018 806 
C 1018 998 1114 1114 1242 1222 
C 1395 1146 1587 1101 1754 1101 
C 2470 1101 3027 1568 3027 2310 
C 3027 2611 2912 2867 2746 3027 
L 3456 3027 
L 3456 3475 
L 2246 3475 
C 2125 3526 1952 3565 1754 3565 
C 1056 3565 454 3085 454 2323 
C 454 1907 678 1568 909 1389 
L 909 1363 
C 723 1235 525 1005 525 717 
C 525 442 659 256 838 147 
L 838 115 
C 512 -83 326 -371 326 -672 
C 326 -1267 915 -1600 1760 -1600 
z
M 1754 1498 
C 1357 1498 1018 1818 1018 2323 
C 1018 2835 1350 3136 1754 3136 
C 2170 3136 2496 2835 2496 2323 
C 2496 1818 2157 1498 1754 1498 
z
M 1843 -1197 
C 1210 -1197 838 -960 838 -589 
C 838 -390 941 -179 1190 0 
C 1344 -38 1510 -51 1638 -51 
L 2240 -51 
C 2701 -51 2944 -166 2944 -493 
C 2944 -851 2515 -1197 1843 -1197 
z
" transform="scale(0.015625)"/>
      </defs>
      <use xlink:href="#NotoSansCJKsc-Regular-53"/>
      <use xlink:href="#NotoSansCJKsc-Regular-42" transform="translate(59.599991 0)"/>
      <use xlink:href="#NotoSansCJKsc-Regular-53" transform="translate(125.299988 0)"/>
      <use xlink:href="#NotoSansCJKsc-Regular-20" transform="translate(184.899979 0)"/>
      <use xlink:href="#NotoSansCJKsc-Regular-77" transform="translate(207.299973 0)"/>
      <use xlink:href="#NotoSansCJKsc-Regular-69" transform="translate(287.499954 0)"/>
      <use xlink:href="#NotoSansCJKsc-Regular-6e" transform="translate(314.999939 0)"/>
      <use xlink:href="#NotoSansCJKsc-Regular-2d" transform="translate(375.999924 0)"/>
      <use xlink:href="#NotoSansCJKsc-Regular-72" transform="translate(410.699921 0)"/>
      <use xlink:href="#NotoSansCJKsc-Regular-61" transform="translate(449.499908 0)"/>
      <use xlink:href="#NotoSansCJKsc-Regular-74" transform="translate(505.799896 0)"/>
      <use xlink:href="#NotoSansCJKsc-Regular-65" transform="translate(543.499893 0)"/>
      <use xlink:href="#NotoSansCJKsc-Regular-20" transform="translate(598.899887 0)"/>
      <use xlink:href="#NotoSansCJKsc-Regular-67" transform="translate(621.299881 0)"/>
      <use xlink:href="#NotoSansCJKsc-Regular-61" transform="translate(677.699875 0)"/>
      <use xlink:href="#NotoSansCJKsc-Regular-69" transform="translate(733.999863 0)"/>
      <use xlink:href="#NotoSansCJKsc-Regular-6e" transform="translate(761.499847 0)"/>
     </g>
    </g>
   </g>
   <g id="patch_3">
    <path d="M 46.496 274.556 
L 46.496 75.372 
" style="fill: none; stroke: #94a3b8; stroke-width: 0.8; stroke-linejoin: miter; stroke-linecap: square"/>
   </g>
   <g id="patch_4">
    <path d="M 46.496 274.556 
L 387.621 274.556 
" style="fill: none; stroke: #94a3b8; stroke-width: 0.8; stroke-linejoin: miter; stroke-linecap: square"/>
   </g>
   <g id="patch_5">
    <path d="M 62.001682 274.556 
L 112.243556 274.556 
L 112.243556 110.162805 
L 62.001682 110.162805 
z
" clip-path="url(#p4e6d9b2d60)" style="fill: #2563eb"/>
   </g>
   <g id="patch_6">
    <path d="M 148.625603 274.556 
L 198.867477 274.556 
L 198.867477 144.688032 
L 148.625603 144.688032 
z
" clip-path="url(#p4e6d9b2d60)" style="fill: #0891b2"/>
   </g>
   <g id="patch_7">
    <path d="M 235.249523 274.556 
L 285.491397 274.556 
L 285.491397 177.885365 
L 235.249523 177.885365 
z
" clip-path="url(#p4e6d9b2d60)" style="fill: #7c3aed"/>
   </g>
   <g id="patch_8">
    <path d="M 321.873444 274.556 
L 372.115318 274.556 
L 372.115318 139.509248 
L 321.873444 139.509248 
z
" clip-path="url(#p4e6d9b2d60)" style="fill: #10b981"/>
   </g>
   <g id="text_14">
    <!-- 12.38% -->
    <g style="fill: #0f172a" transform="translate(70.159564 108.163305) scale(0.093 -0.093)">
     <defs>
      <path id="NotoSansCJKsc-Bold-31" d="M 525 0 
L 3373 0 
L 3373 768 
L 2483 768 
L 2483 4742 
L 1786 4742 
C 1485 4550 1165 4429 685 4346 
L 685 3757 
L 1549 3757 
L 1549 768 
L 525 768 
L 525 0 
z
" transform="scale(0.015625)"/>
      <path id="NotoSansCJKsc-Bold-32" d="M 275 0 
L 3450 0 
L 3450 794 
L 2426 794 
C 2202 794 1888 768 1645 736 
C 2509 1587 3226 2509 3226 3366 
C 3226 4250 2630 4826 1734 4826 
C 1088 4826 666 4576 224 4102 
L 749 3597 
C 986 3859 1267 4083 1613 4083 
C 2067 4083 2323 3789 2323 3322 
C 2323 2586 1568 1696 275 544 
L 275 0 
z
" transform="scale(0.015625)"/>
      <path id="NotoSansCJKsc-Bold-2e" d="M 1043 -90 
C 1376 -90 1626 179 1626 525 
C 1626 877 1376 1139 1043 1139 
C 704 1139 454 877 454 525 
C 454 179 704 -90 1043 -90 
z
" transform="scale(0.015625)"/>
      <path id="NotoSansCJKsc-Bold-33" d="M 1747 -90 
C 2656 -90 3418 410 3418 1280 
C 3418 1907 3008 2304 2477 2451 
L 2477 2483 
C 2976 2682 3264 3053 3264 3565 
C 3264 4378 2643 4826 1728 4826 
C 1171 4826 717 4602 307 4250 
L 794 3667 
C 1069 3930 1344 4083 1683 4083 
C 2086 4083 2317 3866 2317 3494 
C 2317 3066 2035 2771 1171 2771 
L 1171 2093 
C 2195 2093 2470 1805 2470 1338 
C 2470 915 2144 678 1664 678 
C 1229 678 890 890 608 1165 
L 166 570 
C 499 192 1005 -90 1747 -90 
z
" transform="scale(0.015625)"/>
      <path id="NotoSansCJKsc-Bold-38" d="M 1888 -90 
C 2842 -90 3482 461 3482 1178 
C 3482 1824 3123 2208 2682 2445 
L 2682 2477 
C 2989 2701 3290 3091 3290 3558 
C 3290 4314 2752 4819 1914 4819 
C 1088 4819 486 4333 486 3565 
C 486 3066 749 2707 1114 2445 
L 1114 2413 
C 672 2182 301 1786 301 1178 
C 301 435 973 -90 1888 -90 
z
M 2182 2707 
C 1690 2906 1318 3123 1318 3565 
C 1318 3949 1574 4160 1894 4160 
C 2291 4160 2522 3885 2522 3501 
C 2522 3219 2413 2944 2182 2707 
z
M 1907 576 
C 1466 576 1114 851 1114 1280 
C 1114 1638 1293 1952 1549 2163 
C 2163 1901 2605 1702 2605 1210 
C 2605 800 2310 576 1907 576 
z
" transform="scale(0.015625)"/>
      <path id="NotoSansCJKsc-Bold-25" d="M 1357 1824 
C 2035 1824 2515 2381 2515 3334 
C 2515 4282 2035 4826 1357 4826 
C 678 4826 205 4282 205 3334 
C 205 2381 678 1824 1357 1824 
z
M 1357 2355 
C 1082 2355 864 2637 864 3334 
C 864 4026 1082 4294 1357 4294 
C 1632 4294 1850 4026 1850 3334 
C 1850 2637 1632 2355 1357 2355 
z
M 1510 -90 
L 2074 -90 
L 4646 4826 
L 4090 4826 
L 1510 -90 
z
M 4806 -90 
C 5478 -90 5958 467 5958 1421 
C 5958 2368 5478 2918 4806 2918 
C 4128 2918 3648 2368 3648 1421 
C 3648 467 4128 -90 4806 -90 
z
M 4806 448 
C 4525 448 4314 730 4314 1421 
C 4314 2125 4525 2381 4806 2381 
C 5082 2381 5293 2125 5293 1421 
C 5293 730 5082 448 4806 448 
z
" transform="scale(0.015625)"/>
     </defs>
     <use xlink:href="#NotoSansCJKsc-Bold-31"/>
     <use xlink:href="#NotoSansCJKsc-Bold-32" transform="translate(58.999985 0)"/>
     <use xlink:href="#NotoSansCJKsc-Bold-2e" transform="translate(117.999969 0)"/>
     <use xlink:href="#NotoSansCJKsc-Bold-33" transform="translate(150.499954 0)"/>
     <use xlink:href="#NotoSansCJKsc-Bold-38" transform="translate(209.499939 0)"/>
     <use xlink:href="#NotoSansCJKsc-Bold-25" transform="translate(268.499924 0)"/>
    </g>
   </g>
   <g id="text_15">
    <!-- 9.78% -->
    <g style="fill: #0f172a" transform="translate(159.526985 142.688532) scale(0.093 -0.093)">
     <defs>
      <path id="NotoSansCJKsc-Bold-39" d="M 1632 -90 
C 2573 -90 3450 685 3450 2477 
C 3450 4122 2650 4826 1747 4826 
C 934 4826 256 4218 256 3245 
C 256 2240 819 1754 1613 1754 
C 1933 1754 2336 1946 2586 2266 
C 2541 1082 2106 678 1581 678 
C 1299 678 1005 826 832 1018 
L 333 448 
C 614 160 1043 -90 1632 -90 
z
M 2573 2938 
C 2342 2566 2048 2426 1792 2426 
C 1382 2426 1120 2688 1120 3245 
C 1120 3827 1408 4115 1760 4115 
C 2163 4115 2490 3795 2573 2938 
z
" transform="scale(0.015625)"/>
      <path id="NotoSansCJKsc-Bold-37" d="M 1190 0 
L 2138 0 
C 2221 1850 2368 2822 3469 4166 
L 3469 4742 
L 320 4742 
L 320 3949 
L 2451 3949 
C 1549 2694 1274 1645 1190 0 
z
" transform="scale(0.015625)"/>
     </defs>
     <use xlink:href="#NotoSansCJKsc-Bold-39"/>
     <use xlink:href="#NotoSansCJKsc-Bold-2e" transform="translate(58.999985 0)"/>
     <use xlink:href="#NotoSansCJKsc-Bold-37" transform="translate(91.499969 0)"/>
     <use xlink:href="#NotoSansCJKsc-Bold-38" transform="translate(150.499954 0)"/>
     <use xlink:href="#NotoSansCJKsc-Bold-25" transform="translate(209.499939 0)"/>
    </g>
   </g>
   <g id="text_16">
    <!-- 7.28% -->
    <g style="fill: #0f172a" transform="translate(246.150906 175.885865) scale(0.093 -0.093)">
     <use xlink:href="#NotoSansCJKsc-Bold-37"/>
     <use xlink:href="#NotoSansCJKsc-Bold-2e" transform="translate(58.999985 0)"/>
     <use xlink:href="#NotoSansCJKsc-Bold-32" transform="translate(91.499969 0)"/>
     <use xlink:href="#NotoSansCJKsc-Bold-38" transform="translate(150.499954 0)"/>
     <use xlink:href="#NotoSansCJKsc-Bold-25" transform="translate(209.499939 0)"/>
    </g>
   </g>
   <g id="text_17">
    <!-- 10.17% -->
    <g style="fill: #0f172a" transform="translate(330.031326 137.509748) scale(0.093 -0.093)">
     <defs>
      <path id="NotoSansCJKsc-Bold-30" d="M 1888 -90 
C 2854 -90 3494 755 3494 2394 
C 3494 4019 2854 4826 1888 4826 
C 922 4826 282 4026 282 2394 
C 282 755 922 -90 1888 -90 
z
M 1888 646 
C 1478 646 1171 1056 1171 2394 
C 1171 3712 1478 4102 1888 4102 
C 2298 4102 2598 3712 2598 2394 
C 2598 1056 2298 646 1888 646 
z
" transform="scale(0.015625)"/>
     </defs>
     <use xlink:href="#NotoSansCJKsc-Bold-31"/>
     <use xlink:href="#NotoSansCJKsc-Bold-30" transform="translate(58.999985 0)"/>
     <use xlink:href="#NotoSansCJKsc-Bold-2e" transform="translate(117.999969 0)"/>
     <use xlink:href="#NotoSansCJKsc-Bold-31" transform="translate(150.499954 0)"/>
     <use xlink:href="#NotoSansCJKsc-Bold-37" transform="translate(209.499939 0)"/>
     <use xlink:href="#NotoSansCJKsc-Bold-25" transform="translate(268.499924 0)"/>
    </g>
   </g>
   <g id="text_18">
    <!-- Human SBS improvements -->
    <g style="fill: #475569" transform="translate(148.001703 69.372) scale(0.11 -0.11)">
     <defs>
      <path id="NotoSansCJKsc-Regular-48" d="M 646 0 
L 1235 0 
L 1235 2214 
L 3424 2214 
L 3424 0 
L 4019 0 
L 4019 4691 
L 3424 4691 
L 3424 2726 
L 1235 2726 
L 1235 4691 
L 646 4691 
L 646 0 
z
" transform="scale(0.015625)"/>
      <path id="NotoSansCJKsc-Regular-76" d="M 1338 0 
L 2022 0 
L 3251 3475 
L 2675 3475 
L 2016 1498 
C 1914 1158 1798 806 1696 474 
L 1664 474 
C 1562 806 1453 1158 1344 1498 
L 691 3475 
L 83 3475 
L 1338 0 
z
" transform="scale(0.015625)"/>
      <path id="NotoSansCJKsc-Regular-73" d="M 1498 -83 
C 2317 -83 2758 384 2758 947 
C 2758 1606 2208 1811 1702 2003 
C 1312 2150 954 2278 954 2605 
C 954 2880 1158 3110 1600 3110 
C 1907 3110 2150 2976 2387 2803 
L 2669 3168 
C 2406 3386 2022 3565 1594 3565 
C 832 3565 397 3130 397 2579 
C 397 1984 922 1754 1408 1574 
C 1792 1434 2202 1267 2202 915 
C 2202 614 1978 371 1517 371 
C 1101 371 794 538 486 787 
L 205 397 
C 531 122 1005 -83 1498 -83 
z
" transform="scale(0.015625)"/>
     </defs>
     <use xlink:href="#NotoSansCJKsc-Regular-48"/>
     <use xlink:href="#NotoSansCJKsc-Regular-75" transform="translate(72.799988 0)"/>
     <use xlink:href="#NotoSansCJKsc-Regular-6d" transform="translate(133.499985 0)"/>
     <use xlink:href="#NotoSansCJKsc-Regular-61" transform="translate(226.099976 0)"/>
     <use xlink:href="#NotoSansCJKsc-Regular-6e" transform="translate(282.399963 0)"/>
     <use xlink:href="#NotoSansCJKsc-Regular-20" transform="translate(343.399948 0)"/>
     <use xlink:href="#NotoSansCJKsc-Regular-53" transform="translate(365.799942 0)"/>
     <use xlink:href="#NotoSansCJKsc-Regular-42" transform="translate(425.399933 0)"/>
     <use xlink:href="#NotoSansCJKsc-Regular-53" transform="translate(491.09993 0)"/>
     <use xlink:href="#NotoSansCJKsc-Regular-20" transform="translate(550.699921 0)"/>
     <use xlink:href="#NotoSansCJKsc-Regular-69" transform="translate(573.099915 0)"/>
     <use xlink:href="#NotoSansCJKsc-Regular-6d" transform="translate(600.599899 0)"/>
     <use xlink:href="#NotoSansCJKsc-Regular-70" transform="translate(693.19989 0)"/>
     <use xlink:href="#NotoSansCJKsc-Regular-72" transform="translate(755.199875 0)"/>
     <use xlink:href="#NotoSansCJKsc-Regular-6f" transform="translate(793.999863 0)"/>
     <use xlink:href="#NotoSansCJKsc-Regular-76" transform="translate(854.599854 0)"/>
     <use xlink:href="#NotoSansCJKsc-Regular-65" transform="translate(906.699844 0)"/>
     <use xlink:href="#NotoSansCJKsc-Regular-6d" transform="translate(962.099838 0)"/>
     <use xlink:href="#NotoSansCJKsc-Regular-65" transform="translate(1054.699829 0)"/>
     <use xlink:href="#NotoSansCJKsc-Regular-6e" transform="translate(1110.099823 0)"/>
     <use xlink:href="#NotoSansCJKsc-Regular-74" transform="translate(1171.099808 0)"/>
     <use xlink:href="#NotoSansCJKsc-Regular-73" transform="translate(1208.799805 0)"/>
    </g>
   </g>
  </g>
  <g id="axes_2">
   <g id="patch_9">
    <path d="M 438.131 274.556 
L 779.256 274.556 
L 779.256 75.372 
L 438.131 75.372 
z
" style="fill: #ffffff"/>
   </g>
   <g id="matplotlib.axis_3">
    <g id="xtick_5">
     <g id="line2d_21">
      <g>
       <use xlink:href="#m2690bcd769" x="508.656843" y="274.556" style="fill: #475569; stroke: #475569; stroke-width: 0.8"/>
      </g>
     </g>
     <g id="text_19">
      <!-- Instr. ACC -->
      <g style="fill: #475569" transform="translate(483.786531 290.311312) scale(0.11 -0.11)">
       <defs>
        <path id="NotoSansCJKsc-Regular-49" d="M 646 0 
L 1235 0 
L 1235 4691 
L 646 4691 
L 646 0 
z
" transform="scale(0.015625)"/>
        <path id="NotoSansCJKsc-Regular-2e" d="M 890 -83 
C 1120 -83 1312 96 1312 358 
C 1312 627 1120 806 890 806 
C 653 806 467 627 467 358 
C 467 96 653 -83 890 -83 
z
" transform="scale(0.015625)"/>
        <path id="NotoSansCJKsc-Regular-43" d="M 2413 -83 
C 3021 -83 3482 160 3853 589 
L 3526 966 
C 3226 634 2886 435 2438 435 
C 1542 435 979 1178 979 2362 
C 979 3533 1574 4256 2458 4256 
C 2861 4256 3168 4077 3418 3814 
L 3738 4198 
C 3469 4499 3021 4774 2451 4774 
C 1261 4774 371 3859 371 2342 
C 371 819 1242 -83 2413 -83 
z
" transform="scale(0.015625)"/>
       </defs>
       <use xlink:href="#NotoSansCJKsc-Regular-49"/>
       <use xlink:href="#NotoSansCJKsc-Regular-6e" transform="translate(29.299988 0)"/>
       <use xlink:href="#NotoSansCJKsc-Regular-73" transform="translate(90.299973 0)"/>
       <use xlink:href="#NotoSansCJKsc-Regular-74" transform="translate(137.09996 0)"/>
       <use xlink:href="#NotoSansCJKsc-Regular-72" transform="translate(174.799957 0)"/>
       <use xlink:href="#NotoSansCJKsc-Regular-2e" transform="translate(213.599945 0)"/>
       <use xlink:href="#NotoSansCJKsc-Regular-20" transform="translate(241.399933 0)"/>
       <use xlink:href="#NotoSansCJKsc-Regular-41" transform="translate(263.799927 0)"/>
       <use xlink:href="#NotoSansCJKsc-Regular-43" transform="translate(324.599915 0)"/>
       <use xlink:href="#NotoSansCJKsc-Regular-43" transform="translate(388.399902 0)"/>
      </g>
      <!-- (before) -->
      <g style="fill: #475569" transform="translate(488.191687 303.337375) scale(0.11 -0.11)">
       <defs>
        <path id="NotoSansCJKsc-Regular-28" d="M 1530 -1254 
L 1888 -1094 
C 1338 -186 1075 902 1075 1990 
C 1075 3072 1338 4154 1888 5069 
L 1530 5235 
C 941 4275 589 3245 589 1990 
C 589 730 941 -301 1530 -1254 
z
" transform="scale(0.015625)"/>
        <path id="NotoSansCJKsc-Regular-62" d="M 2118 -83 
C 2912 -83 3629 602 3629 1792 
C 3629 2867 3142 3565 2246 3565 
C 1856 3565 1472 3347 1152 3078 
L 1178 3699 
L 1178 5094 
L 589 5094 
L 589 0 
L 1056 0 
L 1107 358 
L 1133 358 
C 1434 83 1798 -83 2118 -83 
z
M 2022 410 
C 1792 410 1478 499 1178 768 
L 1178 2598 
C 1504 2906 1811 3072 2099 3072 
C 2765 3072 3021 2560 3021 1786 
C 3021 928 2598 410 2022 410 
z
" transform="scale(0.015625)"/>
        <path id="NotoSansCJKsc-Regular-66" d="M 211 3002 
L 685 3002 
L 685 0 
L 1267 0 
L 1267 3002 
L 2003 3002 
L 2003 3475 
L 1267 3475 
L 1267 4026 
C 1267 4474 1427 4710 1760 4710 
C 1882 4710 2022 4678 2150 4614 
L 2278 5069 
C 2118 5133 1914 5178 1696 5178 
C 1005 5178 685 4736 685 4032 
L 685 3475 
L 211 3443 
L 211 3002 
z
" transform="scale(0.015625)"/>
        <path id="NotoSansCJKsc-Regular-29" d="M 634 -1254 
C 1222 -301 1574 730 1574 1990 
C 1574 3245 1222 4275 634 5235 
L 269 5069 
C 819 4154 1094 3072 1094 1990 
C 1094 902 819 -186 269 -1094 
L 634 -1254 
z
" transform="scale(0.015625)"/>
       </defs>
       <use xlink:href="#NotoSansCJKsc-Regular-28"/>
       <use xlink:href="#NotoSansCJKsc-Regular-62" transform="translate(33.799988 0)"/>
       <use xlink:href="#NotoSansCJKsc-Regular-65" transform="translate(95.599976 0)"/>
       <use xlink:href="#NotoSansCJKsc-Regular-66" transform="translate(150.999969 0)"/>
       <use xlink:href="#NotoSansCJKsc-Regular-6f" transform="translate(183.499954 0)"/>
       <use xlink:href="#NotoSansCJKsc-Regular-72" transform="translate(244.099945 0)"/>
       <use xlink:href="#NotoSansCJKsc-Regular-65" transform="translate(282.899933 0)"/>
       <use xlink:href="#NotoSansCJKsc-Regular-29" transform="translate(338.299927 0)"/>
      </g>
     </g>
    </g>
    <g id="xtick_6">
     <g id="line2d_22">
      <g>
       <use xlink:href="#m2690bcd769" x="708.730157" y="274.556" style="fill: #475569; stroke: #475569; stroke-width: 0.8"/>
      </g>
     </g>
     <g id="text_20">
      <!-- Instr. ACC -->
      <g style="fill: #475569" transform="translate(683.859844 290.311312) scale(0.11 -0.11)">
       <use xlink:href="#NotoSansCJKsc-Regular-49"/>
       <use xlink:href="#NotoSansCJKsc-Regular-6e" transform="translate(29.299988 0)"/>
       <use xlink:href="#NotoSansCJKsc-Regular-73" transform="translate(90.299973 0)"/>
       <use xlink:href="#NotoSansCJKsc-Regular-74" transform="translate(137.09996 0)"/>
       <use xlink:href="#NotoSansCJKsc-Regular-72" transform="translate(174.799957 0)"/>
       <use xlink:href="#NotoSansCJKsc-Regular-2e" transform="translate(213.599945 0)"/>
       <use xlink:href="#NotoSansCJKsc-Regular-20" transform="translate(241.399933 0)"/>
       <use xlink:href="#NotoSansCJKsc-Regular-41" transform="translate(263.799927 0)"/>
       <use xlink:href="#NotoSansCJKsc-Regular-43" transform="translate(324.599915 0)"/>
       <use xlink:href="#NotoSansCJKsc-Regular-43" transform="translate(388.399902 0)"/>
      </g>
      <!-- (after) -->
      <g style="fill: #475569" transform="translate(692.873829 303.337375) scale(0.11 -0.11)">
       <use xlink:href="#NotoSansCJKsc-Regular-28"/>
       <use xlink:href="#NotoSansCJKsc-Regular-61" transform="translate(33.799988 0)"/>
       <use xlink:href="#NotoSansCJKsc-Regular-66" transform="translate(90.099976 0)"/>
       <use xlink:href="#NotoSansCJKsc-Regular-74" transform="translate(122.59996 0)"/>
       <use xlink:href="#NotoSansCJKsc-Regular-65" transform="translate(160.299957 0)"/>
       <use xlink:href="#NotoSansCJKsc-Regular-72" transform="translate(215.699951 0)"/>
       <use xlink:href="#NotoSansCJKsc-Regular-29" transform="translate(254.499939 0)"/>
      </g>
     </g>
    </g>
   </g>
   <g id="matplotlib.axis_4">
    <g id="ytick_9">
     <g id="line2d_23">
      <path d="M 438.131 274.556 
L 779.256 274.556 
" clip-path="url(#p14c994fc88)" style="fill: none; stroke: #e5e7eb; stroke-width: 0.8; stroke-linecap: square"/>
     </g>
     <g id="line2d_24">
      <g>
       <use xlink:href="#md3ba1a2eb0" x="438.131" y="274.556" style="fill: #475569; stroke: #475569; stroke-width: 0.8"/>
      </g>
     </g>
     <g id="text_21">
      <!-- 0.0 -->
      <g style="fill: #475569" transform="translate(415.863344 278.933656) scale(0.11 -0.11)">
       <use xlink:href="#NotoSansCJKsc-Regular-30"/>
       <use xlink:href="#NotoSansCJKsc-Regular-2e" transform="translate(55.499985 0)"/>
       <use xlink:href="#NotoSansCJKsc-Regular-30" transform="translate(83.299973 0)"/>
      </g>
     </g>
    </g>
    <g id="ytick_10">
     <g id="line2d_25">
      <path d="M 438.131 234.7192 
L 779.256 234.7192 
" clip-path="url(#p14c994fc88)" style="fill: none; stroke: #e5e7eb; stroke-width: 0.8; stroke-linecap: square"/>
     </g>
     <g id="line2d_26">
      <g>
       <use xlink:href="#md3ba1a2eb0" x="438.131" y="234.7192" style="fill: #475569; stroke: #475569; stroke-width: 0.8"/>
      </g>
     </g>
     <g id="text_22">
      <!-- 0.2 -->
      <g style="fill: #475569" transform="translate(415.863344 239.096856) scale(0.11 -0.11)">
       <use xlink:href="#NotoSansCJKsc-Regular-30"/>
       <use xlink:href="#NotoSansCJKsc-Regular-2e" transform="translate(55.499985 0)"/>
       <use xlink:href="#NotoSansCJKsc-Regular-32" transform="translate(83.299973 0)"/>
      </g>
     </g>
    </g>
    <g id="ytick_11">
     <g id="line2d_27">
      <path d="M 438.131 194.8824 
L 779.256 194.8824 
" clip-path="url(#p14c994fc88)" style="fill: none; stroke: #e5e7eb; stroke-width: 0.8; stroke-linecap: square"/>
     </g>
     <g id="line2d_28">
      <g>
       <use xlink:href="#md3ba1a2eb0" x="438.131" y="194.8824" style="fill: #475569; stroke: #475569; stroke-width: 0.8"/>
      </g>
     </g>
     <g id="text_23">
      <!-- 0.4 -->
      <g style="fill: #475569" transform="translate(415.863344 199.260056) scale(0.11 -0.11)">
       <use xlink:href="#NotoSansCJKsc-Regular-30"/>
       <use xlink:href="#NotoSansCJKsc-Regular-2e" transform="translate(55.499985 0)"/>
       <use xlink:href="#NotoSansCJKsc-Regular-34" transform="translate(83.299973 0)"/>
      </g>
     </g>
    </g>
    <g id="ytick_12">
     <g id="line2d_29">
      <path d="M 438.131 155.0456 
L 779.256 155.0456 
" clip-path="url(#p14c994fc88)" style="fill: none; stroke: #e5e7eb; stroke-width: 0.8; stroke-linecap: square"/>
     </g>
     <g id="line2d_30">
      <g>
       <use xlink:href="#md3ba1a2eb0" x="438.131" y="155.0456" style="fill: #475569; stroke: #475569; stroke-width: 0.8"/>
      </g>
     </g>
     <g id="text_24">
      <!-- 0.6 -->
      <g style="fill: #475569" transform="translate(415.863344 159.423256) scale(0.11 -0.11)">
       <use xlink:href="#NotoSansCJKsc-Regular-30"/>
       <use xlink:href="#NotoSansCJKsc-Regular-2e" transform="translate(55.499985 0)"/>
       <use xlink:href="#NotoSansCJKsc-Regular-36" transform="translate(83.299973 0)"/>
      </g>
     </g>
    </g>
    <g id="ytick_13">
     <g id="line2d_31">
      <path d="M 438.131 115.2088 
L 779.256 115.2088 
" clip-path="url(#p14c994fc88)" style="fill: none; stroke: #e5e7eb; stroke-width: 0.8; stroke-linecap: square"/>
     </g>
     <g id="line2d_32">
      <g>
       <use xlink:href="#md3ba1a2eb0" x="438.131" y="115.2088" style="fill: #475569; stroke: #475569; stroke-width: 0.8"/>
      </g>
     </g>
     <g id="text_25">
      <!-- 0.8 -->
      <g style="fill: #475569" transform="translate(415.863344 119.586456) scale(0.11 -0.11)">
       <use xlink:href="#NotoSansCJKsc-Regular-30"/>
       <use xlink:href="#NotoSansCJKsc-Regular-2e" transform="translate(55.499985 0)"/>
       <use xlink:href="#NotoSansCJKsc-Regular-38" transform="translate(83.299973 0)"/>
      </g>
     </g>
    </g>
    <g id="ytick_14">
     <g id="line2d_33">
      <path d="M 438.131 75.372 
L 779.256 75.372 
" clip-path="url(#p14c994fc88)" style="fill: none; stroke: #e5e7eb; stroke-width: 0.8; stroke-linecap: square"/>
     </g>
     <g id="line2d_34">
      <g>
       <use xlink:href="#md3ba1a2eb0" x="438.131" y="75.372" style="fill: #475569; stroke: #475569; stroke-width: 0.8"/>
      </g>
     </g>
     <g id="text_26">
      <!-- 1.0 -->
      <g style="fill: #475569" transform="translate(415.863344 79.749656) scale(0.11 -0.11)">
       <use xlink:href="#NotoSansCJKsc-Regular-31"/>
       <use xlink:href="#NotoSansCJKsc-Regular-2e" transform="translate(55.499985 0)"/>
       <use xlink:href="#NotoSansCJKsc-Regular-30" transform="translate(83.299973 0)"/>
      </g>
     </g>
    </g>
    <g id="text_27">
     <!-- Accuracy -->
     <g style="fill: #0f172a" transform="translate(409.288656 198.156812) rotate(-90) scale(0.11 -0.11)">
      <defs>
       <path id="NotoSansCJKsc-Regular-63" d="M 1958 -83 
C 2374 -83 2771 83 3085 352 
L 2829 749 
C 2611 557 2330 403 2010 403 
C 1370 403 934 934 934 1734 
C 934 2534 1395 3072 2029 3072 
C 2298 3072 2522 2950 2720 2771 
L 3014 3155 
C 2771 3373 2458 3565 2003 3565 
C 1107 3565 333 2893 333 1734 
C 333 582 1037 -83 1958 -83 
z
" transform="scale(0.015625)"/>
       <path id="NotoSansCJKsc-Regular-79" d="M 646 -1498 
C 1338 -1498 1702 -973 1946 -294 
L 3251 3475 
L 2682 3475 
L 2054 1549 
C 1965 1235 1862 883 1773 563 
L 1741 563 
C 1619 890 1504 1242 1395 1549 
L 691 3475 
L 83 3475 
L 1478 -6 
L 1402 -269 
C 1254 -698 1011 -1018 621 -1018 
C 525 -1018 422 -986 352 -960 
L 237 -1427 
C 346 -1472 486 -1498 646 -1498 
z
" transform="scale(0.015625)"/>
      </defs>
      <use xlink:href="#NotoSansCJKsc-Regular-41"/>
      <use xlink:href="#NotoSansCJKsc-Regular-63" transform="translate(60.799988 0)"/>
      <use xlink:href="#NotoSansCJKsc-Regular-63" transform="translate(111.799973 0)"/>
      <use xlink:href="#NotoSansCJKsc-Regular-75" transform="translate(162.799957 0)"/>
      <use xlink:href="#NotoSansCJKsc-Regular-72" transform="translate(223.499954 0)"/>
      <use xlink:href="#NotoSansCJKsc-Regular-61" transform="translate(262.299942 0)"/>
      <use xlink:href="#NotoSansCJKsc-Regular-63" transform="translate(318.59993 0)"/>
      <use xlink:href="#NotoSansCJKsc-Regular-79" transform="translate(369.599915 0)"/>
     </g>
    </g>
   </g>
   <g id="patch_10">
    <path d="M 438.131 274.556 
L 438.131 75.372 
" style="fill: none; stroke: #94a3b8; stroke-width: 0.8; stroke-linejoin: miter; stroke-linecap: square"/>
   </g>
   <g id="patch_11">
    <path d="M 438.131 274.556 
L 779.256 274.556 
" style="fill: none; stroke: #94a3b8; stroke-width: 0.8; stroke-linejoin: miter; stroke-linecap: square"/>
   </g>
   <g id="patch_12">
    <path d="M 453.636682 274.556 
L 563.677004 274.556 
L 563.677004 174.306693 
L 453.636682 174.306693 
z
" clip-path="url(#p14c994fc88)" style="fill: #94a3b8"/>
   </g>
   <g id="patch_13">
    <path d="M 653.709996 274.556 
L 763.750318 274.556 
L 763.750318 107.201603 
L 653.709996 107.201603 
z
" clip-path="url(#p14c994fc88)" style="fill: #d97706"/>
   </g>
   <g id="text_28">
    <!-- 0.5033 -->
    <g style="fill: #0f172a" transform="translate(493.428093 172.307193) scale(0.093 -0.093)">
     <defs>
      <path id="NotoSansCJKsc-Bold-35" d="M 1773 -90 
C 2637 -90 3424 518 3424 1574 
C 3424 2605 2765 3072 1965 3072 
C 1747 3072 1581 3034 1395 2944 
L 1485 3949 
L 3206 3949 
L 3206 4742 
L 672 4742 
L 544 2438 
L 973 2163 
C 1254 2342 1408 2406 1683 2406 
C 2157 2406 2483 2099 2483 1549 
C 2483 992 2138 678 1645 678 
C 1210 678 870 896 602 1158 
L 166 557 
C 525 205 1018 -90 1773 -90 
z
" transform="scale(0.015625)"/>
     </defs>
     <use xlink:href="#NotoSansCJKsc-Bold-30"/>
     <use xlink:href="#NotoSansCJKsc-Bold-2e" transform="translate(58.999985 0)"/>
     <use xlink:href="#NotoSansCJKsc-Bold-35" transform="translate(91.499969 0)"/>
     <use xlink:href="#NotoSansCJKsc-Bold-30" transform="translate(150.499954 0)"/>
     <use xlink:href="#NotoSansCJKsc-Bold-33" transform="translate(209.499939 0)"/>
     <use xlink:href="#NotoSansCJKsc-Bold-33" transform="translate(268.499924 0)"/>
    </g>
   </g>
   <g id="text_29">
    <!-- 0.8402 -->
    <g style="fill: #0f172a" transform="translate(693.501407 105.202103) scale(0.093 -0.093)">
     <defs>
      <path id="NotoSansCJKsc-Bold-34" d="M 2157 0 
L 3034 0 
L 3034 1229 
L 3597 1229 
L 3597 1946 
L 3034 1946 
L 3034 4742 
L 1901 4742 
L 134 1869 
L 134 1229 
L 2157 1229 
L 2157 0 
z
M 2157 1946 
L 1050 1946 
L 1786 3123 
C 1920 3379 2048 3642 2163 3898 
L 2195 3898 
C 2176 3616 2157 3187 2157 2912 
L 2157 1946 
z
" transform="scale(0.015625)"/>
     </defs>
     <use xlink:href="#NotoSansCJKsc-Bold-30"/>
     <use xlink:href="#NotoSansCJKsc-Bold-2e" transform="translate(58.999985 0)"/>
     <use xlink:href="#NotoSansCJKsc-Bold-38" transform="translate(91.499969 0)"/>
     <use xlink:href="#NotoSansCJKsc-Bold-34" transform="translate(150.499954 0)"/>
     <use xlink:href="#NotoSansCJKsc-Bold-30" transform="translate(209.499939 0)"/>
     <use xlink:href="#NotoSansCJKsc-Bold-32" transform="translate(268.499924 0)"/>
    </g>
   </g>
   <g id="text_30">
    <!-- Instruction-following relevance -->
    <g style="fill: #475569" transform="translate(528.469125 69.372) scale(0.11 -0.11)">
     <use xlink:href="#NotoSansCJKsc-Regular-49"/>
     <use xlink:href="#NotoSansCJKsc-Regular-6e" transform="translate(29.299988 0)"/>
     <use xlink:href="#NotoSansCJKsc-Regular-73" transform="translate(90.299973 0)"/>
     <use xlink:href="#NotoSansCJKsc-Regular-74" transform="translate(137.09996 0)"/>
     <use xlink:href="#NotoSansCJKsc-Regular-72" transform="translate(174.799957 0)"/>
     <use xlink:href="#NotoSansCJKsc-Regular-75" transform="translate(213.599945 0)"/>
     <use xlink:href="#NotoSansCJKsc-Regular-63" transform="translate(274.299942 0)"/>
     <use xlink:href="#NotoSansCJKsc-Regular-74" transform="translate(325.299927 0)"/>
     <use xlink:href="#NotoSansCJKsc-Regular-69" transform="translate(362.999924 0)"/>
     <use xlink:href="#NotoSansCJKsc-Regular-6f" transform="translate(390.499908 0)"/>
     <use xlink:href="#NotoSansCJKsc-Regular-6e" transform="translate(451.099899 0)"/>
     <use xlink:href="#NotoSansCJKsc-Regular-2d" transform="translate(512.099884 0)"/>
     <use xlink:href="#NotoSansCJKsc-Regular-66" transform="translate(546.799881 0)"/>
     <use xlink:href="#NotoSansCJKsc-Regular-6f" transform="translate(579.299866 0)"/>
     <use xlink:href="#NotoSansCJKsc-Regular-6c" transform="translate(639.899857 0)"/>
     <use xlink:href="#NotoSansCJKsc-Regular-6c" transform="translate(668.29985 0)"/>
     <use xlink:href="#NotoSansCJKsc-Regular-6f" transform="translate(696.699844 0)"/>
     <use xlink:href="#NotoSansCJKsc-Regular-77" transform="translate(757.299835 0)"/>
     <use xlink:href="#NotoSansCJKsc-Regular-69" transform="translate(837.499817 0)"/>
     <use xlink:href="#NotoSansCJKsc-Regular-6e" transform="translate(864.999802 0)"/>
     <use xlink:href="#NotoSansCJKsc-Regular-67" transform="translate(925.999786 0)"/>
     <use xlink:href="#NotoSansCJKsc-Regular-20" transform="translate(982.39978 0)"/>
     <use xlink:href="#NotoSansCJKsc-Regular-72" transform="translate(1004.799774 0)"/>
     <use xlink:href="#NotoSansCJKsc-Regular-65" transform="translate(1043.599762 0)"/>
     <use xlink:href="#NotoSansCJKsc-Regular-6c" transform="translate(1098.999756 0)"/>
     <use xlink:href="#NotoSansCJKsc-Regular-65" transform="translate(1127.39975 0)"/>
     <use xlink:href="#NotoSansCJKsc-Regular-76" transform="translate(1182.799744 0)"/>
     <use xlink:href="#NotoSansCJKsc-Regular-61" transform="translate(1234.899734 0)"/>
     <use xlink:href="#NotoSansCJKsc-Regular-6e" transform="translate(1291.199722 0)"/>
     <use xlink:href="#NotoSansCJKsc-Regular-63" transform="translate(1352.199707 0)"/>
     <use xlink:href="#NotoSansCJKsc-Regular-65" transform="translate(1403.199692 0)"/>
    </g>
   </g>
  </g>
  <g id="text_31">
   <!-- Case-Driven Multi-Agent — highlight numbers -->
   <g style="fill: #0f172a" transform="translate(8.64 19.587656) scale(0.135 -0.135)">
    <defs>
     <path id="NotoSansCJKsc-Bold-43" d="M 2509 -90 
C 3130 -90 3635 154 4026 608 
L 3520 1197 
C 3270 922 2957 730 2547 730 
C 1798 730 1318 1350 1318 2381 
C 1318 3398 1850 4013 2566 4013 
C 2925 4013 3200 3846 3443 3616 
L 3936 4218 
C 3629 4538 3155 4826 2547 4826 
C 1350 4826 346 3910 346 2349 
C 346 768 1318 -90 2509 -90 
z
" transform="scale(0.015625)"/>
     <path id="NotoSansCJKsc-Bold-61" d="M 1382 -90 
C 1798 -90 2157 109 2464 384 
L 2496 384 
L 2560 0 
L 3328 0 
L 3328 2093 
C 3328 3130 2861 3674 1952 3674 
C 1389 3674 877 3456 461 3200 
L 794 2573 
C 1126 2771 1446 2918 1779 2918 
C 2221 2918 2374 2650 2387 2298 
C 947 2144 326 1741 326 979 
C 326 365 742 -90 1382 -90 
z
M 1696 646 
C 1421 646 1222 768 1222 1050 
C 1222 1376 1510 1613 2387 1715 
L 2387 998 
C 2163 774 1965 646 1696 646 
z
" transform="scale(0.015625)"/>
     <path id="NotoSansCJKsc-Bold-73" d="M 1530 -90 
C 2458 -90 2957 410 2957 1043 
C 2957 1702 2432 1946 1958 2125 
C 1574 2266 1248 2362 1248 2624 
C 1248 2829 1402 2970 1728 2970 
C 1990 2970 2240 2842 2496 2662 
L 2918 3232 
C 2624 3462 2221 3674 1702 3674 
C 883 3674 365 3219 365 2579 
C 365 1978 870 1702 1325 1530 
C 1702 1382 2074 1261 2074 992 
C 2074 768 1914 614 1555 614 
C 1216 614 915 762 595 1005 
L 166 410 
C 525 115 1050 -90 1530 -90 
z
" transform="scale(0.015625)"/>
     <path id="NotoSansCJKsc-Bold-65" d="M 2067 -90 
C 2509 -90 2963 64 3315 307 
L 2995 883 
C 2733 723 2483 640 2195 640 
C 1658 640 1274 941 1197 1523 
L 3405 1523 
C 3430 1613 3450 1786 3450 1958 
C 3450 2957 2938 3674 1952 3674 
C 1101 3674 282 2950 282 1792 
C 282 608 1062 -90 2067 -90 
z
M 1178 2157 
C 1254 2675 1587 2944 1965 2944 
C 2432 2944 2643 2637 2643 2157 
L 1178 2157 
z
" transform="scale(0.015625)"/>
     <path id="NotoSansCJKsc-Bold-2d" d="M 314 1491 
L 2061 1491 
L 2061 2170 
L 314 2170 
L 314 1491 
z
" transform="scale(0.015625)"/>
     <path id="NotoSansCJKsc-Bold-44" d="M 582 0 
L 1933 0 
C 3334 0 4224 794 4224 2394 
C 4224 3987 3334 4742 1882 4742 
L 582 4742 
L 582 0 
z
M 1530 768 
L 1530 3981 
L 1818 3981 
C 2707 3981 3258 3546 3258 2394 
C 3258 1242 2707 768 1818 768 
L 1530 768 
z
" transform="scale(0.015625)"/>
     <path id="NotoSansCJKsc-Bold-72" d="M 506 0 
L 1446 0 
L 1446 2138 
C 1651 2656 1984 2842 2259 2842 
C 2413 2842 2515 2822 2643 2784 
L 2797 3597 
C 2694 3642 2579 3674 2381 3674 
C 2010 3674 1626 3418 1363 2950 
L 1344 2950 
L 1274 3584 
L 506 3584 
L 506 0 
z
" transform="scale(0.015625)"/>
     <path id="NotoSansCJKsc-Bold-69" d="M 506 0 
L 1446 0 
L 1446 3584 
L 506 3584 
L 506 0 
z
M 979 4166 
C 1299 4166 1523 4365 1523 4678 
C 1523 4986 1299 5190 979 5190 
C 646 5190 435 4986 435 4678 
C 435 4365 646 4166 979 4166 
z
" transform="scale(0.015625)"/>
     <path id="NotoSansCJKsc-Bold-76" d="M 1312 0 
L 2400 0 
L 3597 3584 
L 2694 3584 
L 2170 1798 
C 2074 1446 1978 1075 1882 710 
L 1850 710 
C 1747 1075 1658 1446 1555 1798 
L 1037 3584 
L 90 3584 
L 1312 0 
z
" transform="scale(0.015625)"/>
     <path id="NotoSansCJKsc-Bold-6e" d="M 506 0 
L 1446 0 
L 1446 2464 
C 1709 2726 1901 2867 2189 2867 
C 2541 2867 2694 2675 2694 2118 
L 2694 0 
L 3635 0 
L 3635 2234 
C 3635 3136 3302 3674 2528 3674 
C 2042 3674 1677 3418 1363 3110 
L 1344 3110 
L 1274 3584 
L 506 3584 
L 506 0 
z
" transform="scale(0.015625)"/>
     <path id="NotoSansCJKsc-Bold-20" transform="scale(0.015625)"/>
     <path id="NotoSansCJKsc-Bold-4d" d="M 582 0 
L 1434 0 
L 1434 1978 
C 1434 2432 1357 3085 1312 3533 
L 1338 3533 
L 1715 2419 
L 2451 429 
L 2995 429 
L 3725 2419 
L 4109 3533 
L 4141 3533 
C 4090 3085 4019 2432 4019 1978 
L 4019 0 
L 4883 0 
L 4883 4742 
L 3834 4742 
L 3040 2515 
C 2944 2227 2861 1914 2758 1613 
L 2726 1613 
C 2630 1914 2541 2227 2438 2515 
L 1632 4742 
L 582 4742 
L 582 0 
z
" transform="scale(0.015625)"/>
     <path id="NotoSansCJKsc-Bold-75" d="M 1574 -90 
C 2067 -90 2406 154 2714 518 
L 2739 518 
L 2810 0 
L 3578 0 
L 3578 3584 
L 2637 3584 
L 2637 1165 
C 2394 845 2202 717 1914 717 
C 1562 717 1402 909 1402 1466 
L 1402 3584 
L 467 3584 
L 467 1350 
C 467 448 800 -90 1574 -90 
z
" transform="scale(0.015625)"/>
     <path id="NotoSansCJKsc-Bold-6c" d="M 1395 -90 
C 1613 -90 1766 -51 1875 -6 
L 1760 691 
C 1696 678 1670 678 1632 678 
C 1542 678 1446 749 1446 966 
L 1446 5107 
L 506 5107 
L 506 1005 
C 506 339 736 -90 1395 -90 
z
" transform="scale(0.015625)"/>
     <path id="NotoSansCJKsc-Bold-74" d="M 1818 -90 
C 2131 -90 2381 -13 2579 45 
L 2419 730 
C 2323 691 2182 653 2067 653 
C 1747 653 1574 845 1574 1254 
L 1574 2842 
L 2464 2842 
L 2464 3584 
L 1574 3584 
L 1574 4550 
L 800 4550 
L 691 3584 
L 134 3539 
L 134 2842 
L 640 2842 
L 640 1248 
C 640 454 966 -90 1818 -90 
z
" transform="scale(0.015625)"/>
     <path id="NotoSansCJKsc-Bold-41" d="M -26 0 
L 934 0 
L 1267 1216 
L 2797 1216 
L 3130 0 
L 4128 0 
L 2611 4742 
L 1491 4742 
L -26 0 
z
M 1472 1952 
L 1613 2470 
C 1754 2963 1888 3501 2016 4019 
L 2042 4019 
C 2182 3514 2310 2963 2458 2470 
L 2598 1952 
L 1472 1952 
z
" transform="scale(0.015625)"/>
     <path id="NotoSansCJKsc-Bold-67" d="M 1766 -1555 
C 2963 -1555 3718 -1005 3718 -282 
C 3718 346 3245 614 2381 614 
L 1766 614 
C 1350 614 1203 717 1203 902 
C 1203 1056 1267 1133 1357 1216 
C 1517 1158 1683 1133 1818 1133 
C 2592 1133 3206 1536 3206 2349 
C 3206 2573 3136 2771 3046 2893 
L 3654 2893 
L 3654 3584 
L 2368 3584 
C 2214 3635 2029 3674 1818 3674 
C 1062 3674 378 3219 378 2381 
C 378 1958 608 1619 858 1440 
L 858 1414 
C 640 1261 461 1011 461 749 
C 461 448 595 262 787 141 
L 787 109 
C 448 -77 275 -333 275 -634 
C 275 -1267 922 -1555 1766 -1555 
z
M 1818 1715 
C 1510 1715 1261 1952 1261 2381 
C 1261 2797 1504 3027 1818 3027 
C 2138 3027 2387 2797 2387 2381 
C 2387 1952 2138 1715 1818 1715 
z
M 1907 -954 
C 1389 -954 1056 -787 1056 -493 
C 1056 -339 1126 -198 1286 -70 
C 1421 -102 1568 -115 1779 -115 
L 2221 -115 
C 2605 -115 2816 -186 2816 -442 
C 2816 -717 2451 -954 1907 -954 
z
" transform="scale(0.015625)"/>
     <path id="NotoSansCJKsc-Bold-2014" d="M 314 1536 
L 5498 1536 
L 5498 2138 
L 314 2138 
L 314 1536 
z
" transform="scale(0.015625)"/>
     <path id="NotoSansCJKsc-Bold-68" d="M 506 0 
L 1446 0 
L 1446 2464 
C 1709 2726 1901 2867 2189 2867 
C 2541 2867 2694 2675 2694 2118 
L 2694 0 
L 3635 0 
L 3635 2234 
C 3635 3136 3302 3674 2528 3674 
C 2042 3674 1683 3418 1402 3149 
L 1446 3821 
L 1446 5107 
L 506 5107 
L 506 0 
z
" transform="scale(0.015625)"/>
     <path id="NotoSansCJKsc-Bold-6d" d="M 506 0 
L 1446 0 
L 1446 2464 
C 1696 2739 1926 2867 2131 2867 
C 2477 2867 2637 2675 2637 2118 
L 2637 0 
L 3571 0 
L 3571 2464 
C 3827 2739 4058 2867 4262 2867 
C 4602 2867 4762 2675 4762 2118 
L 4762 0 
L 5696 0 
L 5696 2234 
C 5696 3136 5350 3674 4589 3674 
C 4128 3674 3776 3392 3443 3046 
C 3277 3443 2976 3674 2464 3674 
C 1997 3674 1664 3418 1363 3104 
L 1344 3104 
L 1274 3584 
L 506 3584 
L 506 0 
z
" transform="scale(0.015625)"/>
     <path id="NotoSansCJKsc-Bold-62" d="M 2304 -90 
C 3091 -90 3827 621 3827 1856 
C 3827 2950 3296 3674 2413 3674 
C 2061 3674 1702 3501 1414 3245 
L 1446 3821 
L 1446 5107 
L 506 5107 
L 506 0 
L 1242 0 
L 1318 378 
L 1350 378 
C 1638 77 1984 -90 2304 -90 
z
M 2099 685 
C 1901 685 1664 755 1446 954 
L 1446 2534 
C 1690 2778 1907 2899 2150 2899 
C 2643 2899 2861 2522 2861 1837 
C 2861 1056 2522 685 2099 685 
z
" transform="scale(0.015625)"/>
    </defs>
    <use xlink:href="#NotoSansCJKsc-Bold-43"/>
    <use xlink:href="#NotoSansCJKsc-Bold-61" transform="translate(65.599991 0)"/>
    <use xlink:href="#NotoSansCJKsc-Bold-73" transform="translate(124.699982 0)"/>
    <use xlink:href="#NotoSansCJKsc-Bold-65" transform="translate(174.199966 0)"/>
    <use xlink:href="#NotoSansCJKsc-Bold-2d" transform="translate(232.299957 0)"/>
    <use xlink:href="#NotoSansCJKsc-Bold-44" transform="translate(269.299942 0)"/>
    <use xlink:href="#NotoSansCJKsc-Bold-72" transform="translate(340.699936 0)"/>
    <use xlink:href="#NotoSansCJKsc-Bold-69" transform="translate(384.299927 0)"/>
    <use xlink:href="#NotoSansCJKsc-Bold-76" transform="translate(414.699921 0)"/>
    <use xlink:href="#NotoSansCJKsc-Bold-65" transform="translate(472.299911 0)"/>
    <use xlink:href="#NotoSansCJKsc-Bold-6e" transform="translate(530.399902 0)"/>
    <use xlink:href="#NotoSansCJKsc-Bold-20" transform="translate(594.499893 0)"/>
    <use xlink:href="#NotoSansCJKsc-Bold-4d" transform="translate(617.19989 0)"/>
    <use xlink:href="#NotoSansCJKsc-Bold-75" transform="translate(702.499878 0)"/>
    <use xlink:href="#NotoSansCJKsc-Bold-6c" transform="translate(766.199875 0)"/>
    <use xlink:href="#NotoSansCJKsc-Bold-74" transform="translate(797.69986 0)"/>
    <use xlink:href="#NotoSansCJKsc-Bold-69" transform="translate(839.79985 0)"/>
    <use xlink:href="#NotoSansCJKsc-Bold-2d" transform="translate(870.199844 0)"/>
    <use xlink:href="#NotoSansCJKsc-Bold-41" transform="translate(907.199829 0)"/>
    <use xlink:href="#NotoSansCJKsc-Bold-67" transform="translate(971.29982 0)"/>
    <use xlink:href="#NotoSansCJKsc-Bold-65" transform="translate(1030.999817 0)"/>
    <use xlink:href="#NotoSansCJKsc-Bold-6e" transform="translate(1089.099808 0)"/>
    <use xlink:href="#NotoSansCJKsc-Bold-74" transform="translate(1153.199799 0)"/>
    <use xlink:href="#NotoSansCJKsc-Bold-20" transform="translate(1195.299789 0)"/>
    <use xlink:href="#NotoSansCJKsc-Bold-2014" transform="translate(1217.999786 0)"/>
    <use xlink:href="#NotoSansCJKsc-Bold-20" transform="translate(1308.799774 0)"/>
    <use xlink:href="#NotoSansCJKsc-Bold-68" transform="translate(1331.499771 0)"/>
    <use xlink:href="#NotoSansCJKsc-Bold-69" transform="translate(1395.499756 0)"/>
    <use xlink:href="#NotoSansCJKsc-Bold-67" transform="translate(1425.89975 0)"/>
    <use xlink:href="#NotoSansCJKsc-Bold-68" transform="translate(1485.599747 0)"/>
    <use xlink:href="#NotoSansCJKsc-Bold-6c" transform="translate(1549.599731 0)"/>
    <use xlink:href="#NotoSansCJKsc-Bold-69" transform="translate(1581.099716 0)"/>
    <use xlink:href="#NotoSansCJKsc-Bold-67" transform="translate(1611.49971 0)"/>
    <use xlink:href="#NotoSansCJKsc-Bold-68" transform="translate(1671.199707 0)"/>
    <use xlink:href="#NotoSansCJKsc-Bold-74" transform="translate(1735.199692 0)"/>
    <use xlink:href="#NotoSansCJKsc-Bold-20" transform="translate(1777.299683 0)"/>
    <use xlink:href="#NotoSansCJKsc-Bold-6e" transform="translate(1799.99968 0)"/>
    <use xlink:href="#NotoSansCJKsc-Bold-75" transform="translate(1864.09967 0)"/>
    <use xlink:href="#NotoSansCJKsc-Bold-6d" transform="translate(1927.799667 0)"/>
    <use xlink:href="#NotoSansCJKsc-Bold-62" transform="translate(2024.199661 0)"/>
    <use xlink:href="#NotoSansCJKsc-Bold-65" transform="translate(2088.599655 0)"/>
    <use xlink:href="#NotoSansCJKsc-Bold-72" transform="translate(2146.699646 0)"/>
    <use xlink:href="#NotoSansCJKsc-Bold-73" transform="translate(2190.299637 0)"/>
   </g>
  </g>
 </g>
 <defs>
  <clipPath id="p4e6d9b2d60">
   <rect x="46.496" y="75.372" width="341.125" height="199.184"/>
  </clipPath>
  <clipPath id="p14c994fc88">
   <rect x="438.131" y="75.372" width="341.125" height="199.184"/>
  </clipPath>
 </defs>
</svg>
