<?xml version="1.0" encoding="utf-8" standalone="no"?>
<!DOCTYPE svg PUBLIC "-//W3C//DTD SVG 1.1//EN"
  "http://www.w3.org/Graphics/SVG/1.1/DTD/svg11.dtd">
<svg xmlns:xlink="http://www.w3.org/1999/xlink" width="631.08pt" height="272.304pt" viewBox="0 0 631.08 272.304" xmlns="http://www.w3.org/2000/svg" version="1.1">
 <metadata>
  <rdf:RDF xmlns:dc="http://purl.org/dc/elements/1.1/" xmlns:cc="http://creativecommons.org/ns#" xmlns:rdf="http://www.w3.org/1999/02/22-rdf-syntax-ns#">
   <cc:Work>
    <dc:type rdf:resource="http://purl.org/dc/dcmitype/StillImage"/>
    <dc:date>2026-06-25T19:42:37.477854</dc:date>
    <dc:format>image/svg+xml</dc:format>
    <dc:creator>
     <cc:Agent>
      <dc:title>Matplotlib v3.10.5, https://matplotlib.org/</dc:title>
     </cc:Agent>
    </dc:creator>
   </cc:Work>
  </rdf:RDF>
 </metadata>
 <defs>
  <style type="text/css">*{stroke-linejoin: round; stroke-linecap: butt}</style>
 </defs>
 <g id="figure_1">
  <g id="patch_1">
   <path d="M 0 272.304 
L 631.08 272.304 
L 631.08 0 
L 0 0 
z
" style="fill: #ffffff"/>
  </g>
  <g id="axes_1">
   <g id="patch_2">
    <path d="M 134.630392 118.30032 
Q 142.756279 118.30032 148.955236 118.30032 
" clip-path="url(#p0bf09decaa)" style="fill: none; stroke: #94a3b8; stroke-width: 1.9; stroke-linecap: round"/>
    <path d="M 142.955236 114.90032 
L 148.955236 118.30032 
L 142.955236 121.70032 
" clip-path="url(#p0bf09decaa)" style="fill: none; stroke: #94a3b8; stroke-width: 1.9; stroke-linecap: round"/>
   </g>
   <g id="patch_3">
    <path d="M 271.507792 118.30032 
Q 279.633679 118.30032 285.832636 118.30032 
" clip-path="url(#p0bf09decaa)" style="fill: none; stroke: #94a3b8; stroke-width: 1.9; stroke-linecap: round"/>
    <path d="M 279.832636 114.90032 
L 285.832636 118.30032 
L 279.832636 121.70032 
" clip-path="url(#p0bf09decaa)" style="fill: none; stroke: #94a3b8; stroke-width: 1.9; stroke-linecap: round"/>
   </g>
   <g id="patch_4">
    <path d="M 408.385192 118.30032 
Q 416.511079 118.30032 422.710036 118.30032 
" clip-path="url(#p0bf09decaa)" style="fill: none; stroke: #94a3b8; stroke-width: 1.9; stroke-linecap: round"/>
    <path d="M 416.710036 114.90032 
L 422.710036 118.30032 
L 416.710036 121.70032 
" clip-path="url(#p0bf09decaa)" style="fill: none; stroke: #94a3b8; stroke-width: 1.9; stroke-linecap: round"/>
   </g>
   <g id="patch_5">
    <path d="M 519.722533 157.713856 
Q 539.577587 171.855778 557.86313 184.879804 
" clip-path="url(#p0bf09decaa)" style="fill: none; stroke-dasharray: 9.5,7.6; stroke-dashoffset: 0; stroke: #10b981; stroke-width: 1.9; stroke-linecap: round"/>
    <path d="M 554.948537 178.629592 
L 557.86313 184.879804 
L 551.003557 184.168286 
" clip-path="url(#p0bf09decaa)" style="fill: none; stroke-dasharray: 9.5,7.6; stroke-dashoffset: 0; stroke: #10b981; stroke-width: 1.9; stroke-linecap: round"/>
   </g>
   <g id="patch_6">
    <path d="M 20.916 159.614208 
L 127.7172 159.614208 
Q 139.9932 159.614208 139.9932 154.513728 
L 139.9932 82.086912 
Q 139.9932 76.986432 127.7172 76.986432 
L 20.916 76.986432 
Q 8.64 76.986432 8.64 82.086912 
L 8.64 154.513728 
Q 8.64 159.614208 20.916 159.614208 
z
" clip-path="url(#p0bf09decaa)" style="fill: #ecfeff; stroke: #a5f3fc; stroke-width: 1.4; stroke-linejoin: miter"/>
   </g>
   <g id="patch_7">
    <path d="M 157.7934 159.614208 
L 264.5946 159.614208 
Q 276.8706 159.614208 276.8706 154.513728 
L 276.8706 82.086912 
Q 276.8706 76.986432 264.5946 76.986432 
L 157.7934 76.986432 
Q 145.5174 76.986432 145.5174 82.086912 
L 145.5174 154.513728 
Q 145.5174 159.614208 157.7934 159.614208 
z
" clip-path="url(#p0bf09decaa)" style="fill: #eff6ff; stroke: #bfdbfe; stroke-width: 1.4; stroke-linejoin: miter"/>
   </g>
   <g id="patch_8">
    <path d="M 294.6708 159.614208 
L 401.472 159.614208 
Q 413.748 159.614208 413.748 154.513728 
L 413.748 82.086912 
Q 413.748 76.986432 401.472 76.986432 
L 294.6708 76.986432 
Q 282.3948 76.986432 282.3948 82.086912 
L 282.3948 154.513728 
Q 282.3948 159.614208 294.6708 159.614208 
z
" clip-path="url(#p0bf09decaa)" style="fill: #f5f3ff; stroke: #ddd6fe; stroke-width: 1.4; stroke-linejoin: miter"/>
   </g>
   <g id="patch_9">
    <path d="M 431.5482 159.614208 
L 538.3494 159.614208 
Q 550.6254 159.614208 550.6254 154.513728 
L 550.6254 82.086912 
Q 550.6254 76.986432 538.3494 76.986432 
L 431.5482 76.986432 
Q 419.2722 76.986432 419.2722 82.086912 
L 419.2722 154.513728 
Q 419.2722 159.614208 431.5482 159.614208 
z
" clip-path="url(#p0bf09decaa)" style="fill: #fffbeb; stroke: #fde68a; stroke-width: 1.4; stroke-linejoin: miter"/>
   </g>
   <g id="patch_10">
    <path d="M 513.7974 236.121408 
L 608.3226 236.121408 
Q 620.5986 236.121408 620.5986 231.020928 
L 620.5986 189.196992 
Q 620.5986 184.096512 608.3226 184.096512 
L 513.7974 184.096512 
Q 501.5214 184.096512 501.5214 189.196992 
L 501.5214 231.020928 
Q 501.5214 236.121408 513.7974 236.121408 
z
" clip-path="url(#p0bf09decaa)" style="fill: #ecfdf5; stroke: #bbf7d0; stroke-width: 1.4; stroke-linejoin: miter"/>
   </g>
   <g id="text_1">
    <!-- VCG — Multimodal Retrieval for E-commerce Video Feeds -->
    <g style="fill: #0f172a" transform="translate(16.0056 45.235796) scale(0.155 -0.155)">
     <defs>
      <path id="NotoSansCJKsc-Bold-56" d="M 1414 0 
L 2547 0 
L 3994 4742 
L 3034 4742 
L 2419 2432 
C 2272 1907 2170 1434 2016 902 
L 1984 902 
C 1837 1434 1734 1907 1587 2432 
L 966 4742 
L -32 4742 
L 1414 0 
z
" transform="scale(0.015625)"/>
      <path id="NotoSansCJKsc-Bold-43" d="M 2509 -90 
C 3130 -90 3635 154 4026 608 
L 3520 1197 
C 3270 922 2957 730 2547 730 
C 1798 730 1318 1350 1318 2381 
C 1318 3398 1850 4013 2566 4013 
C 2925 4013 3200 3846 3443 3616 
L 3936 4218 
C 3629 4538 3155 4826 2547 4826 
C 1350 4826 346 3910 346 2349 
C 346 768 1318 -90 2509 -90 
z
" transform="scale(0.015625)"/>
      <path id="NotoSansCJKsc-Bold-47" d="M 2618 -90 
C 3270 -90 3834 160 4160 480 
L 4160 2618 
L 2470 2618 
L 2470 1843 
L 3309 1843 
L 3309 909 
C 3181 794 2944 730 2720 730 
C 1786 730 1318 1350 1318 2381 
C 1318 3398 1856 4013 2650 4013 
C 3072 4013 3341 3840 3578 3616 
L 4083 4218 
C 3776 4531 3302 4826 2618 4826 
C 1357 4826 346 3910 346 2349 
C 346 768 1331 -90 2618 -90 
z
" transform="scale(0.015625)"/>
      <path id="NotoSansCJKsc-Bold-20" transform="scale(0.015625)"/>
      <path id="NotoSansCJKsc-Bold-2014" d="M 314 1536 
L 5498 1536 
L 5498 2138 
L 314 2138 
L 314 1536 
z
" transform="scale(0.015625)"/>
      <path id="NotoSansCJKsc-Bold-4d" d="M 582 0 
L 1434 0 
L 1434 1978 
C 1434 2432 1357 3085 1312 3533 
L 1338 3533 
L 1715 2419 
L 2451 429 
L 2995 429 
L 3725 2419 
L 4109 3533 
L 4141 3533 
C 4090 3085 4019 2432 4019 1978 
L 4019 0 
L 4883 0 
L 4883 4742 
L 3834 4742 
L 3040 2515 
C 2944 2227 2861 1914 2758 1613 
L 2726 1613 
C 2630 1914 2541 2227 2438 2515 
L 1632 4742 
L 582 4742 
L 582 0 
z
" transform="scale(0.015625)"/>
      <path id="NotoSansCJKsc-Bold-75" d="M 1574 -90 
C 2067 -90 2406 154 2714 518 
L 2739 518 
L 2810 0 
L 3578 0 
L 3578 3584 
L 2637 3584 
L 2637 1165 
C 2394 845 2202 717 1914 717 
C 1562 717 1402 909 1402 1466 
L 1402 3584 
L 467 3584 
L 467 1350 
C 467 448 800 -90 1574 -90 
z
" transform="scale(0.015625)"/>
      <path id="NotoSansCJKsc-Bold-6c" d="M 1395 -90 
C 1613 -90 1766 -51 1875 -6 
L 1760 691 
C 1696 678 1670 678 1632 678 
C 1542 678 1446 749 1446 966 
L 1446 5107 
L 506 5107 
L 506 1005 
C 506 339 736 -90 1395 -90 
z
" transform="scale(0.015625)"/>
      <path id="NotoSansCJKsc-Bold-74" d="M 1818 -90 
C 2131 -90 2381 -13 2579 45 
L 2419 730 
C 2323 691 2182 653 2067 653 
C 1747 653 1574 845 1574 1254 
L 1574 2842 
L 2464 2842 
L 2464 3584 
L 1574 3584 
L 1574 4550 
L 800 4550 
L 691 3584 
L 134 3539 
L 134 2842 
L 640 2842 
L 640 1248 
C 640 454 966 -90 1818 -90 
z
" transform="scale(0.015625)"/>
      <path id="NotoSansCJKsc-Bold-69" d="M 506 0 
L 1446 0 
L 1446 3584 
L 506 3584 
L 506 0 
z
M 979 4166 
C 1299 4166 1523 4365 1523 4678 
C 1523 4986 1299 5190 979 5190 
C 646 5190 435 4986 435 4678 
C 435 4365 646 4166 979 4166 
z
" transform="scale(0.015625)"/>
      <path id="NotoSansCJKsc-Bold-6d" d="M 506 0 
L 1446 0 
L 1446 2464 
C 1696 2739 1926 2867 2131 2867 
C 2477 2867 2637 2675 2637 2118 
L 2637 0 
L 3571 0 
L 3571 2464 
C 3827 2739 4058 2867 4262 2867 
C 4602 2867 4762 2675 4762 2118 
L 4762 0 
L 5696 0 
L 5696 2234 
C 5696 3136 5350 3674 4589 3674 
C 4128 3674 3776 3392 3443 3046 
C 3277 3443 2976 3674 2464 3674 
C 1997 3674 1664 3418 1363 3104 
L 1344 3104 
L 1274 3584 
L 506 3584 
L 506 0 
z
" transform="scale(0.015625)"/>
      <path id="NotoSansCJKsc-Bold-6f" d="M 2003 -90 
C 2899 -90 3725 602 3725 1792 
C 3725 2982 2899 3674 2003 3674 
C 1101 3674 282 2982 282 1792 
C 282 602 1101 -90 2003 -90 
z
M 2003 678 
C 1510 678 1242 1114 1242 1792 
C 1242 2464 1510 2906 2003 2906 
C 2490 2906 2765 2464 2765 1792 
C 2765 1114 2490 678 2003 678 
z
" transform="scale(0.015625)"/>
      <path id="NotoSansCJKsc-Bold-64" d="M 1766 -90 
C 2138 -90 2496 109 2758 371 
L 2784 371 
L 2854 0 
L 3622 0 
L 3622 5107 
L 2682 5107 
L 2682 3846 
L 2714 3283 
C 2458 3520 2208 3674 1805 3674 
C 1037 3674 301 2957 301 1792 
C 301 614 870 -90 1766 -90 
z
M 2010 685 
C 1536 685 1267 1056 1267 1805 
C 1267 2515 1606 2899 2010 2899 
C 2240 2899 2464 2829 2682 2630 
L 2682 1056 
C 2477 787 2259 685 2010 685 
z
" transform="scale(0.015625)"/>
      <path id="NotoSansCJKsc-Bold-61" d="M 1382 -90 
C 1798 -90 2157 109 2464 384 
L 2496 384 
L 2560 0 
L 3328 0 
L 3328 2093 
C 3328 3130 2861 3674 1952 3674 
C 1389 3674 877 3456 461 3200 
L 794 2573 
C 1126 2771 1446 2918 1779 2918 
C 2221 2918 2374 2650 2387 2298 
C 947 2144 326 1741 326 979 
C 326 365 742 -90 1382 -90 
z
M 1696 646 
C 1421 646 1222 768 1222 1050 
C 1222 1376 1510 1613 2387 1715 
L 2387 998 
C 2163 774 1965 646 1696 646 
z
" transform="scale(0.015625)"/>
      <path id="NotoSansCJKsc-Bold-52" d="M 1530 2541 
L 1530 3987 
L 2144 3987 
C 2752 3987 3085 3814 3085 3302 
C 3085 2797 2752 2541 2144 2541 
L 1530 2541 
z
M 3162 0 
L 4218 0 
L 3110 1939 
C 3654 2150 4013 2592 4013 3302 
C 4013 4390 3226 4742 2227 4742 
L 582 4742 
L 582 0 
L 1530 0 
L 1530 1792 
L 2189 1792 
L 3162 0 
z
" transform="scale(0.015625)"/>
      <path id="NotoSansCJKsc-Bold-65" d="M 2067 -90 
C 2509 -90 2963 64 3315 307 
L 2995 883 
C 2733 723 2483 640 2195 640 
C 1658 640 1274 941 1197 1523 
L 3405 1523 
C 3430 1613 3450 1786 3450 1958 
C 3450 2957 2938 3674 1952 3674 
C 1101 3674 282 2950 282 1792 
C 282 608 1062 -90 2067 -90 
z
M 1178 2157 
C 1254 2675 1587 2944 1965 2944 
C 2432 2944 2643 2637 2643 2157 
L 1178 2157 
z
" transform="scale(0.015625)"/>
      <path id="NotoSansCJKsc-Bold-72" d="M 506 0 
L 1446 0 
L 1446 2138 
C 1651 2656 1984 2842 2259 2842 
C 2413 2842 2515 2822 2643 2784 
L 2797 3597 
C 2694 3642 2579 3674 2381 3674 
C 2010 3674 1626 3418 1363 2950 
L 1344 2950 
L 1274 3584 
L 506 3584 
L 506 0 
z
" transform="scale(0.015625)"/>
      <path id="NotoSansCJKsc-Bold-76" d="M 1312 0 
L 2400 0 
L 3597 3584 
L 2694 3584 
L 2170 1798 
C 2074 1446 1978 1075 1882 710 
L 1850 710 
C 1747 1075 1658 1446 1555 1798 
L 1037 3584 
L 90 3584 
L 1312 0 
z
" transform="scale(0.015625)"/>
      <path id="NotoSansCJKsc-Bold-66" d="M 179 2842 
L 666 2842 
L 666 0 
L 1600 0 
L 1600 2842 
L 2285 2842 
L 2285 3584 
L 1600 3584 
L 1600 3891 
C 1600 4288 1760 4454 2035 4454 
C 2163 4454 2298 4429 2419 4371 
L 2592 5075 
C 2432 5139 2189 5197 1907 5197 
C 1011 5197 666 4614 666 3872 
L 666 3578 
L 179 3539 
L 179 2842 
z
" transform="scale(0.015625)"/>
      <path id="NotoSansCJKsc-Bold-45" d="M 582 0 
L 3558 0 
L 3558 794 
L 1530 794 
L 1530 2061 
L 3187 2061 
L 3187 2854 
L 1530 2854 
L 1530 3949 
L 3488 3949 
L 3488 4742 
L 582 4742 
L 582 0 
z
" transform="scale(0.015625)"/>
      <path id="NotoSansCJKsc-Bold-2d" d="M 314 1491 
L 2061 1491 
L 2061 2170 
L 314 2170 
L 314 1491 
z
" transform="scale(0.015625)"/>
      <path id="NotoSansCJKsc-Bold-63" d="M 2029 -90 
C 2426 -90 2861 45 3200 346 
L 2829 966 
C 2630 800 2394 678 2131 678 
C 1613 678 1242 1114 1242 1792 
C 1242 2464 1613 2906 2163 2906 
C 2362 2906 2528 2822 2707 2675 
L 3155 3270 
C 2893 3507 2554 3674 2112 3674 
C 1139 3674 282 2982 282 1792 
C 282 602 1043 -90 2029 -90 
z
" transform="scale(0.015625)"/>
      <path id="NotoSansCJKsc-Bold-46" d="M 582 0 
L 1530 0 
L 1530 1920 
L 3213 1920 
L 3213 2714 
L 1530 2714 
L 1530 3949 
L 3501 3949 
L 3501 4742 
L 582 4742 
L 582 0 
z
" transform="scale(0.015625)"/>
      <path id="NotoSansCJKsc-Bold-73" d="M 1530 -90 
C 2458 -90 2957 410 2957 1043 
C 2957 1702 2432 1946 1958 2125 
C 1574 2266 1248 2362 1248 2624 
C 1248 2829 1402 2970 1728 2970 
C 1990 2970 2240 2842 2496 2662 
L 2918 3232 
C 2624 3462 2221 3674 1702 3674 
C 883 3674 365 3219 365 2579 
C 365 1978 870 1702 1325 1530 
C 1702 1382 2074 1261 2074 992 
C 2074 768 1914 614 1555 614 
C 1216 614 915 762 595 1005 
L 166 410 
C 525 115 1050 -90 1530 -90 
z
" transform="scale(0.015625)"/>
     </defs>
     <use xlink:href="#NotoSansCJKsc-Bold-56"/>
     <use xlink:href="#NotoSansCJKsc-Bold-43" transform="translate(61.899994 0)"/>
     <use xlink:href="#NotoSansCJKsc-Bold-47" transform="translate(127.499985 0)"/>
     <use xlink:href="#NotoSansCJKsc-Bold-20" transform="translate(199.199966 0)"/>
     <use xlink:href="#NotoSansCJKsc-Bold-2014" transform="translate(221.899963 0)"/>
     <use xlink:href="#NotoSansCJKsc-Bold-20" transform="translate(312.699951 0)"/>
     <use xlink:href="#NotoSansCJKsc-Bold-4d" transform="translate(335.399948 0)"/>
     <use xlink:href="#NotoSansCJKsc-Bold-75" transform="translate(420.699936 0)"/>
     <use xlink:href="#NotoSansCJKsc-Bold-6c" transform="translate(484.399933 0)"/>
     <use xlink:href="#NotoSansCJKsc-Bold-74" transform="translate(515.899918 0)"/>
     <use xlink:href="#NotoSansCJKsc-Bold-69" transform="translate(557.999908 0)"/>
     <use xlink:href="#NotoSansCJKsc-Bold-6d" transform="translate(588.399902 0)"/>
     <use xlink:href="#NotoSansCJKsc-Bold-6f" transform="translate(684.799896 0)"/>
     <use xlink:href="#NotoSansCJKsc-Bold-64" transform="translate(747.399887 0)"/>
     <use xlink:href="#NotoSansCJKsc-Bold-61" transform="translate(811.799881 0)"/>
     <use xlink:href="#NotoSansCJKsc-Bold-6c" transform="translate(870.899872 0)"/>
     <use xlink:href="#NotoSansCJKsc-Bold-20" transform="translate(902.399857 0)"/>
     <use xlink:href="#NotoSansCJKsc-Bold-52" transform="translate(925.099854 0)"/>
     <use xlink:href="#NotoSansCJKsc-Bold-65" transform="translate(993.299835 0)"/>
     <use xlink:href="#NotoSansCJKsc-Bold-74" transform="translate(1051.399826 0)"/>
     <use xlink:href="#NotoSansCJKsc-Bold-72" transform="translate(1093.499817 0)"/>
     <use xlink:href="#NotoSansCJKsc-Bold-69" transform="translate(1137.099808 0)"/>
     <use xlink:href="#NotoSansCJKsc-Bold-65" transform="translate(1167.499802 0)"/>
     <use xlink:href="#NotoSansCJKsc-Bold-76" transform="translate(1225.599792 0)"/>
     <use xlink:href="#NotoSansCJKsc-Bold-61" transform="translate(1283.199783 0)"/>
     <use xlink:href="#NotoSansCJKsc-Bold-6c" transform="translate(1342.299774 0)"/>
     <use xlink:href="#NotoSansCJKsc-Bold-20" transform="translate(1373.799759 0)"/>
     <use xlink:href="#NotoSansCJKsc-Bold-66" transform="translate(1396.499756 0)"/>
     <use xlink:href="#NotoSansCJKsc-Bold-6f" transform="translate(1433.699753 0)"/>
     <use xlink:href="#NotoSansCJKsc-Bold-72" transform="translate(1496.299744 0)"/>
     <use xlink:href="#NotoSansCJKsc-Bold-20" transform="translate(1539.899734 0)"/>
     <use xlink:href="#NotoSansCJKsc-Bold-45" transform="translate(1562.599731 0)"/>
     <use xlink:href="#NotoSansCJKsc-Bold-2d" transform="translate(1624.099716 0)"/>
     <use xlink:href="#NotoSansCJKsc-Bold-63" transform="translate(1661.099701 0)"/>
     <use xlink:href="#NotoSansCJKsc-Bold-6f" transform="translate(1713.799698 0)"/>
     <use xlink:href="#NotoSansCJKsc-Bold-6d" transform="translate(1776.399689 0)"/>
     <use xlink:href="#NotoSansCJKsc-Bold-6d" transform="translate(1872.799683 0)"/>
     <use xlink:href="#NotoSansCJKsc-Bold-65" transform="translate(1969.199677 0)"/>
     <use xlink:href="#NotoSansCJKsc-Bold-72" transform="translate(2027.299667 0)"/>
     <use xlink:href="#NotoSansCJKsc-Bold-63" transform="translate(2070.899658 0)"/>
     <use xlink:href="#NotoSansCJKsc-Bold-65" transform="translate(2123.599655 0)"/>
     <use xlink:href="#NotoSansCJKsc-Bold-20" transform="translate(2181.699646 0)"/>
     <use xlink:href="#NotoSansCJKsc-Bold-56" transform="translate(2204.399643 0)"/>
     <use xlink:href="#NotoSansCJKsc-Bold-69" transform="translate(2266.299637 0)"/>
     <use xlink:href="#NotoSansCJKsc-Bold-64" transform="translate(2296.699631 0)"/>
     <use xlink:href="#NotoSansCJKsc-Bold-65" transform="translate(2361.099625 0)"/>
     <use xlink:href="#NotoSansCJKsc-Bold-6f" transform="translate(2419.199615 0)"/>
     <use xlink:href="#NotoSansCJKsc-Bold-20" transform="translate(2481.799606 0)"/>
     <use xlink:href="#NotoSansCJKsc-Bold-46" transform="translate(2504.499603 0)"/>
     <use xlink:href="#NotoSansCJKsc-Bold-65" transform="translate(2562.999588 0)"/>
     <use xlink:href="#NotoSansCJKsc-Bold-65" transform="translate(2621.099579 0)"/>
     <use xlink:href="#NotoSansCJKsc-Bold-64" transform="translate(2679.19957 0)"/>
     <use xlink:href="#NotoSansCJKsc-Bold-73" transform="translate(2743.599564 0)"/>
    </g>
   </g>
   <g id="text_2">
    <!-- Extreme cold-start: semantic-first CLIP embeddings + kNN vector search + LVLM-as-a-judge -->
    <g style="fill: #64748b" transform="translate(16.0056 54.150552) scale(0.096 -0.096)">
     <defs>
      <path id="NotoSansCJKsc-Regular-45" d="M 646 0 
L 3418 0 
L 3418 506 
L 1235 506 
L 1235 2214 
L 3014 2214 
L 3014 2720 
L 1235 2720 
L 1235 4192 
L 3347 4192 
L 3347 4691 
L 646 4691 
L 646 0 
z
" transform="scale(0.015625)"/>
      <path id="NotoSansCJKsc-Regular-78" d="M 96 0 
L 710 0 
L 1178 813 
C 1299 1024 1408 1235 1530 1434 
L 1562 1434 
C 1696 1235 1824 1024 1939 813 
L 2451 0 
L 3091 0 
L 1946 1754 
L 3002 3475 
L 2394 3475 
L 1965 2714 
C 1856 2515 1760 2330 1658 2131 
L 1626 2131 
C 1510 2330 1389 2515 1286 2714 
L 819 3475 
L 186 3475 
L 1242 1811 
L 96 0 
z
" transform="scale(0.015625)"/>
      <path id="NotoSansCJKsc-Regular-74" d="M 1677 -83 
C 1894 -83 2125 -19 2323 45 
L 2208 486 
C 2093 435 1939 390 1811 390 
C 1408 390 1274 634 1274 1056 
L 1274 3002 
L 2221 3002 
L 2221 3475 
L 1274 3475 
L 1274 4454 
L 787 4454 
L 723 3475 
L 173 3443 
L 173 3002 
L 691 3002 
L 691 1075 
C 691 378 941 -83 1677 -83 
z
" transform="scale(0.015625)"/>
      <path id="NotoSansCJKsc-Regular-72" d="M 589 0 
L 1178 0 
L 1178 2234 
C 1408 2822 1760 3040 2048 3040 
C 2195 3040 2272 3021 2387 2982 
L 2496 3488 
C 2387 3546 2278 3565 2125 3565 
C 1741 3565 1382 3283 1139 2842 
L 1126 2842 
L 1069 3475 
L 589 3475 
L 589 0 
z
" transform="scale(0.015625)"/>
      <path id="NotoSansCJKsc-Regular-65" d="M 1997 -83 
C 2464 -83 2835 70 3136 269 
L 2931 659 
C 2669 486 2400 384 2061 384 
C 1402 384 947 858 909 1600 
L 3251 1600 
C 3264 1690 3277 1805 3277 1933 
C 3277 2925 2778 3565 1888 3565 
C 1094 3565 333 2867 333 1734 
C 333 589 1069 -83 1997 -83 
z
M 902 2016 
C 973 2707 1408 3098 1901 3098 
C 2445 3098 2765 2720 2765 2016 
L 902 2016 
z
" transform="scale(0.015625)"/>
      <path id="NotoSansCJKsc-Regular-6d" d="M 589 0 
L 1178 0 
L 1178 2522 
C 1491 2880 1786 3053 2048 3053 
C 2490 3053 2694 2778 2694 2125 
L 2694 0 
L 3277 0 
L 3277 2522 
C 3603 2880 3885 3053 4154 3053 
C 4595 3053 4800 2778 4800 2125 
L 4800 0 
L 5382 0 
L 5382 2202 
C 5382 3085 5043 3565 4333 3565 
C 3904 3565 3546 3290 3181 2899 
C 3040 3309 2758 3565 2221 3565 
C 1805 3565 1446 3302 1139 2970 
L 1126 2970 
L 1069 3475 
L 589 3475 
L 589 0 
z
" transform="scale(0.015625)"/>
      <path id="NotoSansCJKsc-Regular-20" transform="scale(0.015625)"/>
      <path id="NotoSansCJKsc-Regular-63" d="M 1958 -83 
C 2374 -83 2771 83 3085 352 
L 2829 749 
C 2611 557 2330 403 2010 403 
C 1370 403 934 934 934 1734 
C 934 2534 1395 3072 2029 3072 
C 2298 3072 2522 2950 2720 2771 
L 3014 3155 
C 2771 3373 2458 3565 2003 3565 
C 1107 3565 333 2893 333 1734 
C 333 582 1037 -83 1958 -83 
z
" transform="scale(0.015625)"/>
      <path id="NotoSansCJKsc-Regular-6f" d="M 1939 -83 
C 2790 -83 3546 582 3546 1734 
C 3546 2893 2790 3565 1939 3565 
C 1088 3565 333 2893 333 1734 
C 333 582 1088 -83 1939 -83 
z
M 1939 403 
C 1338 403 934 934 934 1734 
C 934 2534 1338 3072 1939 3072 
C 2541 3072 2950 2534 2950 1734 
C 2950 934 2541 403 1939 403 
z
" transform="scale(0.015625)"/>
      <path id="NotoSansCJKsc-Regular-6c" d="M 1203 -83 
C 1363 -83 1459 -58 1542 -32 
L 1459 416 
C 1395 403 1370 403 1338 403 
C 1248 403 1178 474 1178 653 
L 1178 5094 
L 589 5094 
L 589 691 
C 589 198 768 -83 1203 -83 
z
" transform="scale(0.015625)"/>
      <path id="NotoSansCJKsc-Regular-64" d="M 1773 -83 
C 2189 -83 2560 141 2829 410 
L 2848 410 
L 2899 0 
L 3379 0 
L 3379 5094 
L 2790 5094 
L 2790 3757 
L 2822 3162 
C 2515 3411 2253 3565 1843 3565 
C 1050 3565 339 2861 339 1734 
C 339 576 902 -83 1773 -83 
z
M 1901 410 
C 1293 410 941 902 941 1741 
C 941 2534 1389 3072 1946 3072 
C 2234 3072 2502 2970 2790 2707 
L 2790 883 
C 2502 563 2221 410 1901 410 
z
" transform="scale(0.015625)"/>
      <path id="NotoSansCJKsc-Regular-2d" d="M 294 1568 
L 1933 1568 
L 1933 2016 
L 294 2016 
L 294 1568 
z
" transform="scale(0.015625)"/>
      <path id="NotoSansCJKsc-Regular-73" d="M 1498 -83 
C 2317 -83 2758 384 2758 947 
C 2758 1606 2208 1811 1702 2003 
C 1312 2150 954 2278 954 2605 
C 954 2880 1158 3110 1600 3110 
C 1907 3110 2150 2976 2387 2803 
L 2669 3168 
C 2406 3386 2022 3565 1594 3565 
C 832 3565 397 3130 397 2579 
C 397 1984 922 1754 1408 1574 
C 1792 1434 2202 1267 2202 915 
C 2202 614 1978 371 1517 371 
C 1101 371 794 538 486 787 
L 205 397 
C 531 122 1005 -83 1498 -83 
z
" transform="scale(0.015625)"/>
      <path id="NotoSansCJKsc-Regular-61" d="M 1389 -83 
C 1818 -83 2208 141 2541 416 
L 2560 416 
L 2611 0 
L 3091 0 
L 3091 2138 
C 3091 3002 2739 3565 1888 3565 
C 1325 3565 838 3315 525 3110 
L 749 2707 
C 1024 2893 1389 3078 1792 3078 
C 2362 3078 2509 2650 2509 2202 
C 1030 2035 378 1658 378 902 
C 378 275 806 -83 1389 -83 
z
M 1555 390 
C 1210 390 941 544 941 941 
C 941 1389 1338 1677 2509 1811 
L 2509 845 
C 2170 544 1888 390 1555 390 
z
" transform="scale(0.015625)"/>
      <path id="NotoSansCJKsc-Regular-3a" d="M 890 2496 
C 1120 2496 1312 2675 1312 2944 
C 1312 3206 1120 3392 890 3392 
C 653 3392 467 3206 467 2944 
C 467 2675 653 2496 890 2496 
z
M 890 -83 
C 1120 -83 1312 96 1312 358 
C 1312 627 1120 806 890 806 
C 653 806 467 627 467 358 
C 467 96 653 -83 890 -83 
z
" transform="scale(0.015625)"/>
      <path id="NotoSansCJKsc-Regular-6e" d="M 589 0 
L 1178 0 
L 1178 2522 
C 1523 2874 1766 3053 2125 3053 
C 2586 3053 2784 2778 2784 2125 
L 2784 0 
L 3366 0 
L 3366 2202 
C 3366 3085 3034 3565 2304 3565 
C 1830 3565 1466 3302 1139 2970 
L 1126 2970 
L 1069 3475 
L 589 3475 
L 589 0 
z
" transform="scale(0.015625)"/>
      <path id="NotoSansCJKsc-Regular-69" d="M 589 0 
L 1178 0 
L 1178 3475 
L 589 3475 
L 589 0 
z
M 883 4192 
C 1114 4192 1274 4346 1274 4582 
C 1274 4806 1114 4960 883 4960 
C 653 4960 499 4806 499 4582 
C 499 4346 653 4192 883 4192 
z
" transform="scale(0.015625)"/>
      <path id="NotoSansCJKsc-Regular-66" d="M 211 3002 
L 685 3002 
L 685 0 
L 1267 0 
L 1267 3002 
L 2003 3002 
L 2003 3475 
L 1267 3475 
L 1267 4026 
C 1267 4474 1427 4710 1760 4710 
C 1882 4710 2022 4678 2150 4614 
L 2278 5069 
C 2118 5133 1914 5178 1696 5178 
C 1005 5178 685 4736 685 4032 
L 685 3475 
L 211 3443 
L 211 3002 
z
" transform="scale(0.015625)"/>
      <path id="NotoSansCJKsc-Regular-43" d="M 2413 -83 
C 3021 -83 3482 160 3853 589 
L 3526 966 
C 3226 634 2886 435 2438 435 
C 1542 435 979 1178 979 2362 
C 979 3533 1574 4256 2458 4256 
C 2861 4256 3168 4077 3418 3814 
L 3738 4198 
C 3469 4499 3021 4774 2451 4774 
C 1261 4774 371 3859 371 2342 
C 371 819 1242 -83 2413 -83 
z
" transform="scale(0.015625)"/>
      <path id="NotoSansCJKsc-Regular-4c" d="M 646 0 
L 3290 0 
L 3290 506 
L 1235 506 
L 1235 4691 
L 646 4691 
L 646 0 
z
" transform="scale(0.015625)"/>
      <path id="NotoSansCJKsc-Regular-49" d="M 646 0 
L 1235 0 
L 1235 4691 
L 646 4691 
L 646 0 
z
" transform="scale(0.015625)"/>
      <path id="NotoSansCJKsc-Regular-50" d="M 646 0 
L 1235 0 
L 1235 1869 
L 2010 1869 
C 3040 1869 3738 2323 3738 3315 
C 3738 4339 3034 4691 1984 4691 
L 646 4691 
L 646 0 
z
M 1235 2349 
L 1235 4211 
L 1907 4211 
C 2733 4211 3149 4000 3149 3315 
C 3149 2643 2758 2349 1933 2349 
L 1235 2349 
z
" transform="scale(0.015625)"/>
      <path id="NotoSansCJKsc-Regular-62" d="M 2118 -83 
C 2912 -83 3629 602 3629 1792 
C 3629 2867 3142 3565 2246 3565 
C 1856 3565 1472 3347 1152 3078 
L 1178 3699 
L 1178 5094 
L 589 5094 
L 589 0 
L 1056 0 
L 1107 358 
L 1133 358 
C 1434 83 1798 -83 2118 -83 
z
M 2022 410 
C 1792 410 1478 499 1178 768 
L 1178 2598 
C 1504 2906 1811 3072 2099 3072 
C 2765 3072 3021 2560 3021 1786 
C 3021 928 2598 410 2022 410 
z
" transform="scale(0.015625)"/>
      <path id="NotoSansCJKsc-Regular-67" d="M 1760 -1600 
C 2835 -1600 3520 -1043 3520 -397 
C 3520 179 3110 429 2310 429 
L 1626 429 
C 1158 429 1018 589 1018 806 
C 1018 998 1114 1114 1242 1222 
C 1395 1146 1587 1101 1754 1101 
C 2470 1101 3027 1568 3027 2310 
C 3027 2611 2912 2867 2746 3027 
L 3456 3027 
L 3456 3475 
L 2246 3475 
C 2125 3526 1952 3565 1754 3565 
C 1056 3565 454 3085 454 2323 
C 454 1907 678 1568 909 1389 
L 909 1363 
C 723 1235 525 1005 525 717 
C 525 442 659 256 838 147 
L 838 115 
C 512 -83 326 -371 326 -672 
C 326 -1267 915 -1600 1760 -1600 
z
M 1754 1498 
C 1357 1498 1018 1818 1018 2323 
C 1018 2835 1350 3136 1754 3136 
C 2170 3136 2496 2835 2496 2323 
C 2496 1818 2157 1498 1754 1498 
z
M 1843 -1197 
C 1210 -1197 838 -960 838 -589 
C 838 -390 941 -179 1190 0 
C 1344 -38 1510 -51 1638 -51 
L 2240 -51 
C 2701 -51 2944 -166 2944 -493 
C 2944 -851 2515 -1197 1843 -1197 
z
" transform="scale(0.015625)"/>
      <path id="NotoSansCJKsc-Regular-2b" d="M 1542 742 
L 2010 742 
L 2010 2144 
L 3315 2144 
L 3315 2579 
L 2010 2579 
L 2010 3981 
L 1542 3981 
L 1542 2579 
L 243 2579 
L 243 2144 
L 1542 2144 
L 1542 742 
z
" transform="scale(0.015625)"/>
      <path id="NotoSansCJKsc-Regular-6b" d="M 589 0 
L 1165 0 
L 1165 915 
L 1818 1677 
L 2835 0 
L 3469 0 
L 2157 2074 
L 3315 3475 
L 2662 3475 
L 1190 1645 
L 1165 1645 
L 1165 5094 
L 589 5094 
L 589 0 
z
" transform="scale(0.015625)"/>
      <path id="NotoSansCJKsc-Regular-4e" d="M 646 0 
L 1203 0 
L 1203 2464 
C 1203 2957 1158 3456 1133 3930 
L 1158 3930 
L 1664 2963 
L 3373 0 
L 3981 0 
L 3981 4691 
L 3418 4691 
L 3418 2253 
C 3418 1766 3462 1235 3501 768 
L 3469 768 
L 2963 1734 
L 1248 4691 
L 646 4691 
L 646 0 
z
" transform="scale(0.015625)"/>
      <path id="NotoSansCJKsc-Regular-76" d="M 1338 0 
L 2022 0 
L 3251 3475 
L 2675 3475 
L 2016 1498 
C 1914 1158 1798 806 1696 474 
L 1664 474 
C 1562 806 1453 1158 1344 1498 
L 691 3475 
L 83 3475 
L 1338 0 
z
" transform="scale(0.015625)"/>
      <path id="NotoSansCJKsc-Regular-68" d="M 589 0 
L 1178 0 
L 1178 2522 
C 1523 2874 1766 3053 2125 3053 
C 2586 3053 2784 2778 2784 2125 
L 2784 0 
L 3366 0 
L 3366 2202 
C 3366 3085 3034 3565 2304 3565 
C 1830 3565 1472 3302 1152 2982 
L 1178 3699 
L 1178 5094 
L 589 5094 
L 589 0 
z
" transform="scale(0.015625)"/>
      <path id="NotoSansCJKsc-Regular-56" d="M 1504 0 
L 2189 0 
L 3680 4691 
L 3078 4691 
L 2323 2150 
C 2163 1600 2048 1152 1869 602 
L 1843 602 
C 1670 1152 1549 1600 1389 2150 
L 627 4691 
L 6 4691 
L 1504 0 
z
" transform="scale(0.015625)"/>
      <path id="NotoSansCJKsc-Regular-4d" d="M 646 0 
L 1178 0 
L 1178 2598 
C 1178 3002 1139 3571 1101 3981 
L 1126 3981 
L 1504 2912 
L 2394 474 
L 2790 474 
L 3674 2912 
L 4051 3981 
L 4077 3981 
C 4045 3571 4000 3002 4000 2598 
L 4000 0 
L 4550 0 
L 4550 4691 
L 3840 4691 
L 2944 2182 
C 2835 1862 2739 1530 2618 1203 
L 2592 1203 
C 2477 1530 2374 1862 2253 2182 
L 1357 4691 
L 646 4691 
L 646 0 
z
" transform="scale(0.015625)"/>
      <path id="NotoSansCJKsc-Regular-6a" d="M 224 -1549 
C 915 -1549 1178 -1107 1178 -397 
L 1178 3475 
L 595 3475 
L 595 -397 
C 595 -819 512 -1082 166 -1082 
C 45 -1082 -77 -1050 -166 -1018 
L -282 -1459 
C -160 -1510 19 -1549 224 -1549 
z
M 883 4192 
C 1107 4192 1274 4346 1274 4582 
C 1274 4806 1107 4960 883 4960 
C 653 4960 493 4806 493 4582 
C 493 4346 653 4192 883 4192 
z
" transform="scale(0.015625)"/>
      <path id="NotoSansCJKsc-Regular-75" d="M 1606 -83 
C 2080 -83 2426 166 2752 544 
L 2771 544 
L 2816 0 
L 3302 0 
L 3302 3475 
L 2720 3475 
L 2720 1011 
C 2387 602 2138 422 1779 422 
C 1318 422 1126 698 1126 1344 
L 1126 3475 
L 538 3475 
L 538 1274 
C 538 384 870 -83 1606 -83 
z
" transform="scale(0.015625)"/>
     </defs>
     <use xlink:href="#NotoSansCJKsc-Regular-45"/>
     <use xlink:href="#NotoSansCJKsc-Regular-78" transform="translate(58.899994 0)"/>
     <use xlink:href="#NotoSansCJKsc-Regular-74" transform="translate(108.699982 0)"/>
     <use xlink:href="#NotoSansCJKsc-Regular-72" transform="translate(146.399979 0)"/>
     <use xlink:href="#NotoSansCJKsc-Regular-65" transform="translate(185.199966 0)"/>
     <use xlink:href="#NotoSansCJKsc-Regular-6d" transform="translate(240.59996 0)"/>
     <use xlink:href="#NotoSansCJKsc-Regular-65" transform="translate(333.199951 0)"/>
     <use xlink:href="#NotoSansCJKsc-Regular-20" transform="translate(388.599945 0)"/>
     <use xlink:href="#NotoSansCJKsc-Regular-63" transform="translate(410.999939 0)"/>
     <use xlink:href="#NotoSansCJKsc-Regular-6f" transform="translate(461.999924 0)"/>
     <use xlink:href="#NotoSansCJKsc-Regular-6c" transform="translate(522.599915 0)"/>
     <use xlink:href="#NotoSansCJKsc-Regular-64" transform="translate(550.999908 0)"/>
     <use xlink:href="#NotoSansCJKsc-Regular-2d" transform="translate(612.999893 0)"/>
     <use xlink:href="#NotoSansCJKsc-Regular-73" transform="translate(647.69989 0)"/>
     <use xlink:href="#NotoSansCJKsc-Regular-74" transform="translate(694.499878 0)"/>
     <use xlink:href="#NotoSansCJKsc-Regular-61" transform="translate(732.199875 0)"/>
     <use xlink:href="#NotoSansCJKsc-Regular-72" transform="translate(788.499863 0)"/>
     <use xlink:href="#NotoSansCJKsc-Regular-74" transform="translate(827.29985 0)"/>
     <use xlink:href="#NotoSansCJKsc-Regular-3a" transform="translate(864.999847 0)"/>
     <use xlink:href="#NotoSansCJKsc-Regular-20" transform="translate(892.799835 0)"/>
     <use xlink:href="#NotoSansCJKsc-Regular-73" transform="translate(915.199829 0)"/>
     <use xlink:href="#NotoSansCJKsc-Regular-65" transform="translate(961.999817 0)"/>
     <use xlink:href="#NotoSansCJKsc-Regular-6d" transform="translate(1017.399811 0)"/>
     <use xlink:href="#NotoSansCJKsc-Regular-61" transform="translate(1109.999802 0)"/>
     <use xlink:href="#NotoSansCJKsc-Regular-6e" transform="translate(1166.299789 0)"/>
     <use xlink:href="#NotoSansCJKsc-Regular-74" transform="translate(1227.299774 0)"/>
     <use xlink:href="#NotoSansCJKsc-Regular-69" transform="translate(1264.999771 0)"/>
     <use xlink:href="#NotoSansCJKsc-Regular-63" transform="translate(1292.499756 0)"/>
     <use xlink:href="#NotoSansCJKsc-Regular-2d" transform="translate(1343.499741 0)"/>
     <use xlink:href="#NotoSansCJKsc-Regular-66" transform="translate(1378.199738 0)"/>
     <use xlink:href="#NotoSansCJKsc-Regular-69" transform="translate(1410.699722 0)"/>
     <use xlink:href="#NotoSansCJKsc-Regular-72" transform="translate(1438.199707 0)"/>
     <use xlink:href="#NotoSansCJKsc-Regular-73" transform="translate(1476.999695 0)"/>
     <use xlink:href="#NotoSansCJKsc-Regular-74" transform="translate(1523.799683 0)"/>
     <use xlink:href="#NotoSansCJKsc-Regular-20" transform="translate(1561.49968 0)"/>
     <use xlink:href="#NotoSansCJKsc-Regular-43" transform="translate(1583.899673 0)"/>
     <use xlink:href="#NotoSansCJKsc-Regular-4c" transform="translate(1647.699661 0)"/>
     <use xlink:href="#NotoSansCJKsc-Regular-49" transform="translate(1701.999649 0)"/>
     <use xlink:href="#NotoSansCJKsc-Regular-50" transform="translate(1731.299637 0)"/>
     <use xlink:href="#NotoSansCJKsc-Regular-20" transform="translate(1794.599625 0)"/>
     <use xlink:href="#NotoSansCJKsc-Regular-65" transform="translate(1816.999619 0)"/>
     <use xlink:href="#NotoSansCJKsc-Regular-6d" transform="translate(1872.399612 0)"/>
     <use xlink:href="#NotoSansCJKsc-Regular-62" transform="translate(1964.999603 0)"/>
     <use xlink:href="#NotoSansCJKsc-Regular-65" transform="translate(2026.799591 0)"/>
     <use xlink:href="#NotoSansCJKsc-Regular-64" transform="translate(2082.199585 0)"/>
     <use xlink:href="#NotoSansCJKsc-Regular-64" transform="translate(2144.19957 0)"/>
     <use xlink:href="#NotoSansCJKsc-Regular-69" transform="translate(2206.199554 0)"/>
     <use xlink:href="#NotoSansCJKsc-Regular-6e" transform="translate(2233.699539 0)"/>
     <use xlink:href="#NotoSansCJKsc-Regular-67" transform="translate(2294.699524 0)"/>
     <use xlink:href="#NotoSansCJKsc-Regular-73" transform="translate(2351.099518 0)"/>
     <use xlink:href="#NotoSansCJKsc-Regular-20" transform="translate(2397.899506 0)"/>
     <use xlink:href="#NotoSansCJKsc-Regular-2b" transform="translate(2420.2995 0)"/>
     <use xlink:href="#NotoSansCJKsc-Regular-20" transform="translate(2475.799484 0)"/>
     <use xlink:href="#NotoSansCJKsc-Regular-6b" transform="translate(2498.199478 0)"/>
     <use xlink:href="#NotoSansCJKsc-Regular-4e" transform="translate(2553.399475 0)"/>
     <use xlink:href="#NotoSansCJKsc-Regular-4e" transform="translate(2625.699463 0)"/>
     <use xlink:href="#NotoSansCJKsc-Regular-20" transform="translate(2697.999451 0)"/>
     <use xlink:href="#NotoSansCJKsc-Regular-76" transform="translate(2720.399445 0)"/>
     <use xlink:href="#NotoSansCJKsc-Regular-65" transform="translate(2772.499435 0)"/>
     <use xlink:href="#NotoSansCJKsc-Regular-63" transform="translate(2827.899429 0)"/>
     <use xlink:href="#NotoSansCJKsc-Regular-74" transform="translate(2878.899414 0)"/>
     <use xlink:href="#NotoSansCJKsc-Regular-6f" transform="translate(2916.599411 0)"/>
     <use xlink:href="#NotoSansCJKsc-Regular-72" transform="translate(2977.199402 0)"/>
     <use xlink:href="#NotoSansCJKsc-Regular-20" transform="translate(3015.99939 0)"/>
     <use xlink:href="#NotoSansCJKsc-Regular-73" transform="translate(3038.399384 0)"/>
     <use xlink:href="#NotoSansCJKsc-Regular-65" transform="translate(3085.199371 0)"/>
     <use xlink:href="#NotoSansCJKsc-Regular-61" transform="translate(3140.599365 0)"/>
     <use xlink:href="#NotoSansCJKsc-Regular-72" transform="translate(3196.899353 0)"/>
     <use xlink:href="#NotoSansCJKsc-Regular-63" transform="translate(3235.699341 0)"/>
     <use xlink:href="#NotoSansCJKsc-Regular-68" transform="translate(3286.699326 0)"/>
     <use xlink:href="#NotoSansCJKsc-Regular-20" transform="translate(3347.399323 0)"/>
     <use xlink:href="#NotoSansCJKsc-Regular-2b" transform="translate(3369.799316 0)"/>
     <use xlink:href="#NotoSansCJKsc-Regular-20" transform="translate(3425.299301 0)"/>
     <use xlink:href="#NotoSansCJKsc-Regular-4c" transform="translate(3447.699295 0)"/>
     <use xlink:href="#NotoSansCJKsc-Regular-56" transform="translate(3501.999283 0)"/>
     <use xlink:href="#NotoSansCJKsc-Regular-4c" transform="translate(3559.499268 0)"/>
     <use xlink:href="#NotoSansCJKsc-Regular-4d" transform="translate(3613.799255 0)"/>
     <use xlink:href="#NotoSansCJKsc-Regular-2d" transform="translate(3694.999237 0)"/>
     <use xlink:href="#NotoSansCJKsc-Regular-61" transform="translate(3729.699234 0)"/>
     <use xlink:href="#NotoSansCJKsc-Regular-73" transform="translate(3785.999222 0)"/>
     <use xlink:href="#NotoSansCJKsc-Regular-2d" transform="translate(3832.79921 0)"/>
     <use xlink:href="#NotoSansCJKsc-Regular-61" transform="translate(3867.499207 0)"/>
     <use xlink:href="#NotoSansCJKsc-Regular-2d" transform="translate(3923.799194 0)"/>
     <use xlink:href="#NotoSansCJKsc-Regular-6a" transform="translate(3958.499191 0)"/>
     <use xlink:href="#NotoSansCJKsc-Regular-75" transform="translate(3985.999176 0)"/>
     <use xlink:href="#NotoSansCJKsc-Regular-64" transform="translate(4046.699173 0)"/>
     <use xlink:href="#NotoSansCJKsc-Regular-67" transform="translate(4108.699158 0)"/>
     <use xlink:href="#NotoSansCJKsc-Regular-65" transform="translate(4165.099152 0)"/>
    </g>
   </g>
   <g id="text_3">
    <!-- User history -->
    <g style="fill: #0891b2" transform="translate(42.906834 101.822812) scale(0.105 -0.105)">
     <defs>
      <path id="NotoSansCJKsc-Bold-55" d="M 2406 -90 
C 3558 -90 4230 563 4230 2131 
L 4230 4742 
L 3322 4742 
L 3322 2048 
C 3322 1062 2957 730 2406 730 
C 1850 730 1504 1062 1504 2048 
L 1504 4742 
L 563 4742 
L 563 2131 
C 563 563 1242 -90 2406 -90 
z
" transform="scale(0.015625)"/>
      <path id="NotoSansCJKsc-Bold-68" d="M 506 0 
L 1446 0 
L 1446 2464 
C 1709 2726 1901 2867 2189 2867 
C 2541 2867 2694 2675 2694 2118 
L 2694 0 
L 3635 0 
L 3635 2234 
C 3635 3136 3302 3674 2528 3674 
C 2042 3674 1683 3418 1402 3149 
L 1446 3821 
L 1446 5107 
L 506 5107 
L 506 0 
z
" transform="scale(0.015625)"/>
      <path id="NotoSansCJKsc-Bold-79" d="M 819 -1434 
C 1619 -1434 2003 -954 2317 -109 
L 3590 3584 
L 2688 3584 
L 2195 1920 
C 2106 1587 2016 1242 1939 909 
L 1907 909 
C 1805 1254 1715 1600 1606 1920 
L 1037 3584 
L 90 3584 
L 1485 70 
L 1421 -147 
C 1318 -461 1114 -691 749 -691 
C 666 -691 563 -666 499 -646 
L 326 -1370 
C 467 -1408 608 -1434 819 -1434 
z
" transform="scale(0.015625)"/>
     </defs>
     <use xlink:href="#NotoSansCJKsc-Bold-55"/>
     <use xlink:href="#NotoSansCJKsc-Bold-73" transform="translate(74.799988 0)"/>
     <use xlink:href="#NotoSansCJKsc-Bold-65" transform="translate(124.299973 0)"/>
     <use xlink:href="#NotoSansCJKsc-Bold-72" transform="translate(182.399963 0)"/>
     <use xlink:href="#NotoSansCJKsc-Bold-20" transform="translate(225.999954 0)"/>
     <use xlink:href="#NotoSansCJKsc-Bold-68" transform="translate(248.699951 0)"/>
     <use xlink:href="#NotoSansCJKsc-Bold-69" transform="translate(312.699936 0)"/>
     <use xlink:href="#NotoSansCJKsc-Bold-73" transform="translate(343.09993 0)"/>
     <use xlink:href="#NotoSansCJKsc-Bold-74" transform="translate(392.599915 0)"/>
     <use xlink:href="#NotoSansCJKsc-Bold-6f" transform="translate(434.699905 0)"/>
     <use xlink:href="#NotoSansCJKsc-Bold-72" transform="translate(497.299896 0)"/>
     <use xlink:href="#NotoSansCJKsc-Bold-79" transform="translate(540.899887 0)"/>
    </g>
   </g>
   <g id="text_4">
    <!-- clicked products -->
    <g style="fill: #475569" transform="translate(39.553397 115.772845) scale(0.09 -0.09)">
     <defs>
      <path id="NotoSansCJKsc-Regular-70" d="M 589 -1466 
L 1178 -1466 
L 1178 -288 
L 1158 320 
C 1472 58 1805 -83 2118 -83 
C 2912 -83 3629 602 3629 1792 
C 3629 2867 3142 3565 2246 3565 
C 1843 3565 1453 3334 1139 3072 
L 1126 3072 
L 1069 3475 
L 589 3475 
L 589 -1466 
z
M 2022 410 
C 1792 410 1485 499 1178 768 
L 1178 2598 
C 1510 2906 1811 3072 2099 3072 
C 2765 3072 3021 2560 3021 1786 
C 3021 928 2598 410 2022 410 
z
" transform="scale(0.015625)"/>
     </defs>
     <use xlink:href="#NotoSansCJKsc-Regular-63"/>
     <use xlink:href="#NotoSansCJKsc-Regular-6c" transform="translate(50.999985 0)"/>
     <use xlink:href="#NotoSansCJKsc-Regular-69" transform="translate(79.399979 0)"/>
     <use xlink:href="#NotoSansCJKsc-Regular-63" transform="translate(106.899963 0)"/>
     <use xlink:href="#NotoSansCJKsc-Regular-6b" transform="translate(157.899948 0)"/>
     <use xlink:href="#NotoSansCJKsc-Regular-65" transform="translate(213.099945 0)"/>
     <use xlink:href="#NotoSansCJKsc-Regular-64" transform="translate(268.499939 0)"/>
     <use xlink:href="#NotoSansCJKsc-Regular-20" transform="translate(330.499924 0)"/>
     <use xlink:href="#NotoSansCJKsc-Regular-70" transform="translate(352.899918 0)"/>
     <use xlink:href="#NotoSansCJKsc-Regular-72" transform="translate(414.899902 0)"/>
     <use xlink:href="#NotoSansCJKsc-Regular-6f" transform="translate(453.69989 0)"/>
     <use xlink:href="#NotoSansCJKsc-Regular-64" transform="translate(514.299881 0)"/>
     <use xlink:href="#NotoSansCJKsc-Regular-75" transform="translate(576.299866 0)"/>
     <use xlink:href="#NotoSansCJKsc-Regular-63" transform="translate(636.999863 0)"/>
     <use xlink:href="#NotoSansCJKsc-Regular-74" transform="translate(687.999847 0)"/>
     <use xlink:href="#NotoSansCJKsc-Regular-73" transform="translate(725.699844 0)"/>
    </g>
   </g>
   <g id="text_5">
    <!-- (images/text) -->
    <g style="fill: #475569" transform="translate(46.308319 128.722327) scale(0.09 -0.09)">
     <defs>
      <path id="NotoSansCJKsc-Regular-28" d="M 1530 -1254 
L 1888 -1094 
C 1338 -186 1075 902 1075 1990 
C 1075 3072 1338 4154 1888 5069 
L 1530 5235 
C 941 4275 589 3245 589 1990 
C 589 730 941 -301 1530 -1254 
z
" transform="scale(0.015625)"/>
      <path id="NotoSansCJKsc-Regular-2f" d="M 70 -1146 
L 499 -1146 
L 2413 5082 
L 1990 5082 
L 70 -1146 
z
" transform="scale(0.015625)"/>
      <path id="NotoSansCJKsc-Regular-29" d="M 634 -1254 
C 1222 -301 1574 730 1574 1990 
C 1574 3245 1222 4275 634 5235 
L 269 5069 
C 819 4154 1094 3072 1094 1990 
C 1094 902 819 -186 269 -1094 
L 634 -1254 
z
" transform="scale(0.015625)"/>
     </defs>
     <use xlink:href="#NotoSansCJKsc-Regular-28"/>
     <use xlink:href="#NotoSansCJKsc-Regular-69" transform="translate(33.799988 0)"/>
     <use xlink:href="#NotoSansCJKsc-Regular-6d" transform="translate(61.299973 0)"/>
     <use xlink:href="#NotoSansCJKsc-Regular-61" transform="translate(153.899963 0)"/>
     <use xlink:href="#NotoSansCJKsc-Regular-67" transform="translate(210.199951 0)"/>
     <use xlink:href="#NotoSansCJKsc-Regular-65" transform="translate(266.599945 0)"/>
     <use xlink:href="#NotoSansCJKsc-Regular-73" transform="translate(321.999939 0)"/>
     <use xlink:href="#NotoSansCJKsc-Regular-2f" transform="translate(368.799927 0)"/>
     <use xlink:href="#NotoSansCJKsc-Regular-74" transform="translate(407.999924 0)"/>
     <use xlink:href="#NotoSansCJKsc-Regular-65" transform="translate(445.699921 0)"/>
     <use xlink:href="#NotoSansCJKsc-Regular-78" transform="translate(501.099915 0)"/>
     <use xlink:href="#NotoSansCJKsc-Regular-74" transform="translate(550.899902 0)"/>
     <use xlink:href="#NotoSansCJKsc-Regular-29" transform="translate(588.599899 0)"/>
    </g>
   </g>
   <g id="text_6">
    <!-- time decay -->
    <g style="fill: #475569" transform="translate(51.258319 141.275245) scale(0.09 -0.09)">
     <defs>
      <path id="NotoSansCJKsc-Regular-79" d="M 646 -1498 
C 1338 -1498 1702 -973 1946 -294 
L 3251 3475 
L 2682 3475 
L 2054 1549 
C 1965 1235 1862 883 1773 563 
L 1741 563 
C 1619 890 1504 1242 1395 1549 
L 691 3475 
L 83 3475 
L 1478 -6 
L 1402 -269 
C 1254 -698 1011 -1018 621 -1018 
C 525 -1018 422 -986 352 -960 
L 237 -1427 
C 346 -1472 486 -1498 646 -1498 
z
" transform="scale(0.015625)"/>
     </defs>
     <use xlink:href="#NotoSansCJKsc-Regular-74"/>
     <use xlink:href="#NotoSansCJKsc-Regular-69" transform="translate(37.699997 0)"/>
     <use xlink:href="#NotoSansCJKsc-Regular-6d" transform="translate(65.199982 0)"/>
     <use xlink:href="#NotoSansCJKsc-Regular-65" transform="translate(157.799973 0)"/>
     <use xlink:href="#NotoSansCJKsc-Regular-20" transform="translate(213.199966 0)"/>
     <use xlink:href="#NotoSansCJKsc-Regular-64" transform="translate(235.59996 0)"/>
     <use xlink:href="#NotoSansCJKsc-Regular-65" transform="translate(297.599945 0)"/>
     <use xlink:href="#NotoSansCJKsc-Regular-63" transform="translate(352.999939 0)"/>
     <use xlink:href="#NotoSansCJKsc-Regular-61" transform="translate(403.999924 0)"/>
     <use xlink:href="#NotoSansCJKsc-Regular-79" transform="translate(460.299911 0)"/>
    </g>
   </g>
   <g id="text_7">
    <!-- CLIP embed -->
    <g style="fill: #2563eb" transform="translate(180.365836 101.68664) scale(0.105 -0.105)">
     <defs>
      <path id="NotoSansCJKsc-Bold-4c" d="M 582 0 
L 3456 0 
L 3456 794 
L 1530 794 
L 1530 4742 
L 582 4742 
L 582 0 
z
" transform="scale(0.015625)"/>
      <path id="NotoSansCJKsc-Bold-49" d="M 582 0 
L 1530 0 
L 1530 4742 
L 582 4742 
L 582 0 
z
" transform="scale(0.015625)"/>
      <path id="NotoSansCJKsc-Bold-50" d="M 582 0 
L 1530 0 
L 1530 1683 
L 2163 1683 
C 3181 1683 3994 2170 3994 3251 
C 3994 4371 3187 4742 2138 4742 
L 582 4742 
L 582 0 
z
M 1530 2432 
L 1530 3987 
L 2067 3987 
C 2720 3987 3066 3802 3066 3251 
C 3066 2707 2752 2432 2099 2432 
L 1530 2432 
z
" transform="scale(0.015625)"/>
      <path id="NotoSansCJKsc-Bold-62" d="M 2304 -90 
C 3091 -90 3827 621 3827 1856 
C 3827 2950 3296 3674 2413 3674 
C 2061 3674 1702 3501 1414 3245 
L 1446 3821 
L 1446 5107 
L 506 5107 
L 506 0 
L 1242 0 
L 1318 378 
L 1350 378 
C 1638 77 1984 -90 2304 -90 
z
M 2099 685 
C 1901 685 1664 755 1446 954 
L 1446 2534 
C 1690 2778 1907 2899 2150 2899 
C 2643 2899 2861 2522 2861 1837 
C 2861 1056 2522 685 2099 685 
z
" transform="scale(0.015625)"/>
     </defs>
     <use xlink:href="#NotoSansCJKsc-Bold-43"/>
     <use xlink:href="#NotoSansCJKsc-Bold-4c" transform="translate(65.599991 0)"/>
     <use xlink:href="#NotoSansCJKsc-Bold-49" transform="translate(123.399979 0)"/>
     <use xlink:href="#NotoSansCJKsc-Bold-50" transform="translate(156.399963 0)"/>
     <use xlink:href="#NotoSansCJKsc-Bold-20" transform="translate(223.09996 0)"/>
     <use xlink:href="#NotoSansCJKsc-Bold-65" transform="translate(245.799957 0)"/>
     <use xlink:href="#NotoSansCJKsc-Bold-6d" transform="translate(303.899948 0)"/>
     <use xlink:href="#NotoSansCJKsc-Bold-62" transform="translate(400.299942 0)"/>
     <use xlink:href="#NotoSansCJKsc-Bold-65" transform="translate(464.699936 0)"/>
     <use xlink:href="#NotoSansCJKsc-Bold-64" transform="translate(522.799927 0)"/>
    </g>
   </g>
   <g id="text_8">
    <!-- domain-adapted -->
    <g style="fill: #475569" transform="translate(175.806422 115.772845) scale(0.09 -0.09)">
     <use xlink:href="#NotoSansCJKsc-Regular-64"/>
     <use xlink:href="#NotoSansCJKsc-Regular-6f" transform="translate(61.999985 0)"/>
     <use xlink:href="#NotoSansCJKsc-Regular-6d" transform="translate(122.599976 0)"/>
     <use xlink:href="#NotoSansCJKsc-Regular-61" transform="translate(215.199966 0)"/>
     <use xlink:href="#NotoSansCJKsc-Regular-69" transform="translate(271.499954 0)"/>
     <use xlink:href="#NotoSansCJKsc-Regular-6e" transform="translate(298.999939 0)"/>
     <use xlink:href="#NotoSansCJKsc-Regular-2d" transform="translate(359.999924 0)"/>
     <use xlink:href="#NotoSansCJKsc-Regular-61" transform="translate(394.699921 0)"/>
     <use xlink:href="#NotoSansCJKsc-Regular-64" transform="translate(450.999908 0)"/>
     <use xlink:href="#NotoSansCJKsc-Regular-61" transform="translate(512.999893 0)"/>
     <use xlink:href="#NotoSansCJKsc-Regular-70" transform="translate(569.299881 0)"/>
     <use xlink:href="#NotoSansCJKsc-Regular-74" transform="translate(631.299866 0)"/>
     <use xlink:href="#NotoSansCJKsc-Regular-65" transform="translate(668.999863 0)"/>
     <use xlink:href="#NotoSansCJKsc-Regular-64" transform="translate(724.399857 0)"/>
    </g>
   </g>
   <g id="text_9">
    <!-- product/video -->
    <g style="fill: #475569" transform="translate(181.062281 128.524045) scale(0.09 -0.09)">
     <use xlink:href="#NotoSansCJKsc-Regular-70"/>
     <use xlink:href="#NotoSansCJKsc-Regular-72" transform="translate(61.999985 0)"/>
     <use xlink:href="#NotoSansCJKsc-Regular-6f" transform="translate(100.799973 0)"/>
     <use xlink:href="#NotoSansCJKsc-Regular-64" transform="translate(161.399963 0)"/>
     <use xlink:href="#NotoSansCJKsc-Regular-75" transform="translate(223.399948 0)"/>
     <use xlink:href="#NotoSansCJKsc-Regular-63" transform="translate(284.099945 0)"/>
     <use xlink:href="#NotoSansCJKsc-Regular-74" transform="translate(335.09993 0)"/>
     <use xlink:href="#NotoSansCJKsc-Regular-2f" transform="translate(372.799927 0)"/>
     <use xlink:href="#NotoSansCJKsc-Regular-76" transform="translate(411.999924 0)"/>
     <use xlink:href="#NotoSansCJKsc-Regular-69" transform="translate(464.099915 0)"/>
     <use xlink:href="#NotoSansCJKsc-Regular-64" transform="translate(491.599899 0)"/>
     <use xlink:href="#NotoSansCJKsc-Regular-65" transform="translate(553.599884 0)"/>
     <use xlink:href="#NotoSansCJKsc-Regular-6f" transform="translate(608.999878 0)"/>
    </g>
   </g>
   <g id="text_10">
    <!-- shared space -->
    <g style="fill: #475569" transform="translate(183.568219 141.275245) scale(0.09 -0.09)">
     <use xlink:href="#NotoSansCJKsc-Regular-73"/>
     <use xlink:href="#NotoSansCJKsc-Regular-68" transform="translate(46.799988 0)"/>
     <use xlink:href="#NotoSansCJKsc-Regular-61" transform="translate(107.499985 0)"/>
     <use xlink:href="#NotoSansCJKsc-Regular-72" transform="translate(163.799973 0)"/>
     <use xlink:href="#NotoSansCJKsc-Regular-65" transform="translate(202.59996 0)"/>
     <use xlink:href="#NotoSansCJKsc-Regular-64" transform="translate(257.999954 0)"/>
     <use xlink:href="#NotoSansCJKsc-Regular-20" transform="translate(319.999939 0)"/>
     <use xlink:href="#NotoSansCJKsc-Regular-73" transform="translate(342.399933 0)"/>
     <use xlink:href="#NotoSansCJKsc-Regular-70" transform="translate(389.199921 0)"/>
     <use xlink:href="#NotoSansCJKsc-Regular-61" transform="translate(451.199905 0)"/>
     <use xlink:href="#NotoSansCJKsc-Regular-63" transform="translate(507.499893 0)"/>
     <use xlink:href="#NotoSansCJKsc-Regular-65" transform="translate(558.499878 0)"/>
    </g>
   </g>
   <g id="text_11">
    <!-- Vector DB -->
    <g style="fill: #7c3aed" transform="translate(322.704056 101.68664) scale(0.105 -0.105)">
     <defs>
      <path id="NotoSansCJKsc-Bold-44" d="M 582 0 
L 1933 0 
C 3334 0 4224 794 4224 2394 
C 4224 3987 3334 4742 1882 4742 
L 582 4742 
L 582 0 
z
M 1530 768 
L 1530 3981 
L 1818 3981 
C 2707 3981 3258 3546 3258 2394 
C 3258 1242 2707 768 1818 768 
L 1530 768 
z
" transform="scale(0.015625)"/>
      <path id="NotoSansCJKsc-Bold-42" d="M 582 0 
L 2272 0 
C 3315 0 4102 442 4102 1395 
C 4102 2029 3731 2394 3219 2515 
L 3219 2541 
C 3622 2688 3866 3130 3866 3571 
C 3866 4454 3123 4742 2150 4742 
L 582 4742 
L 582 0 
z
M 1530 2810 
L 1530 4013 
L 2093 4013 
C 2662 4013 2944 3846 2944 3430 
C 2944 3053 2688 2810 2086 2810 
L 1530 2810 
z
M 1530 730 
L 1530 2112 
L 2189 2112 
C 2842 2112 3181 1914 3181 1453 
C 3181 960 2829 730 2189 730 
L 1530 730 
z
" transform="scale(0.015625)"/>
     </defs>
     <use xlink:href="#NotoSansCJKsc-Bold-56"/>
     <use xlink:href="#NotoSansCJKsc-Bold-65" transform="translate(61.899994 0)"/>
     <use xlink:href="#NotoSansCJKsc-Bold-63" transform="translate(119.999985 0)"/>
     <use xlink:href="#NotoSansCJKsc-Bold-74" transform="translate(172.699982 0)"/>
     <use xlink:href="#NotoSansCJKsc-Bold-6f" transform="translate(214.799973 0)"/>
     <use xlink:href="#NotoSansCJKsc-Bold-72" transform="translate(277.399963 0)"/>
     <use xlink:href="#NotoSansCJKsc-Bold-20" transform="translate(320.999954 0)"/>
     <use xlink:href="#NotoSansCJKsc-Bold-44" transform="translate(343.699951 0)"/>
     <use xlink:href="#NotoSansCJKsc-Bold-42" transform="translate(415.099945 0)"/>
    </g>
   </g>
   <g id="text_12">
    <!-- kNN search -->
    <g style="fill: #475569" transform="translate(324.167259 115.772845) scale(0.09 -0.09)">
     <use xlink:href="#NotoSansCJKsc-Regular-6b"/>
     <use xlink:href="#NotoSansCJKsc-Regular-4e" transform="translate(55.199997 0)"/>
     <use xlink:href="#NotoSansCJKsc-Regular-4e" transform="translate(127.499985 0)"/>
     <use xlink:href="#NotoSansCJKsc-Regular-20" transform="translate(199.799973 0)"/>
     <use xlink:href="#NotoSansCJKsc-Regular-73" transform="translate(222.199966 0)"/>
     <use xlink:href="#NotoSansCJKsc-Regular-65" transform="translate(268.999954 0)"/>
     <use xlink:href="#NotoSansCJKsc-Regular-61" transform="translate(324.399948 0)"/>
     <use xlink:href="#NotoSansCJKsc-Regular-72" transform="translate(380.699936 0)"/>
     <use xlink:href="#NotoSansCJKsc-Regular-63" transform="translate(419.499924 0)"/>
     <use xlink:href="#NotoSansCJKsc-Regular-68" transform="translate(470.499908 0)"/>
    </g>
   </g>
   <g id="text_13">
    <!-- P50 ~17.5ms -->
    <g style="fill: #475569" transform="translate(321.706322 128.524045) scale(0.09 -0.09)">
     <defs>
      <path id="NotoSansCJKsc-Regular-35" d="M 1677 -83 
C 2464 -83 3213 499 3213 1523 
C 3213 2560 2573 3021 1798 3021 
C 1517 3021 1306 2950 1094 2835 
L 1216 4192 
L 2982 4192 
L 2982 4691 
L 704 4691 
L 550 2502 
L 864 2304 
C 1133 2483 1331 2579 1645 2579 
C 2234 2579 2618 2182 2618 1510 
C 2618 826 2176 403 1619 403 
C 1075 403 730 653 467 922 
L 173 538 
C 493 224 941 -83 1677 -83 
z
" transform="scale(0.015625)"/>
      <path id="NotoSansCJKsc-Regular-30" d="M 1779 -83 
C 2669 -83 3238 723 3238 2362 
C 3238 3987 2669 4774 1779 4774 
C 883 4774 320 3987 320 2362 
C 320 723 883 -83 1779 -83 
z
M 1779 390 
C 1248 390 883 986 883 2362 
C 883 3731 1248 4314 1779 4314 
C 2310 4314 2675 3731 2675 2362 
C 2675 986 2310 390 1779 390 
z
" transform="scale(0.015625)"/>
      <path id="NotoSansCJKsc-Regular-7e" d="M 2406 1837 
C 2714 1837 3034 2029 3296 2477 
L 2970 2714 
C 2803 2406 2624 2278 2419 2278 
C 2016 2278 1715 2886 1152 2886 
C 845 2886 518 2688 262 2240 
L 589 2010 
C 749 2317 928 2445 1133 2445 
C 1542 2445 1843 1837 2406 1837 
z
" transform="scale(0.015625)"/>
      <path id="NotoSansCJKsc-Regular-31" d="M 563 0 
L 3136 0 
L 3136 486 
L 2195 486 
L 2195 4691 
L 1747 4691 
C 1491 4544 1190 4435 774 4358 
L 774 3987 
L 1613 3987 
L 1613 486 
L 563 486 
L 563 0 
z
" transform="scale(0.015625)"/>
      <path id="NotoSansCJKsc-Regular-37" d="M 1267 0 
L 1875 0 
C 1952 1837 2150 2931 3251 4339 
L 3251 4691 
L 314 4691 
L 314 4192 
L 2592 4192 
C 1670 2912 1350 1779 1267 0 
z
" transform="scale(0.015625)"/>
      <path id="NotoSansCJKsc-Regular-2e" d="M 890 -83 
C 1120 -83 1312 96 1312 358 
C 1312 627 1120 806 890 806 
C 653 806 467 627 467 358 
C 467 96 653 -83 890 -83 
z
" transform="scale(0.015625)"/>
     </defs>
     <use xlink:href="#NotoSansCJKsc-Regular-50"/>
     <use xlink:href="#NotoSansCJKsc-Regular-35" transform="translate(63.299988 0)"/>
     <use xlink:href="#NotoSansCJKsc-Regular-30" transform="translate(118.799973 0)"/>
     <use xlink:href="#NotoSansCJKsc-Regular-20" transform="translate(174.299957 0)"/>
     <use xlink:href="#NotoSansCJKsc-Regular-7e" transform="translate(196.699951 0)"/>
     <use xlink:href="#NotoSansCJKsc-Regular-31" transform="translate(252.199936 0)"/>
     <use xlink:href="#NotoSansCJKsc-Regular-37" transform="translate(307.699921 0)"/>
     <use xlink:href="#NotoSansCJKsc-Regular-2e" transform="translate(363.199905 0)"/>
     <use xlink:href="#NotoSansCJKsc-Regular-35" transform="translate(390.999893 0)"/>
     <use xlink:href="#NotoSansCJKsc-Regular-6d" transform="translate(446.499878 0)"/>
     <use xlink:href="#NotoSansCJKsc-Regular-73" transform="translate(539.099869 0)"/>
    </g>
   </g>
   <g id="text_14">
    <!-- online serving -->
    <g style="fill: #475569" transform="translate(318.627338 141.275245) scale(0.09 -0.09)">
     <use xlink:href="#NotoSansCJKsc-Regular-6f"/>
     <use xlink:href="#NotoSansCJKsc-Regular-6e" transform="translate(60.599991 0)"/>
     <use xlink:href="#NotoSansCJKsc-Regular-6c" transform="translate(121.599976 0)"/>
     <use xlink:href="#NotoSansCJKsc-Regular-69" transform="translate(149.999969 0)"/>
     <use xlink:href="#NotoSansCJKsc-Regular-6e" transform="translate(177.499954 0)"/>
     <use xlink:href="#NotoSansCJKsc-Regular-65" transform="translate(238.499939 0)"/>
     <use xlink:href="#NotoSansCJKsc-Regular-20" transform="translate(293.899933 0)"/>
     <use xlink:href="#NotoSansCJKsc-Regular-73" transform="translate(316.299927 0)"/>
     <use xlink:href="#NotoSansCJKsc-Regular-65" transform="translate(363.099915 0)"/>
     <use xlink:href="#NotoSansCJKsc-Regular-72" transform="translate(418.499908 0)"/>
     <use xlink:href="#NotoSansCJKsc-Regular-76" transform="translate(457.299896 0)"/>
     <use xlink:href="#NotoSansCJKsc-Regular-69" transform="translate(509.399887 0)"/>
     <use xlink:href="#NotoSansCJKsc-Regular-6e" transform="translate(536.899872 0)"/>
     <use xlink:href="#NotoSansCJKsc-Regular-67" transform="translate(597.899857 0)"/>
    </g>
   </g>
   <g id="text_15">
    <!-- Video feed -->
    <g style="fill: #d97706" transform="translate(457.758722 101.68664) scale(0.105 -0.105)">
     <use xlink:href="#NotoSansCJKsc-Bold-56"/>
     <use xlink:href="#NotoSansCJKsc-Bold-69" transform="translate(61.899994 0)"/>
     <use xlink:href="#NotoSansCJKsc-Bold-64" transform="translate(92.299988 0)"/>
     <use xlink:href="#NotoSansCJKsc-Bold-65" transform="translate(156.699982 0)"/>
     <use xlink:href="#NotoSansCJKsc-Bold-6f" transform="translate(214.799973 0)"/>
     <use xlink:href="#NotoSansCJKsc-Bold-20" transform="translate(277.399963 0)"/>
     <use xlink:href="#NotoSansCJKsc-Bold-66" transform="translate(300.09996 0)"/>
     <use xlink:href="#NotoSansCJKsc-Bold-65" transform="translate(337.299957 0)"/>
     <use xlink:href="#NotoSansCJKsc-Bold-65" transform="translate(395.399948 0)"/>
     <use xlink:href="#NotoSansCJKsc-Bold-64" transform="translate(453.499939 0)"/>
    </g>
   </g>
   <g id="text_16">
    <!-- Product→Video -->
    <g style="fill: #475569" transform="translate(451.779581 115.772845) scale(0.09 -0.09)">
     <defs>
      <path id="NotoSansCJKsc-Regular-2192" d="M 5190 2650 
L 256 2650 
L 256 2214 
L 5190 2214 
C 4864 1965 4442 1562 4154 1165 
L 4538 941 
C 4966 1504 5606 2067 6176 2432 
C 5606 2797 4966 3360 4538 3923 
L 4154 3699 
C 4442 3302 4864 2899 5190 2650 
z
" transform="scale(0.015625)"/>
     </defs>
     <use xlink:href="#NotoSansCJKsc-Regular-50"/>
     <use xlink:href="#NotoSansCJKsc-Regular-72" transform="translate(63.299988 0)"/>
     <use xlink:href="#NotoSansCJKsc-Regular-6f" transform="translate(102.099976 0)"/>
     <use xlink:href="#NotoSansCJKsc-Regular-64" transform="translate(162.699966 0)"/>
     <use xlink:href="#NotoSansCJKsc-Regular-75" transform="translate(224.699951 0)"/>
     <use xlink:href="#NotoSansCJKsc-Regular-63" transform="translate(285.399948 0)"/>
     <use xlink:href="#NotoSansCJKsc-Regular-74" transform="translate(336.399933 0)"/>
     <use xlink:href="#NotoSansCJKsc-Regular-2192" transform="translate(374.09993 0)"/>
     <use xlink:href="#NotoSansCJKsc-Regular-56" transform="translate(474.099915 0)"/>
     <use xlink:href="#NotoSansCJKsc-Regular-69" transform="translate(531.599899 0)"/>
     <use xlink:href="#NotoSansCJKsc-Regular-64" transform="translate(559.099884 0)"/>
     <use xlink:href="#NotoSansCJKsc-Regular-65" transform="translate(621.099869 0)"/>
     <use xlink:href="#NotoSansCJKsc-Regular-6f" transform="translate(676.499863 0)"/>
    </g>
   </g>
   <g id="text_17">
    <!-- Video→Product -->
    <g style="fill: #475569" transform="translate(451.779581 128.524045) scale(0.09 -0.09)">
     <use xlink:href="#NotoSansCJKsc-Regular-56"/>
     <use xlink:href="#NotoSansCJKsc-Regular-69" transform="translate(57.499985 0)"/>
     <use xlink:href="#NotoSansCJKsc-Regular-64" transform="translate(84.999969 0)"/>
     <use xlink:href="#NotoSansCJKsc-Regular-65" transform="translate(146.999954 0)"/>
     <use xlink:href="#NotoSansCJKsc-Regular-6f" transform="translate(202.399948 0)"/>
     <use xlink:href="#NotoSansCJKsc-Regular-2192" transform="translate(262.999939 0)"/>
     <use xlink:href="#NotoSansCJKsc-Regular-50" transform="translate(362.999924 0)"/>
     <use xlink:href="#NotoSansCJKsc-Regular-72" transform="translate(426.299911 0)"/>
     <use xlink:href="#NotoSansCJKsc-Regular-6f" transform="translate(465.099899 0)"/>
     <use xlink:href="#NotoSansCJKsc-Regular-64" transform="translate(525.69989 0)"/>
     <use xlink:href="#NotoSansCJKsc-Regular-75" transform="translate(587.699875 0)"/>
     <use xlink:href="#NotoSansCJKsc-Regular-63" transform="translate(648.399872 0)"/>
     <use xlink:href="#NotoSansCJKsc-Regular-74" transform="translate(699.399857 0)"/>
    </g>
   </g>
   <g id="text_18">
    <!-- Zero-shot -->
    <g style="fill: #475569" transform="translate(464.447081 141.275245) scale(0.09 -0.09)">
     <defs>
      <path id="NotoSansCJKsc-Regular-5a" d="M 320 0 
L 3558 0 
L 3558 506 
L 1050 506 
L 3526 4339 
L 3526 4691 
L 544 4691 
L 544 4192 
L 2797 4192 
L 320 358 
L 320 0 
z
" transform="scale(0.015625)"/>
     </defs>
     <use xlink:href="#NotoSansCJKsc-Regular-5a"/>
     <use xlink:href="#NotoSansCJKsc-Regular-65" transform="translate(60.299988 0)"/>
     <use xlink:href="#NotoSansCJKsc-Regular-72" transform="translate(115.699982 0)"/>
     <use xlink:href="#NotoSansCJKsc-Regular-6f" transform="translate(154.499969 0)"/>
     <use xlink:href="#NotoSansCJKsc-Regular-2d" transform="translate(215.09996 0)"/>
     <use xlink:href="#NotoSansCJKsc-Regular-73" transform="translate(249.799957 0)"/>
     <use xlink:href="#NotoSansCJKsc-Regular-68" transform="translate(296.599945 0)"/>
     <use xlink:href="#NotoSansCJKsc-Regular-6f" transform="translate(357.299942 0)"/>
     <use xlink:href="#NotoSansCJKsc-Regular-74" transform="translate(417.899933 0)"/>
    </g>
   </g>
   <g id="text_19">
    <!-- LVLM Judge -->
    <g style="fill: #10b981" transform="translate(531.061641 208.557329) scale(0.102 -0.102)">
     <defs>
      <path id="NotoSansCJKsc-Bold-4a" d="M 1613 -90 
C 2630 -90 3078 640 3078 1530 
L 3078 4742 
L 2131 4742 
L 2131 1606 
C 2131 954 1914 730 1498 730 
C 1229 730 973 877 794 1222 
L 147 742 
C 461 186 928 -90 1613 -90 
z
" transform="scale(0.015625)"/>
      <path id="NotoSansCJKsc-Bold-67" d="M 1766 -1555 
C 2963 -1555 3718 -1005 3718 -282 
C 3718 346 3245 614 2381 614 
L 1766 614 
C 1350 614 1203 717 1203 902 
C 1203 1056 1267 1133 1357 1216 
C 1517 1158 1683 1133 1818 1133 
C 2592 1133 3206 1536 3206 2349 
C 3206 2573 3136 2771 3046 2893 
L 3654 2893 
L 3654 3584 
L 2368 3584 
C 2214 3635 2029 3674 1818 3674 
C 1062 3674 378 3219 378 2381 
C 378 1958 608 1619 858 1440 
L 858 1414 
C 640 1261 461 1011 461 749 
C 461 448 595 262 787 141 
L 787 109 
C 448 -77 275 -333 275 -634 
C 275 -1267 922 -1555 1766 -1555 
z
M 1818 1715 
C 1510 1715 1261 1952 1261 2381 
C 1261 2797 1504 3027 1818 3027 
C 2138 3027 2387 2797 2387 2381 
C 2387 1952 2138 1715 1818 1715 
z
M 1907 -954 
C 1389 -954 1056 -787 1056 -493 
C 1056 -339 1126 -198 1286 -70 
C 1421 -102 1568 -115 1779 -115 
L 2221 -115 
C 2605 -115 2816 -186 2816 -442 
C 2816 -717 2451 -954 1907 -954 
z
" transform="scale(0.015625)"/>
     </defs>
     <use xlink:href="#NotoSansCJKsc-Bold-4c"/>
     <use xlink:href="#NotoSansCJKsc-Bold-56" transform="translate(57.799988 0)"/>
     <use xlink:href="#NotoSansCJKsc-Bold-4c" transform="translate(119.699982 0)"/>
     <use xlink:href="#NotoSansCJKsc-Bold-4d" transform="translate(177.499969 0)"/>
     <use xlink:href="#NotoSansCJKsc-Bold-20" transform="translate(262.799957 0)"/>
     <use xlink:href="#NotoSansCJKsc-Bold-4a" transform="translate(285.499954 0)"/>
     <use xlink:href="#NotoSansCJKsc-Bold-75" transform="translate(342.299942 0)"/>
     <use xlink:href="#NotoSansCJKsc-Bold-64" transform="translate(405.999939 0)"/>
     <use xlink:href="#NotoSansCJKsc-Bold-67" transform="translate(470.399933 0)"/>
     <use xlink:href="#NotoSansCJKsc-Bold-65" transform="translate(530.09993 0)"/>
    </g>
   </g>
   <g id="text_20">
    <!-- mitigate -->
    <g style="fill: #475569" transform="translate(543.851187 222.539488) scale(0.088 -0.088)">
     <use xlink:href="#NotoSansCJKsc-Regular-6d"/>
     <use xlink:href="#NotoSansCJKsc-Regular-69" transform="translate(92.599991 0)"/>
     <use xlink:href="#NotoSansCJKsc-Regular-74" transform="translate(120.099976 0)"/>
     <use xlink:href="#NotoSansCJKsc-Regular-69" transform="translate(157.799973 0)"/>
     <use xlink:href="#NotoSansCJKsc-Regular-67" transform="translate(185.299957 0)"/>
     <use xlink:href="#NotoSansCJKsc-Regular-61" transform="translate(241.699951 0)"/>
     <use xlink:href="#NotoSansCJKsc-Regular-74" transform="translate(297.999939 0)"/>
     <use xlink:href="#NotoSansCJKsc-Regular-65" transform="translate(335.699936 0)"/>
    </g>
   </g>
   <g id="text_21">
    <!-- exposure bias -->
    <g style="fill: #475569" transform="translate(532.710938 235.474938) scale(0.088 -0.088)">
     <use xlink:href="#NotoSansCJKsc-Regular-65"/>
     <use xlink:href="#NotoSansCJKsc-Regular-78" transform="translate(55.399994 0)"/>
     <use xlink:href="#NotoSansCJKsc-Regular-70" transform="translate(105.199982 0)"/>
     <use xlink:href="#NotoSansCJKsc-Regular-6f" transform="translate(167.199966 0)"/>
     <use xlink:href="#NotoSansCJKsc-Regular-73" transform="translate(227.799957 0)"/>
     <use xlink:href="#NotoSansCJKsc-Regular-75" transform="translate(274.599945 0)"/>
     <use xlink:href="#NotoSansCJKsc-Regular-72" transform="translate(335.299942 0)"/>
     <use xlink:href="#NotoSansCJKsc-Regular-65" transform="translate(374.09993 0)"/>
     <use xlink:href="#NotoSansCJKsc-Regular-20" transform="translate(429.499924 0)"/>
     <use xlink:href="#NotoSansCJKsc-Regular-62" transform="translate(451.899918 0)"/>
     <use xlink:href="#NotoSansCJKsc-Regular-69" transform="translate(513.699905 0)"/>
     <use xlink:href="#NotoSansCJKsc-Regular-61" transform="translate(541.19989 0)"/>
     <use xlink:href="#NotoSansCJKsc-Regular-73" transform="translate(597.499878 0)"/>
    </g>
   </g>
   <g id="text_22">
    <!-- Key idea: replace CF with semantic retrieval for cold-start video feeds. -->
    <g style="fill: #64748b" transform="translate(169.754766 246.255997) scale(0.09 -0.09)">
     <defs>
      <path id="NotoSansCJKsc-Regular-4b" d="M 646 0 
L 1235 0 
L 1235 1485 
L 2042 2445 
L 3450 0 
L 4109 0 
L 2413 2912 
L 3885 4691 
L 3213 4691 
L 1248 2336 
L 1235 2336 
L 1235 4691 
L 646 4691 
L 646 0 
z
" transform="scale(0.015625)"/>
      <path id="NotoSansCJKsc-Regular-46" d="M 646 0 
L 1235 0 
L 1235 2106 
L 3027 2106 
L 3027 2605 
L 1235 2605 
L 1235 4192 
L 3347 4192 
L 3347 4691 
L 646 4691 
L 646 0 
z
" transform="scale(0.015625)"/>
      <path id="NotoSansCJKsc-Regular-77" d="M 1139 0 
L 1818 0 
L 2310 1862 
C 2400 2195 2470 2522 2547 2874 
L 2579 2874 
C 2662 2522 2726 2202 2816 1875 
L 3315 0 
L 4026 0 
L 4966 3475 
L 4403 3475 
L 3898 1466 
C 3821 1133 3757 819 3686 499 
L 3654 499 
C 3571 819 3494 1133 3411 1466 
L 2867 3475 
L 2298 3475 
L 1754 1466 
C 1670 1133 1594 819 1523 499 
L 1491 499 
C 1421 819 1357 1133 1286 1466 
L 768 3475 
L 173 3475 
L 1139 0 
z
" transform="scale(0.015625)"/>
     </defs>
     <use xlink:href="#NotoSansCJKsc-Regular-4b"/>
     <use xlink:href="#NotoSansCJKsc-Regular-65" transform="translate(64.599991 0)"/>
     <use xlink:href="#NotoSansCJKsc-Regular-79" transform="translate(119.999985 0)"/>
     <use xlink:href="#NotoSansCJKsc-Regular-20" transform="translate(172.099976 0)"/>
     <use xlink:href="#NotoSansCJKsc-Regular-69" transform="translate(194.499969 0)"/>
     <use xlink:href="#NotoSansCJKsc-Regular-64" transform="translate(221.999954 0)"/>
     <use xlink:href="#NotoSansCJKsc-Regular-65" transform="translate(283.999939 0)"/>
     <use xlink:href="#NotoSansCJKsc-Regular-61" transform="translate(339.399933 0)"/>
     <use xlink:href="#NotoSansCJKsc-Regular-3a" transform="translate(395.699921 0)"/>
     <use xlink:href="#NotoSansCJKsc-Regular-20" transform="translate(423.499908 0)"/>
     <use xlink:href="#NotoSansCJKsc-Regular-72" transform="translate(445.899902 0)"/>
     <use xlink:href="#NotoSansCJKsc-Regular-65" transform="translate(484.69989 0)"/>
     <use xlink:href="#NotoSansCJKsc-Regular-70" transform="translate(540.099884 0)"/>
     <use xlink:href="#NotoSansCJKsc-Regular-6c" transform="translate(602.099869 0)"/>
     <use xlink:href="#NotoSansCJKsc-Regular-61" transform="translate(630.499863 0)"/>
     <use xlink:href="#NotoSansCJKsc-Regular-63" transform="translate(686.79985 0)"/>
     <use xlink:href="#NotoSansCJKsc-Regular-65" transform="translate(737.799835 0)"/>
     <use xlink:href="#NotoSansCJKsc-Regular-20" transform="translate(793.199829 0)"/>
     <use xlink:href="#NotoSansCJKsc-Regular-43" transform="translate(815.599823 0)"/>
     <use xlink:href="#NotoSansCJKsc-Regular-46" transform="translate(879.399811 0)"/>
     <use xlink:href="#NotoSansCJKsc-Regular-20" transform="translate(934.599808 0)"/>
     <use xlink:href="#NotoSansCJKsc-Regular-77" transform="translate(956.999802 0)"/>
     <use xlink:href="#NotoSansCJKsc-Regular-69" transform="translate(1037.199783 0)"/>
     <use xlink:href="#NotoSansCJKsc-Regular-74" transform="translate(1064.699768 0)"/>
     <use xlink:href="#NotoSansCJKsc-Regular-68" transform="translate(1102.399765 0)"/>
     <use xlink:href="#NotoSansCJKsc-Regular-20" transform="translate(1163.099762 0)"/>
     <use xlink:href="#NotoSansCJKsc-Regular-73" transform="translate(1185.499756 0)"/>
     <use xlink:href="#NotoSansCJKsc-Regular-65" transform="translate(1232.299744 0)"/>
     <use xlink:href="#NotoSansCJKsc-Regular-6d" transform="translate(1287.699738 0)"/>
     <use xlink:href="#NotoSansCJKsc-Regular-61" transform="translate(1380.299728 0)"/>
     <use xlink:href="#NotoSansCJKsc-Regular-6e" transform="translate(1436.599716 0)"/>
     <use xlink:href="#NotoSansCJKsc-Regular-74" transform="translate(1497.599701 0)"/>
     <use xlink:href="#NotoSansCJKsc-Regular-69" transform="translate(1535.299698 0)"/>
     <use xlink:href="#NotoSansCJKsc-Regular-63" transform="translate(1562.799683 0)"/>
     <use xlink:href="#NotoSansCJKsc-Regular-20" transform="translate(1613.799667 0)"/>
     <use xlink:href="#NotoSansCJKsc-Regular-72" transform="translate(1636.199661 0)"/>
     <use xlink:href="#NotoSansCJKsc-Regular-65" transform="translate(1674.999649 0)"/>
     <use xlink:href="#NotoSansCJKsc-Regular-74" transform="translate(1730.399643 0)"/>
     <use xlink:href="#NotoSansCJKsc-Regular-72" transform="translate(1768.09964 0)"/>
     <use xlink:href="#NotoSansCJKsc-Regular-69" transform="translate(1806.899628 0)"/>
     <use xlink:href="#NotoSansCJKsc-Regular-65" transform="translate(1834.399612 0)"/>
     <use xlink:href="#NotoSansCJKsc-Regular-76" transform="translate(1889.799606 0)"/>
     <use xlink:href="#NotoSansCJKsc-Regular-61" transform="translate(1941.899597 0)"/>
     <use xlink:href="#NotoSansCJKsc-Regular-6c" transform="translate(1998.199585 0)"/>
     <use xlink:href="#NotoSansCJKsc-Regular-20" transform="translate(2026.599579 0)"/>
     <use xlink:href="#NotoSansCJKsc-Regular-66" transform="translate(2048.999573 0)"/>
     <use xlink:href="#NotoSansCJKsc-Regular-6f" transform="translate(2081.499557 0)"/>
     <use xlink:href="#NotoSansCJKsc-Regular-72" transform="translate(2142.099548 0)"/>
     <use xlink:href="#NotoSansCJKsc-Regular-20" transform="translate(2180.899536 0)"/>
     <use xlink:href="#NotoSansCJKsc-Regular-63" transform="translate(2203.29953 0)"/>
     <use xlink:href="#NotoSansCJKsc-Regular-6f" transform="translate(2254.299515 0)"/>
     <use xlink:href="#NotoSansCJKsc-Regular-6c" transform="translate(2314.899506 0)"/>
     <use xlink:href="#NotoSansCJKsc-Regular-64" transform="translate(2343.2995 0)"/>
     <use xlink:href="#NotoSansCJKsc-Regular-2d" transform="translate(2405.299484 0)"/>
     <use xlink:href="#NotoSansCJKsc-Regular-73" transform="translate(2439.999481 0)"/>
     <use xlink:href="#NotoSansCJKsc-Regular-74" transform="translate(2486.799469 0)"/>
     <use xlink:href="#NotoSansCJKsc-Regular-61" transform="translate(2524.499466 0)"/>
     <use xlink:href="#NotoSansCJKsc-Regular-72" transform="translate(2580.799454 0)"/>
     <use xlink:href="#NotoSansCJKsc-Regular-74" transform="translate(2619.599442 0)"/>
     <use xlink:href="#NotoSansCJKsc-Regular-20" transform="translate(2657.299438 0)"/>
     <use xlink:href="#NotoSansCJKsc-Regular-76" transform="translate(2679.699432 0)"/>
     <use xlink:href="#NotoSansCJKsc-Regular-69" transform="translate(2731.799423 0)"/>
     <use xlink:href="#NotoSansCJKsc-Regular-64" transform="translate(2759.299408 0)"/>
     <use xlink:href="#NotoSansCJKsc-Regular-65" transform="translate(2821.299393 0)"/>
     <use xlink:href="#NotoSansCJKsc-Regular-6f" transform="translate(2876.699387 0)"/>
     <use xlink:href="#NotoSansCJKsc-Regular-20" transform="translate(2937.299377 0)"/>
     <use xlink:href="#NotoSansCJKsc-Regular-66" transform="translate(2959.699371 0)"/>
     <use xlink:href="#NotoSansCJKsc-Regular-65" transform="translate(2992.199356 0)"/>
     <use xlink:href="#NotoSansCJKsc-Regular-65" transform="translate(3047.59935 0)"/>
     <use xlink:href="#NotoSansCJKsc-Regular-64" transform="translate(3102.999344 0)"/>
     <use xlink:href="#NotoSansCJKsc-Regular-73" transform="translate(3164.999329 0)"/>
     <use xlink:href="#NotoSansCJKsc-Regular-2e" transform="translate(3211.799316 0)"/>
    </g>
   </g>
   <g id="patch_11">
    <path d="M 16.0056 26.49168 
L 77.3856 26.49168 
L 77.3856 15.0156 
L 16.0056 15.0156 
z
" clip-path="url(#p0bf09decaa)" style="fill: #2563eb; stroke: #2563eb; stroke-linejoin: miter"/>
   </g>
  </g>
 </g>
 <defs>
  <clipPath id="p0bf09decaa">
   <rect x="8.64" y="8.64" width="613.8" height="255.024"/>
  </clipPath>
 </defs>
</svg>
