<?xml version="1.0" encoding="utf-8" standalone="no"?>
<!DOCTYPE svg PUBLIC "-//W3C//DTD SVG 1.1//EN"
  "http://www.w3.org/Graphics/SVG/1.1/DTD/svg11.dtd">
<svg xmlns:xlink="http://www.w3.org/1999/xlink" width="787.896pt" height="314.727375pt" viewBox="0 0 787.896 314.727375" xmlns="http://www.w3.org/2000/svg" version="1.1">
 <metadata>
  <rdf:RDF xmlns:dc="http://purl.org/dc/elements/1.1/" xmlns:cc="http://creativecommons.org/ns#" xmlns:rdf="http://www.w3.org/1999/02/22-rdf-syntax-ns#">
   <cc:Work>
    <dc:type rdf:resource="http://purl.org/dc/dcmitype/StillImage"/>
    <dc:date>2026-06-28T20:08:33.816995</dc:date>
    <dc:format>image/svg+xml</dc:format>
    <dc:creator>
     <cc:Agent>
      <dc:title>Matplotlib v3.10.5, https://matplotlib.org/</dc:title>
     </cc:Agent>
    </dc:creator>
   </cc:Work>
  </rdf:RDF>
 </metadata>
 <defs>
  <style type="text/css">*{stroke-linejoin: round; stroke-linecap: butt}</style>
 </defs>
 <g id="figure_1">
  <g id="patch_1">
   <path d="M 0 314.727375 
L 787.896 314.727375 
L 787.896 0 
L 0 0 
z
" style="fill: #ffffff"/>
  </g>
  <g id="axes_1">
   <g id="patch_2">
    <path d="M 45.646 274.556 
L 396.891 274.556 
L 396.891 75.372 
L 45.646 75.372 
z
" style="fill: #ffffff"/>
   </g>
   <g id="matplotlib.axis_1">
    <g id="xtick_1">
     <g id="line2d_1">
      <defs>
       <path id="m2391f9f777" d="M 0 0 
L 0 3.5 
" style="stroke: #475569; stroke-width: 0.8"/>
      </defs>
      <g>
       <use xlink:href="#m2391f9f777" x="118.264101" y="274.556" style="fill: #475569; stroke: #475569; stroke-width: 0.8"/>
      </g>
     </g>
     <g id="text_1">
      <!-- NDCG@10 -->
      <g style="fill: #475569" transform="translate(91.897617 290.311312) scale(0.11 -0.11)">
       <defs>
        <path id="NotoSansCJKsc-Regular-4e" d="M 646 0 
L 1203 0 
L 1203 2464 
C 1203 2957 1158 3456 1133 3930 
L 1158 3930 
L 1664 2963 
L 3373 0 
L 3981 0 
L 3981 4691 
L 3418 4691 
L 3418 2253 
C 3418 1766 3462 1235 3501 768 
L 3469 768 
L 2963 1734 
L 1248 4691 
L 646 4691 
L 646 0 
z
" transform="scale(0.015625)"/>
        <path id="NotoSansCJKsc-Regular-44" d="M 646 0 
L 1843 0 
C 3258 0 4026 877 4026 2362 
C 4026 3859 3258 4691 1818 4691 
L 646 4691 
L 646 0 
z
M 1235 486 
L 1235 4211 
L 1766 4211 
C 2874 4211 3418 3552 3418 2362 
C 3418 1178 2874 486 1766 486 
L 1235 486 
z
" transform="scale(0.015625)"/>
        <path id="NotoSansCJKsc-Regular-43" d="M 2413 -83 
C 3021 -83 3482 160 3853 589 
L 3526 966 
C 3226 634 2886 435 2438 435 
C 1542 435 979 1178 979 2362 
C 979 3533 1574 4256 2458 4256 
C 2861 4256 3168 4077 3418 3814 
L 3738 4198 
C 3469 4499 3021 4774 2451 4774 
C 1261 4774 371 3859 371 2342 
C 371 819 1242 -83 2413 -83 
z
" transform="scale(0.015625)"/>
        <path id="NotoSansCJKsc-Regular-47" d="M 2490 -83 
C 3117 -83 3635 147 3936 461 
L 3936 2432 
L 2394 2432 
L 2394 1939 
L 3392 1939 
L 3392 710 
C 3206 538 2880 435 2547 435 
C 1542 435 979 1178 979 2362 
C 979 3533 1594 4256 2541 4256 
C 3008 4256 3315 4058 3552 3814 
L 3872 4198 
C 3603 4480 3174 4774 2522 4774 
C 1280 4774 371 3859 371 2342 
C 371 819 1254 -83 2490 -83 
z
" transform="scale(0.015625)"/>
        <path id="NotoSansCJKsc-Regular-40" d="M 2874 -1107 
C 3373 -1107 3821 -992 4237 -742 
L 4077 -397 
C 3763 -582 3360 -717 2918 -717 
C 1702 -717 787 77 787 1472 
C 787 3142 2022 4230 3296 4230 
C 4595 4230 5280 3386 5280 2227 
C 5280 1306 4768 749 4314 749 
C 3923 749 3782 1024 3923 1594 
L 4205 3021 
L 3821 3021 
L 3738 2726 
L 3725 2726 
C 3590 2963 3398 3078 3155 3078 
C 2317 3078 1773 2176 1773 1421 
C 1773 768 2150 403 2637 403 
C 2957 403 3277 621 3507 896 
L 3526 896 
C 3571 531 3872 352 4262 352 
C 4909 352 5690 1005 5690 2253 
C 5690 3661 4781 4621 3347 4621 
C 1747 4621 358 3366 358 1453 
C 358 -218 1478 -1107 2874 -1107 
z
M 2752 806 
C 2464 806 2246 992 2246 1453 
C 2246 1997 2598 2669 3155 2669 
C 3354 2669 3482 2592 3616 2368 
L 3418 1235 
C 3168 934 2950 806 2752 806 
z
" transform="scale(0.015625)"/>
        <path id="NotoSansCJKsc-Regular-31" d="M 563 0 
L 3136 0 
L 3136 486 
L 2195 486 
L 2195 4691 
L 1747 4691 
C 1491 4544 1190 4435 774 4358 
L 774 3987 
L 1613 3987 
L 1613 486 
L 563 486 
L 563 0 
z
" transform="scale(0.015625)"/>
        <path id="NotoSansCJKsc-Regular-30" d="M 1779 -83 
C 2669 -83 3238 723 3238 2362 
C 3238 3987 2669 4774 1779 4774 
C 883 4774 320 3987 320 2362 
C 320 723 883 -83 1779 -83 
z
M 1779 390 
C 1248 390 883 986 883 2362 
C 883 3731 1248 4314 1779 4314 
C 2310 4314 2675 3731 2675 2362 
C 2675 986 2310 390 1779 390 
z
" transform="scale(0.015625)"/>
       </defs>
       <use xlink:href="#NotoSansCJKsc-Regular-4e"/>
       <use xlink:href="#NotoSansCJKsc-Regular-44" transform="translate(72.299988 0)"/>
       <use xlink:href="#NotoSansCJKsc-Regular-43" transform="translate(141.099976 0)"/>
       <use xlink:href="#NotoSansCJKsc-Regular-47" transform="translate(204.899963 0)"/>
       <use xlink:href="#NotoSansCJKsc-Regular-40" transform="translate(273.799957 0)"/>
       <use xlink:href="#NotoSansCJKsc-Regular-31" transform="translate(368.399948 0)"/>
       <use xlink:href="#NotoSansCJKsc-Regular-30" transform="translate(423.899933 0)"/>
      </g>
      <!-- (base) -->
      <g style="fill: #475569" transform="translate(102.430117 303.337375) scale(0.11 -0.11)">
       <defs>
        <path id="NotoSansCJKsc-Regular-28" d="M 1530 -1254 
L 1888 -1094 
C 1338 -186 1075 902 1075 1990 
C 1075 3072 1338 4154 1888 5069 
L 1530 5235 
C 941 4275 589 3245 589 1990 
C 589 730 941 -301 1530 -1254 
z
" transform="scale(0.015625)"/>
        <path id="NotoSansCJKsc-Regular-62" d="M 2118 -83 
C 2912 -83 3629 602 3629 1792 
C 3629 2867 3142 3565 2246 3565 
C 1856 3565 1472 3347 1152 3078 
L 1178 3699 
L 1178 5094 
L 589 5094 
L 589 0 
L 1056 0 
L 1107 358 
L 1133 358 
C 1434 83 1798 -83 2118 -83 
z
M 2022 410 
C 1792 410 1478 499 1178 768 
L 1178 2598 
C 1504 2906 1811 3072 2099 3072 
C 2765 3072 3021 2560 3021 1786 
C 3021 928 2598 410 2022 410 
z
" transform="scale(0.015625)"/>
        <path id="NotoSansCJKsc-Regular-61" d="M 1389 -83 
C 1818 -83 2208 141 2541 416 
L 2560 416 
L 2611 0 
L 3091 0 
L 3091 2138 
C 3091 3002 2739 3565 1888 3565 
C 1325 3565 838 3315 525 3110 
L 749 2707 
C 1024 2893 1389 3078 1792 3078 
C 2362 3078 2509 2650 2509 2202 
C 1030 2035 378 1658 378 902 
C 378 275 806 -83 1389 -83 
z
M 1555 390 
C 1210 390 941 544 941 941 
C 941 1389 1338 1677 2509 1811 
L 2509 845 
C 2170 544 1888 390 1555 390 
z
" transform="scale(0.015625)"/>
        <path id="NotoSansCJKsc-Regular-73" d="M 1498 -83 
C 2317 -83 2758 384 2758 947 
C 2758 1606 2208 1811 1702 2003 
C 1312 2150 954 2278 954 2605 
C 954 2880 1158 3110 1600 3110 
C 1907 3110 2150 2976 2387 2803 
L 2669 3168 
C 2406 3386 2022 3565 1594 3565 
C 832 3565 397 3130 397 2579 
C 397 1984 922 1754 1408 1574 
C 1792 1434 2202 1267 2202 915 
C 2202 614 1978 371 1517 371 
C 1101 371 794 538 486 787 
L 205 397 
C 531 122 1005 -83 1498 -83 
z
" transform="scale(0.015625)"/>
        <path id="NotoSansCJKsc-Regular-65" d="M 1997 -83 
C 2464 -83 2835 70 3136 269 
L 2931 659 
C 2669 486 2400 384 2061 384 
C 1402 384 947 858 909 1600 
L 3251 1600 
C 3264 1690 3277 1805 3277 1933 
C 3277 2925 2778 3565 1888 3565 
C 1094 3565 333 2867 333 1734 
C 333 589 1069 -83 1997 -83 
z
M 902 2016 
C 973 2707 1408 3098 1901 3098 
C 2445 3098 2765 2720 2765 2016 
L 902 2016 
z
" transform="scale(0.015625)"/>
        <path id="NotoSansCJKsc-Regular-29" d="M 634 -1254 
C 1222 -301 1574 730 1574 1990 
C 1574 3245 1222 4275 634 5235 
L 269 5069 
C 819 4154 1094 3072 1094 1990 
C 1094 902 819 -186 269 -1094 
L 634 -1254 
z
" transform="scale(0.015625)"/>
       </defs>
       <use xlink:href="#NotoSansCJKsc-Regular-28"/>
       <use xlink:href="#NotoSansCJKsc-Regular-62" transform="translate(33.799988 0)"/>
       <use xlink:href="#NotoSansCJKsc-Regular-61" transform="translate(95.599976 0)"/>
       <use xlink:href="#NotoSansCJKsc-Regular-73" transform="translate(151.899963 0)"/>
       <use xlink:href="#NotoSansCJKsc-Regular-65" transform="translate(198.699951 0)"/>
       <use xlink:href="#NotoSansCJKsc-Regular-29" transform="translate(254.099945 0)"/>
      </g>
     </g>
    </g>
    <g id="xtick_2">
     <g id="line2d_2">
      <g>
       <use xlink:href="#m2391f9f777" x="324.272899" y="274.556" style="fill: #475569; stroke: #475569; stroke-width: 0.8"/>
      </g>
     </g>
     <g id="text_2">
      <!-- NDCG@10 -->
      <g style="fill: #475569" transform="translate(297.906414 290.311312) scale(0.11 -0.11)">
       <use xlink:href="#NotoSansCJKsc-Regular-4e"/>
       <use xlink:href="#NotoSansCJKsc-Regular-44" transform="translate(72.299988 0)"/>
       <use xlink:href="#NotoSansCJKsc-Regular-43" transform="translate(141.099976 0)"/>
       <use xlink:href="#NotoSansCJKsc-Regular-47" transform="translate(204.899963 0)"/>
       <use xlink:href="#NotoSansCJKsc-Regular-40" transform="translate(273.799957 0)"/>
       <use xlink:href="#NotoSansCJKsc-Regular-31" transform="translate(368.399948 0)"/>
       <use xlink:href="#NotoSansCJKsc-Regular-30" transform="translate(423.899933 0)"/>
      </g>
      <!-- (ours) -->
      <g style="fill: #475569" transform="translate(309.176258 303.337375) scale(0.11 -0.11)">
       <defs>
        <path id="NotoSansCJKsc-Regular-6f" d="M 1939 -83 
C 2790 -83 3546 582 3546 1734 
C 3546 2893 2790 3565 1939 3565 
C 1088 3565 333 2893 333 1734 
C 333 582 1088 -83 1939 -83 
z
M 1939 403 
C 1338 403 934 934 934 1734 
C 934 2534 1338 3072 1939 3072 
C 2541 3072 2950 2534 2950 1734 
C 2950 934 2541 403 1939 403 
z
" transform="scale(0.015625)"/>
        <path id="NotoSansCJKsc-Regular-75" d="M 1606 -83 
C 2080 -83 2426 166 2752 544 
L 2771 544 
L 2816 0 
L 3302 0 
L 3302 3475 
L 2720 3475 
L 2720 1011 
C 2387 602 2138 422 1779 422 
C 1318 422 1126 698 1126 1344 
L 1126 3475 
L 538 3475 
L 538 1274 
C 538 384 870 -83 1606 -83 
z
" transform="scale(0.015625)"/>
        <path id="NotoSansCJKsc-Regular-72" d="M 589 0 
L 1178 0 
L 1178 2234 
C 1408 2822 1760 3040 2048 3040 
C 2195 3040 2272 3021 2387 2982 
L 2496 3488 
C 2387 3546 2278 3565 2125 3565 
C 1741 3565 1382 3283 1139 2842 
L 1126 2842 
L 1069 3475 
L 589 3475 
L 589 0 
z
" transform="scale(0.015625)"/>
       </defs>
       <use xlink:href="#NotoSansCJKsc-Regular-28"/>
       <use xlink:href="#NotoSansCJKsc-Regular-6f" transform="translate(33.799988 0)"/>
       <use xlink:href="#NotoSansCJKsc-Regular-75" transform="translate(94.399979 0)"/>
       <use xlink:href="#NotoSansCJKsc-Regular-72" transform="translate(155.099976 0)"/>
       <use xlink:href="#NotoSansCJKsc-Regular-73" transform="translate(193.899963 0)"/>
       <use xlink:href="#NotoSansCJKsc-Regular-29" transform="translate(240.699951 0)"/>
      </g>
     </g>
    </g>
   </g>
   <g id="matplotlib.axis_2">
    <g id="ytick_1">
     <g id="line2d_3">
      <path d="M 45.646 274.556 
L 396.891 274.556 
" clip-path="url(#pcc4f51f4b6)" style="fill: none; stroke: #e5e7eb; stroke-width: 0.8; stroke-linecap: square"/>
     </g>
     <g id="line2d_4">
      <defs>
       <path id="mcae33e2d50" d="M 0 0 
L -3.5 0 
" style="stroke: #475569; stroke-width: 0.8"/>
      </defs>
      <g>
       <use xlink:href="#mcae33e2d50" x="45.646" y="274.556" style="fill: #475569; stroke: #475569; stroke-width: 0.8"/>
      </g>
     </g>
     <g id="text_3">
      <!-- 0.800 -->
      <g style="fill: #475569" transform="translate(11.168344 278.933656) scale(0.11 -0.11)">
       <defs>
        <path id="NotoSansCJKsc-Regular-2e" d="M 890 -83 
C 1120 -83 1312 96 1312 358 
C 1312 627 1120 806 890 806 
C 653 806 467 627 467 358 
C 467 96 653 -83 890 -83 
z
" transform="scale(0.015625)"/>
        <path id="NotoSansCJKsc-Regular-38" d="M 1792 -83 
C 2669 -83 3258 448 3258 1126 
C 3258 1773 2880 2125 2470 2362 
L 2470 2394 
C 2746 2611 3091 3034 3091 3526 
C 3091 4250 2605 4762 1805 4762 
C 1075 4762 518 4282 518 3571 
C 518 3078 813 2726 1152 2490 
L 1152 2464 
C 723 2234 294 1792 294 1165 
C 294 442 922 -83 1792 -83 
z
M 2112 2547 
C 1555 2765 1050 3014 1050 3571 
C 1050 4026 1363 4326 1798 4326 
C 2298 4326 2592 3962 2592 3494 
C 2592 3149 2426 2829 2112 2547 
z
M 1798 352 
C 1235 352 813 717 813 1216 
C 813 1664 1082 2035 1459 2278 
C 2125 2010 2701 1779 2701 1146 
C 2701 678 2342 352 1798 352 
z
" transform="scale(0.015625)"/>
       </defs>
       <use xlink:href="#NotoSansCJKsc-Regular-30"/>
       <use xlink:href="#NotoSansCJKsc-Regular-2e" transform="translate(55.499985 0)"/>
       <use xlink:href="#NotoSansCJKsc-Regular-38" transform="translate(83.299973 0)"/>
       <use xlink:href="#NotoSansCJKsc-Regular-30" transform="translate(138.799957 0)"/>
       <use xlink:href="#NotoSansCJKsc-Regular-30" transform="translate(194.299942 0)"/>
      </g>
     </g>
    </g>
    <g id="ytick_2">
     <g id="line2d_5">
      <path d="M 45.646 249.658 
L 396.891 249.658 
" clip-path="url(#pcc4f51f4b6)" style="fill: none; stroke: #e5e7eb; stroke-width: 0.8; stroke-linecap: square"/>
     </g>
     <g id="line2d_6">
      <g>
       <use xlink:href="#mcae33e2d50" x="45.646" y="249.658" style="fill: #475569; stroke: #475569; stroke-width: 0.8"/>
      </g>
     </g>
     <g id="text_4">
      <!-- 0.825 -->
      <g style="fill: #475569" transform="translate(11.168344 254.035656) scale(0.11 -0.11)">
       <defs>
        <path id="NotoSansCJKsc-Regular-32" d="M 282 0 
L 3232 0 
L 3232 506 
L 1933 506 
C 1696 506 1408 480 1165 461 
C 2266 1504 3008 2458 3008 3398 
C 3008 4230 2477 4774 1638 4774 
C 1043 4774 634 4506 256 4090 
L 595 3757 
C 858 4070 1184 4301 1568 4301 
C 2150 4301 2432 3910 2432 3373 
C 2432 2566 1754 1632 282 346 
L 282 0 
z
" transform="scale(0.015625)"/>
        <path id="NotoSansCJKsc-Regular-35" d="M 1677 -83 
C 2464 -83 3213 499 3213 1523 
C 3213 2560 2573 3021 1798 3021 
C 1517 3021 1306 2950 1094 2835 
L 1216 4192 
L 2982 4192 
L 2982 4691 
L 704 4691 
L 550 2502 
L 864 2304 
C 1133 2483 1331 2579 1645 2579 
C 2234 2579 2618 2182 2618 1510 
C 2618 826 2176 403 1619 403 
C 1075 403 730 653 467 922 
L 173 538 
C 493 224 941 -83 1677 -83 
z
" transform="scale(0.015625)"/>
       </defs>
       <use xlink:href="#NotoSansCJKsc-Regular-30"/>
       <use xlink:href="#NotoSansCJKsc-Regular-2e" transform="translate(55.499985 0)"/>
       <use xlink:href="#NotoSansCJKsc-Regular-38" transform="translate(83.299973 0)"/>
       <use xlink:href="#NotoSansCJKsc-Regular-32" transform="translate(138.799957 0)"/>
       <use xlink:href="#NotoSansCJKsc-Regular-35" transform="translate(194.299942 0)"/>
      </g>
     </g>
    </g>
    <g id="ytick_3">
     <g id="line2d_7">
      <path d="M 45.646 224.76 
L 396.891 224.76 
" clip-path="url(#pcc4f51f4b6)" style="fill: none; stroke: #e5e7eb; stroke-width: 0.8; stroke-linecap: square"/>
     </g>
     <g id="line2d_8">
      <g>
       <use xlink:href="#mcae33e2d50" x="45.646" y="224.76" style="fill: #475569; stroke: #475569; stroke-width: 0.8"/>
      </g>
     </g>
     <g id="text_5">
      <!-- 0.850 -->
      <g style="fill: #475569" transform="translate(11.168344 229.137656) scale(0.11 -0.11)">
       <use xlink:href="#NotoSansCJKsc-Regular-30"/>
       <use xlink:href="#NotoSansCJKsc-Regular-2e" transform="translate(55.499985 0)"/>
       <use xlink:href="#NotoSansCJKsc-Regular-38" transform="translate(83.299973 0)"/>
       <use xlink:href="#NotoSansCJKsc-Regular-35" transform="translate(138.799957 0)"/>
       <use xlink:href="#NotoSansCJKsc-Regular-30" transform="translate(194.299942 0)"/>
      </g>
     </g>
    </g>
    <g id="ytick_4">
     <g id="line2d_9">
      <path d="M 45.646 199.862 
L 396.891 199.862 
" clip-path="url(#pcc4f51f4b6)" style="fill: none; stroke: #e5e7eb; stroke-width: 0.8; stroke-linecap: square"/>
     </g>
     <g id="line2d_10">
      <g>
       <use xlink:href="#mcae33e2d50" x="45.646" y="199.862" style="fill: #475569; stroke: #475569; stroke-width: 0.8"/>
      </g>
     </g>
     <g id="text_6">
      <!-- 0.875 -->
      <g style="fill: #475569" transform="translate(11.168344 204.239656) scale(0.11 -0.11)">
       <defs>
        <path id="NotoSansCJKsc-Regular-37" d="M 1267 0 
L 1875 0 
C 1952 1837 2150 2931 3251 4339 
L 3251 4691 
L 314 4691 
L 314 4192 
L 2592 4192 
C 1670 2912 1350 1779 1267 0 
z
" transform="scale(0.015625)"/>
       </defs>
       <use xlink:href="#NotoSansCJKsc-Regular-30"/>
       <use xlink:href="#NotoSansCJKsc-Regular-2e" transform="translate(55.499985 0)"/>
       <use xlink:href="#NotoSansCJKsc-Regular-38" transform="translate(83.299973 0)"/>
       <use xlink:href="#NotoSansCJKsc-Regular-37" transform="translate(138.799957 0)"/>
       <use xlink:href="#NotoSansCJKsc-Regular-35" transform="translate(194.299942 0)"/>
      </g>
     </g>
    </g>
    <g id="ytick_5">
     <g id="line2d_11">
      <path d="M 45.646 174.964 
L 396.891 174.964 
" clip-path="url(#pcc4f51f4b6)" style="fill: none; stroke: #e5e7eb; stroke-width: 0.8; stroke-linecap: square"/>
     </g>
     <g id="line2d_12">
      <g>
       <use xlink:href="#mcae33e2d50" x="45.646" y="174.964" style="fill: #475569; stroke: #475569; stroke-width: 0.8"/>
      </g>
     </g>
     <g id="text_7">
      <!-- 0.900 -->
      <g style="fill: #475569" transform="translate(11.168344 179.341656) scale(0.11 -0.11)">
       <defs>
        <path id="NotoSansCJKsc-Regular-39" d="M 1504 -83 
C 2381 -83 3206 646 3206 2547 
C 3206 4038 2528 4774 1626 4774 
C 896 4774 282 4166 282 3251 
C 282 2285 794 1779 1574 1779 
C 1965 1779 2368 2003 2656 2349 
C 2611 896 2086 403 1485 403 
C 1178 403 896 538 691 762 
L 371 397 
C 634 122 992 -83 1504 -83 
z
M 2650 2842 
C 2336 2394 1984 2214 1670 2214 
C 1114 2214 832 2624 832 3251 
C 832 3898 1178 4320 1632 4320 
C 2227 4320 2586 3808 2650 2842 
z
" transform="scale(0.015625)"/>
       </defs>
       <use xlink:href="#NotoSansCJKsc-Regular-30"/>
       <use xlink:href="#NotoSansCJKsc-Regular-2e" transform="translate(55.499985 0)"/>
       <use xlink:href="#NotoSansCJKsc-Regular-39" transform="translate(83.299973 0)"/>
       <use xlink:href="#NotoSansCJKsc-Regular-30" transform="translate(138.799957 0)"/>
       <use xlink:href="#NotoSansCJKsc-Regular-30" transform="translate(194.299942 0)"/>
      </g>
     </g>
    </g>
    <g id="ytick_6">
     <g id="line2d_13">
      <path d="M 45.646 150.066 
L 396.891 150.066 
" clip-path="url(#pcc4f51f4b6)" style="fill: none; stroke: #e5e7eb; stroke-width: 0.8; stroke-linecap: square"/>
     </g>
     <g id="line2d_14">
      <g>
       <use xlink:href="#mcae33e2d50" x="45.646" y="150.066" style="fill: #475569; stroke: #475569; stroke-width: 0.8"/>
      </g>
     </g>
     <g id="text_8">
      <!-- 0.925 -->
      <g style="fill: #475569" transform="translate(11.168344 154.443656) scale(0.11 -0.11)">
       <use xlink:href="#NotoSansCJKsc-Regular-30"/>
       <use xlink:href="#NotoSansCJKsc-Regular-2e" transform="translate(55.499985 0)"/>
       <use xlink:href="#NotoSansCJKsc-Regular-39" transform="translate(83.299973 0)"/>
       <use xlink:href="#NotoSansCJKsc-Regular-32" transform="translate(138.799957 0)"/>
       <use xlink:href="#NotoSansCJKsc-Regular-35" transform="translate(194.299942 0)"/>
      </g>
     </g>
    </g>
    <g id="ytick_7">
     <g id="line2d_15">
      <path d="M 45.646 125.168 
L 396.891 125.168 
" clip-path="url(#pcc4f51f4b6)" style="fill: none; stroke: #e5e7eb; stroke-width: 0.8; stroke-linecap: square"/>
     </g>
     <g id="line2d_16">
      <g>
       <use xlink:href="#mcae33e2d50" x="45.646" y="125.168" style="fill: #475569; stroke: #475569; stroke-width: 0.8"/>
      </g>
     </g>
     <g id="text_9">
      <!-- 0.950 -->
      <g style="fill: #475569" transform="translate(11.168344 129.545656) scale(0.11 -0.11)">
       <use xlink:href="#NotoSansCJKsc-Regular-30"/>
       <use xlink:href="#NotoSansCJKsc-Regular-2e" transform="translate(55.499985 0)"/>
       <use xlink:href="#NotoSansCJKsc-Regular-39" transform="translate(83.299973 0)"/>
       <use xlink:href="#NotoSansCJKsc-Regular-35" transform="translate(138.799957 0)"/>
       <use xlink:href="#NotoSansCJKsc-Regular-30" transform="translate(194.299942 0)"/>
      </g>
     </g>
    </g>
    <g id="ytick_8">
     <g id="line2d_17">
      <path d="M 45.646 100.27 
L 396.891 100.27 
" clip-path="url(#pcc4f51f4b6)" style="fill: none; stroke: #e5e7eb; stroke-width: 0.8; stroke-linecap: square"/>
     </g>
     <g id="line2d_18">
      <g>
       <use xlink:href="#mcae33e2d50" x="45.646" y="100.27" style="fill: #475569; stroke: #475569; stroke-width: 0.8"/>
      </g>
     </g>
     <g id="text_10">
      <!-- 0.975 -->
      <g style="fill: #475569" transform="translate(11.168344 104.647656) scale(0.11 -0.11)">
       <use xlink:href="#NotoSansCJKsc-Regular-30"/>
       <use xlink:href="#NotoSansCJKsc-Regular-2e" transform="translate(55.499985 0)"/>
       <use xlink:href="#NotoSansCJKsc-Regular-39" transform="translate(83.299973 0)"/>
       <use xlink:href="#NotoSansCJKsc-Regular-37" transform="translate(138.799957 0)"/>
       <use xlink:href="#NotoSansCJKsc-Regular-35" transform="translate(194.299942 0)"/>
      </g>
     </g>
    </g>
    <g id="ytick_9">
     <g id="line2d_19">
      <path d="M 45.646 75.372 
L 396.891 75.372 
" clip-path="url(#pcc4f51f4b6)" style="fill: none; stroke: #e5e7eb; stroke-width: 0.8; stroke-linecap: square"/>
     </g>
     <g id="line2d_20">
      <g>
       <use xlink:href="#mcae33e2d50" x="45.646" y="75.372" style="fill: #475569; stroke: #475569; stroke-width: 0.8"/>
      </g>
     </g>
     <g id="text_11">
      <!-- 1.000 -->
      <g style="fill: #475569" transform="translate(11.168344 79.749656) scale(0.11 -0.11)">
       <use xlink:href="#NotoSansCJKsc-Regular-31"/>
       <use xlink:href="#NotoSansCJKsc-Regular-2e" transform="translate(55.499985 0)"/>
       <use xlink:href="#NotoSansCJKsc-Regular-30" transform="translate(83.299973 0)"/>
       <use xlink:href="#NotoSansCJKsc-Regular-30" transform="translate(138.799957 0)"/>
       <use xlink:href="#NotoSansCJKsc-Regular-30" transform="translate(194.299942 0)"/>
      </g>
     </g>
    </g>
   </g>
   <g id="patch_3">
    <path d="M 45.646 274.556 
L 45.646 75.372 
" style="fill: none; stroke: #94a3b8; stroke-width: 0.8; stroke-linejoin: miter; stroke-linecap: square"/>
   </g>
   <g id="patch_4">
    <path d="M 45.646 274.556 
L 396.891 274.556 
" style="fill: none; stroke: #94a3b8; stroke-width: 0.8; stroke-linejoin: miter; stroke-linecap: square"/>
   </g>
   <g id="patch_5">
    <path d="M 61.611682 1071.292 
L 174.916521 1071.292 
L 174.916521 196.87424 
L 61.611682 196.87424 
z
" clip-path="url(#pcc4f51f4b6)" style="fill: #94a3b8"/>
   </g>
   <g id="patch_6">
    <path d="M 267.620479 1071.292 
L 380.925318 1071.292 
L 380.925318 152.05784 
L 267.620479 152.05784 
z
" clip-path="url(#pcc4f51f4b6)" style="fill: #2563eb"/>
   </g>
   <g id="text_12">
    <!-- 0.878 -->
    <g style="fill: #0f172a" transform="translate(105.778851 194.87474) scale(0.093 -0.093)">
     <defs>
      <path id="NotoSansCJKsc-Bold-30" d="M 1888 -90 
C 2854 -90 3494 755 3494 2394 
C 3494 4019 2854 4826 1888 4826 
C 922 4826 282 4026 282 2394 
C 282 755 922 -90 1888 -90 
z
M 1888 646 
C 1478 646 1171 1056 1171 2394 
C 1171 3712 1478 4102 1888 4102 
C 2298 4102 2598 3712 2598 2394 
C 2598 1056 2298 646 1888 646 
z
" transform="scale(0.015625)"/>
      <path id="NotoSansCJKsc-Bold-2e" d="M 1043 -90 
C 1376 -90 1626 179 1626 525 
C 1626 877 1376 1139 1043 1139 
C 704 1139 454 877 454 525 
C 454 179 704 -90 1043 -90 
z
" transform="scale(0.015625)"/>
      <path id="NotoSansCJKsc-Bold-38" d="M 1888 -90 
C 2842 -90 3482 461 3482 1178 
C 3482 1824 3123 2208 2682 2445 
L 2682 2477 
C 2989 2701 3290 3091 3290 3558 
C 3290 4314 2752 4819 1914 4819 
C 1088 4819 486 4333 486 3565 
C 486 3066 749 2707 1114 2445 
L 1114 2413 
C 672 2182 301 1786 301 1178 
C 301 435 973 -90 1888 -90 
z
M 2182 2707 
C 1690 2906 1318 3123 1318 3565 
C 1318 3949 1574 4160 1894 4160 
C 2291 4160 2522 3885 2522 3501 
C 2522 3219 2413 2944 2182 2707 
z
M 1907 576 
C 1466 576 1114 851 1114 1280 
C 1114 1638 1293 1952 1549 2163 
C 2163 1901 2605 1702 2605 1210 
C 2605 800 2310 576 1907 576 
z
" transform="scale(0.015625)"/>
      <path id="NotoSansCJKsc-Bold-37" d="M 1190 0 
L 2138 0 
C 2221 1850 2368 2822 3469 4166 
L 3469 4742 
L 320 4742 
L 320 3949 
L 2451 3949 
C 1549 2694 1274 1645 1190 0 
z
" transform="scale(0.015625)"/>
     </defs>
     <use xlink:href="#NotoSansCJKsc-Bold-30"/>
     <use xlink:href="#NotoSansCJKsc-Bold-2e" transform="translate(58.999985 0)"/>
     <use xlink:href="#NotoSansCJKsc-Bold-38" transform="translate(91.499969 0)"/>
     <use xlink:href="#NotoSansCJKsc-Bold-37" transform="translate(150.499954 0)"/>
     <use xlink:href="#NotoSansCJKsc-Bold-38" transform="translate(209.499939 0)"/>
    </g>
   </g>
   <g id="text_13">
    <!-- 0.923 -->
    <g style="fill: #0f172a" transform="translate(311.787649 150.05834) scale(0.093 -0.093)">
     <defs>
      <path id="NotoSansCJKsc-Bold-39" d="M 1632 -90 
C 2573 -90 3450 685 3450 2477 
C 3450 4122 2650 4826 1747 4826 
C 934 4826 256 4218 256 3245 
C 256 2240 819 1754 1613 1754 
C 1933 1754 2336 1946 2586 2266 
C 2541 1082 2106 678 1581 678 
C 1299 678 1005 826 832 1018 
L 333 448 
C 614 160 1043 -90 1632 -90 
z
M 2573 2938 
C 2342 2566 2048 2426 1792 2426 
C 1382 2426 1120 2688 1120 3245 
C 1120 3827 1408 4115 1760 4115 
C 2163 4115 2490 3795 2573 2938 
z
" transform="scale(0.015625)"/>
      <path id="NotoSansCJKsc-Bold-32" d="M 275 0 
L 3450 0 
L 3450 794 
L 2426 794 
C 2202 794 1888 768 1645 736 
C 2509 1587 3226 2509 3226 3366 
C 3226 4250 2630 4826 1734 4826 
C 1088 4826 666 4576 224 4102 
L 749 3597 
C 986 3859 1267 4083 1613 4083 
C 2067 4083 2323 3789 2323 3322 
C 2323 2586 1568 1696 275 544 
L 275 0 
z
" transform="scale(0.015625)"/>
      <path id="NotoSansCJKsc-Bold-33" d="M 1747 -90 
C 2656 -90 3418 410 3418 1280 
C 3418 1907 3008 2304 2477 2451 
L 2477 2483 
C 2976 2682 3264 3053 3264 3565 
C 3264 4378 2643 4826 1728 4826 
C 1171 4826 717 4602 307 4250 
L 794 3667 
C 1069 3930 1344 4083 1683 4083 
C 2086 4083 2317 3866 2317 3494 
C 2317 3066 2035 2771 1171 2771 
L 1171 2093 
C 2195 2093 2470 1805 2470 1338 
C 2470 915 2144 678 1664 678 
C 1229 678 890 890 608 1165 
L 166 570 
C 499 192 1005 -90 1747 -90 
z
" transform="scale(0.015625)"/>
     </defs>
     <use xlink:href="#NotoSansCJKsc-Bold-30"/>
     <use xlink:href="#NotoSansCJKsc-Bold-2e" transform="translate(58.999985 0)"/>
     <use xlink:href="#NotoSansCJKsc-Bold-39" transform="translate(91.499969 0)"/>
     <use xlink:href="#NotoSansCJKsc-Bold-32" transform="translate(150.499954 0)"/>
     <use xlink:href="#NotoSansCJKsc-Bold-33" transform="translate(209.499939 0)"/>
    </g>
   </g>
   <g id="text_14">
    <!-- Offline relevance -->
    <g style="fill: #475569" transform="translate(177.943109 69.372) scale(0.11 -0.11)">
     <defs>
      <path id="NotoSansCJKsc-Regular-4f" d="M 2374 -83 
C 3552 -83 4378 858 4378 2362 
C 4378 3866 3552 4774 2374 4774 
C 1197 4774 371 3866 371 2362 
C 371 858 1197 -83 2374 -83 
z
M 2374 435 
C 1530 435 979 1190 979 2362 
C 979 3533 1530 4256 2374 4256 
C 3219 4256 3770 3533 3770 2362 
C 3770 1190 3219 435 2374 435 
z
" transform="scale(0.015625)"/>
      <path id="NotoSansCJKsc-Regular-66" d="M 211 3002 
L 685 3002 
L 685 0 
L 1267 0 
L 1267 3002 
L 2003 3002 
L 2003 3475 
L 1267 3475 
L 1267 4026 
C 1267 4474 1427 4710 1760 4710 
C 1882 4710 2022 4678 2150 4614 
L 2278 5069 
C 2118 5133 1914 5178 1696 5178 
C 1005 5178 685 4736 685 4032 
L 685 3475 
L 211 3443 
L 211 3002 
z
" transform="scale(0.015625)"/>
      <path id="NotoSansCJKsc-Regular-6c" d="M 1203 -83 
C 1363 -83 1459 -58 1542 -32 
L 1459 416 
C 1395 403 1370 403 1338 403 
C 1248 403 1178 474 1178 653 
L 1178 5094 
L 589 5094 
L 589 691 
C 589 198 768 -83 1203 -83 
z
" transform="scale(0.015625)"/>
      <path id="NotoSansCJKsc-Regular-69" d="M 589 0 
L 1178 0 
L 1178 3475 
L 589 3475 
L 589 0 
z
M 883 4192 
C 1114 4192 1274 4346 1274 4582 
C 1274 4806 1114 4960 883 4960 
C 653 4960 499 4806 499 4582 
C 499 4346 653 4192 883 4192 
z
" transform="scale(0.015625)"/>
      <path id="NotoSansCJKsc-Regular-6e" d="M 589 0 
L 1178 0 
L 1178 2522 
C 1523 2874 1766 3053 2125 3053 
C 2586 3053 2784 2778 2784 2125 
L 2784 0 
L 3366 0 
L 3366 2202 
C 3366 3085 3034 3565 2304 3565 
C 1830 3565 1466 3302 1139 2970 
L 1126 2970 
L 1069 3475 
L 589 3475 
L 589 0 
z
" transform="scale(0.015625)"/>
      <path id="NotoSansCJKsc-Regular-20" transform="scale(0.015625)"/>
      <path id="NotoSansCJKsc-Regular-76" d="M 1338 0 
L 2022 0 
L 3251 3475 
L 2675 3475 
L 2016 1498 
C 1914 1158 1798 806 1696 474 
L 1664 474 
C 1562 806 1453 1158 1344 1498 
L 691 3475 
L 83 3475 
L 1338 0 
z
" transform="scale(0.015625)"/>
      <path id="NotoSansCJKsc-Regular-63" d="M 1958 -83 
C 2374 -83 2771 83 3085 352 
L 2829 749 
C 2611 557 2330 403 2010 403 
C 1370 403 934 934 934 1734 
C 934 2534 1395 3072 2029 3072 
C 2298 3072 2522 2950 2720 2771 
L 3014 3155 
C 2771 3373 2458 3565 2003 3565 
C 1107 3565 333 2893 333 1734 
C 333 582 1037 -83 1958 -83 
z
" transform="scale(0.015625)"/>
     </defs>
     <use xlink:href="#NotoSansCJKsc-Regular-4f"/>
     <use xlink:href="#NotoSansCJKsc-Regular-66" transform="translate(74.199982 0)"/>
     <use xlink:href="#NotoSansCJKsc-Regular-66" transform="translate(106.699966 0)"/>
     <use xlink:href="#NotoSansCJKsc-Regular-6c" transform="translate(139.199951 0)"/>
     <use xlink:href="#NotoSansCJKsc-Regular-69" transform="translate(167.599945 0)"/>
     <use xlink:href="#NotoSansCJKsc-Regular-6e" transform="translate(195.09993 0)"/>
     <use xlink:href="#NotoSansCJKsc-Regular-65" transform="translate(256.099915 0)"/>
     <use xlink:href="#NotoSansCJKsc-Regular-20" transform="translate(311.499908 0)"/>
     <use xlink:href="#NotoSansCJKsc-Regular-72" transform="translate(333.899902 0)"/>
     <use xlink:href="#NotoSansCJKsc-Regular-65" transform="translate(372.69989 0)"/>
     <use xlink:href="#NotoSansCJKsc-Regular-6c" transform="translate(428.099884 0)"/>
     <use xlink:href="#NotoSansCJKsc-Regular-65" transform="translate(456.499878 0)"/>
     <use xlink:href="#NotoSansCJKsc-Regular-76" transform="translate(511.899872 0)"/>
     <use xlink:href="#NotoSansCJKsc-Regular-61" transform="translate(563.999863 0)"/>
     <use xlink:href="#NotoSansCJKsc-Regular-6e" transform="translate(620.29985 0)"/>
     <use xlink:href="#NotoSansCJKsc-Regular-63" transform="translate(681.299835 0)"/>
     <use xlink:href="#NotoSansCJKsc-Regular-65" transform="translate(732.29982 0)"/>
    </g>
   </g>
  </g>
  <g id="axes_2">
   <g id="patch_7">
    <path d="M 428.011 274.556 
L 779.256 274.556 
L 779.256 75.372 
L 428.011 75.372 
z
" style="fill: #ffffff"/>
   </g>
   <g id="matplotlib.axis_3">
    <g id="xtick_3">
     <g id="line2d_21">
      <g>
       <use xlink:href="#m2391f9f777" x="500.629101" y="274.556" style="fill: #475569; stroke: #475569; stroke-width: 0.8"/>
      </g>
     </g>
     <g id="text_15">
      <!-- Embarrassing -->
      <g style="fill: #475569" transform="translate(465.319961 290.311312) scale(0.11 -0.11)">
       <defs>
        <path id="NotoSansCJKsc-Regular-45" d="M 646 0 
L 3418 0 
L 3418 506 
L 1235 506 
L 1235 2214 
L 3014 2214 
L 3014 2720 
L 1235 2720 
L 1235 4192 
L 3347 4192 
L 3347 4691 
L 646 4691 
L 646 0 
z
" transform="scale(0.015625)"/>
        <path id="NotoSansCJKsc-Regular-6d" d="M 589 0 
L 1178 0 
L 1178 2522 
C 1491 2880 1786 3053 2048 3053 
C 2490 3053 2694 2778 2694 2125 
L 2694 0 
L 3277 0 
L 3277 2522 
C 3603 2880 3885 3053 4154 3053 
C 4595 3053 4800 2778 4800 2125 
L 4800 0 
L 5382 0 
L 5382 2202 
C 5382 3085 5043 3565 4333 3565 
C 3904 3565 3546 3290 3181 2899 
C 3040 3309 2758 3565 2221 3565 
C 1805 3565 1446 3302 1139 2970 
L 1126 2970 
L 1069 3475 
L 589 3475 
L 589 0 
z
" transform="scale(0.015625)"/>
        <path id="NotoSansCJKsc-Regular-67" d="M 1760 -1600 
C 2835 -1600 3520 -1043 3520 -397 
C 3520 179 3110 429 2310 429 
L 1626 429 
C 1158 429 1018 589 1018 806 
C 1018 998 1114 1114 1242 1222 
C 1395 1146 1587 1101 1754 1101 
C 2470 1101 3027 1568 3027 2310 
C 3027 2611 2912 2867 2746 3027 
L 3456 3027 
L 3456 3475 
L 2246 3475 
C 2125 3526 1952 3565 1754 3565 
C 1056 3565 454 3085 454 2323 
C 454 1907 678 1568 909 1389 
L 909 1363 
C 723 1235 525 1005 525 717 
C 525 442 659 256 838 147 
L 838 115 
C 512 -83 326 -371 326 -672 
C 326 -1267 915 -1600 1760 -1600 
z
M 1754 1498 
C 1357 1498 1018 1818 1018 2323 
C 1018 2835 1350 3136 1754 3136 
C 2170 3136 2496 2835 2496 2323 
C 2496 1818 2157 1498 1754 1498 
z
M 1843 -1197 
C 1210 -1197 838 -960 838 -589 
C 838 -390 941 -179 1190 0 
C 1344 -38 1510 -51 1638 -51 
L 2240 -51 
C 2701 -51 2944 -166 2944 -493 
C 2944 -851 2515 -1197 1843 -1197 
z
" transform="scale(0.015625)"/>
       </defs>
       <use xlink:href="#NotoSansCJKsc-Regular-45"/>
       <use xlink:href="#NotoSansCJKsc-Regular-6d" transform="translate(58.899994 0)"/>
       <use xlink:href="#NotoSansCJKsc-Regular-62" transform="translate(151.499985 0)"/>
       <use xlink:href="#NotoSansCJKsc-Regular-61" transform="translate(213.299973 0)"/>
       <use xlink:href="#NotoSansCJKsc-Regular-72" transform="translate(269.59996 0)"/>
       <use xlink:href="#NotoSansCJKsc-Regular-72" transform="translate(308.399948 0)"/>
       <use xlink:href="#NotoSansCJKsc-Regular-61" transform="translate(347.199936 0)"/>
       <use xlink:href="#NotoSansCJKsc-Regular-73" transform="translate(403.499924 0)"/>
       <use xlink:href="#NotoSansCJKsc-Regular-73" transform="translate(450.299911 0)"/>
       <use xlink:href="#NotoSansCJKsc-Regular-69" transform="translate(497.099899 0)"/>
       <use xlink:href="#NotoSansCJKsc-Regular-6e" transform="translate(524.599884 0)"/>
       <use xlink:href="#NotoSansCJKsc-Regular-67" transform="translate(585.599869 0)"/>
      </g>
      <!-- retrievals -->
      <g style="fill: #475569" transform="translate(476.582929 303.567687) scale(0.11 -0.11)">
       <defs>
        <path id="NotoSansCJKsc-Regular-74" d="M 1677 -83 
C 1894 -83 2125 -19 2323 45 
L 2208 486 
C 2093 435 1939 390 1811 390 
C 1408 390 1274 634 1274 1056 
L 1274 3002 
L 2221 3002 
L 2221 3475 
L 1274 3475 
L 1274 4454 
L 787 4454 
L 723 3475 
L 173 3443 
L 173 3002 
L 691 3002 
L 691 1075 
C 691 378 941 -83 1677 -83 
z
" transform="scale(0.015625)"/>
       </defs>
       <use xlink:href="#NotoSansCJKsc-Regular-72"/>
       <use xlink:href="#NotoSansCJKsc-Regular-65" transform="translate(38.799988 0)"/>
       <use xlink:href="#NotoSansCJKsc-Regular-74" transform="translate(94.199982 0)"/>
       <use xlink:href="#NotoSansCJKsc-Regular-72" transform="translate(131.899979 0)"/>
       <use xlink:href="#NotoSansCJKsc-Regular-69" transform="translate(170.699966 0)"/>
       <use xlink:href="#NotoSansCJKsc-Regular-65" transform="translate(198.199951 0)"/>
       <use xlink:href="#NotoSansCJKsc-Regular-76" transform="translate(253.599945 0)"/>
       <use xlink:href="#NotoSansCJKsc-Regular-61" transform="translate(305.699936 0)"/>
       <use xlink:href="#NotoSansCJKsc-Regular-6c" transform="translate(361.999924 0)"/>
       <use xlink:href="#NotoSansCJKsc-Regular-73" transform="translate(390.399918 0)"/>
      </g>
     </g>
    </g>
    <g id="xtick_4">
     <g id="line2d_22">
      <g>
       <use xlink:href="#m2391f9f777" x="706.637899" y="274.556" style="fill: #475569; stroke: #475569; stroke-width: 0.8"/>
      </g>
     </g>
     <g id="text_16">
      <!-- After -->
      <g style="fill: #475569" transform="translate(694.251727 290.311312) scale(0.11 -0.11)">
       <defs>
        <path id="NotoSansCJKsc-Regular-41" d="M 26 0 
L 621 0 
L 1075 1434 
L 2790 1434 
L 3238 0 
L 3866 0 
L 2272 4691 
L 1613 4691 
L 26 0 
z
M 1222 1901 
L 1453 2624 
C 1619 3155 1773 3661 1920 4211 
L 1946 4211 
C 2099 3667 2246 3155 2419 2624 
L 2643 1901 
L 1222 1901 
z
" transform="scale(0.015625)"/>
       </defs>
       <use xlink:href="#NotoSansCJKsc-Regular-41"/>
       <use xlink:href="#NotoSansCJKsc-Regular-66" transform="translate(60.799988 0)"/>
       <use xlink:href="#NotoSansCJKsc-Regular-74" transform="translate(93.299973 0)"/>
       <use xlink:href="#NotoSansCJKsc-Regular-65" transform="translate(130.999969 0)"/>
       <use xlink:href="#NotoSansCJKsc-Regular-72" transform="translate(186.399963 0)"/>
      </g>
     </g>
    </g>
   </g>
   <g id="matplotlib.axis_4">
    <g id="ytick_10">
     <g id="line2d_23">
      <path d="M 428.011 274.556 
L 779.256 274.556 
" clip-path="url(#p4c742fe059)" style="fill: none; stroke: #e5e7eb; stroke-width: 0.8; stroke-linecap: square"/>
     </g>
     <g id="line2d_24">
      <g>
       <use xlink:href="#mcae33e2d50" x="428.011" y="274.556" style="fill: #475569; stroke: #475569; stroke-width: 0.8"/>
      </g>
     </g>
     <g id="text_17">
      <!-- 0 -->
      <g style="fill: #475569" transform="translate(414.906 278.933656) scale(0.11 -0.11)">
       <use xlink:href="#NotoSansCJKsc-Regular-30"/>
      </g>
     </g>
    </g>
    <g id="ytick_11">
     <g id="line2d_25">
      <path d="M 428.011 234.7192 
L 779.256 234.7192 
" clip-path="url(#p4c742fe059)" style="fill: none; stroke: #e5e7eb; stroke-width: 0.8; stroke-linecap: square"/>
     </g>
     <g id="line2d_26">
      <g>
       <use xlink:href="#mcae33e2d50" x="428.011" y="234.7192" style="fill: #475569; stroke: #475569; stroke-width: 0.8"/>
      </g>
     </g>
     <g id="text_18">
      <!-- 2 -->
      <g style="fill: #475569" transform="translate(414.906 239.096856) scale(0.11 -0.11)">
       <use xlink:href="#NotoSansCJKsc-Regular-32"/>
      </g>
     </g>
    </g>
    <g id="ytick_12">
     <g id="line2d_27">
      <path d="M 428.011 194.8824 
L 779.256 194.8824 
" clip-path="url(#p4c742fe059)" style="fill: none; stroke: #e5e7eb; stroke-width: 0.8; stroke-linecap: square"/>
     </g>
     <g id="line2d_28">
      <g>
       <use xlink:href="#mcae33e2d50" x="428.011" y="194.8824" style="fill: #475569; stroke: #475569; stroke-width: 0.8"/>
      </g>
     </g>
     <g id="text_19">
      <!-- 4 -->
      <g style="fill: #475569" transform="translate(414.906 199.260056) scale(0.11 -0.11)">
       <defs>
        <path id="NotoSansCJKsc-Regular-34" d="M 2176 0 
L 2726 0 
L 2726 1293 
L 3354 1293 
L 3354 1760 
L 2726 1760 
L 2726 4691 
L 2080 4691 
L 128 1677 
L 128 1293 
L 2176 1293 
L 2176 0 
z
M 2176 1760 
L 736 1760 
L 1805 3360 
C 1939 3590 2067 3827 2182 4051 
L 2208 4051 
C 2195 3814 2176 3430 2176 3200 
L 2176 1760 
z
" transform="scale(0.015625)"/>
       </defs>
       <use xlink:href="#NotoSansCJKsc-Regular-34"/>
      </g>
     </g>
    </g>
    <g id="ytick_13">
     <g id="line2d_29">
      <path d="M 428.011 155.0456 
L 779.256 155.0456 
" clip-path="url(#p4c742fe059)" style="fill: none; stroke: #e5e7eb; stroke-width: 0.8; stroke-linecap: square"/>
     </g>
     <g id="line2d_30">
      <g>
       <use xlink:href="#mcae33e2d50" x="428.011" y="155.0456" style="fill: #475569; stroke: #475569; stroke-width: 0.8"/>
      </g>
     </g>
     <g id="text_20">
      <!-- 6 -->
      <g style="fill: #475569" transform="translate(414.906 159.423256) scale(0.11 -0.11)">
       <defs>
        <path id="NotoSansCJKsc-Regular-36" d="M 1926 -83 
C 2656 -83 3277 531 3277 1440 
C 3277 2426 2765 2912 1971 2912 
C 1606 2912 1197 2701 909 2349 
C 934 3802 1466 4294 2118 4294 
C 2400 4294 2682 4154 2861 3936 
L 3194 4294 
C 2931 4576 2579 4774 2093 4774 
C 1184 4774 358 4077 358 2240 
C 358 691 1030 -83 1926 -83 
z
M 922 1882 
C 1229 2317 1587 2477 1875 2477 
C 2445 2477 2720 2074 2720 1440 
C 2720 800 2374 378 1926 378 
C 1338 378 986 909 922 1882 
z
" transform="scale(0.015625)"/>
       </defs>
       <use xlink:href="#NotoSansCJKsc-Regular-36"/>
      </g>
     </g>
    </g>
    <g id="ytick_14">
     <g id="line2d_31">
      <path d="M 428.011 115.2088 
L 779.256 115.2088 
" clip-path="url(#p4c742fe059)" style="fill: none; stroke: #e5e7eb; stroke-width: 0.8; stroke-linecap: square"/>
     </g>
     <g id="line2d_32">
      <g>
       <use xlink:href="#mcae33e2d50" x="428.011" y="115.2088" style="fill: #475569; stroke: #475569; stroke-width: 0.8"/>
      </g>
     </g>
     <g id="text_21">
      <!-- 8 -->
      <g style="fill: #475569" transform="translate(414.906 119.586456) scale(0.11 -0.11)">
       <use xlink:href="#NotoSansCJKsc-Regular-38"/>
      </g>
     </g>
    </g>
    <g id="ytick_15">
     <g id="line2d_33">
      <path d="M 428.011 75.372 
L 779.256 75.372 
" clip-path="url(#p4c742fe059)" style="fill: none; stroke: #e5e7eb; stroke-width: 0.8; stroke-linecap: square"/>
     </g>
     <g id="line2d_34">
      <g>
       <use xlink:href="#mcae33e2d50" x="428.011" y="75.372" style="fill: #475569; stroke: #475569; stroke-width: 0.8"/>
      </g>
     </g>
     <g id="text_22">
      <!-- 10 -->
      <g style="fill: #475569" transform="translate(408.801 79.749656) scale(0.11 -0.11)">
       <use xlink:href="#NotoSansCJKsc-Regular-31"/>
       <use xlink:href="#NotoSansCJKsc-Regular-30" transform="translate(55.499985 0)"/>
      </g>
     </g>
    </g>
   </g>
   <g id="patch_8">
    <path d="M 428.011 274.556 
L 428.011 75.372 
" style="fill: none; stroke: #94a3b8; stroke-width: 0.8; stroke-linejoin: miter; stroke-linecap: square"/>
   </g>
   <g id="patch_9">
    <path d="M 428.011 274.556 
L 779.256 274.556 
" style="fill: none; stroke: #94a3b8; stroke-width: 0.8; stroke-linejoin: miter; stroke-linecap: square"/>
   </g>
   <g id="patch_10">
    <path d="M 443.976682 274.556 
L 557.281521 274.556 
L 557.281521 101.26592 
L 443.976682 101.26592 
z
" clip-path="url(#p4c742fe059)" style="fill: #94a3b8"/>
   </g>
   <g id="patch_11">
    <path d="M 649.985479 274.556 
L 763.290318 274.556 
L 763.290318 204.8416 
L 649.985479 204.8416 
z
" clip-path="url(#p4c742fe059)" style="fill: #d97706"/>
   </g>
   <g id="text_23">
    <!-- 8.7% -->
    <g style="fill: #0f172a" transform="translate(489.153046 99.26642) scale(0.093 -0.093)">
     <defs>
      <path id="NotoSansCJKsc-Bold-25" d="M 1357 1824 
C 2035 1824 2515 2381 2515 3334 
C 2515 4282 2035 4826 1357 4826 
C 678 4826 205 4282 205 3334 
C 205 2381 678 1824 1357 1824 
z
M 1357 2355 
C 1082 2355 864 2637 864 3334 
C 864 4026 1082 4294 1357 4294 
C 1632 4294 1850 4026 1850 3334 
C 1850 2637 1632 2355 1357 2355 
z
M 1510 -90 
L 2074 -90 
L 4646 4826 
L 4090 4826 
L 1510 -90 
z
M 4806 -90 
C 5478 -90 5958 467 5958 1421 
C 5958 2368 5478 2918 4806 2918 
C 4128 2918 3648 2368 3648 1421 
C 3648 467 4128 -90 4806 -90 
z
M 4806 448 
C 4525 448 4314 730 4314 1421 
C 4314 2125 4525 2381 4806 2381 
C 5082 2381 5293 2125 5293 1421 
C 5293 730 5082 448 4806 448 
z
" transform="scale(0.015625)"/>
     </defs>
     <use xlink:href="#NotoSansCJKsc-Bold-38"/>
     <use xlink:href="#NotoSansCJKsc-Bold-2e" transform="translate(58.999985 0)"/>
     <use xlink:href="#NotoSansCJKsc-Bold-37" transform="translate(91.499969 0)"/>
     <use xlink:href="#NotoSansCJKsc-Bold-25" transform="translate(150.499954 0)"/>
    </g>
   </g>
   <g id="text_24">
    <!-- 3.5% -->
    <g style="fill: #0f172a" transform="translate(695.161844 202.8421) scale(0.093 -0.093)">
     <defs>
      <path id="NotoSansCJKsc-Bold-35" d="M 1773 -90 
C 2637 -90 3424 518 3424 1574 
C 3424 2605 2765 3072 1965 3072 
C 1747 3072 1581 3034 1395 2944 
L 1485 3949 
L 3206 3949 
L 3206 4742 
L 672 4742 
L 544 2438 
L 973 2163 
C 1254 2342 1408 2406 1683 2406 
C 2157 2406 2483 2099 2483 1549 
C 2483 992 2138 678 1645 678 
C 1210 678 870 896 602 1158 
L 166 557 
C 525 205 1018 -90 1773 -90 
z
" transform="scale(0.015625)"/>
     </defs>
     <use xlink:href="#NotoSansCJKsc-Bold-33"/>
     <use xlink:href="#NotoSansCJKsc-Bold-2e" transform="translate(58.999985 0)"/>
     <use xlink:href="#NotoSansCJKsc-Bold-35" transform="translate(91.499969 0)"/>
     <use xlink:href="#NotoSansCJKsc-Bold-25" transform="translate(150.499954 0)"/>
    </g>
   </g>
   <g id="text_25">
    <!-- Bad-case reduction -->
    <g style="fill: #475569" transform="translate(553.841312 69.372) scale(0.11 -0.11)">
     <defs>
      <path id="NotoSansCJKsc-Regular-42" d="M 646 0 
L 2138 0 
C 3187 0 3917 454 3917 1376 
C 3917 2016 3520 2387 2963 2496 
L 2963 2528 
C 3405 2669 3648 3078 3648 3546 
C 3648 4371 2982 4691 2035 4691 
L 646 4691 
L 646 0 
z
M 1235 2701 
L 1235 4224 
L 1958 4224 
C 2694 4224 3066 4019 3066 3469 
C 3066 2989 2739 2701 1933 2701 
L 1235 2701 
z
M 1235 474 
L 1235 2240 
L 2054 2240 
C 2880 2240 3334 1978 3334 1395 
C 3334 762 2861 474 2054 474 
L 1235 474 
z
" transform="scale(0.015625)"/>
      <path id="NotoSansCJKsc-Regular-64" d="M 1773 -83 
C 2189 -83 2560 141 2829 410 
L 2848 410 
L 2899 0 
L 3379 0 
L 3379 5094 
L 2790 5094 
L 2790 3757 
L 2822 3162 
C 2515 3411 2253 3565 1843 3565 
C 1050 3565 339 2861 339 1734 
C 339 576 902 -83 1773 -83 
z
M 1901 410 
C 1293 410 941 902 941 1741 
C 941 2534 1389 3072 1946 3072 
C 2234 3072 2502 2970 2790 2707 
L 2790 883 
C 2502 563 2221 410 1901 410 
z
" transform="scale(0.015625)"/>
      <path id="NotoSansCJKsc-Regular-2d" d="M 294 1568 
L 1933 1568 
L 1933 2016 
L 294 2016 
L 294 1568 
z
" transform="scale(0.015625)"/>
     </defs>
     <use xlink:href="#NotoSansCJKsc-Regular-42"/>
     <use xlink:href="#NotoSansCJKsc-Regular-61" transform="translate(65.699997 0)"/>
     <use xlink:href="#NotoSansCJKsc-Regular-64" transform="translate(121.999985 0)"/>
     <use xlink:href="#NotoSansCJKsc-Regular-2d" transform="translate(183.999969 0)"/>
     <use xlink:href="#NotoSansCJKsc-Regular-63" transform="translate(218.699966 0)"/>
     <use xlink:href="#NotoSansCJKsc-Regular-61" transform="translate(269.699951 0)"/>
     <use xlink:href="#NotoSansCJKsc-Regular-73" transform="translate(325.999939 0)"/>
     <use xlink:href="#NotoSansCJKsc-Regular-65" transform="translate(372.799927 0)"/>
     <use xlink:href="#NotoSansCJKsc-Regular-20" transform="translate(428.199921 0)"/>
     <use xlink:href="#NotoSansCJKsc-Regular-72" transform="translate(450.599915 0)"/>
     <use xlink:href="#NotoSansCJKsc-Regular-65" transform="translate(489.399902 0)"/>
     <use xlink:href="#NotoSansCJKsc-Regular-64" transform="translate(544.799896 0)"/>
     <use xlink:href="#NotoSansCJKsc-Regular-75" transform="translate(606.799881 0)"/>
     <use xlink:href="#NotoSansCJKsc-Regular-63" transform="translate(667.499878 0)"/>
     <use xlink:href="#NotoSansCJKsc-Regular-74" transform="translate(718.499863 0)"/>
     <use xlink:href="#NotoSansCJKsc-Regular-69" transform="translate(756.19986 0)"/>
     <use xlink:href="#NotoSansCJKsc-Regular-6f" transform="translate(783.699844 0)"/>
     <use xlink:href="#NotoSansCJKsc-Regular-6e" transform="translate(844.299835 0)"/>
    </g>
   </g>
  </g>
  <g id="text_26">
   <!-- Scaling Dense Retrieval — highlights -->
   <g style="fill: #0f172a" transform="translate(8.64 19.587656) scale(0.135 -0.135)">
    <defs>
     <path id="NotoSansCJKsc-Bold-53" d="M 1997 -90 
C 3091 -90 3738 570 3738 1344 
C 3738 2029 3360 2400 2784 2637 
L 2163 2886 
C 1760 3053 1427 3174 1427 3514 
C 1427 3827 1683 4013 2099 4013 
C 2496 4013 2810 3866 3110 3622 
L 3590 4211 
C 3206 4602 2656 4826 2099 4826 
C 1146 4826 461 4224 461 3456 
C 461 2765 947 2381 1427 2189 
L 2054 1914 
C 2477 1734 2771 1626 2771 1274 
C 2771 941 2509 730 2016 730 
C 1600 730 1146 941 813 1254 
L 269 602 
C 730 154 1363 -90 1997 -90 
z
" transform="scale(0.015625)"/>
     <path id="NotoSansCJKsc-Bold-63" d="M 2029 -90 
C 2426 -90 2861 45 3200 346 
L 2829 966 
C 2630 800 2394 678 2131 678 
C 1613 678 1242 1114 1242 1792 
C 1242 2464 1613 2906 2163 2906 
C 2362 2906 2528 2822 2707 2675 
L 3155 3270 
C 2893 3507 2554 3674 2112 3674 
C 1139 3674 282 2982 282 1792 
C 282 602 1043 -90 2029 -90 
z
" transform="scale(0.015625)"/>
     <path id="NotoSansCJKsc-Bold-61" d="M 1382 -90 
C 1798 -90 2157 109 2464 384 
L 2496 384 
L 2560 0 
L 3328 0 
L 3328 2093 
C 3328 3130 2861 3674 1952 3674 
C 1389 3674 877 3456 461 3200 
L 794 2573 
C 1126 2771 1446 2918 1779 2918 
C 2221 2918 2374 2650 2387 2298 
C 947 2144 326 1741 326 979 
C 326 365 742 -90 1382 -90 
z
M 1696 646 
C 1421 646 1222 768 1222 1050 
C 1222 1376 1510 1613 2387 1715 
L 2387 998 
C 2163 774 1965 646 1696 646 
z
" transform="scale(0.015625)"/>
     <path id="NotoSansCJKsc-Bold-6c" d="M 1395 -90 
C 1613 -90 1766 -51 1875 -6 
L 1760 691 
C 1696 678 1670 678 1632 678 
C 1542 678 1446 749 1446 966 
L 1446 5107 
L 506 5107 
L 506 1005 
C 506 339 736 -90 1395 -90 
z
" transform="scale(0.015625)"/>
     <path id="NotoSansCJKsc-Bold-69" d="M 506 0 
L 1446 0 
L 1446 3584 
L 506 3584 
L 506 0 
z
M 979 4166 
C 1299 4166 1523 4365 1523 4678 
C 1523 4986 1299 5190 979 5190 
C 646 5190 435 4986 435 4678 
C 435 4365 646 4166 979 4166 
z
" transform="scale(0.015625)"/>
     <path id="NotoSansCJKsc-Bold-6e" d="M 506 0 
L 1446 0 
L 1446 2464 
C 1709 2726 1901 2867 2189 2867 
C 2541 2867 2694 2675 2694 2118 
L 2694 0 
L 3635 0 
L 3635 2234 
C 3635 3136 3302 3674 2528 3674 
C 2042 3674 1677 3418 1363 3110 
L 1344 3110 
L 1274 3584 
L 506 3584 
L 506 0 
z
" transform="scale(0.015625)"/>
     <path id="NotoSansCJKsc-Bold-67" d="M 1766 -1555 
C 2963 -1555 3718 -1005 3718 -282 
C 3718 346 3245 614 2381 614 
L 1766 614 
C 1350 614 1203 717 1203 902 
C 1203 1056 1267 1133 1357 1216 
C 1517 1158 1683 1133 1818 1133 
C 2592 1133 3206 1536 3206 2349 
C 3206 2573 3136 2771 3046 2893 
L 3654 2893 
L 3654 3584 
L 2368 3584 
C 2214 3635 2029 3674 1818 3674 
C 1062 3674 378 3219 378 2381 
C 378 1958 608 1619 858 1440 
L 858 1414 
C 640 1261 461 1011 461 749 
C 461 448 595 262 787 141 
L 787 109 
C 448 -77 275 -333 275 -634 
C 275 -1267 922 -1555 1766 -1555 
z
M 1818 1715 
C 1510 1715 1261 1952 1261 2381 
C 1261 2797 1504 3027 1818 3027 
C 2138 3027 2387 2797 2387 2381 
C 2387 1952 2138 1715 1818 1715 
z
M 1907 -954 
C 1389 -954 1056 -787 1056 -493 
C 1056 -339 1126 -198 1286 -70 
C 1421 -102 1568 -115 1779 -115 
L 2221 -115 
C 2605 -115 2816 -186 2816 -442 
C 2816 -717 2451 -954 1907 -954 
z
" transform="scale(0.015625)"/>
     <path id="NotoSansCJKsc-Bold-20" transform="scale(0.015625)"/>
     <path id="NotoSansCJKsc-Bold-44" d="M 582 0 
L 1933 0 
C 3334 0 4224 794 4224 2394 
C 4224 3987 3334 4742 1882 4742 
L 582 4742 
L 582 0 
z
M 1530 768 
L 1530 3981 
L 1818 3981 
C 2707 3981 3258 3546 3258 2394 
C 3258 1242 2707 768 1818 768 
L 1530 768 
z
" transform="scale(0.015625)"/>
     <path id="NotoSansCJKsc-Bold-65" d="M 2067 -90 
C 2509 -90 2963 64 3315 307 
L 2995 883 
C 2733 723 2483 640 2195 640 
C 1658 640 1274 941 1197 1523 
L 3405 1523 
C 3430 1613 3450 1786 3450 1958 
C 3450 2957 2938 3674 1952 3674 
C 1101 3674 282 2950 282 1792 
C 282 608 1062 -90 2067 -90 
z
M 1178 2157 
C 1254 2675 1587 2944 1965 2944 
C 2432 2944 2643 2637 2643 2157 
L 1178 2157 
z
" transform="scale(0.015625)"/>
     <path id="NotoSansCJKsc-Bold-73" d="M 1530 -90 
C 2458 -90 2957 410 2957 1043 
C 2957 1702 2432 1946 1958 2125 
C 1574 2266 1248 2362 1248 2624 
C 1248 2829 1402 2970 1728 2970 
C 1990 2970 2240 2842 2496 2662 
L 2918 3232 
C 2624 3462 2221 3674 1702 3674 
C 883 3674 365 3219 365 2579 
C 365 1978 870 1702 1325 1530 
C 1702 1382 2074 1261 2074 992 
C 2074 768 1914 614 1555 614 
C 1216 614 915 762 595 1005 
L 166 410 
C 525 115 1050 -90 1530 -90 
z
" transform="scale(0.015625)"/>
     <path id="NotoSansCJKsc-Bold-52" d="M 1530 2541 
L 1530 3987 
L 2144 3987 
C 2752 3987 3085 3814 3085 3302 
C 3085 2797 2752 2541 2144 2541 
L 1530 2541 
z
M 3162 0 
L 4218 0 
L 3110 1939 
C 3654 2150 4013 2592 4013 3302 
C 4013 4390 3226 4742 2227 4742 
L 582 4742 
L 582 0 
L 1530 0 
L 1530 1792 
L 2189 1792 
L 3162 0 
z
" transform="scale(0.015625)"/>
     <path id="NotoSansCJKsc-Bold-74" d="M 1818 -90 
C 2131 -90 2381 -13 2579 45 
L 2419 730 
C 2323 691 2182 653 2067 653 
C 1747 653 1574 845 1574 1254 
L 1574 2842 
L 2464 2842 
L 2464 3584 
L 1574 3584 
L 1574 4550 
L 800 4550 
L 691 3584 
L 134 3539 
L 134 2842 
L 640 2842 
L 640 1248 
C 640 454 966 -90 1818 -90 
z
" transform="scale(0.015625)"/>
     <path id="NotoSansCJKsc-Bold-72" d="M 506 0 
L 1446 0 
L 1446 2138 
C 1651 2656 1984 2842 2259 2842 
C 2413 2842 2515 2822 2643 2784 
L 2797 3597 
C 2694 3642 2579 3674 2381 3674 
C 2010 3674 1626 3418 1363 2950 
L 1344 2950 
L 1274 3584 
L 506 3584 
L 506 0 
z
" transform="scale(0.015625)"/>
     <path id="NotoSansCJKsc-Bold-76" d="M 1312 0 
L 2400 0 
L 3597 3584 
L 2694 3584 
L 2170 1798 
C 2074 1446 1978 1075 1882 710 
L 1850 710 
C 1747 1075 1658 1446 1555 1798 
L 1037 3584 
L 90 3584 
L 1312 0 
z
" transform="scale(0.015625)"/>
     <path id="NotoSansCJKsc-Bold-2014" d="M 314 1536 
L 5498 1536 
L 5498 2138 
L 314 2138 
L 314 1536 
z
" transform="scale(0.015625)"/>
     <path id="NotoSansCJKsc-Bold-68" d="M 506 0 
L 1446 0 
L 1446 2464 
C 1709 2726 1901 2867 2189 2867 
C 2541 2867 2694 2675 2694 2118 
L 2694 0 
L 3635 0 
L 3635 2234 
C 3635 3136 3302 3674 2528 3674 
C 2042 3674 1683 3418 1402 3149 
L 1446 3821 
L 1446 5107 
L 506 5107 
L 506 0 
z
" transform="scale(0.015625)"/>
    </defs>
    <use xlink:href="#NotoSansCJKsc-Bold-53"/>
    <use xlink:href="#NotoSansCJKsc-Bold-63" transform="translate(62.399994 0)"/>
    <use xlink:href="#NotoSansCJKsc-Bold-61" transform="translate(115.099991 0)"/>
    <use xlink:href="#NotoSansCJKsc-Bold-6c" transform="translate(174.199982 0)"/>
    <use xlink:href="#NotoSansCJKsc-Bold-69" transform="translate(205.699966 0)"/>
    <use xlink:href="#NotoSansCJKsc-Bold-6e" transform="translate(236.09996 0)"/>
    <use xlink:href="#NotoSansCJKsc-Bold-67" transform="translate(300.199951 0)"/>
    <use xlink:href="#NotoSansCJKsc-Bold-20" transform="translate(359.899948 0)"/>
    <use xlink:href="#NotoSansCJKsc-Bold-44" transform="translate(382.599945 0)"/>
    <use xlink:href="#NotoSansCJKsc-Bold-65" transform="translate(453.999939 0)"/>
    <use xlink:href="#NotoSansCJKsc-Bold-6e" transform="translate(512.09993 0)"/>
    <use xlink:href="#NotoSansCJKsc-Bold-73" transform="translate(576.199921 0)"/>
    <use xlink:href="#NotoSansCJKsc-Bold-65" transform="translate(625.699905 0)"/>
    <use xlink:href="#NotoSansCJKsc-Bold-20" transform="translate(683.799896 0)"/>
    <use xlink:href="#NotoSansCJKsc-Bold-52" transform="translate(706.499893 0)"/>
    <use xlink:href="#NotoSansCJKsc-Bold-65" transform="translate(774.699875 0)"/>
    <use xlink:href="#NotoSansCJKsc-Bold-74" transform="translate(832.799866 0)"/>
    <use xlink:href="#NotoSansCJKsc-Bold-72" transform="translate(874.899857 0)"/>
    <use xlink:href="#NotoSansCJKsc-Bold-69" transform="translate(918.499847 0)"/>
    <use xlink:href="#NotoSansCJKsc-Bold-65" transform="translate(948.899841 0)"/>
    <use xlink:href="#NotoSansCJKsc-Bold-76" transform="translate(1006.999832 0)"/>
    <use xlink:href="#NotoSansCJKsc-Bold-61" transform="translate(1064.599823 0)"/>
    <use xlink:href="#NotoSansCJKsc-Bold-6c" transform="translate(1123.699814 0)"/>
    <use xlink:href="#NotoSansCJKsc-Bold-20" transform="translate(1155.199799 0)"/>
    <use xlink:href="#NotoSansCJKsc-Bold-2014" transform="translate(1177.899796 0)"/>
    <use xlink:href="#NotoSansCJKsc-Bold-20" transform="translate(1268.699783 0)"/>
    <use xlink:href="#NotoSansCJKsc-Bold-68" transform="translate(1291.39978 0)"/>
    <use xlink:href="#NotoSansCJKsc-Bold-69" transform="translate(1355.399765 0)"/>
    <use xlink:href="#NotoSansCJKsc-Bold-67" transform="translate(1385.799759 0)"/>
    <use xlink:href="#NotoSansCJKsc-Bold-68" transform="translate(1445.499756 0)"/>
    <use xlink:href="#NotoSansCJKsc-Bold-6c" transform="translate(1509.499741 0)"/>
    <use xlink:href="#NotoSansCJKsc-Bold-69" transform="translate(1540.999725 0)"/>
    <use xlink:href="#NotoSansCJKsc-Bold-67" transform="translate(1571.399719 0)"/>
    <use xlink:href="#NotoSansCJKsc-Bold-68" transform="translate(1631.099716 0)"/>
    <use xlink:href="#NotoSansCJKsc-Bold-74" transform="translate(1695.099701 0)"/>
    <use xlink:href="#NotoSansCJKsc-Bold-73" transform="translate(1737.199692 0)"/>
   </g>
  </g>
 </g>
 <defs>
  <clipPath id="pcc4f51f4b6">
   <rect x="45.646" y="75.372" width="351.245" height="199.184"/>
  </clipPath>
  <clipPath id="p4c742fe059">
   <rect x="428.011" y="75.372" width="351.245" height="199.184"/>
  </clipPath>
 </defs>
</svg>
