<?xml version="1.0" encoding="utf-8" standalone="no"?>
<!DOCTYPE svg PUBLIC "-//W3C//DTD SVG 1.1//EN"
  "http://www.w3.org/Graphics/SVG/1.1/DTD/svg11.dtd">
<svg xmlns:xlink="http://www.w3.org/1999/xlink" width="631.08pt" height="272.304pt" viewBox="0 0 631.08 272.304" xmlns="http://www.w3.org/2000/svg" version="1.1">
 <metadata>
  <rdf:RDF xmlns:dc="http://purl.org/dc/elements/1.1/" xmlns:cc="http://creativecommons.org/ns#" xmlns:rdf="http://www.w3.org/1999/02/22-rdf-syntax-ns#">
   <cc:Work>
    <dc:type rdf:resource="http://purl.org/dc/dcmitype/StillImage"/>
    <dc:date>2026-06-25T19:42:37.296150</dc:date>
    <dc:format>image/svg+xml</dc:format>
    <dc:creator>
     <cc:Agent>
      <dc:title>Matplotlib v3.10.5, https://matplotlib.org/</dc:title>
     </cc:Agent>
    </dc:creator>
   </cc:Work>
  </rdf:RDF>
 </metadata>
 <defs>
  <style type="text/css">*{stroke-linejoin: round; stroke-linecap: butt}</style>
 </defs>
 <g id="figure_1">
  <g id="patch_1">
   <path d="M 0 272.304 
L 631.08 272.304 
L 631.08 0 
L 0 0 
z
" style="fill: #ffffff"/>
  </g>
  <g id="axes_1">
   <g id="patch_2">
    <path d="M 134.630392 123.4008 
Q 142.756279 123.4008 148.955236 123.4008 
" clip-path="url(#p132e39567b)" style="fill: none; stroke: #94a3b8; stroke-width: 1.9; stroke-linecap: round"/>
    <path d="M 142.955236 120.0008 
L 148.955236 123.4008 
L 142.955236 126.8008 
" clip-path="url(#p132e39567b)" style="fill: none; stroke: #94a3b8; stroke-width: 1.9; stroke-linecap: round"/>
   </g>
   <g id="patch_3">
    <path d="M 271.507792 123.4008 
Q 279.633679 123.4008 285.832636 123.4008 
" clip-path="url(#p132e39567b)" style="fill: none; stroke: #94a3b8; stroke-width: 1.9; stroke-linecap: round"/>
    <path d="M 279.832636 120.0008 
L 285.832636 123.4008 
L 279.832636 126.8008 
" clip-path="url(#p132e39567b)" style="fill: none; stroke: #94a3b8; stroke-width: 1.9; stroke-linecap: round"/>
   </g>
   <g id="patch_4">
    <path d="M 408.385192 123.4008 
Q 416.511079 123.4008 422.710036 123.4008 
" clip-path="url(#p132e39567b)" style="fill: none; stroke: #94a3b8; stroke-width: 1.9; stroke-linecap: round"/>
    <path d="M 416.710036 120.0008 
L 422.710036 123.4008 
L 416.710036 126.8008 
" clip-path="url(#p132e39567b)" style="fill: none; stroke: #94a3b8; stroke-width: 1.9; stroke-linecap: round"/>
   </g>
   <g id="patch_5">
    <path d="M 541.256783 123.4008 
Q 525.765531 123.4008 512.201208 123.4008 
" clip-path="url(#p132e39567b)" style="fill: none; stroke: #94a3b8; stroke-width: 1.9; stroke-linecap: round"/>
    <path d="M 518.201208 126.8008 
L 512.201208 123.4008 
L 518.201208 120.0008 
" clip-path="url(#p132e39567b)" style="fill: none; stroke: #94a3b8; stroke-width: 1.9; stroke-linecap: round"/>
   </g>
   <g id="patch_6">
    <path d="M 20.916 164.714688 
L 127.7172 164.714688 
Q 139.9932 164.714688 139.9932 159.614208 
L 139.9932 87.187392 
Q 139.9932 82.086912 127.7172 82.086912 
L 20.916 82.086912 
Q 8.64 82.086912 8.64 87.187392 
L 8.64 159.614208 
Q 8.64 164.714688 20.916 164.714688 
z
" clip-path="url(#p132e39567b)" style="fill: #ecfeff; stroke: #a5f3fc; stroke-width: 1.4; stroke-linejoin: miter"/>
   </g>
   <g id="patch_7">
    <path d="M 157.7934 164.714688 
L 264.5946 164.714688 
Q 276.8706 164.714688 276.8706 159.614208 
L 276.8706 87.187392 
Q 276.8706 82.086912 264.5946 82.086912 
L 157.7934 82.086912 
Q 145.5174 82.086912 145.5174 87.187392 
L 145.5174 159.614208 
Q 145.5174 164.714688 157.7934 164.714688 
z
" clip-path="url(#p132e39567b)" style="fill: #eff6ff; stroke: #bfdbfe; stroke-width: 1.4; stroke-linejoin: miter"/>
   </g>
   <g id="patch_8">
    <path d="M 294.6708 164.714688 
L 401.472 164.714688 
Q 413.748 164.714688 413.748 159.614208 
L 413.748 87.187392 
Q 413.748 82.086912 401.472 82.086912 
L 294.6708 82.086912 
Q 282.3948 82.086912 282.3948 87.187392 
L 282.3948 159.614208 
Q 282.3948 164.714688 294.6708 164.714688 
z
" clip-path="url(#p132e39567b)" style="fill: #f5f3ff; stroke: #ddd6fe; stroke-width: 1.4; stroke-linejoin: miter"/>
   </g>
   <g id="patch_9">
    <path d="M 431.5482 164.714688 
L 538.3494 164.714688 
Q 550.6254 164.714688 550.6254 159.614208 
L 550.6254 87.187392 
Q 550.6254 82.086912 538.3494 82.086912 
L 431.5482 82.086912 
Q 419.2722 82.086912 419.2722 87.187392 
L 419.2722 159.614208 
Q 419.2722 164.714688 431.5482 164.714688 
z
" clip-path="url(#p132e39567b)" style="fill: #fffbeb; stroke: #fde68a; stroke-width: 1.4; stroke-linejoin: miter"/>
   </g>
   <g id="patch_10">
    <path d="M 513.1836 164.714688 
L 610.7778 164.714688 
Q 623.0538 164.714688 623.0538 159.614208 
L 623.0538 87.187392 
Q 623.0538 82.086912 610.7778 82.086912 
L 513.1836 82.086912 
Q 500.9076 82.086912 500.9076 87.187392 
L 500.9076 159.614208 
Q 500.9076 164.714688 513.1836 164.714688 
z
" clip-path="url(#p132e39567b)" style="fill: #ecfdf5; stroke: #bbf7d0; stroke-width: 1.4; stroke-linejoin: miter"/>
   </g>
   <g id="text_1">
    <!-- UNIVID — Unified Vision-Language Model for Video Moderation -->
    <g style="fill: #0f172a" transform="translate(16.0056 45.453764) scale(0.155 -0.155)">
     <defs>
      <path id="NotoSansCJKsc-Bold-55" d="M 2406 -90 
C 3558 -90 4230 563 4230 2131 
L 4230 4742 
L 3322 4742 
L 3322 2048 
C 3322 1062 2957 730 2406 730 
C 1850 730 1504 1062 1504 2048 
L 1504 4742 
L 563 4742 
L 563 2131 
C 563 563 1242 -90 2406 -90 
z
" transform="scale(0.015625)"/>
      <path id="NotoSansCJKsc-Bold-4e" d="M 582 0 
L 1485 0 
L 1485 1901 
C 1485 2445 1402 3040 1363 3552 
L 1395 3552 
L 1875 2534 
L 3238 0 
L 4205 0 
L 4205 4742 
L 3309 4742 
L 3309 2848 
C 3309 2310 3386 1683 3437 1190 
L 3405 1190 
L 2925 2214 
L 1549 4742 
L 582 4742 
L 582 0 
z
" transform="scale(0.015625)"/>
      <path id="NotoSansCJKsc-Bold-49" d="M 582 0 
L 1530 0 
L 1530 4742 
L 582 4742 
L 582 0 
z
" transform="scale(0.015625)"/>
      <path id="NotoSansCJKsc-Bold-56" d="M 1414 0 
L 2547 0 
L 3994 4742 
L 3034 4742 
L 2419 2432 
C 2272 1907 2170 1434 2016 902 
L 1984 902 
C 1837 1434 1734 1907 1587 2432 
L 966 4742 
L -32 4742 
L 1414 0 
z
" transform="scale(0.015625)"/>
      <path id="NotoSansCJKsc-Bold-44" d="M 582 0 
L 1933 0 
C 3334 0 4224 794 4224 2394 
C 4224 3987 3334 4742 1882 4742 
L 582 4742 
L 582 0 
z
M 1530 768 
L 1530 3981 
L 1818 3981 
C 2707 3981 3258 3546 3258 2394 
C 3258 1242 2707 768 1818 768 
L 1530 768 
z
" transform="scale(0.015625)"/>
      <path id="NotoSansCJKsc-Bold-20" transform="scale(0.015625)"/>
      <path id="NotoSansCJKsc-Bold-2014" d="M 314 1536 
L 5498 1536 
L 5498 2138 
L 314 2138 
L 314 1536 
z
" transform="scale(0.015625)"/>
      <path id="NotoSansCJKsc-Bold-6e" d="M 506 0 
L 1446 0 
L 1446 2464 
C 1709 2726 1901 2867 2189 2867 
C 2541 2867 2694 2675 2694 2118 
L 2694 0 
L 3635 0 
L 3635 2234 
C 3635 3136 3302 3674 2528 3674 
C 2042 3674 1677 3418 1363 3110 
L 1344 3110 
L 1274 3584 
L 506 3584 
L 506 0 
z
" transform="scale(0.015625)"/>
      <path id="NotoSansCJKsc-Bold-69" d="M 506 0 
L 1446 0 
L 1446 3584 
L 506 3584 
L 506 0 
z
M 979 4166 
C 1299 4166 1523 4365 1523 4678 
C 1523 4986 1299 5190 979 5190 
C 646 5190 435 4986 435 4678 
C 435 4365 646 4166 979 4166 
z
" transform="scale(0.015625)"/>
      <path id="NotoSansCJKsc-Bold-66" d="M 179 2842 
L 666 2842 
L 666 0 
L 1600 0 
L 1600 2842 
L 2285 2842 
L 2285 3584 
L 1600 3584 
L 1600 3891 
C 1600 4288 1760 4454 2035 4454 
C 2163 4454 2298 4429 2419 4371 
L 2592 5075 
C 2432 5139 2189 5197 1907 5197 
C 1011 5197 666 4614 666 3872 
L 666 3578 
L 179 3539 
L 179 2842 
z
" transform="scale(0.015625)"/>
      <path id="NotoSansCJKsc-Bold-65" d="M 2067 -90 
C 2509 -90 2963 64 3315 307 
L 2995 883 
C 2733 723 2483 640 2195 640 
C 1658 640 1274 941 1197 1523 
L 3405 1523 
C 3430 1613 3450 1786 3450 1958 
C 3450 2957 2938 3674 1952 3674 
C 1101 3674 282 2950 282 1792 
C 282 608 1062 -90 2067 -90 
z
M 1178 2157 
C 1254 2675 1587 2944 1965 2944 
C 2432 2944 2643 2637 2643 2157 
L 1178 2157 
z
" transform="scale(0.015625)"/>
      <path id="NotoSansCJKsc-Bold-64" d="M 1766 -90 
C 2138 -90 2496 109 2758 371 
L 2784 371 
L 2854 0 
L 3622 0 
L 3622 5107 
L 2682 5107 
L 2682 3846 
L 2714 3283 
C 2458 3520 2208 3674 1805 3674 
C 1037 3674 301 2957 301 1792 
C 301 614 870 -90 1766 -90 
z
M 2010 685 
C 1536 685 1267 1056 1267 1805 
C 1267 2515 1606 2899 2010 2899 
C 2240 2899 2464 2829 2682 2630 
L 2682 1056 
C 2477 787 2259 685 2010 685 
z
" transform="scale(0.015625)"/>
      <path id="NotoSansCJKsc-Bold-73" d="M 1530 -90 
C 2458 -90 2957 410 2957 1043 
C 2957 1702 2432 1946 1958 2125 
C 1574 2266 1248 2362 1248 2624 
C 1248 2829 1402 2970 1728 2970 
C 1990 2970 2240 2842 2496 2662 
L 2918 3232 
C 2624 3462 2221 3674 1702 3674 
C 883 3674 365 3219 365 2579 
C 365 1978 870 1702 1325 1530 
C 1702 1382 2074 1261 2074 992 
C 2074 768 1914 614 1555 614 
C 1216 614 915 762 595 1005 
L 166 410 
C 525 115 1050 -90 1530 -90 
z
" transform="scale(0.015625)"/>
      <path id="NotoSansCJKsc-Bold-6f" d="M 2003 -90 
C 2899 -90 3725 602 3725 1792 
C 3725 2982 2899 3674 2003 3674 
C 1101 3674 282 2982 282 1792 
C 282 602 1101 -90 2003 -90 
z
M 2003 678 
C 1510 678 1242 1114 1242 1792 
C 1242 2464 1510 2906 2003 2906 
C 2490 2906 2765 2464 2765 1792 
C 2765 1114 2490 678 2003 678 
z
" transform="scale(0.015625)"/>
      <path id="NotoSansCJKsc-Bold-2d" d="M 314 1491 
L 2061 1491 
L 2061 2170 
L 314 2170 
L 314 1491 
z
" transform="scale(0.015625)"/>
      <path id="NotoSansCJKsc-Bold-4c" d="M 582 0 
L 3456 0 
L 3456 794 
L 1530 794 
L 1530 4742 
L 582 4742 
L 582 0 
z
" transform="scale(0.015625)"/>
      <path id="NotoSansCJKsc-Bold-61" d="M 1382 -90 
C 1798 -90 2157 109 2464 384 
L 2496 384 
L 2560 0 
L 3328 0 
L 3328 2093 
C 3328 3130 2861 3674 1952 3674 
C 1389 3674 877 3456 461 3200 
L 794 2573 
C 1126 2771 1446 2918 1779 2918 
C 2221 2918 2374 2650 2387 2298 
C 947 2144 326 1741 326 979 
C 326 365 742 -90 1382 -90 
z
M 1696 646 
C 1421 646 1222 768 1222 1050 
C 1222 1376 1510 1613 2387 1715 
L 2387 998 
C 2163 774 1965 646 1696 646 
z
" transform="scale(0.015625)"/>
      <path id="NotoSansCJKsc-Bold-67" d="M 1766 -1555 
C 2963 -1555 3718 -1005 3718 -282 
C 3718 346 3245 614 2381 614 
L 1766 614 
C 1350 614 1203 717 1203 902 
C 1203 1056 1267 1133 1357 1216 
C 1517 1158 1683 1133 1818 1133 
C 2592 1133 3206 1536 3206 2349 
C 3206 2573 3136 2771 3046 2893 
L 3654 2893 
L 3654 3584 
L 2368 3584 
C 2214 3635 2029 3674 1818 3674 
C 1062 3674 378 3219 378 2381 
C 378 1958 608 1619 858 1440 
L 858 1414 
C 640 1261 461 1011 461 749 
C 461 448 595 262 787 141 
L 787 109 
C 448 -77 275 -333 275 -634 
C 275 -1267 922 -1555 1766 -1555 
z
M 1818 1715 
C 1510 1715 1261 1952 1261 2381 
C 1261 2797 1504 3027 1818 3027 
C 2138 3027 2387 2797 2387 2381 
C 2387 1952 2138 1715 1818 1715 
z
M 1907 -954 
C 1389 -954 1056 -787 1056 -493 
C 1056 -339 1126 -198 1286 -70 
C 1421 -102 1568 -115 1779 -115 
L 2221 -115 
C 2605 -115 2816 -186 2816 -442 
C 2816 -717 2451 -954 1907 -954 
z
" transform="scale(0.015625)"/>
      <path id="NotoSansCJKsc-Bold-75" d="M 1574 -90 
C 2067 -90 2406 154 2714 518 
L 2739 518 
L 2810 0 
L 3578 0 
L 3578 3584 
L 2637 3584 
L 2637 1165 
C 2394 845 2202 717 1914 717 
C 1562 717 1402 909 1402 1466 
L 1402 3584 
L 467 3584 
L 467 1350 
C 467 448 800 -90 1574 -90 
z
" transform="scale(0.015625)"/>
      <path id="NotoSansCJKsc-Bold-4d" d="M 582 0 
L 1434 0 
L 1434 1978 
C 1434 2432 1357 3085 1312 3533 
L 1338 3533 
L 1715 2419 
L 2451 429 
L 2995 429 
L 3725 2419 
L 4109 3533 
L 4141 3533 
C 4090 3085 4019 2432 4019 1978 
L 4019 0 
L 4883 0 
L 4883 4742 
L 3834 4742 
L 3040 2515 
C 2944 2227 2861 1914 2758 1613 
L 2726 1613 
C 2630 1914 2541 2227 2438 2515 
L 1632 4742 
L 582 4742 
L 582 0 
z
" transform="scale(0.015625)"/>
      <path id="NotoSansCJKsc-Bold-6c" d="M 1395 -90 
C 1613 -90 1766 -51 1875 -6 
L 1760 691 
C 1696 678 1670 678 1632 678 
C 1542 678 1446 749 1446 966 
L 1446 5107 
L 506 5107 
L 506 1005 
C 506 339 736 -90 1395 -90 
z
" transform="scale(0.015625)"/>
      <path id="NotoSansCJKsc-Bold-72" d="M 506 0 
L 1446 0 
L 1446 2138 
C 1651 2656 1984 2842 2259 2842 
C 2413 2842 2515 2822 2643 2784 
L 2797 3597 
C 2694 3642 2579 3674 2381 3674 
C 2010 3674 1626 3418 1363 2950 
L 1344 2950 
L 1274 3584 
L 506 3584 
L 506 0 
z
" transform="scale(0.015625)"/>
      <path id="NotoSansCJKsc-Bold-74" d="M 1818 -90 
C 2131 -90 2381 -13 2579 45 
L 2419 730 
C 2323 691 2182 653 2067 653 
C 1747 653 1574 845 1574 1254 
L 1574 2842 
L 2464 2842 
L 2464 3584 
L 1574 3584 
L 1574 4550 
L 800 4550 
L 691 3584 
L 134 3539 
L 134 2842 
L 640 2842 
L 640 1248 
C 640 454 966 -90 1818 -90 
z
" transform="scale(0.015625)"/>
     </defs>
     <use xlink:href="#NotoSansCJKsc-Bold-55"/>
     <use xlink:href="#NotoSansCJKsc-Bold-4e" transform="translate(74.799988 0)"/>
     <use xlink:href="#NotoSansCJKsc-Bold-49" transform="translate(149.699982 0)"/>
     <use xlink:href="#NotoSansCJKsc-Bold-56" transform="translate(182.699966 0)"/>
     <use xlink:href="#NotoSansCJKsc-Bold-49" transform="translate(244.59996 0)"/>
     <use xlink:href="#NotoSansCJKsc-Bold-44" transform="translate(277.599945 0)"/>
     <use xlink:href="#NotoSansCJKsc-Bold-20" transform="translate(348.999939 0)"/>
     <use xlink:href="#NotoSansCJKsc-Bold-2014" transform="translate(371.699936 0)"/>
     <use xlink:href="#NotoSansCJKsc-Bold-20" transform="translate(462.499924 0)"/>
     <use xlink:href="#NotoSansCJKsc-Bold-55" transform="translate(485.199921 0)"/>
     <use xlink:href="#NotoSansCJKsc-Bold-6e" transform="translate(559.999908 0)"/>
     <use xlink:href="#NotoSansCJKsc-Bold-69" transform="translate(624.099899 0)"/>
     <use xlink:href="#NotoSansCJKsc-Bold-66" transform="translate(654.499893 0)"/>
     <use xlink:href="#NotoSansCJKsc-Bold-69" transform="translate(691.69989 0)"/>
     <use xlink:href="#NotoSansCJKsc-Bold-65" transform="translate(722.099884 0)"/>
     <use xlink:href="#NotoSansCJKsc-Bold-64" transform="translate(780.199875 0)"/>
     <use xlink:href="#NotoSansCJKsc-Bold-20" transform="translate(844.599869 0)"/>
     <use xlink:href="#NotoSansCJKsc-Bold-56" transform="translate(867.299866 0)"/>
     <use xlink:href="#NotoSansCJKsc-Bold-69" transform="translate(929.19986 0)"/>
     <use xlink:href="#NotoSansCJKsc-Bold-73" transform="translate(959.599854 0)"/>
     <use xlink:href="#NotoSansCJKsc-Bold-69" transform="translate(1009.099838 0)"/>
     <use xlink:href="#NotoSansCJKsc-Bold-6f" transform="translate(1039.499832 0)"/>
     <use xlink:href="#NotoSansCJKsc-Bold-6e" transform="translate(1102.099823 0)"/>
     <use xlink:href="#NotoSansCJKsc-Bold-2d" transform="translate(1166.199814 0)"/>
     <use xlink:href="#NotoSansCJKsc-Bold-4c" transform="translate(1203.199799 0)"/>
     <use xlink:href="#NotoSansCJKsc-Bold-61" transform="translate(1260.999786 0)"/>
     <use xlink:href="#NotoSansCJKsc-Bold-6e" transform="translate(1320.099777 0)"/>
     <use xlink:href="#NotoSansCJKsc-Bold-67" transform="translate(1384.199768 0)"/>
     <use xlink:href="#NotoSansCJKsc-Bold-75" transform="translate(1443.899765 0)"/>
     <use xlink:href="#NotoSansCJKsc-Bold-61" transform="translate(1507.599762 0)"/>
     <use xlink:href="#NotoSansCJKsc-Bold-67" transform="translate(1566.699753 0)"/>
     <use xlink:href="#NotoSansCJKsc-Bold-65" transform="translate(1626.39975 0)"/>
     <use xlink:href="#NotoSansCJKsc-Bold-20" transform="translate(1684.499741 0)"/>
     <use xlink:href="#NotoSansCJKsc-Bold-4d" transform="translate(1707.199738 0)"/>
     <use xlink:href="#NotoSansCJKsc-Bold-6f" transform="translate(1792.499725 0)"/>
     <use xlink:href="#NotoSansCJKsc-Bold-64" transform="translate(1855.099716 0)"/>
     <use xlink:href="#NotoSansCJKsc-Bold-65" transform="translate(1919.49971 0)"/>
     <use xlink:href="#NotoSansCJKsc-Bold-6c" transform="translate(1977.599701 0)"/>
     <use xlink:href="#NotoSansCJKsc-Bold-20" transform="translate(2009.099686 0)"/>
     <use xlink:href="#NotoSansCJKsc-Bold-66" transform="translate(2031.799683 0)"/>
     <use xlink:href="#NotoSansCJKsc-Bold-6f" transform="translate(2068.99968 0)"/>
     <use xlink:href="#NotoSansCJKsc-Bold-72" transform="translate(2131.59967 0)"/>
     <use xlink:href="#NotoSansCJKsc-Bold-20" transform="translate(2175.199661 0)"/>
     <use xlink:href="#NotoSansCJKsc-Bold-56" transform="translate(2197.899658 0)"/>
     <use xlink:href="#NotoSansCJKsc-Bold-69" transform="translate(2259.799652 0)"/>
     <use xlink:href="#NotoSansCJKsc-Bold-64" transform="translate(2290.199646 0)"/>
     <use xlink:href="#NotoSansCJKsc-Bold-65" transform="translate(2354.59964 0)"/>
     <use xlink:href="#NotoSansCJKsc-Bold-6f" transform="translate(2412.699631 0)"/>
     <use xlink:href="#NotoSansCJKsc-Bold-20" transform="translate(2475.299622 0)"/>
     <use xlink:href="#NotoSansCJKsc-Bold-4d" transform="translate(2497.999619 0)"/>
     <use xlink:href="#NotoSansCJKsc-Bold-6f" transform="translate(2583.299606 0)"/>
     <use xlink:href="#NotoSansCJKsc-Bold-64" transform="translate(2645.899597 0)"/>
     <use xlink:href="#NotoSansCJKsc-Bold-65" transform="translate(2710.299591 0)"/>
     <use xlink:href="#NotoSansCJKsc-Bold-72" transform="translate(2768.399582 0)"/>
     <use xlink:href="#NotoSansCJKsc-Bold-61" transform="translate(2811.999573 0)"/>
     <use xlink:href="#NotoSansCJKsc-Bold-74" transform="translate(2871.099564 0)"/>
     <use xlink:href="#NotoSansCJKsc-Bold-69" transform="translate(2913.199554 0)"/>
     <use xlink:href="#NotoSansCJKsc-Bold-6f" transform="translate(2943.599548 0)"/>
     <use xlink:href="#NotoSansCJKsc-Bold-6e" transform="translate(3006.199539 0)"/>
    </g>
   </g>
   <g id="text_2">
    <!-- Video -&gt; (Risk Filter) -&gt; (Caption-as-evidence) -&gt; RAG policy decision -&gt; Trend governance -->
    <g style="fill: #64748b" transform="translate(16.0056 54.236052) scale(0.096 -0.096)">
     <defs>
      <path id="NotoSansCJKsc-Regular-56" d="M 1504 0 
L 2189 0 
L 3680 4691 
L 3078 4691 
L 2323 2150 
C 2163 1600 2048 1152 1869 602 
L 1843 602 
C 1670 1152 1549 1600 1389 2150 
L 627 4691 
L 6 4691 
L 1504 0 
z
" transform="scale(0.015625)"/>
      <path id="NotoSansCJKsc-Regular-69" d="M 589 0 
L 1178 0 
L 1178 3475 
L 589 3475 
L 589 0 
z
M 883 4192 
C 1114 4192 1274 4346 1274 4582 
C 1274 4806 1114 4960 883 4960 
C 653 4960 499 4806 499 4582 
C 499 4346 653 4192 883 4192 
z
" transform="scale(0.015625)"/>
      <path id="NotoSansCJKsc-Regular-64" d="M 1773 -83 
C 2189 -83 2560 141 2829 410 
L 2848 410 
L 2899 0 
L 3379 0 
L 3379 5094 
L 2790 5094 
L 2790 3757 
L 2822 3162 
C 2515 3411 2253 3565 1843 3565 
C 1050 3565 339 2861 339 1734 
C 339 576 902 -83 1773 -83 
z
M 1901 410 
C 1293 410 941 902 941 1741 
C 941 2534 1389 3072 1946 3072 
C 2234 3072 2502 2970 2790 2707 
L 2790 883 
C 2502 563 2221 410 1901 410 
z
" transform="scale(0.015625)"/>
      <path id="NotoSansCJKsc-Regular-65" d="M 1997 -83 
C 2464 -83 2835 70 3136 269 
L 2931 659 
C 2669 486 2400 384 2061 384 
C 1402 384 947 858 909 1600 
L 3251 1600 
C 3264 1690 3277 1805 3277 1933 
C 3277 2925 2778 3565 1888 3565 
C 1094 3565 333 2867 333 1734 
C 333 589 1069 -83 1997 -83 
z
M 902 2016 
C 973 2707 1408 3098 1901 3098 
C 2445 3098 2765 2720 2765 2016 
L 902 2016 
z
" transform="scale(0.015625)"/>
      <path id="NotoSansCJKsc-Regular-6f" d="M 1939 -83 
C 2790 -83 3546 582 3546 1734 
C 3546 2893 2790 3565 1939 3565 
C 1088 3565 333 2893 333 1734 
C 333 582 1088 -83 1939 -83 
z
M 1939 403 
C 1338 403 934 934 934 1734 
C 934 2534 1338 3072 1939 3072 
C 2541 3072 2950 2534 2950 1734 
C 2950 934 2541 403 1939 403 
z
" transform="scale(0.015625)"/>
      <path id="NotoSansCJKsc-Regular-20" transform="scale(0.015625)"/>
      <path id="NotoSansCJKsc-Regular-2d" d="M 294 1568 
L 1933 1568 
L 1933 2016 
L 294 2016 
L 294 1568 
z
" transform="scale(0.015625)"/>
      <path id="NotoSansCJKsc-Regular-3e" d="M 243 934 
L 3315 2144 
L 3315 2605 
L 243 3814 
L 243 3309 
L 1754 2746 
L 2714 2387 
L 2714 2362 
L 1754 2003 
L 243 1446 
L 243 934 
z
" transform="scale(0.015625)"/>
      <path id="NotoSansCJKsc-Regular-28" d="M 1530 -1254 
L 1888 -1094 
C 1338 -186 1075 902 1075 1990 
C 1075 3072 1338 4154 1888 5069 
L 1530 5235 
C 941 4275 589 3245 589 1990 
C 589 730 941 -301 1530 -1254 
z
" transform="scale(0.015625)"/>
      <path id="NotoSansCJKsc-Regular-52" d="M 1235 2464 
L 1235 4211 
L 2022 4211 
C 2758 4211 3162 3994 3162 3379 
C 3162 2765 2758 2464 2022 2464 
L 1235 2464 
z
M 3219 0 
L 3885 0 
L 2694 2054 
C 3328 2208 3750 2643 3750 3379 
C 3750 4352 3066 4691 2112 4691 
L 646 4691 
L 646 0 
L 1235 0 
L 1235 1990 
L 2080 1990 
L 3219 0 
z
" transform="scale(0.015625)"/>
      <path id="NotoSansCJKsc-Regular-73" d="M 1498 -83 
C 2317 -83 2758 384 2758 947 
C 2758 1606 2208 1811 1702 2003 
C 1312 2150 954 2278 954 2605 
C 954 2880 1158 3110 1600 3110 
C 1907 3110 2150 2976 2387 2803 
L 2669 3168 
C 2406 3386 2022 3565 1594 3565 
C 832 3565 397 3130 397 2579 
C 397 1984 922 1754 1408 1574 
C 1792 1434 2202 1267 2202 915 
C 2202 614 1978 371 1517 371 
C 1101 371 794 538 486 787 
L 205 397 
C 531 122 1005 -83 1498 -83 
z
" transform="scale(0.015625)"/>
      <path id="NotoSansCJKsc-Regular-6b" d="M 589 0 
L 1165 0 
L 1165 915 
L 1818 1677 
L 2835 0 
L 3469 0 
L 2157 2074 
L 3315 3475 
L 2662 3475 
L 1190 1645 
L 1165 1645 
L 1165 5094 
L 589 5094 
L 589 0 
z
" transform="scale(0.015625)"/>
      <path id="NotoSansCJKsc-Regular-46" d="M 646 0 
L 1235 0 
L 1235 2106 
L 3027 2106 
L 3027 2605 
L 1235 2605 
L 1235 4192 
L 3347 4192 
L 3347 4691 
L 646 4691 
L 646 0 
z
" transform="scale(0.015625)"/>
      <path id="NotoSansCJKsc-Regular-6c" d="M 1203 -83 
C 1363 -83 1459 -58 1542 -32 
L 1459 416 
C 1395 403 1370 403 1338 403 
C 1248 403 1178 474 1178 653 
L 1178 5094 
L 589 5094 
L 589 691 
C 589 198 768 -83 1203 -83 
z
" transform="scale(0.015625)"/>
      <path id="NotoSansCJKsc-Regular-74" d="M 1677 -83 
C 1894 -83 2125 -19 2323 45 
L 2208 486 
C 2093 435 1939 390 1811 390 
C 1408 390 1274 634 1274 1056 
L 1274 3002 
L 2221 3002 
L 2221 3475 
L 1274 3475 
L 1274 4454 
L 787 4454 
L 723 3475 
L 173 3443 
L 173 3002 
L 691 3002 
L 691 1075 
C 691 378 941 -83 1677 -83 
z
" transform="scale(0.015625)"/>
      <path id="NotoSansCJKsc-Regular-72" d="M 589 0 
L 1178 0 
L 1178 2234 
C 1408 2822 1760 3040 2048 3040 
C 2195 3040 2272 3021 2387 2982 
L 2496 3488 
C 2387 3546 2278 3565 2125 3565 
C 1741 3565 1382 3283 1139 2842 
L 1126 2842 
L 1069 3475 
L 589 3475 
L 589 0 
z
" transform="scale(0.015625)"/>
      <path id="NotoSansCJKsc-Regular-29" d="M 634 -1254 
C 1222 -301 1574 730 1574 1990 
C 1574 3245 1222 4275 634 5235 
L 269 5069 
C 819 4154 1094 3072 1094 1990 
C 1094 902 819 -186 269 -1094 
L 634 -1254 
z
" transform="scale(0.015625)"/>
      <path id="NotoSansCJKsc-Regular-43" d="M 2413 -83 
C 3021 -83 3482 160 3853 589 
L 3526 966 
C 3226 634 2886 435 2438 435 
C 1542 435 979 1178 979 2362 
C 979 3533 1574 4256 2458 4256 
C 2861 4256 3168 4077 3418 3814 
L 3738 4198 
C 3469 4499 3021 4774 2451 4774 
C 1261 4774 371 3859 371 2342 
C 371 819 1242 -83 2413 -83 
z
" transform="scale(0.015625)"/>
      <path id="NotoSansCJKsc-Regular-61" d="M 1389 -83 
C 1818 -83 2208 141 2541 416 
L 2560 416 
L 2611 0 
L 3091 0 
L 3091 2138 
C 3091 3002 2739 3565 1888 3565 
C 1325 3565 838 3315 525 3110 
L 749 2707 
C 1024 2893 1389 3078 1792 3078 
C 2362 3078 2509 2650 2509 2202 
C 1030 2035 378 1658 378 902 
C 378 275 806 -83 1389 -83 
z
M 1555 390 
C 1210 390 941 544 941 941 
C 941 1389 1338 1677 2509 1811 
L 2509 845 
C 2170 544 1888 390 1555 390 
z
" transform="scale(0.015625)"/>
      <path id="NotoSansCJKsc-Regular-70" d="M 589 -1466 
L 1178 -1466 
L 1178 -288 
L 1158 320 
C 1472 58 1805 -83 2118 -83 
C 2912 -83 3629 602 3629 1792 
C 3629 2867 3142 3565 2246 3565 
C 1843 3565 1453 3334 1139 3072 
L 1126 3072 
L 1069 3475 
L 589 3475 
L 589 -1466 
z
M 2022 410 
C 1792 410 1485 499 1178 768 
L 1178 2598 
C 1510 2906 1811 3072 2099 3072 
C 2765 3072 3021 2560 3021 1786 
C 3021 928 2598 410 2022 410 
z
" transform="scale(0.015625)"/>
      <path id="NotoSansCJKsc-Regular-6e" d="M 589 0 
L 1178 0 
L 1178 2522 
C 1523 2874 1766 3053 2125 3053 
C 2586 3053 2784 2778 2784 2125 
L 2784 0 
L 3366 0 
L 3366 2202 
C 3366 3085 3034 3565 2304 3565 
C 1830 3565 1466 3302 1139 2970 
L 1126 2970 
L 1069 3475 
L 589 3475 
L 589 0 
z
" transform="scale(0.015625)"/>
      <path id="NotoSansCJKsc-Regular-76" d="M 1338 0 
L 2022 0 
L 3251 3475 
L 2675 3475 
L 2016 1498 
C 1914 1158 1798 806 1696 474 
L 1664 474 
C 1562 806 1453 1158 1344 1498 
L 691 3475 
L 83 3475 
L 1338 0 
z
" transform="scale(0.015625)"/>
      <path id="NotoSansCJKsc-Regular-63" d="M 1958 -83 
C 2374 -83 2771 83 3085 352 
L 2829 749 
C 2611 557 2330 403 2010 403 
C 1370 403 934 934 934 1734 
C 934 2534 1395 3072 2029 3072 
C 2298 3072 2522 2950 2720 2771 
L 3014 3155 
C 2771 3373 2458 3565 2003 3565 
C 1107 3565 333 2893 333 1734 
C 333 582 1037 -83 1958 -83 
z
" transform="scale(0.015625)"/>
      <path id="NotoSansCJKsc-Regular-41" d="M 26 0 
L 621 0 
L 1075 1434 
L 2790 1434 
L 3238 0 
L 3866 0 
L 2272 4691 
L 1613 4691 
L 26 0 
z
M 1222 1901 
L 1453 2624 
C 1619 3155 1773 3661 1920 4211 
L 1946 4211 
C 2099 3667 2246 3155 2419 2624 
L 2643 1901 
L 1222 1901 
z
" transform="scale(0.015625)"/>
      <path id="NotoSansCJKsc-Regular-47" d="M 2490 -83 
C 3117 -83 3635 147 3936 461 
L 3936 2432 
L 2394 2432 
L 2394 1939 
L 3392 1939 
L 3392 710 
C 3206 538 2880 435 2547 435 
C 1542 435 979 1178 979 2362 
C 979 3533 1594 4256 2541 4256 
C 3008 4256 3315 4058 3552 3814 
L 3872 4198 
C 3603 4480 3174 4774 2522 4774 
C 1280 4774 371 3859 371 2342 
C 371 819 1254 -83 2490 -83 
z
" transform="scale(0.015625)"/>
      <path id="NotoSansCJKsc-Regular-79" d="M 646 -1498 
C 1338 -1498 1702 -973 1946 -294 
L 3251 3475 
L 2682 3475 
L 2054 1549 
C 1965 1235 1862 883 1773 563 
L 1741 563 
C 1619 890 1504 1242 1395 1549 
L 691 3475 
L 83 3475 
L 1478 -6 
L 1402 -269 
C 1254 -698 1011 -1018 621 -1018 
C 525 -1018 422 -986 352 -960 
L 237 -1427 
C 346 -1472 486 -1498 646 -1498 
z
" transform="scale(0.015625)"/>
      <path id="NotoSansCJKsc-Regular-54" d="M 1619 0 
L 2214 0 
L 2214 4192 
L 3635 4192 
L 3635 4691 
L 198 4691 
L 198 4192 
L 1619 4192 
L 1619 0 
z
" transform="scale(0.015625)"/>
      <path id="NotoSansCJKsc-Regular-67" d="M 1760 -1600 
C 2835 -1600 3520 -1043 3520 -397 
C 3520 179 3110 429 2310 429 
L 1626 429 
C 1158 429 1018 589 1018 806 
C 1018 998 1114 1114 1242 1222 
C 1395 1146 1587 1101 1754 1101 
C 2470 1101 3027 1568 3027 2310 
C 3027 2611 2912 2867 2746 3027 
L 3456 3027 
L 3456 3475 
L 2246 3475 
C 2125 3526 1952 3565 1754 3565 
C 1056 3565 454 3085 454 2323 
C 454 1907 678 1568 909 1389 
L 909 1363 
C 723 1235 525 1005 525 717 
C 525 442 659 256 838 147 
L 838 115 
C 512 -83 326 -371 326 -672 
C 326 -1267 915 -1600 1760 -1600 
z
M 1754 1498 
C 1357 1498 1018 1818 1018 2323 
C 1018 2835 1350 3136 1754 3136 
C 2170 3136 2496 2835 2496 2323 
C 2496 1818 2157 1498 1754 1498 
z
M 1843 -1197 
C 1210 -1197 838 -960 838 -589 
C 838 -390 941 -179 1190 0 
C 1344 -38 1510 -51 1638 -51 
L 2240 -51 
C 2701 -51 2944 -166 2944 -493 
C 2944 -851 2515 -1197 1843 -1197 
z
" transform="scale(0.015625)"/>
     </defs>
     <use xlink:href="#NotoSansCJKsc-Regular-56"/>
     <use xlink:href="#NotoSansCJKsc-Regular-69" transform="translate(57.499985 0)"/>
     <use xlink:href="#NotoSansCJKsc-Regular-64" transform="translate(84.999969 0)"/>
     <use xlink:href="#NotoSansCJKsc-Regular-65" transform="translate(146.999954 0)"/>
     <use xlink:href="#NotoSansCJKsc-Regular-6f" transform="translate(202.399948 0)"/>
     <use xlink:href="#NotoSansCJKsc-Regular-20" transform="translate(262.999939 0)"/>
     <use xlink:href="#NotoSansCJKsc-Regular-2d" transform="translate(285.399933 0)"/>
     <use xlink:href="#NotoSansCJKsc-Regular-3e" transform="translate(320.09993 0)"/>
     <use xlink:href="#NotoSansCJKsc-Regular-20" transform="translate(375.599915 0)"/>
     <use xlink:href="#NotoSansCJKsc-Regular-28" transform="translate(397.999908 0)"/>
     <use xlink:href="#NotoSansCJKsc-Regular-52" transform="translate(431.799896 0)"/>
     <use xlink:href="#NotoSansCJKsc-Regular-69" transform="translate(495.299881 0)"/>
     <use xlink:href="#NotoSansCJKsc-Regular-73" transform="translate(522.799866 0)"/>
     <use xlink:href="#NotoSansCJKsc-Regular-6b" transform="translate(569.599854 0)"/>
     <use xlink:href="#NotoSansCJKsc-Regular-20" transform="translate(624.79985 0)"/>
     <use xlink:href="#NotoSansCJKsc-Regular-46" transform="translate(647.199844 0)"/>
     <use xlink:href="#NotoSansCJKsc-Regular-69" transform="translate(702.399841 0)"/>
     <use xlink:href="#NotoSansCJKsc-Regular-6c" transform="translate(729.899826 0)"/>
     <use xlink:href="#NotoSansCJKsc-Regular-74" transform="translate(758.29982 0)"/>
     <use xlink:href="#NotoSansCJKsc-Regular-65" transform="translate(795.999817 0)"/>
     <use xlink:href="#NotoSansCJKsc-Regular-72" transform="translate(851.399811 0)"/>
     <use xlink:href="#NotoSansCJKsc-Regular-29" transform="translate(890.199799 0)"/>
     <use xlink:href="#NotoSansCJKsc-Regular-20" transform="translate(923.999786 0)"/>
     <use xlink:href="#NotoSansCJKsc-Regular-2d" transform="translate(946.39978 0)"/>
     <use xlink:href="#NotoSansCJKsc-Regular-3e" transform="translate(981.099777 0)"/>
     <use xlink:href="#NotoSansCJKsc-Regular-20" transform="translate(1036.599762 0)"/>
     <use xlink:href="#NotoSansCJKsc-Regular-28" transform="translate(1058.999756 0)"/>
     <use xlink:href="#NotoSansCJKsc-Regular-43" transform="translate(1092.799744 0)"/>
     <use xlink:href="#NotoSansCJKsc-Regular-61" transform="translate(1156.599731 0)"/>
     <use xlink:href="#NotoSansCJKsc-Regular-70" transform="translate(1212.899719 0)"/>
     <use xlink:href="#NotoSansCJKsc-Regular-74" transform="translate(1274.899704 0)"/>
     <use xlink:href="#NotoSansCJKsc-Regular-69" transform="translate(1312.599701 0)"/>
     <use xlink:href="#NotoSansCJKsc-Regular-6f" transform="translate(1340.099686 0)"/>
     <use xlink:href="#NotoSansCJKsc-Regular-6e" transform="translate(1400.699677 0)"/>
     <use xlink:href="#NotoSansCJKsc-Regular-2d" transform="translate(1461.699661 0)"/>
     <use xlink:href="#NotoSansCJKsc-Regular-61" transform="translate(1496.399658 0)"/>
     <use xlink:href="#NotoSansCJKsc-Regular-73" transform="translate(1552.699646 0)"/>
     <use xlink:href="#NotoSansCJKsc-Regular-2d" transform="translate(1599.499634 0)"/>
     <use xlink:href="#NotoSansCJKsc-Regular-65" transform="translate(1634.199631 0)"/>
     <use xlink:href="#NotoSansCJKsc-Regular-76" transform="translate(1689.599625 0)"/>
     <use xlink:href="#NotoSansCJKsc-Regular-69" transform="translate(1741.699615 0)"/>
     <use xlink:href="#NotoSansCJKsc-Regular-64" transform="translate(1769.1996 0)"/>
     <use xlink:href="#NotoSansCJKsc-Regular-65" transform="translate(1831.199585 0)"/>
     <use xlink:href="#NotoSansCJKsc-Regular-6e" transform="translate(1886.599579 0)"/>
     <use xlink:href="#NotoSansCJKsc-Regular-63" transform="translate(1947.599564 0)"/>
     <use xlink:href="#NotoSansCJKsc-Regular-65" transform="translate(1998.599548 0)"/>
     <use xlink:href="#NotoSansCJKsc-Regular-29" transform="translate(2053.999542 0)"/>
     <use xlink:href="#NotoSansCJKsc-Regular-20" transform="translate(2087.79953 0)"/>
     <use xlink:href="#NotoSansCJKsc-Regular-2d" transform="translate(2110.199524 0)"/>
     <use xlink:href="#NotoSansCJKsc-Regular-3e" transform="translate(2144.899521 0)"/>
     <use xlink:href="#NotoSansCJKsc-Regular-20" transform="translate(2200.399506 0)"/>
     <use xlink:href="#NotoSansCJKsc-Regular-52" transform="translate(2222.7995 0)"/>
     <use xlink:href="#NotoSansCJKsc-Regular-41" transform="translate(2286.299484 0)"/>
     <use xlink:href="#NotoSansCJKsc-Regular-47" transform="translate(2347.099472 0)"/>
     <use xlink:href="#NotoSansCJKsc-Regular-20" transform="translate(2415.999466 0)"/>
     <use xlink:href="#NotoSansCJKsc-Regular-70" transform="translate(2438.39946 0)"/>
     <use xlink:href="#NotoSansCJKsc-Regular-6f" transform="translate(2500.399445 0)"/>
     <use xlink:href="#NotoSansCJKsc-Regular-6c" transform="translate(2560.999435 0)"/>
     <use xlink:href="#NotoSansCJKsc-Regular-69" transform="translate(2589.399429 0)"/>
     <use xlink:href="#NotoSansCJKsc-Regular-63" transform="translate(2616.899414 0)"/>
     <use xlink:href="#NotoSansCJKsc-Regular-79" transform="translate(2667.899399 0)"/>
     <use xlink:href="#NotoSansCJKsc-Regular-20" transform="translate(2719.99939 0)"/>
     <use xlink:href="#NotoSansCJKsc-Regular-64" transform="translate(2742.399384 0)"/>
     <use xlink:href="#NotoSansCJKsc-Regular-65" transform="translate(2804.399368 0)"/>
     <use xlink:href="#NotoSansCJKsc-Regular-63" transform="translate(2859.799362 0)"/>
     <use xlink:href="#NotoSansCJKsc-Regular-69" transform="translate(2910.799347 0)"/>
     <use xlink:href="#NotoSansCJKsc-Regular-73" transform="translate(2938.299332 0)"/>
     <use xlink:href="#NotoSansCJKsc-Regular-69" transform="translate(2985.099319 0)"/>
     <use xlink:href="#NotoSansCJKsc-Regular-6f" transform="translate(3012.599304 0)"/>
     <use xlink:href="#NotoSansCJKsc-Regular-6e" transform="translate(3073.199295 0)"/>
     <use xlink:href="#NotoSansCJKsc-Regular-20" transform="translate(3134.19928 0)"/>
     <use xlink:href="#NotoSansCJKsc-Regular-2d" transform="translate(3156.599274 0)"/>
     <use xlink:href="#NotoSansCJKsc-Regular-3e" transform="translate(3191.299271 0)"/>
     <use xlink:href="#NotoSansCJKsc-Regular-20" transform="translate(3246.799255 0)"/>
     <use xlink:href="#NotoSansCJKsc-Regular-54" transform="translate(3269.199249 0)"/>
     <use xlink:href="#NotoSansCJKsc-Regular-72" transform="translate(3329.099243 0)"/>
     <use xlink:href="#NotoSansCJKsc-Regular-65" transform="translate(3367.899231 0)"/>
     <use xlink:href="#NotoSansCJKsc-Regular-6e" transform="translate(3423.299225 0)"/>
     <use xlink:href="#NotoSansCJKsc-Regular-64" transform="translate(3484.29921 0)"/>
     <use xlink:href="#NotoSansCJKsc-Regular-20" transform="translate(3546.299194 0)"/>
     <use xlink:href="#NotoSansCJKsc-Regular-67" transform="translate(3568.699188 0)"/>
     <use xlink:href="#NotoSansCJKsc-Regular-6f" transform="translate(3625.099182 0)"/>
     <use xlink:href="#NotoSansCJKsc-Regular-76" transform="translate(3685.699173 0)"/>
     <use xlink:href="#NotoSansCJKsc-Regular-65" transform="translate(3737.799164 0)"/>
     <use xlink:href="#NotoSansCJKsc-Regular-72" transform="translate(3793.199158 0)"/>
     <use xlink:href="#NotoSansCJKsc-Regular-6e" transform="translate(3831.999146 0)"/>
     <use xlink:href="#NotoSansCJKsc-Regular-61" transform="translate(3892.99913 0)"/>
     <use xlink:href="#NotoSansCJKsc-Regular-6e" transform="translate(3949.299118 0)"/>
     <use xlink:href="#NotoSansCJKsc-Regular-63" transform="translate(4010.299103 0)"/>
     <use xlink:href="#NotoSansCJKsc-Regular-65" transform="translate(4061.299088 0)"/>
    </g>
   </g>
   <g id="text_3">
    <!-- Input -->
    <g style="fill: #0891b2" transform="translate(60.283514 106.78712) scale(0.105 -0.105)">
     <defs>
      <path id="NotoSansCJKsc-Bold-70" d="M 506 -1376 
L 1446 -1376 
L 1446 -282 
L 1414 301 
C 1683 51 1990 -90 2304 -90 
C 3091 -90 3827 621 3827 1850 
C 3827 2950 3296 3674 2419 3674 
C 2029 3674 1664 3469 1363 3213 
L 1344 3213 
L 1274 3584 
L 506 3584 
L 506 -1376 
z
M 2099 685 
C 1901 685 1677 755 1446 954 
L 1446 2534 
C 1690 2778 1907 2899 2150 2899 
C 2643 2899 2861 2522 2861 1837 
C 2861 1056 2522 685 2099 685 
z
" transform="scale(0.015625)"/>
     </defs>
     <use xlink:href="#NotoSansCJKsc-Bold-49"/>
     <use xlink:href="#NotoSansCJKsc-Bold-6e" transform="translate(32.999985 0)"/>
     <use xlink:href="#NotoSansCJKsc-Bold-70" transform="translate(97.099976 0)"/>
     <use xlink:href="#NotoSansCJKsc-Bold-75" transform="translate(161.499969 0)"/>
     <use xlink:href="#NotoSansCJKsc-Bold-74" transform="translate(225.199966 0)"/>
    </g>
   </g>
   <g id="text_4">
    <!-- short-form video -->
    <g style="fill: #475569" transform="translate(39.046444 120.873325) scale(0.09 -0.09)">
     <defs>
      <path id="NotoSansCJKsc-Regular-68" d="M 589 0 
L 1178 0 
L 1178 2522 
C 1523 2874 1766 3053 2125 3053 
C 2586 3053 2784 2778 2784 2125 
L 2784 0 
L 3366 0 
L 3366 2202 
C 3366 3085 3034 3565 2304 3565 
C 1830 3565 1472 3302 1152 2982 
L 1178 3699 
L 1178 5094 
L 589 5094 
L 589 0 
z
" transform="scale(0.015625)"/>
      <path id="NotoSansCJKsc-Regular-66" d="M 211 3002 
L 685 3002 
L 685 0 
L 1267 0 
L 1267 3002 
L 2003 3002 
L 2003 3475 
L 1267 3475 
L 1267 4026 
C 1267 4474 1427 4710 1760 4710 
C 1882 4710 2022 4678 2150 4614 
L 2278 5069 
C 2118 5133 1914 5178 1696 5178 
C 1005 5178 685 4736 685 4032 
L 685 3475 
L 211 3443 
L 211 3002 
z
" transform="scale(0.015625)"/>
      <path id="NotoSansCJKsc-Regular-6d" d="M 589 0 
L 1178 0 
L 1178 2522 
C 1491 2880 1786 3053 2048 3053 
C 2490 3053 2694 2778 2694 2125 
L 2694 0 
L 3277 0 
L 3277 2522 
C 3603 2880 3885 3053 4154 3053 
C 4595 3053 4800 2778 4800 2125 
L 4800 0 
L 5382 0 
L 5382 2202 
C 5382 3085 5043 3565 4333 3565 
C 3904 3565 3546 3290 3181 2899 
C 3040 3309 2758 3565 2221 3565 
C 1805 3565 1446 3302 1139 2970 
L 1126 2970 
L 1069 3475 
L 589 3475 
L 589 0 
z
" transform="scale(0.015625)"/>
     </defs>
     <use xlink:href="#NotoSansCJKsc-Regular-73"/>
     <use xlink:href="#NotoSansCJKsc-Regular-68" transform="translate(46.799988 0)"/>
     <use xlink:href="#NotoSansCJKsc-Regular-6f" transform="translate(107.499985 0)"/>
     <use xlink:href="#NotoSansCJKsc-Regular-72" transform="translate(168.099976 0)"/>
     <use xlink:href="#NotoSansCJKsc-Regular-74" transform="translate(206.899963 0)"/>
     <use xlink:href="#NotoSansCJKsc-Regular-2d" transform="translate(244.59996 0)"/>
     <use xlink:href="#NotoSansCJKsc-Regular-66" transform="translate(279.299957 0)"/>
     <use xlink:href="#NotoSansCJKsc-Regular-6f" transform="translate(311.799942 0)"/>
     <use xlink:href="#NotoSansCJKsc-Regular-72" transform="translate(372.399933 0)"/>
     <use xlink:href="#NotoSansCJKsc-Regular-6d" transform="translate(411.199921 0)"/>
     <use xlink:href="#NotoSansCJKsc-Regular-20" transform="translate(503.799911 0)"/>
     <use xlink:href="#NotoSansCJKsc-Regular-76" transform="translate(526.199905 0)"/>
     <use xlink:href="#NotoSansCJKsc-Regular-69" transform="translate(578.299896 0)"/>
     <use xlink:href="#NotoSansCJKsc-Regular-64" transform="translate(605.799881 0)"/>
     <use xlink:href="#NotoSansCJKsc-Regular-65" transform="translate(667.799866 0)"/>
     <use xlink:href="#NotoSansCJKsc-Regular-6f" transform="translate(723.19986 0)"/>
    </g>
   </g>
   <g id="text_5">
    <!-- (frames + audio) -->
    <g style="fill: #475569" transform="translate(40.234022 133.624526) scale(0.09 -0.09)">
     <defs>
      <path id="NotoSansCJKsc-Regular-2b" d="M 1542 742 
L 2010 742 
L 2010 2144 
L 3315 2144 
L 3315 2579 
L 2010 2579 
L 2010 3981 
L 1542 3981 
L 1542 2579 
L 243 2579 
L 243 2144 
L 1542 2144 
L 1542 742 
z
" transform="scale(0.015625)"/>
      <path id="NotoSansCJKsc-Regular-75" d="M 1606 -83 
C 2080 -83 2426 166 2752 544 
L 2771 544 
L 2816 0 
L 3302 0 
L 3302 3475 
L 2720 3475 
L 2720 1011 
C 2387 602 2138 422 1779 422 
C 1318 422 1126 698 1126 1344 
L 1126 3475 
L 538 3475 
L 538 1274 
C 538 384 870 -83 1606 -83 
z
" transform="scale(0.015625)"/>
     </defs>
     <use xlink:href="#NotoSansCJKsc-Regular-28"/>
     <use xlink:href="#NotoSansCJKsc-Regular-66" transform="translate(33.799988 0)"/>
     <use xlink:href="#NotoSansCJKsc-Regular-72" transform="translate(66.299973 0)"/>
     <use xlink:href="#NotoSansCJKsc-Regular-61" transform="translate(105.09996 0)"/>
     <use xlink:href="#NotoSansCJKsc-Regular-6d" transform="translate(161.399948 0)"/>
     <use xlink:href="#NotoSansCJKsc-Regular-65" transform="translate(253.999939 0)"/>
     <use xlink:href="#NotoSansCJKsc-Regular-73" transform="translate(309.399933 0)"/>
     <use xlink:href="#NotoSansCJKsc-Regular-20" transform="translate(356.199921 0)"/>
     <use xlink:href="#NotoSansCJKsc-Regular-2b" transform="translate(378.599915 0)"/>
     <use xlink:href="#NotoSansCJKsc-Regular-20" transform="translate(434.099899 0)"/>
     <use xlink:href="#NotoSansCJKsc-Regular-61" transform="translate(456.499893 0)"/>
     <use xlink:href="#NotoSansCJKsc-Regular-75" transform="translate(512.799881 0)"/>
     <use xlink:href="#NotoSansCJKsc-Regular-64" transform="translate(573.499878 0)"/>
     <use xlink:href="#NotoSansCJKsc-Regular-69" transform="translate(635.499863 0)"/>
     <use xlink:href="#NotoSansCJKsc-Regular-6f" transform="translate(662.999847 0)"/>
     <use xlink:href="#NotoSansCJKsc-Regular-29" transform="translate(723.599838 0)"/>
    </g>
   </g>
   <g id="text_6">
    <!-- policy taxonomy -->
    <g style="fill: #475569" transform="translate(39.456366 146.375725) scale(0.09 -0.09)">
     <defs>
      <path id="NotoSansCJKsc-Regular-78" d="M 96 0 
L 710 0 
L 1178 813 
C 1299 1024 1408 1235 1530 1434 
L 1562 1434 
C 1696 1235 1824 1024 1939 813 
L 2451 0 
L 3091 0 
L 1946 1754 
L 3002 3475 
L 2394 3475 
L 1965 2714 
C 1856 2515 1760 2330 1658 2131 
L 1626 2131 
C 1510 2330 1389 2515 1286 2714 
L 819 3475 
L 186 3475 
L 1242 1811 
L 96 0 
z
" transform="scale(0.015625)"/>
     </defs>
     <use xlink:href="#NotoSansCJKsc-Regular-70"/>
     <use xlink:href="#NotoSansCJKsc-Regular-6f" transform="translate(61.999985 0)"/>
     <use xlink:href="#NotoSansCJKsc-Regular-6c" transform="translate(122.599976 0)"/>
     <use xlink:href="#NotoSansCJKsc-Regular-69" transform="translate(150.999969 0)"/>
     <use xlink:href="#NotoSansCJKsc-Regular-63" transform="translate(178.499954 0)"/>
     <use xlink:href="#NotoSansCJKsc-Regular-79" transform="translate(229.499939 0)"/>
     <use xlink:href="#NotoSansCJKsc-Regular-20" transform="translate(281.59993 0)"/>
     <use xlink:href="#NotoSansCJKsc-Regular-74" transform="translate(303.999924 0)"/>
     <use xlink:href="#NotoSansCJKsc-Regular-61" transform="translate(341.699921 0)"/>
     <use xlink:href="#NotoSansCJKsc-Regular-78" transform="translate(397.999908 0)"/>
     <use xlink:href="#NotoSansCJKsc-Regular-6f" transform="translate(447.799896 0)"/>
     <use xlink:href="#NotoSansCJKsc-Regular-6e" transform="translate(508.399887 0)"/>
     <use xlink:href="#NotoSansCJKsc-Regular-6f" transform="translate(569.399872 0)"/>
     <use xlink:href="#NotoSansCJKsc-Regular-6d" transform="translate(629.999863 0)"/>
     <use xlink:href="#NotoSansCJKsc-Regular-79" transform="translate(722.599854 0)"/>
    </g>
   </g>
   <g id="text_7">
    <!-- Risk Filter -->
    <g style="fill: #2563eb" transform="translate(185.185172 106.78712) scale(0.105 -0.105)">
     <defs>
      <path id="NotoSansCJKsc-Bold-52" d="M 1530 2541 
L 1530 3987 
L 2144 3987 
C 2752 3987 3085 3814 3085 3302 
C 3085 2797 2752 2541 2144 2541 
L 1530 2541 
z
M 3162 0 
L 4218 0 
L 3110 1939 
C 3654 2150 4013 2592 4013 3302 
C 4013 4390 3226 4742 2227 4742 
L 582 4742 
L 582 0 
L 1530 0 
L 1530 1792 
L 2189 1792 
L 3162 0 
z
" transform="scale(0.015625)"/>
      <path id="NotoSansCJKsc-Bold-6b" d="M 506 0 
L 1434 0 
L 1434 909 
L 1933 1491 
L 2803 0 
L 3827 0 
L 2483 2106 
L 3712 3584 
L 2682 3584 
L 1459 2048 
L 1434 2048 
L 1434 5107 
L 506 5107 
L 506 0 
z
" transform="scale(0.015625)"/>
      <path id="NotoSansCJKsc-Bold-46" d="M 582 0 
L 1530 0 
L 1530 1920 
L 3213 1920 
L 3213 2714 
L 1530 2714 
L 1530 3949 
L 3501 3949 
L 3501 4742 
L 582 4742 
L 582 0 
z
" transform="scale(0.015625)"/>
     </defs>
     <use xlink:href="#NotoSansCJKsc-Bold-52"/>
     <use xlink:href="#NotoSansCJKsc-Bold-69" transform="translate(68.199982 0)"/>
     <use xlink:href="#NotoSansCJKsc-Bold-73" transform="translate(98.599976 0)"/>
     <use xlink:href="#NotoSansCJKsc-Bold-6b" transform="translate(148.09996 0)"/>
     <use xlink:href="#NotoSansCJKsc-Bold-20" transform="translate(208.499954 0)"/>
     <use xlink:href="#NotoSansCJKsc-Bold-46" transform="translate(231.199951 0)"/>
     <use xlink:href="#NotoSansCJKsc-Bold-69" transform="translate(289.699936 0)"/>
     <use xlink:href="#NotoSansCJKsc-Bold-6c" transform="translate(320.09993 0)"/>
     <use xlink:href="#NotoSansCJKsc-Bold-74" transform="translate(351.599915 0)"/>
     <use xlink:href="#NotoSansCJKsc-Bold-65" transform="translate(393.699905 0)"/>
     <use xlink:href="#NotoSansCJKsc-Bold-72" transform="translate(451.799896 0)"/>
    </g>
   </g>
   <g id="text_8">
    <!-- UNIVID embedding -->
    <g style="fill: #475569" transform="translate(171.333141 120.873325) scale(0.09 -0.09)">
     <defs>
      <path id="NotoSansCJKsc-Regular-55" d="M 2310 -83 
C 3264 -83 3994 429 3994 1933 
L 3994 4691 
L 3424 4691 
L 3424 1920 
C 3424 794 2931 435 2310 435 
C 1696 435 1216 794 1216 1920 
L 1216 4691 
L 627 4691 
L 627 1933 
C 627 429 1350 -83 2310 -83 
z
" transform="scale(0.015625)"/>
      <path id="NotoSansCJKsc-Regular-4e" d="M 646 0 
L 1203 0 
L 1203 2464 
C 1203 2957 1158 3456 1133 3930 
L 1158 3930 
L 1664 2963 
L 3373 0 
L 3981 0 
L 3981 4691 
L 3418 4691 
L 3418 2253 
C 3418 1766 3462 1235 3501 768 
L 3469 768 
L 2963 1734 
L 1248 4691 
L 646 4691 
L 646 0 
z
" transform="scale(0.015625)"/>
      <path id="NotoSansCJKsc-Regular-49" d="M 646 0 
L 1235 0 
L 1235 4691 
L 646 4691 
L 646 0 
z
" transform="scale(0.015625)"/>
      <path id="NotoSansCJKsc-Regular-44" d="M 646 0 
L 1843 0 
C 3258 0 4026 877 4026 2362 
C 4026 3859 3258 4691 1818 4691 
L 646 4691 
L 646 0 
z
M 1235 486 
L 1235 4211 
L 1766 4211 
C 2874 4211 3418 3552 3418 2362 
C 3418 1178 2874 486 1766 486 
L 1235 486 
z
" transform="scale(0.015625)"/>
      <path id="NotoSansCJKsc-Regular-62" d="M 2118 -83 
C 2912 -83 3629 602 3629 1792 
C 3629 2867 3142 3565 2246 3565 
C 1856 3565 1472 3347 1152 3078 
L 1178 3699 
L 1178 5094 
L 589 5094 
L 589 0 
L 1056 0 
L 1107 358 
L 1133 358 
C 1434 83 1798 -83 2118 -83 
z
M 2022 410 
C 1792 410 1478 499 1178 768 
L 1178 2598 
C 1504 2906 1811 3072 2099 3072 
C 2765 3072 3021 2560 3021 1786 
C 3021 928 2598 410 2022 410 
z
" transform="scale(0.015625)"/>
     </defs>
     <use xlink:href="#NotoSansCJKsc-Regular-55"/>
     <use xlink:href="#NotoSansCJKsc-Regular-4e" transform="translate(72.099991 0)"/>
     <use xlink:href="#NotoSansCJKsc-Regular-49" transform="translate(144.399979 0)"/>
     <use xlink:href="#NotoSansCJKsc-Regular-56" transform="translate(173.699966 0)"/>
     <use xlink:href="#NotoSansCJKsc-Regular-49" transform="translate(231.199951 0)"/>
     <use xlink:href="#NotoSansCJKsc-Regular-44" transform="translate(260.499939 0)"/>
     <use xlink:href="#NotoSansCJKsc-Regular-20" transform="translate(329.299927 0)"/>
     <use xlink:href="#NotoSansCJKsc-Regular-65" transform="translate(351.699921 0)"/>
     <use xlink:href="#NotoSansCJKsc-Regular-6d" transform="translate(407.099915 0)"/>
     <use xlink:href="#NotoSansCJKsc-Regular-62" transform="translate(499.699905 0)"/>
     <use xlink:href="#NotoSansCJKsc-Regular-65" transform="translate(561.499893 0)"/>
     <use xlink:href="#NotoSansCJKsc-Regular-64" transform="translate(616.899887 0)"/>
     <use xlink:href="#NotoSansCJKsc-Regular-64" transform="translate(678.899872 0)"/>
     <use xlink:href="#NotoSansCJKsc-Regular-69" transform="translate(740.899857 0)"/>
     <use xlink:href="#NotoSansCJKsc-Regular-6e" transform="translate(768.399841 0)"/>
     <use xlink:href="#NotoSansCJKsc-Regular-67" transform="translate(829.399826 0)"/>
    </g>
   </g>
   <g id="text_9">
    <!-- high-throughput -->
    <g style="fill: #475569" transform="translate(176.272594 133.624526) scale(0.09 -0.09)">
     <use xlink:href="#NotoSansCJKsc-Regular-68"/>
     <use xlink:href="#NotoSansCJKsc-Regular-69" transform="translate(60.699997 0)"/>
     <use xlink:href="#NotoSansCJKsc-Regular-67" transform="translate(88.199982 0)"/>
     <use xlink:href="#NotoSansCJKsc-Regular-68" transform="translate(144.599976 0)"/>
     <use xlink:href="#NotoSansCJKsc-Regular-2d" transform="translate(205.299973 0)"/>
     <use xlink:href="#NotoSansCJKsc-Regular-74" transform="translate(239.999969 0)"/>
     <use xlink:href="#NotoSansCJKsc-Regular-68" transform="translate(277.699966 0)"/>
     <use xlink:href="#NotoSansCJKsc-Regular-72" transform="translate(338.399963 0)"/>
     <use xlink:href="#NotoSansCJKsc-Regular-6f" transform="translate(377.199951 0)"/>
     <use xlink:href="#NotoSansCJKsc-Regular-75" transform="translate(437.799942 0)"/>
     <use xlink:href="#NotoSansCJKsc-Regular-67" transform="translate(498.499939 0)"/>
     <use xlink:href="#NotoSansCJKsc-Regular-68" transform="translate(554.899933 0)"/>
     <use xlink:href="#NotoSansCJKsc-Regular-70" transform="translate(615.59993 0)"/>
     <use xlink:href="#NotoSansCJKsc-Regular-75" transform="translate(677.599915 0)"/>
     <use xlink:href="#NotoSansCJKsc-Regular-74" transform="translate(738.299911 0)"/>
    </g>
   </g>
   <g id="text_10">
    <!-- pre-screen -->
    <g style="fill: #475569" transform="translate(188.724938 146.375725) scale(0.09 -0.09)">
     <use xlink:href="#NotoSansCJKsc-Regular-70"/>
     <use xlink:href="#NotoSansCJKsc-Regular-72" transform="translate(61.999985 0)"/>
     <use xlink:href="#NotoSansCJKsc-Regular-65" transform="translate(100.799973 0)"/>
     <use xlink:href="#NotoSansCJKsc-Regular-2d" transform="translate(156.199966 0)"/>
     <use xlink:href="#NotoSansCJKsc-Regular-73" transform="translate(190.899963 0)"/>
     <use xlink:href="#NotoSansCJKsc-Regular-63" transform="translate(237.699951 0)"/>
     <use xlink:href="#NotoSansCJKsc-Regular-72" transform="translate(288.699936 0)"/>
     <use xlink:href="#NotoSansCJKsc-Regular-65" transform="translate(327.499924 0)"/>
     <use xlink:href="#NotoSansCJKsc-Regular-65" transform="translate(382.899918 0)"/>
     <use xlink:href="#NotoSansCJKsc-Regular-6e" transform="translate(438.299911 0)"/>
    </g>
   </g>
   <g id="text_11">
    <!-- UNIVID-Lite -->
    <g style="fill: #7c3aed" transform="translate(317.915072 106.78712) scale(0.105 -0.105)">
     <use xlink:href="#NotoSansCJKsc-Bold-55"/>
     <use xlink:href="#NotoSansCJKsc-Bold-4e" transform="translate(74.799988 0)"/>
     <use xlink:href="#NotoSansCJKsc-Bold-49" transform="translate(149.699982 0)"/>
     <use xlink:href="#NotoSansCJKsc-Bold-56" transform="translate(182.699966 0)"/>
     <use xlink:href="#NotoSansCJKsc-Bold-49" transform="translate(244.59996 0)"/>
     <use xlink:href="#NotoSansCJKsc-Bold-44" transform="translate(277.599945 0)"/>
     <use xlink:href="#NotoSansCJKsc-Bold-2d" transform="translate(348.999939 0)"/>
     <use xlink:href="#NotoSansCJKsc-Bold-4c" transform="translate(385.999924 0)"/>
     <use xlink:href="#NotoSansCJKsc-Bold-69" transform="translate(443.799911 0)"/>
     <use xlink:href="#NotoSansCJKsc-Bold-74" transform="translate(474.199905 0)"/>
     <use xlink:href="#NotoSansCJKsc-Bold-65" transform="translate(516.299896 0)"/>
    </g>
   </g>
   <g id="text_12">
    <!-- policy-aware -->
    <g style="fill: #475569" transform="translate(320.923041 120.873325) scale(0.09 -0.09)">
     <defs>
      <path id="NotoSansCJKsc-Regular-77" d="M 1139 0 
L 1818 0 
L 2310 1862 
C 2400 2195 2470 2522 2547 2874 
L 2579 2874 
C 2662 2522 2726 2202 2816 1875 
L 3315 0 
L 4026 0 
L 4966 3475 
L 4403 3475 
L 3898 1466 
C 3821 1133 3757 819 3686 499 
L 3654 499 
C 3571 819 3494 1133 3411 1466 
L 2867 3475 
L 2298 3475 
L 1754 1466 
C 1670 1133 1594 819 1523 499 
L 1491 499 
C 1421 819 1357 1133 1286 1466 
L 768 3475 
L 173 3475 
L 1139 0 
z
" transform="scale(0.015625)"/>
     </defs>
     <use xlink:href="#NotoSansCJKsc-Regular-70"/>
     <use xlink:href="#NotoSansCJKsc-Regular-6f" transform="translate(61.999985 0)"/>
     <use xlink:href="#NotoSansCJKsc-Regular-6c" transform="translate(122.599976 0)"/>
     <use xlink:href="#NotoSansCJKsc-Regular-69" transform="translate(150.999969 0)"/>
     <use xlink:href="#NotoSansCJKsc-Regular-63" transform="translate(178.499954 0)"/>
     <use xlink:href="#NotoSansCJKsc-Regular-79" transform="translate(229.499939 0)"/>
     <use xlink:href="#NotoSansCJKsc-Regular-2d" transform="translate(281.59993 0)"/>
     <use xlink:href="#NotoSansCJKsc-Regular-61" transform="translate(316.299927 0)"/>
     <use xlink:href="#NotoSansCJKsc-Regular-77" transform="translate(372.599915 0)"/>
     <use xlink:href="#NotoSansCJKsc-Regular-61" transform="translate(452.799896 0)"/>
     <use xlink:href="#NotoSansCJKsc-Regular-72" transform="translate(509.099884 0)"/>
     <use xlink:href="#NotoSansCJKsc-Regular-65" transform="translate(547.899872 0)"/>
    </g>
   </g>
   <g id="text_13">
    <!-- captions as -->
    <g style="fill: #475569" transform="translate(324.293822 133.624526) scale(0.09 -0.09)">
     <use xlink:href="#NotoSansCJKsc-Regular-63"/>
     <use xlink:href="#NotoSansCJKsc-Regular-61" transform="translate(50.999985 0)"/>
     <use xlink:href="#NotoSansCJKsc-Regular-70" transform="translate(107.299973 0)"/>
     <use xlink:href="#NotoSansCJKsc-Regular-74" transform="translate(169.299957 0)"/>
     <use xlink:href="#NotoSansCJKsc-Regular-69" transform="translate(206.999954 0)"/>
     <use xlink:href="#NotoSansCJKsc-Regular-6f" transform="translate(234.499939 0)"/>
     <use xlink:href="#NotoSansCJKsc-Regular-6e" transform="translate(295.09993 0)"/>
     <use xlink:href="#NotoSansCJKsc-Regular-73" transform="translate(356.099915 0)"/>
     <use xlink:href="#NotoSansCJKsc-Regular-20" transform="translate(402.899902 0)"/>
     <use xlink:href="#NotoSansCJKsc-Regular-61" transform="translate(425.299896 0)"/>
     <use xlink:href="#NotoSansCJKsc-Regular-73" transform="translate(481.599884 0)"/>
    </g>
   </g>
   <g id="text_14">
    <!-- evidence -->
    <g style="fill: #475569" transform="translate(329.179838 146.375725) scale(0.09 -0.09)">
     <use xlink:href="#NotoSansCJKsc-Regular-65"/>
     <use xlink:href="#NotoSansCJKsc-Regular-76" transform="translate(55.399994 0)"/>
     <use xlink:href="#NotoSansCJKsc-Regular-69" transform="translate(107.499985 0)"/>
     <use xlink:href="#NotoSansCJKsc-Regular-64" transform="translate(134.999969 0)"/>
     <use xlink:href="#NotoSansCJKsc-Regular-65" transform="translate(196.999954 0)"/>
     <use xlink:href="#NotoSansCJKsc-Regular-6e" transform="translate(252.399948 0)"/>
     <use xlink:href="#NotoSansCJKsc-Regular-63" transform="translate(313.399933 0)"/>
     <use xlink:href="#NotoSansCJKsc-Regular-65" transform="translate(364.399918 0)"/>
    </g>
   </g>
   <g id="text_15">
    <!-- UNIVID-RAG -->
    <g style="fill: #d97706" transform="translate(453.97298 106.78712) scale(0.105 -0.105)">
     <defs>
      <path id="NotoSansCJKsc-Bold-41" d="M -26 0 
L 934 0 
L 1267 1216 
L 2797 1216 
L 3130 0 
L 4128 0 
L 2611 4742 
L 1491 4742 
L -26 0 
z
M 1472 1952 
L 1613 2470 
C 1754 2963 1888 3501 2016 4019 
L 2042 4019 
C 2182 3514 2310 2963 2458 2470 
L 2598 1952 
L 1472 1952 
z
" transform="scale(0.015625)"/>
      <path id="NotoSansCJKsc-Bold-47" d="M 2618 -90 
C 3270 -90 3834 160 4160 480 
L 4160 2618 
L 2470 2618 
L 2470 1843 
L 3309 1843 
L 3309 909 
C 3181 794 2944 730 2720 730 
C 1786 730 1318 1350 1318 2381 
C 1318 3398 1856 4013 2650 4013 
C 3072 4013 3341 3840 3578 3616 
L 4083 4218 
C 3776 4531 3302 4826 2618 4826 
C 1357 4826 346 3910 346 2349 
C 346 768 1331 -90 2618 -90 
z
" transform="scale(0.015625)"/>
     </defs>
     <use xlink:href="#NotoSansCJKsc-Bold-55"/>
     <use xlink:href="#NotoSansCJKsc-Bold-4e" transform="translate(74.799988 0)"/>
     <use xlink:href="#NotoSansCJKsc-Bold-49" transform="translate(149.699982 0)"/>
     <use xlink:href="#NotoSansCJKsc-Bold-56" transform="translate(182.699966 0)"/>
     <use xlink:href="#NotoSansCJKsc-Bold-49" transform="translate(244.59996 0)"/>
     <use xlink:href="#NotoSansCJKsc-Bold-44" transform="translate(277.599945 0)"/>
     <use xlink:href="#NotoSansCJKsc-Bold-2d" transform="translate(348.999939 0)"/>
     <use xlink:href="#NotoSansCJKsc-Bold-52" transform="translate(385.999924 0)"/>
     <use xlink:href="#NotoSansCJKsc-Bold-41" transform="translate(454.199905 0)"/>
     <use xlink:href="#NotoSansCJKsc-Bold-47" transform="translate(518.299896 0)"/>
    </g>
   </g>
   <g id="text_16">
    <!-- retrieve policy -->
    <g style="fill: #475569" transform="translate(455.018878 120.873325) scale(0.09 -0.09)">
     <use xlink:href="#NotoSansCJKsc-Regular-72"/>
     <use xlink:href="#NotoSansCJKsc-Regular-65" transform="translate(38.799988 0)"/>
     <use xlink:href="#NotoSansCJKsc-Regular-74" transform="translate(94.199982 0)"/>
     <use xlink:href="#NotoSansCJKsc-Regular-72" transform="translate(131.899979 0)"/>
     <use xlink:href="#NotoSansCJKsc-Regular-69" transform="translate(170.699966 0)"/>
     <use xlink:href="#NotoSansCJKsc-Regular-65" transform="translate(198.199951 0)"/>
     <use xlink:href="#NotoSansCJKsc-Regular-76" transform="translate(253.599945 0)"/>
     <use xlink:href="#NotoSansCJKsc-Regular-65" transform="translate(305.699936 0)"/>
     <use xlink:href="#NotoSansCJKsc-Regular-20" transform="translate(361.09993 0)"/>
     <use xlink:href="#NotoSansCJKsc-Regular-70" transform="translate(383.499924 0)"/>
     <use xlink:href="#NotoSansCJKsc-Regular-6f" transform="translate(445.499908 0)"/>
     <use xlink:href="#NotoSansCJKsc-Regular-6c" transform="translate(506.099899 0)"/>
     <use xlink:href="#NotoSansCJKsc-Regular-69" transform="translate(534.499893 0)"/>
     <use xlink:href="#NotoSansCJKsc-Regular-63" transform="translate(561.999878 0)"/>
     <use xlink:href="#NotoSansCJKsc-Regular-79" transform="translate(612.999863 0)"/>
    </g>
   </g>
   <g id="text_17">
    <!-- + examples -->
    <g style="fill: #475569" transform="translate(461.341378 133.624526) scale(0.09 -0.09)">
     <use xlink:href="#NotoSansCJKsc-Regular-2b"/>
     <use xlink:href="#NotoSansCJKsc-Regular-20" transform="translate(55.499985 0)"/>
     <use xlink:href="#NotoSansCJKsc-Regular-65" transform="translate(77.899979 0)"/>
     <use xlink:href="#NotoSansCJKsc-Regular-78" transform="translate(133.299973 0)"/>
     <use xlink:href="#NotoSansCJKsc-Regular-61" transform="translate(183.09996 0)"/>
     <use xlink:href="#NotoSansCJKsc-Regular-6d" transform="translate(239.399948 0)"/>
     <use xlink:href="#NotoSansCJKsc-Regular-70" transform="translate(331.999939 0)"/>
     <use xlink:href="#NotoSansCJKsc-Regular-6c" transform="translate(393.999924 0)"/>
     <use xlink:href="#NotoSansCJKsc-Regular-65" transform="translate(422.399918 0)"/>
     <use xlink:href="#NotoSansCJKsc-Regular-73" transform="translate(477.799911 0)"/>
    </g>
   </g>
   <g id="text_18">
    <!-- decision -->
    <g style="fill: #475569" transform="translate(467.317941 146.375725) scale(0.09 -0.09)">
     <use xlink:href="#NotoSansCJKsc-Regular-64"/>
     <use xlink:href="#NotoSansCJKsc-Regular-65" transform="translate(61.999985 0)"/>
     <use xlink:href="#NotoSansCJKsc-Regular-63" transform="translate(117.399979 0)"/>
     <use xlink:href="#NotoSansCJKsc-Regular-69" transform="translate(168.399963 0)"/>
     <use xlink:href="#NotoSansCJKsc-Regular-73" transform="translate(195.899948 0)"/>
     <use xlink:href="#NotoSansCJKsc-Regular-69" transform="translate(242.699936 0)"/>
     <use xlink:href="#NotoSansCJKsc-Regular-6f" transform="translate(270.199921 0)"/>
     <use xlink:href="#NotoSansCJKsc-Regular-6e" transform="translate(330.799911 0)"/>
    </g>
   </g>
   <g id="text_19">
    <!-- Trend -->
    <g style="fill: #10b981" transform="translate(546.614606 106.78712) scale(0.105 -0.105)">
     <defs>
      <path id="NotoSansCJKsc-Bold-54" d="M 1523 0 
L 2470 0 
L 2470 3949 
L 3808 3949 
L 3808 4742 
L 192 4742 
L 192 3949 
L 1523 3949 
L 1523 0 
z
" transform="scale(0.015625)"/>
     </defs>
     <use xlink:href="#NotoSansCJKsc-Bold-54"/>
     <use xlink:href="#NotoSansCJKsc-Bold-72" transform="translate(62.499985 0)"/>
     <use xlink:href="#NotoSansCJKsc-Bold-65" transform="translate(106.099976 0)"/>
     <use xlink:href="#NotoSansCJKsc-Bold-6e" transform="translate(164.199966 0)"/>
     <use xlink:href="#NotoSansCJKsc-Bold-64" transform="translate(228.299957 0)"/>
    </g>
   </g>
   <g id="text_20">
    <!-- few-shot -->
    <g style="fill: #475569" transform="translate(543.593278 120.873325) scale(0.09 -0.09)">
     <use xlink:href="#NotoSansCJKsc-Regular-66"/>
     <use xlink:href="#NotoSansCJKsc-Regular-65" transform="translate(32.499985 0)"/>
     <use xlink:href="#NotoSansCJKsc-Regular-77" transform="translate(87.899979 0)"/>
     <use xlink:href="#NotoSansCJKsc-Regular-2d" transform="translate(168.09996 0)"/>
     <use xlink:href="#NotoSansCJKsc-Regular-73" transform="translate(202.799957 0)"/>
     <use xlink:href="#NotoSansCJKsc-Regular-68" transform="translate(249.599945 0)"/>
     <use xlink:href="#NotoSansCJKsc-Regular-6f" transform="translate(310.299942 0)"/>
     <use xlink:href="#NotoSansCJKsc-Regular-74" transform="translate(370.899933 0)"/>
    </g>
   </g>
   <g id="text_21">
    <!-- emerging risks -->
    <g style="fill: #475569" transform="translate(531.334997 133.624526) scale(0.09 -0.09)">
     <use xlink:href="#NotoSansCJKsc-Regular-65"/>
     <use xlink:href="#NotoSansCJKsc-Regular-6d" transform="translate(55.399994 0)"/>
     <use xlink:href="#NotoSansCJKsc-Regular-65" transform="translate(147.999985 0)"/>
     <use xlink:href="#NotoSansCJKsc-Regular-72" transform="translate(203.399979 0)"/>
     <use xlink:href="#NotoSansCJKsc-Regular-67" transform="translate(242.199966 0)"/>
     <use xlink:href="#NotoSansCJKsc-Regular-69" transform="translate(298.59996 0)"/>
     <use xlink:href="#NotoSansCJKsc-Regular-6e" transform="translate(326.099945 0)"/>
     <use xlink:href="#NotoSansCJKsc-Regular-67" transform="translate(387.09993 0)"/>
     <use xlink:href="#NotoSansCJKsc-Regular-20" transform="translate(443.499924 0)"/>
     <use xlink:href="#NotoSansCJKsc-Regular-72" transform="translate(465.899918 0)"/>
     <use xlink:href="#NotoSansCJKsc-Regular-69" transform="translate(504.699905 0)"/>
     <use xlink:href="#NotoSansCJKsc-Regular-73" transform="translate(532.19989 0)"/>
     <use xlink:href="#NotoSansCJKsc-Regular-6b" transform="translate(578.999878 0)"/>
     <use xlink:href="#NotoSansCJKsc-Regular-73" transform="translate(634.199875 0)"/>
    </g>
   </g>
   <g id="text_22">
    <!-- Key idea: turn moderation into interpretable caption generation; captions become verifiable evidence. -->
    <g style="fill: #64748b" transform="translate(101.418047 246.11256) scale(0.09 -0.09)">
     <defs>
      <path id="NotoSansCJKsc-Regular-4b" d="M 646 0 
L 1235 0 
L 1235 1485 
L 2042 2445 
L 3450 0 
L 4109 0 
L 2413 2912 
L 3885 4691 
L 3213 4691 
L 1248 2336 
L 1235 2336 
L 1235 4691 
L 646 4691 
L 646 0 
z
" transform="scale(0.015625)"/>
      <path id="NotoSansCJKsc-Regular-3a" d="M 890 2496 
C 1120 2496 1312 2675 1312 2944 
C 1312 3206 1120 3392 890 3392 
C 653 3392 467 3206 467 2944 
C 467 2675 653 2496 890 2496 
z
M 890 -83 
C 1120 -83 1312 96 1312 358 
C 1312 627 1120 806 890 806 
C 653 806 467 627 467 358 
C 467 96 653 -83 890 -83 
z
" transform="scale(0.015625)"/>
      <path id="NotoSansCJKsc-Regular-3b" d="M 890 2496 
C 1120 2496 1312 2675 1312 2944 
C 1312 3206 1120 3392 890 3392 
C 653 3392 467 3206 467 2944 
C 467 2675 653 2496 890 2496 
z
M 480 -1216 
C 1056 -973 1414 -493 1414 122 
C 1414 550 1229 806 922 806 
C 685 806 480 653 480 397 
C 480 141 678 -13 909 -13 
L 979 -6 
C 973 -390 736 -698 339 -870 
L 480 -1216 
z
" transform="scale(0.015625)"/>
      <path id="NotoSansCJKsc-Regular-2e" d="M 890 -83 
C 1120 -83 1312 96 1312 358 
C 1312 627 1120 806 890 806 
C 653 806 467 627 467 358 
C 467 96 653 -83 890 -83 
z
" transform="scale(0.015625)"/>
     </defs>
     <use xlink:href="#NotoSansCJKsc-Regular-4b"/>
     <use xlink:href="#NotoSansCJKsc-Regular-65" transform="translate(64.599991 0)"/>
     <use xlink:href="#NotoSansCJKsc-Regular-79" transform="translate(119.999985 0)"/>
     <use xlink:href="#NotoSansCJKsc-Regular-20" transform="translate(172.099976 0)"/>
     <use xlink:href="#NotoSansCJKsc-Regular-69" transform="translate(194.499969 0)"/>
     <use xlink:href="#NotoSansCJKsc-Regular-64" transform="translate(221.999954 0)"/>
     <use xlink:href="#NotoSansCJKsc-Regular-65" transform="translate(283.999939 0)"/>
     <use xlink:href="#NotoSansCJKsc-Regular-61" transform="translate(339.399933 0)"/>
     <use xlink:href="#NotoSansCJKsc-Regular-3a" transform="translate(395.699921 0)"/>
     <use xlink:href="#NotoSansCJKsc-Regular-20" transform="translate(423.499908 0)"/>
     <use xlink:href="#NotoSansCJKsc-Regular-74" transform="translate(445.899902 0)"/>
     <use xlink:href="#NotoSansCJKsc-Regular-75" transform="translate(483.599899 0)"/>
     <use xlink:href="#NotoSansCJKsc-Regular-72" transform="translate(544.299896 0)"/>
     <use xlink:href="#NotoSansCJKsc-Regular-6e" transform="translate(583.099884 0)"/>
     <use xlink:href="#NotoSansCJKsc-Regular-20" transform="translate(644.099869 0)"/>
     <use xlink:href="#NotoSansCJKsc-Regular-6d" transform="translate(666.499863 0)"/>
     <use xlink:href="#NotoSansCJKsc-Regular-6f" transform="translate(759.099854 0)"/>
     <use xlink:href="#NotoSansCJKsc-Regular-64" transform="translate(819.699844 0)"/>
     <use xlink:href="#NotoSansCJKsc-Regular-65" transform="translate(881.699829 0)"/>
     <use xlink:href="#NotoSansCJKsc-Regular-72" transform="translate(937.099823 0)"/>
     <use xlink:href="#NotoSansCJKsc-Regular-61" transform="translate(975.899811 0)"/>
     <use xlink:href="#NotoSansCJKsc-Regular-74" transform="translate(1032.199799 0)"/>
     <use xlink:href="#NotoSansCJKsc-Regular-69" transform="translate(1069.899796 0)"/>
     <use xlink:href="#NotoSansCJKsc-Regular-6f" transform="translate(1097.39978 0)"/>
     <use xlink:href="#NotoSansCJKsc-Regular-6e" transform="translate(1157.999771 0)"/>
     <use xlink:href="#NotoSansCJKsc-Regular-20" transform="translate(1218.999756 0)"/>
     <use xlink:href="#NotoSansCJKsc-Regular-69" transform="translate(1241.39975 0)"/>
     <use xlink:href="#NotoSansCJKsc-Regular-6e" transform="translate(1268.899734 0)"/>
     <use xlink:href="#NotoSansCJKsc-Regular-74" transform="translate(1329.899719 0)"/>
     <use xlink:href="#NotoSansCJKsc-Regular-6f" transform="translate(1367.599716 0)"/>
     <use xlink:href="#NotoSansCJKsc-Regular-20" transform="translate(1428.199707 0)"/>
     <use xlink:href="#NotoSansCJKsc-Regular-69" transform="translate(1450.599701 0)"/>
     <use xlink:href="#NotoSansCJKsc-Regular-6e" transform="translate(1478.099686 0)"/>
     <use xlink:href="#NotoSansCJKsc-Regular-74" transform="translate(1539.09967 0)"/>
     <use xlink:href="#NotoSansCJKsc-Regular-65" transform="translate(1576.799667 0)"/>
     <use xlink:href="#NotoSansCJKsc-Regular-72" transform="translate(1632.199661 0)"/>
     <use xlink:href="#NotoSansCJKsc-Regular-70" transform="translate(1670.999649 0)"/>
     <use xlink:href="#NotoSansCJKsc-Regular-72" transform="translate(1732.999634 0)"/>
     <use xlink:href="#NotoSansCJKsc-Regular-65" transform="translate(1771.799622 0)"/>
     <use xlink:href="#NotoSansCJKsc-Regular-74" transform="translate(1827.199615 0)"/>
     <use xlink:href="#NotoSansCJKsc-Regular-61" transform="translate(1864.899612 0)"/>
     <use xlink:href="#NotoSansCJKsc-Regular-62" transform="translate(1921.1996 0)"/>
     <use xlink:href="#NotoSansCJKsc-Regular-6c" transform="translate(1982.999588 0)"/>
     <use xlink:href="#NotoSansCJKsc-Regular-65" transform="translate(2011.399582 0)"/>
     <use xlink:href="#NotoSansCJKsc-Regular-20" transform="translate(2066.799576 0)"/>
     <use xlink:href="#NotoSansCJKsc-Regular-63" transform="translate(2089.19957 0)"/>
     <use xlink:href="#NotoSansCJKsc-Regular-61" transform="translate(2140.199554 0)"/>
     <use xlink:href="#NotoSansCJKsc-Regular-70" transform="translate(2196.499542 0)"/>
     <use xlink:href="#NotoSansCJKsc-Regular-74" transform="translate(2258.499527 0)"/>
     <use xlink:href="#NotoSansCJKsc-Regular-69" transform="translate(2296.199524 0)"/>
     <use xlink:href="#NotoSansCJKsc-Regular-6f" transform="translate(2323.699509 0)"/>
     <use xlink:href="#NotoSansCJKsc-Regular-6e" transform="translate(2384.2995 0)"/>
     <use xlink:href="#NotoSansCJKsc-Regular-20" transform="translate(2445.299484 0)"/>
     <use xlink:href="#NotoSansCJKsc-Regular-67" transform="translate(2467.699478 0)"/>
     <use xlink:href="#NotoSansCJKsc-Regular-65" transform="translate(2524.099472 0)"/>
     <use xlink:href="#NotoSansCJKsc-Regular-6e" transform="translate(2579.499466 0)"/>
     <use xlink:href="#NotoSansCJKsc-Regular-65" transform="translate(2640.499451 0)"/>
     <use xlink:href="#NotoSansCJKsc-Regular-72" transform="translate(2695.899445 0)"/>
     <use xlink:href="#NotoSansCJKsc-Regular-61" transform="translate(2734.699432 0)"/>
     <use xlink:href="#NotoSansCJKsc-Regular-74" transform="translate(2790.99942 0)"/>
     <use xlink:href="#NotoSansCJKsc-Regular-69" transform="translate(2828.699417 0)"/>
     <use xlink:href="#NotoSansCJKsc-Regular-6f" transform="translate(2856.199402 0)"/>
     <use xlink:href="#NotoSansCJKsc-Regular-6e" transform="translate(2916.799393 0)"/>
     <use xlink:href="#NotoSansCJKsc-Regular-3b" transform="translate(2977.799377 0)"/>
     <use xlink:href="#NotoSansCJKsc-Regular-20" transform="translate(3005.599365 0)"/>
     <use xlink:href="#NotoSansCJKsc-Regular-63" transform="translate(3027.999359 0)"/>
     <use xlink:href="#NotoSansCJKsc-Regular-61" transform="translate(3078.999344 0)"/>
     <use xlink:href="#NotoSansCJKsc-Regular-70" transform="translate(3135.299332 0)"/>
     <use xlink:href="#NotoSansCJKsc-Regular-74" transform="translate(3197.299316 0)"/>
     <use xlink:href="#NotoSansCJKsc-Regular-69" transform="translate(3234.999313 0)"/>
     <use xlink:href="#NotoSansCJKsc-Regular-6f" transform="translate(3262.499298 0)"/>
     <use xlink:href="#NotoSansCJKsc-Regular-6e" transform="translate(3323.099289 0)"/>
     <use xlink:href="#NotoSansCJKsc-Regular-73" transform="translate(3384.099274 0)"/>
     <use xlink:href="#NotoSansCJKsc-Regular-20" transform="translate(3430.899261 0)"/>
     <use xlink:href="#NotoSansCJKsc-Regular-62" transform="translate(3453.299255 0)"/>
     <use xlink:href="#NotoSansCJKsc-Regular-65" transform="translate(3515.099243 0)"/>
     <use xlink:href="#NotoSansCJKsc-Regular-63" transform="translate(3570.499237 0)"/>
     <use xlink:href="#NotoSansCJKsc-Regular-6f" transform="translate(3621.499222 0)"/>
     <use xlink:href="#NotoSansCJKsc-Regular-6d" transform="translate(3682.099213 0)"/>
     <use xlink:href="#NotoSansCJKsc-Regular-65" transform="translate(3774.699203 0)"/>
     <use xlink:href="#NotoSansCJKsc-Regular-20" transform="translate(3830.099197 0)"/>
     <use xlink:href="#NotoSansCJKsc-Regular-76" transform="translate(3852.499191 0)"/>
     <use xlink:href="#NotoSansCJKsc-Regular-65" transform="translate(3904.599182 0)"/>
     <use xlink:href="#NotoSansCJKsc-Regular-72" transform="translate(3959.999176 0)"/>
     <use xlink:href="#NotoSansCJKsc-Regular-69" transform="translate(3998.799164 0)"/>
     <use xlink:href="#NotoSansCJKsc-Regular-66" transform="translate(4026.299149 0)"/>
     <use xlink:href="#NotoSansCJKsc-Regular-69" transform="translate(4058.799133 0)"/>
     <use xlink:href="#NotoSansCJKsc-Regular-61" transform="translate(4086.299118 0)"/>
     <use xlink:href="#NotoSansCJKsc-Regular-62" transform="translate(4142.599106 0)"/>
     <use xlink:href="#NotoSansCJKsc-Regular-6c" transform="translate(4204.399094 0)"/>
     <use xlink:href="#NotoSansCJKsc-Regular-65" transform="translate(4232.799088 0)"/>
     <use xlink:href="#NotoSansCJKsc-Regular-20" transform="translate(4288.199081 0)"/>
     <use xlink:href="#NotoSansCJKsc-Regular-65" transform="translate(4310.599075 0)"/>
     <use xlink:href="#NotoSansCJKsc-Regular-76" transform="translate(4365.999069 0)"/>
     <use xlink:href="#NotoSansCJKsc-Regular-69" transform="translate(4418.09906 0)"/>
     <use xlink:href="#NotoSansCJKsc-Regular-64" transform="translate(4445.599045 0)"/>
     <use xlink:href="#NotoSansCJKsc-Regular-65" transform="translate(4507.59903 0)"/>
     <use xlink:href="#NotoSansCJKsc-Regular-6e" transform="translate(4562.999023 0)"/>
     <use xlink:href="#NotoSansCJKsc-Regular-63" transform="translate(4623.999008 0)"/>
     <use xlink:href="#NotoSansCJKsc-Regular-65" transform="translate(4674.998993 0)"/>
     <use xlink:href="#NotoSansCJKsc-Regular-2e" transform="translate(4730.398987 0)"/>
    </g>
   </g>
   <g id="patch_11">
    <path d="M 16.0056 26.49168 
L 77.3856 26.49168 
L 77.3856 15.0156 
L 16.0056 15.0156 
z
" clip-path="url(#p132e39567b)" style="fill: #2563eb; stroke: #2563eb; stroke-linejoin: miter"/>
   </g>
  </g>
 </g>
 <defs>
  <clipPath id="p132e39567b">
   <rect x="8.64" y="8.64" width="613.8" height="255.024"/>
  </clipPath>
 </defs>
</svg>
