<?xml version="1.0" encoding="utf-8" standalone="no"?>
<!DOCTYPE svg PUBLIC "-//W3C//DTD SVG 1.1//EN"
  "http://www.w3.org/Graphics/SVG/1.1/DTD/svg11.dtd">
<svg xmlns:xlink="http://www.w3.org/1999/xlink" width="631.08pt" height="272.304pt" viewBox="0 0 631.08 272.304" xmlns="http://www.w3.org/2000/svg" version="1.1">
 <metadata>
  <rdf:RDF xmlns:dc="http://purl.org/dc/elements/1.1/" xmlns:cc="http://creativecommons.org/ns#" xmlns:rdf="http://www.w3.org/1999/02/22-rdf-syntax-ns#">
   <cc:Work>
    <dc:type rdf:resource="http://purl.org/dc/dcmitype/StillImage"/>
    <dc:date>2026-06-21T19:29:08.503407</dc:date>
    <dc:format>image/svg+xml</dc:format>
    <dc:creator>
     <cc:Agent>
      <dc:title>Matplotlib v3.10.5, https://matplotlib.org/</dc:title>
     </cc:Agent>
    </dc:creator>
   </cc:Work>
  </rdf:RDF>
 </metadata>
 <defs>
  <style type="text/css">*{stroke-linejoin: round; stroke-linecap: butt}</style>
 </defs>
 <g id="figure_1">
  <g id="patch_1">
   <path d="M 0 272.304 
L 631.08 272.304 
L 631.08 0 
L 0 0 
z
" style="fill: #ffffff"/>
  </g>
  <g id="axes_1">
   <g id="patch_2">
    <path d="M 142.607544 118.30032 
Q 149.814478 118.30032 155.094483 118.30032 
" clip-path="url(#p5da9a9c0e3)" style="fill: none; stroke: #94a3b8; stroke-width: 1.9; stroke-linecap: round"/>
    <path d="M 149.094483 114.90032 
L 155.094483 118.30032 
L 149.094483 121.70032 
" clip-path="url(#p5da9a9c0e3)" style="fill: none; stroke: #94a3b8; stroke-width: 1.9; stroke-linecap: round"/>
   </g>
   <g id="patch_3">
    <path d="M 308.333544 118.30032 
Q 315.540478 118.30032 320.820483 118.30032 
" clip-path="url(#p5da9a9c0e3)" style="fill: none; stroke: #94a3b8; stroke-width: 1.9; stroke-linecap: round"/>
    <path d="M 314.820483 114.90032 
L 320.820483 118.30032 
L 314.820483 121.70032 
" clip-path="url(#p5da9a9c0e3)" style="fill: none; stroke: #94a3b8; stroke-width: 1.9; stroke-linecap: round"/>
   </g>
   <g id="patch_4">
    <path d="M 461.783544 118.30032 
Q 468.990478 118.30032 474.270483 118.30032 
" clip-path="url(#p5da9a9c0e3)" style="fill: none; stroke: #94a3b8; stroke-width: 1.9; stroke-linecap: round"/>
    <path d="M 468.270483 114.90032 
L 474.270483 118.30032 
L 468.270483 121.70032 
" clip-path="url(#p5da9a9c0e3)" style="fill: none; stroke: #94a3b8; stroke-width: 1.9; stroke-linecap: round"/>
   </g>
   <g id="patch_5">
    <path d="M 232.677 185.153529 
Q 232.677 173.128909 232.677 163.031217 
" clip-path="url(#p5da9a9c0e3)" style="fill: none; stroke-dasharray: 9.5,7.6; stroke-dashoffset: 0; stroke: #94a3b8; stroke-width: 1.9; stroke-linecap: round"/>
    <path d="M 229.277 169.031217 
L 232.677 163.031217 
L 236.077 169.031217 
" clip-path="url(#p5da9a9c0e3)" style="fill: none; stroke-dasharray: 9.5,7.6; stroke-dashoffset: 0; stroke: #94a3b8; stroke-width: 1.9; stroke-linecap: round"/>
   </g>
   <g id="patch_6">
    <path d="M 22.7574 159.614208 
L 135.6966 159.614208 
Q 147.9726 159.614208 147.9726 154.513728 
L 147.9726 82.086912 
Q 147.9726 76.986432 135.6966 76.986432 
L 22.7574 76.986432 
Q 10.4814 76.986432 10.4814 82.086912 
L 10.4814 154.513728 
Q 10.4814 159.614208 22.7574 159.614208 
z
" clip-path="url(#p5da9a9c0e3)" style="fill: #ecfeff; stroke: #a5f3fc; stroke-width: 1.4; stroke-linejoin: miter"/>
   </g>
   <g id="patch_7">
    <path d="M 163.9314 159.614208 
L 301.4226 159.614208 
Q 313.6986 159.614208 313.6986 154.513728 
L 313.6986 82.086912 
Q 313.6986 76.986432 301.4226 76.986432 
L 163.9314 76.986432 
Q 151.6554 76.986432 151.6554 82.086912 
L 151.6554 154.513728 
Q 151.6554 159.614208 163.9314 159.614208 
z
" clip-path="url(#p5da9a9c0e3)" style="fill: #f5f3ff; stroke: #ddd6fe; stroke-width: 1.4; stroke-linejoin: miter"/>
   </g>
   <g id="patch_8">
    <path d="M 163.9314 236.121408 
L 301.4226 236.121408 
Q 313.6986 236.121408 313.6986 231.020928 
L 313.6986 189.196992 
Q 313.6986 184.096512 301.4226 184.096512 
L 163.9314 184.096512 
Q 151.6554 184.096512 151.6554 189.196992 
L 151.6554 231.020928 
Q 151.6554 236.121408 163.9314 236.121408 
z
" clip-path="url(#p5da9a9c0e3)" style="fill: #f8fafc; stroke: #e2e8f0; stroke-width: 1.4; stroke-linejoin: miter"/>
   </g>
   <g id="patch_9">
    <path d="M 329.6574 159.614208 
L 454.8726 159.614208 
Q 467.1486 159.614208 467.1486 154.513728 
L 467.1486 82.086912 
Q 467.1486 76.986432 454.8726 76.986432 
L 329.6574 76.986432 
Q 317.3814 76.986432 317.3814 82.086912 
L 317.3814 154.513728 
Q 317.3814 159.614208 329.6574 159.614208 
z
" clip-path="url(#p5da9a9c0e3)" style="fill: #eff6ff; stroke: #bfdbfe; stroke-width: 1.4; stroke-linejoin: miter"/>
   </g>
   <g id="patch_10">
    <path d="M 483.1074 159.614208 
L 608.3226 159.614208 
Q 620.5986 159.614208 620.5986 154.513728 
L 620.5986 82.086912 
Q 620.5986 76.986432 608.3226 76.986432 
L 483.1074 76.986432 
Q 470.8314 76.986432 470.8314 82.086912 
L 470.8314 154.513728 
Q 470.8314 159.614208 483.1074 159.614208 
z
" clip-path="url(#p5da9a9c0e3)" style="fill: #fffbeb; stroke: #fde68a; stroke-width: 1.4; stroke-linejoin: miter"/>
   </g>
   <g id="text_1">
    <!-- StylisticBias — single-attribute perturbation of fixed identities -->
    <g style="fill: #0f172a" transform="translate(16.0056 45.453764) scale(0.155 -0.155)">
     <defs>
      <path id="NotoSansCJKsc-Bold-53" d="M 1997 -90 
C 3091 -90 3738 570 3738 1344 
C 3738 2029 3360 2400 2784 2637 
L 2163 2886 
C 1760 3053 1427 3174 1427 3514 
C 1427 3827 1683 4013 2099 4013 
C 2496 4013 2810 3866 3110 3622 
L 3590 4211 
C 3206 4602 2656 4826 2099 4826 
C 1146 4826 461 4224 461 3456 
C 461 2765 947 2381 1427 2189 
L 2054 1914 
C 2477 1734 2771 1626 2771 1274 
C 2771 941 2509 730 2016 730 
C 1600 730 1146 941 813 1254 
L 269 602 
C 730 154 1363 -90 1997 -90 
z
" transform="scale(0.015625)"/>
      <path id="NotoSansCJKsc-Bold-74" d="M 1818 -90 
C 2131 -90 2381 -13 2579 45 
L 2419 730 
C 2323 691 2182 653 2067 653 
C 1747 653 1574 845 1574 1254 
L 1574 2842 
L 2464 2842 
L 2464 3584 
L 1574 3584 
L 1574 4550 
L 800 4550 
L 691 3584 
L 134 3539 
L 134 2842 
L 640 2842 
L 640 1248 
C 640 454 966 -90 1818 -90 
z
" transform="scale(0.015625)"/>
      <path id="NotoSansCJKsc-Bold-79" d="M 819 -1434 
C 1619 -1434 2003 -954 2317 -109 
L 3590 3584 
L 2688 3584 
L 2195 1920 
C 2106 1587 2016 1242 1939 909 
L 1907 909 
C 1805 1254 1715 1600 1606 1920 
L 1037 3584 
L 90 3584 
L 1485 70 
L 1421 -147 
C 1318 -461 1114 -691 749 -691 
C 666 -691 563 -666 499 -646 
L 326 -1370 
C 467 -1408 608 -1434 819 -1434 
z
" transform="scale(0.015625)"/>
      <path id="NotoSansCJKsc-Bold-6c" d="M 1395 -90 
C 1613 -90 1766 -51 1875 -6 
L 1760 691 
C 1696 678 1670 678 1632 678 
C 1542 678 1446 749 1446 966 
L 1446 5107 
L 506 5107 
L 506 1005 
C 506 339 736 -90 1395 -90 
z
" transform="scale(0.015625)"/>
      <path id="NotoSansCJKsc-Bold-69" d="M 506 0 
L 1446 0 
L 1446 3584 
L 506 3584 
L 506 0 
z
M 979 4166 
C 1299 4166 1523 4365 1523 4678 
C 1523 4986 1299 5190 979 5190 
C 646 5190 435 4986 435 4678 
C 435 4365 646 4166 979 4166 
z
" transform="scale(0.015625)"/>
      <path id="NotoSansCJKsc-Bold-73" d="M 1530 -90 
C 2458 -90 2957 410 2957 1043 
C 2957 1702 2432 1946 1958 2125 
C 1574 2266 1248 2362 1248 2624 
C 1248 2829 1402 2970 1728 2970 
C 1990 2970 2240 2842 2496 2662 
L 2918 3232 
C 2624 3462 2221 3674 1702 3674 
C 883 3674 365 3219 365 2579 
C 365 1978 870 1702 1325 1530 
C 1702 1382 2074 1261 2074 992 
C 2074 768 1914 614 1555 614 
C 1216 614 915 762 595 1005 
L 166 410 
C 525 115 1050 -90 1530 -90 
z
" transform="scale(0.015625)"/>
      <path id="NotoSansCJKsc-Bold-63" d="M 2029 -90 
C 2426 -90 2861 45 3200 346 
L 2829 966 
C 2630 800 2394 678 2131 678 
C 1613 678 1242 1114 1242 1792 
C 1242 2464 1613 2906 2163 2906 
C 2362 2906 2528 2822 2707 2675 
L 3155 3270 
C 2893 3507 2554 3674 2112 3674 
C 1139 3674 282 2982 282 1792 
C 282 602 1043 -90 2029 -90 
z
" transform="scale(0.015625)"/>
      <path id="NotoSansCJKsc-Bold-42" d="M 582 0 
L 2272 0 
C 3315 0 4102 442 4102 1395 
C 4102 2029 3731 2394 3219 2515 
L 3219 2541 
C 3622 2688 3866 3130 3866 3571 
C 3866 4454 3123 4742 2150 4742 
L 582 4742 
L 582 0 
z
M 1530 2810 
L 1530 4013 
L 2093 4013 
C 2662 4013 2944 3846 2944 3430 
C 2944 3053 2688 2810 2086 2810 
L 1530 2810 
z
M 1530 730 
L 1530 2112 
L 2189 2112 
C 2842 2112 3181 1914 3181 1453 
C 3181 960 2829 730 2189 730 
L 1530 730 
z
" transform="scale(0.015625)"/>
      <path id="NotoSansCJKsc-Bold-61" d="M 1382 -90 
C 1798 -90 2157 109 2464 384 
L 2496 384 
L 2560 0 
L 3328 0 
L 3328 2093 
C 3328 3130 2861 3674 1952 3674 
C 1389 3674 877 3456 461 3200 
L 794 2573 
C 1126 2771 1446 2918 1779 2918 
C 2221 2918 2374 2650 2387 2298 
C 947 2144 326 1741 326 979 
C 326 365 742 -90 1382 -90 
z
M 1696 646 
C 1421 646 1222 768 1222 1050 
C 1222 1376 1510 1613 2387 1715 
L 2387 998 
C 2163 774 1965 646 1696 646 
z
" transform="scale(0.015625)"/>
      <path id="NotoSansCJKsc-Bold-20" transform="scale(0.015625)"/>
      <path id="NotoSansCJKsc-Bold-2014" d="M 314 1536 
L 5498 1536 
L 5498 2138 
L 314 2138 
L 314 1536 
z
" transform="scale(0.015625)"/>
      <path id="NotoSansCJKsc-Bold-6e" d="M 506 0 
L 1446 0 
L 1446 2464 
C 1709 2726 1901 2867 2189 2867 
C 2541 2867 2694 2675 2694 2118 
L 2694 0 
L 3635 0 
L 3635 2234 
C 3635 3136 3302 3674 2528 3674 
C 2042 3674 1677 3418 1363 3110 
L 1344 3110 
L 1274 3584 
L 506 3584 
L 506 0 
z
" transform="scale(0.015625)"/>
      <path id="NotoSansCJKsc-Bold-67" d="M 1766 -1555 
C 2963 -1555 3718 -1005 3718 -282 
C 3718 346 3245 614 2381 614 
L 1766 614 
C 1350 614 1203 717 1203 902 
C 1203 1056 1267 1133 1357 1216 
C 1517 1158 1683 1133 1818 1133 
C 2592 1133 3206 1536 3206 2349 
C 3206 2573 3136 2771 3046 2893 
L 3654 2893 
L 3654 3584 
L 2368 3584 
C 2214 3635 2029 3674 1818 3674 
C 1062 3674 378 3219 378 2381 
C 378 1958 608 1619 858 1440 
L 858 1414 
C 640 1261 461 1011 461 749 
C 461 448 595 262 787 141 
L 787 109 
C 448 -77 275 -333 275 -634 
C 275 -1267 922 -1555 1766 -1555 
z
M 1818 1715 
C 1510 1715 1261 1952 1261 2381 
C 1261 2797 1504 3027 1818 3027 
C 2138 3027 2387 2797 2387 2381 
C 2387 1952 2138 1715 1818 1715 
z
M 1907 -954 
C 1389 -954 1056 -787 1056 -493 
C 1056 -339 1126 -198 1286 -70 
C 1421 -102 1568 -115 1779 -115 
L 2221 -115 
C 2605 -115 2816 -186 2816 -442 
C 2816 -717 2451 -954 1907 -954 
z
" transform="scale(0.015625)"/>
      <path id="NotoSansCJKsc-Bold-65" d="M 2067 -90 
C 2509 -90 2963 64 3315 307 
L 2995 883 
C 2733 723 2483 640 2195 640 
C 1658 640 1274 941 1197 1523 
L 3405 1523 
C 3430 1613 3450 1786 3450 1958 
C 3450 2957 2938 3674 1952 3674 
C 1101 3674 282 2950 282 1792 
C 282 608 1062 -90 2067 -90 
z
M 1178 2157 
C 1254 2675 1587 2944 1965 2944 
C 2432 2944 2643 2637 2643 2157 
L 1178 2157 
z
" transform="scale(0.015625)"/>
      <path id="NotoSansCJKsc-Bold-2d" d="M 314 1491 
L 2061 1491 
L 2061 2170 
L 314 2170 
L 314 1491 
z
" transform="scale(0.015625)"/>
      <path id="NotoSansCJKsc-Bold-72" d="M 506 0 
L 1446 0 
L 1446 2138 
C 1651 2656 1984 2842 2259 2842 
C 2413 2842 2515 2822 2643 2784 
L 2797 3597 
C 2694 3642 2579 3674 2381 3674 
C 2010 3674 1626 3418 1363 2950 
L 1344 2950 
L 1274 3584 
L 506 3584 
L 506 0 
z
" transform="scale(0.015625)"/>
      <path id="NotoSansCJKsc-Bold-62" d="M 2304 -90 
C 3091 -90 3827 621 3827 1856 
C 3827 2950 3296 3674 2413 3674 
C 2061 3674 1702 3501 1414 3245 
L 1446 3821 
L 1446 5107 
L 506 5107 
L 506 0 
L 1242 0 
L 1318 378 
L 1350 378 
C 1638 77 1984 -90 2304 -90 
z
M 2099 685 
C 1901 685 1664 755 1446 954 
L 1446 2534 
C 1690 2778 1907 2899 2150 2899 
C 2643 2899 2861 2522 2861 1837 
C 2861 1056 2522 685 2099 685 
z
" transform="scale(0.015625)"/>
      <path id="NotoSansCJKsc-Bold-75" d="M 1574 -90 
C 2067 -90 2406 154 2714 518 
L 2739 518 
L 2810 0 
L 3578 0 
L 3578 3584 
L 2637 3584 
L 2637 1165 
C 2394 845 2202 717 1914 717 
C 1562 717 1402 909 1402 1466 
L 1402 3584 
L 467 3584 
L 467 1350 
C 467 448 800 -90 1574 -90 
z
" transform="scale(0.015625)"/>
      <path id="NotoSansCJKsc-Bold-70" d="M 506 -1376 
L 1446 -1376 
L 1446 -282 
L 1414 301 
C 1683 51 1990 -90 2304 -90 
C 3091 -90 3827 621 3827 1850 
C 3827 2950 3296 3674 2419 3674 
C 2029 3674 1664 3469 1363 3213 
L 1344 3213 
L 1274 3584 
L 506 3584 
L 506 -1376 
z
M 2099 685 
C 1901 685 1677 755 1446 954 
L 1446 2534 
C 1690 2778 1907 2899 2150 2899 
C 2643 2899 2861 2522 2861 1837 
C 2861 1056 2522 685 2099 685 
z
" transform="scale(0.015625)"/>
      <path id="NotoSansCJKsc-Bold-6f" d="M 2003 -90 
C 2899 -90 3725 602 3725 1792 
C 3725 2982 2899 3674 2003 3674 
C 1101 3674 282 2982 282 1792 
C 282 602 1101 -90 2003 -90 
z
M 2003 678 
C 1510 678 1242 1114 1242 1792 
C 1242 2464 1510 2906 2003 2906 
C 2490 2906 2765 2464 2765 1792 
C 2765 1114 2490 678 2003 678 
z
" transform="scale(0.015625)"/>
      <path id="NotoSansCJKsc-Bold-66" d="M 179 2842 
L 666 2842 
L 666 0 
L 1600 0 
L 1600 2842 
L 2285 2842 
L 2285 3584 
L 1600 3584 
L 1600 3891 
C 1600 4288 1760 4454 2035 4454 
C 2163 4454 2298 4429 2419 4371 
L 2592 5075 
C 2432 5139 2189 5197 1907 5197 
C 1011 5197 666 4614 666 3872 
L 666 3578 
L 179 3539 
L 179 2842 
z
" transform="scale(0.015625)"/>
      <path id="NotoSansCJKsc-Bold-78" d="M 102 0 
L 1082 0 
L 1408 659 
C 1510 870 1606 1082 1709 1280 
L 1741 1280 
C 1856 1082 1978 870 2086 659 
L 2483 0 
L 3494 0 
L 2374 1760 
L 3424 3584 
L 2451 3584 
L 2150 2950 
C 2067 2746 1971 2541 1888 2342 
L 1862 2342 
C 1754 2541 1645 2746 1542 2950 
L 1184 3584 
L 173 3584 
L 1222 1862 
L 102 0 
z
" transform="scale(0.015625)"/>
      <path id="NotoSansCJKsc-Bold-64" d="M 1766 -90 
C 2138 -90 2496 109 2758 371 
L 2784 371 
L 2854 0 
L 3622 0 
L 3622 5107 
L 2682 5107 
L 2682 3846 
L 2714 3283 
C 2458 3520 2208 3674 1805 3674 
C 1037 3674 301 2957 301 1792 
C 301 614 870 -90 1766 -90 
z
M 2010 685 
C 1536 685 1267 1056 1267 1805 
C 1267 2515 1606 2899 2010 2899 
C 2240 2899 2464 2829 2682 2630 
L 2682 1056 
C 2477 787 2259 685 2010 685 
z
" transform="scale(0.015625)"/>
     </defs>
     <use xlink:href="#NotoSansCJKsc-Bold-53"/>
     <use xlink:href="#NotoSansCJKsc-Bold-74" transform="translate(62.399994 0)"/>
     <use xlink:href="#NotoSansCJKsc-Bold-79" transform="translate(104.499985 0)"/>
     <use xlink:href="#NotoSansCJKsc-Bold-6c" transform="translate(161.899979 0)"/>
     <use xlink:href="#NotoSansCJKsc-Bold-69" transform="translate(193.399963 0)"/>
     <use xlink:href="#NotoSansCJKsc-Bold-73" transform="translate(223.799957 0)"/>
     <use xlink:href="#NotoSansCJKsc-Bold-74" transform="translate(273.299942 0)"/>
     <use xlink:href="#NotoSansCJKsc-Bold-69" transform="translate(315.399933 0)"/>
     <use xlink:href="#NotoSansCJKsc-Bold-63" transform="translate(345.799927 0)"/>
     <use xlink:href="#NotoSansCJKsc-Bold-42" transform="translate(398.499924 0)"/>
     <use xlink:href="#NotoSansCJKsc-Bold-69" transform="translate(466.599915 0)"/>
     <use xlink:href="#NotoSansCJKsc-Bold-61" transform="translate(496.999908 0)"/>
     <use xlink:href="#NotoSansCJKsc-Bold-73" transform="translate(556.099899 0)"/>
     <use xlink:href="#NotoSansCJKsc-Bold-20" transform="translate(605.599884 0)"/>
     <use xlink:href="#NotoSansCJKsc-Bold-2014" transform="translate(628.299881 0)"/>
     <use xlink:href="#NotoSansCJKsc-Bold-20" transform="translate(719.099869 0)"/>
     <use xlink:href="#NotoSansCJKsc-Bold-73" transform="translate(741.799866 0)"/>
     <use xlink:href="#NotoSansCJKsc-Bold-69" transform="translate(791.29985 0)"/>
     <use xlink:href="#NotoSansCJKsc-Bold-6e" transform="translate(821.699844 0)"/>
     <use xlink:href="#NotoSansCJKsc-Bold-67" transform="translate(885.799835 0)"/>
     <use xlink:href="#NotoSansCJKsc-Bold-6c" transform="translate(945.499832 0)"/>
     <use xlink:href="#NotoSansCJKsc-Bold-65" transform="translate(976.999817 0)"/>
     <use xlink:href="#NotoSansCJKsc-Bold-2d" transform="translate(1035.099808 0)"/>
     <use xlink:href="#NotoSansCJKsc-Bold-61" transform="translate(1072.099792 0)"/>
     <use xlink:href="#NotoSansCJKsc-Bold-74" transform="translate(1131.199783 0)"/>
     <use xlink:href="#NotoSansCJKsc-Bold-74" transform="translate(1173.299774 0)"/>
     <use xlink:href="#NotoSansCJKsc-Bold-72" transform="translate(1215.399765 0)"/>
     <use xlink:href="#NotoSansCJKsc-Bold-69" transform="translate(1258.999756 0)"/>
     <use xlink:href="#NotoSansCJKsc-Bold-62" transform="translate(1289.39975 0)"/>
     <use xlink:href="#NotoSansCJKsc-Bold-75" transform="translate(1353.799744 0)"/>
     <use xlink:href="#NotoSansCJKsc-Bold-74" transform="translate(1417.499741 0)"/>
     <use xlink:href="#NotoSansCJKsc-Bold-65" transform="translate(1459.599731 0)"/>
     <use xlink:href="#NotoSansCJKsc-Bold-20" transform="translate(1517.699722 0)"/>
     <use xlink:href="#NotoSansCJKsc-Bold-70" transform="translate(1540.399719 0)"/>
     <use xlink:href="#NotoSansCJKsc-Bold-65" transform="translate(1604.799713 0)"/>
     <use xlink:href="#NotoSansCJKsc-Bold-72" transform="translate(1662.899704 0)"/>
     <use xlink:href="#NotoSansCJKsc-Bold-74" transform="translate(1706.499695 0)"/>
     <use xlink:href="#NotoSansCJKsc-Bold-75" transform="translate(1748.599686 0)"/>
     <use xlink:href="#NotoSansCJKsc-Bold-72" transform="translate(1812.299683 0)"/>
     <use xlink:href="#NotoSansCJKsc-Bold-62" transform="translate(1855.899673 0)"/>
     <use xlink:href="#NotoSansCJKsc-Bold-61" transform="translate(1920.299667 0)"/>
     <use xlink:href="#NotoSansCJKsc-Bold-74" transform="translate(1979.399658 0)"/>
     <use xlink:href="#NotoSansCJKsc-Bold-69" transform="translate(2021.499649 0)"/>
     <use xlink:href="#NotoSansCJKsc-Bold-6f" transform="translate(2051.899643 0)"/>
     <use xlink:href="#NotoSansCJKsc-Bold-6e" transform="translate(2114.499634 0)"/>
     <use xlink:href="#NotoSansCJKsc-Bold-20" transform="translate(2178.599625 0)"/>
     <use xlink:href="#NotoSansCJKsc-Bold-6f" transform="translate(2201.299622 0)"/>
     <use xlink:href="#NotoSansCJKsc-Bold-66" transform="translate(2263.899612 0)"/>
     <use xlink:href="#NotoSansCJKsc-Bold-20" transform="translate(2301.099609 0)"/>
     <use xlink:href="#NotoSansCJKsc-Bold-66" transform="translate(2323.799606 0)"/>
     <use xlink:href="#NotoSansCJKsc-Bold-69" transform="translate(2360.999603 0)"/>
     <use xlink:href="#NotoSansCJKsc-Bold-78" transform="translate(2391.399597 0)"/>
     <use xlink:href="#NotoSansCJKsc-Bold-65" transform="translate(2447.599594 0)"/>
     <use xlink:href="#NotoSansCJKsc-Bold-64" transform="translate(2505.699585 0)"/>
     <use xlink:href="#NotoSansCJKsc-Bold-20" transform="translate(2570.099579 0)"/>
     <use xlink:href="#NotoSansCJKsc-Bold-69" transform="translate(2592.799576 0)"/>
     <use xlink:href="#NotoSansCJKsc-Bold-64" transform="translate(2623.19957 0)"/>
     <use xlink:href="#NotoSansCJKsc-Bold-65" transform="translate(2687.599564 0)"/>
     <use xlink:href="#NotoSansCJKsc-Bold-6e" transform="translate(2745.699554 0)"/>
     <use xlink:href="#NotoSansCJKsc-Bold-74" transform="translate(2809.799545 0)"/>
     <use xlink:href="#NotoSansCJKsc-Bold-69" transform="translate(2851.899536 0)"/>
     <use xlink:href="#NotoSansCJKsc-Bold-74" transform="translate(2882.29953 0)"/>
     <use xlink:href="#NotoSansCJKsc-Bold-69" transform="translate(2924.399521 0)"/>
     <use xlink:href="#NotoSansCJKsc-Bold-65" transform="translate(2954.799515 0)"/>
     <use xlink:href="#NotoSansCJKsc-Bold-73" transform="translate(3012.899506 0)"/>
    </g>
   </g>
   <g id="text_2">
    <!-- 500 base faces  -&gt;  ~50 single-attribute variations each (~25K imgs, identity fixed)  -&gt;  6 MLLMs x 25 binary judgments -->
    <g style="fill: #64748b" transform="translate(16.0056 54.236052) scale(0.096 -0.096)">
     <defs>
      <path id="NotoSansCJKsc-Regular-35" d="M 1677 -83 
C 2464 -83 3213 499 3213 1523 
C 3213 2560 2573 3021 1798 3021 
C 1517 3021 1306 2950 1094 2835 
L 1216 4192 
L 2982 4192 
L 2982 4691 
L 704 4691 
L 550 2502 
L 864 2304 
C 1133 2483 1331 2579 1645 2579 
C 2234 2579 2618 2182 2618 1510 
C 2618 826 2176 403 1619 403 
C 1075 403 730 653 467 922 
L 173 538 
C 493 224 941 -83 1677 -83 
z
" transform="scale(0.015625)"/>
      <path id="NotoSansCJKsc-Regular-30" d="M 1779 -83 
C 2669 -83 3238 723 3238 2362 
C 3238 3987 2669 4774 1779 4774 
C 883 4774 320 3987 320 2362 
C 320 723 883 -83 1779 -83 
z
M 1779 390 
C 1248 390 883 986 883 2362 
C 883 3731 1248 4314 1779 4314 
C 2310 4314 2675 3731 2675 2362 
C 2675 986 2310 390 1779 390 
z
" transform="scale(0.015625)"/>
      <path id="NotoSansCJKsc-Regular-20" transform="scale(0.015625)"/>
      <path id="NotoSansCJKsc-Regular-62" d="M 2118 -83 
C 2912 -83 3629 602 3629 1792 
C 3629 2867 3142 3565 2246 3565 
C 1856 3565 1472 3347 1152 3078 
L 1178 3699 
L 1178 5094 
L 589 5094 
L 589 0 
L 1056 0 
L 1107 358 
L 1133 358 
C 1434 83 1798 -83 2118 -83 
z
M 2022 410 
C 1792 410 1478 499 1178 768 
L 1178 2598 
C 1504 2906 1811 3072 2099 3072 
C 2765 3072 3021 2560 3021 1786 
C 3021 928 2598 410 2022 410 
z
" transform="scale(0.015625)"/>
      <path id="NotoSansCJKsc-Regular-61" d="M 1389 -83 
C 1818 -83 2208 141 2541 416 
L 2560 416 
L 2611 0 
L 3091 0 
L 3091 2138 
C 3091 3002 2739 3565 1888 3565 
C 1325 3565 838 3315 525 3110 
L 749 2707 
C 1024 2893 1389 3078 1792 3078 
C 2362 3078 2509 2650 2509 2202 
C 1030 2035 378 1658 378 902 
C 378 275 806 -83 1389 -83 
z
M 1555 390 
C 1210 390 941 544 941 941 
C 941 1389 1338 1677 2509 1811 
L 2509 845 
C 2170 544 1888 390 1555 390 
z
" transform="scale(0.015625)"/>
      <path id="NotoSansCJKsc-Regular-73" d="M 1498 -83 
C 2317 -83 2758 384 2758 947 
C 2758 1606 2208 1811 1702 2003 
C 1312 2150 954 2278 954 2605 
C 954 2880 1158 3110 1600 3110 
C 1907 3110 2150 2976 2387 2803 
L 2669 3168 
C 2406 3386 2022 3565 1594 3565 
C 832 3565 397 3130 397 2579 
C 397 1984 922 1754 1408 1574 
C 1792 1434 2202 1267 2202 915 
C 2202 614 1978 371 1517 371 
C 1101 371 794 538 486 787 
L 205 397 
C 531 122 1005 -83 1498 -83 
z
" transform="scale(0.015625)"/>
      <path id="NotoSansCJKsc-Regular-65" d="M 1997 -83 
C 2464 -83 2835 70 3136 269 
L 2931 659 
C 2669 486 2400 384 2061 384 
C 1402 384 947 858 909 1600 
L 3251 1600 
C 3264 1690 3277 1805 3277 1933 
C 3277 2925 2778 3565 1888 3565 
C 1094 3565 333 2867 333 1734 
C 333 589 1069 -83 1997 -83 
z
M 902 2016 
C 973 2707 1408 3098 1901 3098 
C 2445 3098 2765 2720 2765 2016 
L 902 2016 
z
" transform="scale(0.015625)"/>
      <path id="NotoSansCJKsc-Regular-66" d="M 211 3002 
L 685 3002 
L 685 0 
L 1267 0 
L 1267 3002 
L 2003 3002 
L 2003 3475 
L 1267 3475 
L 1267 4026 
C 1267 4474 1427 4710 1760 4710 
C 1882 4710 2022 4678 2150 4614 
L 2278 5069 
C 2118 5133 1914 5178 1696 5178 
C 1005 5178 685 4736 685 4032 
L 685 3475 
L 211 3443 
L 211 3002 
z
" transform="scale(0.015625)"/>
      <path id="NotoSansCJKsc-Regular-63" d="M 1958 -83 
C 2374 -83 2771 83 3085 352 
L 2829 749 
C 2611 557 2330 403 2010 403 
C 1370 403 934 934 934 1734 
C 934 2534 1395 3072 2029 3072 
C 2298 3072 2522 2950 2720 2771 
L 3014 3155 
C 2771 3373 2458 3565 2003 3565 
C 1107 3565 333 2893 333 1734 
C 333 582 1037 -83 1958 -83 
z
" transform="scale(0.015625)"/>
      <path id="NotoSansCJKsc-Regular-2d" d="M 294 1568 
L 1933 1568 
L 1933 2016 
L 294 2016 
L 294 1568 
z
" transform="scale(0.015625)"/>
      <path id="NotoSansCJKsc-Regular-3e" d="M 243 934 
L 3315 2144 
L 3315 2605 
L 243 3814 
L 243 3309 
L 1754 2746 
L 2714 2387 
L 2714 2362 
L 1754 2003 
L 243 1446 
L 243 934 
z
" transform="scale(0.015625)"/>
      <path id="NotoSansCJKsc-Regular-7e" d="M 2406 1837 
C 2714 1837 3034 2029 3296 2477 
L 2970 2714 
C 2803 2406 2624 2278 2419 2278 
C 2016 2278 1715 2886 1152 2886 
C 845 2886 518 2688 262 2240 
L 589 2010 
C 749 2317 928 2445 1133 2445 
C 1542 2445 1843 1837 2406 1837 
z
" transform="scale(0.015625)"/>
      <path id="NotoSansCJKsc-Regular-69" d="M 589 0 
L 1178 0 
L 1178 3475 
L 589 3475 
L 589 0 
z
M 883 4192 
C 1114 4192 1274 4346 1274 4582 
C 1274 4806 1114 4960 883 4960 
C 653 4960 499 4806 499 4582 
C 499 4346 653 4192 883 4192 
z
" transform="scale(0.015625)"/>
      <path id="NotoSansCJKsc-Regular-6e" d="M 589 0 
L 1178 0 
L 1178 2522 
C 1523 2874 1766 3053 2125 3053 
C 2586 3053 2784 2778 2784 2125 
L 2784 0 
L 3366 0 
L 3366 2202 
C 3366 3085 3034 3565 2304 3565 
C 1830 3565 1466 3302 1139 2970 
L 1126 2970 
L 1069 3475 
L 589 3475 
L 589 0 
z
" transform="scale(0.015625)"/>
      <path id="NotoSansCJKsc-Regular-67" d="M 1760 -1600 
C 2835 -1600 3520 -1043 3520 -397 
C 3520 179 3110 429 2310 429 
L 1626 429 
C 1158 429 1018 589 1018 806 
C 1018 998 1114 1114 1242 1222 
C 1395 1146 1587 1101 1754 1101 
C 2470 1101 3027 1568 3027 2310 
C 3027 2611 2912 2867 2746 3027 
L 3456 3027 
L 3456 3475 
L 2246 3475 
C 2125 3526 1952 3565 1754 3565 
C 1056 3565 454 3085 454 2323 
C 454 1907 678 1568 909 1389 
L 909 1363 
C 723 1235 525 1005 525 717 
C 525 442 659 256 838 147 
L 838 115 
C 512 -83 326 -371 326 -672 
C 326 -1267 915 -1600 1760 -1600 
z
M 1754 1498 
C 1357 1498 1018 1818 1018 2323 
C 1018 2835 1350 3136 1754 3136 
C 2170 3136 2496 2835 2496 2323 
C 2496 1818 2157 1498 1754 1498 
z
M 1843 -1197 
C 1210 -1197 838 -960 838 -589 
C 838 -390 941 -179 1190 0 
C 1344 -38 1510 -51 1638 -51 
L 2240 -51 
C 2701 -51 2944 -166 2944 -493 
C 2944 -851 2515 -1197 1843 -1197 
z
" transform="scale(0.015625)"/>
      <path id="NotoSansCJKsc-Regular-6c" d="M 1203 -83 
C 1363 -83 1459 -58 1542 -32 
L 1459 416 
C 1395 403 1370 403 1338 403 
C 1248 403 1178 474 1178 653 
L 1178 5094 
L 589 5094 
L 589 691 
C 589 198 768 -83 1203 -83 
z
" transform="scale(0.015625)"/>
      <path id="NotoSansCJKsc-Regular-74" d="M 1677 -83 
C 1894 -83 2125 -19 2323 45 
L 2208 486 
C 2093 435 1939 390 1811 390 
C 1408 390 1274 634 1274 1056 
L 1274 3002 
L 2221 3002 
L 2221 3475 
L 1274 3475 
L 1274 4454 
L 787 4454 
L 723 3475 
L 173 3443 
L 173 3002 
L 691 3002 
L 691 1075 
C 691 378 941 -83 1677 -83 
z
" transform="scale(0.015625)"/>
      <path id="NotoSansCJKsc-Regular-72" d="M 589 0 
L 1178 0 
L 1178 2234 
C 1408 2822 1760 3040 2048 3040 
C 2195 3040 2272 3021 2387 2982 
L 2496 3488 
C 2387 3546 2278 3565 2125 3565 
C 1741 3565 1382 3283 1139 2842 
L 1126 2842 
L 1069 3475 
L 589 3475 
L 589 0 
z
" transform="scale(0.015625)"/>
      <path id="NotoSansCJKsc-Regular-75" d="M 1606 -83 
C 2080 -83 2426 166 2752 544 
L 2771 544 
L 2816 0 
L 3302 0 
L 3302 3475 
L 2720 3475 
L 2720 1011 
C 2387 602 2138 422 1779 422 
C 1318 422 1126 698 1126 1344 
L 1126 3475 
L 538 3475 
L 538 1274 
C 538 384 870 -83 1606 -83 
z
" transform="scale(0.015625)"/>
      <path id="NotoSansCJKsc-Regular-76" d="M 1338 0 
L 2022 0 
L 3251 3475 
L 2675 3475 
L 2016 1498 
C 1914 1158 1798 806 1696 474 
L 1664 474 
C 1562 806 1453 1158 1344 1498 
L 691 3475 
L 83 3475 
L 1338 0 
z
" transform="scale(0.015625)"/>
      <path id="NotoSansCJKsc-Regular-6f" d="M 1939 -83 
C 2790 -83 3546 582 3546 1734 
C 3546 2893 2790 3565 1939 3565 
C 1088 3565 333 2893 333 1734 
C 333 582 1088 -83 1939 -83 
z
M 1939 403 
C 1338 403 934 934 934 1734 
C 934 2534 1338 3072 1939 3072 
C 2541 3072 2950 2534 2950 1734 
C 2950 934 2541 403 1939 403 
z
" transform="scale(0.015625)"/>
      <path id="NotoSansCJKsc-Regular-68" d="M 589 0 
L 1178 0 
L 1178 2522 
C 1523 2874 1766 3053 2125 3053 
C 2586 3053 2784 2778 2784 2125 
L 2784 0 
L 3366 0 
L 3366 2202 
C 3366 3085 3034 3565 2304 3565 
C 1830 3565 1472 3302 1152 2982 
L 1178 3699 
L 1178 5094 
L 589 5094 
L 589 0 
z
" transform="scale(0.015625)"/>
      <path id="NotoSansCJKsc-Regular-28" d="M 1530 -1254 
L 1888 -1094 
C 1338 -186 1075 902 1075 1990 
C 1075 3072 1338 4154 1888 5069 
L 1530 5235 
C 941 4275 589 3245 589 1990 
C 589 730 941 -301 1530 -1254 
z
" transform="scale(0.015625)"/>
      <path id="NotoSansCJKsc-Regular-32" d="M 282 0 
L 3232 0 
L 3232 506 
L 1933 506 
C 1696 506 1408 480 1165 461 
C 2266 1504 3008 2458 3008 3398 
C 3008 4230 2477 4774 1638 4774 
C 1043 4774 634 4506 256 4090 
L 595 3757 
C 858 4070 1184 4301 1568 4301 
C 2150 4301 2432 3910 2432 3373 
C 2432 2566 1754 1632 282 346 
L 282 0 
z
" transform="scale(0.015625)"/>
      <path id="NotoSansCJKsc-Regular-4b" d="M 646 0 
L 1235 0 
L 1235 1485 
L 2042 2445 
L 3450 0 
L 4109 0 
L 2413 2912 
L 3885 4691 
L 3213 4691 
L 1248 2336 
L 1235 2336 
L 1235 4691 
L 646 4691 
L 646 0 
z
" transform="scale(0.015625)"/>
      <path id="NotoSansCJKsc-Regular-6d" d="M 589 0 
L 1178 0 
L 1178 2522 
C 1491 2880 1786 3053 2048 3053 
C 2490 3053 2694 2778 2694 2125 
L 2694 0 
L 3277 0 
L 3277 2522 
C 3603 2880 3885 3053 4154 3053 
C 4595 3053 4800 2778 4800 2125 
L 4800 0 
L 5382 0 
L 5382 2202 
C 5382 3085 5043 3565 4333 3565 
C 3904 3565 3546 3290 3181 2899 
C 3040 3309 2758 3565 2221 3565 
C 1805 3565 1446 3302 1139 2970 
L 1126 2970 
L 1069 3475 
L 589 3475 
L 589 0 
z
" transform="scale(0.015625)"/>
      <path id="NotoSansCJKsc-Regular-2c" d="M 480 -1216 
C 1056 -973 1414 -493 1414 122 
C 1414 550 1229 806 922 806 
C 685 806 480 653 480 397 
C 480 141 678 -13 909 -13 
L 979 -6 
C 973 -390 736 -698 339 -870 
L 480 -1216 
z
" transform="scale(0.015625)"/>
      <path id="NotoSansCJKsc-Regular-64" d="M 1773 -83 
C 2189 -83 2560 141 2829 410 
L 2848 410 
L 2899 0 
L 3379 0 
L 3379 5094 
L 2790 5094 
L 2790 3757 
L 2822 3162 
C 2515 3411 2253 3565 1843 3565 
C 1050 3565 339 2861 339 1734 
C 339 576 902 -83 1773 -83 
z
M 1901 410 
C 1293 410 941 902 941 1741 
C 941 2534 1389 3072 1946 3072 
C 2234 3072 2502 2970 2790 2707 
L 2790 883 
C 2502 563 2221 410 1901 410 
z
" transform="scale(0.015625)"/>
      <path id="NotoSansCJKsc-Regular-79" d="M 646 -1498 
C 1338 -1498 1702 -973 1946 -294 
L 3251 3475 
L 2682 3475 
L 2054 1549 
C 1965 1235 1862 883 1773 563 
L 1741 563 
C 1619 890 1504 1242 1395 1549 
L 691 3475 
L 83 3475 
L 1478 -6 
L 1402 -269 
C 1254 -698 1011 -1018 621 -1018 
C 525 -1018 422 -986 352 -960 
L 237 -1427 
C 346 -1472 486 -1498 646 -1498 
z
" transform="scale(0.015625)"/>
      <path id="NotoSansCJKsc-Regular-78" d="M 96 0 
L 710 0 
L 1178 813 
C 1299 1024 1408 1235 1530 1434 
L 1562 1434 
C 1696 1235 1824 1024 1939 813 
L 2451 0 
L 3091 0 
L 1946 1754 
L 3002 3475 
L 2394 3475 
L 1965 2714 
C 1856 2515 1760 2330 1658 2131 
L 1626 2131 
C 1510 2330 1389 2515 1286 2714 
L 819 3475 
L 186 3475 
L 1242 1811 
L 96 0 
z
" transform="scale(0.015625)"/>
      <path id="NotoSansCJKsc-Regular-29" d="M 634 -1254 
C 1222 -301 1574 730 1574 1990 
C 1574 3245 1222 4275 634 5235 
L 269 5069 
C 819 4154 1094 3072 1094 1990 
C 1094 902 819 -186 269 -1094 
L 634 -1254 
z
" transform="scale(0.015625)"/>
      <path id="NotoSansCJKsc-Regular-36" d="M 1926 -83 
C 2656 -83 3277 531 3277 1440 
C 3277 2426 2765 2912 1971 2912 
C 1606 2912 1197 2701 909 2349 
C 934 3802 1466 4294 2118 4294 
C 2400 4294 2682 4154 2861 3936 
L 3194 4294 
C 2931 4576 2579 4774 2093 4774 
C 1184 4774 358 4077 358 2240 
C 358 691 1030 -83 1926 -83 
z
M 922 1882 
C 1229 2317 1587 2477 1875 2477 
C 2445 2477 2720 2074 2720 1440 
C 2720 800 2374 378 1926 378 
C 1338 378 986 909 922 1882 
z
" transform="scale(0.015625)"/>
      <path id="NotoSansCJKsc-Regular-4d" d="M 646 0 
L 1178 0 
L 1178 2598 
C 1178 3002 1139 3571 1101 3981 
L 1126 3981 
L 1504 2912 
L 2394 474 
L 2790 474 
L 3674 2912 
L 4051 3981 
L 4077 3981 
C 4045 3571 4000 3002 4000 2598 
L 4000 0 
L 4550 0 
L 4550 4691 
L 3840 4691 
L 2944 2182 
C 2835 1862 2739 1530 2618 1203 
L 2592 1203 
C 2477 1530 2374 1862 2253 2182 
L 1357 4691 
L 646 4691 
L 646 0 
z
" transform="scale(0.015625)"/>
      <path id="NotoSansCJKsc-Regular-4c" d="M 646 0 
L 3290 0 
L 3290 506 
L 1235 506 
L 1235 4691 
L 646 4691 
L 646 0 
z
" transform="scale(0.015625)"/>
      <path id="NotoSansCJKsc-Regular-6a" d="M 224 -1549 
C 915 -1549 1178 -1107 1178 -397 
L 1178 3475 
L 595 3475 
L 595 -397 
C 595 -819 512 -1082 166 -1082 
C 45 -1082 -77 -1050 -166 -1018 
L -282 -1459 
C -160 -1510 19 -1549 224 -1549 
z
M 883 4192 
C 1107 4192 1274 4346 1274 4582 
C 1274 4806 1107 4960 883 4960 
C 653 4960 493 4806 493 4582 
C 493 4346 653 4192 883 4192 
z
" transform="scale(0.015625)"/>
     </defs>
     <use xlink:href="#NotoSansCJKsc-Regular-35"/>
     <use xlink:href="#NotoSansCJKsc-Regular-30" transform="translate(55.499985 0)"/>
     <use xlink:href="#NotoSansCJKsc-Regular-30" transform="translate(110.999969 0)"/>
     <use xlink:href="#NotoSansCJKsc-Regular-20" transform="translate(166.499954 0)"/>
     <use xlink:href="#NotoSansCJKsc-Regular-62" transform="translate(188.899948 0)"/>
     <use xlink:href="#NotoSansCJKsc-Regular-61" transform="translate(250.699936 0)"/>
     <use xlink:href="#NotoSansCJKsc-Regular-73" transform="translate(306.999924 0)"/>
     <use xlink:href="#NotoSansCJKsc-Regular-65" transform="translate(353.799911 0)"/>
     <use xlink:href="#NotoSansCJKsc-Regular-20" transform="translate(409.199905 0)"/>
     <use xlink:href="#NotoSansCJKsc-Regular-66" transform="translate(431.599899 0)"/>
     <use xlink:href="#NotoSansCJKsc-Regular-61" transform="translate(464.099884 0)"/>
     <use xlink:href="#NotoSansCJKsc-Regular-63" transform="translate(520.399872 0)"/>
     <use xlink:href="#NotoSansCJKsc-Regular-65" transform="translate(571.399857 0)"/>
     <use xlink:href="#NotoSansCJKsc-Regular-73" transform="translate(626.79985 0)"/>
     <use xlink:href="#NotoSansCJKsc-Regular-20" transform="translate(673.599838 0)"/>
     <use xlink:href="#NotoSansCJKsc-Regular-20" transform="translate(695.999832 0)"/>
     <use xlink:href="#NotoSansCJKsc-Regular-2d" transform="translate(718.399826 0)"/>
     <use xlink:href="#NotoSansCJKsc-Regular-3e" transform="translate(753.099823 0)"/>
     <use xlink:href="#NotoSansCJKsc-Regular-20" transform="translate(808.599808 0)"/>
     <use xlink:href="#NotoSansCJKsc-Regular-20" transform="translate(830.999802 0)"/>
     <use xlink:href="#NotoSansCJKsc-Regular-7e" transform="translate(853.399796 0)"/>
     <use xlink:href="#NotoSansCJKsc-Regular-35" transform="translate(908.89978 0)"/>
     <use xlink:href="#NotoSansCJKsc-Regular-30" transform="translate(964.399765 0)"/>
     <use xlink:href="#NotoSansCJKsc-Regular-20" transform="translate(1019.89975 0)"/>
     <use xlink:href="#NotoSansCJKsc-Regular-73" transform="translate(1042.299744 0)"/>
     <use xlink:href="#NotoSansCJKsc-Regular-69" transform="translate(1089.099731 0)"/>
     <use xlink:href="#NotoSansCJKsc-Regular-6e" transform="translate(1116.599716 0)"/>
     <use xlink:href="#NotoSansCJKsc-Regular-67" transform="translate(1177.599701 0)"/>
     <use xlink:href="#NotoSansCJKsc-Regular-6c" transform="translate(1233.999695 0)"/>
     <use xlink:href="#NotoSansCJKsc-Regular-65" transform="translate(1262.399689 0)"/>
     <use xlink:href="#NotoSansCJKsc-Regular-2d" transform="translate(1317.799683 0)"/>
     <use xlink:href="#NotoSansCJKsc-Regular-61" transform="translate(1352.49968 0)"/>
     <use xlink:href="#NotoSansCJKsc-Regular-74" transform="translate(1408.799667 0)"/>
     <use xlink:href="#NotoSansCJKsc-Regular-74" transform="translate(1446.499664 0)"/>
     <use xlink:href="#NotoSansCJKsc-Regular-72" transform="translate(1484.199661 0)"/>
     <use xlink:href="#NotoSansCJKsc-Regular-69" transform="translate(1522.999649 0)"/>
     <use xlink:href="#NotoSansCJKsc-Regular-62" transform="translate(1550.499634 0)"/>
     <use xlink:href="#NotoSansCJKsc-Regular-75" transform="translate(1612.299622 0)"/>
     <use xlink:href="#NotoSansCJKsc-Regular-74" transform="translate(1672.999619 0)"/>
     <use xlink:href="#NotoSansCJKsc-Regular-65" transform="translate(1710.699615 0)"/>
     <use xlink:href="#NotoSansCJKsc-Regular-20" transform="translate(1766.099609 0)"/>
     <use xlink:href="#NotoSansCJKsc-Regular-76" transform="translate(1788.499603 0)"/>
     <use xlink:href="#NotoSansCJKsc-Regular-61" transform="translate(1840.599594 0)"/>
     <use xlink:href="#NotoSansCJKsc-Regular-72" transform="translate(1896.899582 0)"/>
     <use xlink:href="#NotoSansCJKsc-Regular-69" transform="translate(1935.69957 0)"/>
     <use xlink:href="#NotoSansCJKsc-Regular-61" transform="translate(1963.199554 0)"/>
     <use xlink:href="#NotoSansCJKsc-Regular-74" transform="translate(2019.499542 0)"/>
     <use xlink:href="#NotoSansCJKsc-Regular-69" transform="translate(2057.199539 0)"/>
     <use xlink:href="#NotoSansCJKsc-Regular-6f" transform="translate(2084.699524 0)"/>
     <use xlink:href="#NotoSansCJKsc-Regular-6e" transform="translate(2145.299515 0)"/>
     <use xlink:href="#NotoSansCJKsc-Regular-73" transform="translate(2206.2995 0)"/>
     <use xlink:href="#NotoSansCJKsc-Regular-20" transform="translate(2253.099487 0)"/>
     <use xlink:href="#NotoSansCJKsc-Regular-65" transform="translate(2275.499481 0)"/>
     <use xlink:href="#NotoSansCJKsc-Regular-61" transform="translate(2330.899475 0)"/>
     <use xlink:href="#NotoSansCJKsc-Regular-63" transform="translate(2387.199463 0)"/>
     <use xlink:href="#NotoSansCJKsc-Regular-68" transform="translate(2438.199448 0)"/>
     <use xlink:href="#NotoSansCJKsc-Regular-20" transform="translate(2498.899445 0)"/>
     <use xlink:href="#NotoSansCJKsc-Regular-28" transform="translate(2521.299438 0)"/>
     <use xlink:href="#NotoSansCJKsc-Regular-7e" transform="translate(2555.099426 0)"/>
     <use xlink:href="#NotoSansCJKsc-Regular-32" transform="translate(2610.599411 0)"/>
     <use xlink:href="#NotoSansCJKsc-Regular-35" transform="translate(2666.099396 0)"/>
     <use xlink:href="#NotoSansCJKsc-Regular-4b" transform="translate(2721.59938 0)"/>
     <use xlink:href="#NotoSansCJKsc-Regular-20" transform="translate(2786.199371 0)"/>
     <use xlink:href="#NotoSansCJKsc-Regular-69" transform="translate(2808.599365 0)"/>
     <use xlink:href="#NotoSansCJKsc-Regular-6d" transform="translate(2836.09935 0)"/>
     <use xlink:href="#NotoSansCJKsc-Regular-67" transform="translate(2928.699341 0)"/>
     <use xlink:href="#NotoSansCJKsc-Regular-73" transform="translate(2985.099335 0)"/>
     <use xlink:href="#NotoSansCJKsc-Regular-2c" transform="translate(3031.899323 0)"/>
     <use xlink:href="#NotoSansCJKsc-Regular-20" transform="translate(3059.69931 0)"/>
     <use xlink:href="#NotoSansCJKsc-Regular-69" transform="translate(3082.099304 0)"/>
     <use xlink:href="#NotoSansCJKsc-Regular-64" transform="translate(3109.599289 0)"/>
     <use xlink:href="#NotoSansCJKsc-Regular-65" transform="translate(3171.599274 0)"/>
     <use xlink:href="#NotoSansCJKsc-Regular-6e" transform="translate(3226.999268 0)"/>
     <use xlink:href="#NotoSansCJKsc-Regular-74" transform="translate(3287.999252 0)"/>
     <use xlink:href="#NotoSansCJKsc-Regular-69" transform="translate(3325.699249 0)"/>
     <use xlink:href="#NotoSansCJKsc-Regular-74" transform="translate(3353.199234 0)"/>
     <use xlink:href="#NotoSansCJKsc-Regular-79" transform="translate(3390.899231 0)"/>
     <use xlink:href="#NotoSansCJKsc-Regular-20" transform="translate(3442.999222 0)"/>
     <use xlink:href="#NotoSansCJKsc-Regular-66" transform="translate(3465.399216 0)"/>
     <use xlink:href="#NotoSansCJKsc-Regular-69" transform="translate(3497.8992 0)"/>
     <use xlink:href="#NotoSansCJKsc-Regular-78" transform="translate(3525.399185 0)"/>
     <use xlink:href="#NotoSansCJKsc-Regular-65" transform="translate(3575.199173 0)"/>
     <use xlink:href="#NotoSansCJKsc-Regular-64" transform="translate(3630.599167 0)"/>
     <use xlink:href="#NotoSansCJKsc-Regular-29" transform="translate(3692.599152 0)"/>
     <use xlink:href="#NotoSansCJKsc-Regular-20" transform="translate(3726.399139 0)"/>
     <use xlink:href="#NotoSansCJKsc-Regular-20" transform="translate(3748.799133 0)"/>
     <use xlink:href="#NotoSansCJKsc-Regular-2d" transform="translate(3771.199127 0)"/>
     <use xlink:href="#NotoSansCJKsc-Regular-3e" transform="translate(3805.899124 0)"/>
     <use xlink:href="#NotoSansCJKsc-Regular-20" transform="translate(3861.399109 0)"/>
     <use xlink:href="#NotoSansCJKsc-Regular-20" transform="translate(3883.799103 0)"/>
     <use xlink:href="#NotoSansCJKsc-Regular-36" transform="translate(3906.199097 0)"/>
     <use xlink:href="#NotoSansCJKsc-Regular-20" transform="translate(3961.699081 0)"/>
     <use xlink:href="#NotoSansCJKsc-Regular-4d" transform="translate(3984.099075 0)"/>
     <use xlink:href="#NotoSansCJKsc-Regular-4c" transform="translate(4065.299057 0)"/>
     <use xlink:href="#NotoSansCJKsc-Regular-4c" transform="translate(4119.599045 0)"/>
     <use xlink:href="#NotoSansCJKsc-Regular-4d" transform="translate(4173.899033 0)"/>
     <use xlink:href="#NotoSansCJKsc-Regular-73" transform="translate(4255.099014 0)"/>
     <use xlink:href="#NotoSansCJKsc-Regular-20" transform="translate(4301.899002 0)"/>
     <use xlink:href="#NotoSansCJKsc-Regular-78" transform="translate(4324.298996 0)"/>
     <use xlink:href="#NotoSansCJKsc-Regular-20" transform="translate(4374.098984 0)"/>
     <use xlink:href="#NotoSansCJKsc-Regular-32" transform="translate(4396.498978 0)"/>
     <use xlink:href="#NotoSansCJKsc-Regular-35" transform="translate(4451.998962 0)"/>
     <use xlink:href="#NotoSansCJKsc-Regular-20" transform="translate(4507.498947 0)"/>
     <use xlink:href="#NotoSansCJKsc-Regular-62" transform="translate(4529.898941 0)"/>
     <use xlink:href="#NotoSansCJKsc-Regular-69" transform="translate(4591.698929 0)"/>
     <use xlink:href="#NotoSansCJKsc-Regular-6e" transform="translate(4619.198914 0)"/>
     <use xlink:href="#NotoSansCJKsc-Regular-61" transform="translate(4680.198898 0)"/>
     <use xlink:href="#NotoSansCJKsc-Regular-72" transform="translate(4736.498886 0)"/>
     <use xlink:href="#NotoSansCJKsc-Regular-79" transform="translate(4775.298874 0)"/>
     <use xlink:href="#NotoSansCJKsc-Regular-20" transform="translate(4827.398865 0)"/>
     <use xlink:href="#NotoSansCJKsc-Regular-6a" transform="translate(4849.798859 0)"/>
     <use xlink:href="#NotoSansCJKsc-Regular-75" transform="translate(4877.298843 0)"/>
     <use xlink:href="#NotoSansCJKsc-Regular-64" transform="translate(4937.99884 0)"/>
     <use xlink:href="#NotoSansCJKsc-Regular-67" transform="translate(4999.998825 0)"/>
     <use xlink:href="#NotoSansCJKsc-Regular-6d" transform="translate(5056.398819 0)"/>
     <use xlink:href="#NotoSansCJKsc-Regular-65" transform="translate(5148.99881 0)"/>
     <use xlink:href="#NotoSansCJKsc-Regular-6e" transform="translate(5204.398804 0)"/>
     <use xlink:href="#NotoSansCJKsc-Regular-74" transform="translate(5265.398788 0)"/>
     <use xlink:href="#NotoSansCJKsc-Regular-73" transform="translate(5303.098785 0)"/>
    </g>
   </g>
   <g id="text_3">
    <!-- 500 base faces -->
    <g style="fill: #0891b2" transform="translate(41.947078 101.68664) scale(0.105 -0.105)">
     <defs>
      <path id="NotoSansCJKsc-Bold-35" d="M 1773 -90 
C 2637 -90 3424 518 3424 1574 
C 3424 2605 2765 3072 1965 3072 
C 1747 3072 1581 3034 1395 2944 
L 1485 3949 
L 3206 3949 
L 3206 4742 
L 672 4742 
L 544 2438 
L 973 2163 
C 1254 2342 1408 2406 1683 2406 
C 2157 2406 2483 2099 2483 1549 
C 2483 992 2138 678 1645 678 
C 1210 678 870 896 602 1158 
L 166 557 
C 525 205 1018 -90 1773 -90 
z
" transform="scale(0.015625)"/>
      <path id="NotoSansCJKsc-Bold-30" d="M 1888 -90 
C 2854 -90 3494 755 3494 2394 
C 3494 4019 2854 4826 1888 4826 
C 922 4826 282 4026 282 2394 
C 282 755 922 -90 1888 -90 
z
M 1888 646 
C 1478 646 1171 1056 1171 2394 
C 1171 3712 1478 4102 1888 4102 
C 2298 4102 2598 3712 2598 2394 
C 2598 1056 2298 646 1888 646 
z
" transform="scale(0.015625)"/>
     </defs>
     <use xlink:href="#NotoSansCJKsc-Bold-35"/>
     <use xlink:href="#NotoSansCJKsc-Bold-30" transform="translate(58.999985 0)"/>
     <use xlink:href="#NotoSansCJKsc-Bold-30" transform="translate(117.999969 0)"/>
     <use xlink:href="#NotoSansCJKsc-Bold-20" transform="translate(176.999954 0)"/>
     <use xlink:href="#NotoSansCJKsc-Bold-62" transform="translate(199.699951 0)"/>
     <use xlink:href="#NotoSansCJKsc-Bold-61" transform="translate(264.099945 0)"/>
     <use xlink:href="#NotoSansCJKsc-Bold-73" transform="translate(323.199936 0)"/>
     <use xlink:href="#NotoSansCJKsc-Bold-65" transform="translate(372.699921 0)"/>
     <use xlink:href="#NotoSansCJKsc-Bold-20" transform="translate(430.799911 0)"/>
     <use xlink:href="#NotoSansCJKsc-Bold-66" transform="translate(453.499908 0)"/>
     <use xlink:href="#NotoSansCJKsc-Bold-61" transform="translate(490.699905 0)"/>
     <use xlink:href="#NotoSansCJKsc-Bold-63" transform="translate(549.799896 0)"/>
     <use xlink:href="#NotoSansCJKsc-Bold-65" transform="translate(602.499893 0)"/>
     <use xlink:href="#NotoSansCJKsc-Bold-73" transform="translate(660.599884 0)"/>
    </g>
   </g>
   <g id="text_4">
    <!-- photorealistic -->
    <g style="fill: #475569" transform="translate(49.932 115.772845) scale(0.09 -0.09)">
     <defs>
      <path id="NotoSansCJKsc-Regular-70" d="M 589 -1466 
L 1178 -1466 
L 1178 -288 
L 1158 320 
C 1472 58 1805 -83 2118 -83 
C 2912 -83 3629 602 3629 1792 
C 3629 2867 3142 3565 2246 3565 
C 1843 3565 1453 3334 1139 3072 
L 1126 3072 
L 1069 3475 
L 589 3475 
L 589 -1466 
z
M 2022 410 
C 1792 410 1485 499 1178 768 
L 1178 2598 
C 1510 2906 1811 3072 2099 3072 
C 2765 3072 3021 2560 3021 1786 
C 3021 928 2598 410 2022 410 
z
" transform="scale(0.015625)"/>
     </defs>
     <use xlink:href="#NotoSansCJKsc-Regular-70"/>
     <use xlink:href="#NotoSansCJKsc-Regular-68" transform="translate(61.999985 0)"/>
     <use xlink:href="#NotoSansCJKsc-Regular-6f" transform="translate(122.699982 0)"/>
     <use xlink:href="#NotoSansCJKsc-Regular-74" transform="translate(183.299973 0)"/>
     <use xlink:href="#NotoSansCJKsc-Regular-6f" transform="translate(220.999969 0)"/>
     <use xlink:href="#NotoSansCJKsc-Regular-72" transform="translate(281.59996 0)"/>
     <use xlink:href="#NotoSansCJKsc-Regular-65" transform="translate(320.399948 0)"/>
     <use xlink:href="#NotoSansCJKsc-Regular-61" transform="translate(375.799942 0)"/>
     <use xlink:href="#NotoSansCJKsc-Regular-6c" transform="translate(432.09993 0)"/>
     <use xlink:href="#NotoSansCJKsc-Regular-69" transform="translate(460.499924 0)"/>
     <use xlink:href="#NotoSansCJKsc-Regular-73" transform="translate(487.999908 0)"/>
     <use xlink:href="#NotoSansCJKsc-Regular-74" transform="translate(534.799896 0)"/>
     <use xlink:href="#NotoSansCJKsc-Regular-69" transform="translate(572.499893 0)"/>
     <use xlink:href="#NotoSansCJKsc-Regular-63" transform="translate(599.999878 0)"/>
    </g>
   </g>
   <g id="text_5">
    <!-- synthetic identities -->
    <g style="fill: #475569" transform="translate(39.139734 128.524045) scale(0.09 -0.09)">
     <use xlink:href="#NotoSansCJKsc-Regular-73"/>
     <use xlink:href="#NotoSansCJKsc-Regular-79" transform="translate(46.799988 0)"/>
     <use xlink:href="#NotoSansCJKsc-Regular-6e" transform="translate(98.899979 0)"/>
     <use xlink:href="#NotoSansCJKsc-Regular-74" transform="translate(159.899963 0)"/>
     <use xlink:href="#NotoSansCJKsc-Regular-68" transform="translate(197.59996 0)"/>
     <use xlink:href="#NotoSansCJKsc-Regular-65" transform="translate(258.299957 0)"/>
     <use xlink:href="#NotoSansCJKsc-Regular-74" transform="translate(313.699951 0)"/>
     <use xlink:href="#NotoSansCJKsc-Regular-69" transform="translate(351.399948 0)"/>
     <use xlink:href="#NotoSansCJKsc-Regular-63" transform="translate(378.899933 0)"/>
     <use xlink:href="#NotoSansCJKsc-Regular-20" transform="translate(429.899918 0)"/>
     <use xlink:href="#NotoSansCJKsc-Regular-69" transform="translate(452.299911 0)"/>
     <use xlink:href="#NotoSansCJKsc-Regular-64" transform="translate(479.799896 0)"/>
     <use xlink:href="#NotoSansCJKsc-Regular-65" transform="translate(541.799881 0)"/>
     <use xlink:href="#NotoSansCJKsc-Regular-6e" transform="translate(597.199875 0)"/>
     <use xlink:href="#NotoSansCJKsc-Regular-74" transform="translate(658.19986 0)"/>
     <use xlink:href="#NotoSansCJKsc-Regular-69" transform="translate(695.899857 0)"/>
     <use xlink:href="#NotoSansCJKsc-Regular-74" transform="translate(723.399841 0)"/>
     <use xlink:href="#NotoSansCJKsc-Regular-69" transform="translate(761.099838 0)"/>
     <use xlink:href="#NotoSansCJKsc-Regular-65" transform="translate(788.599823 0)"/>
     <use xlink:href="#NotoSansCJKsc-Regular-73" transform="translate(843.999817 0)"/>
    </g>
   </g>
   <g id="text_6">
    <!-- Single-attribute edits -->
    <g style="fill: #7c3aed" transform="translate(178.821797 101.57953) scale(0.102 -0.102)">
     <use xlink:href="#NotoSansCJKsc-Bold-53"/>
     <use xlink:href="#NotoSansCJKsc-Bold-69" transform="translate(62.399994 0)"/>
     <use xlink:href="#NotoSansCJKsc-Bold-6e" transform="translate(92.799988 0)"/>
     <use xlink:href="#NotoSansCJKsc-Bold-67" transform="translate(156.899979 0)"/>
     <use xlink:href="#NotoSansCJKsc-Bold-6c" transform="translate(216.599976 0)"/>
     <use xlink:href="#NotoSansCJKsc-Bold-65" transform="translate(248.09996 0)"/>
     <use xlink:href="#NotoSansCJKsc-Bold-2d" transform="translate(306.199951 0)"/>
     <use xlink:href="#NotoSansCJKsc-Bold-61" transform="translate(343.199936 0)"/>
     <use xlink:href="#NotoSansCJKsc-Bold-74" transform="translate(402.299927 0)"/>
     <use xlink:href="#NotoSansCJKsc-Bold-74" transform="translate(444.399918 0)"/>
     <use xlink:href="#NotoSansCJKsc-Bold-72" transform="translate(486.499908 0)"/>
     <use xlink:href="#NotoSansCJKsc-Bold-69" transform="translate(530.099899 0)"/>
     <use xlink:href="#NotoSansCJKsc-Bold-62" transform="translate(560.499893 0)"/>
     <use xlink:href="#NotoSansCJKsc-Bold-75" transform="translate(624.899887 0)"/>
     <use xlink:href="#NotoSansCJKsc-Bold-74" transform="translate(688.599884 0)"/>
     <use xlink:href="#NotoSansCJKsc-Bold-65" transform="translate(730.699875 0)"/>
     <use xlink:href="#NotoSansCJKsc-Bold-20" transform="translate(788.799866 0)"/>
     <use xlink:href="#NotoSansCJKsc-Bold-65" transform="translate(811.499863 0)"/>
     <use xlink:href="#NotoSansCJKsc-Bold-64" transform="translate(869.599854 0)"/>
     <use xlink:href="#NotoSansCJKsc-Bold-69" transform="translate(933.999847 0)"/>
     <use xlink:href="#NotoSansCJKsc-Bold-74" transform="translate(964.399841 0)"/>
     <use xlink:href="#NotoSansCJKsc-Bold-73" transform="translate(1006.499832 0)"/>
    </g>
   </g>
   <g id="text_7">
    <!-- change ONE cue at a time: -->
    <g style="fill: #475569" transform="translate(180.360781 115.45447) scale(0.086 -0.086)">
     <defs>
      <path id="NotoSansCJKsc-Regular-4f" d="M 2374 -83 
C 3552 -83 4378 858 4378 2362 
C 4378 3866 3552 4774 2374 4774 
C 1197 4774 371 3866 371 2362 
C 371 858 1197 -83 2374 -83 
z
M 2374 435 
C 1530 435 979 1190 979 2362 
C 979 3533 1530 4256 2374 4256 
C 3219 4256 3770 3533 3770 2362 
C 3770 1190 3219 435 2374 435 
z
" transform="scale(0.015625)"/>
      <path id="NotoSansCJKsc-Regular-4e" d="M 646 0 
L 1203 0 
L 1203 2464 
C 1203 2957 1158 3456 1133 3930 
L 1158 3930 
L 1664 2963 
L 3373 0 
L 3981 0 
L 3981 4691 
L 3418 4691 
L 3418 2253 
C 3418 1766 3462 1235 3501 768 
L 3469 768 
L 2963 1734 
L 1248 4691 
L 646 4691 
L 646 0 
z
" transform="scale(0.015625)"/>
      <path id="NotoSansCJKsc-Regular-45" d="M 646 0 
L 3418 0 
L 3418 506 
L 1235 506 
L 1235 2214 
L 3014 2214 
L 3014 2720 
L 1235 2720 
L 1235 4192 
L 3347 4192 
L 3347 4691 
L 646 4691 
L 646 0 
z
" transform="scale(0.015625)"/>
      <path id="NotoSansCJKsc-Regular-3a" d="M 890 2496 
C 1120 2496 1312 2675 1312 2944 
C 1312 3206 1120 3392 890 3392 
C 653 3392 467 3206 467 2944 
C 467 2675 653 2496 890 2496 
z
M 890 -83 
C 1120 -83 1312 96 1312 358 
C 1312 627 1120 806 890 806 
C 653 806 467 627 467 358 
C 467 96 653 -83 890 -83 
z
" transform="scale(0.015625)"/>
     </defs>
     <use xlink:href="#NotoSansCJKsc-Regular-63"/>
     <use xlink:href="#NotoSansCJKsc-Regular-68" transform="translate(50.999985 0)"/>
     <use xlink:href="#NotoSansCJKsc-Regular-61" transform="translate(111.699982 0)"/>
     <use xlink:href="#NotoSansCJKsc-Regular-6e" transform="translate(167.999969 0)"/>
     <use xlink:href="#NotoSansCJKsc-Regular-67" transform="translate(228.999954 0)"/>
     <use xlink:href="#NotoSansCJKsc-Regular-65" transform="translate(285.399948 0)"/>
     <use xlink:href="#NotoSansCJKsc-Regular-20" transform="translate(340.799942 0)"/>
     <use xlink:href="#NotoSansCJKsc-Regular-4f" transform="translate(363.199936 0)"/>
     <use xlink:href="#NotoSansCJKsc-Regular-4e" transform="translate(437.399918 0)"/>
     <use xlink:href="#NotoSansCJKsc-Regular-45" transform="translate(509.699905 0)"/>
     <use xlink:href="#NotoSansCJKsc-Regular-20" transform="translate(568.599899 0)"/>
     <use xlink:href="#NotoSansCJKsc-Regular-63" transform="translate(590.999893 0)"/>
     <use xlink:href="#NotoSansCJKsc-Regular-75" transform="translate(641.999878 0)"/>
     <use xlink:href="#NotoSansCJKsc-Regular-65" transform="translate(702.699875 0)"/>
     <use xlink:href="#NotoSansCJKsc-Regular-20" transform="translate(758.099869 0)"/>
     <use xlink:href="#NotoSansCJKsc-Regular-61" transform="translate(780.499863 0)"/>
     <use xlink:href="#NotoSansCJKsc-Regular-74" transform="translate(836.79985 0)"/>
     <use xlink:href="#NotoSansCJKsc-Regular-20" transform="translate(874.499847 0)"/>
     <use xlink:href="#NotoSansCJKsc-Regular-61" transform="translate(896.899841 0)"/>
     <use xlink:href="#NotoSansCJKsc-Regular-20" transform="translate(953.199829 0)"/>
     <use xlink:href="#NotoSansCJKsc-Regular-74" transform="translate(975.599823 0)"/>
     <use xlink:href="#NotoSansCJKsc-Regular-69" transform="translate(1013.29982 0)"/>
     <use xlink:href="#NotoSansCJKsc-Regular-6d" transform="translate(1040.799805 0)"/>
     <use xlink:href="#NotoSansCJKsc-Regular-65" transform="translate(1133.399796 0)"/>
     <use xlink:href="#NotoSansCJKsc-Regular-3a" transform="translate(1188.799789 0)"/>
    </g>
   </g>
   <g id="text_8">
    <!-- age / body type / -->
    <g style="fill: #475569" transform="translate(199.144391 128.20567) scale(0.086 -0.086)">
     <defs>
      <path id="NotoSansCJKsc-Regular-2f" d="M 70 -1146 
L 499 -1146 
L 2413 5082 
L 1990 5082 
L 70 -1146 
z
" transform="scale(0.015625)"/>
     </defs>
     <use xlink:href="#NotoSansCJKsc-Regular-61"/>
     <use xlink:href="#NotoSansCJKsc-Regular-67" transform="translate(56.299988 0)"/>
     <use xlink:href="#NotoSansCJKsc-Regular-65" transform="translate(112.699982 0)"/>
     <use xlink:href="#NotoSansCJKsc-Regular-20" transform="translate(168.099976 0)"/>
     <use xlink:href="#NotoSansCJKsc-Regular-2f" transform="translate(190.499969 0)"/>
     <use xlink:href="#NotoSansCJKsc-Regular-20" transform="translate(229.699966 0)"/>
     <use xlink:href="#NotoSansCJKsc-Regular-62" transform="translate(252.09996 0)"/>
     <use xlink:href="#NotoSansCJKsc-Regular-6f" transform="translate(313.899948 0)"/>
     <use xlink:href="#NotoSansCJKsc-Regular-64" transform="translate(374.499939 0)"/>
     <use xlink:href="#NotoSansCJKsc-Regular-79" transform="translate(436.499924 0)"/>
     <use xlink:href="#NotoSansCJKsc-Regular-20" transform="translate(488.599915 0)"/>
     <use xlink:href="#NotoSansCJKsc-Regular-74" transform="translate(510.999908 0)"/>
     <use xlink:href="#NotoSansCJKsc-Regular-79" transform="translate(548.699905 0)"/>
     <use xlink:href="#NotoSansCJKsc-Regular-70" transform="translate(600.799896 0)"/>
     <use xlink:href="#NotoSansCJKsc-Regular-65" transform="translate(662.799881 0)"/>
     <use xlink:href="#NotoSansCJKsc-Regular-20" transform="translate(718.199875 0)"/>
     <use xlink:href="#NotoSansCJKsc-Regular-2f" transform="translate(740.599869 0)"/>
    </g>
   </g>
   <g id="text_9">
    <!-- fashion style ... -->
    <g style="fill: #475569" transform="translate(202.835 141.069746) scale(0.086 -0.086)">
     <defs>
      <path id="NotoSansCJKsc-Regular-2e" d="M 890 -83 
C 1120 -83 1312 96 1312 358 
C 1312 627 1120 806 890 806 
C 653 806 467 627 467 358 
C 467 96 653 -83 890 -83 
z
" transform="scale(0.015625)"/>
     </defs>
     <use xlink:href="#NotoSansCJKsc-Regular-66"/>
     <use xlink:href="#NotoSansCJKsc-Regular-61" transform="translate(32.499985 0)"/>
     <use xlink:href="#NotoSansCJKsc-Regular-73" transform="translate(88.799973 0)"/>
     <use xlink:href="#NotoSansCJKsc-Regular-68" transform="translate(135.59996 0)"/>
     <use xlink:href="#NotoSansCJKsc-Regular-69" transform="translate(196.299957 0)"/>
     <use xlink:href="#NotoSansCJKsc-Regular-6f" transform="translate(223.799942 0)"/>
     <use xlink:href="#NotoSansCJKsc-Regular-6e" transform="translate(284.399933 0)"/>
     <use xlink:href="#NotoSansCJKsc-Regular-20" transform="translate(345.399918 0)"/>
     <use xlink:href="#NotoSansCJKsc-Regular-73" transform="translate(367.799911 0)"/>
     <use xlink:href="#NotoSansCJKsc-Regular-74" transform="translate(414.599899 0)"/>
     <use xlink:href="#NotoSansCJKsc-Regular-79" transform="translate(452.299896 0)"/>
     <use xlink:href="#NotoSansCJKsc-Regular-6c" transform="translate(504.399887 0)"/>
     <use xlink:href="#NotoSansCJKsc-Regular-65" transform="translate(532.799881 0)"/>
     <use xlink:href="#NotoSansCJKsc-Regular-20" transform="translate(588.199875 0)"/>
     <use xlink:href="#NotoSansCJKsc-Regular-2e" transform="translate(610.599869 0)"/>
     <use xlink:href="#NotoSansCJKsc-Regular-2e" transform="translate(638.399857 0)"/>
     <use xlink:href="#NotoSansCJKsc-Regular-2e" transform="translate(666.199844 0)"/>
    </g>
   </g>
   <g id="text_10">
    <!-- identity held fixed -->
    <g style="fill: #475569" transform="translate(196.581188 153.820945) scale(0.086 -0.086)">
     <use xlink:href="#NotoSansCJKsc-Regular-69"/>
     <use xlink:href="#NotoSansCJKsc-Regular-64" transform="translate(27.499985 0)"/>
     <use xlink:href="#NotoSansCJKsc-Regular-65" transform="translate(89.499969 0)"/>
     <use xlink:href="#NotoSansCJKsc-Regular-6e" transform="translate(144.899963 0)"/>
     <use xlink:href="#NotoSansCJKsc-Regular-74" transform="translate(205.899948 0)"/>
     <use xlink:href="#NotoSansCJKsc-Regular-69" transform="translate(243.599945 0)"/>
     <use xlink:href="#NotoSansCJKsc-Regular-74" transform="translate(271.09993 0)"/>
     <use xlink:href="#NotoSansCJKsc-Regular-79" transform="translate(308.799927 0)"/>
     <use xlink:href="#NotoSansCJKsc-Regular-20" transform="translate(360.899918 0)"/>
     <use xlink:href="#NotoSansCJKsc-Regular-68" transform="translate(383.299911 0)"/>
     <use xlink:href="#NotoSansCJKsc-Regular-65" transform="translate(443.999908 0)"/>
     <use xlink:href="#NotoSansCJKsc-Regular-6c" transform="translate(499.399902 0)"/>
     <use xlink:href="#NotoSansCJKsc-Regular-64" transform="translate(527.799896 0)"/>
     <use xlink:href="#NotoSansCJKsc-Regular-20" transform="translate(589.799881 0)"/>
     <use xlink:href="#NotoSansCJKsc-Regular-66" transform="translate(612.199875 0)"/>
     <use xlink:href="#NotoSansCJKsc-Regular-69" transform="translate(644.69986 0)"/>
     <use xlink:href="#NotoSansCJKsc-Regular-78" transform="translate(672.199844 0)"/>
     <use xlink:href="#NotoSansCJKsc-Regular-65" transform="translate(721.999832 0)"/>
     <use xlink:href="#NotoSansCJKsc-Regular-64" transform="translate(777.399826 0)"/>
    </g>
   </g>
   <g id="text_11">
    <!-- ~25K controlled images -->
    <g style="fill: #334155" transform="translate(173.650875 208.68961) scale(0.102 -0.102)">
     <defs>
      <path id="NotoSansCJKsc-Bold-7e" d="M 2509 1779 
C 2854 1779 3219 1978 3552 2496 
L 3053 2874 
C 2899 2592 2720 2451 2522 2451 
C 2125 2451 1856 3014 1267 3014 
C 915 3014 557 2816 224 2291 
L 717 1920 
C 870 2195 1050 2349 1254 2349 
C 1651 2349 1920 1779 2509 1779 
z
" transform="scale(0.015625)"/>
      <path id="NotoSansCJKsc-Bold-32" d="M 275 0 
L 3450 0 
L 3450 794 
L 2426 794 
C 2202 794 1888 768 1645 736 
C 2509 1587 3226 2509 3226 3366 
C 3226 4250 2630 4826 1734 4826 
C 1088 4826 666 4576 224 4102 
L 749 3597 
C 986 3859 1267 4083 1613 4083 
C 2067 4083 2323 3789 2323 3322 
C 2323 2586 1568 1696 275 544 
L 275 0 
z
" transform="scale(0.015625)"/>
      <path id="NotoSansCJKsc-Bold-4b" d="M 582 0 
L 1530 0 
L 1530 1331 
L 2150 2131 
L 3379 0 
L 4416 0 
L 2714 2874 
L 4160 4742 
L 3117 4742 
L 1549 2682 
L 1530 2682 
L 1530 4742 
L 582 4742 
L 582 0 
z
" transform="scale(0.015625)"/>
      <path id="NotoSansCJKsc-Bold-6d" d="M 506 0 
L 1446 0 
L 1446 2464 
C 1696 2739 1926 2867 2131 2867 
C 2477 2867 2637 2675 2637 2118 
L 2637 0 
L 3571 0 
L 3571 2464 
C 3827 2739 4058 2867 4262 2867 
C 4602 2867 4762 2675 4762 2118 
L 4762 0 
L 5696 0 
L 5696 2234 
C 5696 3136 5350 3674 4589 3674 
C 4128 3674 3776 3392 3443 3046 
C 3277 3443 2976 3674 2464 3674 
C 1997 3674 1664 3418 1363 3104 
L 1344 3104 
L 1274 3584 
L 506 3584 
L 506 0 
z
" transform="scale(0.015625)"/>
     </defs>
     <use xlink:href="#NotoSansCJKsc-Bold-7e"/>
     <use xlink:href="#NotoSansCJKsc-Bold-32" transform="translate(58.999985 0)"/>
     <use xlink:href="#NotoSansCJKsc-Bold-35" transform="translate(117.999969 0)"/>
     <use xlink:href="#NotoSansCJKsc-Bold-4b" transform="translate(176.999954 0)"/>
     <use xlink:href="#NotoSansCJKsc-Bold-20" transform="translate(245.599945 0)"/>
     <use xlink:href="#NotoSansCJKsc-Bold-63" transform="translate(268.299942 0)"/>
     <use xlink:href="#NotoSansCJKsc-Bold-6f" transform="translate(320.999939 0)"/>
     <use xlink:href="#NotoSansCJKsc-Bold-6e" transform="translate(383.59993 0)"/>
     <use xlink:href="#NotoSansCJKsc-Bold-74" transform="translate(447.699921 0)"/>
     <use xlink:href="#NotoSansCJKsc-Bold-72" transform="translate(489.799911 0)"/>
     <use xlink:href="#NotoSansCJKsc-Bold-6f" transform="translate(533.399902 0)"/>
     <use xlink:href="#NotoSansCJKsc-Bold-6c" transform="translate(595.999893 0)"/>
     <use xlink:href="#NotoSansCJKsc-Bold-6c" transform="translate(627.499878 0)"/>
     <use xlink:href="#NotoSansCJKsc-Bold-65" transform="translate(658.999863 0)"/>
     <use xlink:href="#NotoSansCJKsc-Bold-64" transform="translate(717.099854 0)"/>
     <use xlink:href="#NotoSansCJKsc-Bold-20" transform="translate(781.499847 0)"/>
     <use xlink:href="#NotoSansCJKsc-Bold-69" transform="translate(804.199844 0)"/>
     <use xlink:href="#NotoSansCJKsc-Bold-6d" transform="translate(834.599838 0)"/>
     <use xlink:href="#NotoSansCJKsc-Bold-61" transform="translate(930.999832 0)"/>
     <use xlink:href="#NotoSansCJKsc-Bold-67" transform="translate(990.099823 0)"/>
     <use xlink:href="#NotoSansCJKsc-Bold-65" transform="translate(1049.79982 0)"/>
     <use xlink:href="#NotoSansCJKsc-Bold-73" transform="translate(1107.899811 0)"/>
    </g>
   </g>
   <g id="text_12">
    <!-- ~50 variants per face -->
    <g style="fill: #475569" transform="translate(190.366188 222.839238) scale(0.088 -0.088)">
     <use xlink:href="#NotoSansCJKsc-Regular-7e"/>
     <use xlink:href="#NotoSansCJKsc-Regular-35" transform="translate(55.499985 0)"/>
     <use xlink:href="#NotoSansCJKsc-Regular-30" transform="translate(110.999969 0)"/>
     <use xlink:href="#NotoSansCJKsc-Regular-20" transform="translate(166.499954 0)"/>
     <use xlink:href="#NotoSansCJKsc-Regular-76" transform="translate(188.899948 0)"/>
     <use xlink:href="#NotoSansCJKsc-Regular-61" transform="translate(240.999939 0)"/>
     <use xlink:href="#NotoSansCJKsc-Regular-72" transform="translate(297.299927 0)"/>
     <use xlink:href="#NotoSansCJKsc-Regular-69" transform="translate(336.099915 0)"/>
     <use xlink:href="#NotoSansCJKsc-Regular-61" transform="translate(363.599899 0)"/>
     <use xlink:href="#NotoSansCJKsc-Regular-6e" transform="translate(419.899887 0)"/>
     <use xlink:href="#NotoSansCJKsc-Regular-74" transform="translate(480.899872 0)"/>
     <use xlink:href="#NotoSansCJKsc-Regular-73" transform="translate(518.599869 0)"/>
     <use xlink:href="#NotoSansCJKsc-Regular-20" transform="translate(565.399857 0)"/>
     <use xlink:href="#NotoSansCJKsc-Regular-70" transform="translate(587.79985 0)"/>
     <use xlink:href="#NotoSansCJKsc-Regular-65" transform="translate(649.799835 0)"/>
     <use xlink:href="#NotoSansCJKsc-Regular-72" transform="translate(705.199829 0)"/>
     <use xlink:href="#NotoSansCJKsc-Regular-20" transform="translate(743.999817 0)"/>
     <use xlink:href="#NotoSansCJKsc-Regular-66" transform="translate(766.399811 0)"/>
     <use xlink:href="#NotoSansCJKsc-Regular-61" transform="translate(798.899796 0)"/>
     <use xlink:href="#NotoSansCJKsc-Regular-63" transform="translate(855.199783 0)"/>
     <use xlink:href="#NotoSansCJKsc-Regular-65" transform="translate(906.199768 0)"/>
    </g>
   </g>
   <g id="text_13">
    <!-- 6 MLLMs -->
    <g style="fill: #2563eb" transform="translate(370.978078 101.447249) scale(0.102 -0.102)">
     <defs>
      <path id="NotoSansCJKsc-Bold-36" d="M 2022 -90 
C 2829 -90 3507 525 3507 1498 
C 3507 2509 2938 2982 2144 2982 
C 1843 2982 1440 2803 1178 2483 
C 1222 3661 1664 4070 2214 4070 
C 2483 4070 2771 3910 2938 3725 
L 3437 4288 
C 3155 4582 2733 4826 2150 4826 
C 1197 4826 320 4070 320 2304 
C 320 640 1126 -90 2022 -90 
z
M 1197 1818 
C 1434 2176 1722 2317 1971 2317 
C 2381 2317 2650 2061 2650 1498 
C 2650 922 2362 621 2003 621 
C 1606 621 1286 954 1197 1818 
z
" transform="scale(0.015625)"/>
      <path id="NotoSansCJKsc-Bold-4d" d="M 582 0 
L 1434 0 
L 1434 1978 
C 1434 2432 1357 3085 1312 3533 
L 1338 3533 
L 1715 2419 
L 2451 429 
L 2995 429 
L 3725 2419 
L 4109 3533 
L 4141 3533 
C 4090 3085 4019 2432 4019 1978 
L 4019 0 
L 4883 0 
L 4883 4742 
L 3834 4742 
L 3040 2515 
C 2944 2227 2861 1914 2758 1613 
L 2726 1613 
C 2630 1914 2541 2227 2438 2515 
L 1632 4742 
L 582 4742 
L 582 0 
z
" transform="scale(0.015625)"/>
      <path id="NotoSansCJKsc-Bold-4c" d="M 582 0 
L 3456 0 
L 3456 794 
L 1530 794 
L 1530 4742 
L 582 4742 
L 582 0 
z
" transform="scale(0.015625)"/>
     </defs>
     <use xlink:href="#NotoSansCJKsc-Bold-36"/>
     <use xlink:href="#NotoSansCJKsc-Bold-20" transform="translate(58.999985 0)"/>
     <use xlink:href="#NotoSansCJKsc-Bold-4d" transform="translate(81.699982 0)"/>
     <use xlink:href="#NotoSansCJKsc-Bold-4c" transform="translate(166.999969 0)"/>
     <use xlink:href="#NotoSansCJKsc-Bold-4c" transform="translate(224.799957 0)"/>
     <use xlink:href="#NotoSansCJKsc-Bold-4d" transform="translate(282.599945 0)"/>
     <use xlink:href="#NotoSansCJKsc-Bold-73" transform="translate(367.899933 0)"/>
    </g>
   </g>
   <g id="text_14">
    <!-- 25 binary social -->
    <g style="fill: #475569" transform="translate(359.689922 115.772845) scale(0.09 -0.09)">
     <use xlink:href="#NotoSansCJKsc-Regular-32"/>
     <use xlink:href="#NotoSansCJKsc-Regular-35" transform="translate(55.499985 0)"/>
     <use xlink:href="#NotoSansCJKsc-Regular-20" transform="translate(110.999969 0)"/>
     <use xlink:href="#NotoSansCJKsc-Regular-62" transform="translate(133.399963 0)"/>
     <use xlink:href="#NotoSansCJKsc-Regular-69" transform="translate(195.199951 0)"/>
     <use xlink:href="#NotoSansCJKsc-Regular-6e" transform="translate(222.699936 0)"/>
     <use xlink:href="#NotoSansCJKsc-Regular-61" transform="translate(283.699921 0)"/>
     <use xlink:href="#NotoSansCJKsc-Regular-72" transform="translate(339.999908 0)"/>
     <use xlink:href="#NotoSansCJKsc-Regular-79" transform="translate(378.799896 0)"/>
     <use xlink:href="#NotoSansCJKsc-Regular-20" transform="translate(430.899887 0)"/>
     <use xlink:href="#NotoSansCJKsc-Regular-73" transform="translate(453.299881 0)"/>
     <use xlink:href="#NotoSansCJKsc-Regular-6f" transform="translate(500.099869 0)"/>
     <use xlink:href="#NotoSansCJKsc-Regular-63" transform="translate(560.69986 0)"/>
     <use xlink:href="#NotoSansCJKsc-Regular-69" transform="translate(611.699844 0)"/>
     <use xlink:href="#NotoSansCJKsc-Regular-61" transform="translate(639.199829 0)"/>
     <use xlink:href="#NotoSansCJKsc-Regular-6c" transform="translate(695.499817 0)"/>
    </g>
   </g>
   <g id="text_15">
    <!-- judgment scenarios -->
    <g style="fill: #475569" transform="translate(350.869219 128.524045) scale(0.09 -0.09)">
     <use xlink:href="#NotoSansCJKsc-Regular-6a"/>
     <use xlink:href="#NotoSansCJKsc-Regular-75" transform="translate(27.499985 0)"/>
     <use xlink:href="#NotoSansCJKsc-Regular-64" transform="translate(88.199982 0)"/>
     <use xlink:href="#NotoSansCJKsc-Regular-67" transform="translate(150.199966 0)"/>
     <use xlink:href="#NotoSansCJKsc-Regular-6d" transform="translate(206.59996 0)"/>
     <use xlink:href="#NotoSansCJKsc-Regular-65" transform="translate(299.199951 0)"/>
     <use xlink:href="#NotoSansCJKsc-Regular-6e" transform="translate(354.599945 0)"/>
     <use xlink:href="#NotoSansCJKsc-Regular-74" transform="translate(415.59993 0)"/>
     <use xlink:href="#NotoSansCJKsc-Regular-20" transform="translate(453.299927 0)"/>
     <use xlink:href="#NotoSansCJKsc-Regular-73" transform="translate(475.699921 0)"/>
     <use xlink:href="#NotoSansCJKsc-Regular-63" transform="translate(522.499908 0)"/>
     <use xlink:href="#NotoSansCJKsc-Regular-65" transform="translate(573.499893 0)"/>
     <use xlink:href="#NotoSansCJKsc-Regular-6e" transform="translate(628.899887 0)"/>
     <use xlink:href="#NotoSansCJKsc-Regular-61" transform="translate(689.899872 0)"/>
     <use xlink:href="#NotoSansCJKsc-Regular-72" transform="translate(746.19986 0)"/>
     <use xlink:href="#NotoSansCJKsc-Regular-69" transform="translate(784.999847 0)"/>
     <use xlink:href="#NotoSansCJKsc-Regular-6f" transform="translate(812.499832 0)"/>
     <use xlink:href="#NotoSansCJKsc-Regular-73" transform="translate(873.099823 0)"/>
    </g>
   </g>
   <g id="text_16">
    <!-- (SES, trust, style ...) -->
    <g style="fill: #475569" transform="translate(352.035 141.473527) scale(0.09 -0.09)">
     <defs>
      <path id="NotoSansCJKsc-Regular-53" d="M 1946 -83 
C 2925 -83 3539 506 3539 1248 
C 3539 1946 3117 2266 2573 2502 
L 1907 2790 
C 1542 2944 1126 3117 1126 3578 
C 1126 3994 1472 4256 2003 4256 
C 2438 4256 2784 4090 3072 3821 
L 3379 4198 
C 3053 4538 2560 4774 2003 4774 
C 1152 4774 525 4256 525 3533 
C 525 2848 1043 2515 1478 2330 
L 2150 2035 
C 2598 1837 2938 1683 2938 1197 
C 2938 742 2573 435 1952 435 
C 1466 435 992 666 659 1018 
L 307 608 
C 710 186 1280 -83 1946 -83 
z
" transform="scale(0.015625)"/>
     </defs>
     <use xlink:href="#NotoSansCJKsc-Regular-28"/>
     <use xlink:href="#NotoSansCJKsc-Regular-53" transform="translate(33.799988 0)"/>
     <use xlink:href="#NotoSansCJKsc-Regular-45" transform="translate(93.399979 0)"/>
     <use xlink:href="#NotoSansCJKsc-Regular-53" transform="translate(152.299973 0)"/>
     <use xlink:href="#NotoSansCJKsc-Regular-2c" transform="translate(211.899963 0)"/>
     <use xlink:href="#NotoSansCJKsc-Regular-20" transform="translate(239.699951 0)"/>
     <use xlink:href="#NotoSansCJKsc-Regular-74" transform="translate(262.099945 0)"/>
     <use xlink:href="#NotoSansCJKsc-Regular-72" transform="translate(299.799942 0)"/>
     <use xlink:href="#NotoSansCJKsc-Regular-75" transform="translate(338.59993 0)"/>
     <use xlink:href="#NotoSansCJKsc-Regular-73" transform="translate(399.299927 0)"/>
     <use xlink:href="#NotoSansCJKsc-Regular-74" transform="translate(446.099915 0)"/>
     <use xlink:href="#NotoSansCJKsc-Regular-2c" transform="translate(483.799911 0)"/>
     <use xlink:href="#NotoSansCJKsc-Regular-20" transform="translate(511.599899 0)"/>
     <use xlink:href="#NotoSansCJKsc-Regular-73" transform="translate(533.999893 0)"/>
     <use xlink:href="#NotoSansCJKsc-Regular-74" transform="translate(580.799881 0)"/>
     <use xlink:href="#NotoSansCJKsc-Regular-79" transform="translate(618.499878 0)"/>
     <use xlink:href="#NotoSansCJKsc-Regular-6c" transform="translate(670.599869 0)"/>
     <use xlink:href="#NotoSansCJKsc-Regular-65" transform="translate(698.999863 0)"/>
     <use xlink:href="#NotoSansCJKsc-Regular-20" transform="translate(754.399857 0)"/>
     <use xlink:href="#NotoSansCJKsc-Regular-2e" transform="translate(776.79985 0)"/>
     <use xlink:href="#NotoSansCJKsc-Regular-2e" transform="translate(804.599838 0)"/>
     <use xlink:href="#NotoSansCJKsc-Regular-2e" transform="translate(832.399826 0)"/>
     <use xlink:href="#NotoSansCJKsc-Regular-29" transform="translate(860.199814 0)"/>
    </g>
   </g>
   <g id="text_17">
    <!-- Attribute attribution -->
    <g style="fill: #d97706" transform="translate(493.804172 101.447249) scale(0.102 -0.102)">
     <defs>
      <path id="NotoSansCJKsc-Bold-41" d="M -26 0 
L 934 0 
L 1267 1216 
L 2797 1216 
L 3130 0 
L 4128 0 
L 2611 4742 
L 1491 4742 
L -26 0 
z
M 1472 1952 
L 1613 2470 
C 1754 2963 1888 3501 2016 4019 
L 2042 4019 
C 2182 3514 2310 2963 2458 2470 
L 2598 1952 
L 1472 1952 
z
" transform="scale(0.015625)"/>
     </defs>
     <use xlink:href="#NotoSansCJKsc-Bold-41"/>
     <use xlink:href="#NotoSansCJKsc-Bold-74" transform="translate(64.099991 0)"/>
     <use xlink:href="#NotoSansCJKsc-Bold-74" transform="translate(106.199982 0)"/>
     <use xlink:href="#NotoSansCJKsc-Bold-72" transform="translate(148.299973 0)"/>
     <use xlink:href="#NotoSansCJKsc-Bold-69" transform="translate(191.899963 0)"/>
     <use xlink:href="#NotoSansCJKsc-Bold-62" transform="translate(222.299957 0)"/>
     <use xlink:href="#NotoSansCJKsc-Bold-75" transform="translate(286.699951 0)"/>
     <use xlink:href="#NotoSansCJKsc-Bold-74" transform="translate(350.399948 0)"/>
     <use xlink:href="#NotoSansCJKsc-Bold-65" transform="translate(392.499939 0)"/>
     <use xlink:href="#NotoSansCJKsc-Bold-20" transform="translate(450.59993 0)"/>
     <use xlink:href="#NotoSansCJKsc-Bold-61" transform="translate(473.299927 0)"/>
     <use xlink:href="#NotoSansCJKsc-Bold-74" transform="translate(532.399918 0)"/>
     <use xlink:href="#NotoSansCJKsc-Bold-74" transform="translate(574.499908 0)"/>
     <use xlink:href="#NotoSansCJKsc-Bold-72" transform="translate(616.599899 0)"/>
     <use xlink:href="#NotoSansCJKsc-Bold-69" transform="translate(660.19989 0)"/>
     <use xlink:href="#NotoSansCJKsc-Bold-62" transform="translate(690.599884 0)"/>
     <use xlink:href="#NotoSansCJKsc-Bold-75" transform="translate(754.999878 0)"/>
     <use xlink:href="#NotoSansCJKsc-Bold-74" transform="translate(818.699875 0)"/>
     <use xlink:href="#NotoSansCJKsc-Bold-69" transform="translate(860.799866 0)"/>
     <use xlink:href="#NotoSansCJKsc-Bold-6f" transform="translate(891.19986 0)"/>
     <use xlink:href="#NotoSansCJKsc-Bold-6e" transform="translate(953.79985 0)"/>
    </g>
   </g>
   <g id="text_18">
    <!-- clean separation of -->
    <g style="fill: #475569" transform="translate(505.556719 115.89097) scale(0.09 -0.09)">
     <use xlink:href="#NotoSansCJKsc-Regular-63"/>
     <use xlink:href="#NotoSansCJKsc-Regular-6c" transform="translate(50.999985 0)"/>
     <use xlink:href="#NotoSansCJKsc-Regular-65" transform="translate(79.399979 0)"/>
     <use xlink:href="#NotoSansCJKsc-Regular-61" transform="translate(134.799973 0)"/>
     <use xlink:href="#NotoSansCJKsc-Regular-6e" transform="translate(191.09996 0)"/>
     <use xlink:href="#NotoSansCJKsc-Regular-20" transform="translate(252.099945 0)"/>
     <use xlink:href="#NotoSansCJKsc-Regular-73" transform="translate(274.499939 0)"/>
     <use xlink:href="#NotoSansCJKsc-Regular-65" transform="translate(321.299927 0)"/>
     <use xlink:href="#NotoSansCJKsc-Regular-70" transform="translate(376.699921 0)"/>
     <use xlink:href="#NotoSansCJKsc-Regular-61" transform="translate(438.699905 0)"/>
     <use xlink:href="#NotoSansCJKsc-Regular-72" transform="translate(494.999893 0)"/>
     <use xlink:href="#NotoSansCJKsc-Regular-61" transform="translate(533.799881 0)"/>
     <use xlink:href="#NotoSansCJKsc-Regular-74" transform="translate(590.099869 0)"/>
     <use xlink:href="#NotoSansCJKsc-Regular-69" transform="translate(627.799866 0)"/>
     <use xlink:href="#NotoSansCJKsc-Regular-6f" transform="translate(655.29985 0)"/>
     <use xlink:href="#NotoSansCJKsc-Regular-6e" transform="translate(715.899841 0)"/>
     <use xlink:href="#NotoSansCJKsc-Regular-20" transform="translate(776.899826 0)"/>
     <use xlink:href="#NotoSansCJKsc-Regular-6f" transform="translate(799.29982 0)"/>
     <use xlink:href="#NotoSansCJKsc-Regular-66" transform="translate(859.899811 0)"/>
    </g>
   </g>
   <g id="text_19">
    <!-- appearance effect vs -->
    <g style="fill: #475569" transform="translate(502.392656 128.64217) scale(0.09 -0.09)">
     <use xlink:href="#NotoSansCJKsc-Regular-61"/>
     <use xlink:href="#NotoSansCJKsc-Regular-70" transform="translate(56.299988 0)"/>
     <use xlink:href="#NotoSansCJKsc-Regular-70" transform="translate(118.299973 0)"/>
     <use xlink:href="#NotoSansCJKsc-Regular-65" transform="translate(180.299957 0)"/>
     <use xlink:href="#NotoSansCJKsc-Regular-61" transform="translate(235.699951 0)"/>
     <use xlink:href="#NotoSansCJKsc-Regular-72" transform="translate(291.999939 0)"/>
     <use xlink:href="#NotoSansCJKsc-Regular-61" transform="translate(330.799927 0)"/>
     <use xlink:href="#NotoSansCJKsc-Regular-6e" transform="translate(387.099915 0)"/>
     <use xlink:href="#NotoSansCJKsc-Regular-63" transform="translate(448.099899 0)"/>
     <use xlink:href="#NotoSansCJKsc-Regular-65" transform="translate(499.099884 0)"/>
     <use xlink:href="#NotoSansCJKsc-Regular-20" transform="translate(554.499878 0)"/>
     <use xlink:href="#NotoSansCJKsc-Regular-65" transform="translate(576.899872 0)"/>
     <use xlink:href="#NotoSansCJKsc-Regular-66" transform="translate(632.299866 0)"/>
     <use xlink:href="#NotoSansCJKsc-Regular-66" transform="translate(664.79985 0)"/>
     <use xlink:href="#NotoSansCJKsc-Regular-65" transform="translate(697.299835 0)"/>
     <use xlink:href="#NotoSansCJKsc-Regular-63" transform="translate(752.699829 0)"/>
     <use xlink:href="#NotoSansCJKsc-Regular-74" transform="translate(803.699814 0)"/>
     <use xlink:href="#NotoSansCJKsc-Regular-20" transform="translate(841.399811 0)"/>
     <use xlink:href="#NotoSansCJKsc-Regular-76" transform="translate(863.799805 0)"/>
     <use xlink:href="#NotoSansCJKsc-Regular-73" transform="translate(915.899796 0)"/>
    </g>
   </g>
   <g id="text_20">
    <!-- identity difference -->
    <g style="fill: #475569" transform="translate(507.247734 141.393371) scale(0.09 -0.09)">
     <use xlink:href="#NotoSansCJKsc-Regular-69"/>
     <use xlink:href="#NotoSansCJKsc-Regular-64" transform="translate(27.499985 0)"/>
     <use xlink:href="#NotoSansCJKsc-Regular-65" transform="translate(89.499969 0)"/>
     <use xlink:href="#NotoSansCJKsc-Regular-6e" transform="translate(144.899963 0)"/>
     <use xlink:href="#NotoSansCJKsc-Regular-74" transform="translate(205.899948 0)"/>
     <use xlink:href="#NotoSansCJKsc-Regular-69" transform="translate(243.599945 0)"/>
     <use xlink:href="#NotoSansCJKsc-Regular-74" transform="translate(271.09993 0)"/>
     <use xlink:href="#NotoSansCJKsc-Regular-79" transform="translate(308.799927 0)"/>
     <use xlink:href="#NotoSansCJKsc-Regular-20" transform="translate(360.899918 0)"/>
     <use xlink:href="#NotoSansCJKsc-Regular-64" transform="translate(383.299911 0)"/>
     <use xlink:href="#NotoSansCJKsc-Regular-69" transform="translate(445.299896 0)"/>
     <use xlink:href="#NotoSansCJKsc-Regular-66" transform="translate(472.799881 0)"/>
     <use xlink:href="#NotoSansCJKsc-Regular-66" transform="translate(505.299866 0)"/>
     <use xlink:href="#NotoSansCJKsc-Regular-65" transform="translate(537.79985 0)"/>
     <use xlink:href="#NotoSansCJKsc-Regular-72" transform="translate(593.199844 0)"/>
     <use xlink:href="#NotoSansCJKsc-Regular-65" transform="translate(631.999832 0)"/>
     <use xlink:href="#NotoSansCJKsc-Regular-6e" transform="translate(687.399826 0)"/>
     <use xlink:href="#NotoSansCJKsc-Regular-63" transform="translate(748.399811 0)"/>
     <use xlink:href="#NotoSansCJKsc-Regular-65" transform="translate(799.399796 0)"/>
    </g>
   </g>
   <g id="text_21">
    <!-- Fixing identity and perturbing one attribute isolates which visual cues drive a model's social judgments. -->
    <g style="fill: #64748b" transform="translate(99.021797 249.93792) scale(0.09 -0.09)">
     <defs>
      <path id="NotoSansCJKsc-Regular-46" d="M 646 0 
L 1235 0 
L 1235 2106 
L 3027 2106 
L 3027 2605 
L 1235 2605 
L 1235 4192 
L 3347 4192 
L 3347 4691 
L 646 4691 
L 646 0 
z
" transform="scale(0.015625)"/>
      <path id="NotoSansCJKsc-Regular-77" d="M 1139 0 
L 1818 0 
L 2310 1862 
C 2400 2195 2470 2522 2547 2874 
L 2579 2874 
C 2662 2522 2726 2202 2816 1875 
L 3315 0 
L 4026 0 
L 4966 3475 
L 4403 3475 
L 3898 1466 
C 3821 1133 3757 819 3686 499 
L 3654 499 
C 3571 819 3494 1133 3411 1466 
L 2867 3475 
L 2298 3475 
L 1754 1466 
C 1670 1133 1594 819 1523 499 
L 1491 499 
C 1421 819 1357 1133 1286 1466 
L 768 3475 
L 173 3475 
L 1139 0 
z
" transform="scale(0.015625)"/>
      <path id="NotoSansCJKsc-Regular-27" d="M 704 3091 
L 1069 3091 
L 1178 4282 
L 1190 4934 
L 576 4934 
L 589 4282 
L 704 3091 
z
" transform="scale(0.015625)"/>
     </defs>
     <use xlink:href="#NotoSansCJKsc-Regular-46"/>
     <use xlink:href="#NotoSansCJKsc-Regular-69" transform="translate(55.199997 0)"/>
     <use xlink:href="#NotoSansCJKsc-Regular-78" transform="translate(82.699982 0)"/>
     <use xlink:href="#NotoSansCJKsc-Regular-69" transform="translate(132.499969 0)"/>
     <use xlink:href="#NotoSansCJKsc-Regular-6e" transform="translate(159.999954 0)"/>
     <use xlink:href="#NotoSansCJKsc-Regular-67" transform="translate(220.999939 0)"/>
     <use xlink:href="#NotoSansCJKsc-Regular-20" transform="translate(277.399933 0)"/>
     <use xlink:href="#NotoSansCJKsc-Regular-69" transform="translate(299.799927 0)"/>
     <use xlink:href="#NotoSansCJKsc-Regular-64" transform="translate(327.299911 0)"/>
     <use xlink:href="#NotoSansCJKsc-Regular-65" transform="translate(389.299896 0)"/>
     <use xlink:href="#NotoSansCJKsc-Regular-6e" transform="translate(444.69989 0)"/>
     <use xlink:href="#NotoSansCJKsc-Regular-74" transform="translate(505.699875 0)"/>
     <use xlink:href="#NotoSansCJKsc-Regular-69" transform="translate(543.399872 0)"/>
     <use xlink:href="#NotoSansCJKsc-Regular-74" transform="translate(570.899857 0)"/>
     <use xlink:href="#NotoSansCJKsc-Regular-79" transform="translate(608.599854 0)"/>
     <use xlink:href="#NotoSansCJKsc-Regular-20" transform="translate(660.699844 0)"/>
     <use xlink:href="#NotoSansCJKsc-Regular-61" transform="translate(683.099838 0)"/>
     <use xlink:href="#NotoSansCJKsc-Regular-6e" transform="translate(739.399826 0)"/>
     <use xlink:href="#NotoSansCJKsc-Regular-64" transform="translate(800.399811 0)"/>
     <use xlink:href="#NotoSansCJKsc-Regular-20" transform="translate(862.399796 0)"/>
     <use xlink:href="#NotoSansCJKsc-Regular-70" transform="translate(884.799789 0)"/>
     <use xlink:href="#NotoSansCJKsc-Regular-65" transform="translate(946.799774 0)"/>
     <use xlink:href="#NotoSansCJKsc-Regular-72" transform="translate(1002.199768 0)"/>
     <use xlink:href="#NotoSansCJKsc-Regular-74" transform="translate(1040.999756 0)"/>
     <use xlink:href="#NotoSansCJKsc-Regular-75" transform="translate(1078.699753 0)"/>
     <use xlink:href="#NotoSansCJKsc-Regular-72" transform="translate(1139.39975 0)"/>
     <use xlink:href="#NotoSansCJKsc-Regular-62" transform="translate(1178.199738 0)"/>
     <use xlink:href="#NotoSansCJKsc-Regular-69" transform="translate(1239.999725 0)"/>
     <use xlink:href="#NotoSansCJKsc-Regular-6e" transform="translate(1267.49971 0)"/>
     <use xlink:href="#NotoSansCJKsc-Regular-67" transform="translate(1328.499695 0)"/>
     <use xlink:href="#NotoSansCJKsc-Regular-20" transform="translate(1384.899689 0)"/>
     <use xlink:href="#NotoSansCJKsc-Regular-6f" transform="translate(1407.299683 0)"/>
     <use xlink:href="#NotoSansCJKsc-Regular-6e" transform="translate(1467.899673 0)"/>
     <use xlink:href="#NotoSansCJKsc-Regular-65" transform="translate(1528.899658 0)"/>
     <use xlink:href="#NotoSansCJKsc-Regular-20" transform="translate(1584.299652 0)"/>
     <use xlink:href="#NotoSansCJKsc-Regular-61" transform="translate(1606.699646 0)"/>
     <use xlink:href="#NotoSansCJKsc-Regular-74" transform="translate(1662.999634 0)"/>
     <use xlink:href="#NotoSansCJKsc-Regular-74" transform="translate(1700.699631 0)"/>
     <use xlink:href="#NotoSansCJKsc-Regular-72" transform="translate(1738.399628 0)"/>
     <use xlink:href="#NotoSansCJKsc-Regular-69" transform="translate(1777.199615 0)"/>
     <use xlink:href="#NotoSansCJKsc-Regular-62" transform="translate(1804.6996 0)"/>
     <use xlink:href="#NotoSansCJKsc-Regular-75" transform="translate(1866.499588 0)"/>
     <use xlink:href="#NotoSansCJKsc-Regular-74" transform="translate(1927.199585 0)"/>
     <use xlink:href="#NotoSansCJKsc-Regular-65" transform="translate(1964.899582 0)"/>
     <use xlink:href="#NotoSansCJKsc-Regular-20" transform="translate(2020.299576 0)"/>
     <use xlink:href="#NotoSansCJKsc-Regular-69" transform="translate(2042.69957 0)"/>
     <use xlink:href="#NotoSansCJKsc-Regular-73" transform="translate(2070.199554 0)"/>
     <use xlink:href="#NotoSansCJKsc-Regular-6f" transform="translate(2116.999542 0)"/>
     <use xlink:href="#NotoSansCJKsc-Regular-6c" transform="translate(2177.599533 0)"/>
     <use xlink:href="#NotoSansCJKsc-Regular-61" transform="translate(2205.999527 0)"/>
     <use xlink:href="#NotoSansCJKsc-Regular-74" transform="translate(2262.299515 0)"/>
     <use xlink:href="#NotoSansCJKsc-Regular-65" transform="translate(2299.999512 0)"/>
     <use xlink:href="#NotoSansCJKsc-Regular-73" transform="translate(2355.399506 0)"/>
     <use xlink:href="#NotoSansCJKsc-Regular-20" transform="translate(2402.199493 0)"/>
     <use xlink:href="#NotoSansCJKsc-Regular-77" transform="translate(2424.599487 0)"/>
     <use xlink:href="#NotoSansCJKsc-Regular-68" transform="translate(2504.799469 0)"/>
     <use xlink:href="#NotoSansCJKsc-Regular-69" transform="translate(2565.499466 0)"/>
     <use xlink:href="#NotoSansCJKsc-Regular-63" transform="translate(2592.999451 0)"/>
     <use xlink:href="#NotoSansCJKsc-Regular-68" transform="translate(2643.999435 0)"/>
     <use xlink:href="#NotoSansCJKsc-Regular-20" transform="translate(2704.699432 0)"/>
     <use xlink:href="#NotoSansCJKsc-Regular-76" transform="translate(2727.099426 0)"/>
     <use xlink:href="#NotoSansCJKsc-Regular-69" transform="translate(2779.199417 0)"/>
     <use xlink:href="#NotoSansCJKsc-Regular-73" transform="translate(2806.699402 0)"/>
     <use xlink:href="#NotoSansCJKsc-Regular-75" transform="translate(2853.49939 0)"/>
     <use xlink:href="#NotoSansCJKsc-Regular-61" transform="translate(2914.199387 0)"/>
     <use xlink:href="#NotoSansCJKsc-Regular-6c" transform="translate(2970.499374 0)"/>
     <use xlink:href="#NotoSansCJKsc-Regular-20" transform="translate(2998.899368 0)"/>
     <use xlink:href="#NotoSansCJKsc-Regular-63" transform="translate(3021.299362 0)"/>
     <use xlink:href="#NotoSansCJKsc-Regular-75" transform="translate(3072.299347 0)"/>
     <use xlink:href="#NotoSansCJKsc-Regular-65" transform="translate(3132.999344 0)"/>
     <use xlink:href="#NotoSansCJKsc-Regular-73" transform="translate(3188.399338 0)"/>
     <use xlink:href="#NotoSansCJKsc-Regular-20" transform="translate(3235.199326 0)"/>
     <use xlink:href="#NotoSansCJKsc-Regular-64" transform="translate(3257.599319 0)"/>
     <use xlink:href="#NotoSansCJKsc-Regular-72" transform="translate(3319.599304 0)"/>
     <use xlink:href="#NotoSansCJKsc-Regular-69" transform="translate(3358.399292 0)"/>
     <use xlink:href="#NotoSansCJKsc-Regular-76" transform="translate(3385.899277 0)"/>
     <use xlink:href="#NotoSansCJKsc-Regular-65" transform="translate(3437.999268 0)"/>
     <use xlink:href="#NotoSansCJKsc-Regular-20" transform="translate(3493.399261 0)"/>
     <use xlink:href="#NotoSansCJKsc-Regular-61" transform="translate(3515.799255 0)"/>
     <use xlink:href="#NotoSansCJKsc-Regular-20" transform="translate(3572.099243 0)"/>
     <use xlink:href="#NotoSansCJKsc-Regular-6d" transform="translate(3594.499237 0)"/>
     <use xlink:href="#NotoSansCJKsc-Regular-6f" transform="translate(3687.099228 0)"/>
     <use xlink:href="#NotoSansCJKsc-Regular-64" transform="translate(3747.699219 0)"/>
     <use xlink:href="#NotoSansCJKsc-Regular-65" transform="translate(3809.699203 0)"/>
     <use xlink:href="#NotoSansCJKsc-Regular-6c" transform="translate(3865.099197 0)"/>
     <use xlink:href="#NotoSansCJKsc-Regular-27" transform="translate(3893.499191 0)"/>
     <use xlink:href="#NotoSansCJKsc-Regular-73" transform="translate(3921.299179 0)"/>
     <use xlink:href="#NotoSansCJKsc-Regular-20" transform="translate(3968.099167 0)"/>
     <use xlink:href="#NotoSansCJKsc-Regular-73" transform="translate(3990.499161 0)"/>
     <use xlink:href="#NotoSansCJKsc-Regular-6f" transform="translate(4037.299149 0)"/>
     <use xlink:href="#NotoSansCJKsc-Regular-63" transform="translate(4097.899139 0)"/>
     <use xlink:href="#NotoSansCJKsc-Regular-69" transform="translate(4148.899124 0)"/>
     <use xlink:href="#NotoSansCJKsc-Regular-61" transform="translate(4176.399109 0)"/>
     <use xlink:href="#NotoSansCJKsc-Regular-6c" transform="translate(4232.699097 0)"/>
     <use xlink:href="#NotoSansCJKsc-Regular-20" transform="translate(4261.099091 0)"/>
     <use xlink:href="#NotoSansCJKsc-Regular-6a" transform="translate(4283.499084 0)"/>
     <use xlink:href="#NotoSansCJKsc-Regular-75" transform="translate(4310.999069 0)"/>
     <use xlink:href="#NotoSansCJKsc-Regular-64" transform="translate(4371.699066 0)"/>
     <use xlink:href="#NotoSansCJKsc-Regular-67" transform="translate(4433.699051 0)"/>
     <use xlink:href="#NotoSansCJKsc-Regular-6d" transform="translate(4490.099045 0)"/>
     <use xlink:href="#NotoSansCJKsc-Regular-65" transform="translate(4582.699036 0)"/>
     <use xlink:href="#NotoSansCJKsc-Regular-6e" transform="translate(4638.09903 0)"/>
     <use xlink:href="#NotoSansCJKsc-Regular-74" transform="translate(4699.099014 0)"/>
     <use xlink:href="#NotoSansCJKsc-Regular-73" transform="translate(4736.799011 0)"/>
     <use xlink:href="#NotoSansCJKsc-Regular-2e" transform="translate(4783.598999 0)"/>
    </g>
   </g>
   <g id="patch_11">
    <path d="M 16.0056 26.49168 
L 77.3856 26.49168 
L 77.3856 15.0156 
L 16.0056 15.0156 
z
" clip-path="url(#p5da9a9c0e3)" style="fill: #2563eb; stroke: #2563eb; stroke-linejoin: miter"/>
   </g>
  </g>
 </g>
 <defs>
  <clipPath id="p5da9a9c0e3">
   <rect x="8.64" y="8.64" width="613.8" height="255.024"/>
  </clipPath>
 </defs>
</svg>
