<?xml version="1.0" encoding="utf-8" standalone="no"?>
<!DOCTYPE svg PUBLIC "-//W3C//DTD SVG 1.1//EN"
  "http://www.w3.org/Graphics/SVG/1.1/DTD/svg11.dtd">
<svg xmlns:xlink="http://www.w3.org/1999/xlink" width="787.896pt" height="315.583pt" viewBox="0 0 787.896 315.583" xmlns="http://www.w3.org/2000/svg" version="1.1">
 <metadata>
  <rdf:RDF xmlns:dc="http://purl.org/dc/elements/1.1/" xmlns:cc="http://creativecommons.org/ns#" xmlns:rdf="http://www.w3.org/1999/02/22-rdf-syntax-ns#">
   <cc:Work>
    <dc:type rdf:resource="http://purl.org/dc/dcmitype/StillImage"/>
    <dc:date>2026-06-25T19:42:38.030463</dc:date>
    <dc:format>image/svg+xml</dc:format>
    <dc:creator>
     <cc:Agent>
      <dc:title>Matplotlib v3.10.5, https://matplotlib.org/</dc:title>
     </cc:Agent>
    </dc:creator>
   </cc:Work>
  </rdf:RDF>
 </metadata>
 <defs>
  <style type="text/css">*{stroke-linejoin: round; stroke-linecap: butt}</style>
 </defs>
 <g id="figure_1">
  <g id="patch_1">
   <path d="M 0 315.583 
L 787.896 315.583 
L 787.896 0 
L 0 0 
z
" style="fill: #ffffff"/>
  </g>
  <g id="axes_1">
   <g id="patch_2">
    <path d="M 49.646 288.668 
L 389.11725 288.668 
L 389.11725 75.372 
L 49.646 75.372 
z
" style="fill: #ffffff"/>
   </g>
   <g id="matplotlib.axis_1">
    <g id="xtick_1">
     <g id="line2d_1">
      <defs>
       <path id="mae4273e4a8" d="M 0 0 
L 0 3.5 
" style="stroke: #475569; stroke-width: 0.8"/>
      </defs>
      <g>
       <use xlink:href="#mae4273e4a8" x="219.381625" y="288.668" style="fill: #475569; stroke: #475569; stroke-width: 0.8"/>
      </g>
     </g>
     <g id="text_1">
      <!-- F1 (ZHUYI) -->
      <g style="fill: #475569" transform="translate(192.526156 304.423312) scale(0.11 -0.11)">
       <defs>
        <path id="NotoSansCJKsc-Regular-46" d="M 646 0 
L 1235 0 
L 1235 2106 
L 3027 2106 
L 3027 2605 
L 1235 2605 
L 1235 4192 
L 3347 4192 
L 3347 4691 
L 646 4691 
L 646 0 
z
" transform="scale(0.015625)"/>
        <path id="NotoSansCJKsc-Regular-31" d="M 563 0 
L 3136 0 
L 3136 486 
L 2195 486 
L 2195 4691 
L 1747 4691 
C 1491 4544 1190 4435 774 4358 
L 774 3987 
L 1613 3987 
L 1613 486 
L 563 486 
L 563 0 
z
" transform="scale(0.015625)"/>
        <path id="NotoSansCJKsc-Regular-20" transform="scale(0.015625)"/>
        <path id="NotoSansCJKsc-Regular-28" d="M 1530 -1254 
L 1888 -1094 
C 1338 -186 1075 902 1075 1990 
C 1075 3072 1338 4154 1888 5069 
L 1530 5235 
C 941 4275 589 3245 589 1990 
C 589 730 941 -301 1530 -1254 
z
" transform="scale(0.015625)"/>
        <path id="NotoSansCJKsc-Regular-5a" d="M 320 0 
L 3558 0 
L 3558 506 
L 1050 506 
L 3526 4339 
L 3526 4691 
L 544 4691 
L 544 4192 
L 2797 4192 
L 320 358 
L 320 0 
z
" transform="scale(0.015625)"/>
        <path id="NotoSansCJKsc-Regular-48" d="M 646 0 
L 1235 0 
L 1235 2214 
L 3424 2214 
L 3424 0 
L 4019 0 
L 4019 4691 
L 3424 4691 
L 3424 2726 
L 1235 2726 
L 1235 4691 
L 646 4691 
L 646 0 
z
" transform="scale(0.015625)"/>
        <path id="NotoSansCJKsc-Regular-55" d="M 2310 -83 
C 3264 -83 3994 429 3994 1933 
L 3994 4691 
L 3424 4691 
L 3424 1920 
C 3424 794 2931 435 2310 435 
C 1696 435 1216 794 1216 1920 
L 1216 4691 
L 627 4691 
L 627 1933 
C 627 429 1350 -83 2310 -83 
z
" transform="scale(0.015625)"/>
        <path id="NotoSansCJKsc-Regular-59" d="M 1402 0 
L 1990 0 
L 1990 1818 
L 3405 4691 
L 2790 4691 
L 2189 3366 
C 2042 3021 1882 2688 1715 2336 
L 1690 2336 
C 1523 2688 1382 3021 1229 3366 
L 621 4691 
L -6 4691 
L 1402 1818 
L 1402 0 
z
" transform="scale(0.015625)"/>
        <path id="NotoSansCJKsc-Regular-49" d="M 646 0 
L 1235 0 
L 1235 4691 
L 646 4691 
L 646 0 
z
" transform="scale(0.015625)"/>
        <path id="NotoSansCJKsc-Regular-29" d="M 634 -1254 
C 1222 -301 1574 730 1574 1990 
C 1574 3245 1222 4275 634 5235 
L 269 5069 
C 819 4154 1094 3072 1094 1990 
C 1094 902 819 -186 269 -1094 
L 634 -1254 
z
" transform="scale(0.015625)"/>
       </defs>
       <use xlink:href="#NotoSansCJKsc-Regular-46"/>
       <use xlink:href="#NotoSansCJKsc-Regular-31" transform="translate(55.199997 0)"/>
       <use xlink:href="#NotoSansCJKsc-Regular-20" transform="translate(110.699982 0)"/>
       <use xlink:href="#NotoSansCJKsc-Regular-28" transform="translate(133.099976 0)"/>
       <use xlink:href="#NotoSansCJKsc-Regular-5a" transform="translate(166.899963 0)"/>
       <use xlink:href="#NotoSansCJKsc-Regular-48" transform="translate(227.199951 0)"/>
       <use xlink:href="#NotoSansCJKsc-Regular-55" transform="translate(299.999939 0)"/>
       <use xlink:href="#NotoSansCJKsc-Regular-59" transform="translate(372.09993 0)"/>
       <use xlink:href="#NotoSansCJKsc-Regular-49" transform="translate(425.199921 0)"/>
       <use xlink:href="#NotoSansCJKsc-Regular-29" transform="translate(454.499908 0)"/>
      </g>
     </g>
    </g>
   </g>
   <g id="matplotlib.axis_2">
    <g id="ytick_1">
     <g id="line2d_2">
      <path d="M 49.646 288.668 
L 389.11725 288.668 
" clip-path="url(#pdab04d01e0)" style="fill: none; stroke: #e5e7eb; stroke-width: 0.8; stroke-linecap: square"/>
     </g>
     <g id="line2d_3">
      <defs>
       <path id="meac938673b" d="M 0 0 
L -3.5 0 
" style="stroke: #475569; stroke-width: 0.8"/>
      </defs>
      <g>
       <use xlink:href="#meac938673b" x="49.646" y="288.668" style="fill: #475569; stroke: #475569; stroke-width: 0.8"/>
      </g>
     </g>
     <g id="text_2">
      <!-- 0.0 -->
      <g style="fill: #475569" transform="translate(27.378344 293.045656) scale(0.11 -0.11)">
       <defs>
        <path id="NotoSansCJKsc-Regular-30" d="M 1779 -83 
C 2669 -83 3238 723 3238 2362 
C 3238 3987 2669 4774 1779 4774 
C 883 4774 320 3987 320 2362 
C 320 723 883 -83 1779 -83 
z
M 1779 390 
C 1248 390 883 986 883 2362 
C 883 3731 1248 4314 1779 4314 
C 2310 4314 2675 3731 2675 2362 
C 2675 986 2310 390 1779 390 
z
" transform="scale(0.015625)"/>
        <path id="NotoSansCJKsc-Regular-2e" d="M 890 -83 
C 1120 -83 1312 96 1312 358 
C 1312 627 1120 806 890 806 
C 653 806 467 627 467 358 
C 467 96 653 -83 890 -83 
z
" transform="scale(0.015625)"/>
       </defs>
       <use xlink:href="#NotoSansCJKsc-Regular-30"/>
       <use xlink:href="#NotoSansCJKsc-Regular-2e" transform="translate(55.499985 0)"/>
       <use xlink:href="#NotoSansCJKsc-Regular-30" transform="translate(83.299973 0)"/>
      </g>
     </g>
    </g>
    <g id="ytick_2">
     <g id="line2d_4">
      <path d="M 49.646 248.04019 
L 389.11725 248.04019 
" clip-path="url(#pdab04d01e0)" style="fill: none; stroke: #e5e7eb; stroke-width: 0.8; stroke-linecap: square"/>
     </g>
     <g id="line2d_5">
      <g>
       <use xlink:href="#meac938673b" x="49.646" y="248.04019" style="fill: #475569; stroke: #475569; stroke-width: 0.8"/>
      </g>
     </g>
     <g id="text_3">
      <!-- 0.2 -->
      <g style="fill: #475569" transform="translate(27.378344 252.417847) scale(0.11 -0.11)">
       <defs>
        <path id="NotoSansCJKsc-Regular-32" d="M 282 0 
L 3232 0 
L 3232 506 
L 1933 506 
C 1696 506 1408 480 1165 461 
C 2266 1504 3008 2458 3008 3398 
C 3008 4230 2477 4774 1638 4774 
C 1043 4774 634 4506 256 4090 
L 595 3757 
C 858 4070 1184 4301 1568 4301 
C 2150 4301 2432 3910 2432 3373 
C 2432 2566 1754 1632 282 346 
L 282 0 
z
" transform="scale(0.015625)"/>
       </defs>
       <use xlink:href="#NotoSansCJKsc-Regular-30"/>
       <use xlink:href="#NotoSansCJKsc-Regular-2e" transform="translate(55.499985 0)"/>
       <use xlink:href="#NotoSansCJKsc-Regular-32" transform="translate(83.299973 0)"/>
      </g>
     </g>
    </g>
    <g id="ytick_3">
     <g id="line2d_6">
      <path d="M 49.646 207.412381 
L 389.11725 207.412381 
" clip-path="url(#pdab04d01e0)" style="fill: none; stroke: #e5e7eb; stroke-width: 0.8; stroke-linecap: square"/>
     </g>
     <g id="line2d_7">
      <g>
       <use xlink:href="#meac938673b" x="49.646" y="207.412381" style="fill: #475569; stroke: #475569; stroke-width: 0.8"/>
      </g>
     </g>
     <g id="text_4">
      <!-- 0.4 -->
      <g style="fill: #475569" transform="translate(27.378344 211.790037) scale(0.11 -0.11)">
       <defs>
        <path id="NotoSansCJKsc-Regular-34" d="M 2176 0 
L 2726 0 
L 2726 1293 
L 3354 1293 
L 3354 1760 
L 2726 1760 
L 2726 4691 
L 2080 4691 
L 128 1677 
L 128 1293 
L 2176 1293 
L 2176 0 
z
M 2176 1760 
L 736 1760 
L 1805 3360 
C 1939 3590 2067 3827 2182 4051 
L 2208 4051 
C 2195 3814 2176 3430 2176 3200 
L 2176 1760 
z
" transform="scale(0.015625)"/>
       </defs>
       <use xlink:href="#NotoSansCJKsc-Regular-30"/>
       <use xlink:href="#NotoSansCJKsc-Regular-2e" transform="translate(55.499985 0)"/>
       <use xlink:href="#NotoSansCJKsc-Regular-34" transform="translate(83.299973 0)"/>
      </g>
     </g>
    </g>
    <g id="ytick_4">
     <g id="line2d_8">
      <path d="M 49.646 166.784571 
L 389.11725 166.784571 
" clip-path="url(#pdab04d01e0)" style="fill: none; stroke: #e5e7eb; stroke-width: 0.8; stroke-linecap: square"/>
     </g>
     <g id="line2d_9">
      <g>
       <use xlink:href="#meac938673b" x="49.646" y="166.784571" style="fill: #475569; stroke: #475569; stroke-width: 0.8"/>
      </g>
     </g>
     <g id="text_5">
      <!-- 0.6 -->
      <g style="fill: #475569" transform="translate(27.378344 171.162228) scale(0.11 -0.11)">
       <defs>
        <path id="NotoSansCJKsc-Regular-36" d="M 1926 -83 
C 2656 -83 3277 531 3277 1440 
C 3277 2426 2765 2912 1971 2912 
C 1606 2912 1197 2701 909 2349 
C 934 3802 1466 4294 2118 4294 
C 2400 4294 2682 4154 2861 3936 
L 3194 4294 
C 2931 4576 2579 4774 2093 4774 
C 1184 4774 358 4077 358 2240 
C 358 691 1030 -83 1926 -83 
z
M 922 1882 
C 1229 2317 1587 2477 1875 2477 
C 2445 2477 2720 2074 2720 1440 
C 2720 800 2374 378 1926 378 
C 1338 378 986 909 922 1882 
z
" transform="scale(0.015625)"/>
       </defs>
       <use xlink:href="#NotoSansCJKsc-Regular-30"/>
       <use xlink:href="#NotoSansCJKsc-Regular-2e" transform="translate(55.499985 0)"/>
       <use xlink:href="#NotoSansCJKsc-Regular-36" transform="translate(83.299973 0)"/>
      </g>
     </g>
    </g>
    <g id="ytick_5">
     <g id="line2d_10">
      <path d="M 49.646 126.156762 
L 389.11725 126.156762 
" clip-path="url(#pdab04d01e0)" style="fill: none; stroke: #e5e7eb; stroke-width: 0.8; stroke-linecap: square"/>
     </g>
     <g id="line2d_11">
      <g>
       <use xlink:href="#meac938673b" x="49.646" y="126.156762" style="fill: #475569; stroke: #475569; stroke-width: 0.8"/>
      </g>
     </g>
     <g id="text_6">
      <!-- 0.8 -->
      <g style="fill: #475569" transform="translate(27.378344 130.534418) scale(0.11 -0.11)">
       <defs>
        <path id="NotoSansCJKsc-Regular-38" d="M 1792 -83 
C 2669 -83 3258 448 3258 1126 
C 3258 1773 2880 2125 2470 2362 
L 2470 2394 
C 2746 2611 3091 3034 3091 3526 
C 3091 4250 2605 4762 1805 4762 
C 1075 4762 518 4282 518 3571 
C 518 3078 813 2726 1152 2490 
L 1152 2464 
C 723 2234 294 1792 294 1165 
C 294 442 922 -83 1792 -83 
z
M 2112 2547 
C 1555 2765 1050 3014 1050 3571 
C 1050 4026 1363 4326 1798 4326 
C 2298 4326 2592 3962 2592 3494 
C 2592 3149 2426 2829 2112 2547 
z
M 1798 352 
C 1235 352 813 717 813 1216 
C 813 1664 1082 2035 1459 2278 
C 2125 2010 2701 1779 2701 1146 
C 2701 678 2342 352 1798 352 
z
" transform="scale(0.015625)"/>
       </defs>
       <use xlink:href="#NotoSansCJKsc-Regular-30"/>
       <use xlink:href="#NotoSansCJKsc-Regular-2e" transform="translate(55.499985 0)"/>
       <use xlink:href="#NotoSansCJKsc-Regular-38" transform="translate(83.299973 0)"/>
      </g>
     </g>
    </g>
    <g id="ytick_6">
     <g id="line2d_12">
      <path d="M 49.646 85.528952 
L 389.11725 85.528952 
" clip-path="url(#pdab04d01e0)" style="fill: none; stroke: #e5e7eb; stroke-width: 0.8; stroke-linecap: square"/>
     </g>
     <g id="line2d_13">
      <g>
       <use xlink:href="#meac938673b" x="49.646" y="85.528952" style="fill: #475569; stroke: #475569; stroke-width: 0.8"/>
      </g>
     </g>
     <g id="text_7">
      <!-- 1.0 -->
      <g style="fill: #475569" transform="translate(27.378344 89.906609) scale(0.11 -0.11)">
       <use xlink:href="#NotoSansCJKsc-Regular-31"/>
       <use xlink:href="#NotoSansCJKsc-Regular-2e" transform="translate(55.499985 0)"/>
       <use xlink:href="#NotoSansCJKsc-Regular-30" transform="translate(83.299973 0)"/>
      </g>
     </g>
    </g>
    <g id="text_8">
     <!-- F1 -->
     <g style="fill: #0f172a" transform="translate(20.858656 188.108672) rotate(-90) scale(0.11 -0.11)">
      <use xlink:href="#NotoSansCJKsc-Regular-46"/>
      <use xlink:href="#NotoSansCJKsc-Regular-31" transform="translate(55.199997 0)"/>
     </g>
    </g>
   </g>
   <g id="patch_3">
    <path d="M 49.646 288.668 
L 49.646 75.372 
" style="fill: none; stroke: #94a3b8; stroke-width: 0.8; stroke-linejoin: miter; stroke-linecap: square"/>
   </g>
   <g id="patch_4">
    <path d="M 49.646 288.668 
L 389.11725 288.668 
" style="fill: none; stroke: #94a3b8; stroke-width: 0.8; stroke-linejoin: miter; stroke-linecap: square"/>
   </g>
   <g id="patch_5">
    <path d="M 65.076511 288.668 
L 373.686739 288.668 
L 373.686739 90.688684 
L 65.076511 90.688684 
z
" clip-path="url(#pdab04d01e0)" style="fill: #10b981"/>
   </g>
   <g id="text_9">
    <!-- 0.9746 -->
    <g style="fill: #0f172a" transform="translate(204.152875 88.689184) scale(0.093 -0.093)">
     <defs>
      <path id="NotoSansCJKsc-Bold-30" d="M 1888 -90 
C 2854 -90 3494 755 3494 2394 
C 3494 4019 2854 4826 1888 4826 
C 922 4826 282 4026 282 2394 
C 282 755 922 -90 1888 -90 
z
M 1888 646 
C 1478 646 1171 1056 1171 2394 
C 1171 3712 1478 4102 1888 4102 
C 2298 4102 2598 3712 2598 2394 
C 2598 1056 2298 646 1888 646 
z
" transform="scale(0.015625)"/>
      <path id="NotoSansCJKsc-Bold-2e" d="M 1043 -90 
C 1376 -90 1626 179 1626 525 
C 1626 877 1376 1139 1043 1139 
C 704 1139 454 877 454 525 
C 454 179 704 -90 1043 -90 
z
" transform="scale(0.015625)"/>
      <path id="NotoSansCJKsc-Bold-39" d="M 1632 -90 
C 2573 -90 3450 685 3450 2477 
C 3450 4122 2650 4826 1747 4826 
C 934 4826 256 4218 256 3245 
C 256 2240 819 1754 1613 1754 
C 1933 1754 2336 1946 2586 2266 
C 2541 1082 2106 678 1581 678 
C 1299 678 1005 826 832 1018 
L 333 448 
C 614 160 1043 -90 1632 -90 
z
M 2573 2938 
C 2342 2566 2048 2426 1792 2426 
C 1382 2426 1120 2688 1120 3245 
C 1120 3827 1408 4115 1760 4115 
C 2163 4115 2490 3795 2573 2938 
z
" transform="scale(0.015625)"/>
      <path id="NotoSansCJKsc-Bold-37" d="M 1190 0 
L 2138 0 
C 2221 1850 2368 2822 3469 4166 
L 3469 4742 
L 320 4742 
L 320 3949 
L 2451 3949 
C 1549 2694 1274 1645 1190 0 
z
" transform="scale(0.015625)"/>
      <path id="NotoSansCJKsc-Bold-34" d="M 2157 0 
L 3034 0 
L 3034 1229 
L 3597 1229 
L 3597 1946 
L 3034 1946 
L 3034 4742 
L 1901 4742 
L 134 1869 
L 134 1229 
L 2157 1229 
L 2157 0 
z
M 2157 1946 
L 1050 1946 
L 1786 3123 
C 1920 3379 2048 3642 2163 3898 
L 2195 3898 
C 2176 3616 2157 3187 2157 2912 
L 2157 1946 
z
" transform="scale(0.015625)"/>
      <path id="NotoSansCJKsc-Bold-36" d="M 2022 -90 
C 2829 -90 3507 525 3507 1498 
C 3507 2509 2938 2982 2144 2982 
C 1843 2982 1440 2803 1178 2483 
C 1222 3661 1664 4070 2214 4070 
C 2483 4070 2771 3910 2938 3725 
L 3437 4288 
C 3155 4582 2733 4826 2150 4826 
C 1197 4826 320 4070 320 2304 
C 320 640 1126 -90 2022 -90 
z
M 1197 1818 
C 1434 2176 1722 2317 1971 2317 
C 2381 2317 2650 2061 2650 1498 
C 2650 922 2362 621 2003 621 
C 1606 621 1286 954 1197 1818 
z
" transform="scale(0.015625)"/>
     </defs>
     <use xlink:href="#NotoSansCJKsc-Bold-30"/>
     <use xlink:href="#NotoSansCJKsc-Bold-2e" transform="translate(58.999985 0)"/>
     <use xlink:href="#NotoSansCJKsc-Bold-39" transform="translate(91.499969 0)"/>
     <use xlink:href="#NotoSansCJKsc-Bold-37" transform="translate(150.499954 0)"/>
     <use xlink:href="#NotoSansCJKsc-Bold-34" transform="translate(209.499939 0)"/>
     <use xlink:href="#NotoSansCJKsc-Bold-36" transform="translate(268.499924 0)"/>
    </g>
   </g>
   <g id="text_10">
    <!-- Strong detection -->
    <g style="fill: #475569" transform="translate(176.216938 69.372) scale(0.11 -0.11)">
     <defs>
      <path id="NotoSansCJKsc-Regular-53" d="M 1946 -83 
C 2925 -83 3539 506 3539 1248 
C 3539 1946 3117 2266 2573 2502 
L 1907 2790 
C 1542 2944 1126 3117 1126 3578 
C 1126 3994 1472 4256 2003 4256 
C 2438 4256 2784 4090 3072 3821 
L 3379 4198 
C 3053 4538 2560 4774 2003 4774 
C 1152 4774 525 4256 525 3533 
C 525 2848 1043 2515 1478 2330 
L 2150 2035 
C 2598 1837 2938 1683 2938 1197 
C 2938 742 2573 435 1952 435 
C 1466 435 992 666 659 1018 
L 307 608 
C 710 186 1280 -83 1946 -83 
z
" transform="scale(0.015625)"/>
      <path id="NotoSansCJKsc-Regular-74" d="M 1677 -83 
C 1894 -83 2125 -19 2323 45 
L 2208 486 
C 2093 435 1939 390 1811 390 
C 1408 390 1274 634 1274 1056 
L 1274 3002 
L 2221 3002 
L 2221 3475 
L 1274 3475 
L 1274 4454 
L 787 4454 
L 723 3475 
L 173 3443 
L 173 3002 
L 691 3002 
L 691 1075 
C 691 378 941 -83 1677 -83 
z
" transform="scale(0.015625)"/>
      <path id="NotoSansCJKsc-Regular-72" d="M 589 0 
L 1178 0 
L 1178 2234 
C 1408 2822 1760 3040 2048 3040 
C 2195 3040 2272 3021 2387 2982 
L 2496 3488 
C 2387 3546 2278 3565 2125 3565 
C 1741 3565 1382 3283 1139 2842 
L 1126 2842 
L 1069 3475 
L 589 3475 
L 589 0 
z
" transform="scale(0.015625)"/>
      <path id="NotoSansCJKsc-Regular-6f" d="M 1939 -83 
C 2790 -83 3546 582 3546 1734 
C 3546 2893 2790 3565 1939 3565 
C 1088 3565 333 2893 333 1734 
C 333 582 1088 -83 1939 -83 
z
M 1939 403 
C 1338 403 934 934 934 1734 
C 934 2534 1338 3072 1939 3072 
C 2541 3072 2950 2534 2950 1734 
C 2950 934 2541 403 1939 403 
z
" transform="scale(0.015625)"/>
      <path id="NotoSansCJKsc-Regular-6e" d="M 589 0 
L 1178 0 
L 1178 2522 
C 1523 2874 1766 3053 2125 3053 
C 2586 3053 2784 2778 2784 2125 
L 2784 0 
L 3366 0 
L 3366 2202 
C 3366 3085 3034 3565 2304 3565 
C 1830 3565 1466 3302 1139 2970 
L 1126 2970 
L 1069 3475 
L 589 3475 
L 589 0 
z
" transform="scale(0.015625)"/>
      <path id="NotoSansCJKsc-Regular-67" d="M 1760 -1600 
C 2835 -1600 3520 -1043 3520 -397 
C 3520 179 3110 429 2310 429 
L 1626 429 
C 1158 429 1018 589 1018 806 
C 1018 998 1114 1114 1242 1222 
C 1395 1146 1587 1101 1754 1101 
C 2470 1101 3027 1568 3027 2310 
C 3027 2611 2912 2867 2746 3027 
L 3456 3027 
L 3456 3475 
L 2246 3475 
C 2125 3526 1952 3565 1754 3565 
C 1056 3565 454 3085 454 2323 
C 454 1907 678 1568 909 1389 
L 909 1363 
C 723 1235 525 1005 525 717 
C 525 442 659 256 838 147 
L 838 115 
C 512 -83 326 -371 326 -672 
C 326 -1267 915 -1600 1760 -1600 
z
M 1754 1498 
C 1357 1498 1018 1818 1018 2323 
C 1018 2835 1350 3136 1754 3136 
C 2170 3136 2496 2835 2496 2323 
C 2496 1818 2157 1498 1754 1498 
z
M 1843 -1197 
C 1210 -1197 838 -960 838 -589 
C 838 -390 941 -179 1190 0 
C 1344 -38 1510 -51 1638 -51 
L 2240 -51 
C 2701 -51 2944 -166 2944 -493 
C 2944 -851 2515 -1197 1843 -1197 
z
" transform="scale(0.015625)"/>
      <path id="NotoSansCJKsc-Regular-64" d="M 1773 -83 
C 2189 -83 2560 141 2829 410 
L 2848 410 
L 2899 0 
L 3379 0 
L 3379 5094 
L 2790 5094 
L 2790 3757 
L 2822 3162 
C 2515 3411 2253 3565 1843 3565 
C 1050 3565 339 2861 339 1734 
C 339 576 902 -83 1773 -83 
z
M 1901 410 
C 1293 410 941 902 941 1741 
C 941 2534 1389 3072 1946 3072 
C 2234 3072 2502 2970 2790 2707 
L 2790 883 
C 2502 563 2221 410 1901 410 
z
" transform="scale(0.015625)"/>
      <path id="NotoSansCJKsc-Regular-65" d="M 1997 -83 
C 2464 -83 2835 70 3136 269 
L 2931 659 
C 2669 486 2400 384 2061 384 
C 1402 384 947 858 909 1600 
L 3251 1600 
C 3264 1690 3277 1805 3277 1933 
C 3277 2925 2778 3565 1888 3565 
C 1094 3565 333 2867 333 1734 
C 333 589 1069 -83 1997 -83 
z
M 902 2016 
C 973 2707 1408 3098 1901 3098 
C 2445 3098 2765 2720 2765 2016 
L 902 2016 
z
" transform="scale(0.015625)"/>
      <path id="NotoSansCJKsc-Regular-63" d="M 1958 -83 
C 2374 -83 2771 83 3085 352 
L 2829 749 
C 2611 557 2330 403 2010 403 
C 1370 403 934 934 934 1734 
C 934 2534 1395 3072 2029 3072 
C 2298 3072 2522 2950 2720 2771 
L 3014 3155 
C 2771 3373 2458 3565 2003 3565 
C 1107 3565 333 2893 333 1734 
C 333 582 1037 -83 1958 -83 
z
" transform="scale(0.015625)"/>
      <path id="NotoSansCJKsc-Regular-69" d="M 589 0 
L 1178 0 
L 1178 3475 
L 589 3475 
L 589 0 
z
M 883 4192 
C 1114 4192 1274 4346 1274 4582 
C 1274 4806 1114 4960 883 4960 
C 653 4960 499 4806 499 4582 
C 499 4346 653 4192 883 4192 
z
" transform="scale(0.015625)"/>
     </defs>
     <use xlink:href="#NotoSansCJKsc-Regular-53"/>
     <use xlink:href="#NotoSansCJKsc-Regular-74" transform="translate(59.599991 0)"/>
     <use xlink:href="#NotoSansCJKsc-Regular-72" transform="translate(97.299988 0)"/>
     <use xlink:href="#NotoSansCJKsc-Regular-6f" transform="translate(136.099976 0)"/>
     <use xlink:href="#NotoSansCJKsc-Regular-6e" transform="translate(196.699966 0)"/>
     <use xlink:href="#NotoSansCJKsc-Regular-67" transform="translate(257.699951 0)"/>
     <use xlink:href="#NotoSansCJKsc-Regular-20" transform="translate(314.099945 0)"/>
     <use xlink:href="#NotoSansCJKsc-Regular-64" transform="translate(336.499939 0)"/>
     <use xlink:href="#NotoSansCJKsc-Regular-65" transform="translate(398.499924 0)"/>
     <use xlink:href="#NotoSansCJKsc-Regular-74" transform="translate(453.899918 0)"/>
     <use xlink:href="#NotoSansCJKsc-Regular-65" transform="translate(491.599915 0)"/>
     <use xlink:href="#NotoSansCJKsc-Regular-63" transform="translate(546.999908 0)"/>
     <use xlink:href="#NotoSansCJKsc-Regular-74" transform="translate(597.999893 0)"/>
     <use xlink:href="#NotoSansCJKsc-Regular-69" transform="translate(635.69989 0)"/>
     <use xlink:href="#NotoSansCJKsc-Regular-6f" transform="translate(663.199875 0)"/>
     <use xlink:href="#NotoSansCJKsc-Regular-6e" transform="translate(723.799866 0)"/>
    </g>
   </g>
  </g>
  <g id="axes_2">
   <g id="patch_6">
    <path d="M 439.78475 288.668 
L 779.256 288.668 
L 779.256 75.372 
L 439.78475 75.372 
z
" style="fill: #ffffff"/>
   </g>
   <g id="matplotlib.axis_3">
    <g id="xtick_2">
     <g id="line2d_14">
      <g>
       <use xlink:href="#mae4273e4a8" x="509.968689" y="288.668" style="fill: #475569; stroke: #475569; stroke-width: 0.8"/>
      </g>
     </g>
     <g id="text_11">
      <!-- Latency -->
      <g style="fill: #475569" transform="translate(489.739861 304.368312) scale(0.11 -0.11)">
       <defs>
        <path id="NotoSansCJKsc-Regular-4c" d="M 646 0 
L 3290 0 
L 3290 506 
L 1235 506 
L 1235 4691 
L 646 4691 
L 646 0 
z
" transform="scale(0.015625)"/>
        <path id="NotoSansCJKsc-Regular-61" d="M 1389 -83 
C 1818 -83 2208 141 2541 416 
L 2560 416 
L 2611 0 
L 3091 0 
L 3091 2138 
C 3091 3002 2739 3565 1888 3565 
C 1325 3565 838 3315 525 3110 
L 749 2707 
C 1024 2893 1389 3078 1792 3078 
C 2362 3078 2509 2650 2509 2202 
C 1030 2035 378 1658 378 902 
C 378 275 806 -83 1389 -83 
z
M 1555 390 
C 1210 390 941 544 941 941 
C 941 1389 1338 1677 2509 1811 
L 2509 845 
C 2170 544 1888 390 1555 390 
z
" transform="scale(0.015625)"/>
        <path id="NotoSansCJKsc-Regular-79" d="M 646 -1498 
C 1338 -1498 1702 -973 1946 -294 
L 3251 3475 
L 2682 3475 
L 2054 1549 
C 1965 1235 1862 883 1773 563 
L 1741 563 
C 1619 890 1504 1242 1395 1549 
L 691 3475 
L 83 3475 
L 1478 -6 
L 1402 -269 
C 1254 -698 1011 -1018 621 -1018 
C 525 -1018 422 -986 352 -960 
L 237 -1427 
C 346 -1472 486 -1498 646 -1498 
z
" transform="scale(0.015625)"/>
       </defs>
       <use xlink:href="#NotoSansCJKsc-Regular-4c"/>
       <use xlink:href="#NotoSansCJKsc-Regular-61" transform="translate(54.299988 0)"/>
       <use xlink:href="#NotoSansCJKsc-Regular-74" transform="translate(110.599976 0)"/>
       <use xlink:href="#NotoSansCJKsc-Regular-65" transform="translate(148.299973 0)"/>
       <use xlink:href="#NotoSansCJKsc-Regular-6e" transform="translate(203.699966 0)"/>
       <use xlink:href="#NotoSansCJKsc-Regular-63" transform="translate(264.699951 0)"/>
       <use xlink:href="#NotoSansCJKsc-Regular-79" transform="translate(315.699936 0)"/>
      </g>
     </g>
    </g>
    <g id="xtick_3">
     <g id="line2d_15">
      <g>
       <use xlink:href="#mae4273e4a8" x="709.072061" y="288.668" style="fill: #475569; stroke: #475569; stroke-width: 0.8"/>
      </g>
     </g>
     <g id="text_12">
      <!-- Compute -->
      <g style="fill: #475569" transform="translate(685.268233 304.423312) scale(0.11 -0.11)">
       <defs>
        <path id="NotoSansCJKsc-Regular-43" d="M 2413 -83 
C 3021 -83 3482 160 3853 589 
L 3526 966 
C 3226 634 2886 435 2438 435 
C 1542 435 979 1178 979 2362 
C 979 3533 1574 4256 2458 4256 
C 2861 4256 3168 4077 3418 3814 
L 3738 4198 
C 3469 4499 3021 4774 2451 4774 
C 1261 4774 371 3859 371 2342 
C 371 819 1242 -83 2413 -83 
z
" transform="scale(0.015625)"/>
        <path id="NotoSansCJKsc-Regular-6d" d="M 589 0 
L 1178 0 
L 1178 2522 
C 1491 2880 1786 3053 2048 3053 
C 2490 3053 2694 2778 2694 2125 
L 2694 0 
L 3277 0 
L 3277 2522 
C 3603 2880 3885 3053 4154 3053 
C 4595 3053 4800 2778 4800 2125 
L 4800 0 
L 5382 0 
L 5382 2202 
C 5382 3085 5043 3565 4333 3565 
C 3904 3565 3546 3290 3181 2899 
C 3040 3309 2758 3565 2221 3565 
C 1805 3565 1446 3302 1139 2970 
L 1126 2970 
L 1069 3475 
L 589 3475 
L 589 0 
z
" transform="scale(0.015625)"/>
        <path id="NotoSansCJKsc-Regular-70" d="M 589 -1466 
L 1178 -1466 
L 1178 -288 
L 1158 320 
C 1472 58 1805 -83 2118 -83 
C 2912 -83 3629 602 3629 1792 
C 3629 2867 3142 3565 2246 3565 
C 1843 3565 1453 3334 1139 3072 
L 1126 3072 
L 1069 3475 
L 589 3475 
L 589 -1466 
z
M 2022 410 
C 1792 410 1485 499 1178 768 
L 1178 2598 
C 1510 2906 1811 3072 2099 3072 
C 2765 3072 3021 2560 3021 1786 
C 3021 928 2598 410 2022 410 
z
" transform="scale(0.015625)"/>
        <path id="NotoSansCJKsc-Regular-75" d="M 1606 -83 
C 2080 -83 2426 166 2752 544 
L 2771 544 
L 2816 0 
L 3302 0 
L 3302 3475 
L 2720 3475 
L 2720 1011 
C 2387 602 2138 422 1779 422 
C 1318 422 1126 698 1126 1344 
L 1126 3475 
L 538 3475 
L 538 1274 
C 538 384 870 -83 1606 -83 
z
" transform="scale(0.015625)"/>
       </defs>
       <use xlink:href="#NotoSansCJKsc-Regular-43"/>
       <use xlink:href="#NotoSansCJKsc-Regular-6f" transform="translate(63.799988 0)"/>
       <use xlink:href="#NotoSansCJKsc-Regular-6d" transform="translate(124.399979 0)"/>
       <use xlink:href="#NotoSansCJKsc-Regular-70" transform="translate(216.999969 0)"/>
       <use xlink:href="#NotoSansCJKsc-Regular-75" transform="translate(278.999954 0)"/>
       <use xlink:href="#NotoSansCJKsc-Regular-74" transform="translate(339.699951 0)"/>
       <use xlink:href="#NotoSansCJKsc-Regular-65" transform="translate(377.399948 0)"/>
      </g>
     </g>
    </g>
   </g>
   <g id="matplotlib.axis_4">
    <g id="ytick_7">
     <g id="line2d_16">
      <path d="M 439.78475 288.668 
L 779.256 288.668 
" clip-path="url(#p1043cfff08)" style="fill: none; stroke: #e5e7eb; stroke-width: 0.8; stroke-linecap: square"/>
     </g>
     <g id="line2d_17">
      <g>
       <use xlink:href="#meac938673b" x="439.78475" y="288.668" style="fill: #475569; stroke: #475569; stroke-width: 0.8"/>
      </g>
     </g>
     <g id="text_13">
      <!-- 0.0 -->
      <g style="fill: #475569" transform="translate(417.517094 293.045656) scale(0.11 -0.11)">
       <use xlink:href="#NotoSansCJKsc-Regular-30"/>
       <use xlink:href="#NotoSansCJKsc-Regular-2e" transform="translate(55.499985 0)"/>
       <use xlink:href="#NotoSansCJKsc-Regular-30" transform="translate(83.299973 0)"/>
      </g>
     </g>
    </g>
    <g id="ytick_8">
     <g id="line2d_18">
      <path d="M 439.78475 246.0088 
L 779.256 246.0088 
" clip-path="url(#p1043cfff08)" style="fill: none; stroke: #e5e7eb; stroke-width: 0.8; stroke-linecap: square"/>
     </g>
     <g id="line2d_19">
      <g>
       <use xlink:href="#meac938673b" x="439.78475" y="246.0088" style="fill: #475569; stroke: #475569; stroke-width: 0.8"/>
      </g>
     </g>
     <g id="text_14">
      <!-- 0.2 -->
      <g style="fill: #475569" transform="translate(417.517094 250.386456) scale(0.11 -0.11)">
       <use xlink:href="#NotoSansCJKsc-Regular-30"/>
       <use xlink:href="#NotoSansCJKsc-Regular-2e" transform="translate(55.499985 0)"/>
       <use xlink:href="#NotoSansCJKsc-Regular-32" transform="translate(83.299973 0)"/>
      </g>
     </g>
    </g>
    <g id="ytick_9">
     <g id="line2d_20">
      <path d="M 439.78475 203.3496 
L 779.256 203.3496 
" clip-path="url(#p1043cfff08)" style="fill: none; stroke: #e5e7eb; stroke-width: 0.8; stroke-linecap: square"/>
     </g>
     <g id="line2d_21">
      <g>
       <use xlink:href="#meac938673b" x="439.78475" y="203.3496" style="fill: #475569; stroke: #475569; stroke-width: 0.8"/>
      </g>
     </g>
     <g id="text_15">
      <!-- 0.4 -->
      <g style="fill: #475569" transform="translate(417.517094 207.727256) scale(0.11 -0.11)">
       <use xlink:href="#NotoSansCJKsc-Regular-30"/>
       <use xlink:href="#NotoSansCJKsc-Regular-2e" transform="translate(55.499985 0)"/>
       <use xlink:href="#NotoSansCJKsc-Regular-34" transform="translate(83.299973 0)"/>
      </g>
     </g>
    </g>
    <g id="ytick_10">
     <g id="line2d_22">
      <path d="M 439.78475 160.6904 
L 779.256 160.6904 
" clip-path="url(#p1043cfff08)" style="fill: none; stroke: #e5e7eb; stroke-width: 0.8; stroke-linecap: square"/>
     </g>
     <g id="line2d_23">
      <g>
       <use xlink:href="#meac938673b" x="439.78475" y="160.6904" style="fill: #475569; stroke: #475569; stroke-width: 0.8"/>
      </g>
     </g>
     <g id="text_16">
      <!-- 0.6 -->
      <g style="fill: #475569" transform="translate(417.517094 165.068056) scale(0.11 -0.11)">
       <use xlink:href="#NotoSansCJKsc-Regular-30"/>
       <use xlink:href="#NotoSansCJKsc-Regular-2e" transform="translate(55.499985 0)"/>
       <use xlink:href="#NotoSansCJKsc-Regular-36" transform="translate(83.299973 0)"/>
      </g>
     </g>
    </g>
    <g id="ytick_11">
     <g id="line2d_24">
      <path d="M 439.78475 118.0312 
L 779.256 118.0312 
" clip-path="url(#p1043cfff08)" style="fill: none; stroke: #e5e7eb; stroke-width: 0.8; stroke-linecap: square"/>
     </g>
     <g id="line2d_25">
      <g>
       <use xlink:href="#meac938673b" x="439.78475" y="118.0312" style="fill: #475569; stroke: #475569; stroke-width: 0.8"/>
      </g>
     </g>
     <g id="text_17">
      <!-- 0.8 -->
      <g style="fill: #475569" transform="translate(417.517094 122.408856) scale(0.11 -0.11)">
       <use xlink:href="#NotoSansCJKsc-Regular-30"/>
       <use xlink:href="#NotoSansCJKsc-Regular-2e" transform="translate(55.499985 0)"/>
       <use xlink:href="#NotoSansCJKsc-Regular-38" transform="translate(83.299973 0)"/>
      </g>
     </g>
    </g>
    <g id="ytick_12">
     <g id="line2d_26">
      <path d="M 439.78475 75.372 
L 779.256 75.372 
" clip-path="url(#p1043cfff08)" style="fill: none; stroke: #e5e7eb; stroke-width: 0.8; stroke-linecap: square"/>
     </g>
     <g id="line2d_27">
      <g>
       <use xlink:href="#meac938673b" x="439.78475" y="75.372" style="fill: #475569; stroke: #475569; stroke-width: 0.8"/>
      </g>
     </g>
     <g id="text_18">
      <!-- 1.0 -->
      <g style="fill: #475569" transform="translate(417.517094 79.749656) scale(0.11 -0.11)">
       <use xlink:href="#NotoSansCJKsc-Regular-31"/>
       <use xlink:href="#NotoSansCJKsc-Regular-2e" transform="translate(55.499985 0)"/>
       <use xlink:href="#NotoSansCJKsc-Regular-30" transform="translate(83.299973 0)"/>
      </g>
     </g>
    </g>
    <g id="text_19">
     <!-- ms (latency) / GFLOPs (compute) -->
     <g style="fill: #0f172a" transform="translate(410.942406 266.060859) rotate(-90) scale(0.11 -0.11)">
      <defs>
       <path id="NotoSansCJKsc-Regular-73" d="M 1498 -83 
C 2317 -83 2758 384 2758 947 
C 2758 1606 2208 1811 1702 2003 
C 1312 2150 954 2278 954 2605 
C 954 2880 1158 3110 1600 3110 
C 1907 3110 2150 2976 2387 2803 
L 2669 3168 
C 2406 3386 2022 3565 1594 3565 
C 832 3565 397 3130 397 2579 
C 397 1984 922 1754 1408 1574 
C 1792 1434 2202 1267 2202 915 
C 2202 614 1978 371 1517 371 
C 1101 371 794 538 486 787 
L 205 397 
C 531 122 1005 -83 1498 -83 
z
" transform="scale(0.015625)"/>
       <path id="NotoSansCJKsc-Regular-6c" d="M 1203 -83 
C 1363 -83 1459 -58 1542 -32 
L 1459 416 
C 1395 403 1370 403 1338 403 
C 1248 403 1178 474 1178 653 
L 1178 5094 
L 589 5094 
L 589 691 
C 589 198 768 -83 1203 -83 
z
" transform="scale(0.015625)"/>
       <path id="NotoSansCJKsc-Regular-2f" d="M 70 -1146 
L 499 -1146 
L 2413 5082 
L 1990 5082 
L 70 -1146 
z
" transform="scale(0.015625)"/>
       <path id="NotoSansCJKsc-Regular-47" d="M 2490 -83 
C 3117 -83 3635 147 3936 461 
L 3936 2432 
L 2394 2432 
L 2394 1939 
L 3392 1939 
L 3392 710 
C 3206 538 2880 435 2547 435 
C 1542 435 979 1178 979 2362 
C 979 3533 1594 4256 2541 4256 
C 3008 4256 3315 4058 3552 3814 
L 3872 4198 
C 3603 4480 3174 4774 2522 4774 
C 1280 4774 371 3859 371 2342 
C 371 819 1254 -83 2490 -83 
z
" transform="scale(0.015625)"/>
       <path id="NotoSansCJKsc-Regular-4f" d="M 2374 -83 
C 3552 -83 4378 858 4378 2362 
C 4378 3866 3552 4774 2374 4774 
C 1197 4774 371 3866 371 2362 
C 371 858 1197 -83 2374 -83 
z
M 2374 435 
C 1530 435 979 1190 979 2362 
C 979 3533 1530 4256 2374 4256 
C 3219 4256 3770 3533 3770 2362 
C 3770 1190 3219 435 2374 435 
z
" transform="scale(0.015625)"/>
       <path id="NotoSansCJKsc-Regular-50" d="M 646 0 
L 1235 0 
L 1235 1869 
L 2010 1869 
C 3040 1869 3738 2323 3738 3315 
C 3738 4339 3034 4691 1984 4691 
L 646 4691 
L 646 0 
z
M 1235 2349 
L 1235 4211 
L 1907 4211 
C 2733 4211 3149 4000 3149 3315 
C 3149 2643 2758 2349 1933 2349 
L 1235 2349 
z
" transform="scale(0.015625)"/>
      </defs>
      <use xlink:href="#NotoSansCJKsc-Regular-6d"/>
      <use xlink:href="#NotoSansCJKsc-Regular-73" transform="translate(92.599991 0)"/>
      <use xlink:href="#NotoSansCJKsc-Regular-20" transform="translate(139.399979 0)"/>
      <use xlink:href="#NotoSansCJKsc-Regular-28" transform="translate(161.799973 0)"/>
      <use xlink:href="#NotoSansCJKsc-Regular-6c" transform="translate(195.59996 0)"/>
      <use xlink:href="#NotoSansCJKsc-Regular-61" transform="translate(223.999954 0)"/>
      <use xlink:href="#NotoSansCJKsc-Regular-74" transform="translate(280.299942 0)"/>
      <use xlink:href="#NotoSansCJKsc-Regular-65" transform="translate(317.999939 0)"/>
      <use xlink:href="#NotoSansCJKsc-Regular-6e" transform="translate(373.399933 0)"/>
      <use xlink:href="#NotoSansCJKsc-Regular-63" transform="translate(434.399918 0)"/>
      <use xlink:href="#NotoSansCJKsc-Regular-79" transform="translate(485.399902 0)"/>
      <use xlink:href="#NotoSansCJKsc-Regular-29" transform="translate(537.499893 0)"/>
      <use xlink:href="#NotoSansCJKsc-Regular-20" transform="translate(571.299881 0)"/>
      <use xlink:href="#NotoSansCJKsc-Regular-2f" transform="translate(593.699875 0)"/>
      <use xlink:href="#NotoSansCJKsc-Regular-20" transform="translate(632.899872 0)"/>
      <use xlink:href="#NotoSansCJKsc-Regular-47" transform="translate(655.299866 0)"/>
      <use xlink:href="#NotoSansCJKsc-Regular-46" transform="translate(724.19986 0)"/>
      <use xlink:href="#NotoSansCJKsc-Regular-4c" transform="translate(779.399857 0)"/>
      <use xlink:href="#NotoSansCJKsc-Regular-4f" transform="translate(833.699844 0)"/>
      <use xlink:href="#NotoSansCJKsc-Regular-50" transform="translate(907.899826 0)"/>
      <use xlink:href="#NotoSansCJKsc-Regular-73" transform="translate(971.199814 0)"/>
      <use xlink:href="#NotoSansCJKsc-Regular-20" transform="translate(1017.999802 0)"/>
      <use xlink:href="#NotoSansCJKsc-Regular-28" transform="translate(1040.399796 0)"/>
      <use xlink:href="#NotoSansCJKsc-Regular-63" transform="translate(1074.199783 0)"/>
      <use xlink:href="#NotoSansCJKsc-Regular-6f" transform="translate(1125.199768 0)"/>
      <use xlink:href="#NotoSansCJKsc-Regular-6d" transform="translate(1185.799759 0)"/>
      <use xlink:href="#NotoSansCJKsc-Regular-70" transform="translate(1278.39975 0)"/>
      <use xlink:href="#NotoSansCJKsc-Regular-75" transform="translate(1340.399734 0)"/>
      <use xlink:href="#NotoSansCJKsc-Regular-74" transform="translate(1401.099731 0)"/>
      <use xlink:href="#NotoSansCJKsc-Regular-65" transform="translate(1438.799728 0)"/>
      <use xlink:href="#NotoSansCJKsc-Regular-29" transform="translate(1494.199722 0)"/>
     </g>
    </g>
   </g>
   <g id="patch_7">
    <path d="M 439.78475 288.668 
L 439.78475 75.372 
" style="fill: none; stroke: #94a3b8; stroke-width: 0.8; stroke-linejoin: miter; stroke-linecap: square"/>
   </g>
   <g id="patch_8">
    <path d="M 439.78475 288.668 
L 779.256 288.668 
" style="fill: none; stroke: #94a3b8; stroke-width: 0.8; stroke-linejoin: miter; stroke-linecap: square"/>
   </g>
   <g id="patch_9">
    <path d="M 455.215261 288.668 
L 564.722116 288.668 
L 564.722116 267.3384 
L 455.215261 267.3384 
z
" clip-path="url(#p1043cfff08)" style="fill: #0891b2"/>
   </g>
   <g id="patch_10">
    <path d="M 654.318634 288.668 
L 763.825489 288.668 
L 763.825489 160.6904 
L 654.318634 160.6904 
z
" clip-path="url(#p1043cfff08)" style="fill: #2563eb"/>
   </g>
   <g id="text_20">
    <!-- 0.1 -->
    <g style="fill: #0f172a" transform="translate(502.970439 265.3389) scale(0.093 -0.093)">
     <defs>
      <path id="NotoSansCJKsc-Bold-31" d="M 525 0 
L 3373 0 
L 3373 768 
L 2483 768 
L 2483 4742 
L 1786 4742 
C 1485 4550 1165 4429 685 4346 
L 685 3757 
L 1549 3757 
L 1549 768 
L 525 768 
L 525 0 
z
" transform="scale(0.015625)"/>
     </defs>
     <use xlink:href="#NotoSansCJKsc-Bold-30"/>
     <use xlink:href="#NotoSansCJKsc-Bold-2e" transform="translate(58.999985 0)"/>
     <use xlink:href="#NotoSansCJKsc-Bold-31" transform="translate(91.499969 0)"/>
    </g>
   </g>
   <g id="text_21">
    <!-- 0.6 -->
    <g style="fill: #0f172a" transform="translate(702.073811 158.6909) scale(0.093 -0.093)">
     <use xlink:href="#NotoSansCJKsc-Bold-30"/>
     <use xlink:href="#NotoSansCJKsc-Bold-2e" transform="translate(58.999985 0)"/>
     <use xlink:href="#NotoSansCJKsc-Bold-36" transform="translate(91.499969 0)"/>
    </g>
   </g>
   <g id="text_22">
    <!-- ~0.1ms probe, ~0.6 GFLOPs -->
    <g style="fill: #475569" transform="translate(539.984047 69.372) scale(0.11 -0.11)">
     <defs>
      <path id="NotoSansCJKsc-Regular-7e" d="M 2406 1837 
C 2714 1837 3034 2029 3296 2477 
L 2970 2714 
C 2803 2406 2624 2278 2419 2278 
C 2016 2278 1715 2886 1152 2886 
C 845 2886 518 2688 262 2240 
L 589 2010 
C 749 2317 928 2445 1133 2445 
C 1542 2445 1843 1837 2406 1837 
z
" transform="scale(0.015625)"/>
      <path id="NotoSansCJKsc-Regular-62" d="M 2118 -83 
C 2912 -83 3629 602 3629 1792 
C 3629 2867 3142 3565 2246 3565 
C 1856 3565 1472 3347 1152 3078 
L 1178 3699 
L 1178 5094 
L 589 5094 
L 589 0 
L 1056 0 
L 1107 358 
L 1133 358 
C 1434 83 1798 -83 2118 -83 
z
M 2022 410 
C 1792 410 1478 499 1178 768 
L 1178 2598 
C 1504 2906 1811 3072 2099 3072 
C 2765 3072 3021 2560 3021 1786 
C 3021 928 2598 410 2022 410 
z
" transform="scale(0.015625)"/>
      <path id="NotoSansCJKsc-Regular-2c" d="M 480 -1216 
C 1056 -973 1414 -493 1414 122 
C 1414 550 1229 806 922 806 
C 685 806 480 653 480 397 
C 480 141 678 -13 909 -13 
L 979 -6 
C 973 -390 736 -698 339 -870 
L 480 -1216 
z
" transform="scale(0.015625)"/>
     </defs>
     <use xlink:href="#NotoSansCJKsc-Regular-7e"/>
     <use xlink:href="#NotoSansCJKsc-Regular-30" transform="translate(55.499985 0)"/>
     <use xlink:href="#NotoSansCJKsc-Regular-2e" transform="translate(110.999969 0)"/>
     <use xlink:href="#NotoSansCJKsc-Regular-31" transform="translate(138.799957 0)"/>
     <use xlink:href="#NotoSansCJKsc-Regular-6d" transform="translate(194.299942 0)"/>
     <use xlink:href="#NotoSansCJKsc-Regular-73" transform="translate(286.899933 0)"/>
     <use xlink:href="#NotoSansCJKsc-Regular-20" transform="translate(333.699921 0)"/>
     <use xlink:href="#NotoSansCJKsc-Regular-70" transform="translate(356.099915 0)"/>
     <use xlink:href="#NotoSansCJKsc-Regular-72" transform="translate(418.099899 0)"/>
     <use xlink:href="#NotoSansCJKsc-Regular-6f" transform="translate(456.899887 0)"/>
     <use xlink:href="#NotoSansCJKsc-Regular-62" transform="translate(517.499878 0)"/>
     <use xlink:href="#NotoSansCJKsc-Regular-65" transform="translate(579.299866 0)"/>
     <use xlink:href="#NotoSansCJKsc-Regular-2c" transform="translate(634.69986 0)"/>
     <use xlink:href="#NotoSansCJKsc-Regular-20" transform="translate(662.499847 0)"/>
     <use xlink:href="#NotoSansCJKsc-Regular-7e" transform="translate(684.899841 0)"/>
     <use xlink:href="#NotoSansCJKsc-Regular-30" transform="translate(740.399826 0)"/>
     <use xlink:href="#NotoSansCJKsc-Regular-2e" transform="translate(795.899811 0)"/>
     <use xlink:href="#NotoSansCJKsc-Regular-36" transform="translate(823.699799 0)"/>
     <use xlink:href="#NotoSansCJKsc-Regular-20" transform="translate(879.199783 0)"/>
     <use xlink:href="#NotoSansCJKsc-Regular-47" transform="translate(901.599777 0)"/>
     <use xlink:href="#NotoSansCJKsc-Regular-46" transform="translate(970.499771 0)"/>
     <use xlink:href="#NotoSansCJKsc-Regular-4c" transform="translate(1025.699768 0)"/>
     <use xlink:href="#NotoSansCJKsc-Regular-4f" transform="translate(1079.999756 0)"/>
     <use xlink:href="#NotoSansCJKsc-Regular-50" transform="translate(1154.199738 0)"/>
     <use xlink:href="#NotoSansCJKsc-Regular-73" transform="translate(1217.499725 0)"/>
    </g>
   </g>
  </g>
  <g id="text_23">
   <!-- Streaming probe — accuracy &amp; cost -->
   <g style="fill: #0f172a" transform="translate(8.64 19.587656) scale(0.135 -0.135)">
    <defs>
     <path id="NotoSansCJKsc-Bold-53" d="M 1997 -90 
C 3091 -90 3738 570 3738 1344 
C 3738 2029 3360 2400 2784 2637 
L 2163 2886 
C 1760 3053 1427 3174 1427 3514 
C 1427 3827 1683 4013 2099 4013 
C 2496 4013 2810 3866 3110 3622 
L 3590 4211 
C 3206 4602 2656 4826 2099 4826 
C 1146 4826 461 4224 461 3456 
C 461 2765 947 2381 1427 2189 
L 2054 1914 
C 2477 1734 2771 1626 2771 1274 
C 2771 941 2509 730 2016 730 
C 1600 730 1146 941 813 1254 
L 269 602 
C 730 154 1363 -90 1997 -90 
z
" transform="scale(0.015625)"/>
     <path id="NotoSansCJKsc-Bold-74" d="M 1818 -90 
C 2131 -90 2381 -13 2579 45 
L 2419 730 
C 2323 691 2182 653 2067 653 
C 1747 653 1574 845 1574 1254 
L 1574 2842 
L 2464 2842 
L 2464 3584 
L 1574 3584 
L 1574 4550 
L 800 4550 
L 691 3584 
L 134 3539 
L 134 2842 
L 640 2842 
L 640 1248 
C 640 454 966 -90 1818 -90 
z
" transform="scale(0.015625)"/>
     <path id="NotoSansCJKsc-Bold-72" d="M 506 0 
L 1446 0 
L 1446 2138 
C 1651 2656 1984 2842 2259 2842 
C 2413 2842 2515 2822 2643 2784 
L 2797 3597 
C 2694 3642 2579 3674 2381 3674 
C 2010 3674 1626 3418 1363 2950 
L 1344 2950 
L 1274 3584 
L 506 3584 
L 506 0 
z
" transform="scale(0.015625)"/>
     <path id="NotoSansCJKsc-Bold-65" d="M 2067 -90 
C 2509 -90 2963 64 3315 307 
L 2995 883 
C 2733 723 2483 640 2195 640 
C 1658 640 1274 941 1197 1523 
L 3405 1523 
C 3430 1613 3450 1786 3450 1958 
C 3450 2957 2938 3674 1952 3674 
C 1101 3674 282 2950 282 1792 
C 282 608 1062 -90 2067 -90 
z
M 1178 2157 
C 1254 2675 1587 2944 1965 2944 
C 2432 2944 2643 2637 2643 2157 
L 1178 2157 
z
" transform="scale(0.015625)"/>
     <path id="NotoSansCJKsc-Bold-61" d="M 1382 -90 
C 1798 -90 2157 109 2464 384 
L 2496 384 
L 2560 0 
L 3328 0 
L 3328 2093 
C 3328 3130 2861 3674 1952 3674 
C 1389 3674 877 3456 461 3200 
L 794 2573 
C 1126 2771 1446 2918 1779 2918 
C 2221 2918 2374 2650 2387 2298 
C 947 2144 326 1741 326 979 
C 326 365 742 -90 1382 -90 
z
M 1696 646 
C 1421 646 1222 768 1222 1050 
C 1222 1376 1510 1613 2387 1715 
L 2387 998 
C 2163 774 1965 646 1696 646 
z
" transform="scale(0.015625)"/>
     <path id="NotoSansCJKsc-Bold-6d" d="M 506 0 
L 1446 0 
L 1446 2464 
C 1696 2739 1926 2867 2131 2867 
C 2477 2867 2637 2675 2637 2118 
L 2637 0 
L 3571 0 
L 3571 2464 
C 3827 2739 4058 2867 4262 2867 
C 4602 2867 4762 2675 4762 2118 
L 4762 0 
L 5696 0 
L 5696 2234 
C 5696 3136 5350 3674 4589 3674 
C 4128 3674 3776 3392 3443 3046 
C 3277 3443 2976 3674 2464 3674 
C 1997 3674 1664 3418 1363 3104 
L 1344 3104 
L 1274 3584 
L 506 3584 
L 506 0 
z
" transform="scale(0.015625)"/>
     <path id="NotoSansCJKsc-Bold-69" d="M 506 0 
L 1446 0 
L 1446 3584 
L 506 3584 
L 506 0 
z
M 979 4166 
C 1299 4166 1523 4365 1523 4678 
C 1523 4986 1299 5190 979 5190 
C 646 5190 435 4986 435 4678 
C 435 4365 646 4166 979 4166 
z
" transform="scale(0.015625)"/>
     <path id="NotoSansCJKsc-Bold-6e" d="M 506 0 
L 1446 0 
L 1446 2464 
C 1709 2726 1901 2867 2189 2867 
C 2541 2867 2694 2675 2694 2118 
L 2694 0 
L 3635 0 
L 3635 2234 
C 3635 3136 3302 3674 2528 3674 
C 2042 3674 1677 3418 1363 3110 
L 1344 3110 
L 1274 3584 
L 506 3584 
L 506 0 
z
" transform="scale(0.015625)"/>
     <path id="NotoSansCJKsc-Bold-67" d="M 1766 -1555 
C 2963 -1555 3718 -1005 3718 -282 
C 3718 346 3245 614 2381 614 
L 1766 614 
C 1350 614 1203 717 1203 902 
C 1203 1056 1267 1133 1357 1216 
C 1517 1158 1683 1133 1818 1133 
C 2592 1133 3206 1536 3206 2349 
C 3206 2573 3136 2771 3046 2893 
L 3654 2893 
L 3654 3584 
L 2368 3584 
C 2214 3635 2029 3674 1818 3674 
C 1062 3674 378 3219 378 2381 
C 378 1958 608 1619 858 1440 
L 858 1414 
C 640 1261 461 1011 461 749 
C 461 448 595 262 787 141 
L 787 109 
C 448 -77 275 -333 275 -634 
C 275 -1267 922 -1555 1766 -1555 
z
M 1818 1715 
C 1510 1715 1261 1952 1261 2381 
C 1261 2797 1504 3027 1818 3027 
C 2138 3027 2387 2797 2387 2381 
C 2387 1952 2138 1715 1818 1715 
z
M 1907 -954 
C 1389 -954 1056 -787 1056 -493 
C 1056 -339 1126 -198 1286 -70 
C 1421 -102 1568 -115 1779 -115 
L 2221 -115 
C 2605 -115 2816 -186 2816 -442 
C 2816 -717 2451 -954 1907 -954 
z
" transform="scale(0.015625)"/>
     <path id="NotoSansCJKsc-Bold-20" transform="scale(0.015625)"/>
     <path id="NotoSansCJKsc-Bold-70" d="M 506 -1376 
L 1446 -1376 
L 1446 -282 
L 1414 301 
C 1683 51 1990 -90 2304 -90 
C 3091 -90 3827 621 3827 1850 
C 3827 2950 3296 3674 2419 3674 
C 2029 3674 1664 3469 1363 3213 
L 1344 3213 
L 1274 3584 
L 506 3584 
L 506 -1376 
z
M 2099 685 
C 1901 685 1677 755 1446 954 
L 1446 2534 
C 1690 2778 1907 2899 2150 2899 
C 2643 2899 2861 2522 2861 1837 
C 2861 1056 2522 685 2099 685 
z
" transform="scale(0.015625)"/>
     <path id="NotoSansCJKsc-Bold-6f" d="M 2003 -90 
C 2899 -90 3725 602 3725 1792 
C 3725 2982 2899 3674 2003 3674 
C 1101 3674 282 2982 282 1792 
C 282 602 1101 -90 2003 -90 
z
M 2003 678 
C 1510 678 1242 1114 1242 1792 
C 1242 2464 1510 2906 2003 2906 
C 2490 2906 2765 2464 2765 1792 
C 2765 1114 2490 678 2003 678 
z
" transform="scale(0.015625)"/>
     <path id="NotoSansCJKsc-Bold-62" d="M 2304 -90 
C 3091 -90 3827 621 3827 1856 
C 3827 2950 3296 3674 2413 3674 
C 2061 3674 1702 3501 1414 3245 
L 1446 3821 
L 1446 5107 
L 506 5107 
L 506 0 
L 1242 0 
L 1318 378 
L 1350 378 
C 1638 77 1984 -90 2304 -90 
z
M 2099 685 
C 1901 685 1664 755 1446 954 
L 1446 2534 
C 1690 2778 1907 2899 2150 2899 
C 2643 2899 2861 2522 2861 1837 
C 2861 1056 2522 685 2099 685 
z
" transform="scale(0.015625)"/>
     <path id="NotoSansCJKsc-Bold-2014" d="M 314 1536 
L 5498 1536 
L 5498 2138 
L 314 2138 
L 314 1536 
z
" transform="scale(0.015625)"/>
     <path id="NotoSansCJKsc-Bold-63" d="M 2029 -90 
C 2426 -90 2861 45 3200 346 
L 2829 966 
C 2630 800 2394 678 2131 678 
C 1613 678 1242 1114 1242 1792 
C 1242 2464 1613 2906 2163 2906 
C 2362 2906 2528 2822 2707 2675 
L 3155 3270 
C 2893 3507 2554 3674 2112 3674 
C 1139 3674 282 2982 282 1792 
C 282 602 1043 -90 2029 -90 
z
" transform="scale(0.015625)"/>
     <path id="NotoSansCJKsc-Bold-75" d="M 1574 -90 
C 2067 -90 2406 154 2714 518 
L 2739 518 
L 2810 0 
L 3578 0 
L 3578 3584 
L 2637 3584 
L 2637 1165 
C 2394 845 2202 717 1914 717 
C 1562 717 1402 909 1402 1466 
L 1402 3584 
L 467 3584 
L 467 1350 
C 467 448 800 -90 1574 -90 
z
" transform="scale(0.015625)"/>
     <path id="NotoSansCJKsc-Bold-79" d="M 819 -1434 
C 1619 -1434 2003 -954 2317 -109 
L 3590 3584 
L 2688 3584 
L 2195 1920 
C 2106 1587 2016 1242 1939 909 
L 1907 909 
C 1805 1254 1715 1600 1606 1920 
L 1037 3584 
L 90 3584 
L 1485 70 
L 1421 -147 
C 1318 -461 1114 -691 749 -691 
C 666 -691 563 -666 499 -646 
L 326 -1370 
C 467 -1408 608 -1434 819 -1434 
z
" transform="scale(0.015625)"/>
     <path id="NotoSansCJKsc-Bold-26" d="M 1741 -90 
C 2323 -90 2797 102 3187 410 
C 3590 160 3994 -6 4378 -90 
L 4602 678 
C 4358 723 4070 845 3763 1018 
C 4134 1510 4390 2054 4570 2650 
L 3706 2650 
C 3584 2176 3379 1773 3130 1440 
C 2746 1728 2387 2067 2106 2426 
C 2611 2771 3123 3162 3123 3789 
C 3123 4410 2694 4826 2022 4826 
C 1267 4826 787 4282 787 3622 
C 787 3309 896 2957 1082 2605 
C 608 2298 192 1914 192 1254 
C 192 525 749 -90 1741 -90 
z
M 2541 870 
C 2323 723 2093 640 1856 640 
C 1402 640 1088 909 1088 1312 
C 1088 1568 1248 1779 1478 1978 
C 1779 1581 2144 1203 2541 870 
z
M 1734 2995 
C 1626 3213 1562 3430 1562 3629 
C 1562 3968 1766 4198 2042 4198 
C 2285 4198 2394 4026 2394 3789 
C 2394 3443 2106 3219 1734 2995 
z
" transform="scale(0.015625)"/>
     <path id="NotoSansCJKsc-Bold-73" d="M 1530 -90 
C 2458 -90 2957 410 2957 1043 
C 2957 1702 2432 1946 1958 2125 
C 1574 2266 1248 2362 1248 2624 
C 1248 2829 1402 2970 1728 2970 
C 1990 2970 2240 2842 2496 2662 
L 2918 3232 
C 2624 3462 2221 3674 1702 3674 
C 883 3674 365 3219 365 2579 
C 365 1978 870 1702 1325 1530 
C 1702 1382 2074 1261 2074 992 
C 2074 768 1914 614 1555 614 
C 1216 614 915 762 595 1005 
L 166 410 
C 525 115 1050 -90 1530 -90 
z
" transform="scale(0.015625)"/>
    </defs>
    <use xlink:href="#NotoSansCJKsc-Bold-53"/>
    <use xlink:href="#NotoSansCJKsc-Bold-74" transform="translate(62.399994 0)"/>
    <use xlink:href="#NotoSansCJKsc-Bold-72" transform="translate(104.499985 0)"/>
    <use xlink:href="#NotoSansCJKsc-Bold-65" transform="translate(148.099976 0)"/>
    <use xlink:href="#NotoSansCJKsc-Bold-61" transform="translate(206.199966 0)"/>
    <use xlink:href="#NotoSansCJKsc-Bold-6d" transform="translate(265.299957 0)"/>
    <use xlink:href="#NotoSansCJKsc-Bold-69" transform="translate(361.699951 0)"/>
    <use xlink:href="#NotoSansCJKsc-Bold-6e" transform="translate(392.099945 0)"/>
    <use xlink:href="#NotoSansCJKsc-Bold-67" transform="translate(456.199936 0)"/>
    <use xlink:href="#NotoSansCJKsc-Bold-20" transform="translate(515.899933 0)"/>
    <use xlink:href="#NotoSansCJKsc-Bold-70" transform="translate(538.59993 0)"/>
    <use xlink:href="#NotoSansCJKsc-Bold-72" transform="translate(602.999924 0)"/>
    <use xlink:href="#NotoSansCJKsc-Bold-6f" transform="translate(646.599915 0)"/>
    <use xlink:href="#NotoSansCJKsc-Bold-62" transform="translate(709.199905 0)"/>
    <use xlink:href="#NotoSansCJKsc-Bold-65" transform="translate(773.599899 0)"/>
    <use xlink:href="#NotoSansCJKsc-Bold-20" transform="translate(831.69989 0)"/>
    <use xlink:href="#NotoSansCJKsc-Bold-2014" transform="translate(854.399887 0)"/>
    <use xlink:href="#NotoSansCJKsc-Bold-20" transform="translate(945.199875 0)"/>
    <use xlink:href="#NotoSansCJKsc-Bold-61" transform="translate(967.899872 0)"/>
    <use xlink:href="#NotoSansCJKsc-Bold-63" transform="translate(1026.999863 0)"/>
    <use xlink:href="#NotoSansCJKsc-Bold-63" transform="translate(1079.69986 0)"/>
    <use xlink:href="#NotoSansCJKsc-Bold-75" transform="translate(1132.399857 0)"/>
    <use xlink:href="#NotoSansCJKsc-Bold-72" transform="translate(1196.099854 0)"/>
    <use xlink:href="#NotoSansCJKsc-Bold-61" transform="translate(1239.699844 0)"/>
    <use xlink:href="#NotoSansCJKsc-Bold-63" transform="translate(1298.799835 0)"/>
    <use xlink:href="#NotoSansCJKsc-Bold-79" transform="translate(1351.499832 0)"/>
    <use xlink:href="#NotoSansCJKsc-Bold-20" transform="translate(1408.899826 0)"/>
    <use xlink:href="#NotoSansCJKsc-Bold-26" transform="translate(1431.599823 0)"/>
    <use xlink:href="#NotoSansCJKsc-Bold-20" transform="translate(1505.599808 0)"/>
    <use xlink:href="#NotoSansCJKsc-Bold-63" transform="translate(1528.299805 0)"/>
    <use xlink:href="#NotoSansCJKsc-Bold-6f" transform="translate(1580.999802 0)"/>
    <use xlink:href="#NotoSansCJKsc-Bold-73" transform="translate(1643.599792 0)"/>
    <use xlink:href="#NotoSansCJKsc-Bold-74" transform="translate(1693.099777 0)"/>
   </g>
  </g>
 </g>
 <defs>
  <clipPath id="pdab04d01e0">
   <rect x="49.646" y="75.372" width="339.47125" height="213.296"/>
  </clipPath>
  <clipPath id="p1043cfff08">
   <rect x="439.78475" y="75.372" width="339.47125" height="213.296"/>
  </clipPath>
 </defs>
</svg>
