<?xml version="1.0" encoding="utf-8" standalone="no"?>
<!DOCTYPE svg PUBLIC "-//W3C//DTD SVG 1.1//EN"
  "http://www.w3.org/Graphics/SVG/1.1/DTD/svg11.dtd">
<svg xmlns:xlink="http://www.w3.org/1999/xlink" width="787.896pt" height="314.497062pt" viewBox="0 0 787.896 314.497062" xmlns="http://www.w3.org/2000/svg" version="1.1">
 <metadata>
  <rdf:RDF xmlns:dc="http://purl.org/dc/elements/1.1/" xmlns:cc="http://creativecommons.org/ns#" xmlns:rdf="http://www.w3.org/1999/02/22-rdf-syntax-ns#">
   <cc:Work>
    <dc:type rdf:resource="http://purl.org/dc/dcmitype/StillImage"/>
    <dc:date>2026-06-21T19:29:08.024834</dc:date>
    <dc:format>image/svg+xml</dc:format>
    <dc:creator>
     <cc:Agent>
      <dc:title>Matplotlib v3.10.5, https://matplotlib.org/</dc:title>
     </cc:Agent>
    </dc:creator>
   </cc:Work>
  </rdf:RDF>
 </metadata>
 <defs>
  <style type="text/css">*{stroke-linejoin: round; stroke-linecap: butt}</style>
 </defs>
 <g id="figure_1">
  <g id="patch_1">
   <path d="M 0 314.497062 
L 787.896 314.497062 
L 787.896 0 
L 0 0 
z
" style="fill: #ffffff"/>
  </g>
  <g id="axes_1">
   <g id="patch_2">
    <path d="M 46.496 274.556 
L 389.196 274.556 
L 389.196 76.0695 
L 46.496 76.0695 
z
" style="fill: #ffffff"/>
   </g>
   <g id="matplotlib.axis_1">
    <g id="xtick_1">
     <g id="line2d_1">
      <defs>
       <path id="m4ef840884e" d="M 0 0 
L 0 3.5 
" style="stroke: #475569; stroke-width: 0.8"/>
      </defs>
      <g>
       <use xlink:href="#m4ef840884e" x="95.671312" y="274.556" style="fill: #475569; stroke: #475569; stroke-width: 0.8"/>
      </g>
     </g>
     <g id="text_1">
      <!-- ETD -->
      <g style="fill: #475569" transform="translate(85.352796 290.311312) scale(0.11 -0.11)">
       <defs>
        <path id="NotoSansCJKsc-Regular-45" d="M 646 0 
L 3418 0 
L 3418 506 
L 1235 506 
L 1235 2214 
L 3014 2214 
L 3014 2720 
L 1235 2720 
L 1235 4192 
L 3347 4192 
L 3347 4691 
L 646 4691 
L 646 0 
z
" transform="scale(0.015625)"/>
        <path id="NotoSansCJKsc-Regular-54" d="M 1619 0 
L 2214 0 
L 2214 4192 
L 3635 4192 
L 3635 4691 
L 198 4691 
L 198 4192 
L 1619 4192 
L 1619 0 
z
" transform="scale(0.015625)"/>
        <path id="NotoSansCJKsc-Regular-44" d="M 646 0 
L 1843 0 
C 3258 0 4026 877 4026 2362 
C 4026 3859 3258 4691 1818 4691 
L 646 4691 
L 646 0 
z
M 1235 486 
L 1235 4211 
L 1766 4211 
C 2874 4211 3418 3552 3418 2362 
C 3418 1178 2874 486 1766 486 
L 1235 486 
z
" transform="scale(0.015625)"/>
       </defs>
       <use xlink:href="#NotoSansCJKsc-Regular-45"/>
       <use xlink:href="#NotoSansCJKsc-Regular-54" transform="translate(58.899994 0)"/>
       <use xlink:href="#NotoSansCJKsc-Regular-44" transform="translate(118.799988 0)"/>
      </g>
     </g>
    </g>
    <g id="xtick_2">
     <g id="line2d_2">
      <g>
       <use xlink:href="#m4ef840884e" x="217.846" y="274.556" style="fill: #475569; stroke: #475569; stroke-width: 0.8"/>
      </g>
     </g>
     <g id="text_2">
      <!-- EL -->
      <g style="fill: #475569" transform="translate(211.619828 290.311312) scale(0.11 -0.11)">
       <defs>
        <path id="NotoSansCJKsc-Regular-4c" d="M 646 0 
L 3290 0 
L 3290 506 
L 1235 506 
L 1235 4691 
L 646 4691 
L 646 0 
z
" transform="scale(0.015625)"/>
       </defs>
       <use xlink:href="#NotoSansCJKsc-Regular-45"/>
       <use xlink:href="#NotoSansCJKsc-Regular-4c" transform="translate(58.899994 0)"/>
      </g>
     </g>
    </g>
    <g id="xtick_3">
     <g id="line2d_3">
      <g>
       <use xlink:href="#m4ef840884e" x="340.020688" y="274.556" style="fill: #475569; stroke: #475569; stroke-width: 0.8"/>
      </g>
     </g>
     <g id="text_3">
      <!-- EAE -->
      <g style="fill: #475569" transform="translate(330.197172 290.311312) scale(0.11 -0.11)">
       <defs>
        <path id="NotoSansCJKsc-Regular-41" d="M 26 0 
L 621 0 
L 1075 1434 
L 2790 1434 
L 3238 0 
L 3866 0 
L 2272 4691 
L 1613 4691 
L 26 0 
z
M 1222 1901 
L 1453 2624 
C 1619 3155 1773 3661 1920 4211 
L 1946 4211 
C 2099 3667 2246 3155 2419 2624 
L 2643 1901 
L 1222 1901 
z
" transform="scale(0.015625)"/>
       </defs>
       <use xlink:href="#NotoSansCJKsc-Regular-45"/>
       <use xlink:href="#NotoSansCJKsc-Regular-41" transform="translate(58.899994 0)"/>
       <use xlink:href="#NotoSansCJKsc-Regular-45" transform="translate(119.699982 0)"/>
      </g>
     </g>
    </g>
   </g>
   <g id="matplotlib.axis_2">
    <g id="ytick_1">
     <g id="line2d_4">
      <path d="M 46.496 274.556 
L 389.196 274.556 
" clip-path="url(#p8791742771)" style="fill: none; stroke: #e5e7eb; stroke-width: 0.8; stroke-linecap: square"/>
     </g>
     <g id="line2d_5">
      <defs>
       <path id="m3178665f85" d="M 0 0 
L -3.5 0 
" style="stroke: #475569; stroke-width: 0.8"/>
      </defs>
      <g>
       <use xlink:href="#m3178665f85" x="46.496" y="274.556" style="fill: #475569; stroke: #475569; stroke-width: 0.8"/>
      </g>
     </g>
     <g id="text_4">
      <!-- 0 -->
      <g style="fill: #475569" transform="translate(33.391 278.933656) scale(0.11 -0.11)">
       <defs>
        <path id="NotoSansCJKsc-Regular-30" d="M 1779 -83 
C 2669 -83 3238 723 3238 2362 
C 3238 3987 2669 4774 1779 4774 
C 883 4774 320 3987 320 2362 
C 320 723 883 -83 1779 -83 
z
M 1779 390 
C 1248 390 883 986 883 2362 
C 883 3731 1248 4314 1779 4314 
C 2310 4314 2675 3731 2675 2362 
C 2675 986 2310 390 1779 390 
z
" transform="scale(0.015625)"/>
       </defs>
       <use xlink:href="#NotoSansCJKsc-Regular-30"/>
      </g>
     </g>
    </g>
    <g id="ytick_2">
     <g id="line2d_6">
      <path d="M 46.496 234.8587 
L 389.196 234.8587 
" clip-path="url(#p8791742771)" style="fill: none; stroke: #e5e7eb; stroke-width: 0.8; stroke-linecap: square"/>
     </g>
     <g id="line2d_7">
      <g>
       <use xlink:href="#m3178665f85" x="46.496" y="234.8587" style="fill: #475569; stroke: #475569; stroke-width: 0.8"/>
      </g>
     </g>
     <g id="text_5">
      <!-- 10 -->
      <g style="fill: #475569" transform="translate(27.286 239.236356) scale(0.11 -0.11)">
       <defs>
        <path id="NotoSansCJKsc-Regular-31" d="M 563 0 
L 3136 0 
L 3136 486 
L 2195 486 
L 2195 4691 
L 1747 4691 
C 1491 4544 1190 4435 774 4358 
L 774 3987 
L 1613 3987 
L 1613 486 
L 563 486 
L 563 0 
z
" transform="scale(0.015625)"/>
       </defs>
       <use xlink:href="#NotoSansCJKsc-Regular-31"/>
       <use xlink:href="#NotoSansCJKsc-Regular-30" transform="translate(55.499985 0)"/>
      </g>
     </g>
    </g>
    <g id="ytick_3">
     <g id="line2d_8">
      <path d="M 46.496 195.1614 
L 389.196 195.1614 
" clip-path="url(#p8791742771)" style="fill: none; stroke: #e5e7eb; stroke-width: 0.8; stroke-linecap: square"/>
     </g>
     <g id="line2d_9">
      <g>
       <use xlink:href="#m3178665f85" x="46.496" y="195.1614" style="fill: #475569; stroke: #475569; stroke-width: 0.8"/>
      </g>
     </g>
     <g id="text_6">
      <!-- 20 -->
      <g style="fill: #475569" transform="translate(27.286 199.539056) scale(0.11 -0.11)">
       <defs>
        <path id="NotoSansCJKsc-Regular-32" d="M 282 0 
L 3232 0 
L 3232 506 
L 1933 506 
C 1696 506 1408 480 1165 461 
C 2266 1504 3008 2458 3008 3398 
C 3008 4230 2477 4774 1638 4774 
C 1043 4774 634 4506 256 4090 
L 595 3757 
C 858 4070 1184 4301 1568 4301 
C 2150 4301 2432 3910 2432 3373 
C 2432 2566 1754 1632 282 346 
L 282 0 
z
" transform="scale(0.015625)"/>
       </defs>
       <use xlink:href="#NotoSansCJKsc-Regular-32"/>
       <use xlink:href="#NotoSansCJKsc-Regular-30" transform="translate(55.499985 0)"/>
      </g>
     </g>
    </g>
    <g id="ytick_4">
     <g id="line2d_10">
      <path d="M 46.496 155.4641 
L 389.196 155.4641 
" clip-path="url(#p8791742771)" style="fill: none; stroke: #e5e7eb; stroke-width: 0.8; stroke-linecap: square"/>
     </g>
     <g id="line2d_11">
      <g>
       <use xlink:href="#m3178665f85" x="46.496" y="155.4641" style="fill: #475569; stroke: #475569; stroke-width: 0.8"/>
      </g>
     </g>
     <g id="text_7">
      <!-- 30 -->
      <g style="fill: #475569" transform="translate(27.286 159.841756) scale(0.11 -0.11)">
       <defs>
        <path id="NotoSansCJKsc-Regular-33" d="M 1683 -83 
C 2522 -83 3194 416 3194 1254 
C 3194 1901 2752 2310 2202 2445 
L 2202 2477 
C 2701 2650 3034 3034 3034 3603 
C 3034 4346 2458 4774 1664 4774 
C 1126 4774 710 4538 358 4218 
L 672 3846 
C 941 4115 1267 4301 1645 4301 
C 2138 4301 2438 4006 2438 3558 
C 2438 3053 2112 2662 1139 2662 
L 1139 2214 
C 2227 2214 2598 1843 2598 1274 
C 2598 736 2208 403 1645 403 
C 1114 403 762 659 486 941 
L 186 563 
C 493 224 954 -83 1683 -83 
z
" transform="scale(0.015625)"/>
       </defs>
       <use xlink:href="#NotoSansCJKsc-Regular-33"/>
       <use xlink:href="#NotoSansCJKsc-Regular-30" transform="translate(55.499985 0)"/>
      </g>
     </g>
    </g>
    <g id="ytick_5">
     <g id="line2d_12">
      <path d="M 46.496 115.7668 
L 389.196 115.7668 
" clip-path="url(#p8791742771)" style="fill: none; stroke: #e5e7eb; stroke-width: 0.8; stroke-linecap: square"/>
     </g>
     <g id="line2d_13">
      <g>
       <use xlink:href="#m3178665f85" x="46.496" y="115.7668" style="fill: #475569; stroke: #475569; stroke-width: 0.8"/>
      </g>
     </g>
     <g id="text_8">
      <!-- 40 -->
      <g style="fill: #475569" transform="translate(27.286 120.144456) scale(0.11 -0.11)">
       <defs>
        <path id="NotoSansCJKsc-Regular-34" d="M 2176 0 
L 2726 0 
L 2726 1293 
L 3354 1293 
L 3354 1760 
L 2726 1760 
L 2726 4691 
L 2080 4691 
L 128 1677 
L 128 1293 
L 2176 1293 
L 2176 0 
z
M 2176 1760 
L 736 1760 
L 1805 3360 
C 1939 3590 2067 3827 2182 4051 
L 2208 4051 
C 2195 3814 2176 3430 2176 3200 
L 2176 1760 
z
" transform="scale(0.015625)"/>
       </defs>
       <use xlink:href="#NotoSansCJKsc-Regular-34"/>
       <use xlink:href="#NotoSansCJKsc-Regular-30" transform="translate(55.499985 0)"/>
      </g>
     </g>
    </g>
    <g id="ytick_6">
     <g id="line2d_14">
      <path d="M 46.496 76.0695 
L 389.196 76.0695 
" clip-path="url(#p8791742771)" style="fill: none; stroke: #e5e7eb; stroke-width: 0.8; stroke-linecap: square"/>
     </g>
     <g id="line2d_15">
      <g>
       <use xlink:href="#m3178665f85" x="46.496" y="76.0695" style="fill: #475569; stroke: #475569; stroke-width: 0.8"/>
      </g>
     </g>
     <g id="text_9">
      <!-- 50 -->
      <g style="fill: #475569" transform="translate(27.286 80.447156) scale(0.11 -0.11)">
       <defs>
        <path id="NotoSansCJKsc-Regular-35" d="M 1677 -83 
C 2464 -83 3213 499 3213 1523 
C 3213 2560 2573 3021 1798 3021 
C 1517 3021 1306 2950 1094 2835 
L 1216 4192 
L 2982 4192 
L 2982 4691 
L 704 4691 
L 550 2502 
L 864 2304 
C 1133 2483 1331 2579 1645 2579 
C 2234 2579 2618 2182 2618 1510 
C 2618 826 2176 403 1619 403 
C 1075 403 730 653 467 922 
L 173 538 
C 493 224 941 -83 1677 -83 
z
" transform="scale(0.015625)"/>
       </defs>
       <use xlink:href="#NotoSansCJKsc-Regular-35"/>
       <use xlink:href="#NotoSansCJKsc-Regular-30" transform="translate(55.499985 0)"/>
      </g>
     </g>
    </g>
    <g id="text_10">
     <!-- Best score (%) -->
     <g style="fill: #0f172a" transform="translate(20.766313 211.761422) rotate(-90) scale(0.11 -0.11)">
      <defs>
       <path id="NotoSansCJKsc-Regular-42" d="M 646 0 
L 2138 0 
C 3187 0 3917 454 3917 1376 
C 3917 2016 3520 2387 2963 2496 
L 2963 2528 
C 3405 2669 3648 3078 3648 3546 
C 3648 4371 2982 4691 2035 4691 
L 646 4691 
L 646 0 
z
M 1235 2701 
L 1235 4224 
L 1958 4224 
C 2694 4224 3066 4019 3066 3469 
C 3066 2989 2739 2701 1933 2701 
L 1235 2701 
z
M 1235 474 
L 1235 2240 
L 2054 2240 
C 2880 2240 3334 1978 3334 1395 
C 3334 762 2861 474 2054 474 
L 1235 474 
z
" transform="scale(0.015625)"/>
       <path id="NotoSansCJKsc-Regular-65" d="M 1997 -83 
C 2464 -83 2835 70 3136 269 
L 2931 659 
C 2669 486 2400 384 2061 384 
C 1402 384 947 858 909 1600 
L 3251 1600 
C 3264 1690 3277 1805 3277 1933 
C 3277 2925 2778 3565 1888 3565 
C 1094 3565 333 2867 333 1734 
C 333 589 1069 -83 1997 -83 
z
M 902 2016 
C 973 2707 1408 3098 1901 3098 
C 2445 3098 2765 2720 2765 2016 
L 902 2016 
z
" transform="scale(0.015625)"/>
       <path id="NotoSansCJKsc-Regular-73" d="M 1498 -83 
C 2317 -83 2758 384 2758 947 
C 2758 1606 2208 1811 1702 2003 
C 1312 2150 954 2278 954 2605 
C 954 2880 1158 3110 1600 3110 
C 1907 3110 2150 2976 2387 2803 
L 2669 3168 
C 2406 3386 2022 3565 1594 3565 
C 832 3565 397 3130 397 2579 
C 397 1984 922 1754 1408 1574 
C 1792 1434 2202 1267 2202 915 
C 2202 614 1978 371 1517 371 
C 1101 371 794 538 486 787 
L 205 397 
C 531 122 1005 -83 1498 -83 
z
" transform="scale(0.015625)"/>
       <path id="NotoSansCJKsc-Regular-74" d="M 1677 -83 
C 1894 -83 2125 -19 2323 45 
L 2208 486 
C 2093 435 1939 390 1811 390 
C 1408 390 1274 634 1274 1056 
L 1274 3002 
L 2221 3002 
L 2221 3475 
L 1274 3475 
L 1274 4454 
L 787 4454 
L 723 3475 
L 173 3443 
L 173 3002 
L 691 3002 
L 691 1075 
C 691 378 941 -83 1677 -83 
z
" transform="scale(0.015625)"/>
       <path id="NotoSansCJKsc-Regular-20" transform="scale(0.015625)"/>
       <path id="NotoSansCJKsc-Regular-63" d="M 1958 -83 
C 2374 -83 2771 83 3085 352 
L 2829 749 
C 2611 557 2330 403 2010 403 
C 1370 403 934 934 934 1734 
C 934 2534 1395 3072 2029 3072 
C 2298 3072 2522 2950 2720 2771 
L 3014 3155 
C 2771 3373 2458 3565 2003 3565 
C 1107 3565 333 2893 333 1734 
C 333 582 1037 -83 1958 -83 
z
" transform="scale(0.015625)"/>
       <path id="NotoSansCJKsc-Regular-6f" d="M 1939 -83 
C 2790 -83 3546 582 3546 1734 
C 3546 2893 2790 3565 1939 3565 
C 1088 3565 333 2893 333 1734 
C 333 582 1088 -83 1939 -83 
z
M 1939 403 
C 1338 403 934 934 934 1734 
C 934 2534 1338 3072 1939 3072 
C 2541 3072 2950 2534 2950 1734 
C 2950 934 2541 403 1939 403 
z
" transform="scale(0.015625)"/>
       <path id="NotoSansCJKsc-Regular-72" d="M 589 0 
L 1178 0 
L 1178 2234 
C 1408 2822 1760 3040 2048 3040 
C 2195 3040 2272 3021 2387 2982 
L 2496 3488 
C 2387 3546 2278 3565 2125 3565 
C 1741 3565 1382 3283 1139 2842 
L 1126 2842 
L 1069 3475 
L 589 3475 
L 589 0 
z
" transform="scale(0.015625)"/>
       <path id="NotoSansCJKsc-Regular-28" d="M 1530 -1254 
L 1888 -1094 
C 1338 -186 1075 902 1075 1990 
C 1075 3072 1338 4154 1888 5069 
L 1530 5235 
C 941 4275 589 3245 589 1990 
C 589 730 941 -301 1530 -1254 
z
" transform="scale(0.015625)"/>
       <path id="NotoSansCJKsc-Regular-25" d="M 1312 1818 
C 1958 1818 2381 2362 2381 3309 
C 2381 4243 1958 4774 1312 4774 
C 672 4774 250 4243 250 3309 
C 250 2362 672 1818 1312 1818 
z
M 1312 2176 
C 941 2176 691 2560 691 3309 
C 691 4058 941 4416 1312 4416 
C 1683 4416 1933 4058 1933 3309 
C 1933 2560 1683 2176 1312 2176 
z
M 1446 -83 
L 1843 -83 
L 4435 4774 
L 4038 4774 
L 1446 -83 
z
M 4582 -83 
C 5222 -83 5645 454 5645 1402 
C 5645 2342 5222 2874 4582 2874 
C 3942 2874 3520 2342 3520 1402 
C 3520 454 3942 -83 4582 -83 
z
M 4582 275 
C 4211 275 3955 653 3955 1402 
C 3955 2150 4211 2515 4582 2515 
C 4947 2515 5210 2150 5210 1402 
C 5210 653 4947 275 4582 275 
z
" transform="scale(0.015625)"/>
       <path id="NotoSansCJKsc-Regular-29" d="M 634 -1254 
C 1222 -301 1574 730 1574 1990 
C 1574 3245 1222 4275 634 5235 
L 269 5069 
C 819 4154 1094 3072 1094 1990 
C 1094 902 819 -186 269 -1094 
L 634 -1254 
z
" transform="scale(0.015625)"/>
      </defs>
      <use xlink:href="#NotoSansCJKsc-Regular-42"/>
      <use xlink:href="#NotoSansCJKsc-Regular-65" transform="translate(65.699997 0)"/>
      <use xlink:href="#NotoSansCJKsc-Regular-73" transform="translate(121.099991 0)"/>
      <use xlink:href="#NotoSansCJKsc-Regular-74" transform="translate(167.899979 0)"/>
      <use xlink:href="#NotoSansCJKsc-Regular-20" transform="translate(205.599976 0)"/>
      <use xlink:href="#NotoSansCJKsc-Regular-73" transform="translate(227.999969 0)"/>
      <use xlink:href="#NotoSansCJKsc-Regular-63" transform="translate(274.799957 0)"/>
      <use xlink:href="#NotoSansCJKsc-Regular-6f" transform="translate(325.799942 0)"/>
      <use xlink:href="#NotoSansCJKsc-Regular-72" transform="translate(386.399933 0)"/>
      <use xlink:href="#NotoSansCJKsc-Regular-65" transform="translate(425.199921 0)"/>
      <use xlink:href="#NotoSansCJKsc-Regular-20" transform="translate(480.599915 0)"/>
      <use xlink:href="#NotoSansCJKsc-Regular-28" transform="translate(502.999908 0)"/>
      <use xlink:href="#NotoSansCJKsc-Regular-25" transform="translate(536.799896 0)"/>
      <use xlink:href="#NotoSansCJKsc-Regular-29" transform="translate(628.899887 0)"/>
     </g>
    </g>
   </g>
   <g id="patch_3">
    <path d="M 46.496 274.556 
L 46.496 76.0695 
" style="fill: none; stroke: #94a3b8; stroke-width: 0.8; stroke-linejoin: miter; stroke-linecap: square"/>
   </g>
   <g id="patch_4">
    <path d="M 46.496 274.556 
L 389.196 274.556 
" style="fill: none; stroke: #94a3b8; stroke-width: 0.8; stroke-linejoin: miter; stroke-linecap: square"/>
   </g>
   <g id="patch_5">
    <path d="M 62.073273 274.556 
L 129.269351 274.556 
L 129.269351 242.79816 
L 62.073273 242.79816 
z
" clip-path="url(#p8791742771)" style="fill: #e11d48"/>
   </g>
   <g id="patch_6">
    <path d="M 184.247961 274.556 
L 251.444039 274.556 
L 251.444039 250.73762 
L 184.247961 250.73762 
z
" clip-path="url(#p8791742771)" style="fill: #e11d48"/>
   </g>
   <g id="patch_7">
    <path d="M 306.422649 274.556 
L 373.618727 274.556 
L 373.618727 230.88897 
L 306.422649 230.88897 
z
" clip-path="url(#p8791742771)" style="fill: #e11d48"/>
   </g>
   <g id="text_11">
    <!-- &lt;8% -->
    <g style="fill: #0f172a" transform="translate(85.706507 240.79866) scale(0.093 -0.093)">
     <defs>
      <path id="NotoSansCJKsc-Bold-3c" d="M 3526 806 
L 3526 1587 
L 2182 2048 
L 1197 2400 
L 1197 2426 
L 2182 2778 
L 3526 3232 
L 3526 4013 
L 250 2746 
L 250 2080 
L 3526 806 
z
" transform="scale(0.015625)"/>
      <path id="NotoSansCJKsc-Bold-38" d="M 1888 -90 
C 2842 -90 3482 461 3482 1178 
C 3482 1824 3123 2208 2682 2445 
L 2682 2477 
C 2989 2701 3290 3091 3290 3558 
C 3290 4314 2752 4819 1914 4819 
C 1088 4819 486 4333 486 3565 
C 486 3066 749 2707 1114 2445 
L 1114 2413 
C 672 2182 301 1786 301 1178 
C 301 435 973 -90 1888 -90 
z
M 2182 2707 
C 1690 2906 1318 3123 1318 3565 
C 1318 3949 1574 4160 1894 4160 
C 2291 4160 2522 3885 2522 3501 
C 2522 3219 2413 2944 2182 2707 
z
M 1907 576 
C 1466 576 1114 851 1114 1280 
C 1114 1638 1293 1952 1549 2163 
C 2163 1901 2605 1702 2605 1210 
C 2605 800 2310 576 1907 576 
z
" transform="scale(0.015625)"/>
      <path id="NotoSansCJKsc-Bold-25" d="M 1357 1824 
C 2035 1824 2515 2381 2515 3334 
C 2515 4282 2035 4826 1357 4826 
C 678 4826 205 4282 205 3334 
C 205 2381 678 1824 1357 1824 
z
M 1357 2355 
C 1082 2355 864 2637 864 3334 
C 864 4026 1082 4294 1357 4294 
C 1632 4294 1850 4026 1850 3334 
C 1850 2637 1632 2355 1357 2355 
z
M 1510 -90 
L 2074 -90 
L 4646 4826 
L 4090 4826 
L 1510 -90 
z
M 4806 -90 
C 5478 -90 5958 467 5958 1421 
C 5958 2368 5478 2918 4806 2918 
C 4128 2918 3648 2368 3648 1421 
C 3648 467 4128 -90 4806 -90 
z
M 4806 448 
C 4525 448 4314 730 4314 1421 
C 4314 2125 4525 2381 4806 2381 
C 5082 2381 5293 2125 5293 1421 
C 5293 730 5082 448 4806 448 
z
" transform="scale(0.015625)"/>
     </defs>
     <use xlink:href="#NotoSansCJKsc-Bold-3c"/>
     <use xlink:href="#NotoSansCJKsc-Bold-38" transform="translate(58.999985 0)"/>
     <use xlink:href="#NotoSansCJKsc-Bold-25" transform="translate(117.999969 0)"/>
    </g>
   </g>
   <g id="text_12">
    <!-- &lt;6% -->
    <g style="fill: #0f172a" transform="translate(207.881195 248.73812) scale(0.093 -0.093)">
     <defs>
      <path id="NotoSansCJKsc-Bold-36" d="M 2022 -90 
C 2829 -90 3507 525 3507 1498 
C 3507 2509 2938 2982 2144 2982 
C 1843 2982 1440 2803 1178 2483 
C 1222 3661 1664 4070 2214 4070 
C 2483 4070 2771 3910 2938 3725 
L 3437 4288 
C 3155 4582 2733 4826 2150 4826 
C 1197 4826 320 4070 320 2304 
C 320 640 1126 -90 2022 -90 
z
M 1197 1818 
C 1434 2176 1722 2317 1971 2317 
C 2381 2317 2650 2061 2650 1498 
C 2650 922 2362 621 2003 621 
C 1606 621 1286 954 1197 1818 
z
" transform="scale(0.015625)"/>
     </defs>
     <use xlink:href="#NotoSansCJKsc-Bold-3c"/>
     <use xlink:href="#NotoSansCJKsc-Bold-36" transform="translate(58.999985 0)"/>
     <use xlink:href="#NotoSansCJKsc-Bold-25" transform="translate(117.999969 0)"/>
    </g>
   </g>
   <g id="text_13">
    <!-- &lt;11% -->
    <g style="fill: #0f172a" transform="translate(327.312383 228.88947) scale(0.093 -0.093)">
     <defs>
      <path id="NotoSansCJKsc-Bold-31" d="M 525 0 
L 3373 0 
L 3373 768 
L 2483 768 
L 2483 4742 
L 1786 4742 
C 1485 4550 1165 4429 685 4346 
L 685 3757 
L 1549 3757 
L 1549 768 
L 525 768 
L 525 0 
z
" transform="scale(0.015625)"/>
     </defs>
     <use xlink:href="#NotoSansCJKsc-Bold-3c"/>
     <use xlink:href="#NotoSansCJKsc-Bold-31" transform="translate(58.999985 0)"/>
     <use xlink:href="#NotoSansCJKsc-Bold-31" transform="translate(117.999969 0)"/>
     <use xlink:href="#NotoSansCJKsc-Bold-25" transform="translate(176.999954 0)"/>
    </g>
   </g>
   <g id="text_14">
    <!-- Grounded event discovery is very hard -->
    <g style="fill: #475569" transform="translate(119.956313 70.0695) scale(0.11 -0.11)">
     <defs>
      <path id="NotoSansCJKsc-Regular-47" d="M 2490 -83 
C 3117 -83 3635 147 3936 461 
L 3936 2432 
L 2394 2432 
L 2394 1939 
L 3392 1939 
L 3392 710 
C 3206 538 2880 435 2547 435 
C 1542 435 979 1178 979 2362 
C 979 3533 1594 4256 2541 4256 
C 3008 4256 3315 4058 3552 3814 
L 3872 4198 
C 3603 4480 3174 4774 2522 4774 
C 1280 4774 371 3859 371 2342 
C 371 819 1254 -83 2490 -83 
z
" transform="scale(0.015625)"/>
      <path id="NotoSansCJKsc-Regular-75" d="M 1606 -83 
C 2080 -83 2426 166 2752 544 
L 2771 544 
L 2816 0 
L 3302 0 
L 3302 3475 
L 2720 3475 
L 2720 1011 
C 2387 602 2138 422 1779 422 
C 1318 422 1126 698 1126 1344 
L 1126 3475 
L 538 3475 
L 538 1274 
C 538 384 870 -83 1606 -83 
z
" transform="scale(0.015625)"/>
      <path id="NotoSansCJKsc-Regular-6e" d="M 589 0 
L 1178 0 
L 1178 2522 
C 1523 2874 1766 3053 2125 3053 
C 2586 3053 2784 2778 2784 2125 
L 2784 0 
L 3366 0 
L 3366 2202 
C 3366 3085 3034 3565 2304 3565 
C 1830 3565 1466 3302 1139 2970 
L 1126 2970 
L 1069 3475 
L 589 3475 
L 589 0 
z
" transform="scale(0.015625)"/>
      <path id="NotoSansCJKsc-Regular-64" d="M 1773 -83 
C 2189 -83 2560 141 2829 410 
L 2848 410 
L 2899 0 
L 3379 0 
L 3379 5094 
L 2790 5094 
L 2790 3757 
L 2822 3162 
C 2515 3411 2253 3565 1843 3565 
C 1050 3565 339 2861 339 1734 
C 339 576 902 -83 1773 -83 
z
M 1901 410 
C 1293 410 941 902 941 1741 
C 941 2534 1389 3072 1946 3072 
C 2234 3072 2502 2970 2790 2707 
L 2790 883 
C 2502 563 2221 410 1901 410 
z
" transform="scale(0.015625)"/>
      <path id="NotoSansCJKsc-Regular-76" d="M 1338 0 
L 2022 0 
L 3251 3475 
L 2675 3475 
L 2016 1498 
C 1914 1158 1798 806 1696 474 
L 1664 474 
C 1562 806 1453 1158 1344 1498 
L 691 3475 
L 83 3475 
L 1338 0 
z
" transform="scale(0.015625)"/>
      <path id="NotoSansCJKsc-Regular-69" d="M 589 0 
L 1178 0 
L 1178 3475 
L 589 3475 
L 589 0 
z
M 883 4192 
C 1114 4192 1274 4346 1274 4582 
C 1274 4806 1114 4960 883 4960 
C 653 4960 499 4806 499 4582 
C 499 4346 653 4192 883 4192 
z
" transform="scale(0.015625)"/>
      <path id="NotoSansCJKsc-Regular-79" d="M 646 -1498 
C 1338 -1498 1702 -973 1946 -294 
L 3251 3475 
L 2682 3475 
L 2054 1549 
C 1965 1235 1862 883 1773 563 
L 1741 563 
C 1619 890 1504 1242 1395 1549 
L 691 3475 
L 83 3475 
L 1478 -6 
L 1402 -269 
C 1254 -698 1011 -1018 621 -1018 
C 525 -1018 422 -986 352 -960 
L 237 -1427 
C 346 -1472 486 -1498 646 -1498 
z
" transform="scale(0.015625)"/>
      <path id="NotoSansCJKsc-Regular-68" d="M 589 0 
L 1178 0 
L 1178 2522 
C 1523 2874 1766 3053 2125 3053 
C 2586 3053 2784 2778 2784 2125 
L 2784 0 
L 3366 0 
L 3366 2202 
C 3366 3085 3034 3565 2304 3565 
C 1830 3565 1472 3302 1152 2982 
L 1178 3699 
L 1178 5094 
L 589 5094 
L 589 0 
z
" transform="scale(0.015625)"/>
      <path id="NotoSansCJKsc-Regular-61" d="M 1389 -83 
C 1818 -83 2208 141 2541 416 
L 2560 416 
L 2611 0 
L 3091 0 
L 3091 2138 
C 3091 3002 2739 3565 1888 3565 
C 1325 3565 838 3315 525 3110 
L 749 2707 
C 1024 2893 1389 3078 1792 3078 
C 2362 3078 2509 2650 2509 2202 
C 1030 2035 378 1658 378 902 
C 378 275 806 -83 1389 -83 
z
M 1555 390 
C 1210 390 941 544 941 941 
C 941 1389 1338 1677 2509 1811 
L 2509 845 
C 2170 544 1888 390 1555 390 
z
" transform="scale(0.015625)"/>
     </defs>
     <use xlink:href="#NotoSansCJKsc-Regular-47"/>
     <use xlink:href="#NotoSansCJKsc-Regular-72" transform="translate(68.899994 0)"/>
     <use xlink:href="#NotoSansCJKsc-Regular-6f" transform="translate(107.699982 0)"/>
     <use xlink:href="#NotoSansCJKsc-Regular-75" transform="translate(168.299973 0)"/>
     <use xlink:href="#NotoSansCJKsc-Regular-6e" transform="translate(228.999969 0)"/>
     <use xlink:href="#NotoSansCJKsc-Regular-64" transform="translate(289.999954 0)"/>
     <use xlink:href="#NotoSansCJKsc-Regular-65" transform="translate(351.999939 0)"/>
     <use xlink:href="#NotoSansCJKsc-Regular-64" transform="translate(407.399933 0)"/>
     <use xlink:href="#NotoSansCJKsc-Regular-20" transform="translate(469.399918 0)"/>
     <use xlink:href="#NotoSansCJKsc-Regular-65" transform="translate(491.799911 0)"/>
     <use xlink:href="#NotoSansCJKsc-Regular-76" transform="translate(547.199905 0)"/>
     <use xlink:href="#NotoSansCJKsc-Regular-65" transform="translate(599.299896 0)"/>
     <use xlink:href="#NotoSansCJKsc-Regular-6e" transform="translate(654.69989 0)"/>
     <use xlink:href="#NotoSansCJKsc-Regular-74" transform="translate(715.699875 0)"/>
     <use xlink:href="#NotoSansCJKsc-Regular-20" transform="translate(753.399872 0)"/>
     <use xlink:href="#NotoSansCJKsc-Regular-64" transform="translate(775.799866 0)"/>
     <use xlink:href="#NotoSansCJKsc-Regular-69" transform="translate(837.79985 0)"/>
     <use xlink:href="#NotoSansCJKsc-Regular-73" transform="translate(865.299835 0)"/>
     <use xlink:href="#NotoSansCJKsc-Regular-63" transform="translate(912.099823 0)"/>
     <use xlink:href="#NotoSansCJKsc-Regular-6f" transform="translate(963.099808 0)"/>
     <use xlink:href="#NotoSansCJKsc-Regular-76" transform="translate(1023.699799 0)"/>
     <use xlink:href="#NotoSansCJKsc-Regular-65" transform="translate(1075.799789 0)"/>
     <use xlink:href="#NotoSansCJKsc-Regular-72" transform="translate(1131.199783 0)"/>
     <use xlink:href="#NotoSansCJKsc-Regular-79" transform="translate(1169.999771 0)"/>
     <use xlink:href="#NotoSansCJKsc-Regular-20" transform="translate(1222.099762 0)"/>
     <use xlink:href="#NotoSansCJKsc-Regular-69" transform="translate(1244.499756 0)"/>
     <use xlink:href="#NotoSansCJKsc-Regular-73" transform="translate(1271.999741 0)"/>
     <use xlink:href="#NotoSansCJKsc-Regular-20" transform="translate(1318.799728 0)"/>
     <use xlink:href="#NotoSansCJKsc-Regular-76" transform="translate(1341.199722 0)"/>
     <use xlink:href="#NotoSansCJKsc-Regular-65" transform="translate(1393.299713 0)"/>
     <use xlink:href="#NotoSansCJKsc-Regular-72" transform="translate(1448.699707 0)"/>
     <use xlink:href="#NotoSansCJKsc-Regular-79" transform="translate(1487.499695 0)"/>
     <use xlink:href="#NotoSansCJKsc-Regular-20" transform="translate(1539.599686 0)"/>
     <use xlink:href="#NotoSansCJKsc-Regular-68" transform="translate(1561.99968 0)"/>
     <use xlink:href="#NotoSansCJKsc-Regular-61" transform="translate(1622.699677 0)"/>
     <use xlink:href="#NotoSansCJKsc-Regular-72" transform="translate(1678.999664 0)"/>
     <use xlink:href="#NotoSansCJKsc-Regular-64" transform="translate(1717.799652 0)"/>
    </g>
   </g>
  </g>
  <g id="axes_2">
   <g id="patch_8">
    <path d="M 436.556 274.556 
L 779.256 274.556 
L 779.256 76.0695 
L 436.556 76.0695 
z
" style="fill: #ffffff"/>
   </g>
   <g id="matplotlib.axis_3">
    <g id="xtick_4">
     <g id="line2d_16">
      <g>
       <use xlink:href="#m4ef840884e" x="507.407466" y="274.556" style="fill: #475569; stroke: #475569; stroke-width: 0.8"/>
      </g>
     </g>
     <g id="text_15">
      <!-- ERE -->
      <g style="fill: #475569" transform="translate(497.435279 290.311312) scale(0.11 -0.11)">
       <defs>
        <path id="NotoSansCJKsc-Regular-52" d="M 1235 2464 
L 1235 4211 
L 2022 4211 
C 2758 4211 3162 3994 3162 3379 
C 3162 2765 2758 2464 2022 2464 
L 1235 2464 
z
M 3219 0 
L 3885 0 
L 2694 2054 
C 3328 2208 3750 2643 3750 3379 
C 3750 4352 3066 4691 2112 4691 
L 646 4691 
L 646 0 
L 1235 0 
L 1235 1990 
L 2080 1990 
L 3219 0 
z
" transform="scale(0.015625)"/>
       </defs>
       <use xlink:href="#NotoSansCJKsc-Regular-45"/>
       <use xlink:href="#NotoSansCJKsc-Regular-52" transform="translate(58.899994 0)"/>
       <use xlink:href="#NotoSansCJKsc-Regular-45" transform="translate(122.399979 0)"/>
      </g>
      <!-- zero-shot -->
      <g style="fill: #475569" transform="translate(483.053638 303.337375) scale(0.11 -0.11)">
       <defs>
        <path id="NotoSansCJKsc-Regular-7a" d="M 224 0 
L 2854 0 
L 2854 474 
L 960 474 
L 2797 3162 
L 2797 3475 
L 422 3475 
L 422 3002 
L 2054 3002 
L 224 314 
L 224 0 
z
" transform="scale(0.015625)"/>
        <path id="NotoSansCJKsc-Regular-2d" d="M 294 1568 
L 1933 1568 
L 1933 2016 
L 294 2016 
L 294 1568 
z
" transform="scale(0.015625)"/>
       </defs>
       <use xlink:href="#NotoSansCJKsc-Regular-7a"/>
       <use xlink:href="#NotoSansCJKsc-Regular-65" transform="translate(47.499985 0)"/>
       <use xlink:href="#NotoSansCJKsc-Regular-72" transform="translate(102.899979 0)"/>
       <use xlink:href="#NotoSansCJKsc-Regular-6f" transform="translate(141.699966 0)"/>
       <use xlink:href="#NotoSansCJKsc-Regular-2d" transform="translate(202.299957 0)"/>
       <use xlink:href="#NotoSansCJKsc-Regular-73" transform="translate(236.999954 0)"/>
       <use xlink:href="#NotoSansCJKsc-Regular-68" transform="translate(283.799942 0)"/>
       <use xlink:href="#NotoSansCJKsc-Regular-6f" transform="translate(344.499939 0)"/>
       <use xlink:href="#NotoSansCJKsc-Regular-74" transform="translate(405.09993 0)"/>
      </g>
     </g>
    </g>
    <g id="xtick_5">
     <g id="line2d_17">
      <g>
       <use xlink:href="#m4ef840884e" x="708.404534" y="274.556" style="fill: #475569; stroke: #475569; stroke-width: 0.8"/>
      </g>
     </g>
     <g id="text_16">
      <!-- ERE -->
      <g style="fill: #475569" transform="translate(698.432346 290.311312) scale(0.11 -0.11)">
       <use xlink:href="#NotoSansCJKsc-Regular-45"/>
       <use xlink:href="#NotoSansCJKsc-Regular-52" transform="translate(58.899994 0)"/>
       <use xlink:href="#NotoSansCJKsc-Regular-45" transform="translate(122.399979 0)"/>
      </g>
      <!-- fine-tuned -->
      <g style="fill: #475569" transform="translate(681.568831 303.337375) scale(0.11 -0.11)">
       <defs>
        <path id="NotoSansCJKsc-Regular-66" d="M 211 3002 
L 685 3002 
L 685 0 
L 1267 0 
L 1267 3002 
L 2003 3002 
L 2003 3475 
L 1267 3475 
L 1267 4026 
C 1267 4474 1427 4710 1760 4710 
C 1882 4710 2022 4678 2150 4614 
L 2278 5069 
C 2118 5133 1914 5178 1696 5178 
C 1005 5178 685 4736 685 4032 
L 685 3475 
L 211 3443 
L 211 3002 
z
" transform="scale(0.015625)"/>
       </defs>
       <use xlink:href="#NotoSansCJKsc-Regular-66"/>
       <use xlink:href="#NotoSansCJKsc-Regular-69" transform="translate(32.499985 0)"/>
       <use xlink:href="#NotoSansCJKsc-Regular-6e" transform="translate(59.999969 0)"/>
       <use xlink:href="#NotoSansCJKsc-Regular-65" transform="translate(120.999954 0)"/>
       <use xlink:href="#NotoSansCJKsc-Regular-2d" transform="translate(176.399948 0)"/>
       <use xlink:href="#NotoSansCJKsc-Regular-74" transform="translate(211.099945 0)"/>
       <use xlink:href="#NotoSansCJKsc-Regular-75" transform="translate(248.799942 0)"/>
       <use xlink:href="#NotoSansCJKsc-Regular-6e" transform="translate(309.499939 0)"/>
       <use xlink:href="#NotoSansCJKsc-Regular-65" transform="translate(370.499924 0)"/>
       <use xlink:href="#NotoSansCJKsc-Regular-64" transform="translate(425.899918 0)"/>
      </g>
     </g>
    </g>
   </g>
   <g id="matplotlib.axis_4">
    <g id="ytick_7">
     <g id="line2d_18">
      <path d="M 436.556 274.556 
L 779.256 274.556 
" clip-path="url(#p14ca4e7eaa)" style="fill: none; stroke: #e5e7eb; stroke-width: 0.8; stroke-linecap: square"/>
     </g>
     <g id="line2d_19">
      <g>
       <use xlink:href="#m3178665f85" x="436.556" y="274.556" style="fill: #475569; stroke: #475569; stroke-width: 0.8"/>
      </g>
     </g>
     <g id="text_17">
      <!-- 0 -->
      <g style="fill: #475569" transform="translate(423.451 278.933656) scale(0.11 -0.11)">
       <use xlink:href="#NotoSansCJKsc-Regular-30"/>
      </g>
     </g>
    </g>
    <g id="ytick_8">
     <g id="line2d_20">
      <path d="M 436.556 241.474917 
L 779.256 241.474917 
" clip-path="url(#p14ca4e7eaa)" style="fill: none; stroke: #e5e7eb; stroke-width: 0.8; stroke-linecap: square"/>
     </g>
     <g id="line2d_21">
      <g>
       <use xlink:href="#m3178665f85" x="436.556" y="241.474917" style="fill: #475569; stroke: #475569; stroke-width: 0.8"/>
      </g>
     </g>
     <g id="text_18">
      <!-- 10 -->
      <g style="fill: #475569" transform="translate(417.346 245.852573) scale(0.11 -0.11)">
       <use xlink:href="#NotoSansCJKsc-Regular-31"/>
       <use xlink:href="#NotoSansCJKsc-Regular-30" transform="translate(55.499985 0)"/>
      </g>
     </g>
    </g>
    <g id="ytick_9">
     <g id="line2d_22">
      <path d="M 436.556 208.393833 
L 779.256 208.393833 
" clip-path="url(#p14ca4e7eaa)" style="fill: none; stroke: #e5e7eb; stroke-width: 0.8; stroke-linecap: square"/>
     </g>
     <g id="line2d_23">
      <g>
       <use xlink:href="#m3178665f85" x="436.556" y="208.393833" style="fill: #475569; stroke: #475569; stroke-width: 0.8"/>
      </g>
     </g>
     <g id="text_19">
      <!-- 20 -->
      <g style="fill: #475569" transform="translate(417.346 212.77149) scale(0.11 -0.11)">
       <use xlink:href="#NotoSansCJKsc-Regular-32"/>
       <use xlink:href="#NotoSansCJKsc-Regular-30" transform="translate(55.499985 0)"/>
      </g>
     </g>
    </g>
    <g id="ytick_10">
     <g id="line2d_24">
      <path d="M 436.556 175.31275 
L 779.256 175.31275 
" clip-path="url(#p14ca4e7eaa)" style="fill: none; stroke: #e5e7eb; stroke-width: 0.8; stroke-linecap: square"/>
     </g>
     <g id="line2d_25">
      <g>
       <use xlink:href="#m3178665f85" x="436.556" y="175.31275" style="fill: #475569; stroke: #475569; stroke-width: 0.8"/>
      </g>
     </g>
     <g id="text_20">
      <!-- 30 -->
      <g style="fill: #475569" transform="translate(417.346 179.690406) scale(0.11 -0.11)">
       <use xlink:href="#NotoSansCJKsc-Regular-33"/>
       <use xlink:href="#NotoSansCJKsc-Regular-30" transform="translate(55.499985 0)"/>
      </g>
     </g>
    </g>
    <g id="ytick_11">
     <g id="line2d_26">
      <path d="M 436.556 142.231667 
L 779.256 142.231667 
" clip-path="url(#p14ca4e7eaa)" style="fill: none; stroke: #e5e7eb; stroke-width: 0.8; stroke-linecap: square"/>
     </g>
     <g id="line2d_27">
      <g>
       <use xlink:href="#m3178665f85" x="436.556" y="142.231667" style="fill: #475569; stroke: #475569; stroke-width: 0.8"/>
      </g>
     </g>
     <g id="text_21">
      <!-- 40 -->
      <g style="fill: #475569" transform="translate(417.346 146.609323) scale(0.11 -0.11)">
       <use xlink:href="#NotoSansCJKsc-Regular-34"/>
       <use xlink:href="#NotoSansCJKsc-Regular-30" transform="translate(55.499985 0)"/>
      </g>
     </g>
    </g>
    <g id="ytick_12">
     <g id="line2d_28">
      <path d="M 436.556 109.150583 
L 779.256 109.150583 
" clip-path="url(#p14ca4e7eaa)" style="fill: none; stroke: #e5e7eb; stroke-width: 0.8; stroke-linecap: square"/>
     </g>
     <g id="line2d_29">
      <g>
       <use xlink:href="#m3178665f85" x="436.556" y="109.150583" style="fill: #475569; stroke: #475569; stroke-width: 0.8"/>
      </g>
     </g>
     <g id="text_22">
      <!-- 50 -->
      <g style="fill: #475569" transform="translate(417.346 113.52824) scale(0.11 -0.11)">
       <use xlink:href="#NotoSansCJKsc-Regular-35"/>
       <use xlink:href="#NotoSansCJKsc-Regular-30" transform="translate(55.499985 0)"/>
      </g>
     </g>
    </g>
    <g id="ytick_13">
     <g id="line2d_30">
      <path d="M 436.556 76.0695 
L 779.256 76.0695 
" clip-path="url(#p14ca4e7eaa)" style="fill: none; stroke: #e5e7eb; stroke-width: 0.8; stroke-linecap: square"/>
     </g>
     <g id="line2d_31">
      <g>
       <use xlink:href="#m3178665f85" x="436.556" y="76.0695" style="fill: #475569; stroke: #475569; stroke-width: 0.8"/>
      </g>
     </g>
     <g id="text_23">
      <!-- 60 -->
      <g style="fill: #475569" transform="translate(417.346 80.447156) scale(0.11 -0.11)">
       <defs>
        <path id="NotoSansCJKsc-Regular-36" d="M 1926 -83 
C 2656 -83 3277 531 3277 1440 
C 3277 2426 2765 2912 1971 2912 
C 1606 2912 1197 2701 909 2349 
C 934 3802 1466 4294 2118 4294 
C 2400 4294 2682 4154 2861 3936 
L 3194 4294 
C 2931 4576 2579 4774 2093 4774 
C 1184 4774 358 4077 358 2240 
C 358 691 1030 -83 1926 -83 
z
M 922 1882 
C 1229 2317 1587 2477 1875 2477 
C 2445 2477 2720 2074 2720 1440 
C 2720 800 2374 378 1926 378 
C 1338 378 986 909 922 1882 
z
" transform="scale(0.015625)"/>
       </defs>
       <use xlink:href="#NotoSansCJKsc-Regular-36"/>
       <use xlink:href="#NotoSansCJKsc-Regular-30" transform="translate(55.499985 0)"/>
      </g>
     </g>
    </g>
    <g id="text_24">
     <!-- Event Relation Extraction F1 (%) -->
     <g style="fill: #0f172a" transform="translate(410.826313 257.528297) rotate(-90) scale(0.11 -0.11)">
      <defs>
       <path id="NotoSansCJKsc-Regular-6c" d="M 1203 -83 
C 1363 -83 1459 -58 1542 -32 
L 1459 416 
C 1395 403 1370 403 1338 403 
C 1248 403 1178 474 1178 653 
L 1178 5094 
L 589 5094 
L 589 691 
C 589 198 768 -83 1203 -83 
z
" transform="scale(0.015625)"/>
       <path id="NotoSansCJKsc-Regular-78" d="M 96 0 
L 710 0 
L 1178 813 
C 1299 1024 1408 1235 1530 1434 
L 1562 1434 
C 1696 1235 1824 1024 1939 813 
L 2451 0 
L 3091 0 
L 1946 1754 
L 3002 3475 
L 2394 3475 
L 1965 2714 
C 1856 2515 1760 2330 1658 2131 
L 1626 2131 
C 1510 2330 1389 2515 1286 2714 
L 819 3475 
L 186 3475 
L 1242 1811 
L 96 0 
z
" transform="scale(0.015625)"/>
       <path id="NotoSansCJKsc-Regular-46" d="M 646 0 
L 1235 0 
L 1235 2106 
L 3027 2106 
L 3027 2605 
L 1235 2605 
L 1235 4192 
L 3347 4192 
L 3347 4691 
L 646 4691 
L 646 0 
z
" transform="scale(0.015625)"/>
      </defs>
      <use xlink:href="#NotoSansCJKsc-Regular-45"/>
      <use xlink:href="#NotoSansCJKsc-Regular-76" transform="translate(58.899994 0)"/>
      <use xlink:href="#NotoSansCJKsc-Regular-65" transform="translate(110.999985 0)"/>
      <use xlink:href="#NotoSansCJKsc-Regular-6e" transform="translate(166.399979 0)"/>
      <use xlink:href="#NotoSansCJKsc-Regular-74" transform="translate(227.399963 0)"/>
      <use xlink:href="#NotoSansCJKsc-Regular-20" transform="translate(265.09996 0)"/>
      <use xlink:href="#NotoSansCJKsc-Regular-52" transform="translate(287.499954 0)"/>
      <use xlink:href="#NotoSansCJKsc-Regular-65" transform="translate(350.999939 0)"/>
      <use xlink:href="#NotoSansCJKsc-Regular-6c" transform="translate(406.399933 0)"/>
      <use xlink:href="#NotoSansCJKsc-Regular-61" transform="translate(434.799927 0)"/>
      <use xlink:href="#NotoSansCJKsc-Regular-74" transform="translate(491.099915 0)"/>
      <use xlink:href="#NotoSansCJKsc-Regular-69" transform="translate(528.799911 0)"/>
      <use xlink:href="#NotoSansCJKsc-Regular-6f" transform="translate(556.299896 0)"/>
      <use xlink:href="#NotoSansCJKsc-Regular-6e" transform="translate(616.899887 0)"/>
      <use xlink:href="#NotoSansCJKsc-Regular-20" transform="translate(677.899872 0)"/>
      <use xlink:href="#NotoSansCJKsc-Regular-45" transform="translate(700.299866 0)"/>
      <use xlink:href="#NotoSansCJKsc-Regular-78" transform="translate(759.19986 0)"/>
      <use xlink:href="#NotoSansCJKsc-Regular-74" transform="translate(808.999847 0)"/>
      <use xlink:href="#NotoSansCJKsc-Regular-72" transform="translate(846.699844 0)"/>
      <use xlink:href="#NotoSansCJKsc-Regular-61" transform="translate(885.499832 0)"/>
      <use xlink:href="#NotoSansCJKsc-Regular-63" transform="translate(941.79982 0)"/>
      <use xlink:href="#NotoSansCJKsc-Regular-74" transform="translate(992.799805 0)"/>
      <use xlink:href="#NotoSansCJKsc-Regular-69" transform="translate(1030.499802 0)"/>
      <use xlink:href="#NotoSansCJKsc-Regular-6f" transform="translate(1057.999786 0)"/>
      <use xlink:href="#NotoSansCJKsc-Regular-6e" transform="translate(1118.599777 0)"/>
      <use xlink:href="#NotoSansCJKsc-Regular-20" transform="translate(1179.599762 0)"/>
      <use xlink:href="#NotoSansCJKsc-Regular-46" transform="translate(1201.999756 0)"/>
      <use xlink:href="#NotoSansCJKsc-Regular-31" transform="translate(1257.199753 0)"/>
      <use xlink:href="#NotoSansCJKsc-Regular-20" transform="translate(1312.699738 0)"/>
      <use xlink:href="#NotoSansCJKsc-Regular-28" transform="translate(1335.099731 0)"/>
      <use xlink:href="#NotoSansCJKsc-Regular-25" transform="translate(1368.899719 0)"/>
      <use xlink:href="#NotoSansCJKsc-Regular-29" transform="translate(1460.99971 0)"/>
     </g>
    </g>
   </g>
   <g id="patch_9">
    <path d="M 436.556 274.556 
L 436.556 76.0695 
" style="fill: none; stroke: #94a3b8; stroke-width: 0.8; stroke-linejoin: miter; stroke-linecap: square"/>
   </g>
   <g id="patch_10">
    <path d="M 436.556 274.556 
L 779.256 274.556 
" style="fill: none; stroke: #94a3b8; stroke-width: 0.8; stroke-linejoin: miter; stroke-linecap: square"/>
   </g>
   <g id="patch_11">
    <path d="M 452.133273 274.556 
L 562.68166 274.556 
L 562.68166 157.28356 
L 452.133273 157.28356 
z
" clip-path="url(#p14ca4e7eaa)" style="fill: #94a3b8"/>
   </g>
   <g id="patch_12">
    <path d="M 653.13034 274.556 
L 763.678727 274.556 
L 763.678727 127.609828 
L 653.13034 127.609828 
z
" clip-path="url(#p14ca4e7eaa)" style="fill: #10b981"/>
   </g>
   <g id="text_25">
    <!-- 35.45 -->
    <g style="fill: #0f172a" transform="translate(494.922216 155.28406) scale(0.093 -0.093)">
     <defs>
      <path id="NotoSansCJKsc-Bold-33" d="M 1747 -90 
C 2656 -90 3418 410 3418 1280 
C 3418 1907 3008 2304 2477 2451 
L 2477 2483 
C 2976 2682 3264 3053 3264 3565 
C 3264 4378 2643 4826 1728 4826 
C 1171 4826 717 4602 307 4250 
L 794 3667 
C 1069 3930 1344 4083 1683 4083 
C 2086 4083 2317 3866 2317 3494 
C 2317 3066 2035 2771 1171 2771 
L 1171 2093 
C 2195 2093 2470 1805 2470 1338 
C 2470 915 2144 678 1664 678 
C 1229 678 890 890 608 1165 
L 166 570 
C 499 192 1005 -90 1747 -90 
z
" transform="scale(0.015625)"/>
      <path id="NotoSansCJKsc-Bold-35" d="M 1773 -90 
C 2637 -90 3424 518 3424 1574 
C 3424 2605 2765 3072 1965 3072 
C 1747 3072 1581 3034 1395 2944 
L 1485 3949 
L 3206 3949 
L 3206 4742 
L 672 4742 
L 544 2438 
L 973 2163 
C 1254 2342 1408 2406 1683 2406 
C 2157 2406 2483 2099 2483 1549 
C 2483 992 2138 678 1645 678 
C 1210 678 870 896 602 1158 
L 166 557 
C 525 205 1018 -90 1773 -90 
z
" transform="scale(0.015625)"/>
      <path id="NotoSansCJKsc-Bold-2e" d="M 1043 -90 
C 1376 -90 1626 179 1626 525 
C 1626 877 1376 1139 1043 1139 
C 704 1139 454 877 454 525 
C 454 179 704 -90 1043 -90 
z
" transform="scale(0.015625)"/>
      <path id="NotoSansCJKsc-Bold-34" d="M 2157 0 
L 3034 0 
L 3034 1229 
L 3597 1229 
L 3597 1946 
L 3034 1946 
L 3034 4742 
L 1901 4742 
L 134 1869 
L 134 1229 
L 2157 1229 
L 2157 0 
z
M 2157 1946 
L 1050 1946 
L 1786 3123 
C 1920 3379 2048 3642 2163 3898 
L 2195 3898 
C 2176 3616 2157 3187 2157 2912 
L 2157 1946 
z
" transform="scale(0.015625)"/>
     </defs>
     <use xlink:href="#NotoSansCJKsc-Bold-33"/>
     <use xlink:href="#NotoSansCJKsc-Bold-35" transform="translate(58.999985 0)"/>
     <use xlink:href="#NotoSansCJKsc-Bold-2e" transform="translate(117.999969 0)"/>
     <use xlink:href="#NotoSansCJKsc-Bold-34" transform="translate(150.499954 0)"/>
     <use xlink:href="#NotoSansCJKsc-Bold-35" transform="translate(209.499939 0)"/>
    </g>
   </g>
   <g id="text_26">
    <!-- 44.42 -->
    <g style="fill: #0f172a" transform="translate(695.919284 125.610328) scale(0.093 -0.093)">
     <defs>
      <path id="NotoSansCJKsc-Bold-32" d="M 275 0 
L 3450 0 
L 3450 794 
L 2426 794 
C 2202 794 1888 768 1645 736 
C 2509 1587 3226 2509 3226 3366 
C 3226 4250 2630 4826 1734 4826 
C 1088 4826 666 4576 224 4102 
L 749 3597 
C 986 3859 1267 4083 1613 4083 
C 2067 4083 2323 3789 2323 3322 
C 2323 2586 1568 1696 275 544 
L 275 0 
z
" transform="scale(0.015625)"/>
     </defs>
     <use xlink:href="#NotoSansCJKsc-Bold-34"/>
     <use xlink:href="#NotoSansCJKsc-Bold-34" transform="translate(58.999985 0)"/>
     <use xlink:href="#NotoSansCJKsc-Bold-2e" transform="translate(117.999969 0)"/>
     <use xlink:href="#NotoSansCJKsc-Bold-34" transform="translate(150.499954 0)"/>
     <use xlink:href="#NotoSansCJKsc-Bold-32" transform="translate(209.499939 0)"/>
    </g>
   </g>
   <g id="text_27">
    <!-- +8.97 -->
    <g style="fill: #10b981" transform="translate(694.308284 102.534367) scale(0.105 -0.105)">
     <defs>
      <path id="NotoSansCJKsc-Bold-2b" d="M 1536 704 
L 2234 704 
L 2234 2061 
L 3526 2061 
L 3526 2733 
L 2234 2733 
L 2234 4096 
L 1536 4096 
L 1536 2733 
L 250 2733 
L 250 2061 
L 1536 2061 
L 1536 704 
z
" transform="scale(0.015625)"/>
      <path id="NotoSansCJKsc-Bold-39" d="M 1632 -90 
C 2573 -90 3450 685 3450 2477 
C 3450 4122 2650 4826 1747 4826 
C 934 4826 256 4218 256 3245 
C 256 2240 819 1754 1613 1754 
C 1933 1754 2336 1946 2586 2266 
C 2541 1082 2106 678 1581 678 
C 1299 678 1005 826 832 1018 
L 333 448 
C 614 160 1043 -90 1632 -90 
z
M 2573 2938 
C 2342 2566 2048 2426 1792 2426 
C 1382 2426 1120 2688 1120 3245 
C 1120 3827 1408 4115 1760 4115 
C 2163 4115 2490 3795 2573 2938 
z
" transform="scale(0.015625)"/>
      <path id="NotoSansCJKsc-Bold-37" d="M 1190 0 
L 2138 0 
C 2221 1850 2368 2822 3469 4166 
L 3469 4742 
L 320 4742 
L 320 3949 
L 2451 3949 
C 1549 2694 1274 1645 1190 0 
z
" transform="scale(0.015625)"/>
     </defs>
     <use xlink:href="#NotoSansCJKsc-Bold-2b"/>
     <use xlink:href="#NotoSansCJKsc-Bold-38" transform="translate(58.999985 0)"/>
     <use xlink:href="#NotoSansCJKsc-Bold-2e" transform="translate(117.999969 0)"/>
     <use xlink:href="#NotoSansCJKsc-Bold-39" transform="translate(150.499954 0)"/>
     <use xlink:href="#NotoSansCJKsc-Bold-37" transform="translate(209.499939 0)"/>
    </g>
   </g>
   <g id="text_28">
    <!-- Relations more tractable: 35.45 -&gt; 44.42 F1 -->
    <g style="fill: #475569" transform="translate(499.515609 70.0695) scale(0.11 -0.11)">
     <defs>
      <path id="NotoSansCJKsc-Regular-6d" d="M 589 0 
L 1178 0 
L 1178 2522 
C 1491 2880 1786 3053 2048 3053 
C 2490 3053 2694 2778 2694 2125 
L 2694 0 
L 3277 0 
L 3277 2522 
C 3603 2880 3885 3053 4154 3053 
C 4595 3053 4800 2778 4800 2125 
L 4800 0 
L 5382 0 
L 5382 2202 
C 5382 3085 5043 3565 4333 3565 
C 3904 3565 3546 3290 3181 2899 
C 3040 3309 2758 3565 2221 3565 
C 1805 3565 1446 3302 1139 2970 
L 1126 2970 
L 1069 3475 
L 589 3475 
L 589 0 
z
" transform="scale(0.015625)"/>
      <path id="NotoSansCJKsc-Regular-62" d="M 2118 -83 
C 2912 -83 3629 602 3629 1792 
C 3629 2867 3142 3565 2246 3565 
C 1856 3565 1472 3347 1152 3078 
L 1178 3699 
L 1178 5094 
L 589 5094 
L 589 0 
L 1056 0 
L 1107 358 
L 1133 358 
C 1434 83 1798 -83 2118 -83 
z
M 2022 410 
C 1792 410 1478 499 1178 768 
L 1178 2598 
C 1504 2906 1811 3072 2099 3072 
C 2765 3072 3021 2560 3021 1786 
C 3021 928 2598 410 2022 410 
z
" transform="scale(0.015625)"/>
      <path id="NotoSansCJKsc-Regular-3a" d="M 890 2496 
C 1120 2496 1312 2675 1312 2944 
C 1312 3206 1120 3392 890 3392 
C 653 3392 467 3206 467 2944 
C 467 2675 653 2496 890 2496 
z
M 890 -83 
C 1120 -83 1312 96 1312 358 
C 1312 627 1120 806 890 806 
C 653 806 467 627 467 358 
C 467 96 653 -83 890 -83 
z
" transform="scale(0.015625)"/>
      <path id="NotoSansCJKsc-Regular-2e" d="M 890 -83 
C 1120 -83 1312 96 1312 358 
C 1312 627 1120 806 890 806 
C 653 806 467 627 467 358 
C 467 96 653 -83 890 -83 
z
" transform="scale(0.015625)"/>
      <path id="NotoSansCJKsc-Regular-3e" d="M 243 934 
L 3315 2144 
L 3315 2605 
L 243 3814 
L 243 3309 
L 1754 2746 
L 2714 2387 
L 2714 2362 
L 1754 2003 
L 243 1446 
L 243 934 
z
" transform="scale(0.015625)"/>
     </defs>
     <use xlink:href="#NotoSansCJKsc-Regular-52"/>
     <use xlink:href="#NotoSansCJKsc-Regular-65" transform="translate(63.499985 0)"/>
     <use xlink:href="#NotoSansCJKsc-Regular-6c" transform="translate(118.899979 0)"/>
     <use xlink:href="#NotoSansCJKsc-Regular-61" transform="translate(147.299973 0)"/>
     <use xlink:href="#NotoSansCJKsc-Regular-74" transform="translate(203.59996 0)"/>
     <use xlink:href="#NotoSansCJKsc-Regular-69" transform="translate(241.299957 0)"/>
     <use xlink:href="#NotoSansCJKsc-Regular-6f" transform="translate(268.799942 0)"/>
     <use xlink:href="#NotoSansCJKsc-Regular-6e" transform="translate(329.399933 0)"/>
     <use xlink:href="#NotoSansCJKsc-Regular-73" transform="translate(390.399918 0)"/>
     <use xlink:href="#NotoSansCJKsc-Regular-20" transform="translate(437.199905 0)"/>
     <use xlink:href="#NotoSansCJKsc-Regular-6d" transform="translate(459.599899 0)"/>
     <use xlink:href="#NotoSansCJKsc-Regular-6f" transform="translate(552.19989 0)"/>
     <use xlink:href="#NotoSansCJKsc-Regular-72" transform="translate(612.799881 0)"/>
     <use xlink:href="#NotoSansCJKsc-Regular-65" transform="translate(651.599869 0)"/>
     <use xlink:href="#NotoSansCJKsc-Regular-20" transform="translate(706.999863 0)"/>
     <use xlink:href="#NotoSansCJKsc-Regular-74" transform="translate(729.399857 0)"/>
     <use xlink:href="#NotoSansCJKsc-Regular-72" transform="translate(767.099854 0)"/>
     <use xlink:href="#NotoSansCJKsc-Regular-61" transform="translate(805.899841 0)"/>
     <use xlink:href="#NotoSansCJKsc-Regular-63" transform="translate(862.199829 0)"/>
     <use xlink:href="#NotoSansCJKsc-Regular-74" transform="translate(913.199814 0)"/>
     <use xlink:href="#NotoSansCJKsc-Regular-61" transform="translate(950.899811 0)"/>
     <use xlink:href="#NotoSansCJKsc-Regular-62" transform="translate(1007.199799 0)"/>
     <use xlink:href="#NotoSansCJKsc-Regular-6c" transform="translate(1068.999786 0)"/>
     <use xlink:href="#NotoSansCJKsc-Regular-65" transform="translate(1097.39978 0)"/>
     <use xlink:href="#NotoSansCJKsc-Regular-3a" transform="translate(1152.799774 0)"/>
     <use xlink:href="#NotoSansCJKsc-Regular-20" transform="translate(1180.599762 0)"/>
     <use xlink:href="#NotoSansCJKsc-Regular-33" transform="translate(1202.999756 0)"/>
     <use xlink:href="#NotoSansCJKsc-Regular-35" transform="translate(1258.499741 0)"/>
     <use xlink:href="#NotoSansCJKsc-Regular-2e" transform="translate(1313.999725 0)"/>
     <use xlink:href="#NotoSansCJKsc-Regular-34" transform="translate(1341.799713 0)"/>
     <use xlink:href="#NotoSansCJKsc-Regular-35" transform="translate(1397.299698 0)"/>
     <use xlink:href="#NotoSansCJKsc-Regular-20" transform="translate(1452.799683 0)"/>
     <use xlink:href="#NotoSansCJKsc-Regular-2d" transform="translate(1475.199677 0)"/>
     <use xlink:href="#NotoSansCJKsc-Regular-3e" transform="translate(1509.899673 0)"/>
     <use xlink:href="#NotoSansCJKsc-Regular-20" transform="translate(1565.399658 0)"/>
     <use xlink:href="#NotoSansCJKsc-Regular-34" transform="translate(1587.799652 0)"/>
     <use xlink:href="#NotoSansCJKsc-Regular-34" transform="translate(1643.299637 0)"/>
     <use xlink:href="#NotoSansCJKsc-Regular-2e" transform="translate(1698.799622 0)"/>
     <use xlink:href="#NotoSansCJKsc-Regular-34" transform="translate(1726.599609 0)"/>
     <use xlink:href="#NotoSansCJKsc-Regular-32" transform="translate(1782.099594 0)"/>
     <use xlink:href="#NotoSansCJKsc-Regular-20" transform="translate(1837.599579 0)"/>
     <use xlink:href="#NotoSansCJKsc-Regular-46" transform="translate(1859.999573 0)"/>
     <use xlink:href="#NotoSansCJKsc-Regular-31" transform="translate(1915.19957 0)"/>
    </g>
   </g>
  </g>
  <g id="text_29">
   <!-- NEST — benchmark difficulty (grounded discovery vs relation extraction) -->
   <g style="fill: #0f172a" transform="translate(8.64 20.301562) scale(0.14 -0.14)">
    <defs>
     <path id="NotoSansCJKsc-Bold-4e" d="M 582 0 
L 1485 0 
L 1485 1901 
C 1485 2445 1402 3040 1363 3552 
L 1395 3552 
L 1875 2534 
L 3238 0 
L 4205 0 
L 4205 4742 
L 3309 4742 
L 3309 2848 
C 3309 2310 3386 1683 3437 1190 
L 3405 1190 
L 2925 2214 
L 1549 4742 
L 582 4742 
L 582 0 
z
" transform="scale(0.015625)"/>
     <path id="NotoSansCJKsc-Bold-45" d="M 582 0 
L 3558 0 
L 3558 794 
L 1530 794 
L 1530 2061 
L 3187 2061 
L 3187 2854 
L 1530 2854 
L 1530 3949 
L 3488 3949 
L 3488 4742 
L 582 4742 
L 582 0 
z
" transform="scale(0.015625)"/>
     <path id="NotoSansCJKsc-Bold-53" d="M 1997 -90 
C 3091 -90 3738 570 3738 1344 
C 3738 2029 3360 2400 2784 2637 
L 2163 2886 
C 1760 3053 1427 3174 1427 3514 
C 1427 3827 1683 4013 2099 4013 
C 2496 4013 2810 3866 3110 3622 
L 3590 4211 
C 3206 4602 2656 4826 2099 4826 
C 1146 4826 461 4224 461 3456 
C 461 2765 947 2381 1427 2189 
L 2054 1914 
C 2477 1734 2771 1626 2771 1274 
C 2771 941 2509 730 2016 730 
C 1600 730 1146 941 813 1254 
L 269 602 
C 730 154 1363 -90 1997 -90 
z
" transform="scale(0.015625)"/>
     <path id="NotoSansCJKsc-Bold-54" d="M 1523 0 
L 2470 0 
L 2470 3949 
L 3808 3949 
L 3808 4742 
L 192 4742 
L 192 3949 
L 1523 3949 
L 1523 0 
z
" transform="scale(0.015625)"/>
     <path id="NotoSansCJKsc-Bold-20" transform="scale(0.015625)"/>
     <path id="NotoSansCJKsc-Bold-2014" d="M 314 1536 
L 5498 1536 
L 5498 2138 
L 314 2138 
L 314 1536 
z
" transform="scale(0.015625)"/>
     <path id="NotoSansCJKsc-Bold-62" d="M 2304 -90 
C 3091 -90 3827 621 3827 1856 
C 3827 2950 3296 3674 2413 3674 
C 2061 3674 1702 3501 1414 3245 
L 1446 3821 
L 1446 5107 
L 506 5107 
L 506 0 
L 1242 0 
L 1318 378 
L 1350 378 
C 1638 77 1984 -90 2304 -90 
z
M 2099 685 
C 1901 685 1664 755 1446 954 
L 1446 2534 
C 1690 2778 1907 2899 2150 2899 
C 2643 2899 2861 2522 2861 1837 
C 2861 1056 2522 685 2099 685 
z
" transform="scale(0.015625)"/>
     <path id="NotoSansCJKsc-Bold-65" d="M 2067 -90 
C 2509 -90 2963 64 3315 307 
L 2995 883 
C 2733 723 2483 640 2195 640 
C 1658 640 1274 941 1197 1523 
L 3405 1523 
C 3430 1613 3450 1786 3450 1958 
C 3450 2957 2938 3674 1952 3674 
C 1101 3674 282 2950 282 1792 
C 282 608 1062 -90 2067 -90 
z
M 1178 2157 
C 1254 2675 1587 2944 1965 2944 
C 2432 2944 2643 2637 2643 2157 
L 1178 2157 
z
" transform="scale(0.015625)"/>
     <path id="NotoSansCJKsc-Bold-6e" d="M 506 0 
L 1446 0 
L 1446 2464 
C 1709 2726 1901 2867 2189 2867 
C 2541 2867 2694 2675 2694 2118 
L 2694 0 
L 3635 0 
L 3635 2234 
C 3635 3136 3302 3674 2528 3674 
C 2042 3674 1677 3418 1363 3110 
L 1344 3110 
L 1274 3584 
L 506 3584 
L 506 0 
z
" transform="scale(0.015625)"/>
     <path id="NotoSansCJKsc-Bold-63" d="M 2029 -90 
C 2426 -90 2861 45 3200 346 
L 2829 966 
C 2630 800 2394 678 2131 678 
C 1613 678 1242 1114 1242 1792 
C 1242 2464 1613 2906 2163 2906 
C 2362 2906 2528 2822 2707 2675 
L 3155 3270 
C 2893 3507 2554 3674 2112 3674 
C 1139 3674 282 2982 282 1792 
C 282 602 1043 -90 2029 -90 
z
" transform="scale(0.015625)"/>
     <path id="NotoSansCJKsc-Bold-68" d="M 506 0 
L 1446 0 
L 1446 2464 
C 1709 2726 1901 2867 2189 2867 
C 2541 2867 2694 2675 2694 2118 
L 2694 0 
L 3635 0 
L 3635 2234 
C 3635 3136 3302 3674 2528 3674 
C 2042 3674 1683 3418 1402 3149 
L 1446 3821 
L 1446 5107 
L 506 5107 
L 506 0 
z
" transform="scale(0.015625)"/>
     <path id="NotoSansCJKsc-Bold-6d" d="M 506 0 
L 1446 0 
L 1446 2464 
C 1696 2739 1926 2867 2131 2867 
C 2477 2867 2637 2675 2637 2118 
L 2637 0 
L 3571 0 
L 3571 2464 
C 3827 2739 4058 2867 4262 2867 
C 4602 2867 4762 2675 4762 2118 
L 4762 0 
L 5696 0 
L 5696 2234 
C 5696 3136 5350 3674 4589 3674 
C 4128 3674 3776 3392 3443 3046 
C 3277 3443 2976 3674 2464 3674 
C 1997 3674 1664 3418 1363 3104 
L 1344 3104 
L 1274 3584 
L 506 3584 
L 506 0 
z
" transform="scale(0.015625)"/>
     <path id="NotoSansCJKsc-Bold-61" d="M 1382 -90 
C 1798 -90 2157 109 2464 384 
L 2496 384 
L 2560 0 
L 3328 0 
L 3328 2093 
C 3328 3130 2861 3674 1952 3674 
C 1389 3674 877 3456 461 3200 
L 794 2573 
C 1126 2771 1446 2918 1779 2918 
C 2221 2918 2374 2650 2387 2298 
C 947 2144 326 1741 326 979 
C 326 365 742 -90 1382 -90 
z
M 1696 646 
C 1421 646 1222 768 1222 1050 
C 1222 1376 1510 1613 2387 1715 
L 2387 998 
C 2163 774 1965 646 1696 646 
z
" transform="scale(0.015625)"/>
     <path id="NotoSansCJKsc-Bold-72" d="M 506 0 
L 1446 0 
L 1446 2138 
C 1651 2656 1984 2842 2259 2842 
C 2413 2842 2515 2822 2643 2784 
L 2797 3597 
C 2694 3642 2579 3674 2381 3674 
C 2010 3674 1626 3418 1363 2950 
L 1344 2950 
L 1274 3584 
L 506 3584 
L 506 0 
z
" transform="scale(0.015625)"/>
     <path id="NotoSansCJKsc-Bold-6b" d="M 506 0 
L 1434 0 
L 1434 909 
L 1933 1491 
L 2803 0 
L 3827 0 
L 2483 2106 
L 3712 3584 
L 2682 3584 
L 1459 2048 
L 1434 2048 
L 1434 5107 
L 506 5107 
L 506 0 
z
" transform="scale(0.015625)"/>
     <path id="NotoSansCJKsc-Bold-64" d="M 1766 -90 
C 2138 -90 2496 109 2758 371 
L 2784 371 
L 2854 0 
L 3622 0 
L 3622 5107 
L 2682 5107 
L 2682 3846 
L 2714 3283 
C 2458 3520 2208 3674 1805 3674 
C 1037 3674 301 2957 301 1792 
C 301 614 870 -90 1766 -90 
z
M 2010 685 
C 1536 685 1267 1056 1267 1805 
C 1267 2515 1606 2899 2010 2899 
C 2240 2899 2464 2829 2682 2630 
L 2682 1056 
C 2477 787 2259 685 2010 685 
z
" transform="scale(0.015625)"/>
     <path id="NotoSansCJKsc-Bold-69" d="M 506 0 
L 1446 0 
L 1446 3584 
L 506 3584 
L 506 0 
z
M 979 4166 
C 1299 4166 1523 4365 1523 4678 
C 1523 4986 1299 5190 979 5190 
C 646 5190 435 4986 435 4678 
C 435 4365 646 4166 979 4166 
z
" transform="scale(0.015625)"/>
     <path id="NotoSansCJKsc-Bold-66" d="M 179 2842 
L 666 2842 
L 666 0 
L 1600 0 
L 1600 2842 
L 2285 2842 
L 2285 3584 
L 1600 3584 
L 1600 3891 
C 1600 4288 1760 4454 2035 4454 
C 2163 4454 2298 4429 2419 4371 
L 2592 5075 
C 2432 5139 2189 5197 1907 5197 
C 1011 5197 666 4614 666 3872 
L 666 3578 
L 179 3539 
L 179 2842 
z
" transform="scale(0.015625)"/>
     <path id="NotoSansCJKsc-Bold-75" d="M 1574 -90 
C 2067 -90 2406 154 2714 518 
L 2739 518 
L 2810 0 
L 3578 0 
L 3578 3584 
L 2637 3584 
L 2637 1165 
C 2394 845 2202 717 1914 717 
C 1562 717 1402 909 1402 1466 
L 1402 3584 
L 467 3584 
L 467 1350 
C 467 448 800 -90 1574 -90 
z
" transform="scale(0.015625)"/>
     <path id="NotoSansCJKsc-Bold-6c" d="M 1395 -90 
C 1613 -90 1766 -51 1875 -6 
L 1760 691 
C 1696 678 1670 678 1632 678 
C 1542 678 1446 749 1446 966 
L 1446 5107 
L 506 5107 
L 506 1005 
C 506 339 736 -90 1395 -90 
z
" transform="scale(0.015625)"/>
     <path id="NotoSansCJKsc-Bold-74" d="M 1818 -90 
C 2131 -90 2381 -13 2579 45 
L 2419 730 
C 2323 691 2182 653 2067 653 
C 1747 653 1574 845 1574 1254 
L 1574 2842 
L 2464 2842 
L 2464 3584 
L 1574 3584 
L 1574 4550 
L 800 4550 
L 691 3584 
L 134 3539 
L 134 2842 
L 640 2842 
L 640 1248 
C 640 454 966 -90 1818 -90 
z
" transform="scale(0.015625)"/>
     <path id="NotoSansCJKsc-Bold-79" d="M 819 -1434 
C 1619 -1434 2003 -954 2317 -109 
L 3590 3584 
L 2688 3584 
L 2195 1920 
C 2106 1587 2016 1242 1939 909 
L 1907 909 
C 1805 1254 1715 1600 1606 1920 
L 1037 3584 
L 90 3584 
L 1485 70 
L 1421 -147 
C 1318 -461 1114 -691 749 -691 
C 666 -691 563 -666 499 -646 
L 326 -1370 
C 467 -1408 608 -1434 819 -1434 
z
" transform="scale(0.015625)"/>
     <path id="NotoSansCJKsc-Bold-28" d="M 1504 -1293 
L 2086 -1043 
C 1549 -109 1306 966 1306 2016 
C 1306 3066 1549 4147 2086 5082 
L 1504 5331 
C 896 4339 544 3296 544 2016 
C 544 736 896 -307 1504 -1293 
z
" transform="scale(0.015625)"/>
     <path id="NotoSansCJKsc-Bold-67" d="M 1766 -1555 
C 2963 -1555 3718 -1005 3718 -282 
C 3718 346 3245 614 2381 614 
L 1766 614 
C 1350 614 1203 717 1203 902 
C 1203 1056 1267 1133 1357 1216 
C 1517 1158 1683 1133 1818 1133 
C 2592 1133 3206 1536 3206 2349 
C 3206 2573 3136 2771 3046 2893 
L 3654 2893 
L 3654 3584 
L 2368 3584 
C 2214 3635 2029 3674 1818 3674 
C 1062 3674 378 3219 378 2381 
C 378 1958 608 1619 858 1440 
L 858 1414 
C 640 1261 461 1011 461 749 
C 461 448 595 262 787 141 
L 787 109 
C 448 -77 275 -333 275 -634 
C 275 -1267 922 -1555 1766 -1555 
z
M 1818 1715 
C 1510 1715 1261 1952 1261 2381 
C 1261 2797 1504 3027 1818 3027 
C 2138 3027 2387 2797 2387 2381 
C 2387 1952 2138 1715 1818 1715 
z
M 1907 -954 
C 1389 -954 1056 -787 1056 -493 
C 1056 -339 1126 -198 1286 -70 
C 1421 -102 1568 -115 1779 -115 
L 2221 -115 
C 2605 -115 2816 -186 2816 -442 
C 2816 -717 2451 -954 1907 -954 
z
" transform="scale(0.015625)"/>
     <path id="NotoSansCJKsc-Bold-6f" d="M 2003 -90 
C 2899 -90 3725 602 3725 1792 
C 3725 2982 2899 3674 2003 3674 
C 1101 3674 282 2982 282 1792 
C 282 602 1101 -90 2003 -90 
z
M 2003 678 
C 1510 678 1242 1114 1242 1792 
C 1242 2464 1510 2906 2003 2906 
C 2490 2906 2765 2464 2765 1792 
C 2765 1114 2490 678 2003 678 
z
" transform="scale(0.015625)"/>
     <path id="NotoSansCJKsc-Bold-73" d="M 1530 -90 
C 2458 -90 2957 410 2957 1043 
C 2957 1702 2432 1946 1958 2125 
C 1574 2266 1248 2362 1248 2624 
C 1248 2829 1402 2970 1728 2970 
C 1990 2970 2240 2842 2496 2662 
L 2918 3232 
C 2624 3462 2221 3674 1702 3674 
C 883 3674 365 3219 365 2579 
C 365 1978 870 1702 1325 1530 
C 1702 1382 2074 1261 2074 992 
C 2074 768 1914 614 1555 614 
C 1216 614 915 762 595 1005 
L 166 410 
C 525 115 1050 -90 1530 -90 
z
" transform="scale(0.015625)"/>
     <path id="NotoSansCJKsc-Bold-76" d="M 1312 0 
L 2400 0 
L 3597 3584 
L 2694 3584 
L 2170 1798 
C 2074 1446 1978 1075 1882 710 
L 1850 710 
C 1747 1075 1658 1446 1555 1798 
L 1037 3584 
L 90 3584 
L 1312 0 
z
" transform="scale(0.015625)"/>
     <path id="NotoSansCJKsc-Bold-78" d="M 102 0 
L 1082 0 
L 1408 659 
C 1510 870 1606 1082 1709 1280 
L 1741 1280 
C 1856 1082 1978 870 2086 659 
L 2483 0 
L 3494 0 
L 2374 1760 
L 3424 3584 
L 2451 3584 
L 2150 2950 
C 2067 2746 1971 2541 1888 2342 
L 1862 2342 
C 1754 2541 1645 2746 1542 2950 
L 1184 3584 
L 173 3584 
L 1222 1862 
L 102 0 
z
" transform="scale(0.015625)"/>
     <path id="NotoSansCJKsc-Bold-29" d="M 915 -1293 
C 1523 -307 1875 736 1875 2016 
C 1875 3296 1523 4339 915 5331 
L 333 5082 
C 870 4147 1114 3066 1114 2016 
C 1114 966 870 -109 333 -1043 
L 915 -1293 
z
" transform="scale(0.015625)"/>
    </defs>
    <use xlink:href="#NotoSansCJKsc-Bold-4e"/>
    <use xlink:href="#NotoSansCJKsc-Bold-45" transform="translate(74.899994 0)"/>
    <use xlink:href="#NotoSansCJKsc-Bold-53" transform="translate(136.399979 0)"/>
    <use xlink:href="#NotoSansCJKsc-Bold-54" transform="translate(198.799973 0)"/>
    <use xlink:href="#NotoSansCJKsc-Bold-20" transform="translate(261.299957 0)"/>
    <use xlink:href="#NotoSansCJKsc-Bold-2014" transform="translate(283.999954 0)"/>
    <use xlink:href="#NotoSansCJKsc-Bold-20" transform="translate(374.799942 0)"/>
    <use xlink:href="#NotoSansCJKsc-Bold-62" transform="translate(397.499939 0)"/>
    <use xlink:href="#NotoSansCJKsc-Bold-65" transform="translate(461.899933 0)"/>
    <use xlink:href="#NotoSansCJKsc-Bold-6e" transform="translate(519.999924 0)"/>
    <use xlink:href="#NotoSansCJKsc-Bold-63" transform="translate(584.099915 0)"/>
    <use xlink:href="#NotoSansCJKsc-Bold-68" transform="translate(636.799911 0)"/>
    <use xlink:href="#NotoSansCJKsc-Bold-6d" transform="translate(700.799896 0)"/>
    <use xlink:href="#NotoSansCJKsc-Bold-61" transform="translate(797.19989 0)"/>
    <use xlink:href="#NotoSansCJKsc-Bold-72" transform="translate(856.299881 0)"/>
    <use xlink:href="#NotoSansCJKsc-Bold-6b" transform="translate(899.899872 0)"/>
    <use xlink:href="#NotoSansCJKsc-Bold-20" transform="translate(960.299866 0)"/>
    <use xlink:href="#NotoSansCJKsc-Bold-64" transform="translate(982.999863 0)"/>
    <use xlink:href="#NotoSansCJKsc-Bold-69" transform="translate(1047.399857 0)"/>
    <use xlink:href="#NotoSansCJKsc-Bold-66" transform="translate(1077.79985 0)"/>
    <use xlink:href="#NotoSansCJKsc-Bold-66" transform="translate(1114.999847 0)"/>
    <use xlink:href="#NotoSansCJKsc-Bold-69" transform="translate(1152.199844 0)"/>
    <use xlink:href="#NotoSansCJKsc-Bold-63" transform="translate(1182.599838 0)"/>
    <use xlink:href="#NotoSansCJKsc-Bold-75" transform="translate(1235.299835 0)"/>
    <use xlink:href="#NotoSansCJKsc-Bold-6c" transform="translate(1298.999832 0)"/>
    <use xlink:href="#NotoSansCJKsc-Bold-74" transform="translate(1330.499817 0)"/>
    <use xlink:href="#NotoSansCJKsc-Bold-79" transform="translate(1372.599808 0)"/>
    <use xlink:href="#NotoSansCJKsc-Bold-20" transform="translate(1429.999802 0)"/>
    <use xlink:href="#NotoSansCJKsc-Bold-28" transform="translate(1452.699799 0)"/>
    <use xlink:href="#NotoSansCJKsc-Bold-67" transform="translate(1490.499786 0)"/>
    <use xlink:href="#NotoSansCJKsc-Bold-72" transform="translate(1550.199783 0)"/>
    <use xlink:href="#NotoSansCJKsc-Bold-6f" transform="translate(1593.799774 0)"/>
    <use xlink:href="#NotoSansCJKsc-Bold-75" transform="translate(1656.399765 0)"/>
    <use xlink:href="#NotoSansCJKsc-Bold-6e" transform="translate(1720.099762 0)"/>
    <use xlink:href="#NotoSansCJKsc-Bold-64" transform="translate(1784.199753 0)"/>
    <use xlink:href="#NotoSansCJKsc-Bold-65" transform="translate(1848.599747 0)"/>
    <use xlink:href="#NotoSansCJKsc-Bold-64" transform="translate(1906.699738 0)"/>
    <use xlink:href="#NotoSansCJKsc-Bold-20" transform="translate(1971.099731 0)"/>
    <use xlink:href="#NotoSansCJKsc-Bold-64" transform="translate(1993.799728 0)"/>
    <use xlink:href="#NotoSansCJKsc-Bold-69" transform="translate(2058.199722 0)"/>
    <use xlink:href="#NotoSansCJKsc-Bold-73" transform="translate(2088.599716 0)"/>
    <use xlink:href="#NotoSansCJKsc-Bold-63" transform="translate(2138.099701 0)"/>
    <use xlink:href="#NotoSansCJKsc-Bold-6f" transform="translate(2190.799698 0)"/>
    <use xlink:href="#NotoSansCJKsc-Bold-76" transform="translate(2253.399689 0)"/>
    <use xlink:href="#NotoSansCJKsc-Bold-65" transform="translate(2310.99968 0)"/>
    <use xlink:href="#NotoSansCJKsc-Bold-72" transform="translate(2369.09967 0)"/>
    <use xlink:href="#NotoSansCJKsc-Bold-79" transform="translate(2412.699661 0)"/>
    <use xlink:href="#NotoSansCJKsc-Bold-20" transform="translate(2470.099655 0)"/>
    <use xlink:href="#NotoSansCJKsc-Bold-76" transform="translate(2492.799652 0)"/>
    <use xlink:href="#NotoSansCJKsc-Bold-73" transform="translate(2550.399643 0)"/>
    <use xlink:href="#NotoSansCJKsc-Bold-20" transform="translate(2599.899628 0)"/>
    <use xlink:href="#NotoSansCJKsc-Bold-72" transform="translate(2622.599625 0)"/>
    <use xlink:href="#NotoSansCJKsc-Bold-65" transform="translate(2666.199615 0)"/>
    <use xlink:href="#NotoSansCJKsc-Bold-6c" transform="translate(2724.299606 0)"/>
    <use xlink:href="#NotoSansCJKsc-Bold-61" transform="translate(2755.799591 0)"/>
    <use xlink:href="#NotoSansCJKsc-Bold-74" transform="translate(2814.899582 0)"/>
    <use xlink:href="#NotoSansCJKsc-Bold-69" transform="translate(2856.999573 0)"/>
    <use xlink:href="#NotoSansCJKsc-Bold-6f" transform="translate(2887.399567 0)"/>
    <use xlink:href="#NotoSansCJKsc-Bold-6e" transform="translate(2949.999557 0)"/>
    <use xlink:href="#NotoSansCJKsc-Bold-20" transform="translate(3014.099548 0)"/>
    <use xlink:href="#NotoSansCJKsc-Bold-65" transform="translate(3036.799545 0)"/>
    <use xlink:href="#NotoSansCJKsc-Bold-78" transform="translate(3094.899536 0)"/>
    <use xlink:href="#NotoSansCJKsc-Bold-74" transform="translate(3151.099533 0)"/>
    <use xlink:href="#NotoSansCJKsc-Bold-72" transform="translate(3193.199524 0)"/>
    <use xlink:href="#NotoSansCJKsc-Bold-61" transform="translate(3236.799515 0)"/>
    <use xlink:href="#NotoSansCJKsc-Bold-63" transform="translate(3295.899506 0)"/>
    <use xlink:href="#NotoSansCJKsc-Bold-74" transform="translate(3348.599503 0)"/>
    <use xlink:href="#NotoSansCJKsc-Bold-69" transform="translate(3390.699493 0)"/>
    <use xlink:href="#NotoSansCJKsc-Bold-6f" transform="translate(3421.099487 0)"/>
    <use xlink:href="#NotoSansCJKsc-Bold-6e" transform="translate(3483.699478 0)"/>
    <use xlink:href="#NotoSansCJKsc-Bold-29" transform="translate(3547.799469 0)"/>
   </g>
  </g>
 </g>
 <defs>
  <clipPath id="p8791742771">
   <rect x="46.496" y="76.0695" width="342.7" height="198.4865"/>
  </clipPath>
  <clipPath id="p14ca4e7eaa">
   <rect x="436.556" y="76.0695" width="342.7" height="198.4865"/>
  </clipPath>
 </defs>
</svg>
