<?xml version="1.0" encoding="utf-8" standalone="no"?>
<!DOCTYPE svg PUBLIC "-//W3C//DTD SVG 1.1//EN"
  "http://www.w3.org/Graphics/SVG/1.1/DTD/svg11.dtd">
<svg xmlns:xlink="http://www.w3.org/1999/xlink" width="631.08pt" height="272.304pt" viewBox="0 0 631.08 272.304" xmlns="http://www.w3.org/2000/svg" version="1.1">
 <metadata>
  <rdf:RDF xmlns:dc="http://purl.org/dc/elements/1.1/" xmlns:cc="http://creativecommons.org/ns#" xmlns:rdf="http://www.w3.org/1999/02/22-rdf-syntax-ns#">
   <cc:Work>
    <dc:type rdf:resource="http://purl.org/dc/dcmitype/StillImage"/>
    <dc:date>2026-06-25T19:42:37.637794</dc:date>
    <dc:format>image/svg+xml</dc:format>
    <dc:creator>
     <cc:Agent>
      <dc:title>Matplotlib v3.10.5, https://matplotlib.org/</dc:title>
     </cc:Agent>
    </dc:creator>
   </cc:Work>
  </rdf:RDF>
 </metadata>
 <defs>
  <style type="text/css">*{stroke-linejoin: round; stroke-linecap: butt}</style>
 </defs>
 <g id="figure_1">
  <g id="patch_1">
   <path d="M 0 272.304 
L 631.08 272.304 
L 631.08 0 
L 0 0 
z
" style="fill: #ffffff"/>
  </g>
  <g id="axes_1">
   <g id="patch_2">
    <path d="M 128.492093 123.4008 
Q 133.548351 123.4008 136.677681 123.4008 
" clip-path="url(#pd55303eb90)" style="fill: none; stroke: #94a3b8; stroke-width: 1.9; stroke-linecap: round"/>
    <path d="M 130.677681 120.0008 
L 136.677681 123.4008 
L 130.677681 126.8008 
" clip-path="url(#pd55303eb90)" style="fill: none; stroke: #94a3b8; stroke-width: 1.9; stroke-linecap: round"/>
   </g>
   <g id="patch_3">
    <path d="M 253.093493 123.4008 
Q 258.149751 123.4008 261.279081 123.4008 
" clip-path="url(#pd55303eb90)" style="fill: none; stroke: #94a3b8; stroke-width: 1.9; stroke-linecap: round"/>
    <path d="M 255.279081 120.0008 
L 261.279081 123.4008 
L 255.279081 126.8008 
" clip-path="url(#pd55303eb90)" style="fill: none; stroke: #94a3b8; stroke-width: 1.9; stroke-linecap: round"/>
   </g>
   <g id="patch_4">
    <path d="M 377.694893 123.4008 
Q 382.751151 123.4008 385.880481 123.4008 
" clip-path="url(#pd55303eb90)" style="fill: none; stroke: #94a3b8; stroke-width: 1.9; stroke-linecap: round"/>
    <path d="M 379.880481 120.0008 
L 385.880481 123.4008 
L 379.880481 126.8008 
" clip-path="url(#pd55303eb90)" style="fill: none; stroke: #94a3b8; stroke-width: 1.9; stroke-linecap: round"/>
   </g>
   <g id="patch_5">
    <path d="M 502.296293 123.4008 
Q 507.352551 123.4008 510.481881 123.4008 
" clip-path="url(#pd55303eb90)" style="fill: none; stroke: #94a3b8; stroke-width: 1.9; stroke-linecap: round"/>
    <path d="M 504.481881 120.0008 
L 510.481881 123.4008 
L 504.481881 126.8008 
" clip-path="url(#pd55303eb90)" style="fill: none; stroke: #94a3b8; stroke-width: 1.9; stroke-linecap: round"/>
   </g>
   <g id="patch_6">
    <path d="M 20.916 164.714688 
L 121.5792 164.714688 
Q 133.8552 164.714688 133.8552 159.614208 
L 133.8552 87.187392 
Q 133.8552 82.086912 121.5792 82.086912 
L 20.916 82.086912 
Q 8.64 82.086912 8.64 87.187392 
L 8.64 159.614208 
Q 8.64 164.714688 20.916 164.714688 
z
" clip-path="url(#pd55303eb90)" style="fill: #ecfeff; stroke: #a5f3fc; stroke-width: 1.4; stroke-linejoin: miter"/>
   </g>
   <g id="patch_7">
    <path d="M 145.5174 164.714688 
L 246.1806 164.714688 
Q 258.4566 164.714688 258.4566 159.614208 
L 258.4566 87.187392 
Q 258.4566 82.086912 246.1806 82.086912 
L 145.5174 82.086912 
Q 133.2414 82.086912 133.2414 87.187392 
L 133.2414 159.614208 
Q 133.2414 164.714688 145.5174 164.714688 
z
" clip-path="url(#pd55303eb90)" style="fill: #eff6ff; stroke: #bfdbfe; stroke-width: 1.4; stroke-linejoin: miter"/>
   </g>
   <g id="patch_8">
    <path d="M 270.1188 164.714688 
L 370.782 164.714688 
Q 383.058 164.714688 383.058 159.614208 
L 383.058 87.187392 
Q 383.058 82.086912 370.782 82.086912 
L 270.1188 82.086912 
Q 257.8428 82.086912 257.8428 87.187392 
L 257.8428 159.614208 
Q 257.8428 164.714688 270.1188 164.714688 
z
" clip-path="url(#pd55303eb90)" style="fill: #f5f3ff; stroke: #ddd6fe; stroke-width: 1.4; stroke-linejoin: miter"/>
   </g>
   <g id="patch_9">
    <path d="M 394.7202 164.714688 
L 495.3834 164.714688 
Q 507.6594 164.714688 507.6594 159.614208 
L 507.6594 87.187392 
Q 507.6594 82.086912 495.3834 82.086912 
L 394.7202 82.086912 
Q 382.4442 82.086912 382.4442 87.187392 
L 382.4442 159.614208 
Q 382.4442 164.714688 394.7202 164.714688 
z
" clip-path="url(#pd55303eb90)" style="fill: #fffbeb; stroke: #fde68a; stroke-width: 1.4; stroke-linejoin: miter"/>
   </g>
   <g id="patch_10">
    <path d="M 519.3216 164.714688 
L 619.9848 164.714688 
Q 632.2608 164.714688 632.2608 159.614208 
L 632.2608 87.187392 
Q 632.2608 82.086912 619.9848 82.086912 
L 519.3216 82.086912 
Q 507.0456 82.086912 507.0456 87.187392 
L 507.0456 159.614208 
Q 507.0456 164.714688 519.3216 164.714688 
z
" clip-path="url(#pd55303eb90)" style="fill: #ecfdf5; stroke: #bbf7d0; stroke-width: 1.4; stroke-linejoin: miter"/>
   </g>
   <g id="text_1">
    <!-- SAERec — Interpretable Intent Priors via Sparse Autoencoders -->
    <g style="fill: #0f172a" transform="translate(16.0056 45.436811) scale(0.155 -0.155)">
     <defs>
      <path id="NotoSansCJKsc-Bold-53" d="M 1997 -90 
C 3091 -90 3738 570 3738 1344 
C 3738 2029 3360 2400 2784 2637 
L 2163 2886 
C 1760 3053 1427 3174 1427 3514 
C 1427 3827 1683 4013 2099 4013 
C 2496 4013 2810 3866 3110 3622 
L 3590 4211 
C 3206 4602 2656 4826 2099 4826 
C 1146 4826 461 4224 461 3456 
C 461 2765 947 2381 1427 2189 
L 2054 1914 
C 2477 1734 2771 1626 2771 1274 
C 2771 941 2509 730 2016 730 
C 1600 730 1146 941 813 1254 
L 269 602 
C 730 154 1363 -90 1997 -90 
z
" transform="scale(0.015625)"/>
      <path id="NotoSansCJKsc-Bold-41" d="M -26 0 
L 934 0 
L 1267 1216 
L 2797 1216 
L 3130 0 
L 4128 0 
L 2611 4742 
L 1491 4742 
L -26 0 
z
M 1472 1952 
L 1613 2470 
C 1754 2963 1888 3501 2016 4019 
L 2042 4019 
C 2182 3514 2310 2963 2458 2470 
L 2598 1952 
L 1472 1952 
z
" transform="scale(0.015625)"/>
      <path id="NotoSansCJKsc-Bold-45" d="M 582 0 
L 3558 0 
L 3558 794 
L 1530 794 
L 1530 2061 
L 3187 2061 
L 3187 2854 
L 1530 2854 
L 1530 3949 
L 3488 3949 
L 3488 4742 
L 582 4742 
L 582 0 
z
" transform="scale(0.015625)"/>
      <path id="NotoSansCJKsc-Bold-52" d="M 1530 2541 
L 1530 3987 
L 2144 3987 
C 2752 3987 3085 3814 3085 3302 
C 3085 2797 2752 2541 2144 2541 
L 1530 2541 
z
M 3162 0 
L 4218 0 
L 3110 1939 
C 3654 2150 4013 2592 4013 3302 
C 4013 4390 3226 4742 2227 4742 
L 582 4742 
L 582 0 
L 1530 0 
L 1530 1792 
L 2189 1792 
L 3162 0 
z
" transform="scale(0.015625)"/>
      <path id="NotoSansCJKsc-Bold-65" d="M 2067 -90 
C 2509 -90 2963 64 3315 307 
L 2995 883 
C 2733 723 2483 640 2195 640 
C 1658 640 1274 941 1197 1523 
L 3405 1523 
C 3430 1613 3450 1786 3450 1958 
C 3450 2957 2938 3674 1952 3674 
C 1101 3674 282 2950 282 1792 
C 282 608 1062 -90 2067 -90 
z
M 1178 2157 
C 1254 2675 1587 2944 1965 2944 
C 2432 2944 2643 2637 2643 2157 
L 1178 2157 
z
" transform="scale(0.015625)"/>
      <path id="NotoSansCJKsc-Bold-63" d="M 2029 -90 
C 2426 -90 2861 45 3200 346 
L 2829 966 
C 2630 800 2394 678 2131 678 
C 1613 678 1242 1114 1242 1792 
C 1242 2464 1613 2906 2163 2906 
C 2362 2906 2528 2822 2707 2675 
L 3155 3270 
C 2893 3507 2554 3674 2112 3674 
C 1139 3674 282 2982 282 1792 
C 282 602 1043 -90 2029 -90 
z
" transform="scale(0.015625)"/>
      <path id="NotoSansCJKsc-Bold-20" transform="scale(0.015625)"/>
      <path id="NotoSansCJKsc-Bold-2014" d="M 314 1536 
L 5498 1536 
L 5498 2138 
L 314 2138 
L 314 1536 
z
" transform="scale(0.015625)"/>
      <path id="NotoSansCJKsc-Bold-49" d="M 582 0 
L 1530 0 
L 1530 4742 
L 582 4742 
L 582 0 
z
" transform="scale(0.015625)"/>
      <path id="NotoSansCJKsc-Bold-6e" d="M 506 0 
L 1446 0 
L 1446 2464 
C 1709 2726 1901 2867 2189 2867 
C 2541 2867 2694 2675 2694 2118 
L 2694 0 
L 3635 0 
L 3635 2234 
C 3635 3136 3302 3674 2528 3674 
C 2042 3674 1677 3418 1363 3110 
L 1344 3110 
L 1274 3584 
L 506 3584 
L 506 0 
z
" transform="scale(0.015625)"/>
      <path id="NotoSansCJKsc-Bold-74" d="M 1818 -90 
C 2131 -90 2381 -13 2579 45 
L 2419 730 
C 2323 691 2182 653 2067 653 
C 1747 653 1574 845 1574 1254 
L 1574 2842 
L 2464 2842 
L 2464 3584 
L 1574 3584 
L 1574 4550 
L 800 4550 
L 691 3584 
L 134 3539 
L 134 2842 
L 640 2842 
L 640 1248 
C 640 454 966 -90 1818 -90 
z
" transform="scale(0.015625)"/>
      <path id="NotoSansCJKsc-Bold-72" d="M 506 0 
L 1446 0 
L 1446 2138 
C 1651 2656 1984 2842 2259 2842 
C 2413 2842 2515 2822 2643 2784 
L 2797 3597 
C 2694 3642 2579 3674 2381 3674 
C 2010 3674 1626 3418 1363 2950 
L 1344 2950 
L 1274 3584 
L 506 3584 
L 506 0 
z
" transform="scale(0.015625)"/>
      <path id="NotoSansCJKsc-Bold-70" d="M 506 -1376 
L 1446 -1376 
L 1446 -282 
L 1414 301 
C 1683 51 1990 -90 2304 -90 
C 3091 -90 3827 621 3827 1850 
C 3827 2950 3296 3674 2419 3674 
C 2029 3674 1664 3469 1363 3213 
L 1344 3213 
L 1274 3584 
L 506 3584 
L 506 -1376 
z
M 2099 685 
C 1901 685 1677 755 1446 954 
L 1446 2534 
C 1690 2778 1907 2899 2150 2899 
C 2643 2899 2861 2522 2861 1837 
C 2861 1056 2522 685 2099 685 
z
" transform="scale(0.015625)"/>
      <path id="NotoSansCJKsc-Bold-61" d="M 1382 -90 
C 1798 -90 2157 109 2464 384 
L 2496 384 
L 2560 0 
L 3328 0 
L 3328 2093 
C 3328 3130 2861 3674 1952 3674 
C 1389 3674 877 3456 461 3200 
L 794 2573 
C 1126 2771 1446 2918 1779 2918 
C 2221 2918 2374 2650 2387 2298 
C 947 2144 326 1741 326 979 
C 326 365 742 -90 1382 -90 
z
M 1696 646 
C 1421 646 1222 768 1222 1050 
C 1222 1376 1510 1613 2387 1715 
L 2387 998 
C 2163 774 1965 646 1696 646 
z
" transform="scale(0.015625)"/>
      <path id="NotoSansCJKsc-Bold-62" d="M 2304 -90 
C 3091 -90 3827 621 3827 1856 
C 3827 2950 3296 3674 2413 3674 
C 2061 3674 1702 3501 1414 3245 
L 1446 3821 
L 1446 5107 
L 506 5107 
L 506 0 
L 1242 0 
L 1318 378 
L 1350 378 
C 1638 77 1984 -90 2304 -90 
z
M 2099 685 
C 1901 685 1664 755 1446 954 
L 1446 2534 
C 1690 2778 1907 2899 2150 2899 
C 2643 2899 2861 2522 2861 1837 
C 2861 1056 2522 685 2099 685 
z
" transform="scale(0.015625)"/>
      <path id="NotoSansCJKsc-Bold-6c" d="M 1395 -90 
C 1613 -90 1766 -51 1875 -6 
L 1760 691 
C 1696 678 1670 678 1632 678 
C 1542 678 1446 749 1446 966 
L 1446 5107 
L 506 5107 
L 506 1005 
C 506 339 736 -90 1395 -90 
z
" transform="scale(0.015625)"/>
      <path id="NotoSansCJKsc-Bold-50" d="M 582 0 
L 1530 0 
L 1530 1683 
L 2163 1683 
C 3181 1683 3994 2170 3994 3251 
C 3994 4371 3187 4742 2138 4742 
L 582 4742 
L 582 0 
z
M 1530 2432 
L 1530 3987 
L 2067 3987 
C 2720 3987 3066 3802 3066 3251 
C 3066 2707 2752 2432 2099 2432 
L 1530 2432 
z
" transform="scale(0.015625)"/>
      <path id="NotoSansCJKsc-Bold-69" d="M 506 0 
L 1446 0 
L 1446 3584 
L 506 3584 
L 506 0 
z
M 979 4166 
C 1299 4166 1523 4365 1523 4678 
C 1523 4986 1299 5190 979 5190 
C 646 5190 435 4986 435 4678 
C 435 4365 646 4166 979 4166 
z
" transform="scale(0.015625)"/>
      <path id="NotoSansCJKsc-Bold-6f" d="M 2003 -90 
C 2899 -90 3725 602 3725 1792 
C 3725 2982 2899 3674 2003 3674 
C 1101 3674 282 2982 282 1792 
C 282 602 1101 -90 2003 -90 
z
M 2003 678 
C 1510 678 1242 1114 1242 1792 
C 1242 2464 1510 2906 2003 2906 
C 2490 2906 2765 2464 2765 1792 
C 2765 1114 2490 678 2003 678 
z
" transform="scale(0.015625)"/>
      <path id="NotoSansCJKsc-Bold-73" d="M 1530 -90 
C 2458 -90 2957 410 2957 1043 
C 2957 1702 2432 1946 1958 2125 
C 1574 2266 1248 2362 1248 2624 
C 1248 2829 1402 2970 1728 2970 
C 1990 2970 2240 2842 2496 2662 
L 2918 3232 
C 2624 3462 2221 3674 1702 3674 
C 883 3674 365 3219 365 2579 
C 365 1978 870 1702 1325 1530 
C 1702 1382 2074 1261 2074 992 
C 2074 768 1914 614 1555 614 
C 1216 614 915 762 595 1005 
L 166 410 
C 525 115 1050 -90 1530 -90 
z
" transform="scale(0.015625)"/>
      <path id="NotoSansCJKsc-Bold-76" d="M 1312 0 
L 2400 0 
L 3597 3584 
L 2694 3584 
L 2170 1798 
C 2074 1446 1978 1075 1882 710 
L 1850 710 
C 1747 1075 1658 1446 1555 1798 
L 1037 3584 
L 90 3584 
L 1312 0 
z
" transform="scale(0.015625)"/>
      <path id="NotoSansCJKsc-Bold-75" d="M 1574 -90 
C 2067 -90 2406 154 2714 518 
L 2739 518 
L 2810 0 
L 3578 0 
L 3578 3584 
L 2637 3584 
L 2637 1165 
C 2394 845 2202 717 1914 717 
C 1562 717 1402 909 1402 1466 
L 1402 3584 
L 467 3584 
L 467 1350 
C 467 448 800 -90 1574 -90 
z
" transform="scale(0.015625)"/>
      <path id="NotoSansCJKsc-Bold-64" d="M 1766 -90 
C 2138 -90 2496 109 2758 371 
L 2784 371 
L 2854 0 
L 3622 0 
L 3622 5107 
L 2682 5107 
L 2682 3846 
L 2714 3283 
C 2458 3520 2208 3674 1805 3674 
C 1037 3674 301 2957 301 1792 
C 301 614 870 -90 1766 -90 
z
M 2010 685 
C 1536 685 1267 1056 1267 1805 
C 1267 2515 1606 2899 2010 2899 
C 2240 2899 2464 2829 2682 2630 
L 2682 1056 
C 2477 787 2259 685 2010 685 
z
" transform="scale(0.015625)"/>
     </defs>
     <use xlink:href="#NotoSansCJKsc-Bold-53"/>
     <use xlink:href="#NotoSansCJKsc-Bold-41" transform="translate(62.399994 0)"/>
     <use xlink:href="#NotoSansCJKsc-Bold-45" transform="translate(126.499985 0)"/>
     <use xlink:href="#NotoSansCJKsc-Bold-52" transform="translate(187.999969 0)"/>
     <use xlink:href="#NotoSansCJKsc-Bold-65" transform="translate(256.199951 0)"/>
     <use xlink:href="#NotoSansCJKsc-Bold-63" transform="translate(314.299942 0)"/>
     <use xlink:href="#NotoSansCJKsc-Bold-20" transform="translate(366.999939 0)"/>
     <use xlink:href="#NotoSansCJKsc-Bold-2014" transform="translate(389.699936 0)"/>
     <use xlink:href="#NotoSansCJKsc-Bold-20" transform="translate(480.499924 0)"/>
     <use xlink:href="#NotoSansCJKsc-Bold-49" transform="translate(503.199921 0)"/>
     <use xlink:href="#NotoSansCJKsc-Bold-6e" transform="translate(536.199905 0)"/>
     <use xlink:href="#NotoSansCJKsc-Bold-74" transform="translate(600.299896 0)"/>
     <use xlink:href="#NotoSansCJKsc-Bold-65" transform="translate(642.399887 0)"/>
     <use xlink:href="#NotoSansCJKsc-Bold-72" transform="translate(700.499878 0)"/>
     <use xlink:href="#NotoSansCJKsc-Bold-70" transform="translate(744.099869 0)"/>
     <use xlink:href="#NotoSansCJKsc-Bold-72" transform="translate(808.499863 0)"/>
     <use xlink:href="#NotoSansCJKsc-Bold-65" transform="translate(852.099854 0)"/>
     <use xlink:href="#NotoSansCJKsc-Bold-74" transform="translate(910.199844 0)"/>
     <use xlink:href="#NotoSansCJKsc-Bold-61" transform="translate(952.299835 0)"/>
     <use xlink:href="#NotoSansCJKsc-Bold-62" transform="translate(1011.399826 0)"/>
     <use xlink:href="#NotoSansCJKsc-Bold-6c" transform="translate(1075.79982 0)"/>
     <use xlink:href="#NotoSansCJKsc-Bold-65" transform="translate(1107.299805 0)"/>
     <use xlink:href="#NotoSansCJKsc-Bold-20" transform="translate(1165.399796 0)"/>
     <use xlink:href="#NotoSansCJKsc-Bold-49" transform="translate(1188.099792 0)"/>
     <use xlink:href="#NotoSansCJKsc-Bold-6e" transform="translate(1221.099777 0)"/>
     <use xlink:href="#NotoSansCJKsc-Bold-74" transform="translate(1285.199768 0)"/>
     <use xlink:href="#NotoSansCJKsc-Bold-65" transform="translate(1327.299759 0)"/>
     <use xlink:href="#NotoSansCJKsc-Bold-6e" transform="translate(1385.39975 0)"/>
     <use xlink:href="#NotoSansCJKsc-Bold-74" transform="translate(1449.499741 0)"/>
     <use xlink:href="#NotoSansCJKsc-Bold-20" transform="translate(1491.599731 0)"/>
     <use xlink:href="#NotoSansCJKsc-Bold-50" transform="translate(1514.299728 0)"/>
     <use xlink:href="#NotoSansCJKsc-Bold-72" transform="translate(1580.999725 0)"/>
     <use xlink:href="#NotoSansCJKsc-Bold-69" transform="translate(1624.599716 0)"/>
     <use xlink:href="#NotoSansCJKsc-Bold-6f" transform="translate(1654.99971 0)"/>
     <use xlink:href="#NotoSansCJKsc-Bold-72" transform="translate(1717.599701 0)"/>
     <use xlink:href="#NotoSansCJKsc-Bold-73" transform="translate(1761.199692 0)"/>
     <use xlink:href="#NotoSansCJKsc-Bold-20" transform="translate(1810.699677 0)"/>
     <use xlink:href="#NotoSansCJKsc-Bold-76" transform="translate(1833.399673 0)"/>
     <use xlink:href="#NotoSansCJKsc-Bold-69" transform="translate(1890.999664 0)"/>
     <use xlink:href="#NotoSansCJKsc-Bold-61" transform="translate(1921.399658 0)"/>
     <use xlink:href="#NotoSansCJKsc-Bold-20" transform="translate(1980.499649 0)"/>
     <use xlink:href="#NotoSansCJKsc-Bold-53" transform="translate(2003.199646 0)"/>
     <use xlink:href="#NotoSansCJKsc-Bold-70" transform="translate(2065.59964 0)"/>
     <use xlink:href="#NotoSansCJKsc-Bold-61" transform="translate(2129.999634 0)"/>
     <use xlink:href="#NotoSansCJKsc-Bold-72" transform="translate(2189.099625 0)"/>
     <use xlink:href="#NotoSansCJKsc-Bold-73" transform="translate(2232.699615 0)"/>
     <use xlink:href="#NotoSansCJKsc-Bold-65" transform="translate(2282.1996 0)"/>
     <use xlink:href="#NotoSansCJKsc-Bold-20" transform="translate(2340.299591 0)"/>
     <use xlink:href="#NotoSansCJKsc-Bold-41" transform="translate(2362.999588 0)"/>
     <use xlink:href="#NotoSansCJKsc-Bold-75" transform="translate(2427.099579 0)"/>
     <use xlink:href="#NotoSansCJKsc-Bold-74" transform="translate(2490.799576 0)"/>
     <use xlink:href="#NotoSansCJKsc-Bold-6f" transform="translate(2532.899567 0)"/>
     <use xlink:href="#NotoSansCJKsc-Bold-65" transform="translate(2595.499557 0)"/>
     <use xlink:href="#NotoSansCJKsc-Bold-6e" transform="translate(2653.599548 0)"/>
     <use xlink:href="#NotoSansCJKsc-Bold-63" transform="translate(2717.699539 0)"/>
     <use xlink:href="#NotoSansCJKsc-Bold-6f" transform="translate(2770.399536 0)"/>
     <use xlink:href="#NotoSansCJKsc-Bold-64" transform="translate(2832.999527 0)"/>
     <use xlink:href="#NotoSansCJKsc-Bold-65" transform="translate(2897.399521 0)"/>
     <use xlink:href="#NotoSansCJKsc-Bold-72" transform="translate(2955.499512 0)"/>
     <use xlink:href="#NotoSansCJKsc-Bold-73" transform="translate(2999.099503 0)"/>
    </g>
   </g>
   <g id="text_2">
    <!-- Reviews/text -&gt; LLM embeddings -&gt; SAE disentangle intents -&gt; retrieve priors -&gt; sequential recommender -->
    <g style="fill: #64748b" transform="translate(16.0056 54.024552) scale(0.096 -0.096)">
     <defs>
      <path id="NotoSansCJKsc-Regular-52" d="M 1235 2464 
L 1235 4211 
L 2022 4211 
C 2758 4211 3162 3994 3162 3379 
C 3162 2765 2758 2464 2022 2464 
L 1235 2464 
z
M 3219 0 
L 3885 0 
L 2694 2054 
C 3328 2208 3750 2643 3750 3379 
C 3750 4352 3066 4691 2112 4691 
L 646 4691 
L 646 0 
L 1235 0 
L 1235 1990 
L 2080 1990 
L 3219 0 
z
" transform="scale(0.015625)"/>
      <path id="NotoSansCJKsc-Regular-65" d="M 1997 -83 
C 2464 -83 2835 70 3136 269 
L 2931 659 
C 2669 486 2400 384 2061 384 
C 1402 384 947 858 909 1600 
L 3251 1600 
C 3264 1690 3277 1805 3277 1933 
C 3277 2925 2778 3565 1888 3565 
C 1094 3565 333 2867 333 1734 
C 333 589 1069 -83 1997 -83 
z
M 902 2016 
C 973 2707 1408 3098 1901 3098 
C 2445 3098 2765 2720 2765 2016 
L 902 2016 
z
" transform="scale(0.015625)"/>
      <path id="NotoSansCJKsc-Regular-76" d="M 1338 0 
L 2022 0 
L 3251 3475 
L 2675 3475 
L 2016 1498 
C 1914 1158 1798 806 1696 474 
L 1664 474 
C 1562 806 1453 1158 1344 1498 
L 691 3475 
L 83 3475 
L 1338 0 
z
" transform="scale(0.015625)"/>
      <path id="NotoSansCJKsc-Regular-69" d="M 589 0 
L 1178 0 
L 1178 3475 
L 589 3475 
L 589 0 
z
M 883 4192 
C 1114 4192 1274 4346 1274 4582 
C 1274 4806 1114 4960 883 4960 
C 653 4960 499 4806 499 4582 
C 499 4346 653 4192 883 4192 
z
" transform="scale(0.015625)"/>
      <path id="NotoSansCJKsc-Regular-77" d="M 1139 0 
L 1818 0 
L 2310 1862 
C 2400 2195 2470 2522 2547 2874 
L 2579 2874 
C 2662 2522 2726 2202 2816 1875 
L 3315 0 
L 4026 0 
L 4966 3475 
L 4403 3475 
L 3898 1466 
C 3821 1133 3757 819 3686 499 
L 3654 499 
C 3571 819 3494 1133 3411 1466 
L 2867 3475 
L 2298 3475 
L 1754 1466 
C 1670 1133 1594 819 1523 499 
L 1491 499 
C 1421 819 1357 1133 1286 1466 
L 768 3475 
L 173 3475 
L 1139 0 
z
" transform="scale(0.015625)"/>
      <path id="NotoSansCJKsc-Regular-73" d="M 1498 -83 
C 2317 -83 2758 384 2758 947 
C 2758 1606 2208 1811 1702 2003 
C 1312 2150 954 2278 954 2605 
C 954 2880 1158 3110 1600 3110 
C 1907 3110 2150 2976 2387 2803 
L 2669 3168 
C 2406 3386 2022 3565 1594 3565 
C 832 3565 397 3130 397 2579 
C 397 1984 922 1754 1408 1574 
C 1792 1434 2202 1267 2202 915 
C 2202 614 1978 371 1517 371 
C 1101 371 794 538 486 787 
L 205 397 
C 531 122 1005 -83 1498 -83 
z
" transform="scale(0.015625)"/>
      <path id="NotoSansCJKsc-Regular-2f" d="M 70 -1146 
L 499 -1146 
L 2413 5082 
L 1990 5082 
L 70 -1146 
z
" transform="scale(0.015625)"/>
      <path id="NotoSansCJKsc-Regular-74" d="M 1677 -83 
C 1894 -83 2125 -19 2323 45 
L 2208 486 
C 2093 435 1939 390 1811 390 
C 1408 390 1274 634 1274 1056 
L 1274 3002 
L 2221 3002 
L 2221 3475 
L 1274 3475 
L 1274 4454 
L 787 4454 
L 723 3475 
L 173 3443 
L 173 3002 
L 691 3002 
L 691 1075 
C 691 378 941 -83 1677 -83 
z
" transform="scale(0.015625)"/>
      <path id="NotoSansCJKsc-Regular-78" d="M 96 0 
L 710 0 
L 1178 813 
C 1299 1024 1408 1235 1530 1434 
L 1562 1434 
C 1696 1235 1824 1024 1939 813 
L 2451 0 
L 3091 0 
L 1946 1754 
L 3002 3475 
L 2394 3475 
L 1965 2714 
C 1856 2515 1760 2330 1658 2131 
L 1626 2131 
C 1510 2330 1389 2515 1286 2714 
L 819 3475 
L 186 3475 
L 1242 1811 
L 96 0 
z
" transform="scale(0.015625)"/>
      <path id="NotoSansCJKsc-Regular-20" transform="scale(0.015625)"/>
      <path id="NotoSansCJKsc-Regular-2d" d="M 294 1568 
L 1933 1568 
L 1933 2016 
L 294 2016 
L 294 1568 
z
" transform="scale(0.015625)"/>
      <path id="NotoSansCJKsc-Regular-3e" d="M 243 934 
L 3315 2144 
L 3315 2605 
L 243 3814 
L 243 3309 
L 1754 2746 
L 2714 2387 
L 2714 2362 
L 1754 2003 
L 243 1446 
L 243 934 
z
" transform="scale(0.015625)"/>
      <path id="NotoSansCJKsc-Regular-4c" d="M 646 0 
L 3290 0 
L 3290 506 
L 1235 506 
L 1235 4691 
L 646 4691 
L 646 0 
z
" transform="scale(0.015625)"/>
      <path id="NotoSansCJKsc-Regular-4d" d="M 646 0 
L 1178 0 
L 1178 2598 
C 1178 3002 1139 3571 1101 3981 
L 1126 3981 
L 1504 2912 
L 2394 474 
L 2790 474 
L 3674 2912 
L 4051 3981 
L 4077 3981 
C 4045 3571 4000 3002 4000 2598 
L 4000 0 
L 4550 0 
L 4550 4691 
L 3840 4691 
L 2944 2182 
C 2835 1862 2739 1530 2618 1203 
L 2592 1203 
C 2477 1530 2374 1862 2253 2182 
L 1357 4691 
L 646 4691 
L 646 0 
z
" transform="scale(0.015625)"/>
      <path id="NotoSansCJKsc-Regular-6d" d="M 589 0 
L 1178 0 
L 1178 2522 
C 1491 2880 1786 3053 2048 3053 
C 2490 3053 2694 2778 2694 2125 
L 2694 0 
L 3277 0 
L 3277 2522 
C 3603 2880 3885 3053 4154 3053 
C 4595 3053 4800 2778 4800 2125 
L 4800 0 
L 5382 0 
L 5382 2202 
C 5382 3085 5043 3565 4333 3565 
C 3904 3565 3546 3290 3181 2899 
C 3040 3309 2758 3565 2221 3565 
C 1805 3565 1446 3302 1139 2970 
L 1126 2970 
L 1069 3475 
L 589 3475 
L 589 0 
z
" transform="scale(0.015625)"/>
      <path id="NotoSansCJKsc-Regular-62" d="M 2118 -83 
C 2912 -83 3629 602 3629 1792 
C 3629 2867 3142 3565 2246 3565 
C 1856 3565 1472 3347 1152 3078 
L 1178 3699 
L 1178 5094 
L 589 5094 
L 589 0 
L 1056 0 
L 1107 358 
L 1133 358 
C 1434 83 1798 -83 2118 -83 
z
M 2022 410 
C 1792 410 1478 499 1178 768 
L 1178 2598 
C 1504 2906 1811 3072 2099 3072 
C 2765 3072 3021 2560 3021 1786 
C 3021 928 2598 410 2022 410 
z
" transform="scale(0.015625)"/>
      <path id="NotoSansCJKsc-Regular-64" d="M 1773 -83 
C 2189 -83 2560 141 2829 410 
L 2848 410 
L 2899 0 
L 3379 0 
L 3379 5094 
L 2790 5094 
L 2790 3757 
L 2822 3162 
C 2515 3411 2253 3565 1843 3565 
C 1050 3565 339 2861 339 1734 
C 339 576 902 -83 1773 -83 
z
M 1901 410 
C 1293 410 941 902 941 1741 
C 941 2534 1389 3072 1946 3072 
C 2234 3072 2502 2970 2790 2707 
L 2790 883 
C 2502 563 2221 410 1901 410 
z
" transform="scale(0.015625)"/>
      <path id="NotoSansCJKsc-Regular-6e" d="M 589 0 
L 1178 0 
L 1178 2522 
C 1523 2874 1766 3053 2125 3053 
C 2586 3053 2784 2778 2784 2125 
L 2784 0 
L 3366 0 
L 3366 2202 
C 3366 3085 3034 3565 2304 3565 
C 1830 3565 1466 3302 1139 2970 
L 1126 2970 
L 1069 3475 
L 589 3475 
L 589 0 
z
" transform="scale(0.015625)"/>
      <path id="NotoSansCJKsc-Regular-67" d="M 1760 -1600 
C 2835 -1600 3520 -1043 3520 -397 
C 3520 179 3110 429 2310 429 
L 1626 429 
C 1158 429 1018 589 1018 806 
C 1018 998 1114 1114 1242 1222 
C 1395 1146 1587 1101 1754 1101 
C 2470 1101 3027 1568 3027 2310 
C 3027 2611 2912 2867 2746 3027 
L 3456 3027 
L 3456 3475 
L 2246 3475 
C 2125 3526 1952 3565 1754 3565 
C 1056 3565 454 3085 454 2323 
C 454 1907 678 1568 909 1389 
L 909 1363 
C 723 1235 525 1005 525 717 
C 525 442 659 256 838 147 
L 838 115 
C 512 -83 326 -371 326 -672 
C 326 -1267 915 -1600 1760 -1600 
z
M 1754 1498 
C 1357 1498 1018 1818 1018 2323 
C 1018 2835 1350 3136 1754 3136 
C 2170 3136 2496 2835 2496 2323 
C 2496 1818 2157 1498 1754 1498 
z
M 1843 -1197 
C 1210 -1197 838 -960 838 -589 
C 838 -390 941 -179 1190 0 
C 1344 -38 1510 -51 1638 -51 
L 2240 -51 
C 2701 -51 2944 -166 2944 -493 
C 2944 -851 2515 -1197 1843 -1197 
z
" transform="scale(0.015625)"/>
      <path id="NotoSansCJKsc-Regular-53" d="M 1946 -83 
C 2925 -83 3539 506 3539 1248 
C 3539 1946 3117 2266 2573 2502 
L 1907 2790 
C 1542 2944 1126 3117 1126 3578 
C 1126 3994 1472 4256 2003 4256 
C 2438 4256 2784 4090 3072 3821 
L 3379 4198 
C 3053 4538 2560 4774 2003 4774 
C 1152 4774 525 4256 525 3533 
C 525 2848 1043 2515 1478 2330 
L 2150 2035 
C 2598 1837 2938 1683 2938 1197 
C 2938 742 2573 435 1952 435 
C 1466 435 992 666 659 1018 
L 307 608 
C 710 186 1280 -83 1946 -83 
z
" transform="scale(0.015625)"/>
      <path id="NotoSansCJKsc-Regular-41" d="M 26 0 
L 621 0 
L 1075 1434 
L 2790 1434 
L 3238 0 
L 3866 0 
L 2272 4691 
L 1613 4691 
L 26 0 
z
M 1222 1901 
L 1453 2624 
C 1619 3155 1773 3661 1920 4211 
L 1946 4211 
C 2099 3667 2246 3155 2419 2624 
L 2643 1901 
L 1222 1901 
z
" transform="scale(0.015625)"/>
      <path id="NotoSansCJKsc-Regular-45" d="M 646 0 
L 3418 0 
L 3418 506 
L 1235 506 
L 1235 2214 
L 3014 2214 
L 3014 2720 
L 1235 2720 
L 1235 4192 
L 3347 4192 
L 3347 4691 
L 646 4691 
L 646 0 
z
" transform="scale(0.015625)"/>
      <path id="NotoSansCJKsc-Regular-61" d="M 1389 -83 
C 1818 -83 2208 141 2541 416 
L 2560 416 
L 2611 0 
L 3091 0 
L 3091 2138 
C 3091 3002 2739 3565 1888 3565 
C 1325 3565 838 3315 525 3110 
L 749 2707 
C 1024 2893 1389 3078 1792 3078 
C 2362 3078 2509 2650 2509 2202 
C 1030 2035 378 1658 378 902 
C 378 275 806 -83 1389 -83 
z
M 1555 390 
C 1210 390 941 544 941 941 
C 941 1389 1338 1677 2509 1811 
L 2509 845 
C 2170 544 1888 390 1555 390 
z
" transform="scale(0.015625)"/>
      <path id="NotoSansCJKsc-Regular-6c" d="M 1203 -83 
C 1363 -83 1459 -58 1542 -32 
L 1459 416 
C 1395 403 1370 403 1338 403 
C 1248 403 1178 474 1178 653 
L 1178 5094 
L 589 5094 
L 589 691 
C 589 198 768 -83 1203 -83 
z
" transform="scale(0.015625)"/>
      <path id="NotoSansCJKsc-Regular-72" d="M 589 0 
L 1178 0 
L 1178 2234 
C 1408 2822 1760 3040 2048 3040 
C 2195 3040 2272 3021 2387 2982 
L 2496 3488 
C 2387 3546 2278 3565 2125 3565 
C 1741 3565 1382 3283 1139 2842 
L 1126 2842 
L 1069 3475 
L 589 3475 
L 589 0 
z
" transform="scale(0.015625)"/>
      <path id="NotoSansCJKsc-Regular-70" d="M 589 -1466 
L 1178 -1466 
L 1178 -288 
L 1158 320 
C 1472 58 1805 -83 2118 -83 
C 2912 -83 3629 602 3629 1792 
C 3629 2867 3142 3565 2246 3565 
C 1843 3565 1453 3334 1139 3072 
L 1126 3072 
L 1069 3475 
L 589 3475 
L 589 -1466 
z
M 2022 410 
C 1792 410 1485 499 1178 768 
L 1178 2598 
C 1510 2906 1811 3072 2099 3072 
C 2765 3072 3021 2560 3021 1786 
C 3021 928 2598 410 2022 410 
z
" transform="scale(0.015625)"/>
      <path id="NotoSansCJKsc-Regular-6f" d="M 1939 -83 
C 2790 -83 3546 582 3546 1734 
C 3546 2893 2790 3565 1939 3565 
C 1088 3565 333 2893 333 1734 
C 333 582 1088 -83 1939 -83 
z
M 1939 403 
C 1338 403 934 934 934 1734 
C 934 2534 1338 3072 1939 3072 
C 2541 3072 2950 2534 2950 1734 
C 2950 934 2541 403 1939 403 
z
" transform="scale(0.015625)"/>
      <path id="NotoSansCJKsc-Regular-71" d="M 2790 -1466 
L 3379 -1466 
L 3379 3475 
L 2912 3475 
L 2854 3149 
L 2842 3149 
C 2534 3418 2253 3565 1843 3565 
C 1050 3565 339 2861 339 1734 
C 339 576 902 -83 1773 -83 
C 2176 -83 2541 128 2822 403 
L 2790 -230 
L 2790 -1466 
z
M 1901 410 
C 1293 410 941 902 941 1741 
C 941 2534 1389 3072 1946 3072 
C 2234 3072 2502 2970 2790 2707 
L 2790 883 
C 2502 563 2221 410 1901 410 
z
" transform="scale(0.015625)"/>
      <path id="NotoSansCJKsc-Regular-75" d="M 1606 -83 
C 2080 -83 2426 166 2752 544 
L 2771 544 
L 2816 0 
L 3302 0 
L 3302 3475 
L 2720 3475 
L 2720 1011 
C 2387 602 2138 422 1779 422 
C 1318 422 1126 698 1126 1344 
L 1126 3475 
L 538 3475 
L 538 1274 
C 538 384 870 -83 1606 -83 
z
" transform="scale(0.015625)"/>
      <path id="NotoSansCJKsc-Regular-63" d="M 1958 -83 
C 2374 -83 2771 83 3085 352 
L 2829 749 
C 2611 557 2330 403 2010 403 
C 1370 403 934 934 934 1734 
C 934 2534 1395 3072 2029 3072 
C 2298 3072 2522 2950 2720 2771 
L 3014 3155 
C 2771 3373 2458 3565 2003 3565 
C 1107 3565 333 2893 333 1734 
C 333 582 1037 -83 1958 -83 
z
" transform="scale(0.015625)"/>
     </defs>
     <use xlink:href="#NotoSansCJKsc-Regular-52"/>
     <use xlink:href="#NotoSansCJKsc-Regular-65" transform="translate(63.499985 0)"/>
     <use xlink:href="#NotoSansCJKsc-Regular-76" transform="translate(118.899979 0)"/>
     <use xlink:href="#NotoSansCJKsc-Regular-69" transform="translate(170.999969 0)"/>
     <use xlink:href="#NotoSansCJKsc-Regular-65" transform="translate(198.499954 0)"/>
     <use xlink:href="#NotoSansCJKsc-Regular-77" transform="translate(253.899948 0)"/>
     <use xlink:href="#NotoSansCJKsc-Regular-73" transform="translate(334.09993 0)"/>
     <use xlink:href="#NotoSansCJKsc-Regular-2f" transform="translate(380.899918 0)"/>
     <use xlink:href="#NotoSansCJKsc-Regular-74" transform="translate(420.099915 0)"/>
     <use xlink:href="#NotoSansCJKsc-Regular-65" transform="translate(457.799911 0)"/>
     <use xlink:href="#NotoSansCJKsc-Regular-78" transform="translate(513.199905 0)"/>
     <use xlink:href="#NotoSansCJKsc-Regular-74" transform="translate(562.999893 0)"/>
     <use xlink:href="#NotoSansCJKsc-Regular-20" transform="translate(600.69989 0)"/>
     <use xlink:href="#NotoSansCJKsc-Regular-2d" transform="translate(623.099884 0)"/>
     <use xlink:href="#NotoSansCJKsc-Regular-3e" transform="translate(657.799881 0)"/>
     <use xlink:href="#NotoSansCJKsc-Regular-20" transform="translate(713.299866 0)"/>
     <use xlink:href="#NotoSansCJKsc-Regular-4c" transform="translate(735.69986 0)"/>
     <use xlink:href="#NotoSansCJKsc-Regular-4c" transform="translate(789.999847 0)"/>
     <use xlink:href="#NotoSansCJKsc-Regular-4d" transform="translate(844.299835 0)"/>
     <use xlink:href="#NotoSansCJKsc-Regular-20" transform="translate(925.499817 0)"/>
     <use xlink:href="#NotoSansCJKsc-Regular-65" transform="translate(947.899811 0)"/>
     <use xlink:href="#NotoSansCJKsc-Regular-6d" transform="translate(1003.299805 0)"/>
     <use xlink:href="#NotoSansCJKsc-Regular-62" transform="translate(1095.899796 0)"/>
     <use xlink:href="#NotoSansCJKsc-Regular-65" transform="translate(1157.699783 0)"/>
     <use xlink:href="#NotoSansCJKsc-Regular-64" transform="translate(1213.099777 0)"/>
     <use xlink:href="#NotoSansCJKsc-Regular-64" transform="translate(1275.099762 0)"/>
     <use xlink:href="#NotoSansCJKsc-Regular-69" transform="translate(1337.099747 0)"/>
     <use xlink:href="#NotoSansCJKsc-Regular-6e" transform="translate(1364.599731 0)"/>
     <use xlink:href="#NotoSansCJKsc-Regular-67" transform="translate(1425.599716 0)"/>
     <use xlink:href="#NotoSansCJKsc-Regular-73" transform="translate(1481.99971 0)"/>
     <use xlink:href="#NotoSansCJKsc-Regular-20" transform="translate(1528.799698 0)"/>
     <use xlink:href="#NotoSansCJKsc-Regular-2d" transform="translate(1551.199692 0)"/>
     <use xlink:href="#NotoSansCJKsc-Regular-3e" transform="translate(1585.899689 0)"/>
     <use xlink:href="#NotoSansCJKsc-Regular-20" transform="translate(1641.399673 0)"/>
     <use xlink:href="#NotoSansCJKsc-Regular-53" transform="translate(1663.799667 0)"/>
     <use xlink:href="#NotoSansCJKsc-Regular-41" transform="translate(1723.399658 0)"/>
     <use xlink:href="#NotoSansCJKsc-Regular-45" transform="translate(1784.199646 0)"/>
     <use xlink:href="#NotoSansCJKsc-Regular-20" transform="translate(1843.09964 0)"/>
     <use xlink:href="#NotoSansCJKsc-Regular-64" transform="translate(1865.499634 0)"/>
     <use xlink:href="#NotoSansCJKsc-Regular-69" transform="translate(1927.499619 0)"/>
     <use xlink:href="#NotoSansCJKsc-Regular-73" transform="translate(1954.999603 0)"/>
     <use xlink:href="#NotoSansCJKsc-Regular-65" transform="translate(2001.799591 0)"/>
     <use xlink:href="#NotoSansCJKsc-Regular-6e" transform="translate(2057.199585 0)"/>
     <use xlink:href="#NotoSansCJKsc-Regular-74" transform="translate(2118.19957 0)"/>
     <use xlink:href="#NotoSansCJKsc-Regular-61" transform="translate(2155.899567 0)"/>
     <use xlink:href="#NotoSansCJKsc-Regular-6e" transform="translate(2212.199554 0)"/>
     <use xlink:href="#NotoSansCJKsc-Regular-67" transform="translate(2273.199539 0)"/>
     <use xlink:href="#NotoSansCJKsc-Regular-6c" transform="translate(2329.599533 0)"/>
     <use xlink:href="#NotoSansCJKsc-Regular-65" transform="translate(2357.999527 0)"/>
     <use xlink:href="#NotoSansCJKsc-Regular-20" transform="translate(2413.399521 0)"/>
     <use xlink:href="#NotoSansCJKsc-Regular-69" transform="translate(2435.799515 0)"/>
     <use xlink:href="#NotoSansCJKsc-Regular-6e" transform="translate(2463.2995 0)"/>
     <use xlink:href="#NotoSansCJKsc-Regular-74" transform="translate(2524.299484 0)"/>
     <use xlink:href="#NotoSansCJKsc-Regular-65" transform="translate(2561.999481 0)"/>
     <use xlink:href="#NotoSansCJKsc-Regular-6e" transform="translate(2617.399475 0)"/>
     <use xlink:href="#NotoSansCJKsc-Regular-74" transform="translate(2678.39946 0)"/>
     <use xlink:href="#NotoSansCJKsc-Regular-73" transform="translate(2716.099457 0)"/>
     <use xlink:href="#NotoSansCJKsc-Regular-20" transform="translate(2762.899445 0)"/>
     <use xlink:href="#NotoSansCJKsc-Regular-2d" transform="translate(2785.299438 0)"/>
     <use xlink:href="#NotoSansCJKsc-Regular-3e" transform="translate(2819.999435 0)"/>
     <use xlink:href="#NotoSansCJKsc-Regular-20" transform="translate(2875.49942 0)"/>
     <use xlink:href="#NotoSansCJKsc-Regular-72" transform="translate(2897.899414 0)"/>
     <use xlink:href="#NotoSansCJKsc-Regular-65" transform="translate(2936.699402 0)"/>
     <use xlink:href="#NotoSansCJKsc-Regular-74" transform="translate(2992.099396 0)"/>
     <use xlink:href="#NotoSansCJKsc-Regular-72" transform="translate(3029.799393 0)"/>
     <use xlink:href="#NotoSansCJKsc-Regular-69" transform="translate(3068.59938 0)"/>
     <use xlink:href="#NotoSansCJKsc-Regular-65" transform="translate(3096.099365 0)"/>
     <use xlink:href="#NotoSansCJKsc-Regular-76" transform="translate(3151.499359 0)"/>
     <use xlink:href="#NotoSansCJKsc-Regular-65" transform="translate(3203.59935 0)"/>
     <use xlink:href="#NotoSansCJKsc-Regular-20" transform="translate(3258.999344 0)"/>
     <use xlink:href="#NotoSansCJKsc-Regular-70" transform="translate(3281.399338 0)"/>
     <use xlink:href="#NotoSansCJKsc-Regular-72" transform="translate(3343.399323 0)"/>
     <use xlink:href="#NotoSansCJKsc-Regular-69" transform="translate(3382.19931 0)"/>
     <use xlink:href="#NotoSansCJKsc-Regular-6f" transform="translate(3409.699295 0)"/>
     <use xlink:href="#NotoSansCJKsc-Regular-72" transform="translate(3470.299286 0)"/>
     <use xlink:href="#NotoSansCJKsc-Regular-73" transform="translate(3509.099274 0)"/>
     <use xlink:href="#NotoSansCJKsc-Regular-20" transform="translate(3555.899261 0)"/>
     <use xlink:href="#NotoSansCJKsc-Regular-2d" transform="translate(3578.299255 0)"/>
     <use xlink:href="#NotoSansCJKsc-Regular-3e" transform="translate(3612.999252 0)"/>
     <use xlink:href="#NotoSansCJKsc-Regular-20" transform="translate(3668.499237 0)"/>
     <use xlink:href="#NotoSansCJKsc-Regular-73" transform="translate(3690.899231 0)"/>
     <use xlink:href="#NotoSansCJKsc-Regular-65" transform="translate(3737.699219 0)"/>
     <use xlink:href="#NotoSansCJKsc-Regular-71" transform="translate(3793.099213 0)"/>
     <use xlink:href="#NotoSansCJKsc-Regular-75" transform="translate(3855.099197 0)"/>
     <use xlink:href="#NotoSansCJKsc-Regular-65" transform="translate(3915.799194 0)"/>
     <use xlink:href="#NotoSansCJKsc-Regular-6e" transform="translate(3971.199188 0)"/>
     <use xlink:href="#NotoSansCJKsc-Regular-74" transform="translate(4032.199173 0)"/>
     <use xlink:href="#NotoSansCJKsc-Regular-69" transform="translate(4069.89917 0)"/>
     <use xlink:href="#NotoSansCJKsc-Regular-61" transform="translate(4097.399155 0)"/>
     <use xlink:href="#NotoSansCJKsc-Regular-6c" transform="translate(4153.699142 0)"/>
     <use xlink:href="#NotoSansCJKsc-Regular-20" transform="translate(4182.099136 0)"/>
     <use xlink:href="#NotoSansCJKsc-Regular-72" transform="translate(4204.49913 0)"/>
     <use xlink:href="#NotoSansCJKsc-Regular-65" transform="translate(4243.299118 0)"/>
     <use xlink:href="#NotoSansCJKsc-Regular-63" transform="translate(4298.699112 0)"/>
     <use xlink:href="#NotoSansCJKsc-Regular-6f" transform="translate(4349.699097 0)"/>
     <use xlink:href="#NotoSansCJKsc-Regular-6d" transform="translate(4410.299088 0)"/>
     <use xlink:href="#NotoSansCJKsc-Regular-6d" transform="translate(4502.899078 0)"/>
     <use xlink:href="#NotoSansCJKsc-Regular-65" transform="translate(4595.499069 0)"/>
     <use xlink:href="#NotoSansCJKsc-Regular-6e" transform="translate(4650.899063 0)"/>
     <use xlink:href="#NotoSansCJKsc-Regular-64" transform="translate(4711.899048 0)"/>
     <use xlink:href="#NotoSansCJKsc-Regular-65" transform="translate(4773.899033 0)"/>
     <use xlink:href="#NotoSansCJKsc-Regular-72" transform="translate(4829.299026 0)"/>
    </g>
   </g>
   <g id="text_3">
    <!-- Text data -->
    <g style="fill: #0891b2" transform="translate(46.767834 106.78712) scale(0.105 -0.105)">
     <defs>
      <path id="NotoSansCJKsc-Bold-54" d="M 1523 0 
L 2470 0 
L 2470 3949 
L 3808 3949 
L 3808 4742 
L 192 4742 
L 192 3949 
L 1523 3949 
L 1523 0 
z
" transform="scale(0.015625)"/>
      <path id="NotoSansCJKsc-Bold-78" d="M 102 0 
L 1082 0 
L 1408 659 
C 1510 870 1606 1082 1709 1280 
L 1741 1280 
C 1856 1082 1978 870 2086 659 
L 2483 0 
L 3494 0 
L 2374 1760 
L 3424 3584 
L 2451 3584 
L 2150 2950 
C 2067 2746 1971 2541 1888 2342 
L 1862 2342 
C 1754 2541 1645 2746 1542 2950 
L 1184 3584 
L 173 3584 
L 1222 1862 
L 102 0 
z
" transform="scale(0.015625)"/>
     </defs>
     <use xlink:href="#NotoSansCJKsc-Bold-54"/>
     <use xlink:href="#NotoSansCJKsc-Bold-65" transform="translate(62.499985 0)"/>
     <use xlink:href="#NotoSansCJKsc-Bold-78" transform="translate(120.599976 0)"/>
     <use xlink:href="#NotoSansCJKsc-Bold-74" transform="translate(176.799973 0)"/>
     <use xlink:href="#NotoSansCJKsc-Bold-20" transform="translate(218.899963 0)"/>
     <use xlink:href="#NotoSansCJKsc-Bold-64" transform="translate(241.59996 0)"/>
     <use xlink:href="#NotoSansCJKsc-Bold-61" transform="translate(305.999954 0)"/>
     <use xlink:href="#NotoSansCJKsc-Bold-74" transform="translate(365.099945 0)"/>
     <use xlink:href="#NotoSansCJKsc-Bold-61" transform="translate(407.199936 0)"/>
    </g>
   </g>
   <g id="text_4">
    <!-- reviews -->
    <g style="fill: #475569" transform="translate(55.218459 120.873325) scale(0.09 -0.09)">
     <use xlink:href="#NotoSansCJKsc-Regular-72"/>
     <use xlink:href="#NotoSansCJKsc-Regular-65" transform="translate(38.799988 0)"/>
     <use xlink:href="#NotoSansCJKsc-Regular-76" transform="translate(94.199982 0)"/>
     <use xlink:href="#NotoSansCJKsc-Regular-69" transform="translate(146.299973 0)"/>
     <use xlink:href="#NotoSansCJKsc-Regular-65" transform="translate(173.799957 0)"/>
     <use xlink:href="#NotoSansCJKsc-Regular-77" transform="translate(229.199951 0)"/>
     <use xlink:href="#NotoSansCJKsc-Regular-73" transform="translate(309.399933 0)"/>
    </g>
   </g>
   <g id="text_5">
    <!-- product text -->
    <g style="fill: #475569" transform="translate(45.336038 133.624526) scale(0.09 -0.09)">
     <use xlink:href="#NotoSansCJKsc-Regular-70"/>
     <use xlink:href="#NotoSansCJKsc-Regular-72" transform="translate(61.999985 0)"/>
     <use xlink:href="#NotoSansCJKsc-Regular-6f" transform="translate(100.799973 0)"/>
     <use xlink:href="#NotoSansCJKsc-Regular-64" transform="translate(161.399963 0)"/>
     <use xlink:href="#NotoSansCJKsc-Regular-75" transform="translate(223.399948 0)"/>
     <use xlink:href="#NotoSansCJKsc-Regular-63" transform="translate(284.099945 0)"/>
     <use xlink:href="#NotoSansCJKsc-Regular-74" transform="translate(335.09993 0)"/>
     <use xlink:href="#NotoSansCJKsc-Regular-20" transform="translate(372.799927 0)"/>
     <use xlink:href="#NotoSansCJKsc-Regular-74" transform="translate(395.199921 0)"/>
     <use xlink:href="#NotoSansCJKsc-Regular-65" transform="translate(432.899918 0)"/>
     <use xlink:href="#NotoSansCJKsc-Regular-78" transform="translate(488.299911 0)"/>
     <use xlink:href="#NotoSansCJKsc-Regular-74" transform="translate(538.099899 0)"/>
    </g>
   </g>
   <g id="text_6">
    <!-- user feedback -->
    <g style="fill: #475569" transform="translate(41.830256 146.375725) scale(0.09 -0.09)">
     <defs>
      <path id="NotoSansCJKsc-Regular-66" d="M 211 3002 
L 685 3002 
L 685 0 
L 1267 0 
L 1267 3002 
L 2003 3002 
L 2003 3475 
L 1267 3475 
L 1267 4026 
C 1267 4474 1427 4710 1760 4710 
C 1882 4710 2022 4678 2150 4614 
L 2278 5069 
C 2118 5133 1914 5178 1696 5178 
C 1005 5178 685 4736 685 4032 
L 685 3475 
L 211 3443 
L 211 3002 
z
" transform="scale(0.015625)"/>
      <path id="NotoSansCJKsc-Regular-6b" d="M 589 0 
L 1165 0 
L 1165 915 
L 1818 1677 
L 2835 0 
L 3469 0 
L 2157 2074 
L 3315 3475 
L 2662 3475 
L 1190 1645 
L 1165 1645 
L 1165 5094 
L 589 5094 
L 589 0 
z
" transform="scale(0.015625)"/>
     </defs>
     <use xlink:href="#NotoSansCJKsc-Regular-75"/>
     <use xlink:href="#NotoSansCJKsc-Regular-73" transform="translate(60.699997 0)"/>
     <use xlink:href="#NotoSansCJKsc-Regular-65" transform="translate(107.499985 0)"/>
     <use xlink:href="#NotoSansCJKsc-Regular-72" transform="translate(162.899979 0)"/>
     <use xlink:href="#NotoSansCJKsc-Regular-20" transform="translate(201.699966 0)"/>
     <use xlink:href="#NotoSansCJKsc-Regular-66" transform="translate(224.09996 0)"/>
     <use xlink:href="#NotoSansCJKsc-Regular-65" transform="translate(256.599945 0)"/>
     <use xlink:href="#NotoSansCJKsc-Regular-65" transform="translate(311.999939 0)"/>
     <use xlink:href="#NotoSansCJKsc-Regular-64" transform="translate(367.399933 0)"/>
     <use xlink:href="#NotoSansCJKsc-Regular-62" transform="translate(429.399918 0)"/>
     <use xlink:href="#NotoSansCJKsc-Regular-61" transform="translate(491.199905 0)"/>
     <use xlink:href="#NotoSansCJKsc-Regular-63" transform="translate(547.499893 0)"/>
     <use xlink:href="#NotoSansCJKsc-Regular-6b" transform="translate(598.499878 0)"/>
    </g>
   </g>
   <g id="text_7">
    <!-- LLM embed -->
    <g style="fill: #2563eb" transform="translate(166.1865 106.78712) scale(0.105 -0.105)">
     <defs>
      <path id="NotoSansCJKsc-Bold-4c" d="M 582 0 
L 3456 0 
L 3456 794 
L 1530 794 
L 1530 4742 
L 582 4742 
L 582 0 
z
" transform="scale(0.015625)"/>
      <path id="NotoSansCJKsc-Bold-4d" d="M 582 0 
L 1434 0 
L 1434 1978 
C 1434 2432 1357 3085 1312 3533 
L 1338 3533 
L 1715 2419 
L 2451 429 
L 2995 429 
L 3725 2419 
L 4109 3533 
L 4141 3533 
C 4090 3085 4019 2432 4019 1978 
L 4019 0 
L 4883 0 
L 4883 4742 
L 3834 4742 
L 3040 2515 
C 2944 2227 2861 1914 2758 1613 
L 2726 1613 
C 2630 1914 2541 2227 2438 2515 
L 1632 4742 
L 582 4742 
L 582 0 
z
" transform="scale(0.015625)"/>
      <path id="NotoSansCJKsc-Bold-6d" d="M 506 0 
L 1446 0 
L 1446 2464 
C 1696 2739 1926 2867 2131 2867 
C 2477 2867 2637 2675 2637 2118 
L 2637 0 
L 3571 0 
L 3571 2464 
C 3827 2739 4058 2867 4262 2867 
C 4602 2867 4762 2675 4762 2118 
L 4762 0 
L 5696 0 
L 5696 2234 
C 5696 3136 5350 3674 4589 3674 
C 4128 3674 3776 3392 3443 3046 
C 3277 3443 2976 3674 2464 3674 
C 1997 3674 1664 3418 1363 3104 
L 1344 3104 
L 1274 3584 
L 506 3584 
L 506 0 
z
" transform="scale(0.015625)"/>
     </defs>
     <use xlink:href="#NotoSansCJKsc-Bold-4c"/>
     <use xlink:href="#NotoSansCJKsc-Bold-4c" transform="translate(57.799988 0)"/>
     <use xlink:href="#NotoSansCJKsc-Bold-4d" transform="translate(115.599976 0)"/>
     <use xlink:href="#NotoSansCJKsc-Bold-20" transform="translate(200.899963 0)"/>
     <use xlink:href="#NotoSansCJKsc-Bold-65" transform="translate(223.59996 0)"/>
     <use xlink:href="#NotoSansCJKsc-Bold-6d" transform="translate(281.699951 0)"/>
     <use xlink:href="#NotoSansCJKsc-Bold-62" transform="translate(378.099945 0)"/>
     <use xlink:href="#NotoSansCJKsc-Bold-65" transform="translate(442.499939 0)"/>
     <use xlink:href="#NotoSansCJKsc-Bold-64" transform="translate(500.59993 0)"/>
    </g>
   </g>
   <g id="text_8">
    <!-- dense vectors -->
    <g style="fill: #475569" transform="translate(166.805719 120.873325) scale(0.09 -0.09)">
     <use xlink:href="#NotoSansCJKsc-Regular-64"/>
     <use xlink:href="#NotoSansCJKsc-Regular-65" transform="translate(61.999985 0)"/>
     <use xlink:href="#NotoSansCJKsc-Regular-6e" transform="translate(117.399979 0)"/>
     <use xlink:href="#NotoSansCJKsc-Regular-73" transform="translate(178.399963 0)"/>
     <use xlink:href="#NotoSansCJKsc-Regular-65" transform="translate(225.199951 0)"/>
     <use xlink:href="#NotoSansCJKsc-Regular-20" transform="translate(280.599945 0)"/>
     <use xlink:href="#NotoSansCJKsc-Regular-76" transform="translate(302.999939 0)"/>
     <use xlink:href="#NotoSansCJKsc-Regular-65" transform="translate(355.09993 0)"/>
     <use xlink:href="#NotoSansCJKsc-Regular-63" transform="translate(410.499924 0)"/>
     <use xlink:href="#NotoSansCJKsc-Regular-74" transform="translate(461.499908 0)"/>
     <use xlink:href="#NotoSansCJKsc-Regular-6f" transform="translate(499.199905 0)"/>
     <use xlink:href="#NotoSansCJKsc-Regular-72" transform="translate(559.799896 0)"/>
     <use xlink:href="#NotoSansCJKsc-Regular-73" transform="translate(598.599884 0)"/>
    </g>
   </g>
   <g id="text_9">
    <!-- polysemantic -->
    <g style="fill: #475569" transform="translate(167.436422 133.624526) scale(0.09 -0.09)">
     <defs>
      <path id="NotoSansCJKsc-Regular-79" d="M 646 -1498 
C 1338 -1498 1702 -973 1946 -294 
L 3251 3475 
L 2682 3475 
L 2054 1549 
C 1965 1235 1862 883 1773 563 
L 1741 563 
C 1619 890 1504 1242 1395 1549 
L 691 3475 
L 83 3475 
L 1478 -6 
L 1402 -269 
C 1254 -698 1011 -1018 621 -1018 
C 525 -1018 422 -986 352 -960 
L 237 -1427 
C 346 -1472 486 -1498 646 -1498 
z
" transform="scale(0.015625)"/>
     </defs>
     <use xlink:href="#NotoSansCJKsc-Regular-70"/>
     <use xlink:href="#NotoSansCJKsc-Regular-6f" transform="translate(61.999985 0)"/>
     <use xlink:href="#NotoSansCJKsc-Regular-6c" transform="translate(122.599976 0)"/>
     <use xlink:href="#NotoSansCJKsc-Regular-79" transform="translate(150.999969 0)"/>
     <use xlink:href="#NotoSansCJKsc-Regular-73" transform="translate(203.09996 0)"/>
     <use xlink:href="#NotoSansCJKsc-Regular-65" transform="translate(249.899948 0)"/>
     <use xlink:href="#NotoSansCJKsc-Regular-6d" transform="translate(305.299942 0)"/>
     <use xlink:href="#NotoSansCJKsc-Regular-61" transform="translate(397.899933 0)"/>
     <use xlink:href="#NotoSansCJKsc-Regular-6e" transform="translate(454.199921 0)"/>
     <use xlink:href="#NotoSansCJKsc-Regular-74" transform="translate(515.199905 0)"/>
     <use xlink:href="#NotoSansCJKsc-Regular-69" transform="translate(552.899902 0)"/>
     <use xlink:href="#NotoSansCJKsc-Regular-63" transform="translate(580.399887 0)"/>
    </g>
   </g>
   <g id="text_10">
    <!-- noisy -->
    <g style="fill: #475569" transform="translate(184.689703 146.330725) scale(0.09 -0.09)">
     <use xlink:href="#NotoSansCJKsc-Regular-6e"/>
     <use xlink:href="#NotoSansCJKsc-Regular-6f" transform="translate(60.999985 0)"/>
     <use xlink:href="#NotoSansCJKsc-Regular-69" transform="translate(121.599976 0)"/>
     <use xlink:href="#NotoSansCJKsc-Regular-73" transform="translate(149.09996 0)"/>
     <use xlink:href="#NotoSansCJKsc-Regular-79" transform="translate(195.899948 0)"/>
    </g>
   </g>
   <g id="text_11">
    <!-- SAE -->
    <g style="fill: #7c3aed" transform="translate(310.5804 106.78712) scale(0.105 -0.105)">
     <use xlink:href="#NotoSansCJKsc-Bold-53"/>
     <use xlink:href="#NotoSansCJKsc-Bold-41" transform="translate(62.399994 0)"/>
     <use xlink:href="#NotoSansCJKsc-Bold-45" transform="translate(126.499985 0)"/>
    </g>
   </g>
   <g id="text_12">
    <!-- sparse atoms -->
    <g style="fill: #475569" transform="translate(292.438603 120.873325) scale(0.09 -0.09)">
     <use xlink:href="#NotoSansCJKsc-Regular-73"/>
     <use xlink:href="#NotoSansCJKsc-Regular-70" transform="translate(46.799988 0)"/>
     <use xlink:href="#NotoSansCJKsc-Regular-61" transform="translate(108.799973 0)"/>
     <use xlink:href="#NotoSansCJKsc-Regular-72" transform="translate(165.09996 0)"/>
     <use xlink:href="#NotoSansCJKsc-Regular-73" transform="translate(203.899948 0)"/>
     <use xlink:href="#NotoSansCJKsc-Regular-65" transform="translate(250.699936 0)"/>
     <use xlink:href="#NotoSansCJKsc-Regular-20" transform="translate(306.09993 0)"/>
     <use xlink:href="#NotoSansCJKsc-Regular-61" transform="translate(328.499924 0)"/>
     <use xlink:href="#NotoSansCJKsc-Regular-74" transform="translate(384.799911 0)"/>
     <use xlink:href="#NotoSansCJKsc-Regular-6f" transform="translate(422.499908 0)"/>
     <use xlink:href="#NotoSansCJKsc-Regular-6d" transform="translate(483.099899 0)"/>
     <use xlink:href="#NotoSansCJKsc-Regular-73" transform="translate(575.69989 0)"/>
    </g>
   </g>
   <g id="text_13">
    <!-- intent directions -->
    <g style="fill: #475569" transform="translate(285.754697 133.624526) scale(0.09 -0.09)">
     <use xlink:href="#NotoSansCJKsc-Regular-69"/>
     <use xlink:href="#NotoSansCJKsc-Regular-6e" transform="translate(27.499985 0)"/>
     <use xlink:href="#NotoSansCJKsc-Regular-74" transform="translate(88.499969 0)"/>
     <use xlink:href="#NotoSansCJKsc-Regular-65" transform="translate(126.199966 0)"/>
     <use xlink:href="#NotoSansCJKsc-Regular-6e" transform="translate(181.59996 0)"/>
     <use xlink:href="#NotoSansCJKsc-Regular-74" transform="translate(242.599945 0)"/>
     <use xlink:href="#NotoSansCJKsc-Regular-20" transform="translate(280.299942 0)"/>
     <use xlink:href="#NotoSansCJKsc-Regular-64" transform="translate(302.699936 0)"/>
     <use xlink:href="#NotoSansCJKsc-Regular-69" transform="translate(364.699921 0)"/>
     <use xlink:href="#NotoSansCJKsc-Regular-72" transform="translate(392.199905 0)"/>
     <use xlink:href="#NotoSansCJKsc-Regular-65" transform="translate(430.999893 0)"/>
     <use xlink:href="#NotoSansCJKsc-Regular-63" transform="translate(486.399887 0)"/>
     <use xlink:href="#NotoSansCJKsc-Regular-74" transform="translate(537.399872 0)"/>
     <use xlink:href="#NotoSansCJKsc-Regular-69" transform="translate(575.099869 0)"/>
     <use xlink:href="#NotoSansCJKsc-Regular-6f" transform="translate(602.599854 0)"/>
     <use xlink:href="#NotoSansCJKsc-Regular-6e" transform="translate(663.199844 0)"/>
     <use xlink:href="#NotoSansCJKsc-Regular-73" transform="translate(724.199829 0)"/>
    </g>
   </g>
   <g id="text_14">
    <!-- interpretable -->
    <g style="fill: #475569" transform="translate(292.720556 146.375725) scale(0.09 -0.09)">
     <use xlink:href="#NotoSansCJKsc-Regular-69"/>
     <use xlink:href="#NotoSansCJKsc-Regular-6e" transform="translate(27.499985 0)"/>
     <use xlink:href="#NotoSansCJKsc-Regular-74" transform="translate(88.499969 0)"/>
     <use xlink:href="#NotoSansCJKsc-Regular-65" transform="translate(126.199966 0)"/>
     <use xlink:href="#NotoSansCJKsc-Regular-72" transform="translate(181.59996 0)"/>
     <use xlink:href="#NotoSansCJKsc-Regular-70" transform="translate(220.399948 0)"/>
     <use xlink:href="#NotoSansCJKsc-Regular-72" transform="translate(282.399933 0)"/>
     <use xlink:href="#NotoSansCJKsc-Regular-65" transform="translate(321.199921 0)"/>
     <use xlink:href="#NotoSansCJKsc-Regular-74" transform="translate(376.599915 0)"/>
     <use xlink:href="#NotoSansCJKsc-Regular-61" transform="translate(414.299911 0)"/>
     <use xlink:href="#NotoSansCJKsc-Regular-62" transform="translate(470.599899 0)"/>
     <use xlink:href="#NotoSansCJKsc-Regular-6c" transform="translate(532.399887 0)"/>
     <use xlink:href="#NotoSansCJKsc-Regular-65" transform="translate(560.799881 0)"/>
    </g>
   </g>
   <g id="text_15">
    <!-- Retrieve -->
    <g style="fill: #d97706" transform="translate(423.202777 106.78712) scale(0.105 -0.105)">
     <use xlink:href="#NotoSansCJKsc-Bold-52"/>
     <use xlink:href="#NotoSansCJKsc-Bold-65" transform="translate(68.199982 0)"/>
     <use xlink:href="#NotoSansCJKsc-Bold-74" transform="translate(126.299973 0)"/>
     <use xlink:href="#NotoSansCJKsc-Bold-72" transform="translate(168.399963 0)"/>
     <use xlink:href="#NotoSansCJKsc-Bold-69" transform="translate(211.999954 0)"/>
     <use xlink:href="#NotoSansCJKsc-Bold-65" transform="translate(242.399948 0)"/>
     <use xlink:href="#NotoSansCJKsc-Bold-76" transform="translate(300.499939 0)"/>
     <use xlink:href="#NotoSansCJKsc-Bold-65" transform="translate(358.09993 0)"/>
    </g>
   </g>
   <g id="text_16">
    <!-- personal intents -->
    <g style="fill: #475569" transform="translate(410.905238 120.873325) scale(0.09 -0.09)">
     <use xlink:href="#NotoSansCJKsc-Regular-70"/>
     <use xlink:href="#NotoSansCJKsc-Regular-65" transform="translate(61.999985 0)"/>
     <use xlink:href="#NotoSansCJKsc-Regular-72" transform="translate(117.399979 0)"/>
     <use xlink:href="#NotoSansCJKsc-Regular-73" transform="translate(156.199966 0)"/>
     <use xlink:href="#NotoSansCJKsc-Regular-6f" transform="translate(202.999954 0)"/>
     <use xlink:href="#NotoSansCJKsc-Regular-6e" transform="translate(263.599945 0)"/>
     <use xlink:href="#NotoSansCJKsc-Regular-61" transform="translate(324.59993 0)"/>
     <use xlink:href="#NotoSansCJKsc-Regular-6c" transform="translate(380.899918 0)"/>
     <use xlink:href="#NotoSansCJKsc-Regular-20" transform="translate(409.299911 0)"/>
     <use xlink:href="#NotoSansCJKsc-Regular-69" transform="translate(431.699905 0)"/>
     <use xlink:href="#NotoSansCJKsc-Regular-6e" transform="translate(459.19989 0)"/>
     <use xlink:href="#NotoSansCJKsc-Regular-74" transform="translate(520.199875 0)"/>
     <use xlink:href="#NotoSansCJKsc-Regular-65" transform="translate(557.899872 0)"/>
     <use xlink:href="#NotoSansCJKsc-Regular-6e" transform="translate(613.299866 0)"/>
     <use xlink:href="#NotoSansCJKsc-Regular-74" transform="translate(674.29985 0)"/>
     <use xlink:href="#NotoSansCJKsc-Regular-73" transform="translate(711.999847 0)"/>
    </g>
   </g>
   <g id="text_17">
    <!-- + public intents -->
    <g style="fill: #475569" transform="translate(412.704534 133.624526) scale(0.09 -0.09)">
     <defs>
      <path id="NotoSansCJKsc-Regular-2b" d="M 1542 742 
L 2010 742 
L 2010 2144 
L 3315 2144 
L 3315 2579 
L 2010 2579 
L 2010 3981 
L 1542 3981 
L 1542 2579 
L 243 2579 
L 243 2144 
L 1542 2144 
L 1542 742 
z
" transform="scale(0.015625)"/>
     </defs>
     <use xlink:href="#NotoSansCJKsc-Regular-2b"/>
     <use xlink:href="#NotoSansCJKsc-Regular-20" transform="translate(55.499985 0)"/>
     <use xlink:href="#NotoSansCJKsc-Regular-70" transform="translate(77.899979 0)"/>
     <use xlink:href="#NotoSansCJKsc-Regular-75" transform="translate(139.899963 0)"/>
     <use xlink:href="#NotoSansCJKsc-Regular-62" transform="translate(200.59996 0)"/>
     <use xlink:href="#NotoSansCJKsc-Regular-6c" transform="translate(262.399948 0)"/>
     <use xlink:href="#NotoSansCJKsc-Regular-69" transform="translate(290.799942 0)"/>
     <use xlink:href="#NotoSansCJKsc-Regular-63" transform="translate(318.299927 0)"/>
     <use xlink:href="#NotoSansCJKsc-Regular-20" transform="translate(369.299911 0)"/>
     <use xlink:href="#NotoSansCJKsc-Regular-69" transform="translate(391.699905 0)"/>
     <use xlink:href="#NotoSansCJKsc-Regular-6e" transform="translate(419.19989 0)"/>
     <use xlink:href="#NotoSansCJKsc-Regular-74" transform="translate(480.199875 0)"/>
     <use xlink:href="#NotoSansCJKsc-Regular-65" transform="translate(517.899872 0)"/>
     <use xlink:href="#NotoSansCJKsc-Regular-6e" transform="translate(573.299866 0)"/>
     <use xlink:href="#NotoSansCJKsc-Regular-74" transform="translate(634.29985 0)"/>
     <use xlink:href="#NotoSansCJKsc-Regular-73" transform="translate(671.999847 0)"/>
    </g>
   </g>
   <g id="text_18">
    <!-- priors -->
    <g style="fill: #475569" transform="translate(432.700003 146.375725) scale(0.09 -0.09)">
     <use xlink:href="#NotoSansCJKsc-Regular-70"/>
     <use xlink:href="#NotoSansCJKsc-Regular-72" transform="translate(61.999985 0)"/>
     <use xlink:href="#NotoSansCJKsc-Regular-69" transform="translate(100.799973 0)"/>
     <use xlink:href="#NotoSansCJKsc-Regular-6f" transform="translate(128.299957 0)"/>
     <use xlink:href="#NotoSansCJKsc-Regular-72" transform="translate(188.899948 0)"/>
     <use xlink:href="#NotoSansCJKsc-Regular-73" transform="translate(227.699936 0)"/>
    </g>
   </g>
   <g id="text_19">
    <!-- SeqRec -->
    <g style="fill: #10b981" transform="translate(550.548122 106.78712) scale(0.105 -0.105)">
     <defs>
      <path id="NotoSansCJKsc-Bold-71" d="M 2682 -1376 
L 3622 -1376 
L 3622 3584 
L 2886 3584 
L 2803 3232 
L 2778 3232 
C 2490 3533 2202 3674 1805 3674 
C 1037 3674 301 2957 301 1792 
C 301 614 870 -90 1766 -90 
C 2112 -90 2464 90 2714 339 
L 2682 -237 
L 2682 -1376 
z
M 2010 685 
C 1536 685 1267 1056 1267 1805 
C 1267 2515 1606 2899 2010 2899 
C 2240 2899 2464 2829 2682 2630 
L 2682 1056 
C 2477 787 2259 685 2010 685 
z
" transform="scale(0.015625)"/>
     </defs>
     <use xlink:href="#NotoSansCJKsc-Bold-53"/>
     <use xlink:href="#NotoSansCJKsc-Bold-65" transform="translate(62.399994 0)"/>
     <use xlink:href="#NotoSansCJKsc-Bold-71" transform="translate(120.499985 0)"/>
     <use xlink:href="#NotoSansCJKsc-Bold-52" transform="translate(184.899979 0)"/>
     <use xlink:href="#NotoSansCJKsc-Bold-65" transform="translate(253.09996 0)"/>
     <use xlink:href="#NotoSansCJKsc-Bold-63" transform="translate(311.199951 0)"/>
    </g>
   </g>
   <g id="text_20">
    <!-- attention fusion -->
    <g style="fill: #475569" transform="translate(536.064919 120.873325) scale(0.09 -0.09)">
     <use xlink:href="#NotoSansCJKsc-Regular-61"/>
     <use xlink:href="#NotoSansCJKsc-Regular-74" transform="translate(56.299988 0)"/>
     <use xlink:href="#NotoSansCJKsc-Regular-74" transform="translate(93.999985 0)"/>
     <use xlink:href="#NotoSansCJKsc-Regular-65" transform="translate(131.699982 0)"/>
     <use xlink:href="#NotoSansCJKsc-Regular-6e" transform="translate(187.099976 0)"/>
     <use xlink:href="#NotoSansCJKsc-Regular-74" transform="translate(248.09996 0)"/>
     <use xlink:href="#NotoSansCJKsc-Regular-69" transform="translate(285.799957 0)"/>
     <use xlink:href="#NotoSansCJKsc-Regular-6f" transform="translate(313.299942 0)"/>
     <use xlink:href="#NotoSansCJKsc-Regular-6e" transform="translate(373.899933 0)"/>
     <use xlink:href="#NotoSansCJKsc-Regular-20" transform="translate(434.899918 0)"/>
     <use xlink:href="#NotoSansCJKsc-Regular-66" transform="translate(457.299911 0)"/>
     <use xlink:href="#NotoSansCJKsc-Regular-75" transform="translate(489.799896 0)"/>
     <use xlink:href="#NotoSansCJKsc-Regular-73" transform="translate(550.499893 0)"/>
     <use xlink:href="#NotoSansCJKsc-Regular-69" transform="translate(597.299881 0)"/>
     <use xlink:href="#NotoSansCJKsc-Regular-6f" transform="translate(624.799866 0)"/>
     <use xlink:href="#NotoSansCJKsc-Regular-6e" transform="translate(685.399857 0)"/>
    </g>
   </g>
   <g id="text_21">
    <!-- better ranking -->
    <g style="fill: #475569" transform="translate(539.709216 133.624526) scale(0.09 -0.09)">
     <use xlink:href="#NotoSansCJKsc-Regular-62"/>
     <use xlink:href="#NotoSansCJKsc-Regular-65" transform="translate(61.799988 0)"/>
     <use xlink:href="#NotoSansCJKsc-Regular-74" transform="translate(117.199982 0)"/>
     <use xlink:href="#NotoSansCJKsc-Regular-74" transform="translate(154.899979 0)"/>
     <use xlink:href="#NotoSansCJKsc-Regular-65" transform="translate(192.599976 0)"/>
     <use xlink:href="#NotoSansCJKsc-Regular-72" transform="translate(247.999969 0)"/>
     <use xlink:href="#NotoSansCJKsc-Regular-20" transform="translate(286.799957 0)"/>
     <use xlink:href="#NotoSansCJKsc-Regular-72" transform="translate(309.199951 0)"/>
     <use xlink:href="#NotoSansCJKsc-Regular-61" transform="translate(347.999939 0)"/>
     <use xlink:href="#NotoSansCJKsc-Regular-6e" transform="translate(404.299927 0)"/>
     <use xlink:href="#NotoSansCJKsc-Regular-6b" transform="translate(465.299911 0)"/>
     <use xlink:href="#NotoSansCJKsc-Regular-69" transform="translate(520.499908 0)"/>
     <use xlink:href="#NotoSansCJKsc-Regular-6e" transform="translate(547.999893 0)"/>
     <use xlink:href="#NotoSansCJKsc-Regular-67" transform="translate(608.999878 0)"/>
    </g>
   </g>
   <g id="text_22">
    <!-- explainable -->
    <g style="fill: #475569" transform="translate(545.249137 146.375725) scale(0.09 -0.09)">
     <use xlink:href="#NotoSansCJKsc-Regular-65"/>
     <use xlink:href="#NotoSansCJKsc-Regular-78" transform="translate(55.399994 0)"/>
     <use xlink:href="#NotoSansCJKsc-Regular-70" transform="translate(105.199982 0)"/>
     <use xlink:href="#NotoSansCJKsc-Regular-6c" transform="translate(167.199966 0)"/>
     <use xlink:href="#NotoSansCJKsc-Regular-61" transform="translate(195.59996 0)"/>
     <use xlink:href="#NotoSansCJKsc-Regular-69" transform="translate(251.899948 0)"/>
     <use xlink:href="#NotoSansCJKsc-Regular-6e" transform="translate(279.399933 0)"/>
     <use xlink:href="#NotoSansCJKsc-Regular-61" transform="translate(340.399918 0)"/>
     <use xlink:href="#NotoSansCJKsc-Regular-62" transform="translate(396.699905 0)"/>
     <use xlink:href="#NotoSansCJKsc-Regular-6c" transform="translate(458.499893 0)"/>
     <use xlink:href="#NotoSansCJKsc-Regular-65" transform="translate(486.899887 0)"/>
    </g>
   </g>
   <g id="text_23">
    <!-- Key idea: SAE turns LLM embeddings into interpretable intent atoms for Rec. -->
    <g style="fill: #64748b" transform="translate(155.813906 246.11256) scale(0.09 -0.09)">
     <defs>
      <path id="NotoSansCJKsc-Regular-4b" d="M 646 0 
L 1235 0 
L 1235 1485 
L 2042 2445 
L 3450 0 
L 4109 0 
L 2413 2912 
L 3885 4691 
L 3213 4691 
L 1248 2336 
L 1235 2336 
L 1235 4691 
L 646 4691 
L 646 0 
z
" transform="scale(0.015625)"/>
      <path id="NotoSansCJKsc-Regular-3a" d="M 890 2496 
C 1120 2496 1312 2675 1312 2944 
C 1312 3206 1120 3392 890 3392 
C 653 3392 467 3206 467 2944 
C 467 2675 653 2496 890 2496 
z
M 890 -83 
C 1120 -83 1312 96 1312 358 
C 1312 627 1120 806 890 806 
C 653 806 467 627 467 358 
C 467 96 653 -83 890 -83 
z
" transform="scale(0.015625)"/>
      <path id="NotoSansCJKsc-Regular-2e" d="M 890 -83 
C 1120 -83 1312 96 1312 358 
C 1312 627 1120 806 890 806 
C 653 806 467 627 467 358 
C 467 96 653 -83 890 -83 
z
" transform="scale(0.015625)"/>
     </defs>
     <use xlink:href="#NotoSansCJKsc-Regular-4b"/>
     <use xlink:href="#NotoSansCJKsc-Regular-65" transform="translate(64.599991 0)"/>
     <use xlink:href="#NotoSansCJKsc-Regular-79" transform="translate(119.999985 0)"/>
     <use xlink:href="#NotoSansCJKsc-Regular-20" transform="translate(172.099976 0)"/>
     <use xlink:href="#NotoSansCJKsc-Regular-69" transform="translate(194.499969 0)"/>
     <use xlink:href="#NotoSansCJKsc-Regular-64" transform="translate(221.999954 0)"/>
     <use xlink:href="#NotoSansCJKsc-Regular-65" transform="translate(283.999939 0)"/>
     <use xlink:href="#NotoSansCJKsc-Regular-61" transform="translate(339.399933 0)"/>
     <use xlink:href="#NotoSansCJKsc-Regular-3a" transform="translate(395.699921 0)"/>
     <use xlink:href="#NotoSansCJKsc-Regular-20" transform="translate(423.499908 0)"/>
     <use xlink:href="#NotoSansCJKsc-Regular-53" transform="translate(445.899902 0)"/>
     <use xlink:href="#NotoSansCJKsc-Regular-41" transform="translate(505.499893 0)"/>
     <use xlink:href="#NotoSansCJKsc-Regular-45" transform="translate(566.299881 0)"/>
     <use xlink:href="#NotoSansCJKsc-Regular-20" transform="translate(625.199875 0)"/>
     <use xlink:href="#NotoSansCJKsc-Regular-74" transform="translate(647.599869 0)"/>
     <use xlink:href="#NotoSansCJKsc-Regular-75" transform="translate(685.299866 0)"/>
     <use xlink:href="#NotoSansCJKsc-Regular-72" transform="translate(745.999863 0)"/>
     <use xlink:href="#NotoSansCJKsc-Regular-6e" transform="translate(784.79985 0)"/>
     <use xlink:href="#NotoSansCJKsc-Regular-73" transform="translate(845.799835 0)"/>
     <use xlink:href="#NotoSansCJKsc-Regular-20" transform="translate(892.599823 0)"/>
     <use xlink:href="#NotoSansCJKsc-Regular-4c" transform="translate(914.999817 0)"/>
     <use xlink:href="#NotoSansCJKsc-Regular-4c" transform="translate(969.299805 0)"/>
     <use xlink:href="#NotoSansCJKsc-Regular-4d" transform="translate(1023.599792 0)"/>
     <use xlink:href="#NotoSansCJKsc-Regular-20" transform="translate(1104.799774 0)"/>
     <use xlink:href="#NotoSansCJKsc-Regular-65" transform="translate(1127.199768 0)"/>
     <use xlink:href="#NotoSansCJKsc-Regular-6d" transform="translate(1182.599762 0)"/>
     <use xlink:href="#NotoSansCJKsc-Regular-62" transform="translate(1275.199753 0)"/>
     <use xlink:href="#NotoSansCJKsc-Regular-65" transform="translate(1336.999741 0)"/>
     <use xlink:href="#NotoSansCJKsc-Regular-64" transform="translate(1392.399734 0)"/>
     <use xlink:href="#NotoSansCJKsc-Regular-64" transform="translate(1454.399719 0)"/>
     <use xlink:href="#NotoSansCJKsc-Regular-69" transform="translate(1516.399704 0)"/>
     <use xlink:href="#NotoSansCJKsc-Regular-6e" transform="translate(1543.899689 0)"/>
     <use xlink:href="#NotoSansCJKsc-Regular-67" transform="translate(1604.899673 0)"/>
     <use xlink:href="#NotoSansCJKsc-Regular-73" transform="translate(1661.299667 0)"/>
     <use xlink:href="#NotoSansCJKsc-Regular-20" transform="translate(1708.099655 0)"/>
     <use xlink:href="#NotoSansCJKsc-Regular-69" transform="translate(1730.499649 0)"/>
     <use xlink:href="#NotoSansCJKsc-Regular-6e" transform="translate(1757.999634 0)"/>
     <use xlink:href="#NotoSansCJKsc-Regular-74" transform="translate(1818.999619 0)"/>
     <use xlink:href="#NotoSansCJKsc-Regular-6f" transform="translate(1856.699615 0)"/>
     <use xlink:href="#NotoSansCJKsc-Regular-20" transform="translate(1917.299606 0)"/>
     <use xlink:href="#NotoSansCJKsc-Regular-69" transform="translate(1939.6996 0)"/>
     <use xlink:href="#NotoSansCJKsc-Regular-6e" transform="translate(1967.199585 0)"/>
     <use xlink:href="#NotoSansCJKsc-Regular-74" transform="translate(2028.19957 0)"/>
     <use xlink:href="#NotoSansCJKsc-Regular-65" transform="translate(2065.899567 0)"/>
     <use xlink:href="#NotoSansCJKsc-Regular-72" transform="translate(2121.299561 0)"/>
     <use xlink:href="#NotoSansCJKsc-Regular-70" transform="translate(2160.099548 0)"/>
     <use xlink:href="#NotoSansCJKsc-Regular-72" transform="translate(2222.099533 0)"/>
     <use xlink:href="#NotoSansCJKsc-Regular-65" transform="translate(2260.899521 0)"/>
     <use xlink:href="#NotoSansCJKsc-Regular-74" transform="translate(2316.299515 0)"/>
     <use xlink:href="#NotoSansCJKsc-Regular-61" transform="translate(2353.999512 0)"/>
     <use xlink:href="#NotoSansCJKsc-Regular-62" transform="translate(2410.2995 0)"/>
     <use xlink:href="#NotoSansCJKsc-Regular-6c" transform="translate(2472.099487 0)"/>
     <use xlink:href="#NotoSansCJKsc-Regular-65" transform="translate(2500.499481 0)"/>
     <use xlink:href="#NotoSansCJKsc-Regular-20" transform="translate(2555.899475 0)"/>
     <use xlink:href="#NotoSansCJKsc-Regular-69" transform="translate(2578.299469 0)"/>
     <use xlink:href="#NotoSansCJKsc-Regular-6e" transform="translate(2605.799454 0)"/>
     <use xlink:href="#NotoSansCJKsc-Regular-74" transform="translate(2666.799438 0)"/>
     <use xlink:href="#NotoSansCJKsc-Regular-65" transform="translate(2704.499435 0)"/>
     <use xlink:href="#NotoSansCJKsc-Regular-6e" transform="translate(2759.899429 0)"/>
     <use xlink:href="#NotoSansCJKsc-Regular-74" transform="translate(2820.899414 0)"/>
     <use xlink:href="#NotoSansCJKsc-Regular-20" transform="translate(2858.599411 0)"/>
     <use xlink:href="#NotoSansCJKsc-Regular-61" transform="translate(2880.999405 0)"/>
     <use xlink:href="#NotoSansCJKsc-Regular-74" transform="translate(2937.299393 0)"/>
     <use xlink:href="#NotoSansCJKsc-Regular-6f" transform="translate(2974.99939 0)"/>
     <use xlink:href="#NotoSansCJKsc-Regular-6d" transform="translate(3035.59938 0)"/>
     <use xlink:href="#NotoSansCJKsc-Regular-73" transform="translate(3128.199371 0)"/>
     <use xlink:href="#NotoSansCJKsc-Regular-20" transform="translate(3174.999359 0)"/>
     <use xlink:href="#NotoSansCJKsc-Regular-66" transform="translate(3197.399353 0)"/>
     <use xlink:href="#NotoSansCJKsc-Regular-6f" transform="translate(3229.899338 0)"/>
     <use xlink:href="#NotoSansCJKsc-Regular-72" transform="translate(3290.499329 0)"/>
     <use xlink:href="#NotoSansCJKsc-Regular-20" transform="translate(3329.299316 0)"/>
     <use xlink:href="#NotoSansCJKsc-Regular-52" transform="translate(3351.69931 0)"/>
     <use xlink:href="#NotoSansCJKsc-Regular-65" transform="translate(3415.199295 0)"/>
     <use xlink:href="#NotoSansCJKsc-Regular-63" transform="translate(3470.599289 0)"/>
     <use xlink:href="#NotoSansCJKsc-Regular-2e" transform="translate(3521.599274 0)"/>
    </g>
   </g>
   <g id="patch_11">
    <path d="M 16.0056 26.49168 
L 77.3856 26.49168 
L 77.3856 15.0156 
L 16.0056 15.0156 
z
" clip-path="url(#pd55303eb90)" style="fill: #2563eb; stroke: #2563eb; stroke-linejoin: miter"/>
   </g>
  </g>
 </g>
 <defs>
  <clipPath id="pd55303eb90">
   <rect x="8.64" y="8.64" width="613.8" height="255.024"/>
  </clipPath>
 </defs>
</svg>
