<?xml version="1.0" encoding="utf-8" standalone="no"?>
<!DOCTYPE svg PUBLIC "-//W3C//DTD SVG 1.1//EN"
  "http://www.w3.org/Graphics/SVG/1.1/DTD/svg11.dtd">
<svg xmlns:xlink="http://www.w3.org/1999/xlink" width="787.896pt" height="314.497062pt" viewBox="0 0 787.896 314.497062" xmlns="http://www.w3.org/2000/svg" version="1.1">
 <metadata>
  <rdf:RDF xmlns:dc="http://purl.org/dc/elements/1.1/" xmlns:cc="http://creativecommons.org/ns#" xmlns:rdf="http://www.w3.org/1999/02/22-rdf-syntax-ns#">
   <cc:Work>
    <dc:type rdf:resource="http://purl.org/dc/dcmitype/StillImage"/>
    <dc:date>2026-06-21T19:29:07.803510</dc:date>
    <dc:format>image/svg+xml</dc:format>
    <dc:creator>
     <cc:Agent>
      <dc:title>Matplotlib v3.10.5, https://matplotlib.org/</dc:title>
     </cc:Agent>
    </dc:creator>
   </cc:Work>
  </rdf:RDF>
 </metadata>
 <defs>
  <style type="text/css">*{stroke-linejoin: round; stroke-linecap: butt}</style>
 </defs>
 <g id="figure_1">
  <g id="patch_1">
   <path d="M 0 314.497062 
L 787.896 314.497062 
L 787.896 0 
L 0 0 
z
" style="fill: #ffffff"/>
  </g>
  <g id="axes_1">
   <g id="patch_2">
    <path d="M 46.6535 274.556 
L 386.21475 274.556 
L 386.21475 76.0695 
L 46.6535 76.0695 
z
" style="fill: #ffffff"/>
   </g>
   <g id="matplotlib.axis_1">
    <g id="xtick_1">
     <g id="line2d_1">
      <defs>
       <path id="med16f8c64e" d="M 0 0 
L 0 3.5 
" style="stroke: #475569; stroke-width: 0.8"/>
      </defs>
      <g>
       <use xlink:href="#med16f8c64e" x="116.856046" y="274.556" style="fill: #475569; stroke: #475569; stroke-width: 0.8"/>
      </g>
     </g>
     <g id="text_1">
      <!-- Strongest -->
      <g style="fill: #475569" transform="translate(91.886046 290.081) scale(0.11 -0.11)">
       <defs>
        <path id="NotoSansCJKsc-Regular-53" d="M 1946 -83 
C 2925 -83 3539 506 3539 1248 
C 3539 1946 3117 2266 2573 2502 
L 1907 2790 
C 1542 2944 1126 3117 1126 3578 
C 1126 3994 1472 4256 2003 4256 
C 2438 4256 2784 4090 3072 3821 
L 3379 4198 
C 3053 4538 2560 4774 2003 4774 
C 1152 4774 525 4256 525 3533 
C 525 2848 1043 2515 1478 2330 
L 2150 2035 
C 2598 1837 2938 1683 2938 1197 
C 2938 742 2573 435 1952 435 
C 1466 435 992 666 659 1018 
L 307 608 
C 710 186 1280 -83 1946 -83 
z
" transform="scale(0.015625)"/>
        <path id="NotoSansCJKsc-Regular-74" d="M 1677 -83 
C 1894 -83 2125 -19 2323 45 
L 2208 486 
C 2093 435 1939 390 1811 390 
C 1408 390 1274 634 1274 1056 
L 1274 3002 
L 2221 3002 
L 2221 3475 
L 1274 3475 
L 1274 4454 
L 787 4454 
L 723 3475 
L 173 3443 
L 173 3002 
L 691 3002 
L 691 1075 
C 691 378 941 -83 1677 -83 
z
" transform="scale(0.015625)"/>
        <path id="NotoSansCJKsc-Regular-72" d="M 589 0 
L 1178 0 
L 1178 2234 
C 1408 2822 1760 3040 2048 3040 
C 2195 3040 2272 3021 2387 2982 
L 2496 3488 
C 2387 3546 2278 3565 2125 3565 
C 1741 3565 1382 3283 1139 2842 
L 1126 2842 
L 1069 3475 
L 589 3475 
L 589 0 
z
" transform="scale(0.015625)"/>
        <path id="NotoSansCJKsc-Regular-6f" d="M 1939 -83 
C 2790 -83 3546 582 3546 1734 
C 3546 2893 2790 3565 1939 3565 
C 1088 3565 333 2893 333 1734 
C 333 582 1088 -83 1939 -83 
z
M 1939 403 
C 1338 403 934 934 934 1734 
C 934 2534 1338 3072 1939 3072 
C 2541 3072 2950 2534 2950 1734 
C 2950 934 2541 403 1939 403 
z
" transform="scale(0.015625)"/>
        <path id="NotoSansCJKsc-Regular-6e" d="M 589 0 
L 1178 0 
L 1178 2522 
C 1523 2874 1766 3053 2125 3053 
C 2586 3053 2784 2778 2784 2125 
L 2784 0 
L 3366 0 
L 3366 2202 
C 3366 3085 3034 3565 2304 3565 
C 1830 3565 1466 3302 1139 2970 
L 1126 2970 
L 1069 3475 
L 589 3475 
L 589 0 
z
" transform="scale(0.015625)"/>
        <path id="NotoSansCJKsc-Regular-67" d="M 1760 -1600 
C 2835 -1600 3520 -1043 3520 -397 
C 3520 179 3110 429 2310 429 
L 1626 429 
C 1158 429 1018 589 1018 806 
C 1018 998 1114 1114 1242 1222 
C 1395 1146 1587 1101 1754 1101 
C 2470 1101 3027 1568 3027 2310 
C 3027 2611 2912 2867 2746 3027 
L 3456 3027 
L 3456 3475 
L 2246 3475 
C 2125 3526 1952 3565 1754 3565 
C 1056 3565 454 3085 454 2323 
C 454 1907 678 1568 909 1389 
L 909 1363 
C 723 1235 525 1005 525 717 
C 525 442 659 256 838 147 
L 838 115 
C 512 -83 326 -371 326 -672 
C 326 -1267 915 -1600 1760 -1600 
z
M 1754 1498 
C 1357 1498 1018 1818 1018 2323 
C 1018 2835 1350 3136 1754 3136 
C 2170 3136 2496 2835 2496 2323 
C 2496 1818 2157 1498 1754 1498 
z
M 1843 -1197 
C 1210 -1197 838 -960 838 -589 
C 838 -390 941 -179 1190 0 
C 1344 -38 1510 -51 1638 -51 
L 2240 -51 
C 2701 -51 2944 -166 2944 -493 
C 2944 -851 2515 -1197 1843 -1197 
z
" transform="scale(0.015625)"/>
        <path id="NotoSansCJKsc-Regular-65" d="M 1997 -83 
C 2464 -83 2835 70 3136 269 
L 2931 659 
C 2669 486 2400 384 2061 384 
C 1402 384 947 858 909 1600 
L 3251 1600 
C 3264 1690 3277 1805 3277 1933 
C 3277 2925 2778 3565 1888 3565 
C 1094 3565 333 2867 333 1734 
C 333 589 1069 -83 1997 -83 
z
M 902 2016 
C 973 2707 1408 3098 1901 3098 
C 2445 3098 2765 2720 2765 2016 
L 902 2016 
z
" transform="scale(0.015625)"/>
        <path id="NotoSansCJKsc-Regular-73" d="M 1498 -83 
C 2317 -83 2758 384 2758 947 
C 2758 1606 2208 1811 1702 2003 
C 1312 2150 954 2278 954 2605 
C 954 2880 1158 3110 1600 3110 
C 1907 3110 2150 2976 2387 2803 
L 2669 3168 
C 2406 3386 2022 3565 1594 3565 
C 832 3565 397 3130 397 2579 
C 397 1984 922 1754 1408 1574 
C 1792 1434 2202 1267 2202 915 
C 2202 614 1978 371 1517 371 
C 1101 371 794 538 486 787 
L 205 397 
C 531 122 1005 -83 1498 -83 
z
" transform="scale(0.015625)"/>
       </defs>
       <use xlink:href="#NotoSansCJKsc-Regular-53"/>
       <use xlink:href="#NotoSansCJKsc-Regular-74" transform="translate(59.599991 0)"/>
       <use xlink:href="#NotoSansCJKsc-Regular-72" transform="translate(97.299988 0)"/>
       <use xlink:href="#NotoSansCJKsc-Regular-6f" transform="translate(136.099976 0)"/>
       <use xlink:href="#NotoSansCJKsc-Regular-6e" transform="translate(196.699966 0)"/>
       <use xlink:href="#NotoSansCJKsc-Regular-67" transform="translate(257.699951 0)"/>
       <use xlink:href="#NotoSansCJKsc-Regular-65" transform="translate(314.099945 0)"/>
       <use xlink:href="#NotoSansCJKsc-Regular-73" transform="translate(369.499939 0)"/>
       <use xlink:href="#NotoSansCJKsc-Regular-74" transform="translate(416.299927 0)"/>
      </g>
      <!-- baseline -->
      <g style="fill: #475569" transform="translate(95.26253 303.337375) scale(0.11 -0.11)">
       <defs>
        <path id="NotoSansCJKsc-Regular-62" d="M 2118 -83 
C 2912 -83 3629 602 3629 1792 
C 3629 2867 3142 3565 2246 3565 
C 1856 3565 1472 3347 1152 3078 
L 1178 3699 
L 1178 5094 
L 589 5094 
L 589 0 
L 1056 0 
L 1107 358 
L 1133 358 
C 1434 83 1798 -83 2118 -83 
z
M 2022 410 
C 1792 410 1478 499 1178 768 
L 1178 2598 
C 1504 2906 1811 3072 2099 3072 
C 2765 3072 3021 2560 3021 1786 
C 3021 928 2598 410 2022 410 
z
" transform="scale(0.015625)"/>
        <path id="NotoSansCJKsc-Regular-61" d="M 1389 -83 
C 1818 -83 2208 141 2541 416 
L 2560 416 
L 2611 0 
L 3091 0 
L 3091 2138 
C 3091 3002 2739 3565 1888 3565 
C 1325 3565 838 3315 525 3110 
L 749 2707 
C 1024 2893 1389 3078 1792 3078 
C 2362 3078 2509 2650 2509 2202 
C 1030 2035 378 1658 378 902 
C 378 275 806 -83 1389 -83 
z
M 1555 390 
C 1210 390 941 544 941 941 
C 941 1389 1338 1677 2509 1811 
L 2509 845 
C 2170 544 1888 390 1555 390 
z
" transform="scale(0.015625)"/>
        <path id="NotoSansCJKsc-Regular-6c" d="M 1203 -83 
C 1363 -83 1459 -58 1542 -32 
L 1459 416 
C 1395 403 1370 403 1338 403 
C 1248 403 1178 474 1178 653 
L 1178 5094 
L 589 5094 
L 589 691 
C 589 198 768 -83 1203 -83 
z
" transform="scale(0.015625)"/>
        <path id="NotoSansCJKsc-Regular-69" d="M 589 0 
L 1178 0 
L 1178 3475 
L 589 3475 
L 589 0 
z
M 883 4192 
C 1114 4192 1274 4346 1274 4582 
C 1274 4806 1114 4960 883 4960 
C 653 4960 499 4806 499 4582 
C 499 4346 653 4192 883 4192 
z
" transform="scale(0.015625)"/>
       </defs>
       <use xlink:href="#NotoSansCJKsc-Regular-62"/>
       <use xlink:href="#NotoSansCJKsc-Regular-61" transform="translate(61.799988 0)"/>
       <use xlink:href="#NotoSansCJKsc-Regular-73" transform="translate(118.099976 0)"/>
       <use xlink:href="#NotoSansCJKsc-Regular-65" transform="translate(164.899963 0)"/>
       <use xlink:href="#NotoSansCJKsc-Regular-6c" transform="translate(220.299957 0)"/>
       <use xlink:href="#NotoSansCJKsc-Regular-69" transform="translate(248.699951 0)"/>
       <use xlink:href="#NotoSansCJKsc-Regular-6e" transform="translate(276.199936 0)"/>
       <use xlink:href="#NotoSansCJKsc-Regular-65" transform="translate(337.199921 0)"/>
      </g>
     </g>
    </g>
    <g id="xtick_2">
     <g id="line2d_2">
      <g>
       <use xlink:href="#med16f8c64e" x="316.012204" y="274.556" style="fill: #475569; stroke: #475569; stroke-width: 0.8"/>
      </g>
     </g>
     <g id="text_2">
      <!-- TimeProVe -->
      <g style="fill: #475569" transform="translate(287.907204 290.311312) scale(0.11 -0.11)">
       <defs>
        <path id="NotoSansCJKsc-Regular-54" d="M 1619 0 
L 2214 0 
L 2214 4192 
L 3635 4192 
L 3635 4691 
L 198 4691 
L 198 4192 
L 1619 4192 
L 1619 0 
z
" transform="scale(0.015625)"/>
        <path id="NotoSansCJKsc-Regular-6d" d="M 589 0 
L 1178 0 
L 1178 2522 
C 1491 2880 1786 3053 2048 3053 
C 2490 3053 2694 2778 2694 2125 
L 2694 0 
L 3277 0 
L 3277 2522 
C 3603 2880 3885 3053 4154 3053 
C 4595 3053 4800 2778 4800 2125 
L 4800 0 
L 5382 0 
L 5382 2202 
C 5382 3085 5043 3565 4333 3565 
C 3904 3565 3546 3290 3181 2899 
C 3040 3309 2758 3565 2221 3565 
C 1805 3565 1446 3302 1139 2970 
L 1126 2970 
L 1069 3475 
L 589 3475 
L 589 0 
z
" transform="scale(0.015625)"/>
        <path id="NotoSansCJKsc-Regular-50" d="M 646 0 
L 1235 0 
L 1235 1869 
L 2010 1869 
C 3040 1869 3738 2323 3738 3315 
C 3738 4339 3034 4691 1984 4691 
L 646 4691 
L 646 0 
z
M 1235 2349 
L 1235 4211 
L 1907 4211 
C 2733 4211 3149 4000 3149 3315 
C 3149 2643 2758 2349 1933 2349 
L 1235 2349 
z
" transform="scale(0.015625)"/>
        <path id="NotoSansCJKsc-Regular-56" d="M 1504 0 
L 2189 0 
L 3680 4691 
L 3078 4691 
L 2323 2150 
C 2163 1600 2048 1152 1869 602 
L 1843 602 
C 1670 1152 1549 1600 1389 2150 
L 627 4691 
L 6 4691 
L 1504 0 
z
" transform="scale(0.015625)"/>
       </defs>
       <use xlink:href="#NotoSansCJKsc-Regular-54"/>
       <use xlink:href="#NotoSansCJKsc-Regular-69" transform="translate(59.899994 0)"/>
       <use xlink:href="#NotoSansCJKsc-Regular-6d" transform="translate(87.399979 0)"/>
       <use xlink:href="#NotoSansCJKsc-Regular-65" transform="translate(179.999969 0)"/>
       <use xlink:href="#NotoSansCJKsc-Regular-50" transform="translate(235.399963 0)"/>
       <use xlink:href="#NotoSansCJKsc-Regular-72" transform="translate(298.699951 0)"/>
       <use xlink:href="#NotoSansCJKsc-Regular-6f" transform="translate(337.499939 0)"/>
       <use xlink:href="#NotoSansCJKsc-Regular-56" transform="translate(398.09993 0)"/>
       <use xlink:href="#NotoSansCJKsc-Regular-65" transform="translate(455.599915 0)"/>
      </g>
      <!-- (Ours) -->
      <g style="fill: #475569" transform="translate(300.167048 303.337375) scale(0.11 -0.11)">
       <defs>
        <path id="NotoSansCJKsc-Regular-28" d="M 1530 -1254 
L 1888 -1094 
C 1338 -186 1075 902 1075 1990 
C 1075 3072 1338 4154 1888 5069 
L 1530 5235 
C 941 4275 589 3245 589 1990 
C 589 730 941 -301 1530 -1254 
z
" transform="scale(0.015625)"/>
        <path id="NotoSansCJKsc-Regular-4f" d="M 2374 -83 
C 3552 -83 4378 858 4378 2362 
C 4378 3866 3552 4774 2374 4774 
C 1197 4774 371 3866 371 2362 
C 371 858 1197 -83 2374 -83 
z
M 2374 435 
C 1530 435 979 1190 979 2362 
C 979 3533 1530 4256 2374 4256 
C 3219 4256 3770 3533 3770 2362 
C 3770 1190 3219 435 2374 435 
z
" transform="scale(0.015625)"/>
        <path id="NotoSansCJKsc-Regular-75" d="M 1606 -83 
C 2080 -83 2426 166 2752 544 
L 2771 544 
L 2816 0 
L 3302 0 
L 3302 3475 
L 2720 3475 
L 2720 1011 
C 2387 602 2138 422 1779 422 
C 1318 422 1126 698 1126 1344 
L 1126 3475 
L 538 3475 
L 538 1274 
C 538 384 870 -83 1606 -83 
z
" transform="scale(0.015625)"/>
        <path id="NotoSansCJKsc-Regular-29" d="M 634 -1254 
C 1222 -301 1574 730 1574 1990 
C 1574 3245 1222 4275 634 5235 
L 269 5069 
C 819 4154 1094 3072 1094 1990 
C 1094 902 819 -186 269 -1094 
L 634 -1254 
z
" transform="scale(0.015625)"/>
       </defs>
       <use xlink:href="#NotoSansCJKsc-Regular-28"/>
       <use xlink:href="#NotoSansCJKsc-Regular-4f" transform="translate(33.799988 0)"/>
       <use xlink:href="#NotoSansCJKsc-Regular-75" transform="translate(107.999969 0)"/>
       <use xlink:href="#NotoSansCJKsc-Regular-72" transform="translate(168.699966 0)"/>
       <use xlink:href="#NotoSansCJKsc-Regular-73" transform="translate(207.499954 0)"/>
       <use xlink:href="#NotoSansCJKsc-Regular-29" transform="translate(254.299942 0)"/>
      </g>
     </g>
    </g>
   </g>
   <g id="matplotlib.axis_2">
    <g id="ytick_1">
     <g id="line2d_3">
      <path d="M 46.6535 274.556 
L 386.21475 274.556 
" clip-path="url(#pa93f1f05d8)" style="fill: none; stroke: #e5e7eb; stroke-width: 0.8; stroke-linecap: square"/>
     </g>
     <g id="line2d_4">
      <defs>
       <path id="m94a016f223" d="M 0 0 
L -3.5 0 
" style="stroke: #475569; stroke-width: 0.8"/>
      </defs>
      <g>
       <use xlink:href="#m94a016f223" x="46.6535" y="274.556" style="fill: #475569; stroke: #475569; stroke-width: 0.8"/>
      </g>
     </g>
     <g id="text_3">
      <!-- 0 -->
      <g style="fill: #475569" transform="translate(33.5485 278.933656) scale(0.11 -0.11)">
       <defs>
        <path id="NotoSansCJKsc-Regular-30" d="M 1779 -83 
C 2669 -83 3238 723 3238 2362 
C 3238 3987 2669 4774 1779 4774 
C 883 4774 320 3987 320 2362 
C 320 723 883 -83 1779 -83 
z
M 1779 390 
C 1248 390 883 986 883 2362 
C 883 3731 1248 4314 1779 4314 
C 2310 4314 2675 3731 2675 2362 
C 2675 986 2310 390 1779 390 
z
" transform="scale(0.015625)"/>
       </defs>
       <use xlink:href="#NotoSansCJKsc-Regular-30"/>
      </g>
     </g>
    </g>
    <g id="ytick_2">
     <g id="line2d_5">
      <path d="M 46.6535 241.474917 
L 386.21475 241.474917 
" clip-path="url(#pa93f1f05d8)" style="fill: none; stroke: #e5e7eb; stroke-width: 0.8; stroke-linecap: square"/>
     </g>
     <g id="line2d_6">
      <g>
       <use xlink:href="#m94a016f223" x="46.6535" y="241.474917" style="fill: #475569; stroke: #475569; stroke-width: 0.8"/>
      </g>
     </g>
     <g id="text_4">
      <!-- 10 -->
      <g style="fill: #475569" transform="translate(27.4435 245.852573) scale(0.11 -0.11)">
       <defs>
        <path id="NotoSansCJKsc-Regular-31" d="M 563 0 
L 3136 0 
L 3136 486 
L 2195 486 
L 2195 4691 
L 1747 4691 
C 1491 4544 1190 4435 774 4358 
L 774 3987 
L 1613 3987 
L 1613 486 
L 563 486 
L 563 0 
z
" transform="scale(0.015625)"/>
       </defs>
       <use xlink:href="#NotoSansCJKsc-Regular-31"/>
       <use xlink:href="#NotoSansCJKsc-Regular-30" transform="translate(55.499985 0)"/>
      </g>
     </g>
    </g>
    <g id="ytick_3">
     <g id="line2d_7">
      <path d="M 46.6535 208.393833 
L 386.21475 208.393833 
" clip-path="url(#pa93f1f05d8)" style="fill: none; stroke: #e5e7eb; stroke-width: 0.8; stroke-linecap: square"/>
     </g>
     <g id="line2d_8">
      <g>
       <use xlink:href="#m94a016f223" x="46.6535" y="208.393833" style="fill: #475569; stroke: #475569; stroke-width: 0.8"/>
      </g>
     </g>
     <g id="text_5">
      <!-- 20 -->
      <g style="fill: #475569" transform="translate(27.4435 212.77149) scale(0.11 -0.11)">
       <defs>
        <path id="NotoSansCJKsc-Regular-32" d="M 282 0 
L 3232 0 
L 3232 506 
L 1933 506 
C 1696 506 1408 480 1165 461 
C 2266 1504 3008 2458 3008 3398 
C 3008 4230 2477 4774 1638 4774 
C 1043 4774 634 4506 256 4090 
L 595 3757 
C 858 4070 1184 4301 1568 4301 
C 2150 4301 2432 3910 2432 3373 
C 2432 2566 1754 1632 282 346 
L 282 0 
z
" transform="scale(0.015625)"/>
       </defs>
       <use xlink:href="#NotoSansCJKsc-Regular-32"/>
       <use xlink:href="#NotoSansCJKsc-Regular-30" transform="translate(55.499985 0)"/>
      </g>
     </g>
    </g>
    <g id="ytick_4">
     <g id="line2d_9">
      <path d="M 46.6535 175.31275 
L 386.21475 175.31275 
" clip-path="url(#pa93f1f05d8)" style="fill: none; stroke: #e5e7eb; stroke-width: 0.8; stroke-linecap: square"/>
     </g>
     <g id="line2d_10">
      <g>
       <use xlink:href="#m94a016f223" x="46.6535" y="175.31275" style="fill: #475569; stroke: #475569; stroke-width: 0.8"/>
      </g>
     </g>
     <g id="text_6">
      <!-- 30 -->
      <g style="fill: #475569" transform="translate(27.4435 179.690406) scale(0.11 -0.11)">
       <defs>
        <path id="NotoSansCJKsc-Regular-33" d="M 1683 -83 
C 2522 -83 3194 416 3194 1254 
C 3194 1901 2752 2310 2202 2445 
L 2202 2477 
C 2701 2650 3034 3034 3034 3603 
C 3034 4346 2458 4774 1664 4774 
C 1126 4774 710 4538 358 4218 
L 672 3846 
C 941 4115 1267 4301 1645 4301 
C 2138 4301 2438 4006 2438 3558 
C 2438 3053 2112 2662 1139 2662 
L 1139 2214 
C 2227 2214 2598 1843 2598 1274 
C 2598 736 2208 403 1645 403 
C 1114 403 762 659 486 941 
L 186 563 
C 493 224 954 -83 1683 -83 
z
" transform="scale(0.015625)"/>
       </defs>
       <use xlink:href="#NotoSansCJKsc-Regular-33"/>
       <use xlink:href="#NotoSansCJKsc-Regular-30" transform="translate(55.499985 0)"/>
      </g>
     </g>
    </g>
    <g id="ytick_5">
     <g id="line2d_11">
      <path d="M 46.6535 142.231667 
L 386.21475 142.231667 
" clip-path="url(#pa93f1f05d8)" style="fill: none; stroke: #e5e7eb; stroke-width: 0.8; stroke-linecap: square"/>
     </g>
     <g id="line2d_12">
      <g>
       <use xlink:href="#m94a016f223" x="46.6535" y="142.231667" style="fill: #475569; stroke: #475569; stroke-width: 0.8"/>
      </g>
     </g>
     <g id="text_7">
      <!-- 40 -->
      <g style="fill: #475569" transform="translate(27.4435 146.609323) scale(0.11 -0.11)">
       <defs>
        <path id="NotoSansCJKsc-Regular-34" d="M 2176 0 
L 2726 0 
L 2726 1293 
L 3354 1293 
L 3354 1760 
L 2726 1760 
L 2726 4691 
L 2080 4691 
L 128 1677 
L 128 1293 
L 2176 1293 
L 2176 0 
z
M 2176 1760 
L 736 1760 
L 1805 3360 
C 1939 3590 2067 3827 2182 4051 
L 2208 4051 
C 2195 3814 2176 3430 2176 3200 
L 2176 1760 
z
" transform="scale(0.015625)"/>
       </defs>
       <use xlink:href="#NotoSansCJKsc-Regular-34"/>
       <use xlink:href="#NotoSansCJKsc-Regular-30" transform="translate(55.499985 0)"/>
      </g>
     </g>
    </g>
    <g id="ytick_6">
     <g id="line2d_13">
      <path d="M 46.6535 109.150583 
L 386.21475 109.150583 
" clip-path="url(#pa93f1f05d8)" style="fill: none; stroke: #e5e7eb; stroke-width: 0.8; stroke-linecap: square"/>
     </g>
     <g id="line2d_14">
      <g>
       <use xlink:href="#m94a016f223" x="46.6535" y="109.150583" style="fill: #475569; stroke: #475569; stroke-width: 0.8"/>
      </g>
     </g>
     <g id="text_8">
      <!-- 50 -->
      <g style="fill: #475569" transform="translate(27.4435 113.52824) scale(0.11 -0.11)">
       <defs>
        <path id="NotoSansCJKsc-Regular-35" d="M 1677 -83 
C 2464 -83 3213 499 3213 1523 
C 3213 2560 2573 3021 1798 3021 
C 1517 3021 1306 2950 1094 2835 
L 1216 4192 
L 2982 4192 
L 2982 4691 
L 704 4691 
L 550 2502 
L 864 2304 
C 1133 2483 1331 2579 1645 2579 
C 2234 2579 2618 2182 2618 1510 
C 2618 826 2176 403 1619 403 
C 1075 403 730 653 467 922 
L 173 538 
C 493 224 941 -83 1677 -83 
z
" transform="scale(0.015625)"/>
       </defs>
       <use xlink:href="#NotoSansCJKsc-Regular-35"/>
       <use xlink:href="#NotoSansCJKsc-Regular-30" transform="translate(55.499985 0)"/>
      </g>
     </g>
    </g>
    <g id="ytick_7">
     <g id="line2d_15">
      <path d="M 46.6535 76.0695 
L 386.21475 76.0695 
" clip-path="url(#pa93f1f05d8)" style="fill: none; stroke: #e5e7eb; stroke-width: 0.8; stroke-linecap: square"/>
     </g>
     <g id="line2d_16">
      <g>
       <use xlink:href="#m94a016f223" x="46.6535" y="76.0695" style="fill: #475569; stroke: #475569; stroke-width: 0.8"/>
      </g>
     </g>
     <g id="text_9">
      <!-- 60 -->
      <g style="fill: #475569" transform="translate(27.4435 80.447156) scale(0.11 -0.11)">
       <defs>
        <path id="NotoSansCJKsc-Regular-36" d="M 1926 -83 
C 2656 -83 3277 531 3277 1440 
C 3277 2426 2765 2912 1971 2912 
C 1606 2912 1197 2701 909 2349 
C 934 3802 1466 4294 2118 4294 
C 2400 4294 2682 4154 2861 3936 
L 3194 4294 
C 2931 4576 2579 4774 2093 4774 
C 1184 4774 358 4077 358 2240 
C 358 691 1030 -83 1926 -83 
z
M 922 1882 
C 1229 2317 1587 2477 1875 2477 
C 2445 2477 2720 2074 2720 1440 
C 2720 800 2374 378 1926 378 
C 1338 378 986 909 922 1882 
z
" transform="scale(0.015625)"/>
       </defs>
       <use xlink:href="#NotoSansCJKsc-Regular-36"/>
       <use xlink:href="#NotoSansCJKsc-Regular-30" transform="translate(55.499985 0)"/>
      </g>
     </g>
    </g>
    <g id="text_10">
     <!-- OpenTSUBench overall accuracy (%) -->
     <g style="fill: #0f172a" transform="translate(20.868813 268.928766) rotate(-90) scale(0.11 -0.11)">
      <defs>
       <path id="NotoSansCJKsc-Regular-70" d="M 589 -1466 
L 1178 -1466 
L 1178 -288 
L 1158 320 
C 1472 58 1805 -83 2118 -83 
C 2912 -83 3629 602 3629 1792 
C 3629 2867 3142 3565 2246 3565 
C 1843 3565 1453 3334 1139 3072 
L 1126 3072 
L 1069 3475 
L 589 3475 
L 589 -1466 
z
M 2022 410 
C 1792 410 1485 499 1178 768 
L 1178 2598 
C 1510 2906 1811 3072 2099 3072 
C 2765 3072 3021 2560 3021 1786 
C 3021 928 2598 410 2022 410 
z
" transform="scale(0.015625)"/>
       <path id="NotoSansCJKsc-Regular-55" d="M 2310 -83 
C 3264 -83 3994 429 3994 1933 
L 3994 4691 
L 3424 4691 
L 3424 1920 
C 3424 794 2931 435 2310 435 
C 1696 435 1216 794 1216 1920 
L 1216 4691 
L 627 4691 
L 627 1933 
C 627 429 1350 -83 2310 -83 
z
" transform="scale(0.015625)"/>
       <path id="NotoSansCJKsc-Regular-42" d="M 646 0 
L 2138 0 
C 3187 0 3917 454 3917 1376 
C 3917 2016 3520 2387 2963 2496 
L 2963 2528 
C 3405 2669 3648 3078 3648 3546 
C 3648 4371 2982 4691 2035 4691 
L 646 4691 
L 646 0 
z
M 1235 2701 
L 1235 4224 
L 1958 4224 
C 2694 4224 3066 4019 3066 3469 
C 3066 2989 2739 2701 1933 2701 
L 1235 2701 
z
M 1235 474 
L 1235 2240 
L 2054 2240 
C 2880 2240 3334 1978 3334 1395 
C 3334 762 2861 474 2054 474 
L 1235 474 
z
" transform="scale(0.015625)"/>
       <path id="NotoSansCJKsc-Regular-63" d="M 1958 -83 
C 2374 -83 2771 83 3085 352 
L 2829 749 
C 2611 557 2330 403 2010 403 
C 1370 403 934 934 934 1734 
C 934 2534 1395 3072 2029 3072 
C 2298 3072 2522 2950 2720 2771 
L 3014 3155 
C 2771 3373 2458 3565 2003 3565 
C 1107 3565 333 2893 333 1734 
C 333 582 1037 -83 1958 -83 
z
" transform="scale(0.015625)"/>
       <path id="NotoSansCJKsc-Regular-68" d="M 589 0 
L 1178 0 
L 1178 2522 
C 1523 2874 1766 3053 2125 3053 
C 2586 3053 2784 2778 2784 2125 
L 2784 0 
L 3366 0 
L 3366 2202 
C 3366 3085 3034 3565 2304 3565 
C 1830 3565 1472 3302 1152 2982 
L 1178 3699 
L 1178 5094 
L 589 5094 
L 589 0 
z
" transform="scale(0.015625)"/>
       <path id="NotoSansCJKsc-Regular-20" transform="scale(0.015625)"/>
       <path id="NotoSansCJKsc-Regular-76" d="M 1338 0 
L 2022 0 
L 3251 3475 
L 2675 3475 
L 2016 1498 
C 1914 1158 1798 806 1696 474 
L 1664 474 
C 1562 806 1453 1158 1344 1498 
L 691 3475 
L 83 3475 
L 1338 0 
z
" transform="scale(0.015625)"/>
       <path id="NotoSansCJKsc-Regular-79" d="M 646 -1498 
C 1338 -1498 1702 -973 1946 -294 
L 3251 3475 
L 2682 3475 
L 2054 1549 
C 1965 1235 1862 883 1773 563 
L 1741 563 
C 1619 890 1504 1242 1395 1549 
L 691 3475 
L 83 3475 
L 1478 -6 
L 1402 -269 
C 1254 -698 1011 -1018 621 -1018 
C 525 -1018 422 -986 352 -960 
L 237 -1427 
C 346 -1472 486 -1498 646 -1498 
z
" transform="scale(0.015625)"/>
       <path id="NotoSansCJKsc-Regular-25" d="M 1312 1818 
C 1958 1818 2381 2362 2381 3309 
C 2381 4243 1958 4774 1312 4774 
C 672 4774 250 4243 250 3309 
C 250 2362 672 1818 1312 1818 
z
M 1312 2176 
C 941 2176 691 2560 691 3309 
C 691 4058 941 4416 1312 4416 
C 1683 4416 1933 4058 1933 3309 
C 1933 2560 1683 2176 1312 2176 
z
M 1446 -83 
L 1843 -83 
L 4435 4774 
L 4038 4774 
L 1446 -83 
z
M 4582 -83 
C 5222 -83 5645 454 5645 1402 
C 5645 2342 5222 2874 4582 2874 
C 3942 2874 3520 2342 3520 1402 
C 3520 454 3942 -83 4582 -83 
z
M 4582 275 
C 4211 275 3955 653 3955 1402 
C 3955 2150 4211 2515 4582 2515 
C 4947 2515 5210 2150 5210 1402 
C 5210 653 4947 275 4582 275 
z
" transform="scale(0.015625)"/>
      </defs>
      <use xlink:href="#NotoSansCJKsc-Regular-4f"/>
      <use xlink:href="#NotoSansCJKsc-Regular-70" transform="translate(74.199982 0)"/>
      <use xlink:href="#NotoSansCJKsc-Regular-65" transform="translate(136.199966 0)"/>
      <use xlink:href="#NotoSansCJKsc-Regular-6e" transform="translate(191.59996 0)"/>
      <use xlink:href="#NotoSansCJKsc-Regular-54" transform="translate(252.599945 0)"/>
      <use xlink:href="#NotoSansCJKsc-Regular-53" transform="translate(312.499939 0)"/>
      <use xlink:href="#NotoSansCJKsc-Regular-55" transform="translate(372.09993 0)"/>
      <use xlink:href="#NotoSansCJKsc-Regular-42" transform="translate(444.199921 0)"/>
      <use xlink:href="#NotoSansCJKsc-Regular-65" transform="translate(509.899918 0)"/>
      <use xlink:href="#NotoSansCJKsc-Regular-6e" transform="translate(565.299911 0)"/>
      <use xlink:href="#NotoSansCJKsc-Regular-63" transform="translate(626.299896 0)"/>
      <use xlink:href="#NotoSansCJKsc-Regular-68" transform="translate(677.299881 0)"/>
      <use xlink:href="#NotoSansCJKsc-Regular-20" transform="translate(737.999878 0)"/>
      <use xlink:href="#NotoSansCJKsc-Regular-6f" transform="translate(760.399872 0)"/>
      <use xlink:href="#NotoSansCJKsc-Regular-76" transform="translate(820.999863 0)"/>
      <use xlink:href="#NotoSansCJKsc-Regular-65" transform="translate(873.099854 0)"/>
      <use xlink:href="#NotoSansCJKsc-Regular-72" transform="translate(928.499847 0)"/>
      <use xlink:href="#NotoSansCJKsc-Regular-61" transform="translate(967.299835 0)"/>
      <use xlink:href="#NotoSansCJKsc-Regular-6c" transform="translate(1023.599823 0)"/>
      <use xlink:href="#NotoSansCJKsc-Regular-6c" transform="translate(1051.999817 0)"/>
      <use xlink:href="#NotoSansCJKsc-Regular-20" transform="translate(1080.399811 0)"/>
      <use xlink:href="#NotoSansCJKsc-Regular-61" transform="translate(1102.799805 0)"/>
      <use xlink:href="#NotoSansCJKsc-Regular-63" transform="translate(1159.099792 0)"/>
      <use xlink:href="#NotoSansCJKsc-Regular-63" transform="translate(1210.099777 0)"/>
      <use xlink:href="#NotoSansCJKsc-Regular-75" transform="translate(1261.099762 0)"/>
      <use xlink:href="#NotoSansCJKsc-Regular-72" transform="translate(1321.799759 0)"/>
      <use xlink:href="#NotoSansCJKsc-Regular-61" transform="translate(1360.599747 0)"/>
      <use xlink:href="#NotoSansCJKsc-Regular-63" transform="translate(1416.899734 0)"/>
      <use xlink:href="#NotoSansCJKsc-Regular-79" transform="translate(1467.899719 0)"/>
      <use xlink:href="#NotoSansCJKsc-Regular-20" transform="translate(1519.99971 0)"/>
      <use xlink:href="#NotoSansCJKsc-Regular-28" transform="translate(1542.399704 0)"/>
      <use xlink:href="#NotoSansCJKsc-Regular-25" transform="translate(1576.199692 0)"/>
      <use xlink:href="#NotoSansCJKsc-Regular-29" transform="translate(1668.299683 0)"/>
     </g>
    </g>
   </g>
   <g id="patch_3">
    <path d="M 46.6535 274.556 
L 46.6535 76.0695 
" style="fill: none; stroke: #94a3b8; stroke-width: 0.8; stroke-linejoin: miter; stroke-linecap: square"/>
   </g>
   <g id="patch_4">
    <path d="M 46.6535 274.556 
L 386.21475 274.556 
" style="fill: none; stroke: #94a3b8; stroke-width: 0.8; stroke-linejoin: miter; stroke-linecap: square"/>
   </g>
   <g id="patch_5">
    <path d="M 62.088102 274.556 
L 171.623989 274.556 
L 171.623989 149.509505 
L 62.088102 149.509505 
z
" clip-path="url(#pa93f1f05d8)" style="fill: #94a3b8"/>
   </g>
   <g id="patch_6">
    <path d="M 261.244261 274.556 
L 370.780148 274.556 
L 370.780148 125.360314 
L 261.244261 125.360314 
z
" clip-path="url(#pa93f1f05d8)" style="fill: #2563eb"/>
   </g>
   <g id="text_11">
    <!-- 37.8 -->
    <g style="fill: #0f172a" transform="translate(107.114296 147.510005) scale(0.093 -0.093)">
     <defs>
      <path id="NotoSansCJKsc-Bold-33" d="M 1747 -90 
C 2656 -90 3418 410 3418 1280 
C 3418 1907 3008 2304 2477 2451 
L 2477 2483 
C 2976 2682 3264 3053 3264 3565 
C 3264 4378 2643 4826 1728 4826 
C 1171 4826 717 4602 307 4250 
L 794 3667 
C 1069 3930 1344 4083 1683 4083 
C 2086 4083 2317 3866 2317 3494 
C 2317 3066 2035 2771 1171 2771 
L 1171 2093 
C 2195 2093 2470 1805 2470 1338 
C 2470 915 2144 678 1664 678 
C 1229 678 890 890 608 1165 
L 166 570 
C 499 192 1005 -90 1747 -90 
z
" transform="scale(0.015625)"/>
      <path id="NotoSansCJKsc-Bold-37" d="M 1190 0 
L 2138 0 
C 2221 1850 2368 2822 3469 4166 
L 3469 4742 
L 320 4742 
L 320 3949 
L 2451 3949 
C 1549 2694 1274 1645 1190 0 
z
" transform="scale(0.015625)"/>
      <path id="NotoSansCJKsc-Bold-2e" d="M 1043 -90 
C 1376 -90 1626 179 1626 525 
C 1626 877 1376 1139 1043 1139 
C 704 1139 454 877 454 525 
C 454 179 704 -90 1043 -90 
z
" transform="scale(0.015625)"/>
      <path id="NotoSansCJKsc-Bold-38" d="M 1888 -90 
C 2842 -90 3482 461 3482 1178 
C 3482 1824 3123 2208 2682 2445 
L 2682 2477 
C 2989 2701 3290 3091 3290 3558 
C 3290 4314 2752 4819 1914 4819 
C 1088 4819 486 4333 486 3565 
C 486 3066 749 2707 1114 2445 
L 1114 2413 
C 672 2182 301 1786 301 1178 
C 301 435 973 -90 1888 -90 
z
M 2182 2707 
C 1690 2906 1318 3123 1318 3565 
C 1318 3949 1574 4160 1894 4160 
C 2291 4160 2522 3885 2522 3501 
C 2522 3219 2413 2944 2182 2707 
z
M 1907 576 
C 1466 576 1114 851 1114 1280 
C 1114 1638 1293 1952 1549 2163 
C 2163 1901 2605 1702 2605 1210 
C 2605 800 2310 576 1907 576 
z
" transform="scale(0.015625)"/>
     </defs>
     <use xlink:href="#NotoSansCJKsc-Bold-33"/>
     <use xlink:href="#NotoSansCJKsc-Bold-37" transform="translate(58.999985 0)"/>
     <use xlink:href="#NotoSansCJKsc-Bold-2e" transform="translate(117.999969 0)"/>
     <use xlink:href="#NotoSansCJKsc-Bold-38" transform="translate(150.499954 0)"/>
    </g>
   </g>
   <g id="text_12">
    <!-- 45.1 -->
    <g style="fill: #0f172a" transform="translate(306.270454 123.360814) scale(0.093 -0.093)">
     <defs>
      <path id="NotoSansCJKsc-Bold-34" d="M 2157 0 
L 3034 0 
L 3034 1229 
L 3597 1229 
L 3597 1946 
L 3034 1946 
L 3034 4742 
L 1901 4742 
L 134 1869 
L 134 1229 
L 2157 1229 
L 2157 0 
z
M 2157 1946 
L 1050 1946 
L 1786 3123 
C 1920 3379 2048 3642 2163 3898 
L 2195 3898 
C 2176 3616 2157 3187 2157 2912 
L 2157 1946 
z
" transform="scale(0.015625)"/>
      <path id="NotoSansCJKsc-Bold-35" d="M 1773 -90 
C 2637 -90 3424 518 3424 1574 
C 3424 2605 2765 3072 1965 3072 
C 1747 3072 1581 3034 1395 2944 
L 1485 3949 
L 3206 3949 
L 3206 4742 
L 672 4742 
L 544 2438 
L 973 2163 
C 1254 2342 1408 2406 1683 2406 
C 2157 2406 2483 2099 2483 1549 
C 2483 992 2138 678 1645 678 
C 1210 678 870 896 602 1158 
L 166 557 
C 525 205 1018 -90 1773 -90 
z
" transform="scale(0.015625)"/>
      <path id="NotoSansCJKsc-Bold-31" d="M 525 0 
L 3373 0 
L 3373 768 
L 2483 768 
L 2483 4742 
L 1786 4742 
C 1485 4550 1165 4429 685 4346 
L 685 3757 
L 1549 3757 
L 1549 768 
L 525 768 
L 525 0 
z
" transform="scale(0.015625)"/>
     </defs>
     <use xlink:href="#NotoSansCJKsc-Bold-34"/>
     <use xlink:href="#NotoSansCJKsc-Bold-35" transform="translate(58.999985 0)"/>
     <use xlink:href="#NotoSansCJKsc-Bold-2e" transform="translate(117.999969 0)"/>
     <use xlink:href="#NotoSansCJKsc-Bold-31" transform="translate(150.499954 0)"/>
    </g>
   </g>
   <g id="text_13">
    <!-- +7.3% -->
    <g style="fill: #2563eb" transform="translate(299.193376 99.226258) scale(0.11 -0.11)">
     <defs>
      <path id="NotoSansCJKsc-Bold-2b" d="M 1536 704 
L 2234 704 
L 2234 2061 
L 3526 2061 
L 3526 2733 
L 2234 2733 
L 2234 4096 
L 1536 4096 
L 1536 2733 
L 250 2733 
L 250 2061 
L 1536 2061 
L 1536 704 
z
" transform="scale(0.015625)"/>
      <path id="NotoSansCJKsc-Bold-25" d="M 1357 1824 
C 2035 1824 2515 2381 2515 3334 
C 2515 4282 2035 4826 1357 4826 
C 678 4826 205 4282 205 3334 
C 205 2381 678 1824 1357 1824 
z
M 1357 2355 
C 1082 2355 864 2637 864 3334 
C 864 4026 1082 4294 1357 4294 
C 1632 4294 1850 4026 1850 3334 
C 1850 2637 1632 2355 1357 2355 
z
M 1510 -90 
L 2074 -90 
L 4646 4826 
L 4090 4826 
L 1510 -90 
z
M 4806 -90 
C 5478 -90 5958 467 5958 1421 
C 5958 2368 5478 2918 4806 2918 
C 4128 2918 3648 2368 3648 1421 
C 3648 467 4128 -90 4806 -90 
z
M 4806 448 
C 4525 448 4314 730 4314 1421 
C 4314 2125 4525 2381 4806 2381 
C 5082 2381 5293 2125 5293 1421 
C 5293 730 5082 448 4806 448 
z
" transform="scale(0.015625)"/>
     </defs>
     <use xlink:href="#NotoSansCJKsc-Bold-2b"/>
     <use xlink:href="#NotoSansCJKsc-Bold-37" transform="translate(58.999985 0)"/>
     <use xlink:href="#NotoSansCJKsc-Bold-2e" transform="translate(117.999969 0)"/>
     <use xlink:href="#NotoSansCJKsc-Bold-33" transform="translate(150.499954 0)"/>
     <use xlink:href="#NotoSansCJKsc-Bold-25" transform="translate(209.499939 0)"/>
    </g>
   </g>
   <g id="text_14">
    <!-- +7.3% over the strongest baseline -->
    <g style="fill: #475569" transform="translate(130.054906 70.0695) scale(0.11 -0.11)">
     <defs>
      <path id="NotoSansCJKsc-Regular-2b" d="M 1542 742 
L 2010 742 
L 2010 2144 
L 3315 2144 
L 3315 2579 
L 2010 2579 
L 2010 3981 
L 1542 3981 
L 1542 2579 
L 243 2579 
L 243 2144 
L 1542 2144 
L 1542 742 
z
" transform="scale(0.015625)"/>
      <path id="NotoSansCJKsc-Regular-37" d="M 1267 0 
L 1875 0 
C 1952 1837 2150 2931 3251 4339 
L 3251 4691 
L 314 4691 
L 314 4192 
L 2592 4192 
C 1670 2912 1350 1779 1267 0 
z
" transform="scale(0.015625)"/>
      <path id="NotoSansCJKsc-Regular-2e" d="M 890 -83 
C 1120 -83 1312 96 1312 358 
C 1312 627 1120 806 890 806 
C 653 806 467 627 467 358 
C 467 96 653 -83 890 -83 
z
" transform="scale(0.015625)"/>
     </defs>
     <use xlink:href="#NotoSansCJKsc-Regular-2b"/>
     <use xlink:href="#NotoSansCJKsc-Regular-37" transform="translate(55.499985 0)"/>
     <use xlink:href="#NotoSansCJKsc-Regular-2e" transform="translate(110.999969 0)"/>
     <use xlink:href="#NotoSansCJKsc-Regular-33" transform="translate(138.799957 0)"/>
     <use xlink:href="#NotoSansCJKsc-Regular-25" transform="translate(194.299942 0)"/>
     <use xlink:href="#NotoSansCJKsc-Regular-20" transform="translate(286.399933 0)"/>
     <use xlink:href="#NotoSansCJKsc-Regular-6f" transform="translate(308.799927 0)"/>
     <use xlink:href="#NotoSansCJKsc-Regular-76" transform="translate(369.399918 0)"/>
     <use xlink:href="#NotoSansCJKsc-Regular-65" transform="translate(421.499908 0)"/>
     <use xlink:href="#NotoSansCJKsc-Regular-72" transform="translate(476.899902 0)"/>
     <use xlink:href="#NotoSansCJKsc-Regular-20" transform="translate(515.69989 0)"/>
     <use xlink:href="#NotoSansCJKsc-Regular-74" transform="translate(538.099884 0)"/>
     <use xlink:href="#NotoSansCJKsc-Regular-68" transform="translate(575.799881 0)"/>
     <use xlink:href="#NotoSansCJKsc-Regular-65" transform="translate(636.499878 0)"/>
     <use xlink:href="#NotoSansCJKsc-Regular-20" transform="translate(691.899872 0)"/>
     <use xlink:href="#NotoSansCJKsc-Regular-73" transform="translate(714.299866 0)"/>
     <use xlink:href="#NotoSansCJKsc-Regular-74" transform="translate(761.099854 0)"/>
     <use xlink:href="#NotoSansCJKsc-Regular-72" transform="translate(798.79985 0)"/>
     <use xlink:href="#NotoSansCJKsc-Regular-6f" transform="translate(837.599838 0)"/>
     <use xlink:href="#NotoSansCJKsc-Regular-6e" transform="translate(898.199829 0)"/>
     <use xlink:href="#NotoSansCJKsc-Regular-67" transform="translate(959.199814 0)"/>
     <use xlink:href="#NotoSansCJKsc-Regular-65" transform="translate(1015.599808 0)"/>
     <use xlink:href="#NotoSansCJKsc-Regular-73" transform="translate(1070.999802 0)"/>
     <use xlink:href="#NotoSansCJKsc-Regular-74" transform="translate(1117.799789 0)"/>
     <use xlink:href="#NotoSansCJKsc-Regular-20" transform="translate(1155.499786 0)"/>
     <use xlink:href="#NotoSansCJKsc-Regular-62" transform="translate(1177.89978 0)"/>
     <use xlink:href="#NotoSansCJKsc-Regular-61" transform="translate(1239.699768 0)"/>
     <use xlink:href="#NotoSansCJKsc-Regular-73" transform="translate(1295.999756 0)"/>
     <use xlink:href="#NotoSansCJKsc-Regular-65" transform="translate(1342.799744 0)"/>
     <use xlink:href="#NotoSansCJKsc-Regular-6c" transform="translate(1398.199738 0)"/>
     <use xlink:href="#NotoSansCJKsc-Regular-69" transform="translate(1426.599731 0)"/>
     <use xlink:href="#NotoSansCJKsc-Regular-6e" transform="translate(1454.099716 0)"/>
     <use xlink:href="#NotoSansCJKsc-Regular-65" transform="translate(1515.099701 0)"/>
    </g>
   </g>
  </g>
  <g id="axes_2">
   <g id="patch_7">
    <path d="M 439.69475 274.556 
L 779.256 274.556 
L 779.256 76.0695 
L 439.69475 76.0695 
z
" style="fill: #ffffff"/>
   </g>
   <g id="matplotlib.axis_3">
    <g id="xtick_3">
     <g id="line2d_17">
      <g>
       <use xlink:href="#med16f8c64e" x="506.578027" y="274.556" style="fill: #475569; stroke: #475569; stroke-width: 0.8"/>
      </g>
     </g>
     <g id="text_15">
      <!-- VLM calls -->
      <g style="fill: #475569" transform="translate(483.130839 290.311312) scale(0.11 -0.11)">
       <defs>
        <path id="NotoSansCJKsc-Regular-4c" d="M 646 0 
L 3290 0 
L 3290 506 
L 1235 506 
L 1235 4691 
L 646 4691 
L 646 0 
z
" transform="scale(0.015625)"/>
        <path id="NotoSansCJKsc-Regular-4d" d="M 646 0 
L 1178 0 
L 1178 2598 
C 1178 3002 1139 3571 1101 3981 
L 1126 3981 
L 1504 2912 
L 2394 474 
L 2790 474 
L 3674 2912 
L 4051 3981 
L 4077 3981 
C 4045 3571 4000 3002 4000 2598 
L 4000 0 
L 4550 0 
L 4550 4691 
L 3840 4691 
L 2944 2182 
C 2835 1862 2739 1530 2618 1203 
L 2592 1203 
C 2477 1530 2374 1862 2253 2182 
L 1357 4691 
L 646 4691 
L 646 0 
z
" transform="scale(0.015625)"/>
       </defs>
       <use xlink:href="#NotoSansCJKsc-Regular-56"/>
       <use xlink:href="#NotoSansCJKsc-Regular-4c" transform="translate(57.499985 0)"/>
       <use xlink:href="#NotoSansCJKsc-Regular-4d" transform="translate(111.799973 0)"/>
       <use xlink:href="#NotoSansCJKsc-Regular-20" transform="translate(192.999954 0)"/>
       <use xlink:href="#NotoSansCJKsc-Regular-63" transform="translate(215.399948 0)"/>
       <use xlink:href="#NotoSansCJKsc-Regular-61" transform="translate(266.399933 0)"/>
       <use xlink:href="#NotoSansCJKsc-Regular-6c" transform="translate(322.699921 0)"/>
       <use xlink:href="#NotoSansCJKsc-Regular-6c" transform="translate(351.099915 0)"/>
       <use xlink:href="#NotoSansCJKsc-Regular-73" transform="translate(379.499908 0)"/>
      </g>
     </g>
    </g>
    <g id="xtick_4">
     <g id="line2d_18">
      <g>
       <use xlink:href="#med16f8c64e" x="712.372723" y="274.556" style="fill: #475569; stroke: #475569; stroke-width: 0.8"/>
      </g>
     </g>
     <g id="text_16">
      <!-- Inference cost -->
      <g style="fill: #475569" transform="translate(676.165536 290.311312) scale(0.11 -0.11)">
       <defs>
        <path id="NotoSansCJKsc-Regular-49" d="M 646 0 
L 1235 0 
L 1235 4691 
L 646 4691 
L 646 0 
z
" transform="scale(0.015625)"/>
        <path id="NotoSansCJKsc-Regular-66" d="M 211 3002 
L 685 3002 
L 685 0 
L 1267 0 
L 1267 3002 
L 2003 3002 
L 2003 3475 
L 1267 3475 
L 1267 4026 
C 1267 4474 1427 4710 1760 4710 
C 1882 4710 2022 4678 2150 4614 
L 2278 5069 
C 2118 5133 1914 5178 1696 5178 
C 1005 5178 685 4736 685 4032 
L 685 3475 
L 211 3443 
L 211 3002 
z
" transform="scale(0.015625)"/>
       </defs>
       <use xlink:href="#NotoSansCJKsc-Regular-49"/>
       <use xlink:href="#NotoSansCJKsc-Regular-6e" transform="translate(29.299988 0)"/>
       <use xlink:href="#NotoSansCJKsc-Regular-66" transform="translate(90.299973 0)"/>
       <use xlink:href="#NotoSansCJKsc-Regular-65" transform="translate(122.799957 0)"/>
       <use xlink:href="#NotoSansCJKsc-Regular-72" transform="translate(178.199951 0)"/>
       <use xlink:href="#NotoSansCJKsc-Regular-65" transform="translate(216.999939 0)"/>
       <use xlink:href="#NotoSansCJKsc-Regular-6e" transform="translate(272.399933 0)"/>
       <use xlink:href="#NotoSansCJKsc-Regular-63" transform="translate(333.399918 0)"/>
       <use xlink:href="#NotoSansCJKsc-Regular-65" transform="translate(384.399902 0)"/>
       <use xlink:href="#NotoSansCJKsc-Regular-20" transform="translate(439.799896 0)"/>
       <use xlink:href="#NotoSansCJKsc-Regular-63" transform="translate(462.19989 0)"/>
       <use xlink:href="#NotoSansCJKsc-Regular-6f" transform="translate(513.199875 0)"/>
       <use xlink:href="#NotoSansCJKsc-Regular-73" transform="translate(573.799866 0)"/>
       <use xlink:href="#NotoSansCJKsc-Regular-74" transform="translate(620.599854 0)"/>
      </g>
     </g>
    </g>
   </g>
   <g id="matplotlib.axis_4">
    <g id="ytick_8">
     <g id="line2d_19">
      <path d="M 439.69475 274.556 
L 779.256 274.556 
" clip-path="url(#p46dd0d96e1)" style="fill: none; stroke: #e5e7eb; stroke-width: 0.8; stroke-linecap: square"/>
     </g>
     <g id="line2d_20">
      <g>
       <use xlink:href="#m94a016f223" x="439.69475" y="274.556" style="fill: #475569; stroke: #475569; stroke-width: 0.8"/>
      </g>
     </g>
     <g id="text_17">
      <!-- 0 -->
      <g style="fill: #475569" transform="translate(426.58975 278.933656) scale(0.11 -0.11)">
       <use xlink:href="#NotoSansCJKsc-Regular-30"/>
      </g>
     </g>
    </g>
    <g id="ytick_9">
     <g id="line2d_21">
      <path d="M 439.69475 238.467545 
L 779.256 238.467545 
" clip-path="url(#p46dd0d96e1)" style="fill: none; stroke: #e5e7eb; stroke-width: 0.8; stroke-linecap: square"/>
     </g>
     <g id="line2d_22">
      <g>
       <use xlink:href="#m94a016f223" x="439.69475" y="238.467545" style="fill: #475569; stroke: #475569; stroke-width: 0.8"/>
      </g>
     </g>
     <g id="text_18">
      <!-- 20 -->
      <g style="fill: #475569" transform="translate(420.48475 242.845202) scale(0.11 -0.11)">
       <use xlink:href="#NotoSansCJKsc-Regular-32"/>
       <use xlink:href="#NotoSansCJKsc-Regular-30" transform="translate(55.499985 0)"/>
      </g>
     </g>
    </g>
    <g id="ytick_10">
     <g id="line2d_23">
      <path d="M 439.69475 202.379091 
L 779.256 202.379091 
" clip-path="url(#p46dd0d96e1)" style="fill: none; stroke: #e5e7eb; stroke-width: 0.8; stroke-linecap: square"/>
     </g>
     <g id="line2d_24">
      <g>
       <use xlink:href="#m94a016f223" x="439.69475" y="202.379091" style="fill: #475569; stroke: #475569; stroke-width: 0.8"/>
      </g>
     </g>
     <g id="text_19">
      <!-- 40 -->
      <g style="fill: #475569" transform="translate(420.48475 206.756747) scale(0.11 -0.11)">
       <use xlink:href="#NotoSansCJKsc-Regular-34"/>
       <use xlink:href="#NotoSansCJKsc-Regular-30" transform="translate(55.499985 0)"/>
      </g>
     </g>
    </g>
    <g id="ytick_11">
     <g id="line2d_25">
      <path d="M 439.69475 166.290636 
L 779.256 166.290636 
" clip-path="url(#p46dd0d96e1)" style="fill: none; stroke: #e5e7eb; stroke-width: 0.8; stroke-linecap: square"/>
     </g>
     <g id="line2d_26">
      <g>
       <use xlink:href="#m94a016f223" x="439.69475" y="166.290636" style="fill: #475569; stroke: #475569; stroke-width: 0.8"/>
      </g>
     </g>
     <g id="text_20">
      <!-- 60 -->
      <g style="fill: #475569" transform="translate(420.48475 170.668293) scale(0.11 -0.11)">
       <use xlink:href="#NotoSansCJKsc-Regular-36"/>
       <use xlink:href="#NotoSansCJKsc-Regular-30" transform="translate(55.499985 0)"/>
      </g>
     </g>
    </g>
    <g id="ytick_12">
     <g id="line2d_27">
      <path d="M 439.69475 130.202182 
L 779.256 130.202182 
" clip-path="url(#p46dd0d96e1)" style="fill: none; stroke: #e5e7eb; stroke-width: 0.8; stroke-linecap: square"/>
     </g>
     <g id="line2d_28">
      <g>
       <use xlink:href="#m94a016f223" x="439.69475" y="130.202182" style="fill: #475569; stroke: #475569; stroke-width: 0.8"/>
      </g>
     </g>
     <g id="text_21">
      <!-- 80 -->
      <g style="fill: #475569" transform="translate(420.48475 134.579838) scale(0.11 -0.11)">
       <defs>
        <path id="NotoSansCJKsc-Regular-38" d="M 1792 -83 
C 2669 -83 3258 448 3258 1126 
C 3258 1773 2880 2125 2470 2362 
L 2470 2394 
C 2746 2611 3091 3034 3091 3526 
C 3091 4250 2605 4762 1805 4762 
C 1075 4762 518 4282 518 3571 
C 518 3078 813 2726 1152 2490 
L 1152 2464 
C 723 2234 294 1792 294 1165 
C 294 442 922 -83 1792 -83 
z
M 2112 2547 
C 1555 2765 1050 3014 1050 3571 
C 1050 4026 1363 4326 1798 4326 
C 2298 4326 2592 3962 2592 3494 
C 2592 3149 2426 2829 2112 2547 
z
M 1798 352 
C 1235 352 813 717 813 1216 
C 813 1664 1082 2035 1459 2278 
C 2125 2010 2701 1779 2701 1146 
C 2701 678 2342 352 1798 352 
z
" transform="scale(0.015625)"/>
       </defs>
       <use xlink:href="#NotoSansCJKsc-Regular-38"/>
       <use xlink:href="#NotoSansCJKsc-Regular-30" transform="translate(55.499985 0)"/>
      </g>
     </g>
    </g>
    <g id="ytick_13">
     <g id="line2d_29">
      <path d="M 439.69475 94.113727 
L 779.256 94.113727 
" clip-path="url(#p46dd0d96e1)" style="fill: none; stroke: #e5e7eb; stroke-width: 0.8; stroke-linecap: square"/>
     </g>
     <g id="line2d_30">
      <g>
       <use xlink:href="#m94a016f223" x="439.69475" y="94.113727" style="fill: #475569; stroke: #475569; stroke-width: 0.8"/>
      </g>
     </g>
     <g id="text_22">
      <!-- 100 -->
      <g style="fill: #475569" transform="translate(414.37975 98.491384) scale(0.11 -0.11)">
       <use xlink:href="#NotoSansCJKsc-Regular-31"/>
       <use xlink:href="#NotoSansCJKsc-Regular-30" transform="translate(55.499985 0)"/>
       <use xlink:href="#NotoSansCJKsc-Regular-30" transform="translate(110.999969 0)"/>
      </g>
     </g>
    </g>
    <g id="text_23">
     <!-- Reduction vs dense baseline (%) -->
     <g style="fill: #0f172a" transform="translate(407.860063 257.858297) rotate(-90) scale(0.11 -0.11)">
      <defs>
       <path id="NotoSansCJKsc-Regular-52" d="M 1235 2464 
L 1235 4211 
L 2022 4211 
C 2758 4211 3162 3994 3162 3379 
C 3162 2765 2758 2464 2022 2464 
L 1235 2464 
z
M 3219 0 
L 3885 0 
L 2694 2054 
C 3328 2208 3750 2643 3750 3379 
C 3750 4352 3066 4691 2112 4691 
L 646 4691 
L 646 0 
L 1235 0 
L 1235 1990 
L 2080 1990 
L 3219 0 
z
" transform="scale(0.015625)"/>
       <path id="NotoSansCJKsc-Regular-64" d="M 1773 -83 
C 2189 -83 2560 141 2829 410 
L 2848 410 
L 2899 0 
L 3379 0 
L 3379 5094 
L 2790 5094 
L 2790 3757 
L 2822 3162 
C 2515 3411 2253 3565 1843 3565 
C 1050 3565 339 2861 339 1734 
C 339 576 902 -83 1773 -83 
z
M 1901 410 
C 1293 410 941 902 941 1741 
C 941 2534 1389 3072 1946 3072 
C 2234 3072 2502 2970 2790 2707 
L 2790 883 
C 2502 563 2221 410 1901 410 
z
" transform="scale(0.015625)"/>
      </defs>
      <use xlink:href="#NotoSansCJKsc-Regular-52"/>
      <use xlink:href="#NotoSansCJKsc-Regular-65" transform="translate(63.499985 0)"/>
      <use xlink:href="#NotoSansCJKsc-Regular-64" transform="translate(118.899979 0)"/>
      <use xlink:href="#NotoSansCJKsc-Regular-75" transform="translate(180.899963 0)"/>
      <use xlink:href="#NotoSansCJKsc-Regular-63" transform="translate(241.59996 0)"/>
      <use xlink:href="#NotoSansCJKsc-Regular-74" transform="translate(292.599945 0)"/>
      <use xlink:href="#NotoSansCJKsc-Regular-69" transform="translate(330.299942 0)"/>
      <use xlink:href="#NotoSansCJKsc-Regular-6f" transform="translate(357.799927 0)"/>
      <use xlink:href="#NotoSansCJKsc-Regular-6e" transform="translate(418.399918 0)"/>
      <use xlink:href="#NotoSansCJKsc-Regular-20" transform="translate(479.399902 0)"/>
      <use xlink:href="#NotoSansCJKsc-Regular-76" transform="translate(501.799896 0)"/>
      <use xlink:href="#NotoSansCJKsc-Regular-73" transform="translate(553.899887 0)"/>
      <use xlink:href="#NotoSansCJKsc-Regular-20" transform="translate(600.699875 0)"/>
      <use xlink:href="#NotoSansCJKsc-Regular-64" transform="translate(623.099869 0)"/>
      <use xlink:href="#NotoSansCJKsc-Regular-65" transform="translate(685.099854 0)"/>
      <use xlink:href="#NotoSansCJKsc-Regular-6e" transform="translate(740.499847 0)"/>
      <use xlink:href="#NotoSansCJKsc-Regular-73" transform="translate(801.499832 0)"/>
      <use xlink:href="#NotoSansCJKsc-Regular-65" transform="translate(848.29982 0)"/>
      <use xlink:href="#NotoSansCJKsc-Regular-20" transform="translate(903.699814 0)"/>
      <use xlink:href="#NotoSansCJKsc-Regular-62" transform="translate(926.099808 0)"/>
      <use xlink:href="#NotoSansCJKsc-Regular-61" transform="translate(987.899796 0)"/>
      <use xlink:href="#NotoSansCJKsc-Regular-73" transform="translate(1044.199783 0)"/>
      <use xlink:href="#NotoSansCJKsc-Regular-65" transform="translate(1090.999771 0)"/>
      <use xlink:href="#NotoSansCJKsc-Regular-6c" transform="translate(1146.399765 0)"/>
      <use xlink:href="#NotoSansCJKsc-Regular-69" transform="translate(1174.799759 0)"/>
      <use xlink:href="#NotoSansCJKsc-Regular-6e" transform="translate(1202.299744 0)"/>
      <use xlink:href="#NotoSansCJKsc-Regular-65" transform="translate(1263.299728 0)"/>
      <use xlink:href="#NotoSansCJKsc-Regular-20" transform="translate(1318.699722 0)"/>
      <use xlink:href="#NotoSansCJKsc-Regular-28" transform="translate(1341.099716 0)"/>
      <use xlink:href="#NotoSansCJKsc-Regular-25" transform="translate(1374.899704 0)"/>
      <use xlink:href="#NotoSansCJKsc-Regular-29" transform="translate(1466.999695 0)"/>
     </g>
    </g>
   </g>
   <g id="patch_8">
    <path d="M 439.69475 274.556 
L 439.69475 76.0695 
" style="fill: none; stroke: #94a3b8; stroke-width: 0.8; stroke-linejoin: miter; stroke-linecap: square"/>
   </g>
   <g id="patch_9">
    <path d="M 439.69475 274.556 
L 779.256 274.556 
" style="fill: none; stroke: #94a3b8; stroke-width: 0.8; stroke-linejoin: miter; stroke-linecap: square"/>
   </g>
   <g id="patch_10">
    <path d="M 455.129352 274.556 
L 558.026701 274.556 
L 558.026701 139.224295 
L 455.129352 139.224295 
z
" clip-path="url(#p46dd0d96e1)" style="fill: #0891b2"/>
   </g>
   <g id="patch_11">
    <path d="M 660.924049 274.556 
L 763.821398 274.556 
L 763.821398 106.744686 
L 660.924049 106.744686 
z
" clip-path="url(#p46dd0d96e1)" style="fill: #10b981"/>
   </g>
   <g id="text_24">
    <!-- 75% -->
    <g style="fill: #0f172a" transform="translate(496.613222 137.224795) scale(0.093 -0.093)">
     <use xlink:href="#NotoSansCJKsc-Bold-37"/>
     <use xlink:href="#NotoSansCJKsc-Bold-35" transform="translate(58.999985 0)"/>
     <use xlink:href="#NotoSansCJKsc-Bold-25" transform="translate(117.999969 0)"/>
    </g>
   </g>
   <g id="text_25">
    <!-- 93% -->
    <g style="fill: #0f172a" transform="translate(702.407919 104.745186) scale(0.093 -0.093)">
     <defs>
      <path id="NotoSansCJKsc-Bold-39" d="M 1632 -90 
C 2573 -90 3450 685 3450 2477 
C 3450 4122 2650 4826 1747 4826 
C 934 4826 256 4218 256 3245 
C 256 2240 819 1754 1613 1754 
C 1933 1754 2336 1946 2586 2266 
C 2541 1082 2106 678 1581 678 
C 1299 678 1005 826 832 1018 
L 333 448 
C 614 160 1043 -90 1632 -90 
z
M 2573 2938 
C 2342 2566 2048 2426 1792 2426 
C 1382 2426 1120 2688 1120 3245 
C 1120 3827 1408 4115 1760 4115 
C 2163 4115 2490 3795 2573 2938 
z
" transform="scale(0.015625)"/>
     </defs>
     <use xlink:href="#NotoSansCJKsc-Bold-39"/>
     <use xlink:href="#NotoSansCJKsc-Bold-33" transform="translate(58.999985 0)"/>
     <use xlink:href="#NotoSansCJKsc-Bold-25" transform="translate(117.999969 0)"/>
    </g>
   </g>
   <g id="text_26">
    <!-- -75% VLM calls  ·  -93% cost -->
    <g style="fill: #475569" transform="translate(536.191312 70.0695) scale(0.11 -0.11)">
     <defs>
      <path id="NotoSansCJKsc-Regular-2d" d="M 294 1568 
L 1933 1568 
L 1933 2016 
L 294 2016 
L 294 1568 
z
" transform="scale(0.015625)"/>
      <path id="NotoSansCJKsc-Regular-b7" d="M 3200 3110 
C 2822 3110 2522 2810 2522 2432 
C 2522 2054 2822 1754 3200 1754 
C 3578 1754 3878 2054 3878 2432 
C 3878 2810 3578 3110 3200 3110 
z
" transform="scale(0.015625)"/>
      <path id="NotoSansCJKsc-Regular-39" d="M 1504 -83 
C 2381 -83 3206 646 3206 2547 
C 3206 4038 2528 4774 1626 4774 
C 896 4774 282 4166 282 3251 
C 282 2285 794 1779 1574 1779 
C 1965 1779 2368 2003 2656 2349 
C 2611 896 2086 403 1485 403 
C 1178 403 896 538 691 762 
L 371 397 
C 634 122 992 -83 1504 -83 
z
M 2650 2842 
C 2336 2394 1984 2214 1670 2214 
C 1114 2214 832 2624 832 3251 
C 832 3898 1178 4320 1632 4320 
C 2227 4320 2586 3808 2650 2842 
z
" transform="scale(0.015625)"/>
     </defs>
     <use xlink:href="#NotoSansCJKsc-Regular-2d"/>
     <use xlink:href="#NotoSansCJKsc-Regular-37" transform="translate(34.699997 0)"/>
     <use xlink:href="#NotoSansCJKsc-Regular-35" transform="translate(90.199982 0)"/>
     <use xlink:href="#NotoSansCJKsc-Regular-25" transform="translate(145.699966 0)"/>
     <use xlink:href="#NotoSansCJKsc-Regular-20" transform="translate(237.799957 0)"/>
     <use xlink:href="#NotoSansCJKsc-Regular-56" transform="translate(260.199951 0)"/>
     <use xlink:href="#NotoSansCJKsc-Regular-4c" transform="translate(317.699936 0)"/>
     <use xlink:href="#NotoSansCJKsc-Regular-4d" transform="translate(371.999924 0)"/>
     <use xlink:href="#NotoSansCJKsc-Regular-20" transform="translate(453.199905 0)"/>
     <use xlink:href="#NotoSansCJKsc-Regular-63" transform="translate(475.599899 0)"/>
     <use xlink:href="#NotoSansCJKsc-Regular-61" transform="translate(526.599884 0)"/>
     <use xlink:href="#NotoSansCJKsc-Regular-6c" transform="translate(582.899872 0)"/>
     <use xlink:href="#NotoSansCJKsc-Regular-6c" transform="translate(611.299866 0)"/>
     <use xlink:href="#NotoSansCJKsc-Regular-73" transform="translate(639.69986 0)"/>
     <use xlink:href="#NotoSansCJKsc-Regular-20" transform="translate(686.499847 0)"/>
     <use xlink:href="#NotoSansCJKsc-Regular-20" transform="translate(708.899841 0)"/>
     <use xlink:href="#NotoSansCJKsc-Regular-b7" transform="translate(731.299835 0)"/>
     <use xlink:href="#NotoSansCJKsc-Regular-20" transform="translate(831.29982 0)"/>
     <use xlink:href="#NotoSansCJKsc-Regular-20" transform="translate(853.699814 0)"/>
     <use xlink:href="#NotoSansCJKsc-Regular-2d" transform="translate(876.099808 0)"/>
     <use xlink:href="#NotoSansCJKsc-Regular-39" transform="translate(910.799805 0)"/>
     <use xlink:href="#NotoSansCJKsc-Regular-33" transform="translate(966.299789 0)"/>
     <use xlink:href="#NotoSansCJKsc-Regular-25" transform="translate(1021.799774 0)"/>
     <use xlink:href="#NotoSansCJKsc-Regular-20" transform="translate(1113.899765 0)"/>
     <use xlink:href="#NotoSansCJKsc-Regular-63" transform="translate(1136.299759 0)"/>
     <use xlink:href="#NotoSansCJKsc-Regular-6f" transform="translate(1187.299744 0)"/>
     <use xlink:href="#NotoSansCJKsc-Regular-73" transform="translate(1247.899734 0)"/>
     <use xlink:href="#NotoSansCJKsc-Regular-74" transform="translate(1294.699722 0)"/>
    </g>
   </g>
  </g>
  <g id="text_27">
   <!-- TimeProVe — standout results (OpenTSUBench accuracy &amp; efficiency) -->
   <g style="fill: #0f172a" transform="translate(8.64 20.301562) scale(0.14 -0.14)">
    <defs>
     <path id="NotoSansCJKsc-Bold-54" d="M 1523 0 
L 2470 0 
L 2470 3949 
L 3808 3949 
L 3808 4742 
L 192 4742 
L 192 3949 
L 1523 3949 
L 1523 0 
z
" transform="scale(0.015625)"/>
     <path id="NotoSansCJKsc-Bold-69" d="M 506 0 
L 1446 0 
L 1446 3584 
L 506 3584 
L 506 0 
z
M 979 4166 
C 1299 4166 1523 4365 1523 4678 
C 1523 4986 1299 5190 979 5190 
C 646 5190 435 4986 435 4678 
C 435 4365 646 4166 979 4166 
z
" transform="scale(0.015625)"/>
     <path id="NotoSansCJKsc-Bold-6d" d="M 506 0 
L 1446 0 
L 1446 2464 
C 1696 2739 1926 2867 2131 2867 
C 2477 2867 2637 2675 2637 2118 
L 2637 0 
L 3571 0 
L 3571 2464 
C 3827 2739 4058 2867 4262 2867 
C 4602 2867 4762 2675 4762 2118 
L 4762 0 
L 5696 0 
L 5696 2234 
C 5696 3136 5350 3674 4589 3674 
C 4128 3674 3776 3392 3443 3046 
C 3277 3443 2976 3674 2464 3674 
C 1997 3674 1664 3418 1363 3104 
L 1344 3104 
L 1274 3584 
L 506 3584 
L 506 0 
z
" transform="scale(0.015625)"/>
     <path id="NotoSansCJKsc-Bold-65" d="M 2067 -90 
C 2509 -90 2963 64 3315 307 
L 2995 883 
C 2733 723 2483 640 2195 640 
C 1658 640 1274 941 1197 1523 
L 3405 1523 
C 3430 1613 3450 1786 3450 1958 
C 3450 2957 2938 3674 1952 3674 
C 1101 3674 282 2950 282 1792 
C 282 608 1062 -90 2067 -90 
z
M 1178 2157 
C 1254 2675 1587 2944 1965 2944 
C 2432 2944 2643 2637 2643 2157 
L 1178 2157 
z
" transform="scale(0.015625)"/>
     <path id="NotoSansCJKsc-Bold-50" d="M 582 0 
L 1530 0 
L 1530 1683 
L 2163 1683 
C 3181 1683 3994 2170 3994 3251 
C 3994 4371 3187 4742 2138 4742 
L 582 4742 
L 582 0 
z
M 1530 2432 
L 1530 3987 
L 2067 3987 
C 2720 3987 3066 3802 3066 3251 
C 3066 2707 2752 2432 2099 2432 
L 1530 2432 
z
" transform="scale(0.015625)"/>
     <path id="NotoSansCJKsc-Bold-72" d="M 506 0 
L 1446 0 
L 1446 2138 
C 1651 2656 1984 2842 2259 2842 
C 2413 2842 2515 2822 2643 2784 
L 2797 3597 
C 2694 3642 2579 3674 2381 3674 
C 2010 3674 1626 3418 1363 2950 
L 1344 2950 
L 1274 3584 
L 506 3584 
L 506 0 
z
" transform="scale(0.015625)"/>
     <path id="NotoSansCJKsc-Bold-6f" d="M 2003 -90 
C 2899 -90 3725 602 3725 1792 
C 3725 2982 2899 3674 2003 3674 
C 1101 3674 282 2982 282 1792 
C 282 602 1101 -90 2003 -90 
z
M 2003 678 
C 1510 678 1242 1114 1242 1792 
C 1242 2464 1510 2906 2003 2906 
C 2490 2906 2765 2464 2765 1792 
C 2765 1114 2490 678 2003 678 
z
" transform="scale(0.015625)"/>
     <path id="NotoSansCJKsc-Bold-56" d="M 1414 0 
L 2547 0 
L 3994 4742 
L 3034 4742 
L 2419 2432 
C 2272 1907 2170 1434 2016 902 
L 1984 902 
C 1837 1434 1734 1907 1587 2432 
L 966 4742 
L -32 4742 
L 1414 0 
z
" transform="scale(0.015625)"/>
     <path id="NotoSansCJKsc-Bold-20" transform="scale(0.015625)"/>
     <path id="NotoSansCJKsc-Bold-2014" d="M 314 1536 
L 5498 1536 
L 5498 2138 
L 314 2138 
L 314 1536 
z
" transform="scale(0.015625)"/>
     <path id="NotoSansCJKsc-Bold-73" d="M 1530 -90 
C 2458 -90 2957 410 2957 1043 
C 2957 1702 2432 1946 1958 2125 
C 1574 2266 1248 2362 1248 2624 
C 1248 2829 1402 2970 1728 2970 
C 1990 2970 2240 2842 2496 2662 
L 2918 3232 
C 2624 3462 2221 3674 1702 3674 
C 883 3674 365 3219 365 2579 
C 365 1978 870 1702 1325 1530 
C 1702 1382 2074 1261 2074 992 
C 2074 768 1914 614 1555 614 
C 1216 614 915 762 595 1005 
L 166 410 
C 525 115 1050 -90 1530 -90 
z
" transform="scale(0.015625)"/>
     <path id="NotoSansCJKsc-Bold-74" d="M 1818 -90 
C 2131 -90 2381 -13 2579 45 
L 2419 730 
C 2323 691 2182 653 2067 653 
C 1747 653 1574 845 1574 1254 
L 1574 2842 
L 2464 2842 
L 2464 3584 
L 1574 3584 
L 1574 4550 
L 800 4550 
L 691 3584 
L 134 3539 
L 134 2842 
L 640 2842 
L 640 1248 
C 640 454 966 -90 1818 -90 
z
" transform="scale(0.015625)"/>
     <path id="NotoSansCJKsc-Bold-61" d="M 1382 -90 
C 1798 -90 2157 109 2464 384 
L 2496 384 
L 2560 0 
L 3328 0 
L 3328 2093 
C 3328 3130 2861 3674 1952 3674 
C 1389 3674 877 3456 461 3200 
L 794 2573 
C 1126 2771 1446 2918 1779 2918 
C 2221 2918 2374 2650 2387 2298 
C 947 2144 326 1741 326 979 
C 326 365 742 -90 1382 -90 
z
M 1696 646 
C 1421 646 1222 768 1222 1050 
C 1222 1376 1510 1613 2387 1715 
L 2387 998 
C 2163 774 1965 646 1696 646 
z
" transform="scale(0.015625)"/>
     <path id="NotoSansCJKsc-Bold-6e" d="M 506 0 
L 1446 0 
L 1446 2464 
C 1709 2726 1901 2867 2189 2867 
C 2541 2867 2694 2675 2694 2118 
L 2694 0 
L 3635 0 
L 3635 2234 
C 3635 3136 3302 3674 2528 3674 
C 2042 3674 1677 3418 1363 3110 
L 1344 3110 
L 1274 3584 
L 506 3584 
L 506 0 
z
" transform="scale(0.015625)"/>
     <path id="NotoSansCJKsc-Bold-64" d="M 1766 -90 
C 2138 -90 2496 109 2758 371 
L 2784 371 
L 2854 0 
L 3622 0 
L 3622 5107 
L 2682 5107 
L 2682 3846 
L 2714 3283 
C 2458 3520 2208 3674 1805 3674 
C 1037 3674 301 2957 301 1792 
C 301 614 870 -90 1766 -90 
z
M 2010 685 
C 1536 685 1267 1056 1267 1805 
C 1267 2515 1606 2899 2010 2899 
C 2240 2899 2464 2829 2682 2630 
L 2682 1056 
C 2477 787 2259 685 2010 685 
z
" transform="scale(0.015625)"/>
     <path id="NotoSansCJKsc-Bold-75" d="M 1574 -90 
C 2067 -90 2406 154 2714 518 
L 2739 518 
L 2810 0 
L 3578 0 
L 3578 3584 
L 2637 3584 
L 2637 1165 
C 2394 845 2202 717 1914 717 
C 1562 717 1402 909 1402 1466 
L 1402 3584 
L 467 3584 
L 467 1350 
C 467 448 800 -90 1574 -90 
z
" transform="scale(0.015625)"/>
     <path id="NotoSansCJKsc-Bold-6c" d="M 1395 -90 
C 1613 -90 1766 -51 1875 -6 
L 1760 691 
C 1696 678 1670 678 1632 678 
C 1542 678 1446 749 1446 966 
L 1446 5107 
L 506 5107 
L 506 1005 
C 506 339 736 -90 1395 -90 
z
" transform="scale(0.015625)"/>
     <path id="NotoSansCJKsc-Bold-28" d="M 1504 -1293 
L 2086 -1043 
C 1549 -109 1306 966 1306 2016 
C 1306 3066 1549 4147 2086 5082 
L 1504 5331 
C 896 4339 544 3296 544 2016 
C 544 736 896 -307 1504 -1293 
z
" transform="scale(0.015625)"/>
     <path id="NotoSansCJKsc-Bold-4f" d="M 2464 -90 
C 3718 -90 4582 851 4582 2394 
C 4582 3930 3718 4826 2464 4826 
C 1210 4826 346 3930 346 2394 
C 346 851 1210 -90 2464 -90 
z
M 2464 730 
C 1760 730 1318 1382 1318 2394 
C 1318 3405 1760 4013 2464 4013 
C 3168 4013 3616 3405 3616 2394 
C 3616 1382 3168 730 2464 730 
z
" transform="scale(0.015625)"/>
     <path id="NotoSansCJKsc-Bold-70" d="M 506 -1376 
L 1446 -1376 
L 1446 -282 
L 1414 301 
C 1683 51 1990 -90 2304 -90 
C 3091 -90 3827 621 3827 1850 
C 3827 2950 3296 3674 2419 3674 
C 2029 3674 1664 3469 1363 3213 
L 1344 3213 
L 1274 3584 
L 506 3584 
L 506 -1376 
z
M 2099 685 
C 1901 685 1677 755 1446 954 
L 1446 2534 
C 1690 2778 1907 2899 2150 2899 
C 2643 2899 2861 2522 2861 1837 
C 2861 1056 2522 685 2099 685 
z
" transform="scale(0.015625)"/>
     <path id="NotoSansCJKsc-Bold-53" d="M 1997 -90 
C 3091 -90 3738 570 3738 1344 
C 3738 2029 3360 2400 2784 2637 
L 2163 2886 
C 1760 3053 1427 3174 1427 3514 
C 1427 3827 1683 4013 2099 4013 
C 2496 4013 2810 3866 3110 3622 
L 3590 4211 
C 3206 4602 2656 4826 2099 4826 
C 1146 4826 461 4224 461 3456 
C 461 2765 947 2381 1427 2189 
L 2054 1914 
C 2477 1734 2771 1626 2771 1274 
C 2771 941 2509 730 2016 730 
C 1600 730 1146 941 813 1254 
L 269 602 
C 730 154 1363 -90 1997 -90 
z
" transform="scale(0.015625)"/>
     <path id="NotoSansCJKsc-Bold-55" d="M 2406 -90 
C 3558 -90 4230 563 4230 2131 
L 4230 4742 
L 3322 4742 
L 3322 2048 
C 3322 1062 2957 730 2406 730 
C 1850 730 1504 1062 1504 2048 
L 1504 4742 
L 563 4742 
L 563 2131 
C 563 563 1242 -90 2406 -90 
z
" transform="scale(0.015625)"/>
     <path id="NotoSansCJKsc-Bold-42" d="M 582 0 
L 2272 0 
C 3315 0 4102 442 4102 1395 
C 4102 2029 3731 2394 3219 2515 
L 3219 2541 
C 3622 2688 3866 3130 3866 3571 
C 3866 4454 3123 4742 2150 4742 
L 582 4742 
L 582 0 
z
M 1530 2810 
L 1530 4013 
L 2093 4013 
C 2662 4013 2944 3846 2944 3430 
C 2944 3053 2688 2810 2086 2810 
L 1530 2810 
z
M 1530 730 
L 1530 2112 
L 2189 2112 
C 2842 2112 3181 1914 3181 1453 
C 3181 960 2829 730 2189 730 
L 1530 730 
z
" transform="scale(0.015625)"/>
     <path id="NotoSansCJKsc-Bold-63" d="M 2029 -90 
C 2426 -90 2861 45 3200 346 
L 2829 966 
C 2630 800 2394 678 2131 678 
C 1613 678 1242 1114 1242 1792 
C 1242 2464 1613 2906 2163 2906 
C 2362 2906 2528 2822 2707 2675 
L 3155 3270 
C 2893 3507 2554 3674 2112 3674 
C 1139 3674 282 2982 282 1792 
C 282 602 1043 -90 2029 -90 
z
" transform="scale(0.015625)"/>
     <path id="NotoSansCJKsc-Bold-68" d="M 506 0 
L 1446 0 
L 1446 2464 
C 1709 2726 1901 2867 2189 2867 
C 2541 2867 2694 2675 2694 2118 
L 2694 0 
L 3635 0 
L 3635 2234 
C 3635 3136 3302 3674 2528 3674 
C 2042 3674 1683 3418 1402 3149 
L 1446 3821 
L 1446 5107 
L 506 5107 
L 506 0 
z
" transform="scale(0.015625)"/>
     <path id="NotoSansCJKsc-Bold-79" d="M 819 -1434 
C 1619 -1434 2003 -954 2317 -109 
L 3590 3584 
L 2688 3584 
L 2195 1920 
C 2106 1587 2016 1242 1939 909 
L 1907 909 
C 1805 1254 1715 1600 1606 1920 
L 1037 3584 
L 90 3584 
L 1485 70 
L 1421 -147 
C 1318 -461 1114 -691 749 -691 
C 666 -691 563 -666 499 -646 
L 326 -1370 
C 467 -1408 608 -1434 819 -1434 
z
" transform="scale(0.015625)"/>
     <path id="NotoSansCJKsc-Bold-26" d="M 1741 -90 
C 2323 -90 2797 102 3187 410 
C 3590 160 3994 -6 4378 -90 
L 4602 678 
C 4358 723 4070 845 3763 1018 
C 4134 1510 4390 2054 4570 2650 
L 3706 2650 
C 3584 2176 3379 1773 3130 1440 
C 2746 1728 2387 2067 2106 2426 
C 2611 2771 3123 3162 3123 3789 
C 3123 4410 2694 4826 2022 4826 
C 1267 4826 787 4282 787 3622 
C 787 3309 896 2957 1082 2605 
C 608 2298 192 1914 192 1254 
C 192 525 749 -90 1741 -90 
z
M 2541 870 
C 2323 723 2093 640 1856 640 
C 1402 640 1088 909 1088 1312 
C 1088 1568 1248 1779 1478 1978 
C 1779 1581 2144 1203 2541 870 
z
M 1734 2995 
C 1626 3213 1562 3430 1562 3629 
C 1562 3968 1766 4198 2042 4198 
C 2285 4198 2394 4026 2394 3789 
C 2394 3443 2106 3219 1734 2995 
z
" transform="scale(0.015625)"/>
     <path id="NotoSansCJKsc-Bold-66" d="M 179 2842 
L 666 2842 
L 666 0 
L 1600 0 
L 1600 2842 
L 2285 2842 
L 2285 3584 
L 1600 3584 
L 1600 3891 
C 1600 4288 1760 4454 2035 4454 
C 2163 4454 2298 4429 2419 4371 
L 2592 5075 
C 2432 5139 2189 5197 1907 5197 
C 1011 5197 666 4614 666 3872 
L 666 3578 
L 179 3539 
L 179 2842 
z
" transform="scale(0.015625)"/>
     <path id="NotoSansCJKsc-Bold-29" d="M 915 -1293 
C 1523 -307 1875 736 1875 2016 
C 1875 3296 1523 4339 915 5331 
L 333 5082 
C 870 4147 1114 3066 1114 2016 
C 1114 966 870 -109 333 -1043 
L 915 -1293 
z
" transform="scale(0.015625)"/>
    </defs>
    <use xlink:href="#NotoSansCJKsc-Bold-54"/>
    <use xlink:href="#NotoSansCJKsc-Bold-69" transform="translate(62.499985 0)"/>
    <use xlink:href="#NotoSansCJKsc-Bold-6d" transform="translate(92.899979 0)"/>
    <use xlink:href="#NotoSansCJKsc-Bold-65" transform="translate(189.299973 0)"/>
    <use xlink:href="#NotoSansCJKsc-Bold-50" transform="translate(247.399963 0)"/>
    <use xlink:href="#NotoSansCJKsc-Bold-72" transform="translate(314.09996 0)"/>
    <use xlink:href="#NotoSansCJKsc-Bold-6f" transform="translate(357.699951 0)"/>
    <use xlink:href="#NotoSansCJKsc-Bold-56" transform="translate(420.299942 0)"/>
    <use xlink:href="#NotoSansCJKsc-Bold-65" transform="translate(482.199936 0)"/>
    <use xlink:href="#NotoSansCJKsc-Bold-20" transform="translate(540.299927 0)"/>
    <use xlink:href="#NotoSansCJKsc-Bold-2014" transform="translate(562.999924 0)"/>
    <use xlink:href="#NotoSansCJKsc-Bold-20" transform="translate(653.799911 0)"/>
    <use xlink:href="#NotoSansCJKsc-Bold-73" transform="translate(676.499908 0)"/>
    <use xlink:href="#NotoSansCJKsc-Bold-74" transform="translate(725.999893 0)"/>
    <use xlink:href="#NotoSansCJKsc-Bold-61" transform="translate(768.099884 0)"/>
    <use xlink:href="#NotoSansCJKsc-Bold-6e" transform="translate(827.199875 0)"/>
    <use xlink:href="#NotoSansCJKsc-Bold-64" transform="translate(891.299866 0)"/>
    <use xlink:href="#NotoSansCJKsc-Bold-6f" transform="translate(955.69986 0)"/>
    <use xlink:href="#NotoSansCJKsc-Bold-75" transform="translate(1018.29985 0)"/>
    <use xlink:href="#NotoSansCJKsc-Bold-74" transform="translate(1081.999847 0)"/>
    <use xlink:href="#NotoSansCJKsc-Bold-20" transform="translate(1124.099838 0)"/>
    <use xlink:href="#NotoSansCJKsc-Bold-72" transform="translate(1146.799835 0)"/>
    <use xlink:href="#NotoSansCJKsc-Bold-65" transform="translate(1190.399826 0)"/>
    <use xlink:href="#NotoSansCJKsc-Bold-73" transform="translate(1248.499817 0)"/>
    <use xlink:href="#NotoSansCJKsc-Bold-75" transform="translate(1297.999802 0)"/>
    <use xlink:href="#NotoSansCJKsc-Bold-6c" transform="translate(1361.699799 0)"/>
    <use xlink:href="#NotoSansCJKsc-Bold-74" transform="translate(1393.199783 0)"/>
    <use xlink:href="#NotoSansCJKsc-Bold-73" transform="translate(1435.299774 0)"/>
    <use xlink:href="#NotoSansCJKsc-Bold-20" transform="translate(1484.799759 0)"/>
    <use xlink:href="#NotoSansCJKsc-Bold-28" transform="translate(1507.499756 0)"/>
    <use xlink:href="#NotoSansCJKsc-Bold-4f" transform="translate(1545.299744 0)"/>
    <use xlink:href="#NotoSansCJKsc-Bold-70" transform="translate(1622.299728 0)"/>
    <use xlink:href="#NotoSansCJKsc-Bold-65" transform="translate(1686.699722 0)"/>
    <use xlink:href="#NotoSansCJKsc-Bold-6e" transform="translate(1744.799713 0)"/>
    <use xlink:href="#NotoSansCJKsc-Bold-54" transform="translate(1808.899704 0)"/>
    <use xlink:href="#NotoSansCJKsc-Bold-53" transform="translate(1871.399689 0)"/>
    <use xlink:href="#NotoSansCJKsc-Bold-55" transform="translate(1933.799683 0)"/>
    <use xlink:href="#NotoSansCJKsc-Bold-42" transform="translate(2008.59967 0)"/>
    <use xlink:href="#NotoSansCJKsc-Bold-65" transform="translate(2076.699661 0)"/>
    <use xlink:href="#NotoSansCJKsc-Bold-6e" transform="translate(2134.799652 0)"/>
    <use xlink:href="#NotoSansCJKsc-Bold-63" transform="translate(2198.899643 0)"/>
    <use xlink:href="#NotoSansCJKsc-Bold-68" transform="translate(2251.59964 0)"/>
    <use xlink:href="#NotoSansCJKsc-Bold-20" transform="translate(2315.599625 0)"/>
    <use xlink:href="#NotoSansCJKsc-Bold-61" transform="translate(2338.299622 0)"/>
    <use xlink:href="#NotoSansCJKsc-Bold-63" transform="translate(2397.399612 0)"/>
    <use xlink:href="#NotoSansCJKsc-Bold-63" transform="translate(2450.099609 0)"/>
    <use xlink:href="#NotoSansCJKsc-Bold-75" transform="translate(2502.799606 0)"/>
    <use xlink:href="#NotoSansCJKsc-Bold-72" transform="translate(2566.499603 0)"/>
    <use xlink:href="#NotoSansCJKsc-Bold-61" transform="translate(2610.099594 0)"/>
    <use xlink:href="#NotoSansCJKsc-Bold-63" transform="translate(2669.199585 0)"/>
    <use xlink:href="#NotoSansCJKsc-Bold-79" transform="translate(2721.899582 0)"/>
    <use xlink:href="#NotoSansCJKsc-Bold-20" transform="translate(2779.299576 0)"/>
    <use xlink:href="#NotoSansCJKsc-Bold-26" transform="translate(2801.999573 0)"/>
    <use xlink:href="#NotoSansCJKsc-Bold-20" transform="translate(2875.999557 0)"/>
    <use xlink:href="#NotoSansCJKsc-Bold-65" transform="translate(2898.699554 0)"/>
    <use xlink:href="#NotoSansCJKsc-Bold-66" transform="translate(2956.799545 0)"/>
    <use xlink:href="#NotoSansCJKsc-Bold-66" transform="translate(2993.999542 0)"/>
    <use xlink:href="#NotoSansCJKsc-Bold-69" transform="translate(3031.199539 0)"/>
    <use xlink:href="#NotoSansCJKsc-Bold-63" transform="translate(3061.599533 0)"/>
    <use xlink:href="#NotoSansCJKsc-Bold-69" transform="translate(3114.29953 0)"/>
    <use xlink:href="#NotoSansCJKsc-Bold-65" transform="translate(3144.699524 0)"/>
    <use xlink:href="#NotoSansCJKsc-Bold-6e" transform="translate(3202.799515 0)"/>
    <use xlink:href="#NotoSansCJKsc-Bold-63" transform="translate(3266.899506 0)"/>
    <use xlink:href="#NotoSansCJKsc-Bold-79" transform="translate(3319.599503 0)"/>
    <use xlink:href="#NotoSansCJKsc-Bold-29" transform="translate(3376.999496 0)"/>
   </g>
  </g>
 </g>
 <defs>
  <clipPath id="pa93f1f05d8">
   <rect x="46.6535" y="76.0695" width="339.56125" height="198.4865"/>
  </clipPath>
  <clipPath id="p46dd0d96e1">
   <rect x="439.69475" y="76.0695" width="339.56125" height="198.4865"/>
  </clipPath>
 </defs>
</svg>
