<?xml version="1.0" encoding="utf-8" standalone="no"?>
<!DOCTYPE svg PUBLIC "-//W3C//DTD SVG 1.1//EN"
  "http://www.w3.org/Graphics/SVG/1.1/DTD/svg11.dtd">
<svg xmlns:xlink="http://www.w3.org/1999/xlink" width="631.08pt" height="272.304pt" viewBox="0 0 631.08 272.304" xmlns="http://www.w3.org/2000/svg" version="1.1">
 <metadata>
  <rdf:RDF xmlns:dc="http://purl.org/dc/elements/1.1/" xmlns:cc="http://creativecommons.org/ns#" xmlns:rdf="http://www.w3.org/1999/02/22-rdf-syntax-ns#">
   <cc:Work>
    <dc:type rdf:resource="http://purl.org/dc/dcmitype/StillImage"/>
    <dc:date>2026-06-28T20:08:34.911678</dc:date>
    <dc:format>image/svg+xml</dc:format>
    <dc:creator>
     <cc:Agent>
      <dc:title>Matplotlib v3.10.5, https://matplotlib.org/</dc:title>
     </cc:Agent>
    </dc:creator>
   </cc:Work>
  </rdf:RDF>
 </metadata>
 <defs>
  <style type="text/css">*{stroke-linejoin: round; stroke-linecap: butt}</style>
 </defs>
 <g id="figure_1">
  <g id="patch_1">
   <path d="M 0 272.304 
L 631.08 272.304 
L 631.08 0 
L 0 0 
z
" style="fill: #ffffff"/>
  </g>
  <g id="axes_1">
   <g id="patch_2">
    <path d="M 134.630392 123.4008 
Q 142.756279 123.4008 148.955236 123.4008 
" clip-path="url(#p3683f2c5df)" style="fill: none; stroke: #94a3b8; stroke-width: 1.9; stroke-linecap: round"/>
    <path d="M 142.955236 120.0008 
L 148.955236 123.4008 
L 142.955236 126.8008 
" clip-path="url(#p3683f2c5df)" style="fill: none; stroke: #94a3b8; stroke-width: 1.9; stroke-linecap: round"/>
   </g>
   <g id="patch_3">
    <path d="M 271.507792 123.4008 
Q 279.633679 123.4008 285.832636 123.4008 
" clip-path="url(#p3683f2c5df)" style="fill: none; stroke: #94a3b8; stroke-width: 1.9; stroke-linecap: round"/>
    <path d="M 279.832636 120.0008 
L 285.832636 123.4008 
L 279.832636 126.8008 
" clip-path="url(#p3683f2c5df)" style="fill: none; stroke: #94a3b8; stroke-width: 1.9; stroke-linecap: round"/>
   </g>
   <g id="patch_4">
    <path d="M 408.385192 123.4008 
Q 416.511079 123.4008 422.710036 123.4008 
" clip-path="url(#p3683f2c5df)" style="fill: none; stroke: #94a3b8; stroke-width: 1.9; stroke-linecap: round"/>
    <path d="M 416.710036 120.0008 
L 422.710036 123.4008 
L 416.710036 126.8008 
" clip-path="url(#p3683f2c5df)" style="fill: none; stroke: #94a3b8; stroke-width: 1.9; stroke-linecap: round"/>
   </g>
   <g id="patch_5">
    <path d="M 20.916 164.714688 
L 127.7172 164.714688 
Q 139.9932 164.714688 139.9932 159.614208 
L 139.9932 87.187392 
Q 139.9932 82.086912 127.7172 82.086912 
L 20.916 82.086912 
Q 8.64 82.086912 8.64 87.187392 
L 8.64 159.614208 
Q 8.64 164.714688 20.916 164.714688 
z
" clip-path="url(#p3683f2c5df)" style="fill: #ecfeff; stroke: #a5f3fc; stroke-width: 1.4; stroke-linejoin: miter"/>
   </g>
   <g id="patch_6">
    <path d="M 157.7934 164.714688 
L 264.5946 164.714688 
Q 276.8706 164.714688 276.8706 159.614208 
L 276.8706 87.187392 
Q 276.8706 82.086912 264.5946 82.086912 
L 157.7934 82.086912 
Q 145.5174 82.086912 145.5174 87.187392 
L 145.5174 159.614208 
Q 145.5174 164.714688 157.7934 164.714688 
z
" clip-path="url(#p3683f2c5df)" style="fill: #eff6ff; stroke: #bfdbfe; stroke-width: 1.4; stroke-linejoin: miter"/>
   </g>
   <g id="patch_7">
    <path d="M 294.6708 164.714688 
L 401.472 164.714688 
Q 413.748 164.714688 413.748 159.614208 
L 413.748 87.187392 
Q 413.748 82.086912 401.472 82.086912 
L 294.6708 82.086912 
Q 282.3948 82.086912 282.3948 87.187392 
L 282.3948 159.614208 
Q 282.3948 164.714688 294.6708 164.714688 
z
" clip-path="url(#p3683f2c5df)" style="fill: #f5f3ff; stroke: #ddd6fe; stroke-width: 1.4; stroke-linejoin: miter"/>
   </g>
   <g id="patch_8">
    <path d="M 431.5482 164.714688 
L 538.3494 164.714688 
Q 550.6254 164.714688 550.6254 159.614208 
L 550.6254 87.187392 
Q 550.6254 82.086912 538.3494 82.086912 
L 431.5482 82.086912 
Q 419.2722 82.086912 419.2722 87.187392 
L 419.2722 159.614208 
Q 419.2722 164.714688 431.5482 164.714688 
z
" clip-path="url(#p3683f2c5df)" style="fill: #ecfdf5; stroke: #bbf7d0; stroke-width: 1.4; stroke-linejoin: miter"/>
   </g>
   <g id="text_1">
    <!-- BetXplain — explanation-annotated manipulative ad detection -->
    <g style="fill: #0f172a" transform="translate(16.0056 45.436811) scale(0.155 -0.155)">
     <defs>
      <path id="NotoSansCJKsc-Bold-42" d="M 582 0 
L 2272 0 
C 3315 0 4102 442 4102 1395 
C 4102 2029 3731 2394 3219 2515 
L 3219 2541 
C 3622 2688 3866 3130 3866 3571 
C 3866 4454 3123 4742 2150 4742 
L 582 4742 
L 582 0 
z
M 1530 2810 
L 1530 4013 
L 2093 4013 
C 2662 4013 2944 3846 2944 3430 
C 2944 3053 2688 2810 2086 2810 
L 1530 2810 
z
M 1530 730 
L 1530 2112 
L 2189 2112 
C 2842 2112 3181 1914 3181 1453 
C 3181 960 2829 730 2189 730 
L 1530 730 
z
" transform="scale(0.015625)"/>
      <path id="NotoSansCJKsc-Bold-65" d="M 2067 -90 
C 2509 -90 2963 64 3315 307 
L 2995 883 
C 2733 723 2483 640 2195 640 
C 1658 640 1274 941 1197 1523 
L 3405 1523 
C 3430 1613 3450 1786 3450 1958 
C 3450 2957 2938 3674 1952 3674 
C 1101 3674 282 2950 282 1792 
C 282 608 1062 -90 2067 -90 
z
M 1178 2157 
C 1254 2675 1587 2944 1965 2944 
C 2432 2944 2643 2637 2643 2157 
L 1178 2157 
z
" transform="scale(0.015625)"/>
      <path id="NotoSansCJKsc-Bold-74" d="M 1818 -90 
C 2131 -90 2381 -13 2579 45 
L 2419 730 
C 2323 691 2182 653 2067 653 
C 1747 653 1574 845 1574 1254 
L 1574 2842 
L 2464 2842 
L 2464 3584 
L 1574 3584 
L 1574 4550 
L 800 4550 
L 691 3584 
L 134 3539 
L 134 2842 
L 640 2842 
L 640 1248 
C 640 454 966 -90 1818 -90 
z
" transform="scale(0.015625)"/>
      <path id="NotoSansCJKsc-Bold-58" d="M 96 0 
L 1094 0 
L 1600 1050 
C 1715 1293 1824 1542 1946 1830 
L 1971 1830 
C 2106 1542 2227 1293 2342 1050 
L 2874 0 
L 3923 0 
L 2592 2400 
L 3840 4742 
L 2842 4742 
L 2394 3757 
C 2291 3539 2189 3309 2074 3014 
L 2048 3014 
C 1907 3309 1811 3539 1696 3757 
L 1222 4742 
L 166 4742 
L 1421 2438 
L 96 0 
z
" transform="scale(0.015625)"/>
      <path id="NotoSansCJKsc-Bold-70" d="M 506 -1376 
L 1446 -1376 
L 1446 -282 
L 1414 301 
C 1683 51 1990 -90 2304 -90 
C 3091 -90 3827 621 3827 1850 
C 3827 2950 3296 3674 2419 3674 
C 2029 3674 1664 3469 1363 3213 
L 1344 3213 
L 1274 3584 
L 506 3584 
L 506 -1376 
z
M 2099 685 
C 1901 685 1677 755 1446 954 
L 1446 2534 
C 1690 2778 1907 2899 2150 2899 
C 2643 2899 2861 2522 2861 1837 
C 2861 1056 2522 685 2099 685 
z
" transform="scale(0.015625)"/>
      <path id="NotoSansCJKsc-Bold-6c" d="M 1395 -90 
C 1613 -90 1766 -51 1875 -6 
L 1760 691 
C 1696 678 1670 678 1632 678 
C 1542 678 1446 749 1446 966 
L 1446 5107 
L 506 5107 
L 506 1005 
C 506 339 736 -90 1395 -90 
z
" transform="scale(0.015625)"/>
      <path id="NotoSansCJKsc-Bold-61" d="M 1382 -90 
C 1798 -90 2157 109 2464 384 
L 2496 384 
L 2560 0 
L 3328 0 
L 3328 2093 
C 3328 3130 2861 3674 1952 3674 
C 1389 3674 877 3456 461 3200 
L 794 2573 
C 1126 2771 1446 2918 1779 2918 
C 2221 2918 2374 2650 2387 2298 
C 947 2144 326 1741 326 979 
C 326 365 742 -90 1382 -90 
z
M 1696 646 
C 1421 646 1222 768 1222 1050 
C 1222 1376 1510 1613 2387 1715 
L 2387 998 
C 2163 774 1965 646 1696 646 
z
" transform="scale(0.015625)"/>
      <path id="NotoSansCJKsc-Bold-69" d="M 506 0 
L 1446 0 
L 1446 3584 
L 506 3584 
L 506 0 
z
M 979 4166 
C 1299 4166 1523 4365 1523 4678 
C 1523 4986 1299 5190 979 5190 
C 646 5190 435 4986 435 4678 
C 435 4365 646 4166 979 4166 
z
" transform="scale(0.015625)"/>
      <path id="NotoSansCJKsc-Bold-6e" d="M 506 0 
L 1446 0 
L 1446 2464 
C 1709 2726 1901 2867 2189 2867 
C 2541 2867 2694 2675 2694 2118 
L 2694 0 
L 3635 0 
L 3635 2234 
C 3635 3136 3302 3674 2528 3674 
C 2042 3674 1677 3418 1363 3110 
L 1344 3110 
L 1274 3584 
L 506 3584 
L 506 0 
z
" transform="scale(0.015625)"/>
      <path id="NotoSansCJKsc-Bold-20" transform="scale(0.015625)"/>
      <path id="NotoSansCJKsc-Bold-2014" d="M 314 1536 
L 5498 1536 
L 5498 2138 
L 314 2138 
L 314 1536 
z
" transform="scale(0.015625)"/>
      <path id="NotoSansCJKsc-Bold-78" d="M 102 0 
L 1082 0 
L 1408 659 
C 1510 870 1606 1082 1709 1280 
L 1741 1280 
C 1856 1082 1978 870 2086 659 
L 2483 0 
L 3494 0 
L 2374 1760 
L 3424 3584 
L 2451 3584 
L 2150 2950 
C 2067 2746 1971 2541 1888 2342 
L 1862 2342 
C 1754 2541 1645 2746 1542 2950 
L 1184 3584 
L 173 3584 
L 1222 1862 
L 102 0 
z
" transform="scale(0.015625)"/>
      <path id="NotoSansCJKsc-Bold-6f" d="M 2003 -90 
C 2899 -90 3725 602 3725 1792 
C 3725 2982 2899 3674 2003 3674 
C 1101 3674 282 2982 282 1792 
C 282 602 1101 -90 2003 -90 
z
M 2003 678 
C 1510 678 1242 1114 1242 1792 
C 1242 2464 1510 2906 2003 2906 
C 2490 2906 2765 2464 2765 1792 
C 2765 1114 2490 678 2003 678 
z
" transform="scale(0.015625)"/>
      <path id="NotoSansCJKsc-Bold-2d" d="M 314 1491 
L 2061 1491 
L 2061 2170 
L 314 2170 
L 314 1491 
z
" transform="scale(0.015625)"/>
      <path id="NotoSansCJKsc-Bold-64" d="M 1766 -90 
C 2138 -90 2496 109 2758 371 
L 2784 371 
L 2854 0 
L 3622 0 
L 3622 5107 
L 2682 5107 
L 2682 3846 
L 2714 3283 
C 2458 3520 2208 3674 1805 3674 
C 1037 3674 301 2957 301 1792 
C 301 614 870 -90 1766 -90 
z
M 2010 685 
C 1536 685 1267 1056 1267 1805 
C 1267 2515 1606 2899 2010 2899 
C 2240 2899 2464 2829 2682 2630 
L 2682 1056 
C 2477 787 2259 685 2010 685 
z
" transform="scale(0.015625)"/>
      <path id="NotoSansCJKsc-Bold-6d" d="M 506 0 
L 1446 0 
L 1446 2464 
C 1696 2739 1926 2867 2131 2867 
C 2477 2867 2637 2675 2637 2118 
L 2637 0 
L 3571 0 
L 3571 2464 
C 3827 2739 4058 2867 4262 2867 
C 4602 2867 4762 2675 4762 2118 
L 4762 0 
L 5696 0 
L 5696 2234 
C 5696 3136 5350 3674 4589 3674 
C 4128 3674 3776 3392 3443 3046 
C 3277 3443 2976 3674 2464 3674 
C 1997 3674 1664 3418 1363 3104 
L 1344 3104 
L 1274 3584 
L 506 3584 
L 506 0 
z
" transform="scale(0.015625)"/>
      <path id="NotoSansCJKsc-Bold-75" d="M 1574 -90 
C 2067 -90 2406 154 2714 518 
L 2739 518 
L 2810 0 
L 3578 0 
L 3578 3584 
L 2637 3584 
L 2637 1165 
C 2394 845 2202 717 1914 717 
C 1562 717 1402 909 1402 1466 
L 1402 3584 
L 467 3584 
L 467 1350 
C 467 448 800 -90 1574 -90 
z
" transform="scale(0.015625)"/>
      <path id="NotoSansCJKsc-Bold-76" d="M 1312 0 
L 2400 0 
L 3597 3584 
L 2694 3584 
L 2170 1798 
C 2074 1446 1978 1075 1882 710 
L 1850 710 
C 1747 1075 1658 1446 1555 1798 
L 1037 3584 
L 90 3584 
L 1312 0 
z
" transform="scale(0.015625)"/>
      <path id="NotoSansCJKsc-Bold-63" d="M 2029 -90 
C 2426 -90 2861 45 3200 346 
L 2829 966 
C 2630 800 2394 678 2131 678 
C 1613 678 1242 1114 1242 1792 
C 1242 2464 1613 2906 2163 2906 
C 2362 2906 2528 2822 2707 2675 
L 3155 3270 
C 2893 3507 2554 3674 2112 3674 
C 1139 3674 282 2982 282 1792 
C 282 602 1043 -90 2029 -90 
z
" transform="scale(0.015625)"/>
     </defs>
     <use xlink:href="#NotoSansCJKsc-Bold-42"/>
     <use xlink:href="#NotoSansCJKsc-Bold-65" transform="translate(68.099991 0)"/>
     <use xlink:href="#NotoSansCJKsc-Bold-74" transform="translate(126.199982 0)"/>
     <use xlink:href="#NotoSansCJKsc-Bold-58" transform="translate(168.299973 0)"/>
     <use xlink:href="#NotoSansCJKsc-Bold-70" transform="translate(230.999969 0)"/>
     <use xlink:href="#NotoSansCJKsc-Bold-6c" transform="translate(295.399963 0)"/>
     <use xlink:href="#NotoSansCJKsc-Bold-61" transform="translate(326.899948 0)"/>
     <use xlink:href="#NotoSansCJKsc-Bold-69" transform="translate(385.999939 0)"/>
     <use xlink:href="#NotoSansCJKsc-Bold-6e" transform="translate(416.399933 0)"/>
     <use xlink:href="#NotoSansCJKsc-Bold-20" transform="translate(480.499924 0)"/>
     <use xlink:href="#NotoSansCJKsc-Bold-2014" transform="translate(503.199921 0)"/>
     <use xlink:href="#NotoSansCJKsc-Bold-20" transform="translate(593.999908 0)"/>
     <use xlink:href="#NotoSansCJKsc-Bold-65" transform="translate(616.699905 0)"/>
     <use xlink:href="#NotoSansCJKsc-Bold-78" transform="translate(674.799896 0)"/>
     <use xlink:href="#NotoSansCJKsc-Bold-70" transform="translate(730.999893 0)"/>
     <use xlink:href="#NotoSansCJKsc-Bold-6c" transform="translate(795.399887 0)"/>
     <use xlink:href="#NotoSansCJKsc-Bold-61" transform="translate(826.899872 0)"/>
     <use xlink:href="#NotoSansCJKsc-Bold-6e" transform="translate(885.999863 0)"/>
     <use xlink:href="#NotoSansCJKsc-Bold-61" transform="translate(950.099854 0)"/>
     <use xlink:href="#NotoSansCJKsc-Bold-74" transform="translate(1009.199844 0)"/>
     <use xlink:href="#NotoSansCJKsc-Bold-69" transform="translate(1051.299835 0)"/>
     <use xlink:href="#NotoSansCJKsc-Bold-6f" transform="translate(1081.699829 0)"/>
     <use xlink:href="#NotoSansCJKsc-Bold-6e" transform="translate(1144.29982 0)"/>
     <use xlink:href="#NotoSansCJKsc-Bold-2d" transform="translate(1208.399811 0)"/>
     <use xlink:href="#NotoSansCJKsc-Bold-61" transform="translate(1245.399796 0)"/>
     <use xlink:href="#NotoSansCJKsc-Bold-6e" transform="translate(1304.499786 0)"/>
     <use xlink:href="#NotoSansCJKsc-Bold-6e" transform="translate(1368.599777 0)"/>
     <use xlink:href="#NotoSansCJKsc-Bold-6f" transform="translate(1432.699768 0)"/>
     <use xlink:href="#NotoSansCJKsc-Bold-74" transform="translate(1495.299759 0)"/>
     <use xlink:href="#NotoSansCJKsc-Bold-61" transform="translate(1537.39975 0)"/>
     <use xlink:href="#NotoSansCJKsc-Bold-74" transform="translate(1596.499741 0)"/>
     <use xlink:href="#NotoSansCJKsc-Bold-65" transform="translate(1638.599731 0)"/>
     <use xlink:href="#NotoSansCJKsc-Bold-64" transform="translate(1696.699722 0)"/>
     <use xlink:href="#NotoSansCJKsc-Bold-20" transform="translate(1761.099716 0)"/>
     <use xlink:href="#NotoSansCJKsc-Bold-6d" transform="translate(1783.799713 0)"/>
     <use xlink:href="#NotoSansCJKsc-Bold-61" transform="translate(1880.199707 0)"/>
     <use xlink:href="#NotoSansCJKsc-Bold-6e" transform="translate(1939.299698 0)"/>
     <use xlink:href="#NotoSansCJKsc-Bold-69" transform="translate(2003.399689 0)"/>
     <use xlink:href="#NotoSansCJKsc-Bold-70" transform="translate(2033.799683 0)"/>
     <use xlink:href="#NotoSansCJKsc-Bold-75" transform="translate(2098.199677 0)"/>
     <use xlink:href="#NotoSansCJKsc-Bold-6c" transform="translate(2161.899673 0)"/>
     <use xlink:href="#NotoSansCJKsc-Bold-61" transform="translate(2193.399658 0)"/>
     <use xlink:href="#NotoSansCJKsc-Bold-74" transform="translate(2252.499649 0)"/>
     <use xlink:href="#NotoSansCJKsc-Bold-69" transform="translate(2294.59964 0)"/>
     <use xlink:href="#NotoSansCJKsc-Bold-76" transform="translate(2324.999634 0)"/>
     <use xlink:href="#NotoSansCJKsc-Bold-65" transform="translate(2382.599625 0)"/>
     <use xlink:href="#NotoSansCJKsc-Bold-20" transform="translate(2440.699615 0)"/>
     <use xlink:href="#NotoSansCJKsc-Bold-61" transform="translate(2463.399612 0)"/>
     <use xlink:href="#NotoSansCJKsc-Bold-64" transform="translate(2522.499603 0)"/>
     <use xlink:href="#NotoSansCJKsc-Bold-20" transform="translate(2586.899597 0)"/>
     <use xlink:href="#NotoSansCJKsc-Bold-64" transform="translate(2609.599594 0)"/>
     <use xlink:href="#NotoSansCJKsc-Bold-65" transform="translate(2673.999588 0)"/>
     <use xlink:href="#NotoSansCJKsc-Bold-74" transform="translate(2732.099579 0)"/>
     <use xlink:href="#NotoSansCJKsc-Bold-65" transform="translate(2774.19957 0)"/>
     <use xlink:href="#NotoSansCJKsc-Bold-63" transform="translate(2832.299561 0)"/>
     <use xlink:href="#NotoSansCJKsc-Bold-74" transform="translate(2884.999557 0)"/>
     <use xlink:href="#NotoSansCJKsc-Bold-69" transform="translate(2927.099548 0)"/>
     <use xlink:href="#NotoSansCJKsc-Bold-6f" transform="translate(2957.499542 0)"/>
     <use xlink:href="#NotoSansCJKsc-Bold-6e" transform="translate(3020.099533 0)"/>
    </g>
   </g>
   <g id="text_2">
    <!-- Collect ads -&gt; label + human explanations -&gt; train explainable classifier -&gt; audit strategies -->
    <g style="fill: #64748b" transform="translate(16.0056 54.150552) scale(0.096 -0.096)">
     <defs>
      <path id="NotoSansCJKsc-Regular-43" d="M 2413 -83 
C 3021 -83 3482 160 3853 589 
L 3526 966 
C 3226 634 2886 435 2438 435 
C 1542 435 979 1178 979 2362 
C 979 3533 1574 4256 2458 4256 
C 2861 4256 3168 4077 3418 3814 
L 3738 4198 
C 3469 4499 3021 4774 2451 4774 
C 1261 4774 371 3859 371 2342 
C 371 819 1242 -83 2413 -83 
z
" transform="scale(0.015625)"/>
      <path id="NotoSansCJKsc-Regular-6f" d="M 1939 -83 
C 2790 -83 3546 582 3546 1734 
C 3546 2893 2790 3565 1939 3565 
C 1088 3565 333 2893 333 1734 
C 333 582 1088 -83 1939 -83 
z
M 1939 403 
C 1338 403 934 934 934 1734 
C 934 2534 1338 3072 1939 3072 
C 2541 3072 2950 2534 2950 1734 
C 2950 934 2541 403 1939 403 
z
" transform="scale(0.015625)"/>
      <path id="NotoSansCJKsc-Regular-6c" d="M 1203 -83 
C 1363 -83 1459 -58 1542 -32 
L 1459 416 
C 1395 403 1370 403 1338 403 
C 1248 403 1178 474 1178 653 
L 1178 5094 
L 589 5094 
L 589 691 
C 589 198 768 -83 1203 -83 
z
" transform="scale(0.015625)"/>
      <path id="NotoSansCJKsc-Regular-65" d="M 1997 -83 
C 2464 -83 2835 70 3136 269 
L 2931 659 
C 2669 486 2400 384 2061 384 
C 1402 384 947 858 909 1600 
L 3251 1600 
C 3264 1690 3277 1805 3277 1933 
C 3277 2925 2778 3565 1888 3565 
C 1094 3565 333 2867 333 1734 
C 333 589 1069 -83 1997 -83 
z
M 902 2016 
C 973 2707 1408 3098 1901 3098 
C 2445 3098 2765 2720 2765 2016 
L 902 2016 
z
" transform="scale(0.015625)"/>
      <path id="NotoSansCJKsc-Regular-63" d="M 1958 -83 
C 2374 -83 2771 83 3085 352 
L 2829 749 
C 2611 557 2330 403 2010 403 
C 1370 403 934 934 934 1734 
C 934 2534 1395 3072 2029 3072 
C 2298 3072 2522 2950 2720 2771 
L 3014 3155 
C 2771 3373 2458 3565 2003 3565 
C 1107 3565 333 2893 333 1734 
C 333 582 1037 -83 1958 -83 
z
" transform="scale(0.015625)"/>
      <path id="NotoSansCJKsc-Regular-74" d="M 1677 -83 
C 1894 -83 2125 -19 2323 45 
L 2208 486 
C 2093 435 1939 390 1811 390 
C 1408 390 1274 634 1274 1056 
L 1274 3002 
L 2221 3002 
L 2221 3475 
L 1274 3475 
L 1274 4454 
L 787 4454 
L 723 3475 
L 173 3443 
L 173 3002 
L 691 3002 
L 691 1075 
C 691 378 941 -83 1677 -83 
z
" transform="scale(0.015625)"/>
      <path id="NotoSansCJKsc-Regular-20" transform="scale(0.015625)"/>
      <path id="NotoSansCJKsc-Regular-61" d="M 1389 -83 
C 1818 -83 2208 141 2541 416 
L 2560 416 
L 2611 0 
L 3091 0 
L 3091 2138 
C 3091 3002 2739 3565 1888 3565 
C 1325 3565 838 3315 525 3110 
L 749 2707 
C 1024 2893 1389 3078 1792 3078 
C 2362 3078 2509 2650 2509 2202 
C 1030 2035 378 1658 378 902 
C 378 275 806 -83 1389 -83 
z
M 1555 390 
C 1210 390 941 544 941 941 
C 941 1389 1338 1677 2509 1811 
L 2509 845 
C 2170 544 1888 390 1555 390 
z
" transform="scale(0.015625)"/>
      <path id="NotoSansCJKsc-Regular-64" d="M 1773 -83 
C 2189 -83 2560 141 2829 410 
L 2848 410 
L 2899 0 
L 3379 0 
L 3379 5094 
L 2790 5094 
L 2790 3757 
L 2822 3162 
C 2515 3411 2253 3565 1843 3565 
C 1050 3565 339 2861 339 1734 
C 339 576 902 -83 1773 -83 
z
M 1901 410 
C 1293 410 941 902 941 1741 
C 941 2534 1389 3072 1946 3072 
C 2234 3072 2502 2970 2790 2707 
L 2790 883 
C 2502 563 2221 410 1901 410 
z
" transform="scale(0.015625)"/>
      <path id="NotoSansCJKsc-Regular-73" d="M 1498 -83 
C 2317 -83 2758 384 2758 947 
C 2758 1606 2208 1811 1702 2003 
C 1312 2150 954 2278 954 2605 
C 954 2880 1158 3110 1600 3110 
C 1907 3110 2150 2976 2387 2803 
L 2669 3168 
C 2406 3386 2022 3565 1594 3565 
C 832 3565 397 3130 397 2579 
C 397 1984 922 1754 1408 1574 
C 1792 1434 2202 1267 2202 915 
C 2202 614 1978 371 1517 371 
C 1101 371 794 538 486 787 
L 205 397 
C 531 122 1005 -83 1498 -83 
z
" transform="scale(0.015625)"/>
      <path id="NotoSansCJKsc-Regular-2d" d="M 294 1568 
L 1933 1568 
L 1933 2016 
L 294 2016 
L 294 1568 
z
" transform="scale(0.015625)"/>
      <path id="NotoSansCJKsc-Regular-3e" d="M 243 934 
L 3315 2144 
L 3315 2605 
L 243 3814 
L 243 3309 
L 1754 2746 
L 2714 2387 
L 2714 2362 
L 1754 2003 
L 243 1446 
L 243 934 
z
" transform="scale(0.015625)"/>
      <path id="NotoSansCJKsc-Regular-62" d="M 2118 -83 
C 2912 -83 3629 602 3629 1792 
C 3629 2867 3142 3565 2246 3565 
C 1856 3565 1472 3347 1152 3078 
L 1178 3699 
L 1178 5094 
L 589 5094 
L 589 0 
L 1056 0 
L 1107 358 
L 1133 358 
C 1434 83 1798 -83 2118 -83 
z
M 2022 410 
C 1792 410 1478 499 1178 768 
L 1178 2598 
C 1504 2906 1811 3072 2099 3072 
C 2765 3072 3021 2560 3021 1786 
C 3021 928 2598 410 2022 410 
z
" transform="scale(0.015625)"/>
      <path id="NotoSansCJKsc-Regular-2b" d="M 1542 742 
L 2010 742 
L 2010 2144 
L 3315 2144 
L 3315 2579 
L 2010 2579 
L 2010 3981 
L 1542 3981 
L 1542 2579 
L 243 2579 
L 243 2144 
L 1542 2144 
L 1542 742 
z
" transform="scale(0.015625)"/>
      <path id="NotoSansCJKsc-Regular-68" d="M 589 0 
L 1178 0 
L 1178 2522 
C 1523 2874 1766 3053 2125 3053 
C 2586 3053 2784 2778 2784 2125 
L 2784 0 
L 3366 0 
L 3366 2202 
C 3366 3085 3034 3565 2304 3565 
C 1830 3565 1472 3302 1152 2982 
L 1178 3699 
L 1178 5094 
L 589 5094 
L 589 0 
z
" transform="scale(0.015625)"/>
      <path id="NotoSansCJKsc-Regular-75" d="M 1606 -83 
C 2080 -83 2426 166 2752 544 
L 2771 544 
L 2816 0 
L 3302 0 
L 3302 3475 
L 2720 3475 
L 2720 1011 
C 2387 602 2138 422 1779 422 
C 1318 422 1126 698 1126 1344 
L 1126 3475 
L 538 3475 
L 538 1274 
C 538 384 870 -83 1606 -83 
z
" transform="scale(0.015625)"/>
      <path id="NotoSansCJKsc-Regular-6d" d="M 589 0 
L 1178 0 
L 1178 2522 
C 1491 2880 1786 3053 2048 3053 
C 2490 3053 2694 2778 2694 2125 
L 2694 0 
L 3277 0 
L 3277 2522 
C 3603 2880 3885 3053 4154 3053 
C 4595 3053 4800 2778 4800 2125 
L 4800 0 
L 5382 0 
L 5382 2202 
C 5382 3085 5043 3565 4333 3565 
C 3904 3565 3546 3290 3181 2899 
C 3040 3309 2758 3565 2221 3565 
C 1805 3565 1446 3302 1139 2970 
L 1126 2970 
L 1069 3475 
L 589 3475 
L 589 0 
z
" transform="scale(0.015625)"/>
      <path id="NotoSansCJKsc-Regular-6e" d="M 589 0 
L 1178 0 
L 1178 2522 
C 1523 2874 1766 3053 2125 3053 
C 2586 3053 2784 2778 2784 2125 
L 2784 0 
L 3366 0 
L 3366 2202 
C 3366 3085 3034 3565 2304 3565 
C 1830 3565 1466 3302 1139 2970 
L 1126 2970 
L 1069 3475 
L 589 3475 
L 589 0 
z
" transform="scale(0.015625)"/>
      <path id="NotoSansCJKsc-Regular-78" d="M 96 0 
L 710 0 
L 1178 813 
C 1299 1024 1408 1235 1530 1434 
L 1562 1434 
C 1696 1235 1824 1024 1939 813 
L 2451 0 
L 3091 0 
L 1946 1754 
L 3002 3475 
L 2394 3475 
L 1965 2714 
C 1856 2515 1760 2330 1658 2131 
L 1626 2131 
C 1510 2330 1389 2515 1286 2714 
L 819 3475 
L 186 3475 
L 1242 1811 
L 96 0 
z
" transform="scale(0.015625)"/>
      <path id="NotoSansCJKsc-Regular-70" d="M 589 -1466 
L 1178 -1466 
L 1178 -288 
L 1158 320 
C 1472 58 1805 -83 2118 -83 
C 2912 -83 3629 602 3629 1792 
C 3629 2867 3142 3565 2246 3565 
C 1843 3565 1453 3334 1139 3072 
L 1126 3072 
L 1069 3475 
L 589 3475 
L 589 -1466 
z
M 2022 410 
C 1792 410 1485 499 1178 768 
L 1178 2598 
C 1510 2906 1811 3072 2099 3072 
C 2765 3072 3021 2560 3021 1786 
C 3021 928 2598 410 2022 410 
z
" transform="scale(0.015625)"/>
      <path id="NotoSansCJKsc-Regular-69" d="M 589 0 
L 1178 0 
L 1178 3475 
L 589 3475 
L 589 0 
z
M 883 4192 
C 1114 4192 1274 4346 1274 4582 
C 1274 4806 1114 4960 883 4960 
C 653 4960 499 4806 499 4582 
C 499 4346 653 4192 883 4192 
z
" transform="scale(0.015625)"/>
      <path id="NotoSansCJKsc-Regular-72" d="M 589 0 
L 1178 0 
L 1178 2234 
C 1408 2822 1760 3040 2048 3040 
C 2195 3040 2272 3021 2387 2982 
L 2496 3488 
C 2387 3546 2278 3565 2125 3565 
C 1741 3565 1382 3283 1139 2842 
L 1126 2842 
L 1069 3475 
L 589 3475 
L 589 0 
z
" transform="scale(0.015625)"/>
      <path id="NotoSansCJKsc-Regular-66" d="M 211 3002 
L 685 3002 
L 685 0 
L 1267 0 
L 1267 3002 
L 2003 3002 
L 2003 3475 
L 1267 3475 
L 1267 4026 
C 1267 4474 1427 4710 1760 4710 
C 1882 4710 2022 4678 2150 4614 
L 2278 5069 
C 2118 5133 1914 5178 1696 5178 
C 1005 5178 685 4736 685 4032 
L 685 3475 
L 211 3443 
L 211 3002 
z
" transform="scale(0.015625)"/>
      <path id="NotoSansCJKsc-Regular-67" d="M 1760 -1600 
C 2835 -1600 3520 -1043 3520 -397 
C 3520 179 3110 429 2310 429 
L 1626 429 
C 1158 429 1018 589 1018 806 
C 1018 998 1114 1114 1242 1222 
C 1395 1146 1587 1101 1754 1101 
C 2470 1101 3027 1568 3027 2310 
C 3027 2611 2912 2867 2746 3027 
L 3456 3027 
L 3456 3475 
L 2246 3475 
C 2125 3526 1952 3565 1754 3565 
C 1056 3565 454 3085 454 2323 
C 454 1907 678 1568 909 1389 
L 909 1363 
C 723 1235 525 1005 525 717 
C 525 442 659 256 838 147 
L 838 115 
C 512 -83 326 -371 326 -672 
C 326 -1267 915 -1600 1760 -1600 
z
M 1754 1498 
C 1357 1498 1018 1818 1018 2323 
C 1018 2835 1350 3136 1754 3136 
C 2170 3136 2496 2835 2496 2323 
C 2496 1818 2157 1498 1754 1498 
z
M 1843 -1197 
C 1210 -1197 838 -960 838 -589 
C 838 -390 941 -179 1190 0 
C 1344 -38 1510 -51 1638 -51 
L 2240 -51 
C 2701 -51 2944 -166 2944 -493 
C 2944 -851 2515 -1197 1843 -1197 
z
" transform="scale(0.015625)"/>
     </defs>
     <use xlink:href="#NotoSansCJKsc-Regular-43"/>
     <use xlink:href="#NotoSansCJKsc-Regular-6f" transform="translate(63.799988 0)"/>
     <use xlink:href="#NotoSansCJKsc-Regular-6c" transform="translate(124.399979 0)"/>
     <use xlink:href="#NotoSansCJKsc-Regular-6c" transform="translate(152.799973 0)"/>
     <use xlink:href="#NotoSansCJKsc-Regular-65" transform="translate(181.199966 0)"/>
     <use xlink:href="#NotoSansCJKsc-Regular-63" transform="translate(236.59996 0)"/>
     <use xlink:href="#NotoSansCJKsc-Regular-74" transform="translate(287.599945 0)"/>
     <use xlink:href="#NotoSansCJKsc-Regular-20" transform="translate(325.299942 0)"/>
     <use xlink:href="#NotoSansCJKsc-Regular-61" transform="translate(347.699936 0)"/>
     <use xlink:href="#NotoSansCJKsc-Regular-64" transform="translate(403.999924 0)"/>
     <use xlink:href="#NotoSansCJKsc-Regular-73" transform="translate(465.999908 0)"/>
     <use xlink:href="#NotoSansCJKsc-Regular-20" transform="translate(512.799896 0)"/>
     <use xlink:href="#NotoSansCJKsc-Regular-2d" transform="translate(535.19989 0)"/>
     <use xlink:href="#NotoSansCJKsc-Regular-3e" transform="translate(569.899887 0)"/>
     <use xlink:href="#NotoSansCJKsc-Regular-20" transform="translate(625.399872 0)"/>
     <use xlink:href="#NotoSansCJKsc-Regular-6c" transform="translate(647.799866 0)"/>
     <use xlink:href="#NotoSansCJKsc-Regular-61" transform="translate(676.19986 0)"/>
     <use xlink:href="#NotoSansCJKsc-Regular-62" transform="translate(732.499847 0)"/>
     <use xlink:href="#NotoSansCJKsc-Regular-65" transform="translate(794.299835 0)"/>
     <use xlink:href="#NotoSansCJKsc-Regular-6c" transform="translate(849.699829 0)"/>
     <use xlink:href="#NotoSansCJKsc-Regular-20" transform="translate(878.099823 0)"/>
     <use xlink:href="#NotoSansCJKsc-Regular-2b" transform="translate(900.499817 0)"/>
     <use xlink:href="#NotoSansCJKsc-Regular-20" transform="translate(955.999802 0)"/>
     <use xlink:href="#NotoSansCJKsc-Regular-68" transform="translate(978.399796 0)"/>
     <use xlink:href="#NotoSansCJKsc-Regular-75" transform="translate(1039.099792 0)"/>
     <use xlink:href="#NotoSansCJKsc-Regular-6d" transform="translate(1099.799789 0)"/>
     <use xlink:href="#NotoSansCJKsc-Regular-61" transform="translate(1192.39978 0)"/>
     <use xlink:href="#NotoSansCJKsc-Regular-6e" transform="translate(1248.699768 0)"/>
     <use xlink:href="#NotoSansCJKsc-Regular-20" transform="translate(1309.699753 0)"/>
     <use xlink:href="#NotoSansCJKsc-Regular-65" transform="translate(1332.099747 0)"/>
     <use xlink:href="#NotoSansCJKsc-Regular-78" transform="translate(1387.499741 0)"/>
     <use xlink:href="#NotoSansCJKsc-Regular-70" transform="translate(1437.299728 0)"/>
     <use xlink:href="#NotoSansCJKsc-Regular-6c" transform="translate(1499.299713 0)"/>
     <use xlink:href="#NotoSansCJKsc-Regular-61" transform="translate(1527.699707 0)"/>
     <use xlink:href="#NotoSansCJKsc-Regular-6e" transform="translate(1583.999695 0)"/>
     <use xlink:href="#NotoSansCJKsc-Regular-61" transform="translate(1644.99968 0)"/>
     <use xlink:href="#NotoSansCJKsc-Regular-74" transform="translate(1701.299667 0)"/>
     <use xlink:href="#NotoSansCJKsc-Regular-69" transform="translate(1738.999664 0)"/>
     <use xlink:href="#NotoSansCJKsc-Regular-6f" transform="translate(1766.499649 0)"/>
     <use xlink:href="#NotoSansCJKsc-Regular-6e" transform="translate(1827.09964 0)"/>
     <use xlink:href="#NotoSansCJKsc-Regular-73" transform="translate(1888.099625 0)"/>
     <use xlink:href="#NotoSansCJKsc-Regular-20" transform="translate(1934.899612 0)"/>
     <use xlink:href="#NotoSansCJKsc-Regular-2d" transform="translate(1957.299606 0)"/>
     <use xlink:href="#NotoSansCJKsc-Regular-3e" transform="translate(1991.999603 0)"/>
     <use xlink:href="#NotoSansCJKsc-Regular-20" transform="translate(2047.499588 0)"/>
     <use xlink:href="#NotoSansCJKsc-Regular-74" transform="translate(2069.899582 0)"/>
     <use xlink:href="#NotoSansCJKsc-Regular-72" transform="translate(2107.599579 0)"/>
     <use xlink:href="#NotoSansCJKsc-Regular-61" transform="translate(2146.399567 0)"/>
     <use xlink:href="#NotoSansCJKsc-Regular-69" transform="translate(2202.699554 0)"/>
     <use xlink:href="#NotoSansCJKsc-Regular-6e" transform="translate(2230.199539 0)"/>
     <use xlink:href="#NotoSansCJKsc-Regular-20" transform="translate(2291.199524 0)"/>
     <use xlink:href="#NotoSansCJKsc-Regular-65" transform="translate(2313.599518 0)"/>
     <use xlink:href="#NotoSansCJKsc-Regular-78" transform="translate(2368.999512 0)"/>
     <use xlink:href="#NotoSansCJKsc-Regular-70" transform="translate(2418.7995 0)"/>
     <use xlink:href="#NotoSansCJKsc-Regular-6c" transform="translate(2480.799484 0)"/>
     <use xlink:href="#NotoSansCJKsc-Regular-61" transform="translate(2509.199478 0)"/>
     <use xlink:href="#NotoSansCJKsc-Regular-69" transform="translate(2565.499466 0)"/>
     <use xlink:href="#NotoSansCJKsc-Regular-6e" transform="translate(2592.999451 0)"/>
     <use xlink:href="#NotoSansCJKsc-Regular-61" transform="translate(2653.999435 0)"/>
     <use xlink:href="#NotoSansCJKsc-Regular-62" transform="translate(2710.299423 0)"/>
     <use xlink:href="#NotoSansCJKsc-Regular-6c" transform="translate(2772.099411 0)"/>
     <use xlink:href="#NotoSansCJKsc-Regular-65" transform="translate(2800.499405 0)"/>
     <use xlink:href="#NotoSansCJKsc-Regular-20" transform="translate(2855.899399 0)"/>
     <use xlink:href="#NotoSansCJKsc-Regular-63" transform="translate(2878.299393 0)"/>
     <use xlink:href="#NotoSansCJKsc-Regular-6c" transform="translate(2929.299377 0)"/>
     <use xlink:href="#NotoSansCJKsc-Regular-61" transform="translate(2957.699371 0)"/>
     <use xlink:href="#NotoSansCJKsc-Regular-73" transform="translate(3013.999359 0)"/>
     <use xlink:href="#NotoSansCJKsc-Regular-73" transform="translate(3060.799347 0)"/>
     <use xlink:href="#NotoSansCJKsc-Regular-69" transform="translate(3107.599335 0)"/>
     <use xlink:href="#NotoSansCJKsc-Regular-66" transform="translate(3135.099319 0)"/>
     <use xlink:href="#NotoSansCJKsc-Regular-69" transform="translate(3167.599304 0)"/>
     <use xlink:href="#NotoSansCJKsc-Regular-65" transform="translate(3195.099289 0)"/>
     <use xlink:href="#NotoSansCJKsc-Regular-72" transform="translate(3250.499283 0)"/>
     <use xlink:href="#NotoSansCJKsc-Regular-20" transform="translate(3289.299271 0)"/>
     <use xlink:href="#NotoSansCJKsc-Regular-2d" transform="translate(3311.699265 0)"/>
     <use xlink:href="#NotoSansCJKsc-Regular-3e" transform="translate(3346.399261 0)"/>
     <use xlink:href="#NotoSansCJKsc-Regular-20" transform="translate(3401.899246 0)"/>
     <use xlink:href="#NotoSansCJKsc-Regular-61" transform="translate(3424.29924 0)"/>
     <use xlink:href="#NotoSansCJKsc-Regular-75" transform="translate(3480.599228 0)"/>
     <use xlink:href="#NotoSansCJKsc-Regular-64" transform="translate(3541.299225 0)"/>
     <use xlink:href="#NotoSansCJKsc-Regular-69" transform="translate(3603.29921 0)"/>
     <use xlink:href="#NotoSansCJKsc-Regular-74" transform="translate(3630.799194 0)"/>
     <use xlink:href="#NotoSansCJKsc-Regular-20" transform="translate(3668.499191 0)"/>
     <use xlink:href="#NotoSansCJKsc-Regular-73" transform="translate(3690.899185 0)"/>
     <use xlink:href="#NotoSansCJKsc-Regular-74" transform="translate(3737.699173 0)"/>
     <use xlink:href="#NotoSansCJKsc-Regular-72" transform="translate(3775.39917 0)"/>
     <use xlink:href="#NotoSansCJKsc-Regular-61" transform="translate(3814.199158 0)"/>
     <use xlink:href="#NotoSansCJKsc-Regular-74" transform="translate(3870.499146 0)"/>
     <use xlink:href="#NotoSansCJKsc-Regular-65" transform="translate(3908.199142 0)"/>
     <use xlink:href="#NotoSansCJKsc-Regular-67" transform="translate(3963.599136 0)"/>
     <use xlink:href="#NotoSansCJKsc-Regular-69" transform="translate(4019.99913 0)"/>
     <use xlink:href="#NotoSansCJKsc-Regular-65" transform="translate(4047.499115 0)"/>
     <use xlink:href="#NotoSansCJKsc-Regular-73" transform="translate(4102.899109 0)"/>
    </g>
   </g>
   <g id="text_3">
    <!-- Ads -->
    <g style="fill: #0891b2" transform="translate(64.5266 107.186104) scale(0.11 -0.11)">
     <defs>
      <path id="NotoSansCJKsc-Bold-41" d="M -26 0 
L 934 0 
L 1267 1216 
L 2797 1216 
L 3130 0 
L 4128 0 
L 2611 4742 
L 1491 4742 
L -26 0 
z
M 1472 1952 
L 1613 2470 
C 1754 2963 1888 3501 2016 4019 
L 2042 4019 
C 2182 3514 2310 2963 2458 2470 
L 2598 1952 
L 1472 1952 
z
" transform="scale(0.015625)"/>
      <path id="NotoSansCJKsc-Bold-73" d="M 1530 -90 
C 2458 -90 2957 410 2957 1043 
C 2957 1702 2432 1946 1958 2125 
C 1574 2266 1248 2362 1248 2624 
C 1248 2829 1402 2970 1728 2970 
C 1990 2970 2240 2842 2496 2662 
L 2918 3232 
C 2624 3462 2221 3674 1702 3674 
C 883 3674 365 3219 365 2579 
C 365 1978 870 1702 1325 1530 
C 1702 1382 2074 1261 2074 992 
C 2074 768 1914 614 1555 614 
C 1216 614 915 762 595 1005 
L 166 410 
C 525 115 1050 -90 1530 -90 
z
" transform="scale(0.015625)"/>
     </defs>
     <use xlink:href="#NotoSansCJKsc-Bold-41"/>
     <use xlink:href="#NotoSansCJKsc-Bold-64" transform="translate(64.099991 0)"/>
     <use xlink:href="#NotoSansCJKsc-Bold-73" transform="translate(128.499985 0)"/>
    </g>
   </g>
   <g id="text_4">
    <!-- Instagram -->
    <g style="fill: #475569" transform="translate(52.933163 120.684888) scale(0.09 -0.09)">
     <defs>
      <path id="NotoSansCJKsc-Regular-49" d="M 646 0 
L 1235 0 
L 1235 4691 
L 646 4691 
L 646 0 
z
" transform="scale(0.015625)"/>
     </defs>
     <use xlink:href="#NotoSansCJKsc-Regular-49"/>
     <use xlink:href="#NotoSansCJKsc-Regular-6e" transform="translate(29.299988 0)"/>
     <use xlink:href="#NotoSansCJKsc-Regular-73" transform="translate(90.299973 0)"/>
     <use xlink:href="#NotoSansCJKsc-Regular-74" transform="translate(137.09996 0)"/>
     <use xlink:href="#NotoSansCJKsc-Regular-61" transform="translate(174.799957 0)"/>
     <use xlink:href="#NotoSansCJKsc-Regular-67" transform="translate(231.099945 0)"/>
     <use xlink:href="#NotoSansCJKsc-Regular-72" transform="translate(287.499939 0)"/>
     <use xlink:href="#NotoSansCJKsc-Regular-61" transform="translate(326.299927 0)"/>
     <use xlink:href="#NotoSansCJKsc-Regular-6d" transform="translate(382.599915 0)"/>
    </g>
   </g>
   <g id="text_5">
    <!-- Reddit -->
    <g style="fill: #475569" transform="translate(60.451678 133.624526) scale(0.09 -0.09)">
     <defs>
      <path id="NotoSansCJKsc-Regular-52" d="M 1235 2464 
L 1235 4211 
L 2022 4211 
C 2758 4211 3162 3994 3162 3379 
C 3162 2765 2758 2464 2022 2464 
L 1235 2464 
z
M 3219 0 
L 3885 0 
L 2694 2054 
C 3328 2208 3750 2643 3750 3379 
C 3750 4352 3066 4691 2112 4691 
L 646 4691 
L 646 0 
L 1235 0 
L 1235 1990 
L 2080 1990 
L 3219 0 
z
" transform="scale(0.015625)"/>
     </defs>
     <use xlink:href="#NotoSansCJKsc-Regular-52"/>
     <use xlink:href="#NotoSansCJKsc-Regular-65" transform="translate(63.499985 0)"/>
     <use xlink:href="#NotoSansCJKsc-Regular-64" transform="translate(118.899979 0)"/>
     <use xlink:href="#NotoSansCJKsc-Regular-64" transform="translate(180.899963 0)"/>
     <use xlink:href="#NotoSansCJKsc-Regular-69" transform="translate(242.899948 0)"/>
     <use xlink:href="#NotoSansCJKsc-Regular-74" transform="translate(270.399933 0)"/>
    </g>
   </g>
   <g id="text_6">
    <!-- betting apps -->
    <g style="fill: #475569" transform="translate(47.900897 146.375725) scale(0.09 -0.09)">
     <use xlink:href="#NotoSansCJKsc-Regular-62"/>
     <use xlink:href="#NotoSansCJKsc-Regular-65" transform="translate(61.799988 0)"/>
     <use xlink:href="#NotoSansCJKsc-Regular-74" transform="translate(117.199982 0)"/>
     <use xlink:href="#NotoSansCJKsc-Regular-74" transform="translate(154.899979 0)"/>
     <use xlink:href="#NotoSansCJKsc-Regular-69" transform="translate(192.599976 0)"/>
     <use xlink:href="#NotoSansCJKsc-Regular-6e" transform="translate(220.09996 0)"/>
     <use xlink:href="#NotoSansCJKsc-Regular-67" transform="translate(281.099945 0)"/>
     <use xlink:href="#NotoSansCJKsc-Regular-20" transform="translate(337.499939 0)"/>
     <use xlink:href="#NotoSansCJKsc-Regular-61" transform="translate(359.899933 0)"/>
     <use xlink:href="#NotoSansCJKsc-Regular-70" transform="translate(416.199921 0)"/>
     <use xlink:href="#NotoSansCJKsc-Regular-70" transform="translate(478.199905 0)"/>
     <use xlink:href="#NotoSansCJKsc-Regular-73" transform="translate(540.19989 0)"/>
    </g>
   </g>
   <g id="text_7">
    <!-- Labels+Explan. -->
    <g style="fill: #2563eb" transform="translate(170.016188 107.186104) scale(0.11 -0.11)">
     <defs>
      <path id="NotoSansCJKsc-Bold-4c" d="M 582 0 
L 3456 0 
L 3456 794 
L 1530 794 
L 1530 4742 
L 582 4742 
L 582 0 
z
" transform="scale(0.015625)"/>
      <path id="NotoSansCJKsc-Bold-62" d="M 2304 -90 
C 3091 -90 3827 621 3827 1856 
C 3827 2950 3296 3674 2413 3674 
C 2061 3674 1702 3501 1414 3245 
L 1446 3821 
L 1446 5107 
L 506 5107 
L 506 0 
L 1242 0 
L 1318 378 
L 1350 378 
C 1638 77 1984 -90 2304 -90 
z
M 2099 685 
C 1901 685 1664 755 1446 954 
L 1446 2534 
C 1690 2778 1907 2899 2150 2899 
C 2643 2899 2861 2522 2861 1837 
C 2861 1056 2522 685 2099 685 
z
" transform="scale(0.015625)"/>
      <path id="NotoSansCJKsc-Bold-2b" d="M 1536 704 
L 2234 704 
L 2234 2061 
L 3526 2061 
L 3526 2733 
L 2234 2733 
L 2234 4096 
L 1536 4096 
L 1536 2733 
L 250 2733 
L 250 2061 
L 1536 2061 
L 1536 704 
z
" transform="scale(0.015625)"/>
      <path id="NotoSansCJKsc-Bold-45" d="M 582 0 
L 3558 0 
L 3558 794 
L 1530 794 
L 1530 2061 
L 3187 2061 
L 3187 2854 
L 1530 2854 
L 1530 3949 
L 3488 3949 
L 3488 4742 
L 582 4742 
L 582 0 
z
" transform="scale(0.015625)"/>
      <path id="NotoSansCJKsc-Bold-2e" d="M 1043 -90 
C 1376 -90 1626 179 1626 525 
C 1626 877 1376 1139 1043 1139 
C 704 1139 454 877 454 525 
C 454 179 704 -90 1043 -90 
z
" transform="scale(0.015625)"/>
     </defs>
     <use xlink:href="#NotoSansCJKsc-Bold-4c"/>
     <use xlink:href="#NotoSansCJKsc-Bold-61" transform="translate(57.799988 0)"/>
     <use xlink:href="#NotoSansCJKsc-Bold-62" transform="translate(116.899979 0)"/>
     <use xlink:href="#NotoSansCJKsc-Bold-65" transform="translate(181.299973 0)"/>
     <use xlink:href="#NotoSansCJKsc-Bold-6c" transform="translate(239.399963 0)"/>
     <use xlink:href="#NotoSansCJKsc-Bold-73" transform="translate(270.899948 0)"/>
     <use xlink:href="#NotoSansCJKsc-Bold-2b" transform="translate(320.399933 0)"/>
     <use xlink:href="#NotoSansCJKsc-Bold-45" transform="translate(379.399918 0)"/>
     <use xlink:href="#NotoSansCJKsc-Bold-78" transform="translate(440.899902 0)"/>
     <use xlink:href="#NotoSansCJKsc-Bold-70" transform="translate(497.099899 0)"/>
     <use xlink:href="#NotoSansCJKsc-Bold-6c" transform="translate(561.499893 0)"/>
     <use xlink:href="#NotoSansCJKsc-Bold-61" transform="translate(592.999878 0)"/>
     <use xlink:href="#NotoSansCJKsc-Bold-6e" transform="translate(652.099869 0)"/>
     <use xlink:href="#NotoSansCJKsc-Bold-2e" transform="translate(716.19986 0)"/>
    </g>
   </g>
   <g id="text_8">
    <!-- manipulative -->
    <g style="fill: #475569" transform="translate(183.4065 120.873325) scale(0.09 -0.09)">
     <defs>
      <path id="NotoSansCJKsc-Regular-76" d="M 1338 0 
L 2022 0 
L 3251 3475 
L 2675 3475 
L 2016 1498 
C 1914 1158 1798 806 1696 474 
L 1664 474 
C 1562 806 1453 1158 1344 1498 
L 691 3475 
L 83 3475 
L 1338 0 
z
" transform="scale(0.015625)"/>
     </defs>
     <use xlink:href="#NotoSansCJKsc-Regular-6d"/>
     <use xlink:href="#NotoSansCJKsc-Regular-61" transform="translate(92.599991 0)"/>
     <use xlink:href="#NotoSansCJKsc-Regular-6e" transform="translate(148.899979 0)"/>
     <use xlink:href="#NotoSansCJKsc-Regular-69" transform="translate(209.899963 0)"/>
     <use xlink:href="#NotoSansCJKsc-Regular-70" transform="translate(237.399948 0)"/>
     <use xlink:href="#NotoSansCJKsc-Regular-75" transform="translate(299.399933 0)"/>
     <use xlink:href="#NotoSansCJKsc-Regular-6c" transform="translate(360.09993 0)"/>
     <use xlink:href="#NotoSansCJKsc-Regular-61" transform="translate(388.499924 0)"/>
     <use xlink:href="#NotoSansCJKsc-Regular-74" transform="translate(444.799911 0)"/>
     <use xlink:href="#NotoSansCJKsc-Regular-69" transform="translate(482.499908 0)"/>
     <use xlink:href="#NotoSansCJKsc-Regular-76" transform="translate(509.999893 0)"/>
     <use xlink:href="#NotoSansCJKsc-Regular-65" transform="translate(562.099884 0)"/>
    </g>
   </g>
   <g id="text_9">
    <!-- deceptive -->
    <g style="fill: #475569" transform="translate(190.560797 133.624526) scale(0.09 -0.09)">
     <use xlink:href="#NotoSansCJKsc-Regular-64"/>
     <use xlink:href="#NotoSansCJKsc-Regular-65" transform="translate(61.999985 0)"/>
     <use xlink:href="#NotoSansCJKsc-Regular-63" transform="translate(117.399979 0)"/>
     <use xlink:href="#NotoSansCJKsc-Regular-65" transform="translate(168.399963 0)"/>
     <use xlink:href="#NotoSansCJKsc-Regular-70" transform="translate(223.799957 0)"/>
     <use xlink:href="#NotoSansCJKsc-Regular-74" transform="translate(285.799942 0)"/>
     <use xlink:href="#NotoSansCJKsc-Regular-69" transform="translate(323.499939 0)"/>
     <use xlink:href="#NotoSansCJKsc-Regular-76" transform="translate(350.999924 0)"/>
     <use xlink:href="#NotoSansCJKsc-Regular-65" transform="translate(403.099915 0)"/>
    </g>
   </g>
   <g id="text_10">
    <!-- responsible -->
    <g style="fill: #475569" transform="translate(186.6915 146.375725) scale(0.09 -0.09)">
     <use xlink:href="#NotoSansCJKsc-Regular-72"/>
     <use xlink:href="#NotoSansCJKsc-Regular-65" transform="translate(38.799988 0)"/>
     <use xlink:href="#NotoSansCJKsc-Regular-73" transform="translate(94.199982 0)"/>
     <use xlink:href="#NotoSansCJKsc-Regular-70" transform="translate(140.999969 0)"/>
     <use xlink:href="#NotoSansCJKsc-Regular-6f" transform="translate(202.999954 0)"/>
     <use xlink:href="#NotoSansCJKsc-Regular-6e" transform="translate(263.599945 0)"/>
     <use xlink:href="#NotoSansCJKsc-Regular-73" transform="translate(324.59993 0)"/>
     <use xlink:href="#NotoSansCJKsc-Regular-69" transform="translate(371.399918 0)"/>
     <use xlink:href="#NotoSansCJKsc-Regular-62" transform="translate(398.899902 0)"/>
     <use xlink:href="#NotoSansCJKsc-Regular-6c" transform="translate(460.69989 0)"/>
     <use xlink:href="#NotoSansCJKsc-Regular-65" transform="translate(489.099884 0)"/>
    </g>
   </g>
   <g id="text_11">
    <!-- Models -->
    <g style="fill: #7c3aed" transform="translate(328.744916 107.186104) scale(0.11 -0.11)">
     <defs>
      <path id="NotoSansCJKsc-Bold-4d" d="M 582 0 
L 1434 0 
L 1434 1978 
C 1434 2432 1357 3085 1312 3533 
L 1338 3533 
L 1715 2419 
L 2451 429 
L 2995 429 
L 3725 2419 
L 4109 3533 
L 4141 3533 
C 4090 3085 4019 2432 4019 1978 
L 4019 0 
L 4883 0 
L 4883 4742 
L 3834 4742 
L 3040 2515 
C 2944 2227 2861 1914 2758 1613 
L 2726 1613 
C 2630 1914 2541 2227 2438 2515 
L 1632 4742 
L 582 4742 
L 582 0 
z
" transform="scale(0.015625)"/>
     </defs>
     <use xlink:href="#NotoSansCJKsc-Bold-4d"/>
     <use xlink:href="#NotoSansCJKsc-Bold-6f" transform="translate(85.299988 0)"/>
     <use xlink:href="#NotoSansCJKsc-Bold-64" transform="translate(147.899979 0)"/>
     <use xlink:href="#NotoSansCJKsc-Bold-65" transform="translate(212.299973 0)"/>
     <use xlink:href="#NotoSansCJKsc-Bold-6c" transform="translate(270.399963 0)"/>
     <use xlink:href="#NotoSansCJKsc-Bold-73" transform="translate(301.899948 0)"/>
    </g>
   </g>
   <g id="text_12">
    <!-- detect -->
    <g style="fill: #475569" transform="translate(334.606556 120.873325) scale(0.09 -0.09)">
     <use xlink:href="#NotoSansCJKsc-Regular-64"/>
     <use xlink:href="#NotoSansCJKsc-Regular-65" transform="translate(61.999985 0)"/>
     <use xlink:href="#NotoSansCJKsc-Regular-74" transform="translate(117.399979 0)"/>
     <use xlink:href="#NotoSansCJKsc-Regular-65" transform="translate(155.099976 0)"/>
     <use xlink:href="#NotoSansCJKsc-Regular-63" transform="translate(210.499969 0)"/>
     <use xlink:href="#NotoSansCJKsc-Regular-74" transform="translate(261.499954 0)"/>
    </g>
   </g>
   <g id="text_13">
    <!-- generate expl. -->
    <g style="fill: #475569" transform="translate(318.270853 133.624526) scale(0.09 -0.09)">
     <defs>
      <path id="NotoSansCJKsc-Regular-2e" d="M 890 -83 
C 1120 -83 1312 96 1312 358 
C 1312 627 1120 806 890 806 
C 653 806 467 627 467 358 
C 467 96 653 -83 890 -83 
z
" transform="scale(0.015625)"/>
     </defs>
     <use xlink:href="#NotoSansCJKsc-Regular-67"/>
     <use xlink:href="#NotoSansCJKsc-Regular-65" transform="translate(56.399994 0)"/>
     <use xlink:href="#NotoSansCJKsc-Regular-6e" transform="translate(111.799988 0)"/>
     <use xlink:href="#NotoSansCJKsc-Regular-65" transform="translate(172.799973 0)"/>
     <use xlink:href="#NotoSansCJKsc-Regular-72" transform="translate(228.199966 0)"/>
     <use xlink:href="#NotoSansCJKsc-Regular-61" transform="translate(266.999954 0)"/>
     <use xlink:href="#NotoSansCJKsc-Regular-74" transform="translate(323.299942 0)"/>
     <use xlink:href="#NotoSansCJKsc-Regular-65" transform="translate(360.999939 0)"/>
     <use xlink:href="#NotoSansCJKsc-Regular-20" transform="translate(416.399933 0)"/>
     <use xlink:href="#NotoSansCJKsc-Regular-65" transform="translate(438.799927 0)"/>
     <use xlink:href="#NotoSansCJKsc-Regular-78" transform="translate(494.199921 0)"/>
     <use xlink:href="#NotoSansCJKsc-Regular-70" transform="translate(543.999908 0)"/>
     <use xlink:href="#NotoSansCJKsc-Regular-6c" transform="translate(605.999893 0)"/>
     <use xlink:href="#NotoSansCJKsc-Regular-2e" transform="translate(634.399887 0)"/>
    </g>
   </g>
   <g id="text_14">
    <!-- debug -->
    <g style="fill: #475569" transform="translate(334.737338 146.375725) scale(0.09 -0.09)">
     <use xlink:href="#NotoSansCJKsc-Regular-64"/>
     <use xlink:href="#NotoSansCJKsc-Regular-65" transform="translate(61.999985 0)"/>
     <use xlink:href="#NotoSansCJKsc-Regular-62" transform="translate(117.399979 0)"/>
     <use xlink:href="#NotoSansCJKsc-Regular-75" transform="translate(179.199966 0)"/>
     <use xlink:href="#NotoSansCJKsc-Regular-67" transform="translate(239.899963 0)"/>
    </g>
   </g>
   <g id="text_15">
    <!-- Govern -->
    <g style="fill: #10b981" transform="translate(465.276847 107.186104) scale(0.11 -0.11)">
     <defs>
      <path id="NotoSansCJKsc-Bold-47" d="M 2618 -90 
C 3270 -90 3834 160 4160 480 
L 4160 2618 
L 2470 2618 
L 2470 1843 
L 3309 1843 
L 3309 909 
C 3181 794 2944 730 2720 730 
C 1786 730 1318 1350 1318 2381 
C 1318 3398 1856 4013 2650 4013 
C 3072 4013 3341 3840 3578 3616 
L 4083 4218 
C 3776 4531 3302 4826 2618 4826 
C 1357 4826 346 3910 346 2349 
C 346 768 1331 -90 2618 -90 
z
" transform="scale(0.015625)"/>
      <path id="NotoSansCJKsc-Bold-72" d="M 506 0 
L 1446 0 
L 1446 2138 
C 1651 2656 1984 2842 2259 2842 
C 2413 2842 2515 2822 2643 2784 
L 2797 3597 
C 2694 3642 2579 3674 2381 3674 
C 2010 3674 1626 3418 1363 2950 
L 1344 2950 
L 1274 3584 
L 506 3584 
L 506 0 
z
" transform="scale(0.015625)"/>
     </defs>
     <use xlink:href="#NotoSansCJKsc-Bold-47"/>
     <use xlink:href="#NotoSansCJKsc-Bold-6f" transform="translate(71.699982 0)"/>
     <use xlink:href="#NotoSansCJKsc-Bold-76" transform="translate(134.299973 0)"/>
     <use xlink:href="#NotoSansCJKsc-Bold-65" transform="translate(191.899963 0)"/>
     <use xlink:href="#NotoSansCJKsc-Bold-72" transform="translate(249.999954 0)"/>
     <use xlink:href="#NotoSansCJKsc-Bold-6e" transform="translate(293.599945 0)"/>
    </g>
   </g>
   <g id="text_16">
    <!-- audit -->
    <g style="fill: #475569" transform="translate(473.959659 120.873325) scale(0.09 -0.09)">
     <use xlink:href="#NotoSansCJKsc-Regular-61"/>
     <use xlink:href="#NotoSansCJKsc-Regular-75" transform="translate(56.299988 0)"/>
     <use xlink:href="#NotoSansCJKsc-Regular-64" transform="translate(116.999985 0)"/>
     <use xlink:href="#NotoSansCJKsc-Regular-69" transform="translate(178.999969 0)"/>
     <use xlink:href="#NotoSansCJKsc-Regular-74" transform="translate(206.499954 0)"/>
    </g>
   </g>
   <g id="text_17">
    <!-- policy -->
    <g style="fill: #475569" transform="translate(472.277081 133.624526) scale(0.09 -0.09)">
     <defs>
      <path id="NotoSansCJKsc-Regular-79" d="M 646 -1498 
C 1338 -1498 1702 -973 1946 -294 
L 3251 3475 
L 2682 3475 
L 2054 1549 
C 1965 1235 1862 883 1773 563 
L 1741 563 
C 1619 890 1504 1242 1395 1549 
L 691 3475 
L 83 3475 
L 1478 -6 
L 1402 -269 
C 1254 -698 1011 -1018 621 -1018 
C 525 -1018 422 -986 352 -960 
L 237 -1427 
C 346 -1472 486 -1498 646 -1498 
z
" transform="scale(0.015625)"/>
     </defs>
     <use xlink:href="#NotoSansCJKsc-Regular-70"/>
     <use xlink:href="#NotoSansCJKsc-Regular-6f" transform="translate(61.999985 0)"/>
     <use xlink:href="#NotoSansCJKsc-Regular-6c" transform="translate(122.599976 0)"/>
     <use xlink:href="#NotoSansCJKsc-Regular-69" transform="translate(150.999969 0)"/>
     <use xlink:href="#NotoSansCJKsc-Regular-63" transform="translate(178.499954 0)"/>
     <use xlink:href="#NotoSansCJKsc-Regular-79" transform="translate(229.499939 0)"/>
    </g>
   </g>
   <g id="text_18">
    <!-- mitigation -->
    <g style="fill: #475569" transform="translate(463.132941 146.187288) scale(0.09 -0.09)">
     <use xlink:href="#NotoSansCJKsc-Regular-6d"/>
     <use xlink:href="#NotoSansCJKsc-Regular-69" transform="translate(92.599991 0)"/>
     <use xlink:href="#NotoSansCJKsc-Regular-74" transform="translate(120.099976 0)"/>
     <use xlink:href="#NotoSansCJKsc-Regular-69" transform="translate(157.799973 0)"/>
     <use xlink:href="#NotoSansCJKsc-Regular-67" transform="translate(185.299957 0)"/>
     <use xlink:href="#NotoSansCJKsc-Regular-61" transform="translate(241.699951 0)"/>
     <use xlink:href="#NotoSansCJKsc-Regular-74" transform="translate(297.999939 0)"/>
     <use xlink:href="#NotoSansCJKsc-Regular-69" transform="translate(335.699936 0)"/>
     <use xlink:href="#NotoSansCJKsc-Regular-6f" transform="translate(363.199921 0)"/>
     <use xlink:href="#NotoSansCJKsc-Regular-6e" transform="translate(423.799911 0)"/>
    </g>
   </g>
   <g id="text_19">
    <!-- Key idea: explanations are supervision for auditability, not just classification. -->
    <g style="fill: #64748b" transform="translate(155.290078 246.184279) scale(0.09 -0.09)">
     <defs>
      <path id="NotoSansCJKsc-Regular-4b" d="M 646 0 
L 1235 0 
L 1235 1485 
L 2042 2445 
L 3450 0 
L 4109 0 
L 2413 2912 
L 3885 4691 
L 3213 4691 
L 1248 2336 
L 1235 2336 
L 1235 4691 
L 646 4691 
L 646 0 
z
" transform="scale(0.015625)"/>
      <path id="NotoSansCJKsc-Regular-3a" d="M 890 2496 
C 1120 2496 1312 2675 1312 2944 
C 1312 3206 1120 3392 890 3392 
C 653 3392 467 3206 467 2944 
C 467 2675 653 2496 890 2496 
z
M 890 -83 
C 1120 -83 1312 96 1312 358 
C 1312 627 1120 806 890 806 
C 653 806 467 627 467 358 
C 467 96 653 -83 890 -83 
z
" transform="scale(0.015625)"/>
      <path id="NotoSansCJKsc-Regular-2c" d="M 480 -1216 
C 1056 -973 1414 -493 1414 122 
C 1414 550 1229 806 922 806 
C 685 806 480 653 480 397 
C 480 141 678 -13 909 -13 
L 979 -6 
C 973 -390 736 -698 339 -870 
L 480 -1216 
z
" transform="scale(0.015625)"/>
      <path id="NotoSansCJKsc-Regular-6a" d="M 224 -1549 
C 915 -1549 1178 -1107 1178 -397 
L 1178 3475 
L 595 3475 
L 595 -397 
C 595 -819 512 -1082 166 -1082 
C 45 -1082 -77 -1050 -166 -1018 
L -282 -1459 
C -160 -1510 19 -1549 224 -1549 
z
M 883 4192 
C 1107 4192 1274 4346 1274 4582 
C 1274 4806 1107 4960 883 4960 
C 653 4960 493 4806 493 4582 
C 493 4346 653 4192 883 4192 
z
" transform="scale(0.015625)"/>
     </defs>
     <use xlink:href="#NotoSansCJKsc-Regular-4b"/>
     <use xlink:href="#NotoSansCJKsc-Regular-65" transform="translate(64.599991 0)"/>
     <use xlink:href="#NotoSansCJKsc-Regular-79" transform="translate(119.999985 0)"/>
     <use xlink:href="#NotoSansCJKsc-Regular-20" transform="translate(172.099976 0)"/>
     <use xlink:href="#NotoSansCJKsc-Regular-69" transform="translate(194.499969 0)"/>
     <use xlink:href="#NotoSansCJKsc-Regular-64" transform="translate(221.999954 0)"/>
     <use xlink:href="#NotoSansCJKsc-Regular-65" transform="translate(283.999939 0)"/>
     <use xlink:href="#NotoSansCJKsc-Regular-61" transform="translate(339.399933 0)"/>
     <use xlink:href="#NotoSansCJKsc-Regular-3a" transform="translate(395.699921 0)"/>
     <use xlink:href="#NotoSansCJKsc-Regular-20" transform="translate(423.499908 0)"/>
     <use xlink:href="#NotoSansCJKsc-Regular-65" transform="translate(445.899902 0)"/>
     <use xlink:href="#NotoSansCJKsc-Regular-78" transform="translate(501.299896 0)"/>
     <use xlink:href="#NotoSansCJKsc-Regular-70" transform="translate(551.099884 0)"/>
     <use xlink:href="#NotoSansCJKsc-Regular-6c" transform="translate(613.099869 0)"/>
     <use xlink:href="#NotoSansCJKsc-Regular-61" transform="translate(641.499863 0)"/>
     <use xlink:href="#NotoSansCJKsc-Regular-6e" transform="translate(697.79985 0)"/>
     <use xlink:href="#NotoSansCJKsc-Regular-61" transform="translate(758.799835 0)"/>
     <use xlink:href="#NotoSansCJKsc-Regular-74" transform="translate(815.099823 0)"/>
     <use xlink:href="#NotoSansCJKsc-Regular-69" transform="translate(852.79982 0)"/>
     <use xlink:href="#NotoSansCJKsc-Regular-6f" transform="translate(880.299805 0)"/>
     <use xlink:href="#NotoSansCJKsc-Regular-6e" transform="translate(940.899796 0)"/>
     <use xlink:href="#NotoSansCJKsc-Regular-73" transform="translate(1001.89978 0)"/>
     <use xlink:href="#NotoSansCJKsc-Regular-20" transform="translate(1048.699768 0)"/>
     <use xlink:href="#NotoSansCJKsc-Regular-61" transform="translate(1071.099762 0)"/>
     <use xlink:href="#NotoSansCJKsc-Regular-72" transform="translate(1127.39975 0)"/>
     <use xlink:href="#NotoSansCJKsc-Regular-65" transform="translate(1166.199738 0)"/>
     <use xlink:href="#NotoSansCJKsc-Regular-20" transform="translate(1221.599731 0)"/>
     <use xlink:href="#NotoSansCJKsc-Regular-73" transform="translate(1243.999725 0)"/>
     <use xlink:href="#NotoSansCJKsc-Regular-75" transform="translate(1290.799713 0)"/>
     <use xlink:href="#NotoSansCJKsc-Regular-70" transform="translate(1351.49971 0)"/>
     <use xlink:href="#NotoSansCJKsc-Regular-65" transform="translate(1413.499695 0)"/>
     <use xlink:href="#NotoSansCJKsc-Regular-72" transform="translate(1468.899689 0)"/>
     <use xlink:href="#NotoSansCJKsc-Regular-76" transform="translate(1507.699677 0)"/>
     <use xlink:href="#NotoSansCJKsc-Regular-69" transform="translate(1559.799667 0)"/>
     <use xlink:href="#NotoSansCJKsc-Regular-73" transform="translate(1587.299652 0)"/>
     <use xlink:href="#NotoSansCJKsc-Regular-69" transform="translate(1634.09964 0)"/>
     <use xlink:href="#NotoSansCJKsc-Regular-6f" transform="translate(1661.599625 0)"/>
     <use xlink:href="#NotoSansCJKsc-Regular-6e" transform="translate(1722.199615 0)"/>
     <use xlink:href="#NotoSansCJKsc-Regular-20" transform="translate(1783.1996 0)"/>
     <use xlink:href="#NotoSansCJKsc-Regular-66" transform="translate(1805.599594 0)"/>
     <use xlink:href="#NotoSansCJKsc-Regular-6f" transform="translate(1838.099579 0)"/>
     <use xlink:href="#NotoSansCJKsc-Regular-72" transform="translate(1898.69957 0)"/>
     <use xlink:href="#NotoSansCJKsc-Regular-20" transform="translate(1937.499557 0)"/>
     <use xlink:href="#NotoSansCJKsc-Regular-61" transform="translate(1959.899551 0)"/>
     <use xlink:href="#NotoSansCJKsc-Regular-75" transform="translate(2016.199539 0)"/>
     <use xlink:href="#NotoSansCJKsc-Regular-64" transform="translate(2076.899536 0)"/>
     <use xlink:href="#NotoSansCJKsc-Regular-69" transform="translate(2138.899521 0)"/>
     <use xlink:href="#NotoSansCJKsc-Regular-74" transform="translate(2166.399506 0)"/>
     <use xlink:href="#NotoSansCJKsc-Regular-61" transform="translate(2204.099503 0)"/>
     <use xlink:href="#NotoSansCJKsc-Regular-62" transform="translate(2260.39949 0)"/>
     <use xlink:href="#NotoSansCJKsc-Regular-69" transform="translate(2322.199478 0)"/>
     <use xlink:href="#NotoSansCJKsc-Regular-6c" transform="translate(2349.699463 0)"/>
     <use xlink:href="#NotoSansCJKsc-Regular-69" transform="translate(2378.099457 0)"/>
     <use xlink:href="#NotoSansCJKsc-Regular-74" transform="translate(2405.599442 0)"/>
     <use xlink:href="#NotoSansCJKsc-Regular-79" transform="translate(2443.299438 0)"/>
     <use xlink:href="#NotoSansCJKsc-Regular-2c" transform="translate(2495.399429 0)"/>
     <use xlink:href="#NotoSansCJKsc-Regular-20" transform="translate(2523.199417 0)"/>
     <use xlink:href="#NotoSansCJKsc-Regular-6e" transform="translate(2545.599411 0)"/>
     <use xlink:href="#NotoSansCJKsc-Regular-6f" transform="translate(2606.599396 0)"/>
     <use xlink:href="#NotoSansCJKsc-Regular-74" transform="translate(2667.199387 0)"/>
     <use xlink:href="#NotoSansCJKsc-Regular-20" transform="translate(2704.899384 0)"/>
     <use xlink:href="#NotoSansCJKsc-Regular-6a" transform="translate(2727.299377 0)"/>
     <use xlink:href="#NotoSansCJKsc-Regular-75" transform="translate(2754.799362 0)"/>
     <use xlink:href="#NotoSansCJKsc-Regular-73" transform="translate(2815.499359 0)"/>
     <use xlink:href="#NotoSansCJKsc-Regular-74" transform="translate(2862.299347 0)"/>
     <use xlink:href="#NotoSansCJKsc-Regular-20" transform="translate(2899.999344 0)"/>
     <use xlink:href="#NotoSansCJKsc-Regular-63" transform="translate(2922.399338 0)"/>
     <use xlink:href="#NotoSansCJKsc-Regular-6c" transform="translate(2973.399323 0)"/>
     <use xlink:href="#NotoSansCJKsc-Regular-61" transform="translate(3001.799316 0)"/>
     <use xlink:href="#NotoSansCJKsc-Regular-73" transform="translate(3058.099304 0)"/>
     <use xlink:href="#NotoSansCJKsc-Regular-73" transform="translate(3104.899292 0)"/>
     <use xlink:href="#NotoSansCJKsc-Regular-69" transform="translate(3151.69928 0)"/>
     <use xlink:href="#NotoSansCJKsc-Regular-66" transform="translate(3179.199265 0)"/>
     <use xlink:href="#NotoSansCJKsc-Regular-69" transform="translate(3211.699249 0)"/>
     <use xlink:href="#NotoSansCJKsc-Regular-63" transform="translate(3239.199234 0)"/>
     <use xlink:href="#NotoSansCJKsc-Regular-61" transform="translate(3290.199219 0)"/>
     <use xlink:href="#NotoSansCJKsc-Regular-74" transform="translate(3346.499207 0)"/>
     <use xlink:href="#NotoSansCJKsc-Regular-69" transform="translate(3384.199203 0)"/>
     <use xlink:href="#NotoSansCJKsc-Regular-6f" transform="translate(3411.699188 0)"/>
     <use xlink:href="#NotoSansCJKsc-Regular-6e" transform="translate(3472.299179 0)"/>
     <use xlink:href="#NotoSansCJKsc-Regular-2e" transform="translate(3533.299164 0)"/>
    </g>
   </g>
   <g id="patch_9">
    <path d="M 16.0056 26.49168 
L 77.3856 26.49168 
L 77.3856 15.0156 
L 16.0056 15.0156 
z
" clip-path="url(#p3683f2c5df)" style="fill: #2563eb; stroke: #2563eb; stroke-linejoin: miter"/>
   </g>
  </g>
 </g>
 <defs>
  <clipPath id="p3683f2c5df">
   <rect x="8.64" y="8.64" width="613.8" height="255.024"/>
  </clipPath>
 </defs>
</svg>
