<?xml version="1.0" encoding="utf-8" standalone="no"?>
<!DOCTYPE svg PUBLIC "-//W3C//DTD SVG 1.1//EN"
  "http://www.w3.org/Graphics/SVG/1.1/DTD/svg11.dtd">
<svg xmlns:xlink="http://www.w3.org/1999/xlink" width="631.08pt" height="244.584pt" viewBox="0 0 631.08 244.584" xmlns="http://www.w3.org/2000/svg" version="1.1">
 <metadata>
  <rdf:RDF xmlns:dc="http://purl.org/dc/elements/1.1/" xmlns:cc="http://creativecommons.org/ns#" xmlns:rdf="http://www.w3.org/1999/02/22-rdf-syntax-ns#">
   <cc:Work>
    <dc:type rdf:resource="http://purl.org/dc/dcmitype/StillImage"/>
    <dc:date>2026-06-28T20:08:34.208030</dc:date>
    <dc:format>image/svg+xml</dc:format>
    <dc:creator>
     <cc:Agent>
      <dc:title>Matplotlib v3.10.5, https://matplotlib.org/</dc:title>
     </cc:Agent>
    </dc:creator>
   </cc:Work>
  </rdf:RDF>
 </metadata>
 <defs>
  <style type="text/css">*{stroke-linejoin: round; stroke-linecap: butt}</style>
 </defs>
 <g id="figure_1">
  <g id="patch_1">
   <path d="M 0 244.584 
L 631.08 244.584 
L 631.08 0 
L 0 0 
z
" style="fill: #ffffff"/>
  </g>
  <g id="axes_1">
   <g id="patch_2">
    <path d="M 292.987046 120.01896 
Q 315.54044 120.01896 336.166906 120.01896 
" clip-path="url(#p8cf9f46d2c)" style="fill: none; stroke: #94a3b8; stroke-width: 1.9; stroke-linecap: round"/>
    <path d="M 330.166906 116.61896 
L 336.166906 120.01896 
L 330.166906 123.41896 
" clip-path="url(#p8cf9f46d2c)" style="fill: none; stroke: #94a3b8; stroke-width: 1.9; stroke-linecap: round"/>
   </g>
   <g id="patch_3">
    <path d="M 50.3784 163.661328 
L 286.0776 163.661328 
Q 298.3536 163.661328 298.3536 159.115248 
L 298.3536 80.922672 
Q 298.3536 76.376592 286.0776 76.376592 
L 50.3784 76.376592 
Q 38.1024 76.376592 38.1024 80.922672 
L 38.1024 159.115248 
Q 38.1024 163.661328 50.3784 163.661328 
z
" clip-path="url(#p8cf9f46d2c)" style="fill: #eff6ff; stroke: #bfdbfe; stroke-width: 1.4; stroke-linejoin: miter"/>
   </g>
   <g id="patch_4">
    <path d="M 345.0024 163.661328 
L 580.7016 163.661328 
Q 592.9776 163.661328 592.9776 159.115248 
L 592.9776 80.922672 
Q 592.9776 76.376592 580.7016 76.376592 
L 345.0024 76.376592 
Q 332.7264 76.376592 332.7264 80.922672 
L 332.7264 159.115248 
Q 332.7264 163.661328 345.0024 163.661328 
z
" clip-path="url(#p8cf9f46d2c)" style="fill: #fffbeb; stroke: #fde68a; stroke-width: 1.4; stroke-linejoin: miter"/>
   </g>
   <g id="text_1">
    <!-- INSPIRE — experiment notes -->
    <g style="fill: #0f172a" transform="translate(16.0056 42.803411) scale(0.155 -0.155)">
     <defs>
      <path id="NotoSansCJKsc-Bold-49" d="M 582 0 
L 1530 0 
L 1530 4742 
L 582 4742 
L 582 0 
z
" transform="scale(0.015625)"/>
      <path id="NotoSansCJKsc-Bold-4e" d="M 582 0 
L 1485 0 
L 1485 1901 
C 1485 2445 1402 3040 1363 3552 
L 1395 3552 
L 1875 2534 
L 3238 0 
L 4205 0 
L 4205 4742 
L 3309 4742 
L 3309 2848 
C 3309 2310 3386 1683 3437 1190 
L 3405 1190 
L 2925 2214 
L 1549 4742 
L 582 4742 
L 582 0 
z
" transform="scale(0.015625)"/>
      <path id="NotoSansCJKsc-Bold-53" d="M 1997 -90 
C 3091 -90 3738 570 3738 1344 
C 3738 2029 3360 2400 2784 2637 
L 2163 2886 
C 1760 3053 1427 3174 1427 3514 
C 1427 3827 1683 4013 2099 4013 
C 2496 4013 2810 3866 3110 3622 
L 3590 4211 
C 3206 4602 2656 4826 2099 4826 
C 1146 4826 461 4224 461 3456 
C 461 2765 947 2381 1427 2189 
L 2054 1914 
C 2477 1734 2771 1626 2771 1274 
C 2771 941 2509 730 2016 730 
C 1600 730 1146 941 813 1254 
L 269 602 
C 730 154 1363 -90 1997 -90 
z
" transform="scale(0.015625)"/>
      <path id="NotoSansCJKsc-Bold-50" d="M 582 0 
L 1530 0 
L 1530 1683 
L 2163 1683 
C 3181 1683 3994 2170 3994 3251 
C 3994 4371 3187 4742 2138 4742 
L 582 4742 
L 582 0 
z
M 1530 2432 
L 1530 3987 
L 2067 3987 
C 2720 3987 3066 3802 3066 3251 
C 3066 2707 2752 2432 2099 2432 
L 1530 2432 
z
" transform="scale(0.015625)"/>
      <path id="NotoSansCJKsc-Bold-52" d="M 1530 2541 
L 1530 3987 
L 2144 3987 
C 2752 3987 3085 3814 3085 3302 
C 3085 2797 2752 2541 2144 2541 
L 1530 2541 
z
M 3162 0 
L 4218 0 
L 3110 1939 
C 3654 2150 4013 2592 4013 3302 
C 4013 4390 3226 4742 2227 4742 
L 582 4742 
L 582 0 
L 1530 0 
L 1530 1792 
L 2189 1792 
L 3162 0 
z
" transform="scale(0.015625)"/>
      <path id="NotoSansCJKsc-Bold-45" d="M 582 0 
L 3558 0 
L 3558 794 
L 1530 794 
L 1530 2061 
L 3187 2061 
L 3187 2854 
L 1530 2854 
L 1530 3949 
L 3488 3949 
L 3488 4742 
L 582 4742 
L 582 0 
z
" transform="scale(0.015625)"/>
      <path id="NotoSansCJKsc-Bold-20" transform="scale(0.015625)"/>
      <path id="NotoSansCJKsc-Bold-2014" d="M 314 1536 
L 5498 1536 
L 5498 2138 
L 314 2138 
L 314 1536 
z
" transform="scale(0.015625)"/>
      <path id="NotoSansCJKsc-Bold-65" d="M 2067 -90 
C 2509 -90 2963 64 3315 307 
L 2995 883 
C 2733 723 2483 640 2195 640 
C 1658 640 1274 941 1197 1523 
L 3405 1523 
C 3430 1613 3450 1786 3450 1958 
C 3450 2957 2938 3674 1952 3674 
C 1101 3674 282 2950 282 1792 
C 282 608 1062 -90 2067 -90 
z
M 1178 2157 
C 1254 2675 1587 2944 1965 2944 
C 2432 2944 2643 2637 2643 2157 
L 1178 2157 
z
" transform="scale(0.015625)"/>
      <path id="NotoSansCJKsc-Bold-78" d="M 102 0 
L 1082 0 
L 1408 659 
C 1510 870 1606 1082 1709 1280 
L 1741 1280 
C 1856 1082 1978 870 2086 659 
L 2483 0 
L 3494 0 
L 2374 1760 
L 3424 3584 
L 2451 3584 
L 2150 2950 
C 2067 2746 1971 2541 1888 2342 
L 1862 2342 
C 1754 2541 1645 2746 1542 2950 
L 1184 3584 
L 173 3584 
L 1222 1862 
L 102 0 
z
" transform="scale(0.015625)"/>
      <path id="NotoSansCJKsc-Bold-70" d="M 506 -1376 
L 1446 -1376 
L 1446 -282 
L 1414 301 
C 1683 51 1990 -90 2304 -90 
C 3091 -90 3827 621 3827 1850 
C 3827 2950 3296 3674 2419 3674 
C 2029 3674 1664 3469 1363 3213 
L 1344 3213 
L 1274 3584 
L 506 3584 
L 506 -1376 
z
M 2099 685 
C 1901 685 1677 755 1446 954 
L 1446 2534 
C 1690 2778 1907 2899 2150 2899 
C 2643 2899 2861 2522 2861 1837 
C 2861 1056 2522 685 2099 685 
z
" transform="scale(0.015625)"/>
      <path id="NotoSansCJKsc-Bold-72" d="M 506 0 
L 1446 0 
L 1446 2138 
C 1651 2656 1984 2842 2259 2842 
C 2413 2842 2515 2822 2643 2784 
L 2797 3597 
C 2694 3642 2579 3674 2381 3674 
C 2010 3674 1626 3418 1363 2950 
L 1344 2950 
L 1274 3584 
L 506 3584 
L 506 0 
z
" transform="scale(0.015625)"/>
      <path id="NotoSansCJKsc-Bold-69" d="M 506 0 
L 1446 0 
L 1446 3584 
L 506 3584 
L 506 0 
z
M 979 4166 
C 1299 4166 1523 4365 1523 4678 
C 1523 4986 1299 5190 979 5190 
C 646 5190 435 4986 435 4678 
C 435 4365 646 4166 979 4166 
z
" transform="scale(0.015625)"/>
      <path id="NotoSansCJKsc-Bold-6d" d="M 506 0 
L 1446 0 
L 1446 2464 
C 1696 2739 1926 2867 2131 2867 
C 2477 2867 2637 2675 2637 2118 
L 2637 0 
L 3571 0 
L 3571 2464 
C 3827 2739 4058 2867 4262 2867 
C 4602 2867 4762 2675 4762 2118 
L 4762 0 
L 5696 0 
L 5696 2234 
C 5696 3136 5350 3674 4589 3674 
C 4128 3674 3776 3392 3443 3046 
C 3277 3443 2976 3674 2464 3674 
C 1997 3674 1664 3418 1363 3104 
L 1344 3104 
L 1274 3584 
L 506 3584 
L 506 0 
z
" transform="scale(0.015625)"/>
      <path id="NotoSansCJKsc-Bold-6e" d="M 506 0 
L 1446 0 
L 1446 2464 
C 1709 2726 1901 2867 2189 2867 
C 2541 2867 2694 2675 2694 2118 
L 2694 0 
L 3635 0 
L 3635 2234 
C 3635 3136 3302 3674 2528 3674 
C 2042 3674 1677 3418 1363 3110 
L 1344 3110 
L 1274 3584 
L 506 3584 
L 506 0 
z
" transform="scale(0.015625)"/>
      <path id="NotoSansCJKsc-Bold-74" d="M 1818 -90 
C 2131 -90 2381 -13 2579 45 
L 2419 730 
C 2323 691 2182 653 2067 653 
C 1747 653 1574 845 1574 1254 
L 1574 2842 
L 2464 2842 
L 2464 3584 
L 1574 3584 
L 1574 4550 
L 800 4550 
L 691 3584 
L 134 3539 
L 134 2842 
L 640 2842 
L 640 1248 
C 640 454 966 -90 1818 -90 
z
" transform="scale(0.015625)"/>
      <path id="NotoSansCJKsc-Bold-6f" d="M 2003 -90 
C 2899 -90 3725 602 3725 1792 
C 3725 2982 2899 3674 2003 3674 
C 1101 3674 282 2982 282 1792 
C 282 602 1101 -90 2003 -90 
z
M 2003 678 
C 1510 678 1242 1114 1242 1792 
C 1242 2464 1510 2906 2003 2906 
C 2490 2906 2765 2464 2765 1792 
C 2765 1114 2490 678 2003 678 
z
" transform="scale(0.015625)"/>
      <path id="NotoSansCJKsc-Bold-73" d="M 1530 -90 
C 2458 -90 2957 410 2957 1043 
C 2957 1702 2432 1946 1958 2125 
C 1574 2266 1248 2362 1248 2624 
C 1248 2829 1402 2970 1728 2970 
C 1990 2970 2240 2842 2496 2662 
L 2918 3232 
C 2624 3462 2221 3674 1702 3674 
C 883 3674 365 3219 365 2579 
C 365 1978 870 1702 1325 1530 
C 1702 1382 2074 1261 2074 992 
C 2074 768 1914 614 1555 614 
C 1216 614 915 762 595 1005 
L 166 410 
C 525 115 1050 -90 1530 -90 
z
" transform="scale(0.015625)"/>
     </defs>
     <use xlink:href="#NotoSansCJKsc-Bold-49"/>
     <use xlink:href="#NotoSansCJKsc-Bold-4e" transform="translate(32.999985 0)"/>
     <use xlink:href="#NotoSansCJKsc-Bold-53" transform="translate(107.899979 0)"/>
     <use xlink:href="#NotoSansCJKsc-Bold-50" transform="translate(170.299973 0)"/>
     <use xlink:href="#NotoSansCJKsc-Bold-49" transform="translate(236.999969 0)"/>
     <use xlink:href="#NotoSansCJKsc-Bold-52" transform="translate(269.999954 0)"/>
     <use xlink:href="#NotoSansCJKsc-Bold-45" transform="translate(338.199936 0)"/>
     <use xlink:href="#NotoSansCJKsc-Bold-20" transform="translate(399.699921 0)"/>
     <use xlink:href="#NotoSansCJKsc-Bold-2014" transform="translate(422.399918 0)"/>
     <use xlink:href="#NotoSansCJKsc-Bold-20" transform="translate(513.199905 0)"/>
     <use xlink:href="#NotoSansCJKsc-Bold-65" transform="translate(535.899902 0)"/>
     <use xlink:href="#NotoSansCJKsc-Bold-78" transform="translate(593.999893 0)"/>
     <use xlink:href="#NotoSansCJKsc-Bold-70" transform="translate(650.19989 0)"/>
     <use xlink:href="#NotoSansCJKsc-Bold-65" transform="translate(714.599884 0)"/>
     <use xlink:href="#NotoSansCJKsc-Bold-72" transform="translate(772.699875 0)"/>
     <use xlink:href="#NotoSansCJKsc-Bold-69" transform="translate(816.299866 0)"/>
     <use xlink:href="#NotoSansCJKsc-Bold-6d" transform="translate(846.69986 0)"/>
     <use xlink:href="#NotoSansCJKsc-Bold-65" transform="translate(943.099854 0)"/>
     <use xlink:href="#NotoSansCJKsc-Bold-6e" transform="translate(1001.199844 0)"/>
     <use xlink:href="#NotoSansCJKsc-Bold-74" transform="translate(1065.299835 0)"/>
     <use xlink:href="#NotoSansCJKsc-Bold-20" transform="translate(1107.399826 0)"/>
     <use xlink:href="#NotoSansCJKsc-Bold-6e" transform="translate(1130.099823 0)"/>
     <use xlink:href="#NotoSansCJKsc-Bold-6f" transform="translate(1194.199814 0)"/>
     <use xlink:href="#NotoSansCJKsc-Bold-74" transform="translate(1256.799805 0)"/>
     <use xlink:href="#NotoSansCJKsc-Bold-65" transform="translate(1298.899796 0)"/>
     <use xlink:href="#NotoSansCJKsc-Bold-73" transform="translate(1356.999786 0)"/>
    </g>
   </g>
   <g id="text_2">
    <!-- The abstract does not disclose headline gains; the paper reports offline retrieval improvements and scalable serving. -->
    <g style="fill: #64748b" transform="translate(16.0056 50.047992) scale(0.096 -0.096)">
     <defs>
      <path id="NotoSansCJKsc-Regular-54" d="M 1619 0 
L 2214 0 
L 2214 4192 
L 3635 4192 
L 3635 4691 
L 198 4691 
L 198 4192 
L 1619 4192 
L 1619 0 
z
" transform="scale(0.015625)"/>
      <path id="NotoSansCJKsc-Regular-68" d="M 589 0 
L 1178 0 
L 1178 2522 
C 1523 2874 1766 3053 2125 3053 
C 2586 3053 2784 2778 2784 2125 
L 2784 0 
L 3366 0 
L 3366 2202 
C 3366 3085 3034 3565 2304 3565 
C 1830 3565 1472 3302 1152 2982 
L 1178 3699 
L 1178 5094 
L 589 5094 
L 589 0 
z
" transform="scale(0.015625)"/>
      <path id="NotoSansCJKsc-Regular-65" d="M 1997 -83 
C 2464 -83 2835 70 3136 269 
L 2931 659 
C 2669 486 2400 384 2061 384 
C 1402 384 947 858 909 1600 
L 3251 1600 
C 3264 1690 3277 1805 3277 1933 
C 3277 2925 2778 3565 1888 3565 
C 1094 3565 333 2867 333 1734 
C 333 589 1069 -83 1997 -83 
z
M 902 2016 
C 973 2707 1408 3098 1901 3098 
C 2445 3098 2765 2720 2765 2016 
L 902 2016 
z
" transform="scale(0.015625)"/>
      <path id="NotoSansCJKsc-Regular-20" transform="scale(0.015625)"/>
      <path id="NotoSansCJKsc-Regular-61" d="M 1389 -83 
C 1818 -83 2208 141 2541 416 
L 2560 416 
L 2611 0 
L 3091 0 
L 3091 2138 
C 3091 3002 2739 3565 1888 3565 
C 1325 3565 838 3315 525 3110 
L 749 2707 
C 1024 2893 1389 3078 1792 3078 
C 2362 3078 2509 2650 2509 2202 
C 1030 2035 378 1658 378 902 
C 378 275 806 -83 1389 -83 
z
M 1555 390 
C 1210 390 941 544 941 941 
C 941 1389 1338 1677 2509 1811 
L 2509 845 
C 2170 544 1888 390 1555 390 
z
" transform="scale(0.015625)"/>
      <path id="NotoSansCJKsc-Regular-62" d="M 2118 -83 
C 2912 -83 3629 602 3629 1792 
C 3629 2867 3142 3565 2246 3565 
C 1856 3565 1472 3347 1152 3078 
L 1178 3699 
L 1178 5094 
L 589 5094 
L 589 0 
L 1056 0 
L 1107 358 
L 1133 358 
C 1434 83 1798 -83 2118 -83 
z
M 2022 410 
C 1792 410 1478 499 1178 768 
L 1178 2598 
C 1504 2906 1811 3072 2099 3072 
C 2765 3072 3021 2560 3021 1786 
C 3021 928 2598 410 2022 410 
z
" transform="scale(0.015625)"/>
      <path id="NotoSansCJKsc-Regular-73" d="M 1498 -83 
C 2317 -83 2758 384 2758 947 
C 2758 1606 2208 1811 1702 2003 
C 1312 2150 954 2278 954 2605 
C 954 2880 1158 3110 1600 3110 
C 1907 3110 2150 2976 2387 2803 
L 2669 3168 
C 2406 3386 2022 3565 1594 3565 
C 832 3565 397 3130 397 2579 
C 397 1984 922 1754 1408 1574 
C 1792 1434 2202 1267 2202 915 
C 2202 614 1978 371 1517 371 
C 1101 371 794 538 486 787 
L 205 397 
C 531 122 1005 -83 1498 -83 
z
" transform="scale(0.015625)"/>
      <path id="NotoSansCJKsc-Regular-74" d="M 1677 -83 
C 1894 -83 2125 -19 2323 45 
L 2208 486 
C 2093 435 1939 390 1811 390 
C 1408 390 1274 634 1274 1056 
L 1274 3002 
L 2221 3002 
L 2221 3475 
L 1274 3475 
L 1274 4454 
L 787 4454 
L 723 3475 
L 173 3443 
L 173 3002 
L 691 3002 
L 691 1075 
C 691 378 941 -83 1677 -83 
z
" transform="scale(0.015625)"/>
      <path id="NotoSansCJKsc-Regular-72" d="M 589 0 
L 1178 0 
L 1178 2234 
C 1408 2822 1760 3040 2048 3040 
C 2195 3040 2272 3021 2387 2982 
L 2496 3488 
C 2387 3546 2278 3565 2125 3565 
C 1741 3565 1382 3283 1139 2842 
L 1126 2842 
L 1069 3475 
L 589 3475 
L 589 0 
z
" transform="scale(0.015625)"/>
      <path id="NotoSansCJKsc-Regular-63" d="M 1958 -83 
C 2374 -83 2771 83 3085 352 
L 2829 749 
C 2611 557 2330 403 2010 403 
C 1370 403 934 934 934 1734 
C 934 2534 1395 3072 2029 3072 
C 2298 3072 2522 2950 2720 2771 
L 3014 3155 
C 2771 3373 2458 3565 2003 3565 
C 1107 3565 333 2893 333 1734 
C 333 582 1037 -83 1958 -83 
z
" transform="scale(0.015625)"/>
      <path id="NotoSansCJKsc-Regular-64" d="M 1773 -83 
C 2189 -83 2560 141 2829 410 
L 2848 410 
L 2899 0 
L 3379 0 
L 3379 5094 
L 2790 5094 
L 2790 3757 
L 2822 3162 
C 2515 3411 2253 3565 1843 3565 
C 1050 3565 339 2861 339 1734 
C 339 576 902 -83 1773 -83 
z
M 1901 410 
C 1293 410 941 902 941 1741 
C 941 2534 1389 3072 1946 3072 
C 2234 3072 2502 2970 2790 2707 
L 2790 883 
C 2502 563 2221 410 1901 410 
z
" transform="scale(0.015625)"/>
      <path id="NotoSansCJKsc-Regular-6f" d="M 1939 -83 
C 2790 -83 3546 582 3546 1734 
C 3546 2893 2790 3565 1939 3565 
C 1088 3565 333 2893 333 1734 
C 333 582 1088 -83 1939 -83 
z
M 1939 403 
C 1338 403 934 934 934 1734 
C 934 2534 1338 3072 1939 3072 
C 2541 3072 2950 2534 2950 1734 
C 2950 934 2541 403 1939 403 
z
" transform="scale(0.015625)"/>
      <path id="NotoSansCJKsc-Regular-6e" d="M 589 0 
L 1178 0 
L 1178 2522 
C 1523 2874 1766 3053 2125 3053 
C 2586 3053 2784 2778 2784 2125 
L 2784 0 
L 3366 0 
L 3366 2202 
C 3366 3085 3034 3565 2304 3565 
C 1830 3565 1466 3302 1139 2970 
L 1126 2970 
L 1069 3475 
L 589 3475 
L 589 0 
z
" transform="scale(0.015625)"/>
      <path id="NotoSansCJKsc-Regular-69" d="M 589 0 
L 1178 0 
L 1178 3475 
L 589 3475 
L 589 0 
z
M 883 4192 
C 1114 4192 1274 4346 1274 4582 
C 1274 4806 1114 4960 883 4960 
C 653 4960 499 4806 499 4582 
C 499 4346 653 4192 883 4192 
z
" transform="scale(0.015625)"/>
      <path id="NotoSansCJKsc-Regular-6c" d="M 1203 -83 
C 1363 -83 1459 -58 1542 -32 
L 1459 416 
C 1395 403 1370 403 1338 403 
C 1248 403 1178 474 1178 653 
L 1178 5094 
L 589 5094 
L 589 691 
C 589 198 768 -83 1203 -83 
z
" transform="scale(0.015625)"/>
      <path id="NotoSansCJKsc-Regular-67" d="M 1760 -1600 
C 2835 -1600 3520 -1043 3520 -397 
C 3520 179 3110 429 2310 429 
L 1626 429 
C 1158 429 1018 589 1018 806 
C 1018 998 1114 1114 1242 1222 
C 1395 1146 1587 1101 1754 1101 
C 2470 1101 3027 1568 3027 2310 
C 3027 2611 2912 2867 2746 3027 
L 3456 3027 
L 3456 3475 
L 2246 3475 
C 2125 3526 1952 3565 1754 3565 
C 1056 3565 454 3085 454 2323 
C 454 1907 678 1568 909 1389 
L 909 1363 
C 723 1235 525 1005 525 717 
C 525 442 659 256 838 147 
L 838 115 
C 512 -83 326 -371 326 -672 
C 326 -1267 915 -1600 1760 -1600 
z
M 1754 1498 
C 1357 1498 1018 1818 1018 2323 
C 1018 2835 1350 3136 1754 3136 
C 2170 3136 2496 2835 2496 2323 
C 2496 1818 2157 1498 1754 1498 
z
M 1843 -1197 
C 1210 -1197 838 -960 838 -589 
C 838 -390 941 -179 1190 0 
C 1344 -38 1510 -51 1638 -51 
L 2240 -51 
C 2701 -51 2944 -166 2944 -493 
C 2944 -851 2515 -1197 1843 -1197 
z
" transform="scale(0.015625)"/>
      <path id="NotoSansCJKsc-Regular-3b" d="M 890 2496 
C 1120 2496 1312 2675 1312 2944 
C 1312 3206 1120 3392 890 3392 
C 653 3392 467 3206 467 2944 
C 467 2675 653 2496 890 2496 
z
M 480 -1216 
C 1056 -973 1414 -493 1414 122 
C 1414 550 1229 806 922 806 
C 685 806 480 653 480 397 
C 480 141 678 -13 909 -13 
L 979 -6 
C 973 -390 736 -698 339 -870 
L 480 -1216 
z
" transform="scale(0.015625)"/>
      <path id="NotoSansCJKsc-Regular-70" d="M 589 -1466 
L 1178 -1466 
L 1178 -288 
L 1158 320 
C 1472 58 1805 -83 2118 -83 
C 2912 -83 3629 602 3629 1792 
C 3629 2867 3142 3565 2246 3565 
C 1843 3565 1453 3334 1139 3072 
L 1126 3072 
L 1069 3475 
L 589 3475 
L 589 -1466 
z
M 2022 410 
C 1792 410 1485 499 1178 768 
L 1178 2598 
C 1510 2906 1811 3072 2099 3072 
C 2765 3072 3021 2560 3021 1786 
C 3021 928 2598 410 2022 410 
z
" transform="scale(0.015625)"/>
      <path id="NotoSansCJKsc-Regular-66" d="M 211 3002 
L 685 3002 
L 685 0 
L 1267 0 
L 1267 3002 
L 2003 3002 
L 2003 3475 
L 1267 3475 
L 1267 4026 
C 1267 4474 1427 4710 1760 4710 
C 1882 4710 2022 4678 2150 4614 
L 2278 5069 
C 2118 5133 1914 5178 1696 5178 
C 1005 5178 685 4736 685 4032 
L 685 3475 
L 211 3443 
L 211 3002 
z
" transform="scale(0.015625)"/>
      <path id="NotoSansCJKsc-Regular-76" d="M 1338 0 
L 2022 0 
L 3251 3475 
L 2675 3475 
L 2016 1498 
C 1914 1158 1798 806 1696 474 
L 1664 474 
C 1562 806 1453 1158 1344 1498 
L 691 3475 
L 83 3475 
L 1338 0 
z
" transform="scale(0.015625)"/>
      <path id="NotoSansCJKsc-Regular-6d" d="M 589 0 
L 1178 0 
L 1178 2522 
C 1491 2880 1786 3053 2048 3053 
C 2490 3053 2694 2778 2694 2125 
L 2694 0 
L 3277 0 
L 3277 2522 
C 3603 2880 3885 3053 4154 3053 
C 4595 3053 4800 2778 4800 2125 
L 4800 0 
L 5382 0 
L 5382 2202 
C 5382 3085 5043 3565 4333 3565 
C 3904 3565 3546 3290 3181 2899 
C 3040 3309 2758 3565 2221 3565 
C 1805 3565 1446 3302 1139 2970 
L 1126 2970 
L 1069 3475 
L 589 3475 
L 589 0 
z
" transform="scale(0.015625)"/>
      <path id="NotoSansCJKsc-Regular-2e" d="M 890 -83 
C 1120 -83 1312 96 1312 358 
C 1312 627 1120 806 890 806 
C 653 806 467 627 467 358 
C 467 96 653 -83 890 -83 
z
" transform="scale(0.015625)"/>
     </defs>
     <use xlink:href="#NotoSansCJKsc-Regular-54"/>
     <use xlink:href="#NotoSansCJKsc-Regular-68" transform="translate(59.899994 0)"/>
     <use xlink:href="#NotoSansCJKsc-Regular-65" transform="translate(120.599991 0)"/>
     <use xlink:href="#NotoSansCJKsc-Regular-20" transform="translate(175.999985 0)"/>
     <use xlink:href="#NotoSansCJKsc-Regular-61" transform="translate(198.399979 0)"/>
     <use xlink:href="#NotoSansCJKsc-Regular-62" transform="translate(254.699966 0)"/>
     <use xlink:href="#NotoSansCJKsc-Regular-73" transform="translate(316.499954 0)"/>
     <use xlink:href="#NotoSansCJKsc-Regular-74" transform="translate(363.299942 0)"/>
     <use xlink:href="#NotoSansCJKsc-Regular-72" transform="translate(400.999939 0)"/>
     <use xlink:href="#NotoSansCJKsc-Regular-61" transform="translate(439.799927 0)"/>
     <use xlink:href="#NotoSansCJKsc-Regular-63" transform="translate(496.099915 0)"/>
     <use xlink:href="#NotoSansCJKsc-Regular-74" transform="translate(547.099899 0)"/>
     <use xlink:href="#NotoSansCJKsc-Regular-20" transform="translate(584.799896 0)"/>
     <use xlink:href="#NotoSansCJKsc-Regular-64" transform="translate(607.19989 0)"/>
     <use xlink:href="#NotoSansCJKsc-Regular-6f" transform="translate(669.199875 0)"/>
     <use xlink:href="#NotoSansCJKsc-Regular-65" transform="translate(729.799866 0)"/>
     <use xlink:href="#NotoSansCJKsc-Regular-73" transform="translate(785.19986 0)"/>
     <use xlink:href="#NotoSansCJKsc-Regular-20" transform="translate(831.999847 0)"/>
     <use xlink:href="#NotoSansCJKsc-Regular-6e" transform="translate(854.399841 0)"/>
     <use xlink:href="#NotoSansCJKsc-Regular-6f" transform="translate(915.399826 0)"/>
     <use xlink:href="#NotoSansCJKsc-Regular-74" transform="translate(975.999817 0)"/>
     <use xlink:href="#NotoSansCJKsc-Regular-20" transform="translate(1013.699814 0)"/>
     <use xlink:href="#NotoSansCJKsc-Regular-64" transform="translate(1036.099808 0)"/>
     <use xlink:href="#NotoSansCJKsc-Regular-69" transform="translate(1098.099792 0)"/>
     <use xlink:href="#NotoSansCJKsc-Regular-73" transform="translate(1125.599777 0)"/>
     <use xlink:href="#NotoSansCJKsc-Regular-63" transform="translate(1172.399765 0)"/>
     <use xlink:href="#NotoSansCJKsc-Regular-6c" transform="translate(1223.39975 0)"/>
     <use xlink:href="#NotoSansCJKsc-Regular-6f" transform="translate(1251.799744 0)"/>
     <use xlink:href="#NotoSansCJKsc-Regular-73" transform="translate(1312.399734 0)"/>
     <use xlink:href="#NotoSansCJKsc-Regular-65" transform="translate(1359.199722 0)"/>
     <use xlink:href="#NotoSansCJKsc-Regular-20" transform="translate(1414.599716 0)"/>
     <use xlink:href="#NotoSansCJKsc-Regular-68" transform="translate(1436.99971 0)"/>
     <use xlink:href="#NotoSansCJKsc-Regular-65" transform="translate(1497.699707 0)"/>
     <use xlink:href="#NotoSansCJKsc-Regular-61" transform="translate(1553.099701 0)"/>
     <use xlink:href="#NotoSansCJKsc-Regular-64" transform="translate(1609.399689 0)"/>
     <use xlink:href="#NotoSansCJKsc-Regular-6c" transform="translate(1671.399673 0)"/>
     <use xlink:href="#NotoSansCJKsc-Regular-69" transform="translate(1699.799667 0)"/>
     <use xlink:href="#NotoSansCJKsc-Regular-6e" transform="translate(1727.299652 0)"/>
     <use xlink:href="#NotoSansCJKsc-Regular-65" transform="translate(1788.299637 0)"/>
     <use xlink:href="#NotoSansCJKsc-Regular-20" transform="translate(1843.699631 0)"/>
     <use xlink:href="#NotoSansCJKsc-Regular-67" transform="translate(1866.099625 0)"/>
     <use xlink:href="#NotoSansCJKsc-Regular-61" transform="translate(1922.499619 0)"/>
     <use xlink:href="#NotoSansCJKsc-Regular-69" transform="translate(1978.799606 0)"/>
     <use xlink:href="#NotoSansCJKsc-Regular-6e" transform="translate(2006.299591 0)"/>
     <use xlink:href="#NotoSansCJKsc-Regular-73" transform="translate(2067.299576 0)"/>
     <use xlink:href="#NotoSansCJKsc-Regular-3b" transform="translate(2114.099564 0)"/>
     <use xlink:href="#NotoSansCJKsc-Regular-20" transform="translate(2141.899551 0)"/>
     <use xlink:href="#NotoSansCJKsc-Regular-74" transform="translate(2164.299545 0)"/>
     <use xlink:href="#NotoSansCJKsc-Regular-68" transform="translate(2201.999542 0)"/>
     <use xlink:href="#NotoSansCJKsc-Regular-65" transform="translate(2262.699539 0)"/>
     <use xlink:href="#NotoSansCJKsc-Regular-20" transform="translate(2318.099533 0)"/>
     <use xlink:href="#NotoSansCJKsc-Regular-70" transform="translate(2340.499527 0)"/>
     <use xlink:href="#NotoSansCJKsc-Regular-61" transform="translate(2402.499512 0)"/>
     <use xlink:href="#NotoSansCJKsc-Regular-70" transform="translate(2458.7995 0)"/>
     <use xlink:href="#NotoSansCJKsc-Regular-65" transform="translate(2520.799484 0)"/>
     <use xlink:href="#NotoSansCJKsc-Regular-72" transform="translate(2576.199478 0)"/>
     <use xlink:href="#NotoSansCJKsc-Regular-20" transform="translate(2614.999466 0)"/>
     <use xlink:href="#NotoSansCJKsc-Regular-72" transform="translate(2637.39946 0)"/>
     <use xlink:href="#NotoSansCJKsc-Regular-65" transform="translate(2676.199448 0)"/>
     <use xlink:href="#NotoSansCJKsc-Regular-70" transform="translate(2731.599442 0)"/>
     <use xlink:href="#NotoSansCJKsc-Regular-6f" transform="translate(2793.599426 0)"/>
     <use xlink:href="#NotoSansCJKsc-Regular-72" transform="translate(2854.199417 0)"/>
     <use xlink:href="#NotoSansCJKsc-Regular-74" transform="translate(2892.999405 0)"/>
     <use xlink:href="#NotoSansCJKsc-Regular-73" transform="translate(2930.699402 0)"/>
     <use xlink:href="#NotoSansCJKsc-Regular-20" transform="translate(2977.49939 0)"/>
     <use xlink:href="#NotoSansCJKsc-Regular-6f" transform="translate(2999.899384 0)"/>
     <use xlink:href="#NotoSansCJKsc-Regular-66" transform="translate(3060.499374 0)"/>
     <use xlink:href="#NotoSansCJKsc-Regular-66" transform="translate(3092.999359 0)"/>
     <use xlink:href="#NotoSansCJKsc-Regular-6c" transform="translate(3125.499344 0)"/>
     <use xlink:href="#NotoSansCJKsc-Regular-69" transform="translate(3153.899338 0)"/>
     <use xlink:href="#NotoSansCJKsc-Regular-6e" transform="translate(3181.399323 0)"/>
     <use xlink:href="#NotoSansCJKsc-Regular-65" transform="translate(3242.399307 0)"/>
     <use xlink:href="#NotoSansCJKsc-Regular-20" transform="translate(3297.799301 0)"/>
     <use xlink:href="#NotoSansCJKsc-Regular-72" transform="translate(3320.199295 0)"/>
     <use xlink:href="#NotoSansCJKsc-Regular-65" transform="translate(3358.999283 0)"/>
     <use xlink:href="#NotoSansCJKsc-Regular-74" transform="translate(3414.399277 0)"/>
     <use xlink:href="#NotoSansCJKsc-Regular-72" transform="translate(3452.099274 0)"/>
     <use xlink:href="#NotoSansCJKsc-Regular-69" transform="translate(3490.899261 0)"/>
     <use xlink:href="#NotoSansCJKsc-Regular-65" transform="translate(3518.399246 0)"/>
     <use xlink:href="#NotoSansCJKsc-Regular-76" transform="translate(3573.79924 0)"/>
     <use xlink:href="#NotoSansCJKsc-Regular-61" transform="translate(3625.899231 0)"/>
     <use xlink:href="#NotoSansCJKsc-Regular-6c" transform="translate(3682.199219 0)"/>
     <use xlink:href="#NotoSansCJKsc-Regular-20" transform="translate(3710.599213 0)"/>
     <use xlink:href="#NotoSansCJKsc-Regular-69" transform="translate(3732.999207 0)"/>
     <use xlink:href="#NotoSansCJKsc-Regular-6d" transform="translate(3760.499191 0)"/>
     <use xlink:href="#NotoSansCJKsc-Regular-70" transform="translate(3853.099182 0)"/>
     <use xlink:href="#NotoSansCJKsc-Regular-72" transform="translate(3915.099167 0)"/>
     <use xlink:href="#NotoSansCJKsc-Regular-6f" transform="translate(3953.899155 0)"/>
     <use xlink:href="#NotoSansCJKsc-Regular-76" transform="translate(4014.499146 0)"/>
     <use xlink:href="#NotoSansCJKsc-Regular-65" transform="translate(4066.599136 0)"/>
     <use xlink:href="#NotoSansCJKsc-Regular-6d" transform="translate(4121.99913 0)"/>
     <use xlink:href="#NotoSansCJKsc-Regular-65" transform="translate(4214.599121 0)"/>
     <use xlink:href="#NotoSansCJKsc-Regular-6e" transform="translate(4269.999115 0)"/>
     <use xlink:href="#NotoSansCJKsc-Regular-74" transform="translate(4330.9991 0)"/>
     <use xlink:href="#NotoSansCJKsc-Regular-73" transform="translate(4368.699097 0)"/>
     <use xlink:href="#NotoSansCJKsc-Regular-20" transform="translate(4415.499084 0)"/>
     <use xlink:href="#NotoSansCJKsc-Regular-61" transform="translate(4437.899078 0)"/>
     <use xlink:href="#NotoSansCJKsc-Regular-6e" transform="translate(4494.199066 0)"/>
     <use xlink:href="#NotoSansCJKsc-Regular-64" transform="translate(4555.199051 0)"/>
     <use xlink:href="#NotoSansCJKsc-Regular-20" transform="translate(4617.199036 0)"/>
     <use xlink:href="#NotoSansCJKsc-Regular-73" transform="translate(4639.59903 0)"/>
     <use xlink:href="#NotoSansCJKsc-Regular-63" transform="translate(4686.399017 0)"/>
     <use xlink:href="#NotoSansCJKsc-Regular-61" transform="translate(4737.399002 0)"/>
     <use xlink:href="#NotoSansCJKsc-Regular-6c" transform="translate(4793.69899 0)"/>
     <use xlink:href="#NotoSansCJKsc-Regular-61" transform="translate(4822.098984 0)"/>
     <use xlink:href="#NotoSansCJKsc-Regular-62" transform="translate(4878.398972 0)"/>
     <use xlink:href="#NotoSansCJKsc-Regular-6c" transform="translate(4940.198959 0)"/>
     <use xlink:href="#NotoSansCJKsc-Regular-65" transform="translate(4968.598953 0)"/>
     <use xlink:href="#NotoSansCJKsc-Regular-20" transform="translate(5023.998947 0)"/>
     <use xlink:href="#NotoSansCJKsc-Regular-73" transform="translate(5046.398941 0)"/>
     <use xlink:href="#NotoSansCJKsc-Regular-65" transform="translate(5093.198929 0)"/>
     <use xlink:href="#NotoSansCJKsc-Regular-72" transform="translate(5148.598923 0)"/>
     <use xlink:href="#NotoSansCJKsc-Regular-76" transform="translate(5187.398911 0)"/>
     <use xlink:href="#NotoSansCJKsc-Regular-69" transform="translate(5239.498901 0)"/>
     <use xlink:href="#NotoSansCJKsc-Regular-6e" transform="translate(5266.998886 0)"/>
     <use xlink:href="#NotoSansCJKsc-Regular-67" transform="translate(5327.998871 0)"/>
     <use xlink:href="#NotoSansCJKsc-Regular-2e" transform="translate(5384.398865 0)"/>
    </g>
   </g>
   <g id="text_3">
    <!-- What is measured -->
    <g style="fill: #2563eb" transform="translate(120.109016 99.701704) scale(0.11 -0.11)">
     <defs>
      <path id="NotoSansCJKsc-Bold-57" d="M 1030 0 
L 2189 0 
L 2707 2349 
C 2778 2714 2848 3078 2918 3437 
L 2944 3437 
C 2995 3078 3066 2714 3142 2349 
L 3674 0 
L 4851 0 
L 5728 4742 
L 4832 4742 
L 4454 2426 
C 4384 1933 4314 1427 4243 915 
L 4211 915 
C 4109 1427 4019 1939 3910 2426 
L 3360 4742 
L 2547 4742 
L 2003 2426 
C 1901 1933 1798 1427 1702 915 
L 1677 915 
C 1606 1427 1530 1926 1453 2426 
L 1088 4742 
L 122 4742 
L 1030 0 
z
" transform="scale(0.015625)"/>
      <path id="NotoSansCJKsc-Bold-68" d="M 506 0 
L 1446 0 
L 1446 2464 
C 1709 2726 1901 2867 2189 2867 
C 2541 2867 2694 2675 2694 2118 
L 2694 0 
L 3635 0 
L 3635 2234 
C 3635 3136 3302 3674 2528 3674 
C 2042 3674 1683 3418 1402 3149 
L 1446 3821 
L 1446 5107 
L 506 5107 
L 506 0 
z
" transform="scale(0.015625)"/>
      <path id="NotoSansCJKsc-Bold-61" d="M 1382 -90 
C 1798 -90 2157 109 2464 384 
L 2496 384 
L 2560 0 
L 3328 0 
L 3328 2093 
C 3328 3130 2861 3674 1952 3674 
C 1389 3674 877 3456 461 3200 
L 794 2573 
C 1126 2771 1446 2918 1779 2918 
C 2221 2918 2374 2650 2387 2298 
C 947 2144 326 1741 326 979 
C 326 365 742 -90 1382 -90 
z
M 1696 646 
C 1421 646 1222 768 1222 1050 
C 1222 1376 1510 1613 2387 1715 
L 2387 998 
C 2163 774 1965 646 1696 646 
z
" transform="scale(0.015625)"/>
      <path id="NotoSansCJKsc-Bold-75" d="M 1574 -90 
C 2067 -90 2406 154 2714 518 
L 2739 518 
L 2810 0 
L 3578 0 
L 3578 3584 
L 2637 3584 
L 2637 1165 
C 2394 845 2202 717 1914 717 
C 1562 717 1402 909 1402 1466 
L 1402 3584 
L 467 3584 
L 467 1350 
C 467 448 800 -90 1574 -90 
z
" transform="scale(0.015625)"/>
      <path id="NotoSansCJKsc-Bold-64" d="M 1766 -90 
C 2138 -90 2496 109 2758 371 
L 2784 371 
L 2854 0 
L 3622 0 
L 3622 5107 
L 2682 5107 
L 2682 3846 
L 2714 3283 
C 2458 3520 2208 3674 1805 3674 
C 1037 3674 301 2957 301 1792 
C 301 614 870 -90 1766 -90 
z
M 2010 685 
C 1536 685 1267 1056 1267 1805 
C 1267 2515 1606 2899 2010 2899 
C 2240 2899 2464 2829 2682 2630 
L 2682 1056 
C 2477 787 2259 685 2010 685 
z
" transform="scale(0.015625)"/>
     </defs>
     <use xlink:href="#NotoSansCJKsc-Bold-57"/>
     <use xlink:href="#NotoSansCJKsc-Bold-68" transform="translate(91.499985 0)"/>
     <use xlink:href="#NotoSansCJKsc-Bold-61" transform="translate(155.499969 0)"/>
     <use xlink:href="#NotoSansCJKsc-Bold-74" transform="translate(214.59996 0)"/>
     <use xlink:href="#NotoSansCJKsc-Bold-20" transform="translate(256.699951 0)"/>
     <use xlink:href="#NotoSansCJKsc-Bold-69" transform="translate(279.399948 0)"/>
     <use xlink:href="#NotoSansCJKsc-Bold-73" transform="translate(309.799942 0)"/>
     <use xlink:href="#NotoSansCJKsc-Bold-20" transform="translate(359.299927 0)"/>
     <use xlink:href="#NotoSansCJKsc-Bold-6d" transform="translate(381.999924 0)"/>
     <use xlink:href="#NotoSansCJKsc-Bold-65" transform="translate(478.399918 0)"/>
     <use xlink:href="#NotoSansCJKsc-Bold-61" transform="translate(536.499908 0)"/>
     <use xlink:href="#NotoSansCJKsc-Bold-73" transform="translate(595.599899 0)"/>
     <use xlink:href="#NotoSansCJKsc-Bold-75" transform="translate(645.099884 0)"/>
     <use xlink:href="#NotoSansCJKsc-Bold-72" transform="translate(708.799881 0)"/>
     <use xlink:href="#NotoSansCJKsc-Bold-65" transform="translate(752.399872 0)"/>
     <use xlink:href="#NotoSansCJKsc-Bold-64" transform="translate(810.499863 0)"/>
    </g>
   </g>
   <g id="text_4">
    <!-- NDCG@K / Precision@K -->
    <g style="fill: #475569" transform="translate(118.364484 111.725726) scale(0.09 -0.09)">
     <defs>
      <path id="NotoSansCJKsc-Regular-4e" d="M 646 0 
L 1203 0 
L 1203 2464 
C 1203 2957 1158 3456 1133 3930 
L 1158 3930 
L 1664 2963 
L 3373 0 
L 3981 0 
L 3981 4691 
L 3418 4691 
L 3418 2253 
C 3418 1766 3462 1235 3501 768 
L 3469 768 
L 2963 1734 
L 1248 4691 
L 646 4691 
L 646 0 
z
" transform="scale(0.015625)"/>
      <path id="NotoSansCJKsc-Regular-44" d="M 646 0 
L 1843 0 
C 3258 0 4026 877 4026 2362 
C 4026 3859 3258 4691 1818 4691 
L 646 4691 
L 646 0 
z
M 1235 486 
L 1235 4211 
L 1766 4211 
C 2874 4211 3418 3552 3418 2362 
C 3418 1178 2874 486 1766 486 
L 1235 486 
z
" transform="scale(0.015625)"/>
      <path id="NotoSansCJKsc-Regular-43" d="M 2413 -83 
C 3021 -83 3482 160 3853 589 
L 3526 966 
C 3226 634 2886 435 2438 435 
C 1542 435 979 1178 979 2362 
C 979 3533 1574 4256 2458 4256 
C 2861 4256 3168 4077 3418 3814 
L 3738 4198 
C 3469 4499 3021 4774 2451 4774 
C 1261 4774 371 3859 371 2342 
C 371 819 1242 -83 2413 -83 
z
" transform="scale(0.015625)"/>
      <path id="NotoSansCJKsc-Regular-47" d="M 2490 -83 
C 3117 -83 3635 147 3936 461 
L 3936 2432 
L 2394 2432 
L 2394 1939 
L 3392 1939 
L 3392 710 
C 3206 538 2880 435 2547 435 
C 1542 435 979 1178 979 2362 
C 979 3533 1594 4256 2541 4256 
C 3008 4256 3315 4058 3552 3814 
L 3872 4198 
C 3603 4480 3174 4774 2522 4774 
C 1280 4774 371 3859 371 2342 
C 371 819 1254 -83 2490 -83 
z
" transform="scale(0.015625)"/>
      <path id="NotoSansCJKsc-Regular-40" d="M 2874 -1107 
C 3373 -1107 3821 -992 4237 -742 
L 4077 -397 
C 3763 -582 3360 -717 2918 -717 
C 1702 -717 787 77 787 1472 
C 787 3142 2022 4230 3296 4230 
C 4595 4230 5280 3386 5280 2227 
C 5280 1306 4768 749 4314 749 
C 3923 749 3782 1024 3923 1594 
L 4205 3021 
L 3821 3021 
L 3738 2726 
L 3725 2726 
C 3590 2963 3398 3078 3155 3078 
C 2317 3078 1773 2176 1773 1421 
C 1773 768 2150 403 2637 403 
C 2957 403 3277 621 3507 896 
L 3526 896 
C 3571 531 3872 352 4262 352 
C 4909 352 5690 1005 5690 2253 
C 5690 3661 4781 4621 3347 4621 
C 1747 4621 358 3366 358 1453 
C 358 -218 1478 -1107 2874 -1107 
z
M 2752 806 
C 2464 806 2246 992 2246 1453 
C 2246 1997 2598 2669 3155 2669 
C 3354 2669 3482 2592 3616 2368 
L 3418 1235 
C 3168 934 2950 806 2752 806 
z
" transform="scale(0.015625)"/>
      <path id="NotoSansCJKsc-Regular-4b" d="M 646 0 
L 1235 0 
L 1235 1485 
L 2042 2445 
L 3450 0 
L 4109 0 
L 2413 2912 
L 3885 4691 
L 3213 4691 
L 1248 2336 
L 1235 2336 
L 1235 4691 
L 646 4691 
L 646 0 
z
" transform="scale(0.015625)"/>
      <path id="NotoSansCJKsc-Regular-2f" d="M 70 -1146 
L 499 -1146 
L 2413 5082 
L 1990 5082 
L 70 -1146 
z
" transform="scale(0.015625)"/>
      <path id="NotoSansCJKsc-Regular-50" d="M 646 0 
L 1235 0 
L 1235 1869 
L 2010 1869 
C 3040 1869 3738 2323 3738 3315 
C 3738 4339 3034 4691 1984 4691 
L 646 4691 
L 646 0 
z
M 1235 2349 
L 1235 4211 
L 1907 4211 
C 2733 4211 3149 4000 3149 3315 
C 3149 2643 2758 2349 1933 2349 
L 1235 2349 
z
" transform="scale(0.015625)"/>
     </defs>
     <use xlink:href="#NotoSansCJKsc-Regular-4e"/>
     <use xlink:href="#NotoSansCJKsc-Regular-44" transform="translate(72.299988 0)"/>
     <use xlink:href="#NotoSansCJKsc-Regular-43" transform="translate(141.099976 0)"/>
     <use xlink:href="#NotoSansCJKsc-Regular-47" transform="translate(204.899963 0)"/>
     <use xlink:href="#NotoSansCJKsc-Regular-40" transform="translate(273.799957 0)"/>
     <use xlink:href="#NotoSansCJKsc-Regular-4b" transform="translate(368.399948 0)"/>
     <use xlink:href="#NotoSansCJKsc-Regular-20" transform="translate(432.999939 0)"/>
     <use xlink:href="#NotoSansCJKsc-Regular-2f" transform="translate(455.399933 0)"/>
     <use xlink:href="#NotoSansCJKsc-Regular-20" transform="translate(494.59993 0)"/>
     <use xlink:href="#NotoSansCJKsc-Regular-50" transform="translate(516.999924 0)"/>
     <use xlink:href="#NotoSansCJKsc-Regular-72" transform="translate(580.299911 0)"/>
     <use xlink:href="#NotoSansCJKsc-Regular-65" transform="translate(619.099899 0)"/>
     <use xlink:href="#NotoSansCJKsc-Regular-63" transform="translate(674.499893 0)"/>
     <use xlink:href="#NotoSansCJKsc-Regular-69" transform="translate(725.499878 0)"/>
     <use xlink:href="#NotoSansCJKsc-Regular-73" transform="translate(752.999863 0)"/>
     <use xlink:href="#NotoSansCJKsc-Regular-69" transform="translate(799.79985 0)"/>
     <use xlink:href="#NotoSansCJKsc-Regular-6f" transform="translate(827.299835 0)"/>
     <use xlink:href="#NotoSansCJKsc-Regular-6e" transform="translate(887.899826 0)"/>
     <use xlink:href="#NotoSansCJKsc-Regular-40" transform="translate(948.899811 0)"/>
     <use xlink:href="#NotoSansCJKsc-Regular-4b" transform="translate(1043.499802 0)"/>
    </g>
   </g>
   <g id="text_5">
    <!-- intent coverage -->
    <g style="fill: #475569" transform="translate(135.435656 122.902488) scale(0.09 -0.09)">
     <use xlink:href="#NotoSansCJKsc-Regular-69"/>
     <use xlink:href="#NotoSansCJKsc-Regular-6e" transform="translate(27.499985 0)"/>
     <use xlink:href="#NotoSansCJKsc-Regular-74" transform="translate(88.499969 0)"/>
     <use xlink:href="#NotoSansCJKsc-Regular-65" transform="translate(126.199966 0)"/>
     <use xlink:href="#NotoSansCJKsc-Regular-6e" transform="translate(181.59996 0)"/>
     <use xlink:href="#NotoSansCJKsc-Regular-74" transform="translate(242.599945 0)"/>
     <use xlink:href="#NotoSansCJKsc-Regular-20" transform="translate(280.299942 0)"/>
     <use xlink:href="#NotoSansCJKsc-Regular-63" transform="translate(302.699936 0)"/>
     <use xlink:href="#NotoSansCJKsc-Regular-6f" transform="translate(353.699921 0)"/>
     <use xlink:href="#NotoSansCJKsc-Regular-76" transform="translate(414.299911 0)"/>
     <use xlink:href="#NotoSansCJKsc-Regular-65" transform="translate(466.399902 0)"/>
     <use xlink:href="#NotoSansCJKsc-Regular-72" transform="translate(521.799896 0)"/>
     <use xlink:href="#NotoSansCJKsc-Regular-61" transform="translate(560.599884 0)"/>
     <use xlink:href="#NotoSansCJKsc-Regular-67" transform="translate(616.899872 0)"/>
     <use xlink:href="#NotoSansCJKsc-Regular-65" transform="translate(673.299866 0)"/>
    </g>
   </g>
   <g id="text_6">
    <!-- constraint satisfaction -->
    <g style="fill: #475569" transform="translate(121.316203 134.456126) scale(0.09 -0.09)">
     <use xlink:href="#NotoSansCJKsc-Regular-63"/>
     <use xlink:href="#NotoSansCJKsc-Regular-6f" transform="translate(50.999985 0)"/>
     <use xlink:href="#NotoSansCJKsc-Regular-6e" transform="translate(111.599976 0)"/>
     <use xlink:href="#NotoSansCJKsc-Regular-73" transform="translate(172.59996 0)"/>
     <use xlink:href="#NotoSansCJKsc-Regular-74" transform="translate(219.399948 0)"/>
     <use xlink:href="#NotoSansCJKsc-Regular-72" transform="translate(257.099945 0)"/>
     <use xlink:href="#NotoSansCJKsc-Regular-61" transform="translate(295.899933 0)"/>
     <use xlink:href="#NotoSansCJKsc-Regular-69" transform="translate(352.199921 0)"/>
     <use xlink:href="#NotoSansCJKsc-Regular-6e" transform="translate(379.699905 0)"/>
     <use xlink:href="#NotoSansCJKsc-Regular-74" transform="translate(440.69989 0)"/>
     <use xlink:href="#NotoSansCJKsc-Regular-20" transform="translate(478.399887 0)"/>
     <use xlink:href="#NotoSansCJKsc-Regular-73" transform="translate(500.799881 0)"/>
     <use xlink:href="#NotoSansCJKsc-Regular-61" transform="translate(547.599869 0)"/>
     <use xlink:href="#NotoSansCJKsc-Regular-74" transform="translate(603.899857 0)"/>
     <use xlink:href="#NotoSansCJKsc-Regular-69" transform="translate(641.599854 0)"/>
     <use xlink:href="#NotoSansCJKsc-Regular-73" transform="translate(669.099838 0)"/>
     <use xlink:href="#NotoSansCJKsc-Regular-66" transform="translate(715.899826 0)"/>
     <use xlink:href="#NotoSansCJKsc-Regular-61" transform="translate(748.399811 0)"/>
     <use xlink:href="#NotoSansCJKsc-Regular-63" transform="translate(804.699799 0)"/>
     <use xlink:href="#NotoSansCJKsc-Regular-74" transform="translate(855.699783 0)"/>
     <use xlink:href="#NotoSansCJKsc-Regular-69" transform="translate(893.39978 0)"/>
     <use xlink:href="#NotoSansCJKsc-Regular-6f" transform="translate(920.899765 0)"/>
     <use xlink:href="#NotoSansCJKsc-Regular-6e" transform="translate(981.499756 0)"/>
    </g>
   </g>
   <g id="text_7">
    <!-- What is deployable -->
    <g style="fill: #d97706" transform="translate(411.5095 99.844361) scale(0.11 -0.11)">
     <defs>
      <path id="NotoSansCJKsc-Bold-6c" d="M 1395 -90 
C 1613 -90 1766 -51 1875 -6 
L 1760 691 
C 1696 678 1670 678 1632 678 
C 1542 678 1446 749 1446 966 
L 1446 5107 
L 506 5107 
L 506 1005 
C 506 339 736 -90 1395 -90 
z
" transform="scale(0.015625)"/>
      <path id="NotoSansCJKsc-Bold-79" d="M 819 -1434 
C 1619 -1434 2003 -954 2317 -109 
L 3590 3584 
L 2688 3584 
L 2195 1920 
C 2106 1587 2016 1242 1939 909 
L 1907 909 
C 1805 1254 1715 1600 1606 1920 
L 1037 3584 
L 90 3584 
L 1485 70 
L 1421 -147 
C 1318 -461 1114 -691 749 -691 
C 666 -691 563 -666 499 -646 
L 326 -1370 
C 467 -1408 608 -1434 819 -1434 
z
" transform="scale(0.015625)"/>
      <path id="NotoSansCJKsc-Bold-62" d="M 2304 -90 
C 3091 -90 3827 621 3827 1856 
C 3827 2950 3296 3674 2413 3674 
C 2061 3674 1702 3501 1414 3245 
L 1446 3821 
L 1446 5107 
L 506 5107 
L 506 0 
L 1242 0 
L 1318 378 
L 1350 378 
C 1638 77 1984 -90 2304 -90 
z
M 2099 685 
C 1901 685 1664 755 1446 954 
L 1446 2534 
C 1690 2778 1907 2899 2150 2899 
C 2643 2899 2861 2522 2861 1837 
C 2861 1056 2522 685 2099 685 
z
" transform="scale(0.015625)"/>
     </defs>
     <use xlink:href="#NotoSansCJKsc-Bold-57"/>
     <use xlink:href="#NotoSansCJKsc-Bold-68" transform="translate(91.499985 0)"/>
     <use xlink:href="#NotoSansCJKsc-Bold-61" transform="translate(155.499969 0)"/>
     <use xlink:href="#NotoSansCJKsc-Bold-74" transform="translate(214.59996 0)"/>
     <use xlink:href="#NotoSansCJKsc-Bold-20" transform="translate(256.699951 0)"/>
     <use xlink:href="#NotoSansCJKsc-Bold-69" transform="translate(279.399948 0)"/>
     <use xlink:href="#NotoSansCJKsc-Bold-73" transform="translate(309.799942 0)"/>
     <use xlink:href="#NotoSansCJKsc-Bold-20" transform="translate(359.299927 0)"/>
     <use xlink:href="#NotoSansCJKsc-Bold-64" transform="translate(381.999924 0)"/>
     <use xlink:href="#NotoSansCJKsc-Bold-65" transform="translate(446.399918 0)"/>
     <use xlink:href="#NotoSansCJKsc-Bold-70" transform="translate(504.499908 0)"/>
     <use xlink:href="#NotoSansCJKsc-Bold-6c" transform="translate(568.899902 0)"/>
     <use xlink:href="#NotoSansCJKsc-Bold-6f" transform="translate(600.399887 0)"/>
     <use xlink:href="#NotoSansCJKsc-Bold-79" transform="translate(662.999878 0)"/>
     <use xlink:href="#NotoSansCJKsc-Bold-61" transform="translate(720.399872 0)"/>
     <use xlink:href="#NotoSansCJKsc-Bold-62" transform="translate(779.499863 0)"/>
     <use xlink:href="#NotoSansCJKsc-Bold-6c" transform="translate(843.899857 0)"/>
     <use xlink:href="#NotoSansCJKsc-Bold-65" transform="translate(875.399841 0)"/>
    </g>
   </g>
   <g id="text_8">
    <!-- LoRA student -->
    <g style="fill: #475569" transform="translate(434.821219 111.725726) scale(0.09 -0.09)">
     <defs>
      <path id="NotoSansCJKsc-Regular-4c" d="M 646 0 
L 3290 0 
L 3290 506 
L 1235 506 
L 1235 4691 
L 646 4691 
L 646 0 
z
" transform="scale(0.015625)"/>
      <path id="NotoSansCJKsc-Regular-52" d="M 1235 2464 
L 1235 4211 
L 2022 4211 
C 2758 4211 3162 3994 3162 3379 
C 3162 2765 2758 2464 2022 2464 
L 1235 2464 
z
M 3219 0 
L 3885 0 
L 2694 2054 
C 3328 2208 3750 2643 3750 3379 
C 3750 4352 3066 4691 2112 4691 
L 646 4691 
L 646 0 
L 1235 0 
L 1235 1990 
L 2080 1990 
L 3219 0 
z
" transform="scale(0.015625)"/>
      <path id="NotoSansCJKsc-Regular-41" d="M 26 0 
L 621 0 
L 1075 1434 
L 2790 1434 
L 3238 0 
L 3866 0 
L 2272 4691 
L 1613 4691 
L 26 0 
z
M 1222 1901 
L 1453 2624 
C 1619 3155 1773 3661 1920 4211 
L 1946 4211 
C 2099 3667 2246 3155 2419 2624 
L 2643 1901 
L 1222 1901 
z
" transform="scale(0.015625)"/>
      <path id="NotoSansCJKsc-Regular-75" d="M 1606 -83 
C 2080 -83 2426 166 2752 544 
L 2771 544 
L 2816 0 
L 3302 0 
L 3302 3475 
L 2720 3475 
L 2720 1011 
C 2387 602 2138 422 1779 422 
C 1318 422 1126 698 1126 1344 
L 1126 3475 
L 538 3475 
L 538 1274 
C 538 384 870 -83 1606 -83 
z
" transform="scale(0.015625)"/>
     </defs>
     <use xlink:href="#NotoSansCJKsc-Regular-4c"/>
     <use xlink:href="#NotoSansCJKsc-Regular-6f" transform="translate(54.299988 0)"/>
     <use xlink:href="#NotoSansCJKsc-Regular-52" transform="translate(114.899979 0)"/>
     <use xlink:href="#NotoSansCJKsc-Regular-41" transform="translate(178.399963 0)"/>
     <use xlink:href="#NotoSansCJKsc-Regular-20" transform="translate(239.199951 0)"/>
     <use xlink:href="#NotoSansCJKsc-Regular-73" transform="translate(261.599945 0)"/>
     <use xlink:href="#NotoSansCJKsc-Regular-74" transform="translate(308.399933 0)"/>
     <use xlink:href="#NotoSansCJKsc-Regular-75" transform="translate(346.09993 0)"/>
     <use xlink:href="#NotoSansCJKsc-Regular-64" transform="translate(406.799927 0)"/>
     <use xlink:href="#NotoSansCJKsc-Regular-65" transform="translate(468.799911 0)"/>
     <use xlink:href="#NotoSansCJKsc-Regular-6e" transform="translate(524.199905 0)"/>
     <use xlink:href="#NotoSansCJKsc-Regular-74" transform="translate(585.19989 0)"/>
    </g>
   </g>
   <g id="text_9">
    <!-- vLLM throughput -->
    <g style="fill: #475569" transform="translate(426.837938 123.090926) scale(0.09 -0.09)">
     <defs>
      <path id="NotoSansCJKsc-Regular-4d" d="M 646 0 
L 1178 0 
L 1178 2598 
C 1178 3002 1139 3571 1101 3981 
L 1126 3981 
L 1504 2912 
L 2394 474 
L 2790 474 
L 3674 2912 
L 4051 3981 
L 4077 3981 
C 4045 3571 4000 3002 4000 2598 
L 4000 0 
L 4550 0 
L 4550 4691 
L 3840 4691 
L 2944 2182 
C 2835 1862 2739 1530 2618 1203 
L 2592 1203 
C 2477 1530 2374 1862 2253 2182 
L 1357 4691 
L 646 4691 
L 646 0 
z
" transform="scale(0.015625)"/>
     </defs>
     <use xlink:href="#NotoSansCJKsc-Regular-76"/>
     <use xlink:href="#NotoSansCJKsc-Regular-4c" transform="translate(52.099991 0)"/>
     <use xlink:href="#NotoSansCJKsc-Regular-4c" transform="translate(106.399979 0)"/>
     <use xlink:href="#NotoSansCJKsc-Regular-4d" transform="translate(160.699966 0)"/>
     <use xlink:href="#NotoSansCJKsc-Regular-20" transform="translate(241.899948 0)"/>
     <use xlink:href="#NotoSansCJKsc-Regular-74" transform="translate(264.299942 0)"/>
     <use xlink:href="#NotoSansCJKsc-Regular-68" transform="translate(301.999939 0)"/>
     <use xlink:href="#NotoSansCJKsc-Regular-72" transform="translate(362.699936 0)"/>
     <use xlink:href="#NotoSansCJKsc-Regular-6f" transform="translate(401.499924 0)"/>
     <use xlink:href="#NotoSansCJKsc-Regular-75" transform="translate(462.099915 0)"/>
     <use xlink:href="#NotoSansCJKsc-Regular-67" transform="translate(522.799911 0)"/>
     <use xlink:href="#NotoSansCJKsc-Regular-68" transform="translate(579.199905 0)"/>
     <use xlink:href="#NotoSansCJKsc-Regular-70" transform="translate(639.899902 0)"/>
     <use xlink:href="#NotoSansCJKsc-Regular-75" transform="translate(701.899887 0)"/>
     <use xlink:href="#NotoSansCJKsc-Regular-74" transform="translate(762.599884 0)"/>
    </g>
   </g>
   <g id="text_10">
    <!-- intent auditability -->
    <g style="fill: #475569" transform="translate(425.132156 134.456126) scale(0.09 -0.09)">
     <defs>
      <path id="NotoSansCJKsc-Regular-79" d="M 646 -1498 
C 1338 -1498 1702 -973 1946 -294 
L 3251 3475 
L 2682 3475 
L 2054 1549 
C 1965 1235 1862 883 1773 563 
L 1741 563 
C 1619 890 1504 1242 1395 1549 
L 691 3475 
L 83 3475 
L 1478 -6 
L 1402 -269 
C 1254 -698 1011 -1018 621 -1018 
C 525 -1018 422 -986 352 -960 
L 237 -1427 
C 346 -1472 486 -1498 646 -1498 
z
" transform="scale(0.015625)"/>
     </defs>
     <use xlink:href="#NotoSansCJKsc-Regular-69"/>
     <use xlink:href="#NotoSansCJKsc-Regular-6e" transform="translate(27.499985 0)"/>
     <use xlink:href="#NotoSansCJKsc-Regular-74" transform="translate(88.499969 0)"/>
     <use xlink:href="#NotoSansCJKsc-Regular-65" transform="translate(126.199966 0)"/>
     <use xlink:href="#NotoSansCJKsc-Regular-6e" transform="translate(181.59996 0)"/>
     <use xlink:href="#NotoSansCJKsc-Regular-74" transform="translate(242.599945 0)"/>
     <use xlink:href="#NotoSansCJKsc-Regular-20" transform="translate(280.299942 0)"/>
     <use xlink:href="#NotoSansCJKsc-Regular-61" transform="translate(302.699936 0)"/>
     <use xlink:href="#NotoSansCJKsc-Regular-75" transform="translate(358.999924 0)"/>
     <use xlink:href="#NotoSansCJKsc-Regular-64" transform="translate(419.699921 0)"/>
     <use xlink:href="#NotoSansCJKsc-Regular-69" transform="translate(481.699905 0)"/>
     <use xlink:href="#NotoSansCJKsc-Regular-74" transform="translate(509.19989 0)"/>
     <use xlink:href="#NotoSansCJKsc-Regular-61" transform="translate(546.899887 0)"/>
     <use xlink:href="#NotoSansCJKsc-Regular-62" transform="translate(603.199875 0)"/>
     <use xlink:href="#NotoSansCJKsc-Regular-69" transform="translate(664.999863 0)"/>
     <use xlink:href="#NotoSansCJKsc-Regular-6c" transform="translate(692.499847 0)"/>
     <use xlink:href="#NotoSansCJKsc-Regular-69" transform="translate(720.899841 0)"/>
     <use xlink:href="#NotoSansCJKsc-Regular-74" transform="translate(748.399826 0)"/>
     <use xlink:href="#NotoSansCJKsc-Regular-79" transform="translate(786.099823 0)"/>
    </g>
   </g>
   <g id="text_11">
    <!-- Tip: for governance, track constraint violations (e.g., allergen/diet mismatches) as an explicit guardrail metric. -->
    <g style="fill: #64748b" transform="translate(73.295938 206.819292) scale(0.095 -0.095)">
     <defs>
      <path id="NotoSansCJKsc-Regular-3a" d="M 890 2496 
C 1120 2496 1312 2675 1312 2944 
C 1312 3206 1120 3392 890 3392 
C 653 3392 467 3206 467 2944 
C 467 2675 653 2496 890 2496 
z
M 890 -83 
C 1120 -83 1312 96 1312 358 
C 1312 627 1120 806 890 806 
C 653 806 467 627 467 358 
C 467 96 653 -83 890 -83 
z
" transform="scale(0.015625)"/>
      <path id="NotoSansCJKsc-Regular-2c" d="M 480 -1216 
C 1056 -973 1414 -493 1414 122 
C 1414 550 1229 806 922 806 
C 685 806 480 653 480 397 
C 480 141 678 -13 909 -13 
L 979 -6 
C 973 -390 736 -698 339 -870 
L 480 -1216 
z
" transform="scale(0.015625)"/>
      <path id="NotoSansCJKsc-Regular-6b" d="M 589 0 
L 1165 0 
L 1165 915 
L 1818 1677 
L 2835 0 
L 3469 0 
L 2157 2074 
L 3315 3475 
L 2662 3475 
L 1190 1645 
L 1165 1645 
L 1165 5094 
L 589 5094 
L 589 0 
z
" transform="scale(0.015625)"/>
      <path id="NotoSansCJKsc-Regular-28" d="M 1530 -1254 
L 1888 -1094 
C 1338 -186 1075 902 1075 1990 
C 1075 3072 1338 4154 1888 5069 
L 1530 5235 
C 941 4275 589 3245 589 1990 
C 589 730 941 -301 1530 -1254 
z
" transform="scale(0.015625)"/>
      <path id="NotoSansCJKsc-Regular-29" d="M 634 -1254 
C 1222 -301 1574 730 1574 1990 
C 1574 3245 1222 4275 634 5235 
L 269 5069 
C 819 4154 1094 3072 1094 1990 
C 1094 902 819 -186 269 -1094 
L 634 -1254 
z
" transform="scale(0.015625)"/>
      <path id="NotoSansCJKsc-Regular-78" d="M 96 0 
L 710 0 
L 1178 813 
C 1299 1024 1408 1235 1530 1434 
L 1562 1434 
C 1696 1235 1824 1024 1939 813 
L 2451 0 
L 3091 0 
L 1946 1754 
L 3002 3475 
L 2394 3475 
L 1965 2714 
C 1856 2515 1760 2330 1658 2131 
L 1626 2131 
C 1510 2330 1389 2515 1286 2714 
L 819 3475 
L 186 3475 
L 1242 1811 
L 96 0 
z
" transform="scale(0.015625)"/>
     </defs>
     <use xlink:href="#NotoSansCJKsc-Regular-54"/>
     <use xlink:href="#NotoSansCJKsc-Regular-69" transform="translate(59.899994 0)"/>
     <use xlink:href="#NotoSansCJKsc-Regular-70" transform="translate(87.399979 0)"/>
     <use xlink:href="#NotoSansCJKsc-Regular-3a" transform="translate(149.399963 0)"/>
     <use xlink:href="#NotoSansCJKsc-Regular-20" transform="translate(177.199951 0)"/>
     <use xlink:href="#NotoSansCJKsc-Regular-66" transform="translate(199.599945 0)"/>
     <use xlink:href="#NotoSansCJKsc-Regular-6f" transform="translate(232.09993 0)"/>
     <use xlink:href="#NotoSansCJKsc-Regular-72" transform="translate(292.699921 0)"/>
     <use xlink:href="#NotoSansCJKsc-Regular-20" transform="translate(331.499908 0)"/>
     <use xlink:href="#NotoSansCJKsc-Regular-67" transform="translate(353.899902 0)"/>
     <use xlink:href="#NotoSansCJKsc-Regular-6f" transform="translate(410.299896 0)"/>
     <use xlink:href="#NotoSansCJKsc-Regular-76" transform="translate(470.899887 0)"/>
     <use xlink:href="#NotoSansCJKsc-Regular-65" transform="translate(522.999878 0)"/>
     <use xlink:href="#NotoSansCJKsc-Regular-72" transform="translate(578.399872 0)"/>
     <use xlink:href="#NotoSansCJKsc-Regular-6e" transform="translate(617.19986 0)"/>
     <use xlink:href="#NotoSansCJKsc-Regular-61" transform="translate(678.199844 0)"/>
     <use xlink:href="#NotoSansCJKsc-Regular-6e" transform="translate(734.499832 0)"/>
     <use xlink:href="#NotoSansCJKsc-Regular-63" transform="translate(795.499817 0)"/>
     <use xlink:href="#NotoSansCJKsc-Regular-65" transform="translate(846.499802 0)"/>
     <use xlink:href="#NotoSansCJKsc-Regular-2c" transform="translate(901.899796 0)"/>
     <use xlink:href="#NotoSansCJKsc-Regular-20" transform="translate(929.699783 0)"/>
     <use xlink:href="#NotoSansCJKsc-Regular-74" transform="translate(952.099777 0)"/>
     <use xlink:href="#NotoSansCJKsc-Regular-72" transform="translate(989.799774 0)"/>
     <use xlink:href="#NotoSansCJKsc-Regular-61" transform="translate(1028.599762 0)"/>
     <use xlink:href="#NotoSansCJKsc-Regular-63" transform="translate(1084.89975 0)"/>
     <use xlink:href="#NotoSansCJKsc-Regular-6b" transform="translate(1135.899734 0)"/>
     <use xlink:href="#NotoSansCJKsc-Regular-20" transform="translate(1191.099731 0)"/>
     <use xlink:href="#NotoSansCJKsc-Regular-63" transform="translate(1213.499725 0)"/>
     <use xlink:href="#NotoSansCJKsc-Regular-6f" transform="translate(1264.49971 0)"/>
     <use xlink:href="#NotoSansCJKsc-Regular-6e" transform="translate(1325.099701 0)"/>
     <use xlink:href="#NotoSansCJKsc-Regular-73" transform="translate(1386.099686 0)"/>
     <use xlink:href="#NotoSansCJKsc-Regular-74" transform="translate(1432.899673 0)"/>
     <use xlink:href="#NotoSansCJKsc-Regular-72" transform="translate(1470.59967 0)"/>
     <use xlink:href="#NotoSansCJKsc-Regular-61" transform="translate(1509.399658 0)"/>
     <use xlink:href="#NotoSansCJKsc-Regular-69" transform="translate(1565.699646 0)"/>
     <use xlink:href="#NotoSansCJKsc-Regular-6e" transform="translate(1593.199631 0)"/>
     <use xlink:href="#NotoSansCJKsc-Regular-74" transform="translate(1654.199615 0)"/>
     <use xlink:href="#NotoSansCJKsc-Regular-20" transform="translate(1691.899612 0)"/>
     <use xlink:href="#NotoSansCJKsc-Regular-76" transform="translate(1714.299606 0)"/>
     <use xlink:href="#NotoSansCJKsc-Regular-69" transform="translate(1766.399597 0)"/>
     <use xlink:href="#NotoSansCJKsc-Regular-6f" transform="translate(1793.899582 0)"/>
     <use xlink:href="#NotoSansCJKsc-Regular-6c" transform="translate(1854.499573 0)"/>
     <use xlink:href="#NotoSansCJKsc-Regular-61" transform="translate(1882.899567 0)"/>
     <use xlink:href="#NotoSansCJKsc-Regular-74" transform="translate(1939.199554 0)"/>
     <use xlink:href="#NotoSansCJKsc-Regular-69" transform="translate(1976.899551 0)"/>
     <use xlink:href="#NotoSansCJKsc-Regular-6f" transform="translate(2004.399536 0)"/>
     <use xlink:href="#NotoSansCJKsc-Regular-6e" transform="translate(2064.999527 0)"/>
     <use xlink:href="#NotoSansCJKsc-Regular-73" transform="translate(2125.999512 0)"/>
     <use xlink:href="#NotoSansCJKsc-Regular-20" transform="translate(2172.7995 0)"/>
     <use xlink:href="#NotoSansCJKsc-Regular-28" transform="translate(2195.199493 0)"/>
     <use xlink:href="#NotoSansCJKsc-Regular-65" transform="translate(2228.999481 0)"/>
     <use xlink:href="#NotoSansCJKsc-Regular-2e" transform="translate(2284.399475 0)"/>
     <use xlink:href="#NotoSansCJKsc-Regular-67" transform="translate(2312.199463 0)"/>
     <use xlink:href="#NotoSansCJKsc-Regular-2e" transform="translate(2368.599457 0)"/>
     <use xlink:href="#NotoSansCJKsc-Regular-2c" transform="translate(2396.399445 0)"/>
     <use xlink:href="#NotoSansCJKsc-Regular-20" transform="translate(2424.199432 0)"/>
     <use xlink:href="#NotoSansCJKsc-Regular-61" transform="translate(2446.599426 0)"/>
     <use xlink:href="#NotoSansCJKsc-Regular-6c" transform="translate(2502.899414 0)"/>
     <use xlink:href="#NotoSansCJKsc-Regular-6c" transform="translate(2531.299408 0)"/>
     <use xlink:href="#NotoSansCJKsc-Regular-65" transform="translate(2559.699402 0)"/>
     <use xlink:href="#NotoSansCJKsc-Regular-72" transform="translate(2615.099396 0)"/>
     <use xlink:href="#NotoSansCJKsc-Regular-67" transform="translate(2653.899384 0)"/>
     <use xlink:href="#NotoSansCJKsc-Regular-65" transform="translate(2710.299377 0)"/>
     <use xlink:href="#NotoSansCJKsc-Regular-6e" transform="translate(2765.699371 0)"/>
     <use xlink:href="#NotoSansCJKsc-Regular-2f" transform="translate(2826.699356 0)"/>
     <use xlink:href="#NotoSansCJKsc-Regular-64" transform="translate(2865.899353 0)"/>
     <use xlink:href="#NotoSansCJKsc-Regular-69" transform="translate(2927.899338 0)"/>
     <use xlink:href="#NotoSansCJKsc-Regular-65" transform="translate(2955.399323 0)"/>
     <use xlink:href="#NotoSansCJKsc-Regular-74" transform="translate(3010.799316 0)"/>
     <use xlink:href="#NotoSansCJKsc-Regular-20" transform="translate(3048.499313 0)"/>
     <use xlink:href="#NotoSansCJKsc-Regular-6d" transform="translate(3070.899307 0)"/>
     <use xlink:href="#NotoSansCJKsc-Regular-69" transform="translate(3163.499298 0)"/>
     <use xlink:href="#NotoSansCJKsc-Regular-73" transform="translate(3190.999283 0)"/>
     <use xlink:href="#NotoSansCJKsc-Regular-6d" transform="translate(3237.799271 0)"/>
     <use xlink:href="#NotoSansCJKsc-Regular-61" transform="translate(3330.399261 0)"/>
     <use xlink:href="#NotoSansCJKsc-Regular-74" transform="translate(3386.699249 0)"/>
     <use xlink:href="#NotoSansCJKsc-Regular-63" transform="translate(3424.399246 0)"/>
     <use xlink:href="#NotoSansCJKsc-Regular-68" transform="translate(3475.399231 0)"/>
     <use xlink:href="#NotoSansCJKsc-Regular-65" transform="translate(3536.099228 0)"/>
     <use xlink:href="#NotoSansCJKsc-Regular-73" transform="translate(3591.499222 0)"/>
     <use xlink:href="#NotoSansCJKsc-Regular-29" transform="translate(3638.29921 0)"/>
     <use xlink:href="#NotoSansCJKsc-Regular-20" transform="translate(3672.099197 0)"/>
     <use xlink:href="#NotoSansCJKsc-Regular-61" transform="translate(3694.499191 0)"/>
     <use xlink:href="#NotoSansCJKsc-Regular-73" transform="translate(3750.799179 0)"/>
     <use xlink:href="#NotoSansCJKsc-Regular-20" transform="translate(3797.599167 0)"/>
     <use xlink:href="#NotoSansCJKsc-Regular-61" transform="translate(3819.999161 0)"/>
     <use xlink:href="#NotoSansCJKsc-Regular-6e" transform="translate(3876.299149 0)"/>
     <use xlink:href="#NotoSansCJKsc-Regular-20" transform="translate(3937.299133 0)"/>
     <use xlink:href="#NotoSansCJKsc-Regular-65" transform="translate(3959.699127 0)"/>
     <use xlink:href="#NotoSansCJKsc-Regular-78" transform="translate(4015.099121 0)"/>
     <use xlink:href="#NotoSansCJKsc-Regular-70" transform="translate(4064.899109 0)"/>
     <use xlink:href="#NotoSansCJKsc-Regular-6c" transform="translate(4126.899094 0)"/>
     <use xlink:href="#NotoSansCJKsc-Regular-69" transform="translate(4155.299088 0)"/>
     <use xlink:href="#NotoSansCJKsc-Regular-63" transform="translate(4182.799072 0)"/>
     <use xlink:href="#NotoSansCJKsc-Regular-69" transform="translate(4233.799057 0)"/>
     <use xlink:href="#NotoSansCJKsc-Regular-74" transform="translate(4261.299042 0)"/>
     <use xlink:href="#NotoSansCJKsc-Regular-20" transform="translate(4298.999039 0)"/>
     <use xlink:href="#NotoSansCJKsc-Regular-67" transform="translate(4321.399033 0)"/>
     <use xlink:href="#NotoSansCJKsc-Regular-75" transform="translate(4377.799026 0)"/>
     <use xlink:href="#NotoSansCJKsc-Regular-61" transform="translate(4438.499023 0)"/>
     <use xlink:href="#NotoSansCJKsc-Regular-72" transform="translate(4494.799011 0)"/>
     <use xlink:href="#NotoSansCJKsc-Regular-64" transform="translate(4533.598999 0)"/>
     <use xlink:href="#NotoSansCJKsc-Regular-72" transform="translate(4595.598984 0)"/>
     <use xlink:href="#NotoSansCJKsc-Regular-61" transform="translate(4634.398972 0)"/>
     <use xlink:href="#NotoSansCJKsc-Regular-69" transform="translate(4690.698959 0)"/>
     <use xlink:href="#NotoSansCJKsc-Regular-6c" transform="translate(4718.198944 0)"/>
     <use xlink:href="#NotoSansCJKsc-Regular-20" transform="translate(4746.598938 0)"/>
     <use xlink:href="#NotoSansCJKsc-Regular-6d" transform="translate(4768.998932 0)"/>
     <use xlink:href="#NotoSansCJKsc-Regular-65" transform="translate(4861.598923 0)"/>
     <use xlink:href="#NotoSansCJKsc-Regular-74" transform="translate(4916.998917 0)"/>
     <use xlink:href="#NotoSansCJKsc-Regular-72" transform="translate(4954.698914 0)"/>
     <use xlink:href="#NotoSansCJKsc-Regular-69" transform="translate(4993.498901 0)"/>
     <use xlink:href="#NotoSansCJKsc-Regular-63" transform="translate(5020.998886 0)"/>
     <use xlink:href="#NotoSansCJKsc-Regular-2e" transform="translate(5071.998871 0)"/>
    </g>
   </g>
   <g id="patch_5">
    <path d="M 16.0056 24.55128 
L 77.3856 24.55128 
L 77.3856 14.3226 
L 16.0056 14.3226 
z
" clip-path="url(#p8cf9f46d2c)" style="fill: #2563eb; stroke: #2563eb; stroke-linejoin: miter"/>
   </g>
  </g>
 </g>
 <defs>
  <clipPath id="p8cf9f46d2c">
   <rect x="8.64" y="8.64" width="613.8" height="227.304"/>
  </clipPath>
 </defs>
</svg>
