<?xml version="1.0" encoding="utf-8" standalone="no"?>
<!DOCTYPE svg PUBLIC "-//W3C//DTD SVG 1.1//EN"
  "http://www.w3.org/Graphics/SVG/1.1/DTD/svg11.dtd">
<svg xmlns:xlink="http://www.w3.org/1999/xlink" width="631.08pt" height="272.304pt" viewBox="0 0 631.08 272.304" xmlns="http://www.w3.org/2000/svg" version="1.1">
 <metadata>
  <rdf:RDF xmlns:dc="http://purl.org/dc/elements/1.1/" xmlns:cc="http://creativecommons.org/ns#" xmlns:rdf="http://www.w3.org/1999/02/22-rdf-syntax-ns#">
   <cc:Work>
    <dc:type rdf:resource="http://purl.org/dc/dcmitype/StillImage"/>
    <dc:date>2026-06-21T19:29:08.283003</dc:date>
    <dc:format>image/svg+xml</dc:format>
    <dc:creator>
     <cc:Agent>
      <dc:title>Matplotlib v3.10.5, https://matplotlib.org/</dc:title>
     </cc:Agent>
    </dc:creator>
   </cc:Work>
  </rdf:RDF>
 </metadata>
 <defs>
  <style type="text/css">*{stroke-linejoin: round; stroke-linecap: butt}</style>
 </defs>
 <g id="figure_1">
  <g id="patch_1">
   <path d="M 0 272.304 
L 631.08 272.304 
L 631.08 0 
L 0 0 
z
" style="fill: #ffffff"/>
  </g>
  <g id="axes_1">
   <g id="patch_2">
    <path d="M 142.606046 118.30032 
Q 152.881791 118.30032 161.230607 118.30032 
" clip-path="url(#p07c059073f)" style="fill: none; stroke: #94a3b8; stroke-width: 1.9; stroke-linecap: round"/>
    <path d="M 155.230607 114.90032 
L 161.230607 118.30032 
L 155.230607 121.70032 
" clip-path="url(#p07c059073f)" style="fill: none; stroke: #94a3b8; stroke-width: 1.9; stroke-linecap: round"/>
   </g>
   <g id="patch_3">
    <path d="M 302.194046 118.30032 
Q 312.469791 118.30032 320.818607 118.30032 
" clip-path="url(#p07c059073f)" style="fill: none; stroke: #94a3b8; stroke-width: 1.9; stroke-linecap: round"/>
    <path d="M 314.818607 114.90032 
L 320.818607 118.30032 
L 314.818607 121.70032 
" clip-path="url(#p07c059073f)" style="fill: none; stroke: #94a3b8; stroke-width: 1.9; stroke-linecap: round"/>
   </g>
   <g id="patch_4">
    <path d="M 461.782046 118.30032 
Q 472.057791 118.30032 480.406607 118.30032 
" clip-path="url(#p07c059073f)" style="fill: none; stroke: #94a3b8; stroke-width: 1.9; stroke-linecap: round"/>
    <path d="M 474.406607 114.90032 
L 480.406607 118.30032 
L 474.406607 121.70032 
" clip-path="url(#p07c059073f)" style="fill: none; stroke: #94a3b8; stroke-width: 1.9; stroke-linecap: round"/>
   </g>
   <g id="patch_5">
    <path d="M 232.677 185.153529 
Q 232.677 173.128909 232.677 163.031217 
" clip-path="url(#p07c059073f)" style="fill: none; stroke-dasharray: 9.5,7.6; stroke-dashoffset: 0; stroke: #d97706; stroke-width: 1.9; stroke-linecap: round"/>
    <path d="M 229.277 169.031217 
L 232.677 163.031217 
L 236.077 169.031217 
" clip-path="url(#p07c059073f)" style="fill: none; stroke-dasharray: 9.5,7.6; stroke-dashoffset: 0; stroke: #d97706; stroke-width: 1.9; stroke-linecap: round"/>
   </g>
   <g id="patch_6">
    <path d="M 22.7574 159.614208 
L 135.6966 159.614208 
Q 147.9726 159.614208 147.9726 154.513728 
L 147.9726 82.086912 
Q 147.9726 76.986432 135.6966 76.986432 
L 22.7574 76.986432 
Q 10.4814 76.986432 10.4814 82.086912 
L 10.4814 154.513728 
Q 10.4814 159.614208 22.7574 159.614208 
z
" clip-path="url(#p07c059073f)" style="fill: #eff6ff; stroke: #bfdbfe; stroke-width: 1.4; stroke-linejoin: miter"/>
   </g>
   <g id="patch_7">
    <path d="M 170.0694 159.614208 
L 295.2846 159.614208 
Q 307.5606 159.614208 307.5606 154.513728 
L 307.5606 82.086912 
Q 307.5606 76.986432 295.2846 76.986432 
L 170.0694 76.986432 
Q 157.7934 76.986432 157.7934 82.086912 
L 157.7934 154.513728 
Q 157.7934 159.614208 170.0694 159.614208 
z
" clip-path="url(#p07c059073f)" style="fill: #f8fafc; stroke: #e2e8f0; stroke-width: 1.4; stroke-linejoin: miter"/>
   </g>
   <g id="patch_8">
    <path d="M 170.0694 236.121408 
L 295.2846 236.121408 
Q 307.5606 236.121408 307.5606 231.020928 
L 307.5606 189.196992 
Q 307.5606 184.096512 295.2846 184.096512 
L 170.0694 184.096512 
Q 157.7934 184.096512 157.7934 189.196992 
L 157.7934 231.020928 
Q 157.7934 236.121408 170.0694 236.121408 
z
" clip-path="url(#p07c059073f)" style="fill: #fffbeb; stroke: #fde68a; stroke-width: 1.4; stroke-linejoin: miter"/>
   </g>
   <g id="patch_9">
    <path d="M 329.6574 159.614208 
L 454.8726 159.614208 
Q 467.1486 159.614208 467.1486 154.513728 
L 467.1486 82.086912 
Q 467.1486 76.986432 454.8726 76.986432 
L 329.6574 76.986432 
Q 317.3814 76.986432 317.3814 82.086912 
L 317.3814 154.513728 
Q 317.3814 159.614208 329.6574 159.614208 
z
" clip-path="url(#p07c059073f)" style="fill: #f5f3ff; stroke: #ddd6fe; stroke-width: 1.4; stroke-linejoin: miter"/>
   </g>
   <g id="patch_10">
    <path d="M 489.2454 159.614208 
L 608.3226 159.614208 
Q 620.5986 159.614208 620.5986 154.513728 
L 620.5986 82.086912 
Q 620.5986 76.986432 608.3226 76.986432 
L 489.2454 76.986432 
Q 476.9694 76.986432 476.9694 82.086912 
L 476.9694 154.513728 
Q 476.9694 159.614208 489.2454 159.614208 
z
" clip-path="url(#p07c059073f)" style="fill: #ecfdf5; stroke: #bbf7d0; stroke-width: 1.4; stroke-linejoin: miter"/>
   </g>
   <g id="text_1">
    <!-- MATM — Multi-Agent Transactive Memory -->
    <g style="fill: #0f172a" transform="translate(16.0056 45.436811) scale(0.155 -0.155)">
     <defs>
      <path id="NotoSansCJKsc-Bold-4d" d="M 582 0 
L 1434 0 
L 1434 1978 
C 1434 2432 1357 3085 1312 3533 
L 1338 3533 
L 1715 2419 
L 2451 429 
L 2995 429 
L 3725 2419 
L 4109 3533 
L 4141 3533 
C 4090 3085 4019 2432 4019 1978 
L 4019 0 
L 4883 0 
L 4883 4742 
L 3834 4742 
L 3040 2515 
C 2944 2227 2861 1914 2758 1613 
L 2726 1613 
C 2630 1914 2541 2227 2438 2515 
L 1632 4742 
L 582 4742 
L 582 0 
z
" transform="scale(0.015625)"/>
      <path id="NotoSansCJKsc-Bold-41" d="M -26 0 
L 934 0 
L 1267 1216 
L 2797 1216 
L 3130 0 
L 4128 0 
L 2611 4742 
L 1491 4742 
L -26 0 
z
M 1472 1952 
L 1613 2470 
C 1754 2963 1888 3501 2016 4019 
L 2042 4019 
C 2182 3514 2310 2963 2458 2470 
L 2598 1952 
L 1472 1952 
z
" transform="scale(0.015625)"/>
      <path id="NotoSansCJKsc-Bold-54" d="M 1523 0 
L 2470 0 
L 2470 3949 
L 3808 3949 
L 3808 4742 
L 192 4742 
L 192 3949 
L 1523 3949 
L 1523 0 
z
" transform="scale(0.015625)"/>
      <path id="NotoSansCJKsc-Bold-20" transform="scale(0.015625)"/>
      <path id="NotoSansCJKsc-Bold-2014" d="M 314 1536 
L 5498 1536 
L 5498 2138 
L 314 2138 
L 314 1536 
z
" transform="scale(0.015625)"/>
      <path id="NotoSansCJKsc-Bold-75" d="M 1574 -90 
C 2067 -90 2406 154 2714 518 
L 2739 518 
L 2810 0 
L 3578 0 
L 3578 3584 
L 2637 3584 
L 2637 1165 
C 2394 845 2202 717 1914 717 
C 1562 717 1402 909 1402 1466 
L 1402 3584 
L 467 3584 
L 467 1350 
C 467 448 800 -90 1574 -90 
z
" transform="scale(0.015625)"/>
      <path id="NotoSansCJKsc-Bold-6c" d="M 1395 -90 
C 1613 -90 1766 -51 1875 -6 
L 1760 691 
C 1696 678 1670 678 1632 678 
C 1542 678 1446 749 1446 966 
L 1446 5107 
L 506 5107 
L 506 1005 
C 506 339 736 -90 1395 -90 
z
" transform="scale(0.015625)"/>
      <path id="NotoSansCJKsc-Bold-74" d="M 1818 -90 
C 2131 -90 2381 -13 2579 45 
L 2419 730 
C 2323 691 2182 653 2067 653 
C 1747 653 1574 845 1574 1254 
L 1574 2842 
L 2464 2842 
L 2464 3584 
L 1574 3584 
L 1574 4550 
L 800 4550 
L 691 3584 
L 134 3539 
L 134 2842 
L 640 2842 
L 640 1248 
C 640 454 966 -90 1818 -90 
z
" transform="scale(0.015625)"/>
      <path id="NotoSansCJKsc-Bold-69" d="M 506 0 
L 1446 0 
L 1446 3584 
L 506 3584 
L 506 0 
z
M 979 4166 
C 1299 4166 1523 4365 1523 4678 
C 1523 4986 1299 5190 979 5190 
C 646 5190 435 4986 435 4678 
C 435 4365 646 4166 979 4166 
z
" transform="scale(0.015625)"/>
      <path id="NotoSansCJKsc-Bold-2d" d="M 314 1491 
L 2061 1491 
L 2061 2170 
L 314 2170 
L 314 1491 
z
" transform="scale(0.015625)"/>
      <path id="NotoSansCJKsc-Bold-67" d="M 1766 -1555 
C 2963 -1555 3718 -1005 3718 -282 
C 3718 346 3245 614 2381 614 
L 1766 614 
C 1350 614 1203 717 1203 902 
C 1203 1056 1267 1133 1357 1216 
C 1517 1158 1683 1133 1818 1133 
C 2592 1133 3206 1536 3206 2349 
C 3206 2573 3136 2771 3046 2893 
L 3654 2893 
L 3654 3584 
L 2368 3584 
C 2214 3635 2029 3674 1818 3674 
C 1062 3674 378 3219 378 2381 
C 378 1958 608 1619 858 1440 
L 858 1414 
C 640 1261 461 1011 461 749 
C 461 448 595 262 787 141 
L 787 109 
C 448 -77 275 -333 275 -634 
C 275 -1267 922 -1555 1766 -1555 
z
M 1818 1715 
C 1510 1715 1261 1952 1261 2381 
C 1261 2797 1504 3027 1818 3027 
C 2138 3027 2387 2797 2387 2381 
C 2387 1952 2138 1715 1818 1715 
z
M 1907 -954 
C 1389 -954 1056 -787 1056 -493 
C 1056 -339 1126 -198 1286 -70 
C 1421 -102 1568 -115 1779 -115 
L 2221 -115 
C 2605 -115 2816 -186 2816 -442 
C 2816 -717 2451 -954 1907 -954 
z
" transform="scale(0.015625)"/>
      <path id="NotoSansCJKsc-Bold-65" d="M 2067 -90 
C 2509 -90 2963 64 3315 307 
L 2995 883 
C 2733 723 2483 640 2195 640 
C 1658 640 1274 941 1197 1523 
L 3405 1523 
C 3430 1613 3450 1786 3450 1958 
C 3450 2957 2938 3674 1952 3674 
C 1101 3674 282 2950 282 1792 
C 282 608 1062 -90 2067 -90 
z
M 1178 2157 
C 1254 2675 1587 2944 1965 2944 
C 2432 2944 2643 2637 2643 2157 
L 1178 2157 
z
" transform="scale(0.015625)"/>
      <path id="NotoSansCJKsc-Bold-6e" d="M 506 0 
L 1446 0 
L 1446 2464 
C 1709 2726 1901 2867 2189 2867 
C 2541 2867 2694 2675 2694 2118 
L 2694 0 
L 3635 0 
L 3635 2234 
C 3635 3136 3302 3674 2528 3674 
C 2042 3674 1677 3418 1363 3110 
L 1344 3110 
L 1274 3584 
L 506 3584 
L 506 0 
z
" transform="scale(0.015625)"/>
      <path id="NotoSansCJKsc-Bold-72" d="M 506 0 
L 1446 0 
L 1446 2138 
C 1651 2656 1984 2842 2259 2842 
C 2413 2842 2515 2822 2643 2784 
L 2797 3597 
C 2694 3642 2579 3674 2381 3674 
C 2010 3674 1626 3418 1363 2950 
L 1344 2950 
L 1274 3584 
L 506 3584 
L 506 0 
z
" transform="scale(0.015625)"/>
      <path id="NotoSansCJKsc-Bold-61" d="M 1382 -90 
C 1798 -90 2157 109 2464 384 
L 2496 384 
L 2560 0 
L 3328 0 
L 3328 2093 
C 3328 3130 2861 3674 1952 3674 
C 1389 3674 877 3456 461 3200 
L 794 2573 
C 1126 2771 1446 2918 1779 2918 
C 2221 2918 2374 2650 2387 2298 
C 947 2144 326 1741 326 979 
C 326 365 742 -90 1382 -90 
z
M 1696 646 
C 1421 646 1222 768 1222 1050 
C 1222 1376 1510 1613 2387 1715 
L 2387 998 
C 2163 774 1965 646 1696 646 
z
" transform="scale(0.015625)"/>
      <path id="NotoSansCJKsc-Bold-73" d="M 1530 -90 
C 2458 -90 2957 410 2957 1043 
C 2957 1702 2432 1946 1958 2125 
C 1574 2266 1248 2362 1248 2624 
C 1248 2829 1402 2970 1728 2970 
C 1990 2970 2240 2842 2496 2662 
L 2918 3232 
C 2624 3462 2221 3674 1702 3674 
C 883 3674 365 3219 365 2579 
C 365 1978 870 1702 1325 1530 
C 1702 1382 2074 1261 2074 992 
C 2074 768 1914 614 1555 614 
C 1216 614 915 762 595 1005 
L 166 410 
C 525 115 1050 -90 1530 -90 
z
" transform="scale(0.015625)"/>
      <path id="NotoSansCJKsc-Bold-63" d="M 2029 -90 
C 2426 -90 2861 45 3200 346 
L 2829 966 
C 2630 800 2394 678 2131 678 
C 1613 678 1242 1114 1242 1792 
C 1242 2464 1613 2906 2163 2906 
C 2362 2906 2528 2822 2707 2675 
L 3155 3270 
C 2893 3507 2554 3674 2112 3674 
C 1139 3674 282 2982 282 1792 
C 282 602 1043 -90 2029 -90 
z
" transform="scale(0.015625)"/>
      <path id="NotoSansCJKsc-Bold-76" d="M 1312 0 
L 2400 0 
L 3597 3584 
L 2694 3584 
L 2170 1798 
C 2074 1446 1978 1075 1882 710 
L 1850 710 
C 1747 1075 1658 1446 1555 1798 
L 1037 3584 
L 90 3584 
L 1312 0 
z
" transform="scale(0.015625)"/>
      <path id="NotoSansCJKsc-Bold-6d" d="M 506 0 
L 1446 0 
L 1446 2464 
C 1696 2739 1926 2867 2131 2867 
C 2477 2867 2637 2675 2637 2118 
L 2637 0 
L 3571 0 
L 3571 2464 
C 3827 2739 4058 2867 4262 2867 
C 4602 2867 4762 2675 4762 2118 
L 4762 0 
L 5696 0 
L 5696 2234 
C 5696 3136 5350 3674 4589 3674 
C 4128 3674 3776 3392 3443 3046 
C 3277 3443 2976 3674 2464 3674 
C 1997 3674 1664 3418 1363 3104 
L 1344 3104 
L 1274 3584 
L 506 3584 
L 506 0 
z
" transform="scale(0.015625)"/>
      <path id="NotoSansCJKsc-Bold-6f" d="M 2003 -90 
C 2899 -90 3725 602 3725 1792 
C 3725 2982 2899 3674 2003 3674 
C 1101 3674 282 2982 282 1792 
C 282 602 1101 -90 2003 -90 
z
M 2003 678 
C 1510 678 1242 1114 1242 1792 
C 1242 2464 1510 2906 2003 2906 
C 2490 2906 2765 2464 2765 1792 
C 2765 1114 2490 678 2003 678 
z
" transform="scale(0.015625)"/>
      <path id="NotoSansCJKsc-Bold-79" d="M 819 -1434 
C 1619 -1434 2003 -954 2317 -109 
L 3590 3584 
L 2688 3584 
L 2195 1920 
C 2106 1587 2016 1242 1939 909 
L 1907 909 
C 1805 1254 1715 1600 1606 1920 
L 1037 3584 
L 90 3584 
L 1485 70 
L 1421 -147 
C 1318 -461 1114 -691 749 -691 
C 666 -691 563 -666 499 -646 
L 326 -1370 
C 467 -1408 608 -1434 819 -1434 
z
" transform="scale(0.015625)"/>
     </defs>
     <use xlink:href="#NotoSansCJKsc-Bold-4d"/>
     <use xlink:href="#NotoSansCJKsc-Bold-41" transform="translate(85.299988 0)"/>
     <use xlink:href="#NotoSansCJKsc-Bold-54" transform="translate(149.399979 0)"/>
     <use xlink:href="#NotoSansCJKsc-Bold-4d" transform="translate(211.899963 0)"/>
     <use xlink:href="#NotoSansCJKsc-Bold-20" transform="translate(297.199951 0)"/>
     <use xlink:href="#NotoSansCJKsc-Bold-2014" transform="translate(319.899948 0)"/>
     <use xlink:href="#NotoSansCJKsc-Bold-20" transform="translate(410.699936 0)"/>
     <use xlink:href="#NotoSansCJKsc-Bold-4d" transform="translate(433.399933 0)"/>
     <use xlink:href="#NotoSansCJKsc-Bold-75" transform="translate(518.699921 0)"/>
     <use xlink:href="#NotoSansCJKsc-Bold-6c" transform="translate(582.399918 0)"/>
     <use xlink:href="#NotoSansCJKsc-Bold-74" transform="translate(613.899902 0)"/>
     <use xlink:href="#NotoSansCJKsc-Bold-69" transform="translate(655.999893 0)"/>
     <use xlink:href="#NotoSansCJKsc-Bold-2d" transform="translate(686.399887 0)"/>
     <use xlink:href="#NotoSansCJKsc-Bold-41" transform="translate(723.399872 0)"/>
     <use xlink:href="#NotoSansCJKsc-Bold-67" transform="translate(787.499863 0)"/>
     <use xlink:href="#NotoSansCJKsc-Bold-65" transform="translate(847.19986 0)"/>
     <use xlink:href="#NotoSansCJKsc-Bold-6e" transform="translate(905.29985 0)"/>
     <use xlink:href="#NotoSansCJKsc-Bold-74" transform="translate(969.399841 0)"/>
     <use xlink:href="#NotoSansCJKsc-Bold-20" transform="translate(1011.499832 0)"/>
     <use xlink:href="#NotoSansCJKsc-Bold-54" transform="translate(1034.199829 0)"/>
     <use xlink:href="#NotoSansCJKsc-Bold-72" transform="translate(1096.699814 0)"/>
     <use xlink:href="#NotoSansCJKsc-Bold-61" transform="translate(1140.299805 0)"/>
     <use xlink:href="#NotoSansCJKsc-Bold-6e" transform="translate(1199.399796 0)"/>
     <use xlink:href="#NotoSansCJKsc-Bold-73" transform="translate(1263.499786 0)"/>
     <use xlink:href="#NotoSansCJKsc-Bold-61" transform="translate(1312.999771 0)"/>
     <use xlink:href="#NotoSansCJKsc-Bold-63" transform="translate(1372.099762 0)"/>
     <use xlink:href="#NotoSansCJKsc-Bold-74" transform="translate(1424.799759 0)"/>
     <use xlink:href="#NotoSansCJKsc-Bold-69" transform="translate(1466.89975 0)"/>
     <use xlink:href="#NotoSansCJKsc-Bold-76" transform="translate(1497.299744 0)"/>
     <use xlink:href="#NotoSansCJKsc-Bold-65" transform="translate(1554.899734 0)"/>
     <use xlink:href="#NotoSansCJKsc-Bold-20" transform="translate(1612.999725 0)"/>
     <use xlink:href="#NotoSansCJKsc-Bold-4d" transform="translate(1635.699722 0)"/>
     <use xlink:href="#NotoSansCJKsc-Bold-65" transform="translate(1720.99971 0)"/>
     <use xlink:href="#NotoSansCJKsc-Bold-6d" transform="translate(1779.099701 0)"/>
     <use xlink:href="#NotoSansCJKsc-Bold-6f" transform="translate(1875.499695 0)"/>
     <use xlink:href="#NotoSansCJKsc-Bold-72" transform="translate(1938.099686 0)"/>
     <use xlink:href="#NotoSansCJKsc-Bold-79" transform="translate(1981.699677 0)"/>
    </g>
   </g>
   <g id="text_2">
    <!-- Producer agents contribute trajectories  -&gt;  shared repository (+ LTR rerank)  -&gt;  consumer agents retrieve &amp; reuse -->
    <g style="fill: #64748b" transform="translate(16.0056 54.236052) scale(0.096 -0.096)">
     <defs>
      <path id="NotoSansCJKsc-Regular-50" d="M 646 0 
L 1235 0 
L 1235 1869 
L 2010 1869 
C 3040 1869 3738 2323 3738 3315 
C 3738 4339 3034 4691 1984 4691 
L 646 4691 
L 646 0 
z
M 1235 2349 
L 1235 4211 
L 1907 4211 
C 2733 4211 3149 4000 3149 3315 
C 3149 2643 2758 2349 1933 2349 
L 1235 2349 
z
" transform="scale(0.015625)"/>
      <path id="NotoSansCJKsc-Regular-72" d="M 589 0 
L 1178 0 
L 1178 2234 
C 1408 2822 1760 3040 2048 3040 
C 2195 3040 2272 3021 2387 2982 
L 2496 3488 
C 2387 3546 2278 3565 2125 3565 
C 1741 3565 1382 3283 1139 2842 
L 1126 2842 
L 1069 3475 
L 589 3475 
L 589 0 
z
" transform="scale(0.015625)"/>
      <path id="NotoSansCJKsc-Regular-6f" d="M 1939 -83 
C 2790 -83 3546 582 3546 1734 
C 3546 2893 2790 3565 1939 3565 
C 1088 3565 333 2893 333 1734 
C 333 582 1088 -83 1939 -83 
z
M 1939 403 
C 1338 403 934 934 934 1734 
C 934 2534 1338 3072 1939 3072 
C 2541 3072 2950 2534 2950 1734 
C 2950 934 2541 403 1939 403 
z
" transform="scale(0.015625)"/>
      <path id="NotoSansCJKsc-Regular-64" d="M 1773 -83 
C 2189 -83 2560 141 2829 410 
L 2848 410 
L 2899 0 
L 3379 0 
L 3379 5094 
L 2790 5094 
L 2790 3757 
L 2822 3162 
C 2515 3411 2253 3565 1843 3565 
C 1050 3565 339 2861 339 1734 
C 339 576 902 -83 1773 -83 
z
M 1901 410 
C 1293 410 941 902 941 1741 
C 941 2534 1389 3072 1946 3072 
C 2234 3072 2502 2970 2790 2707 
L 2790 883 
C 2502 563 2221 410 1901 410 
z
" transform="scale(0.015625)"/>
      <path id="NotoSansCJKsc-Regular-75" d="M 1606 -83 
C 2080 -83 2426 166 2752 544 
L 2771 544 
L 2816 0 
L 3302 0 
L 3302 3475 
L 2720 3475 
L 2720 1011 
C 2387 602 2138 422 1779 422 
C 1318 422 1126 698 1126 1344 
L 1126 3475 
L 538 3475 
L 538 1274 
C 538 384 870 -83 1606 -83 
z
" transform="scale(0.015625)"/>
      <path id="NotoSansCJKsc-Regular-63" d="M 1958 -83 
C 2374 -83 2771 83 3085 352 
L 2829 749 
C 2611 557 2330 403 2010 403 
C 1370 403 934 934 934 1734 
C 934 2534 1395 3072 2029 3072 
C 2298 3072 2522 2950 2720 2771 
L 3014 3155 
C 2771 3373 2458 3565 2003 3565 
C 1107 3565 333 2893 333 1734 
C 333 582 1037 -83 1958 -83 
z
" transform="scale(0.015625)"/>
      <path id="NotoSansCJKsc-Regular-65" d="M 1997 -83 
C 2464 -83 2835 70 3136 269 
L 2931 659 
C 2669 486 2400 384 2061 384 
C 1402 384 947 858 909 1600 
L 3251 1600 
C 3264 1690 3277 1805 3277 1933 
C 3277 2925 2778 3565 1888 3565 
C 1094 3565 333 2867 333 1734 
C 333 589 1069 -83 1997 -83 
z
M 902 2016 
C 973 2707 1408 3098 1901 3098 
C 2445 3098 2765 2720 2765 2016 
L 902 2016 
z
" transform="scale(0.015625)"/>
      <path id="NotoSansCJKsc-Regular-20" transform="scale(0.015625)"/>
      <path id="NotoSansCJKsc-Regular-61" d="M 1389 -83 
C 1818 -83 2208 141 2541 416 
L 2560 416 
L 2611 0 
L 3091 0 
L 3091 2138 
C 3091 3002 2739 3565 1888 3565 
C 1325 3565 838 3315 525 3110 
L 749 2707 
C 1024 2893 1389 3078 1792 3078 
C 2362 3078 2509 2650 2509 2202 
C 1030 2035 378 1658 378 902 
C 378 275 806 -83 1389 -83 
z
M 1555 390 
C 1210 390 941 544 941 941 
C 941 1389 1338 1677 2509 1811 
L 2509 845 
C 2170 544 1888 390 1555 390 
z
" transform="scale(0.015625)"/>
      <path id="NotoSansCJKsc-Regular-67" d="M 1760 -1600 
C 2835 -1600 3520 -1043 3520 -397 
C 3520 179 3110 429 2310 429 
L 1626 429 
C 1158 429 1018 589 1018 806 
C 1018 998 1114 1114 1242 1222 
C 1395 1146 1587 1101 1754 1101 
C 2470 1101 3027 1568 3027 2310 
C 3027 2611 2912 2867 2746 3027 
L 3456 3027 
L 3456 3475 
L 2246 3475 
C 2125 3526 1952 3565 1754 3565 
C 1056 3565 454 3085 454 2323 
C 454 1907 678 1568 909 1389 
L 909 1363 
C 723 1235 525 1005 525 717 
C 525 442 659 256 838 147 
L 838 115 
C 512 -83 326 -371 326 -672 
C 326 -1267 915 -1600 1760 -1600 
z
M 1754 1498 
C 1357 1498 1018 1818 1018 2323 
C 1018 2835 1350 3136 1754 3136 
C 2170 3136 2496 2835 2496 2323 
C 2496 1818 2157 1498 1754 1498 
z
M 1843 -1197 
C 1210 -1197 838 -960 838 -589 
C 838 -390 941 -179 1190 0 
C 1344 -38 1510 -51 1638 -51 
L 2240 -51 
C 2701 -51 2944 -166 2944 -493 
C 2944 -851 2515 -1197 1843 -1197 
z
" transform="scale(0.015625)"/>
      <path id="NotoSansCJKsc-Regular-6e" d="M 589 0 
L 1178 0 
L 1178 2522 
C 1523 2874 1766 3053 2125 3053 
C 2586 3053 2784 2778 2784 2125 
L 2784 0 
L 3366 0 
L 3366 2202 
C 3366 3085 3034 3565 2304 3565 
C 1830 3565 1466 3302 1139 2970 
L 1126 2970 
L 1069 3475 
L 589 3475 
L 589 0 
z
" transform="scale(0.015625)"/>
      <path id="NotoSansCJKsc-Regular-74" d="M 1677 -83 
C 1894 -83 2125 -19 2323 45 
L 2208 486 
C 2093 435 1939 390 1811 390 
C 1408 390 1274 634 1274 1056 
L 1274 3002 
L 2221 3002 
L 2221 3475 
L 1274 3475 
L 1274 4454 
L 787 4454 
L 723 3475 
L 173 3443 
L 173 3002 
L 691 3002 
L 691 1075 
C 691 378 941 -83 1677 -83 
z
" transform="scale(0.015625)"/>
      <path id="NotoSansCJKsc-Regular-73" d="M 1498 -83 
C 2317 -83 2758 384 2758 947 
C 2758 1606 2208 1811 1702 2003 
C 1312 2150 954 2278 954 2605 
C 954 2880 1158 3110 1600 3110 
C 1907 3110 2150 2976 2387 2803 
L 2669 3168 
C 2406 3386 2022 3565 1594 3565 
C 832 3565 397 3130 397 2579 
C 397 1984 922 1754 1408 1574 
C 1792 1434 2202 1267 2202 915 
C 2202 614 1978 371 1517 371 
C 1101 371 794 538 486 787 
L 205 397 
C 531 122 1005 -83 1498 -83 
z
" transform="scale(0.015625)"/>
      <path id="NotoSansCJKsc-Regular-69" d="M 589 0 
L 1178 0 
L 1178 3475 
L 589 3475 
L 589 0 
z
M 883 4192 
C 1114 4192 1274 4346 1274 4582 
C 1274 4806 1114 4960 883 4960 
C 653 4960 499 4806 499 4582 
C 499 4346 653 4192 883 4192 
z
" transform="scale(0.015625)"/>
      <path id="NotoSansCJKsc-Regular-62" d="M 2118 -83 
C 2912 -83 3629 602 3629 1792 
C 3629 2867 3142 3565 2246 3565 
C 1856 3565 1472 3347 1152 3078 
L 1178 3699 
L 1178 5094 
L 589 5094 
L 589 0 
L 1056 0 
L 1107 358 
L 1133 358 
C 1434 83 1798 -83 2118 -83 
z
M 2022 410 
C 1792 410 1478 499 1178 768 
L 1178 2598 
C 1504 2906 1811 3072 2099 3072 
C 2765 3072 3021 2560 3021 1786 
C 3021 928 2598 410 2022 410 
z
" transform="scale(0.015625)"/>
      <path id="NotoSansCJKsc-Regular-6a" d="M 224 -1549 
C 915 -1549 1178 -1107 1178 -397 
L 1178 3475 
L 595 3475 
L 595 -397 
C 595 -819 512 -1082 166 -1082 
C 45 -1082 -77 -1050 -166 -1018 
L -282 -1459 
C -160 -1510 19 -1549 224 -1549 
z
M 883 4192 
C 1107 4192 1274 4346 1274 4582 
C 1274 4806 1107 4960 883 4960 
C 653 4960 493 4806 493 4582 
C 493 4346 653 4192 883 4192 
z
" transform="scale(0.015625)"/>
      <path id="NotoSansCJKsc-Regular-2d" d="M 294 1568 
L 1933 1568 
L 1933 2016 
L 294 2016 
L 294 1568 
z
" transform="scale(0.015625)"/>
      <path id="NotoSansCJKsc-Regular-3e" d="M 243 934 
L 3315 2144 
L 3315 2605 
L 243 3814 
L 243 3309 
L 1754 2746 
L 2714 2387 
L 2714 2362 
L 1754 2003 
L 243 1446 
L 243 934 
z
" transform="scale(0.015625)"/>
      <path id="NotoSansCJKsc-Regular-68" d="M 589 0 
L 1178 0 
L 1178 2522 
C 1523 2874 1766 3053 2125 3053 
C 2586 3053 2784 2778 2784 2125 
L 2784 0 
L 3366 0 
L 3366 2202 
C 3366 3085 3034 3565 2304 3565 
C 1830 3565 1472 3302 1152 2982 
L 1178 3699 
L 1178 5094 
L 589 5094 
L 589 0 
z
" transform="scale(0.015625)"/>
      <path id="NotoSansCJKsc-Regular-70" d="M 589 -1466 
L 1178 -1466 
L 1178 -288 
L 1158 320 
C 1472 58 1805 -83 2118 -83 
C 2912 -83 3629 602 3629 1792 
C 3629 2867 3142 3565 2246 3565 
C 1843 3565 1453 3334 1139 3072 
L 1126 3072 
L 1069 3475 
L 589 3475 
L 589 -1466 
z
M 2022 410 
C 1792 410 1485 499 1178 768 
L 1178 2598 
C 1510 2906 1811 3072 2099 3072 
C 2765 3072 3021 2560 3021 1786 
C 3021 928 2598 410 2022 410 
z
" transform="scale(0.015625)"/>
      <path id="NotoSansCJKsc-Regular-79" d="M 646 -1498 
C 1338 -1498 1702 -973 1946 -294 
L 3251 3475 
L 2682 3475 
L 2054 1549 
C 1965 1235 1862 883 1773 563 
L 1741 563 
C 1619 890 1504 1242 1395 1549 
L 691 3475 
L 83 3475 
L 1478 -6 
L 1402 -269 
C 1254 -698 1011 -1018 621 -1018 
C 525 -1018 422 -986 352 -960 
L 237 -1427 
C 346 -1472 486 -1498 646 -1498 
z
" transform="scale(0.015625)"/>
      <path id="NotoSansCJKsc-Regular-28" d="M 1530 -1254 
L 1888 -1094 
C 1338 -186 1075 902 1075 1990 
C 1075 3072 1338 4154 1888 5069 
L 1530 5235 
C 941 4275 589 3245 589 1990 
C 589 730 941 -301 1530 -1254 
z
" transform="scale(0.015625)"/>
      <path id="NotoSansCJKsc-Regular-2b" d="M 1542 742 
L 2010 742 
L 2010 2144 
L 3315 2144 
L 3315 2579 
L 2010 2579 
L 2010 3981 
L 1542 3981 
L 1542 2579 
L 243 2579 
L 243 2144 
L 1542 2144 
L 1542 742 
z
" transform="scale(0.015625)"/>
      <path id="NotoSansCJKsc-Regular-4c" d="M 646 0 
L 3290 0 
L 3290 506 
L 1235 506 
L 1235 4691 
L 646 4691 
L 646 0 
z
" transform="scale(0.015625)"/>
      <path id="NotoSansCJKsc-Regular-54" d="M 1619 0 
L 2214 0 
L 2214 4192 
L 3635 4192 
L 3635 4691 
L 198 4691 
L 198 4192 
L 1619 4192 
L 1619 0 
z
" transform="scale(0.015625)"/>
      <path id="NotoSansCJKsc-Regular-52" d="M 1235 2464 
L 1235 4211 
L 2022 4211 
C 2758 4211 3162 3994 3162 3379 
C 3162 2765 2758 2464 2022 2464 
L 1235 2464 
z
M 3219 0 
L 3885 0 
L 2694 2054 
C 3328 2208 3750 2643 3750 3379 
C 3750 4352 3066 4691 2112 4691 
L 646 4691 
L 646 0 
L 1235 0 
L 1235 1990 
L 2080 1990 
L 3219 0 
z
" transform="scale(0.015625)"/>
      <path id="NotoSansCJKsc-Regular-6b" d="M 589 0 
L 1165 0 
L 1165 915 
L 1818 1677 
L 2835 0 
L 3469 0 
L 2157 2074 
L 3315 3475 
L 2662 3475 
L 1190 1645 
L 1165 1645 
L 1165 5094 
L 589 5094 
L 589 0 
z
" transform="scale(0.015625)"/>
      <path id="NotoSansCJKsc-Regular-29" d="M 634 -1254 
C 1222 -301 1574 730 1574 1990 
C 1574 3245 1222 4275 634 5235 
L 269 5069 
C 819 4154 1094 3072 1094 1990 
C 1094 902 819 -186 269 -1094 
L 634 -1254 
z
" transform="scale(0.015625)"/>
      <path id="NotoSansCJKsc-Regular-6d" d="M 589 0 
L 1178 0 
L 1178 2522 
C 1491 2880 1786 3053 2048 3053 
C 2490 3053 2694 2778 2694 2125 
L 2694 0 
L 3277 0 
L 3277 2522 
C 3603 2880 3885 3053 4154 3053 
C 4595 3053 4800 2778 4800 2125 
L 4800 0 
L 5382 0 
L 5382 2202 
C 5382 3085 5043 3565 4333 3565 
C 3904 3565 3546 3290 3181 2899 
C 3040 3309 2758 3565 2221 3565 
C 1805 3565 1446 3302 1139 2970 
L 1126 2970 
L 1069 3475 
L 589 3475 
L 589 0 
z
" transform="scale(0.015625)"/>
      <path id="NotoSansCJKsc-Regular-76" d="M 1338 0 
L 2022 0 
L 3251 3475 
L 2675 3475 
L 2016 1498 
C 1914 1158 1798 806 1696 474 
L 1664 474 
C 1562 806 1453 1158 1344 1498 
L 691 3475 
L 83 3475 
L 1338 0 
z
" transform="scale(0.015625)"/>
      <path id="NotoSansCJKsc-Regular-26" d="M 1658 -83 
C 2208 -83 2650 128 3008 454 
C 3392 186 3757 0 4090 -83 
L 4243 403 
C 3981 474 3680 627 3366 851 
C 3738 1338 4006 1907 4186 2528 
L 3642 2528 
C 3494 1990 3270 1530 2982 1146 
C 2541 1510 2099 1978 1792 2464 
C 2317 2842 2848 3238 2848 3853 
C 2848 4397 2509 4774 1926 4774 
C 1280 4774 851 4294 851 3674 
C 851 3334 966 2957 1158 2573 
C 672 2240 230 1850 230 1216 
C 230 461 813 -83 1658 -83 
z
M 2624 762 
C 2355 531 2048 384 1728 384 
C 1203 384 800 723 800 1248 
C 800 1613 1062 1901 1395 2163 
C 1722 1658 2163 1165 2624 762 
z
M 1574 2848 
C 1434 3136 1350 3424 1350 3680 
C 1350 4064 1574 4365 1933 4365 
C 2246 4365 2374 4115 2374 3840 
C 2374 3424 2003 3142 1574 2848 
z
" transform="scale(0.015625)"/>
     </defs>
     <use xlink:href="#NotoSansCJKsc-Regular-50"/>
     <use xlink:href="#NotoSansCJKsc-Regular-72" transform="translate(63.299988 0)"/>
     <use xlink:href="#NotoSansCJKsc-Regular-6f" transform="translate(102.099976 0)"/>
     <use xlink:href="#NotoSansCJKsc-Regular-64" transform="translate(162.699966 0)"/>
     <use xlink:href="#NotoSansCJKsc-Regular-75" transform="translate(224.699951 0)"/>
     <use xlink:href="#NotoSansCJKsc-Regular-63" transform="translate(285.399948 0)"/>
     <use xlink:href="#NotoSansCJKsc-Regular-65" transform="translate(336.399933 0)"/>
     <use xlink:href="#NotoSansCJKsc-Regular-72" transform="translate(391.799927 0)"/>
     <use xlink:href="#NotoSansCJKsc-Regular-20" transform="translate(430.599915 0)"/>
     <use xlink:href="#NotoSansCJKsc-Regular-61" transform="translate(452.999908 0)"/>
     <use xlink:href="#NotoSansCJKsc-Regular-67" transform="translate(509.299896 0)"/>
     <use xlink:href="#NotoSansCJKsc-Regular-65" transform="translate(565.69989 0)"/>
     <use xlink:href="#NotoSansCJKsc-Regular-6e" transform="translate(621.099884 0)"/>
     <use xlink:href="#NotoSansCJKsc-Regular-74" transform="translate(682.099869 0)"/>
     <use xlink:href="#NotoSansCJKsc-Regular-73" transform="translate(719.799866 0)"/>
     <use xlink:href="#NotoSansCJKsc-Regular-20" transform="translate(766.599854 0)"/>
     <use xlink:href="#NotoSansCJKsc-Regular-63" transform="translate(788.999847 0)"/>
     <use xlink:href="#NotoSansCJKsc-Regular-6f" transform="translate(839.999832 0)"/>
     <use xlink:href="#NotoSansCJKsc-Regular-6e" transform="translate(900.599823 0)"/>
     <use xlink:href="#NotoSansCJKsc-Regular-74" transform="translate(961.599808 0)"/>
     <use xlink:href="#NotoSansCJKsc-Regular-72" transform="translate(999.299805 0)"/>
     <use xlink:href="#NotoSansCJKsc-Regular-69" transform="translate(1038.099792 0)"/>
     <use xlink:href="#NotoSansCJKsc-Regular-62" transform="translate(1065.599777 0)"/>
     <use xlink:href="#NotoSansCJKsc-Regular-75" transform="translate(1127.399765 0)"/>
     <use xlink:href="#NotoSansCJKsc-Regular-74" transform="translate(1188.099762 0)"/>
     <use xlink:href="#NotoSansCJKsc-Regular-65" transform="translate(1225.799759 0)"/>
     <use xlink:href="#NotoSansCJKsc-Regular-20" transform="translate(1281.199753 0)"/>
     <use xlink:href="#NotoSansCJKsc-Regular-74" transform="translate(1303.599747 0)"/>
     <use xlink:href="#NotoSansCJKsc-Regular-72" transform="translate(1341.299744 0)"/>
     <use xlink:href="#NotoSansCJKsc-Regular-61" transform="translate(1380.099731 0)"/>
     <use xlink:href="#NotoSansCJKsc-Regular-6a" transform="translate(1436.399719 0)"/>
     <use xlink:href="#NotoSansCJKsc-Regular-65" transform="translate(1463.899704 0)"/>
     <use xlink:href="#NotoSansCJKsc-Regular-63" transform="translate(1519.299698 0)"/>
     <use xlink:href="#NotoSansCJKsc-Regular-74" transform="translate(1570.299683 0)"/>
     <use xlink:href="#NotoSansCJKsc-Regular-6f" transform="translate(1607.99968 0)"/>
     <use xlink:href="#NotoSansCJKsc-Regular-72" transform="translate(1668.59967 0)"/>
     <use xlink:href="#NotoSansCJKsc-Regular-69" transform="translate(1707.399658 0)"/>
     <use xlink:href="#NotoSansCJKsc-Regular-65" transform="translate(1734.899643 0)"/>
     <use xlink:href="#NotoSansCJKsc-Regular-73" transform="translate(1790.299637 0)"/>
     <use xlink:href="#NotoSansCJKsc-Regular-20" transform="translate(1837.099625 0)"/>
     <use xlink:href="#NotoSansCJKsc-Regular-20" transform="translate(1859.499619 0)"/>
     <use xlink:href="#NotoSansCJKsc-Regular-2d" transform="translate(1881.899612 0)"/>
     <use xlink:href="#NotoSansCJKsc-Regular-3e" transform="translate(1916.599609 0)"/>
     <use xlink:href="#NotoSansCJKsc-Regular-20" transform="translate(1972.099594 0)"/>
     <use xlink:href="#NotoSansCJKsc-Regular-20" transform="translate(1994.499588 0)"/>
     <use xlink:href="#NotoSansCJKsc-Regular-73" transform="translate(2016.899582 0)"/>
     <use xlink:href="#NotoSansCJKsc-Regular-68" transform="translate(2063.69957 0)"/>
     <use xlink:href="#NotoSansCJKsc-Regular-61" transform="translate(2124.399567 0)"/>
     <use xlink:href="#NotoSansCJKsc-Regular-72" transform="translate(2180.699554 0)"/>
     <use xlink:href="#NotoSansCJKsc-Regular-65" transform="translate(2219.499542 0)"/>
     <use xlink:href="#NotoSansCJKsc-Regular-64" transform="translate(2274.899536 0)"/>
     <use xlink:href="#NotoSansCJKsc-Regular-20" transform="translate(2336.899521 0)"/>
     <use xlink:href="#NotoSansCJKsc-Regular-72" transform="translate(2359.299515 0)"/>
     <use xlink:href="#NotoSansCJKsc-Regular-65" transform="translate(2398.099503 0)"/>
     <use xlink:href="#NotoSansCJKsc-Regular-70" transform="translate(2453.499496 0)"/>
     <use xlink:href="#NotoSansCJKsc-Regular-6f" transform="translate(2515.499481 0)"/>
     <use xlink:href="#NotoSansCJKsc-Regular-73" transform="translate(2576.099472 0)"/>
     <use xlink:href="#NotoSansCJKsc-Regular-69" transform="translate(2622.89946 0)"/>
     <use xlink:href="#NotoSansCJKsc-Regular-74" transform="translate(2650.399445 0)"/>
     <use xlink:href="#NotoSansCJKsc-Regular-6f" transform="translate(2688.099442 0)"/>
     <use xlink:href="#NotoSansCJKsc-Regular-72" transform="translate(2748.699432 0)"/>
     <use xlink:href="#NotoSansCJKsc-Regular-79" transform="translate(2787.49942 0)"/>
     <use xlink:href="#NotoSansCJKsc-Regular-20" transform="translate(2839.599411 0)"/>
     <use xlink:href="#NotoSansCJKsc-Regular-28" transform="translate(2861.999405 0)"/>
     <use xlink:href="#NotoSansCJKsc-Regular-2b" transform="translate(2895.799393 0)"/>
     <use xlink:href="#NotoSansCJKsc-Regular-20" transform="translate(2951.299377 0)"/>
     <use xlink:href="#NotoSansCJKsc-Regular-4c" transform="translate(2973.699371 0)"/>
     <use xlink:href="#NotoSansCJKsc-Regular-54" transform="translate(3027.999359 0)"/>
     <use xlink:href="#NotoSansCJKsc-Regular-52" transform="translate(3087.899353 0)"/>
     <use xlink:href="#NotoSansCJKsc-Regular-20" transform="translate(3151.399338 0)"/>
     <use xlink:href="#NotoSansCJKsc-Regular-72" transform="translate(3173.799332 0)"/>
     <use xlink:href="#NotoSansCJKsc-Regular-65" transform="translate(3212.599319 0)"/>
     <use xlink:href="#NotoSansCJKsc-Regular-72" transform="translate(3267.999313 0)"/>
     <use xlink:href="#NotoSansCJKsc-Regular-61" transform="translate(3306.799301 0)"/>
     <use xlink:href="#NotoSansCJKsc-Regular-6e" transform="translate(3363.099289 0)"/>
     <use xlink:href="#NotoSansCJKsc-Regular-6b" transform="translate(3424.099274 0)"/>
     <use xlink:href="#NotoSansCJKsc-Regular-29" transform="translate(3479.299271 0)"/>
     <use xlink:href="#NotoSansCJKsc-Regular-20" transform="translate(3513.099258 0)"/>
     <use xlink:href="#NotoSansCJKsc-Regular-20" transform="translate(3535.499252 0)"/>
     <use xlink:href="#NotoSansCJKsc-Regular-2d" transform="translate(3557.899246 0)"/>
     <use xlink:href="#NotoSansCJKsc-Regular-3e" transform="translate(3592.599243 0)"/>
     <use xlink:href="#NotoSansCJKsc-Regular-20" transform="translate(3648.099228 0)"/>
     <use xlink:href="#NotoSansCJKsc-Regular-20" transform="translate(3670.499222 0)"/>
     <use xlink:href="#NotoSansCJKsc-Regular-63" transform="translate(3692.899216 0)"/>
     <use xlink:href="#NotoSansCJKsc-Regular-6f" transform="translate(3743.8992 0)"/>
     <use xlink:href="#NotoSansCJKsc-Regular-6e" transform="translate(3804.499191 0)"/>
     <use xlink:href="#NotoSansCJKsc-Regular-73" transform="translate(3865.499176 0)"/>
     <use xlink:href="#NotoSansCJKsc-Regular-75" transform="translate(3912.299164 0)"/>
     <use xlink:href="#NotoSansCJKsc-Regular-6d" transform="translate(3972.999161 0)"/>
     <use xlink:href="#NotoSansCJKsc-Regular-65" transform="translate(4065.599152 0)"/>
     <use xlink:href="#NotoSansCJKsc-Regular-72" transform="translate(4120.999146 0)"/>
     <use xlink:href="#NotoSansCJKsc-Regular-20" transform="translate(4159.799133 0)"/>
     <use xlink:href="#NotoSansCJKsc-Regular-61" transform="translate(4182.199127 0)"/>
     <use xlink:href="#NotoSansCJKsc-Regular-67" transform="translate(4238.499115 0)"/>
     <use xlink:href="#NotoSansCJKsc-Regular-65" transform="translate(4294.899109 0)"/>
     <use xlink:href="#NotoSansCJKsc-Regular-6e" transform="translate(4350.299103 0)"/>
     <use xlink:href="#NotoSansCJKsc-Regular-74" transform="translate(4411.299088 0)"/>
     <use xlink:href="#NotoSansCJKsc-Regular-73" transform="translate(4448.999084 0)"/>
     <use xlink:href="#NotoSansCJKsc-Regular-20" transform="translate(4495.799072 0)"/>
     <use xlink:href="#NotoSansCJKsc-Regular-72" transform="translate(4518.199066 0)"/>
     <use xlink:href="#NotoSansCJKsc-Regular-65" transform="translate(4556.999054 0)"/>
     <use xlink:href="#NotoSansCJKsc-Regular-74" transform="translate(4612.399048 0)"/>
     <use xlink:href="#NotoSansCJKsc-Regular-72" transform="translate(4650.099045 0)"/>
     <use xlink:href="#NotoSansCJKsc-Regular-69" transform="translate(4688.899033 0)"/>
     <use xlink:href="#NotoSansCJKsc-Regular-65" transform="translate(4716.399017 0)"/>
     <use xlink:href="#NotoSansCJKsc-Regular-76" transform="translate(4771.799011 0)"/>
     <use xlink:href="#NotoSansCJKsc-Regular-65" transform="translate(4823.899002 0)"/>
     <use xlink:href="#NotoSansCJKsc-Regular-20" transform="translate(4879.298996 0)"/>
     <use xlink:href="#NotoSansCJKsc-Regular-26" transform="translate(4901.69899 0)"/>
     <use xlink:href="#NotoSansCJKsc-Regular-20" transform="translate(4969.698975 0)"/>
     <use xlink:href="#NotoSansCJKsc-Regular-72" transform="translate(4992.098969 0)"/>
     <use xlink:href="#NotoSansCJKsc-Regular-65" transform="translate(5030.898956 0)"/>
     <use xlink:href="#NotoSansCJKsc-Regular-75" transform="translate(5086.29895 0)"/>
     <use xlink:href="#NotoSansCJKsc-Regular-73" transform="translate(5146.998947 0)"/>
     <use xlink:href="#NotoSansCJKsc-Regular-65" transform="translate(5193.798935 0)"/>
    </g>
   </g>
   <g id="text_3">
    <!-- Producer agents -->
    <g style="fill: #2563eb" transform="translate(37.882734 101.447249) scale(0.102 -0.102)">
     <defs>
      <path id="NotoSansCJKsc-Bold-50" d="M 582 0 
L 1530 0 
L 1530 1683 
L 2163 1683 
C 3181 1683 3994 2170 3994 3251 
C 3994 4371 3187 4742 2138 4742 
L 582 4742 
L 582 0 
z
M 1530 2432 
L 1530 3987 
L 2067 3987 
C 2720 3987 3066 3802 3066 3251 
C 3066 2707 2752 2432 2099 2432 
L 1530 2432 
z
" transform="scale(0.015625)"/>
      <path id="NotoSansCJKsc-Bold-64" d="M 1766 -90 
C 2138 -90 2496 109 2758 371 
L 2784 371 
L 2854 0 
L 3622 0 
L 3622 5107 
L 2682 5107 
L 2682 3846 
L 2714 3283 
C 2458 3520 2208 3674 1805 3674 
C 1037 3674 301 2957 301 1792 
C 301 614 870 -90 1766 -90 
z
M 2010 685 
C 1536 685 1267 1056 1267 1805 
C 1267 2515 1606 2899 2010 2899 
C 2240 2899 2464 2829 2682 2630 
L 2682 1056 
C 2477 787 2259 685 2010 685 
z
" transform="scale(0.015625)"/>
     </defs>
     <use xlink:href="#NotoSansCJKsc-Bold-50"/>
     <use xlink:href="#NotoSansCJKsc-Bold-72" transform="translate(66.699997 0)"/>
     <use xlink:href="#NotoSansCJKsc-Bold-6f" transform="translate(110.299988 0)"/>
     <use xlink:href="#NotoSansCJKsc-Bold-64" transform="translate(172.899979 0)"/>
     <use xlink:href="#NotoSansCJKsc-Bold-75" transform="translate(237.299973 0)"/>
     <use xlink:href="#NotoSansCJKsc-Bold-63" transform="translate(300.999969 0)"/>
     <use xlink:href="#NotoSansCJKsc-Bold-65" transform="translate(353.699966 0)"/>
     <use xlink:href="#NotoSansCJKsc-Bold-72" transform="translate(411.799957 0)"/>
     <use xlink:href="#NotoSansCJKsc-Bold-20" transform="translate(455.399948 0)"/>
     <use xlink:href="#NotoSansCJKsc-Bold-61" transform="translate(478.099945 0)"/>
     <use xlink:href="#NotoSansCJKsc-Bold-67" transform="translate(537.199936 0)"/>
     <use xlink:href="#NotoSansCJKsc-Bold-65" transform="translate(596.899933 0)"/>
     <use xlink:href="#NotoSansCJKsc-Bold-6e" transform="translate(654.999924 0)"/>
     <use xlink:href="#NotoSansCJKsc-Bold-74" transform="translate(719.099915 0)"/>
     <use xlink:href="#NotoSansCJKsc-Bold-73" transform="translate(761.199905 0)"/>
    </g>
   </g>
   <g id="text_4">
    <!-- solve tasks in -->
    <g style="fill: #475569" transform="translate(51.353719 115.772845) scale(0.09 -0.09)">
     <defs>
      <path id="NotoSansCJKsc-Regular-6c" d="M 1203 -83 
C 1363 -83 1459 -58 1542 -32 
L 1459 416 
C 1395 403 1370 403 1338 403 
C 1248 403 1178 474 1178 653 
L 1178 5094 
L 589 5094 
L 589 691 
C 589 198 768 -83 1203 -83 
z
" transform="scale(0.015625)"/>
     </defs>
     <use xlink:href="#NotoSansCJKsc-Regular-73"/>
     <use xlink:href="#NotoSansCJKsc-Regular-6f" transform="translate(46.799988 0)"/>
     <use xlink:href="#NotoSansCJKsc-Regular-6c" transform="translate(107.399979 0)"/>
     <use xlink:href="#NotoSansCJKsc-Regular-76" transform="translate(135.799973 0)"/>
     <use xlink:href="#NotoSansCJKsc-Regular-65" transform="translate(187.899963 0)"/>
     <use xlink:href="#NotoSansCJKsc-Regular-20" transform="translate(243.299957 0)"/>
     <use xlink:href="#NotoSansCJKsc-Regular-74" transform="translate(265.699951 0)"/>
     <use xlink:href="#NotoSansCJKsc-Regular-61" transform="translate(303.399948 0)"/>
     <use xlink:href="#NotoSansCJKsc-Regular-73" transform="translate(359.699936 0)"/>
     <use xlink:href="#NotoSansCJKsc-Regular-6b" transform="translate(406.499924 0)"/>
     <use xlink:href="#NotoSansCJKsc-Regular-73" transform="translate(461.699921 0)"/>
     <use xlink:href="#NotoSansCJKsc-Regular-20" transform="translate(508.499908 0)"/>
     <use xlink:href="#NotoSansCJKsc-Regular-69" transform="translate(530.899902 0)"/>
     <use xlink:href="#NotoSansCJKsc-Regular-6e" transform="translate(558.399887 0)"/>
    </g>
   </g>
   <g id="text_5">
    <!-- ALFWorld / WebArena -->
    <g style="fill: #475569" transform="translate(33.812859 128.524045) scale(0.09 -0.09)">
     <defs>
      <path id="NotoSansCJKsc-Regular-41" d="M 26 0 
L 621 0 
L 1075 1434 
L 2790 1434 
L 3238 0 
L 3866 0 
L 2272 4691 
L 1613 4691 
L 26 0 
z
M 1222 1901 
L 1453 2624 
C 1619 3155 1773 3661 1920 4211 
L 1946 4211 
C 2099 3667 2246 3155 2419 2624 
L 2643 1901 
L 1222 1901 
z
" transform="scale(0.015625)"/>
      <path id="NotoSansCJKsc-Regular-46" d="M 646 0 
L 1235 0 
L 1235 2106 
L 3027 2106 
L 3027 2605 
L 1235 2605 
L 1235 4192 
L 3347 4192 
L 3347 4691 
L 646 4691 
L 646 0 
z
" transform="scale(0.015625)"/>
      <path id="NotoSansCJKsc-Regular-57" d="M 1158 0 
L 1862 0 
L 2560 2829 
C 2637 3200 2726 3539 2797 3898 
L 2822 3898 
C 2899 3539 2970 3200 3053 2829 
L 3763 0 
L 4480 0 
L 5446 4691 
L 4883 4691 
L 4378 2138 
C 4294 1632 4205 1126 4122 614 
L 4083 614 
C 3968 1126 3866 1638 3750 2138 
L 3098 4691 
L 2554 4691 
L 1907 2138 
C 1792 1632 1677 1126 1574 614 
L 1549 614 
C 1453 1126 1363 1632 1267 2138 
L 774 4691 
L 166 4691 
L 1158 0 
z
" transform="scale(0.015625)"/>
      <path id="NotoSansCJKsc-Regular-2f" d="M 70 -1146 
L 499 -1146 
L 2413 5082 
L 1990 5082 
L 70 -1146 
z
" transform="scale(0.015625)"/>
     </defs>
     <use xlink:href="#NotoSansCJKsc-Regular-41"/>
     <use xlink:href="#NotoSansCJKsc-Regular-4c" transform="translate(60.799988 0)"/>
     <use xlink:href="#NotoSansCJKsc-Regular-46" transform="translate(115.099976 0)"/>
     <use xlink:href="#NotoSansCJKsc-Regular-57" transform="translate(170.299973 0)"/>
     <use xlink:href="#NotoSansCJKsc-Regular-6f" transform="translate(258.09996 0)"/>
     <use xlink:href="#NotoSansCJKsc-Regular-72" transform="translate(318.699951 0)"/>
     <use xlink:href="#NotoSansCJKsc-Regular-6c" transform="translate(357.499939 0)"/>
     <use xlink:href="#NotoSansCJKsc-Regular-64" transform="translate(385.899933 0)"/>
     <use xlink:href="#NotoSansCJKsc-Regular-20" transform="translate(447.899918 0)"/>
     <use xlink:href="#NotoSansCJKsc-Regular-2f" transform="translate(470.299911 0)"/>
     <use xlink:href="#NotoSansCJKsc-Regular-20" transform="translate(509.499908 0)"/>
     <use xlink:href="#NotoSansCJKsc-Regular-57" transform="translate(531.899902 0)"/>
     <use xlink:href="#NotoSansCJKsc-Regular-65" transform="translate(619.69989 0)"/>
     <use xlink:href="#NotoSansCJKsc-Regular-62" transform="translate(675.099884 0)"/>
     <use xlink:href="#NotoSansCJKsc-Regular-41" transform="translate(736.899872 0)"/>
     <use xlink:href="#NotoSansCJKsc-Regular-72" transform="translate(797.69986 0)"/>
     <use xlink:href="#NotoSansCJKsc-Regular-65" transform="translate(836.499847 0)"/>
     <use xlink:href="#NotoSansCJKsc-Regular-6e" transform="translate(891.899841 0)"/>
     <use xlink:href="#NotoSansCJKsc-Regular-61" transform="translate(952.899826 0)"/>
    </g>
   </g>
   <g id="text_6">
    <!-- -&gt; action-obs trajectories -->
    <g style="fill: #475569" transform="translate(26.7345 141.275245) scale(0.09 -0.09)">
     <use xlink:href="#NotoSansCJKsc-Regular-2d"/>
     <use xlink:href="#NotoSansCJKsc-Regular-3e" transform="translate(34.699997 0)"/>
     <use xlink:href="#NotoSansCJKsc-Regular-20" transform="translate(90.199982 0)"/>
     <use xlink:href="#NotoSansCJKsc-Regular-61" transform="translate(112.599976 0)"/>
     <use xlink:href="#NotoSansCJKsc-Regular-63" transform="translate(168.899963 0)"/>
     <use xlink:href="#NotoSansCJKsc-Regular-74" transform="translate(219.899948 0)"/>
     <use xlink:href="#NotoSansCJKsc-Regular-69" transform="translate(257.599945 0)"/>
     <use xlink:href="#NotoSansCJKsc-Regular-6f" transform="translate(285.09993 0)"/>
     <use xlink:href="#NotoSansCJKsc-Regular-6e" transform="translate(345.699921 0)"/>
     <use xlink:href="#NotoSansCJKsc-Regular-2d" transform="translate(406.699905 0)"/>
     <use xlink:href="#NotoSansCJKsc-Regular-6f" transform="translate(441.399902 0)"/>
     <use xlink:href="#NotoSansCJKsc-Regular-62" transform="translate(501.999893 0)"/>
     <use xlink:href="#NotoSansCJKsc-Regular-73" transform="translate(563.799881 0)"/>
     <use xlink:href="#NotoSansCJKsc-Regular-20" transform="translate(610.599869 0)"/>
     <use xlink:href="#NotoSansCJKsc-Regular-74" transform="translate(632.999863 0)"/>
     <use xlink:href="#NotoSansCJKsc-Regular-72" transform="translate(670.69986 0)"/>
     <use xlink:href="#NotoSansCJKsc-Regular-61" transform="translate(709.499847 0)"/>
     <use xlink:href="#NotoSansCJKsc-Regular-6a" transform="translate(765.799835 0)"/>
     <use xlink:href="#NotoSansCJKsc-Regular-65" transform="translate(793.29982 0)"/>
     <use xlink:href="#NotoSansCJKsc-Regular-63" transform="translate(848.699814 0)"/>
     <use xlink:href="#NotoSansCJKsc-Regular-74" transform="translate(899.699799 0)"/>
     <use xlink:href="#NotoSansCJKsc-Regular-6f" transform="translate(937.399796 0)"/>
     <use xlink:href="#NotoSansCJKsc-Regular-72" transform="translate(997.999786 0)"/>
     <use xlink:href="#NotoSansCJKsc-Regular-69" transform="translate(1036.799774 0)"/>
     <use xlink:href="#NotoSansCJKsc-Regular-65" transform="translate(1064.299759 0)"/>
     <use xlink:href="#NotoSansCJKsc-Regular-73" transform="translate(1119.699753 0)"/>
    </g>
   </g>
   <g id="text_7">
    <!-- Transactive memory -->
    <g style="fill: #334155" transform="translate(180.862594 101.57953) scale(0.102 -0.102)">
     <use xlink:href="#NotoSansCJKsc-Bold-54"/>
     <use xlink:href="#NotoSansCJKsc-Bold-72" transform="translate(62.499985 0)"/>
     <use xlink:href="#NotoSansCJKsc-Bold-61" transform="translate(106.099976 0)"/>
     <use xlink:href="#NotoSansCJKsc-Bold-6e" transform="translate(165.199966 0)"/>
     <use xlink:href="#NotoSansCJKsc-Bold-73" transform="translate(229.299957 0)"/>
     <use xlink:href="#NotoSansCJKsc-Bold-61" transform="translate(278.799942 0)"/>
     <use xlink:href="#NotoSansCJKsc-Bold-63" transform="translate(337.899933 0)"/>
     <use xlink:href="#NotoSansCJKsc-Bold-74" transform="translate(390.59993 0)"/>
     <use xlink:href="#NotoSansCJKsc-Bold-69" transform="translate(432.699921 0)"/>
     <use xlink:href="#NotoSansCJKsc-Bold-76" transform="translate(463.099915 0)"/>
     <use xlink:href="#NotoSansCJKsc-Bold-65" transform="translate(520.699905 0)"/>
     <use xlink:href="#NotoSansCJKsc-Bold-20" transform="translate(578.799896 0)"/>
     <use xlink:href="#NotoSansCJKsc-Bold-6d" transform="translate(601.499893 0)"/>
     <use xlink:href="#NotoSansCJKsc-Bold-65" transform="translate(697.899887 0)"/>
     <use xlink:href="#NotoSansCJKsc-Bold-6d" transform="translate(755.999878 0)"/>
     <use xlink:href="#NotoSansCJKsc-Bold-6f" transform="translate(852.399872 0)"/>
     <use xlink:href="#NotoSansCJKsc-Bold-72" transform="translate(914.999863 0)"/>
     <use xlink:href="#NotoSansCJKsc-Bold-79" transform="translate(958.599854 0)"/>
    </g>
   </g>
   <g id="text_8">
    <!-- shared repository of -->
    <g style="fill: #475569" transform="translate(190.458563 115.89097) scale(0.09 -0.09)">
     <defs>
      <path id="NotoSansCJKsc-Regular-66" d="M 211 3002 
L 685 3002 
L 685 0 
L 1267 0 
L 1267 3002 
L 2003 3002 
L 2003 3475 
L 1267 3475 
L 1267 4026 
C 1267 4474 1427 4710 1760 4710 
C 1882 4710 2022 4678 2150 4614 
L 2278 5069 
C 2118 5133 1914 5178 1696 5178 
C 1005 5178 685 4736 685 4032 
L 685 3475 
L 211 3443 
L 211 3002 
z
" transform="scale(0.015625)"/>
     </defs>
     <use xlink:href="#NotoSansCJKsc-Regular-73"/>
     <use xlink:href="#NotoSansCJKsc-Regular-68" transform="translate(46.799988 0)"/>
     <use xlink:href="#NotoSansCJKsc-Regular-61" transform="translate(107.499985 0)"/>
     <use xlink:href="#NotoSansCJKsc-Regular-72" transform="translate(163.799973 0)"/>
     <use xlink:href="#NotoSansCJKsc-Regular-65" transform="translate(202.59996 0)"/>
     <use xlink:href="#NotoSansCJKsc-Regular-64" transform="translate(257.999954 0)"/>
     <use xlink:href="#NotoSansCJKsc-Regular-20" transform="translate(319.999939 0)"/>
     <use xlink:href="#NotoSansCJKsc-Regular-72" transform="translate(342.399933 0)"/>
     <use xlink:href="#NotoSansCJKsc-Regular-65" transform="translate(381.199921 0)"/>
     <use xlink:href="#NotoSansCJKsc-Regular-70" transform="translate(436.599915 0)"/>
     <use xlink:href="#NotoSansCJKsc-Regular-6f" transform="translate(498.599899 0)"/>
     <use xlink:href="#NotoSansCJKsc-Regular-73" transform="translate(559.19989 0)"/>
     <use xlink:href="#NotoSansCJKsc-Regular-69" transform="translate(605.999878 0)"/>
     <use xlink:href="#NotoSansCJKsc-Regular-74" transform="translate(633.499863 0)"/>
     <use xlink:href="#NotoSansCJKsc-Regular-6f" transform="translate(671.19986 0)"/>
     <use xlink:href="#NotoSansCJKsc-Regular-72" transform="translate(731.79985 0)"/>
     <use xlink:href="#NotoSansCJKsc-Regular-79" transform="translate(770.599838 0)"/>
     <use xlink:href="#NotoSansCJKsc-Regular-20" transform="translate(822.699829 0)"/>
     <use xlink:href="#NotoSansCJKsc-Regular-6f" transform="translate(845.099823 0)"/>
     <use xlink:href="#NotoSansCJKsc-Regular-66" transform="translate(905.699814 0)"/>
    </g>
   </g>
   <g id="text_9">
    <!-- agent-generated -->
    <g style="fill: #475569" transform="translate(197.579813 128.524045) scale(0.09 -0.09)">
     <use xlink:href="#NotoSansCJKsc-Regular-61"/>
     <use xlink:href="#NotoSansCJKsc-Regular-67" transform="translate(56.299988 0)"/>
     <use xlink:href="#NotoSansCJKsc-Regular-65" transform="translate(112.699982 0)"/>
     <use xlink:href="#NotoSansCJKsc-Regular-6e" transform="translate(168.099976 0)"/>
     <use xlink:href="#NotoSansCJKsc-Regular-74" transform="translate(229.09996 0)"/>
     <use xlink:href="#NotoSansCJKsc-Regular-2d" transform="translate(266.799957 0)"/>
     <use xlink:href="#NotoSansCJKsc-Regular-67" transform="translate(301.499954 0)"/>
     <use xlink:href="#NotoSansCJKsc-Regular-65" transform="translate(357.899948 0)"/>
     <use xlink:href="#NotoSansCJKsc-Regular-6e" transform="translate(413.299942 0)"/>
     <use xlink:href="#NotoSansCJKsc-Regular-65" transform="translate(474.299927 0)"/>
     <use xlink:href="#NotoSansCJKsc-Regular-72" transform="translate(529.699921 0)"/>
     <use xlink:href="#NotoSansCJKsc-Regular-61" transform="translate(568.499908 0)"/>
     <use xlink:href="#NotoSansCJKsc-Regular-74" transform="translate(624.799896 0)"/>
     <use xlink:href="#NotoSansCJKsc-Regular-65" transform="translate(662.499893 0)"/>
     <use xlink:href="#NotoSansCJKsc-Regular-64" transform="translate(717.899887 0)"/>
    </g>
   </g>
   <g id="text_10">
    <!-- trajectories -->
    <g style="fill: #475569" transform="translate(208.6695 141.158527) scale(0.09 -0.09)">
     <use xlink:href="#NotoSansCJKsc-Regular-74"/>
     <use xlink:href="#NotoSansCJKsc-Regular-72" transform="translate(37.699997 0)"/>
     <use xlink:href="#NotoSansCJKsc-Regular-61" transform="translate(76.499985 0)"/>
     <use xlink:href="#NotoSansCJKsc-Regular-6a" transform="translate(132.799973 0)"/>
     <use xlink:href="#NotoSansCJKsc-Regular-65" transform="translate(160.299957 0)"/>
     <use xlink:href="#NotoSansCJKsc-Regular-63" transform="translate(215.699951 0)"/>
     <use xlink:href="#NotoSansCJKsc-Regular-74" transform="translate(266.699936 0)"/>
     <use xlink:href="#NotoSansCJKsc-Regular-6f" transform="translate(304.399933 0)"/>
     <use xlink:href="#NotoSansCJKsc-Regular-72" transform="translate(364.999924 0)"/>
     <use xlink:href="#NotoSansCJKsc-Regular-69" transform="translate(403.799911 0)"/>
     <use xlink:href="#NotoSansCJKsc-Regular-65" transform="translate(431.299896 0)"/>
     <use xlink:href="#NotoSansCJKsc-Regular-73" transform="translate(486.69989 0)"/>
    </g>
   </g>
   <g id="text_11">
    <!-- LTR reranker -->
    <g style="fill: #d97706" transform="translate(199.946953 208.557329) scale(0.102 -0.102)">
     <defs>
      <path id="NotoSansCJKsc-Bold-4c" d="M 582 0 
L 3456 0 
L 3456 794 
L 1530 794 
L 1530 4742 
L 582 4742 
L 582 0 
z
" transform="scale(0.015625)"/>
      <path id="NotoSansCJKsc-Bold-52" d="M 1530 2541 
L 1530 3987 
L 2144 3987 
C 2752 3987 3085 3814 3085 3302 
C 3085 2797 2752 2541 2144 2541 
L 1530 2541 
z
M 3162 0 
L 4218 0 
L 3110 1939 
C 3654 2150 4013 2592 4013 3302 
C 4013 4390 3226 4742 2227 4742 
L 582 4742 
L 582 0 
L 1530 0 
L 1530 1792 
L 2189 1792 
L 3162 0 
z
" transform="scale(0.015625)"/>
      <path id="NotoSansCJKsc-Bold-6b" d="M 506 0 
L 1434 0 
L 1434 909 
L 1933 1491 
L 2803 0 
L 3827 0 
L 2483 2106 
L 3712 3584 
L 2682 3584 
L 1459 2048 
L 1434 2048 
L 1434 5107 
L 506 5107 
L 506 0 
z
" transform="scale(0.015625)"/>
     </defs>
     <use xlink:href="#NotoSansCJKsc-Bold-4c"/>
     <use xlink:href="#NotoSansCJKsc-Bold-54" transform="translate(57.799988 0)"/>
     <use xlink:href="#NotoSansCJKsc-Bold-52" transform="translate(120.299973 0)"/>
     <use xlink:href="#NotoSansCJKsc-Bold-20" transform="translate(188.499954 0)"/>
     <use xlink:href="#NotoSansCJKsc-Bold-72" transform="translate(211.199951 0)"/>
     <use xlink:href="#NotoSansCJKsc-Bold-65" transform="translate(254.799942 0)"/>
     <use xlink:href="#NotoSansCJKsc-Bold-72" transform="translate(312.899933 0)"/>
     <use xlink:href="#NotoSansCJKsc-Bold-61" transform="translate(356.499924 0)"/>
     <use xlink:href="#NotoSansCJKsc-Bold-6e" transform="translate(415.599915 0)"/>
     <use xlink:href="#NotoSansCJKsc-Bold-6b" transform="translate(479.699905 0)"/>
     <use xlink:href="#NotoSansCJKsc-Bold-65" transform="translate(540.099899 0)"/>
     <use xlink:href="#NotoSansCJKsc-Bold-72" transform="translate(598.19989 0)"/>
    </g>
   </g>
   <g id="text_12">
    <!-- learning-to-rank -->
    <g style="fill: #475569" transform="translate(199.06925 222.723738) scale(0.088 -0.088)">
     <use xlink:href="#NotoSansCJKsc-Regular-6c"/>
     <use xlink:href="#NotoSansCJKsc-Regular-65" transform="translate(28.399994 0)"/>
     <use xlink:href="#NotoSansCJKsc-Regular-61" transform="translate(83.799988 0)"/>
     <use xlink:href="#NotoSansCJKsc-Regular-72" transform="translate(140.099976 0)"/>
     <use xlink:href="#NotoSansCJKsc-Regular-6e" transform="translate(178.899963 0)"/>
     <use xlink:href="#NotoSansCJKsc-Regular-69" transform="translate(239.899948 0)"/>
     <use xlink:href="#NotoSansCJKsc-Regular-6e" transform="translate(267.399933 0)"/>
     <use xlink:href="#NotoSansCJKsc-Regular-67" transform="translate(328.399918 0)"/>
     <use xlink:href="#NotoSansCJKsc-Regular-2d" transform="translate(384.799911 0)"/>
     <use xlink:href="#NotoSansCJKsc-Regular-74" transform="translate(419.499908 0)"/>
     <use xlink:href="#NotoSansCJKsc-Regular-6f" transform="translate(457.199905 0)"/>
     <use xlink:href="#NotoSansCJKsc-Regular-2d" transform="translate(517.799896 0)"/>
     <use xlink:href="#NotoSansCJKsc-Regular-72" transform="translate(552.499893 0)"/>
     <use xlink:href="#NotoSansCJKsc-Regular-61" transform="translate(591.299881 0)"/>
     <use xlink:href="#NotoSansCJKsc-Regular-6e" transform="translate(647.599869 0)"/>
     <use xlink:href="#NotoSansCJKsc-Regular-6b" transform="translate(708.599854 0)"/>
    </g>
   </g>
   <g id="text_13">
    <!-- improves retrieval -->
    <g style="fill: #475569" transform="translate(195.338875 235.474938) scale(0.088 -0.088)">
     <use xlink:href="#NotoSansCJKsc-Regular-69"/>
     <use xlink:href="#NotoSansCJKsc-Regular-6d" transform="translate(27.499985 0)"/>
     <use xlink:href="#NotoSansCJKsc-Regular-70" transform="translate(120.099976 0)"/>
     <use xlink:href="#NotoSansCJKsc-Regular-72" transform="translate(182.09996 0)"/>
     <use xlink:href="#NotoSansCJKsc-Regular-6f" transform="translate(220.899948 0)"/>
     <use xlink:href="#NotoSansCJKsc-Regular-76" transform="translate(281.499939 0)"/>
     <use xlink:href="#NotoSansCJKsc-Regular-65" transform="translate(333.59993 0)"/>
     <use xlink:href="#NotoSansCJKsc-Regular-73" transform="translate(388.999924 0)"/>
     <use xlink:href="#NotoSansCJKsc-Regular-20" transform="translate(435.799911 0)"/>
     <use xlink:href="#NotoSansCJKsc-Regular-72" transform="translate(458.199905 0)"/>
     <use xlink:href="#NotoSansCJKsc-Regular-65" transform="translate(496.999893 0)"/>
     <use xlink:href="#NotoSansCJKsc-Regular-74" transform="translate(552.399887 0)"/>
     <use xlink:href="#NotoSansCJKsc-Regular-72" transform="translate(590.099884 0)"/>
     <use xlink:href="#NotoSansCJKsc-Regular-69" transform="translate(628.899872 0)"/>
     <use xlink:href="#NotoSansCJKsc-Regular-65" transform="translate(656.399857 0)"/>
     <use xlink:href="#NotoSansCJKsc-Regular-76" transform="translate(711.79985 0)"/>
     <use xlink:href="#NotoSansCJKsc-Regular-61" transform="translate(763.899841 0)"/>
     <use xlink:href="#NotoSansCJKsc-Regular-6c" transform="translate(820.199829 0)"/>
    </g>
   </g>
   <g id="text_14">
    <!-- Retrieve -->
    <g style="fill: #7c3aed" transform="translate(371.040234 101.447249) scale(0.102 -0.102)">
     <use xlink:href="#NotoSansCJKsc-Bold-52"/>
     <use xlink:href="#NotoSansCJKsc-Bold-65" transform="translate(68.199982 0)"/>
     <use xlink:href="#NotoSansCJKsc-Bold-74" transform="translate(126.299973 0)"/>
     <use xlink:href="#NotoSansCJKsc-Bold-72" transform="translate(168.399963 0)"/>
     <use xlink:href="#NotoSansCJKsc-Bold-69" transform="translate(211.999954 0)"/>
     <use xlink:href="#NotoSansCJKsc-Bold-65" transform="translate(242.399948 0)"/>
     <use xlink:href="#NotoSansCJKsc-Bold-76" transform="translate(300.499939 0)"/>
     <use xlink:href="#NotoSansCJKsc-Bold-65" transform="translate(358.09993 0)"/>
    </g>
   </g>
   <g id="text_15">
    <!-- query repository for -->
    <g style="fill: #475569" transform="translate(350.595703 115.89097) scale(0.09 -0.09)">
     <defs>
      <path id="NotoSansCJKsc-Regular-71" d="M 2790 -1466 
L 3379 -1466 
L 3379 3475 
L 2912 3475 
L 2854 3149 
L 2842 3149 
C 2534 3418 2253 3565 1843 3565 
C 1050 3565 339 2861 339 1734 
C 339 576 902 -83 1773 -83 
C 2176 -83 2541 128 2822 403 
L 2790 -230 
L 2790 -1466 
z
M 1901 410 
C 1293 410 941 902 941 1741 
C 941 2534 1389 3072 1946 3072 
C 2234 3072 2502 2970 2790 2707 
L 2790 883 
C 2502 563 2221 410 1901 410 
z
" transform="scale(0.015625)"/>
     </defs>
     <use xlink:href="#NotoSansCJKsc-Regular-71"/>
     <use xlink:href="#NotoSansCJKsc-Regular-75" transform="translate(61.999985 0)"/>
     <use xlink:href="#NotoSansCJKsc-Regular-65" transform="translate(122.699982 0)"/>
     <use xlink:href="#NotoSansCJKsc-Regular-72" transform="translate(178.099976 0)"/>
     <use xlink:href="#NotoSansCJKsc-Regular-79" transform="translate(216.899963 0)"/>
     <use xlink:href="#NotoSansCJKsc-Regular-20" transform="translate(268.999954 0)"/>
     <use xlink:href="#NotoSansCJKsc-Regular-72" transform="translate(291.399948 0)"/>
     <use xlink:href="#NotoSansCJKsc-Regular-65" transform="translate(330.199936 0)"/>
     <use xlink:href="#NotoSansCJKsc-Regular-70" transform="translate(385.59993 0)"/>
     <use xlink:href="#NotoSansCJKsc-Regular-6f" transform="translate(447.599915 0)"/>
     <use xlink:href="#NotoSansCJKsc-Regular-73" transform="translate(508.199905 0)"/>
     <use xlink:href="#NotoSansCJKsc-Regular-69" transform="translate(554.999893 0)"/>
     <use xlink:href="#NotoSansCJKsc-Regular-74" transform="translate(582.499878 0)"/>
     <use xlink:href="#NotoSansCJKsc-Regular-6f" transform="translate(620.199875 0)"/>
     <use xlink:href="#NotoSansCJKsc-Regular-72" transform="translate(680.799866 0)"/>
     <use xlink:href="#NotoSansCJKsc-Regular-79" transform="translate(719.599854 0)"/>
     <use xlink:href="#NotoSansCJKsc-Regular-20" transform="translate(771.699844 0)"/>
     <use xlink:href="#NotoSansCJKsc-Regular-66" transform="translate(794.099838 0)"/>
     <use xlink:href="#NotoSansCJKsc-Regular-6f" transform="translate(826.599823 0)"/>
     <use xlink:href="#NotoSansCJKsc-Regular-72" transform="translate(887.199814 0)"/>
    </g>
   </g>
   <g id="text_16">
    <!-- relevant procedural -->
    <g style="fill: #475569" transform="translate(350.796797 128.524045) scale(0.09 -0.09)">
     <use xlink:href="#NotoSansCJKsc-Regular-72"/>
     <use xlink:href="#NotoSansCJKsc-Regular-65" transform="translate(38.799988 0)"/>
     <use xlink:href="#NotoSansCJKsc-Regular-6c" transform="translate(94.199982 0)"/>
     <use xlink:href="#NotoSansCJKsc-Regular-65" transform="translate(122.599976 0)"/>
     <use xlink:href="#NotoSansCJKsc-Regular-76" transform="translate(177.999969 0)"/>
     <use xlink:href="#NotoSansCJKsc-Regular-61" transform="translate(230.09996 0)"/>
     <use xlink:href="#NotoSansCJKsc-Regular-6e" transform="translate(286.399948 0)"/>
     <use xlink:href="#NotoSansCJKsc-Regular-74" transform="translate(347.399933 0)"/>
     <use xlink:href="#NotoSansCJKsc-Regular-20" transform="translate(385.09993 0)"/>
     <use xlink:href="#NotoSansCJKsc-Regular-70" transform="translate(407.499924 0)"/>
     <use xlink:href="#NotoSansCJKsc-Regular-72" transform="translate(469.499908 0)"/>
     <use xlink:href="#NotoSansCJKsc-Regular-6f" transform="translate(508.299896 0)"/>
     <use xlink:href="#NotoSansCJKsc-Regular-63" transform="translate(568.899887 0)"/>
     <use xlink:href="#NotoSansCJKsc-Regular-65" transform="translate(619.899872 0)"/>
     <use xlink:href="#NotoSansCJKsc-Regular-64" transform="translate(675.299866 0)"/>
     <use xlink:href="#NotoSansCJKsc-Regular-75" transform="translate(737.29985 0)"/>
     <use xlink:href="#NotoSansCJKsc-Regular-72" transform="translate(797.999847 0)"/>
     <use xlink:href="#NotoSansCJKsc-Regular-61" transform="translate(836.799835 0)"/>
     <use xlink:href="#NotoSansCJKsc-Regular-6c" transform="translate(893.099823 0)"/>
    </g>
   </g>
   <g id="text_17">
    <!-- knowledge -->
    <g style="fill: #475569" transform="translate(369.106875 141.275245) scale(0.09 -0.09)">
     <defs>
      <path id="NotoSansCJKsc-Regular-77" d="M 1139 0 
L 1818 0 
L 2310 1862 
C 2400 2195 2470 2522 2547 2874 
L 2579 2874 
C 2662 2522 2726 2202 2816 1875 
L 3315 0 
L 4026 0 
L 4966 3475 
L 4403 3475 
L 3898 1466 
C 3821 1133 3757 819 3686 499 
L 3654 499 
C 3571 819 3494 1133 3411 1466 
L 2867 3475 
L 2298 3475 
L 1754 1466 
C 1670 1133 1594 819 1523 499 
L 1491 499 
C 1421 819 1357 1133 1286 1466 
L 768 3475 
L 173 3475 
L 1139 0 
z
" transform="scale(0.015625)"/>
     </defs>
     <use xlink:href="#NotoSansCJKsc-Regular-6b"/>
     <use xlink:href="#NotoSansCJKsc-Regular-6e" transform="translate(55.199997 0)"/>
     <use xlink:href="#NotoSansCJKsc-Regular-6f" transform="translate(116.199982 0)"/>
     <use xlink:href="#NotoSansCJKsc-Regular-77" transform="translate(176.799973 0)"/>
     <use xlink:href="#NotoSansCJKsc-Regular-6c" transform="translate(256.999954 0)"/>
     <use xlink:href="#NotoSansCJKsc-Regular-65" transform="translate(285.399948 0)"/>
     <use xlink:href="#NotoSansCJKsc-Regular-64" transform="translate(340.799942 0)"/>
     <use xlink:href="#NotoSansCJKsc-Regular-67" transform="translate(402.799927 0)"/>
     <use xlink:href="#NotoSansCJKsc-Regular-65" transform="translate(459.199921 0)"/>
    </g>
   </g>
   <g id="text_18">
    <!-- Consumer agents -->
    <g style="fill: #10b981" transform="translate(504.982172 101.161968) scale(0.102 -0.102)">
     <defs>
      <path id="NotoSansCJKsc-Bold-43" d="M 2509 -90 
C 3130 -90 3635 154 4026 608 
L 3520 1197 
C 3270 922 2957 730 2547 730 
C 1798 730 1318 1350 1318 2381 
C 1318 3398 1850 4013 2566 4013 
C 2925 4013 3200 3846 3443 3616 
L 3936 4218 
C 3629 4538 3155 4826 2547 4826 
C 1350 4826 346 3910 346 2349 
C 346 768 1318 -90 2509 -90 
z
" transform="scale(0.015625)"/>
     </defs>
     <use xlink:href="#NotoSansCJKsc-Bold-43"/>
     <use xlink:href="#NotoSansCJKsc-Bold-6f" transform="translate(65.599991 0)"/>
     <use xlink:href="#NotoSansCJKsc-Bold-6e" transform="translate(128.199982 0)"/>
     <use xlink:href="#NotoSansCJKsc-Bold-73" transform="translate(192.299973 0)"/>
     <use xlink:href="#NotoSansCJKsc-Bold-75" transform="translate(241.799957 0)"/>
     <use xlink:href="#NotoSansCJKsc-Bold-6d" transform="translate(305.499954 0)"/>
     <use xlink:href="#NotoSansCJKsc-Bold-65" transform="translate(401.899948 0)"/>
     <use xlink:href="#NotoSansCJKsc-Bold-72" transform="translate(459.999939 0)"/>
     <use xlink:href="#NotoSansCJKsc-Bold-20" transform="translate(503.59993 0)"/>
     <use xlink:href="#NotoSansCJKsc-Bold-61" transform="translate(526.299927 0)"/>
     <use xlink:href="#NotoSansCJKsc-Bold-67" transform="translate(585.399918 0)"/>
     <use xlink:href="#NotoSansCJKsc-Bold-65" transform="translate(645.099915 0)"/>
     <use xlink:href="#NotoSansCJKsc-Bold-6e" transform="translate(703.199905 0)"/>
     <use xlink:href="#NotoSansCJKsc-Bold-74" transform="translate(767.299896 0)"/>
     <use xlink:href="#NotoSansCJKsc-Bold-73" transform="translate(809.399887 0)"/>
    </g>
   </g>
   <g id="text_19">
    <!-- reuse others' experience -->
    <g style="fill: #475569" transform="translate(497.419313 115.772845) scale(0.09 -0.09)">
     <defs>
      <path id="NotoSansCJKsc-Regular-27" d="M 704 3091 
L 1069 3091 
L 1178 4282 
L 1190 4934 
L 576 4934 
L 589 4282 
L 704 3091 
z
" transform="scale(0.015625)"/>
      <path id="NotoSansCJKsc-Regular-78" d="M 96 0 
L 710 0 
L 1178 813 
C 1299 1024 1408 1235 1530 1434 
L 1562 1434 
C 1696 1235 1824 1024 1939 813 
L 2451 0 
L 3091 0 
L 1946 1754 
L 3002 3475 
L 2394 3475 
L 1965 2714 
C 1856 2515 1760 2330 1658 2131 
L 1626 2131 
C 1510 2330 1389 2515 1286 2714 
L 819 3475 
L 186 3475 
L 1242 1811 
L 96 0 
z
" transform="scale(0.015625)"/>
     </defs>
     <use xlink:href="#NotoSansCJKsc-Regular-72"/>
     <use xlink:href="#NotoSansCJKsc-Regular-65" transform="translate(38.799988 0)"/>
     <use xlink:href="#NotoSansCJKsc-Regular-75" transform="translate(94.199982 0)"/>
     <use xlink:href="#NotoSansCJKsc-Regular-73" transform="translate(154.899979 0)"/>
     <use xlink:href="#NotoSansCJKsc-Regular-65" transform="translate(201.699966 0)"/>
     <use xlink:href="#NotoSansCJKsc-Regular-20" transform="translate(257.09996 0)"/>
     <use xlink:href="#NotoSansCJKsc-Regular-6f" transform="translate(279.499954 0)"/>
     <use xlink:href="#NotoSansCJKsc-Regular-74" transform="translate(340.099945 0)"/>
     <use xlink:href="#NotoSansCJKsc-Regular-68" transform="translate(377.799942 0)"/>
     <use xlink:href="#NotoSansCJKsc-Regular-65" transform="translate(438.499939 0)"/>
     <use xlink:href="#NotoSansCJKsc-Regular-72" transform="translate(493.899933 0)"/>
     <use xlink:href="#NotoSansCJKsc-Regular-73" transform="translate(532.699921 0)"/>
     <use xlink:href="#NotoSansCJKsc-Regular-27" transform="translate(579.499908 0)"/>
     <use xlink:href="#NotoSansCJKsc-Regular-20" transform="translate(607.299896 0)"/>
     <use xlink:href="#NotoSansCJKsc-Regular-65" transform="translate(629.69989 0)"/>
     <use xlink:href="#NotoSansCJKsc-Regular-78" transform="translate(685.099884 0)"/>
     <use xlink:href="#NotoSansCJKsc-Regular-70" transform="translate(734.899872 0)"/>
     <use xlink:href="#NotoSansCJKsc-Regular-65" transform="translate(796.899857 0)"/>
     <use xlink:href="#NotoSansCJKsc-Regular-72" transform="translate(852.29985 0)"/>
     <use xlink:href="#NotoSansCJKsc-Regular-69" transform="translate(891.099838 0)"/>
     <use xlink:href="#NotoSansCJKsc-Regular-65" transform="translate(918.599823 0)"/>
     <use xlink:href="#NotoSansCJKsc-Regular-6e" transform="translate(973.999817 0)"/>
     <use xlink:href="#NotoSansCJKsc-Regular-63" transform="translate(1034.999802 0)"/>
     <use xlink:href="#NotoSansCJKsc-Regular-65" transform="translate(1085.999786 0)"/>
    </g>
   </g>
   <g id="text_20">
    <!-- + task success -->
    <g style="fill: #475569" transform="translate(519.317438 128.524045) scale(0.09 -0.09)">
     <use xlink:href="#NotoSansCJKsc-Regular-2b"/>
     <use xlink:href="#NotoSansCJKsc-Regular-20" transform="translate(55.499985 0)"/>
     <use xlink:href="#NotoSansCJKsc-Regular-74" transform="translate(77.899979 0)"/>
     <use xlink:href="#NotoSansCJKsc-Regular-61" transform="translate(115.599976 0)"/>
     <use xlink:href="#NotoSansCJKsc-Regular-73" transform="translate(171.899963 0)"/>
     <use xlink:href="#NotoSansCJKsc-Regular-6b" transform="translate(218.699951 0)"/>
     <use xlink:href="#NotoSansCJKsc-Regular-20" transform="translate(273.899948 0)"/>
     <use xlink:href="#NotoSansCJKsc-Regular-73" transform="translate(296.299942 0)"/>
     <use xlink:href="#NotoSansCJKsc-Regular-75" transform="translate(343.09993 0)"/>
     <use xlink:href="#NotoSansCJKsc-Regular-63" transform="translate(403.799927 0)"/>
     <use xlink:href="#NotoSansCJKsc-Regular-63" transform="translate(454.799911 0)"/>
     <use xlink:href="#NotoSansCJKsc-Regular-65" transform="translate(505.799896 0)"/>
     <use xlink:href="#NotoSansCJKsc-Regular-73" transform="translate(561.19989 0)"/>
     <use xlink:href="#NotoSansCJKsc-Regular-73" transform="translate(607.999878 0)"/>
    </g>
   </g>
   <g id="text_21">
    <!-- - interaction steps -->
    <g style="fill: #475569" transform="translate(510.861656 141.275245) scale(0.09 -0.09)">
     <use xlink:href="#NotoSansCJKsc-Regular-2d"/>
     <use xlink:href="#NotoSansCJKsc-Regular-20" transform="translate(34.699997 0)"/>
     <use xlink:href="#NotoSansCJKsc-Regular-69" transform="translate(57.099991 0)"/>
     <use xlink:href="#NotoSansCJKsc-Regular-6e" transform="translate(84.599976 0)"/>
     <use xlink:href="#NotoSansCJKsc-Regular-74" transform="translate(145.59996 0)"/>
     <use xlink:href="#NotoSansCJKsc-Regular-65" transform="translate(183.299957 0)"/>
     <use xlink:href="#NotoSansCJKsc-Regular-72" transform="translate(238.699951 0)"/>
     <use xlink:href="#NotoSansCJKsc-Regular-61" transform="translate(277.499939 0)"/>
     <use xlink:href="#NotoSansCJKsc-Regular-63" transform="translate(333.799927 0)"/>
     <use xlink:href="#NotoSansCJKsc-Regular-74" transform="translate(384.799911 0)"/>
     <use xlink:href="#NotoSansCJKsc-Regular-69" transform="translate(422.499908 0)"/>
     <use xlink:href="#NotoSansCJKsc-Regular-6f" transform="translate(449.999893 0)"/>
     <use xlink:href="#NotoSansCJKsc-Regular-6e" transform="translate(510.599884 0)"/>
     <use xlink:href="#NotoSansCJKsc-Regular-20" transform="translate(571.599869 0)"/>
     <use xlink:href="#NotoSansCJKsc-Regular-73" transform="translate(593.999863 0)"/>
     <use xlink:href="#NotoSansCJKsc-Regular-74" transform="translate(640.79985 0)"/>
     <use xlink:href="#NotoSansCJKsc-Regular-65" transform="translate(678.499847 0)"/>
     <use xlink:href="#NotoSansCJKsc-Regular-70" transform="translate(733.899841 0)"/>
     <use xlink:href="#NotoSansCJKsc-Regular-73" transform="translate(795.899826 0)"/>
    </g>
   </g>
   <g id="text_22">
    <!-- Extends RAG from human documents to agent trajectories — heterogeneous agents reuse each other's experience, no joint training. -->
    <g style="fill: #64748b" transform="translate(40.429688 249.93792) scale(0.09 -0.09)">
     <defs>
      <path id="NotoSansCJKsc-Regular-45" d="M 646 0 
L 3418 0 
L 3418 506 
L 1235 506 
L 1235 2214 
L 3014 2214 
L 3014 2720 
L 1235 2720 
L 1235 4192 
L 3347 4192 
L 3347 4691 
L 646 4691 
L 646 0 
z
" transform="scale(0.015625)"/>
      <path id="NotoSansCJKsc-Regular-47" d="M 2490 -83 
C 3117 -83 3635 147 3936 461 
L 3936 2432 
L 2394 2432 
L 2394 1939 
L 3392 1939 
L 3392 710 
C 3206 538 2880 435 2547 435 
C 1542 435 979 1178 979 2362 
C 979 3533 1594 4256 2541 4256 
C 3008 4256 3315 4058 3552 3814 
L 3872 4198 
C 3603 4480 3174 4774 2522 4774 
C 1280 4774 371 3859 371 2342 
C 371 819 1254 -83 2490 -83 
z
" transform="scale(0.015625)"/>
      <path id="NotoSansCJKsc-Regular-2014" d="M 294 1600 
L 5421 1600 
L 5421 1997 
L 294 1997 
L 294 1600 
z
" transform="scale(0.015625)"/>
      <path id="NotoSansCJKsc-Regular-2c" d="M 480 -1216 
C 1056 -973 1414 -493 1414 122 
C 1414 550 1229 806 922 806 
C 685 806 480 653 480 397 
C 480 141 678 -13 909 -13 
L 979 -6 
C 973 -390 736 -698 339 -870 
L 480 -1216 
z
" transform="scale(0.015625)"/>
      <path id="NotoSansCJKsc-Regular-2e" d="M 890 -83 
C 1120 -83 1312 96 1312 358 
C 1312 627 1120 806 890 806 
C 653 806 467 627 467 358 
C 467 96 653 -83 890 -83 
z
" transform="scale(0.015625)"/>
     </defs>
     <use xlink:href="#NotoSansCJKsc-Regular-45"/>
     <use xlink:href="#NotoSansCJKsc-Regular-78" transform="translate(58.899994 0)"/>
     <use xlink:href="#NotoSansCJKsc-Regular-74" transform="translate(108.699982 0)"/>
     <use xlink:href="#NotoSansCJKsc-Regular-65" transform="translate(146.399979 0)"/>
     <use xlink:href="#NotoSansCJKsc-Regular-6e" transform="translate(201.799973 0)"/>
     <use xlink:href="#NotoSansCJKsc-Regular-64" transform="translate(262.799957 0)"/>
     <use xlink:href="#NotoSansCJKsc-Regular-73" transform="translate(324.799942 0)"/>
     <use xlink:href="#NotoSansCJKsc-Regular-20" transform="translate(371.59993 0)"/>
     <use xlink:href="#NotoSansCJKsc-Regular-52" transform="translate(393.999924 0)"/>
     <use xlink:href="#NotoSansCJKsc-Regular-41" transform="translate(457.499908 0)"/>
     <use xlink:href="#NotoSansCJKsc-Regular-47" transform="translate(518.299896 0)"/>
     <use xlink:href="#NotoSansCJKsc-Regular-20" transform="translate(587.19989 0)"/>
     <use xlink:href="#NotoSansCJKsc-Regular-66" transform="translate(609.599884 0)"/>
     <use xlink:href="#NotoSansCJKsc-Regular-72" transform="translate(642.099869 0)"/>
     <use xlink:href="#NotoSansCJKsc-Regular-6f" transform="translate(680.899857 0)"/>
     <use xlink:href="#NotoSansCJKsc-Regular-6d" transform="translate(741.499847 0)"/>
     <use xlink:href="#NotoSansCJKsc-Regular-20" transform="translate(834.099838 0)"/>
     <use xlink:href="#NotoSansCJKsc-Regular-68" transform="translate(856.499832 0)"/>
     <use xlink:href="#NotoSansCJKsc-Regular-75" transform="translate(917.199829 0)"/>
     <use xlink:href="#NotoSansCJKsc-Regular-6d" transform="translate(977.899826 0)"/>
     <use xlink:href="#NotoSansCJKsc-Regular-61" transform="translate(1070.499817 0)"/>
     <use xlink:href="#NotoSansCJKsc-Regular-6e" transform="translate(1126.799805 0)"/>
     <use xlink:href="#NotoSansCJKsc-Regular-20" transform="translate(1187.799789 0)"/>
     <use xlink:href="#NotoSansCJKsc-Regular-64" transform="translate(1210.199783 0)"/>
     <use xlink:href="#NotoSansCJKsc-Regular-6f" transform="translate(1272.199768 0)"/>
     <use xlink:href="#NotoSansCJKsc-Regular-63" transform="translate(1332.799759 0)"/>
     <use xlink:href="#NotoSansCJKsc-Regular-75" transform="translate(1383.799744 0)"/>
     <use xlink:href="#NotoSansCJKsc-Regular-6d" transform="translate(1444.499741 0)"/>
     <use xlink:href="#NotoSansCJKsc-Regular-65" transform="translate(1537.099731 0)"/>
     <use xlink:href="#NotoSansCJKsc-Regular-6e" transform="translate(1592.499725 0)"/>
     <use xlink:href="#NotoSansCJKsc-Regular-74" transform="translate(1653.49971 0)"/>
     <use xlink:href="#NotoSansCJKsc-Regular-73" transform="translate(1691.199707 0)"/>
     <use xlink:href="#NotoSansCJKsc-Regular-20" transform="translate(1737.999695 0)"/>
     <use xlink:href="#NotoSansCJKsc-Regular-74" transform="translate(1760.399689 0)"/>
     <use xlink:href="#NotoSansCJKsc-Regular-6f" transform="translate(1798.099686 0)"/>
     <use xlink:href="#NotoSansCJKsc-Regular-20" transform="translate(1858.699677 0)"/>
     <use xlink:href="#NotoSansCJKsc-Regular-61" transform="translate(1881.09967 0)"/>
     <use xlink:href="#NotoSansCJKsc-Regular-67" transform="translate(1937.399658 0)"/>
     <use xlink:href="#NotoSansCJKsc-Regular-65" transform="translate(1993.799652 0)"/>
     <use xlink:href="#NotoSansCJKsc-Regular-6e" transform="translate(2049.199646 0)"/>
     <use xlink:href="#NotoSansCJKsc-Regular-74" transform="translate(2110.199631 0)"/>
     <use xlink:href="#NotoSansCJKsc-Regular-20" transform="translate(2147.899628 0)"/>
     <use xlink:href="#NotoSansCJKsc-Regular-74" transform="translate(2170.299622 0)"/>
     <use xlink:href="#NotoSansCJKsc-Regular-72" transform="translate(2207.999619 0)"/>
     <use xlink:href="#NotoSansCJKsc-Regular-61" transform="translate(2246.799606 0)"/>
     <use xlink:href="#NotoSansCJKsc-Regular-6a" transform="translate(2303.099594 0)"/>
     <use xlink:href="#NotoSansCJKsc-Regular-65" transform="translate(2330.599579 0)"/>
     <use xlink:href="#NotoSansCJKsc-Regular-63" transform="translate(2385.999573 0)"/>
     <use xlink:href="#NotoSansCJKsc-Regular-74" transform="translate(2436.999557 0)"/>
     <use xlink:href="#NotoSansCJKsc-Regular-6f" transform="translate(2474.699554 0)"/>
     <use xlink:href="#NotoSansCJKsc-Regular-72" transform="translate(2535.299545 0)"/>
     <use xlink:href="#NotoSansCJKsc-Regular-69" transform="translate(2574.099533 0)"/>
     <use xlink:href="#NotoSansCJKsc-Regular-65" transform="translate(2601.599518 0)"/>
     <use xlink:href="#NotoSansCJKsc-Regular-73" transform="translate(2656.999512 0)"/>
     <use xlink:href="#NotoSansCJKsc-Regular-20" transform="translate(2703.7995 0)"/>
     <use xlink:href="#NotoSansCJKsc-Regular-2014" transform="translate(2726.199493 0)"/>
     <use xlink:href="#NotoSansCJKsc-Regular-20" transform="translate(2815.599487 0)"/>
     <use xlink:href="#NotoSansCJKsc-Regular-68" transform="translate(2837.999481 0)"/>
     <use xlink:href="#NotoSansCJKsc-Regular-65" transform="translate(2898.699478 0)"/>
     <use xlink:href="#NotoSansCJKsc-Regular-74" transform="translate(2954.099472 0)"/>
     <use xlink:href="#NotoSansCJKsc-Regular-65" transform="translate(2991.799469 0)"/>
     <use xlink:href="#NotoSansCJKsc-Regular-72" transform="translate(3047.199463 0)"/>
     <use xlink:href="#NotoSansCJKsc-Regular-6f" transform="translate(3085.999451 0)"/>
     <use xlink:href="#NotoSansCJKsc-Regular-67" transform="translate(3146.599442 0)"/>
     <use xlink:href="#NotoSansCJKsc-Regular-65" transform="translate(3202.999435 0)"/>
     <use xlink:href="#NotoSansCJKsc-Regular-6e" transform="translate(3258.399429 0)"/>
     <use xlink:href="#NotoSansCJKsc-Regular-65" transform="translate(3319.399414 0)"/>
     <use xlink:href="#NotoSansCJKsc-Regular-6f" transform="translate(3374.799408 0)"/>
     <use xlink:href="#NotoSansCJKsc-Regular-75" transform="translate(3435.399399 0)"/>
     <use xlink:href="#NotoSansCJKsc-Regular-73" transform="translate(3496.099396 0)"/>
     <use xlink:href="#NotoSansCJKsc-Regular-20" transform="translate(3542.899384 0)"/>
     <use xlink:href="#NotoSansCJKsc-Regular-61" transform="translate(3565.299377 0)"/>
     <use xlink:href="#NotoSansCJKsc-Regular-67" transform="translate(3621.599365 0)"/>
     <use xlink:href="#NotoSansCJKsc-Regular-65" transform="translate(3677.999359 0)"/>
     <use xlink:href="#NotoSansCJKsc-Regular-6e" transform="translate(3733.399353 0)"/>
     <use xlink:href="#NotoSansCJKsc-Regular-74" transform="translate(3794.399338 0)"/>
     <use xlink:href="#NotoSansCJKsc-Regular-73" transform="translate(3832.099335 0)"/>
     <use xlink:href="#NotoSansCJKsc-Regular-20" transform="translate(3878.899323 0)"/>
     <use xlink:href="#NotoSansCJKsc-Regular-72" transform="translate(3901.299316 0)"/>
     <use xlink:href="#NotoSansCJKsc-Regular-65" transform="translate(3940.099304 0)"/>
     <use xlink:href="#NotoSansCJKsc-Regular-75" transform="translate(3995.499298 0)"/>
     <use xlink:href="#NotoSansCJKsc-Regular-73" transform="translate(4056.199295 0)"/>
     <use xlink:href="#NotoSansCJKsc-Regular-65" transform="translate(4102.999283 0)"/>
     <use xlink:href="#NotoSansCJKsc-Regular-20" transform="translate(4158.399277 0)"/>
     <use xlink:href="#NotoSansCJKsc-Regular-65" transform="translate(4180.799271 0)"/>
     <use xlink:href="#NotoSansCJKsc-Regular-61" transform="translate(4236.199265 0)"/>
     <use xlink:href="#NotoSansCJKsc-Regular-63" transform="translate(4292.499252 0)"/>
     <use xlink:href="#NotoSansCJKsc-Regular-68" transform="translate(4343.499237 0)"/>
     <use xlink:href="#NotoSansCJKsc-Regular-20" transform="translate(4404.199234 0)"/>
     <use xlink:href="#NotoSansCJKsc-Regular-6f" transform="translate(4426.599228 0)"/>
     <use xlink:href="#NotoSansCJKsc-Regular-74" transform="translate(4487.199219 0)"/>
     <use xlink:href="#NotoSansCJKsc-Regular-68" transform="translate(4524.899216 0)"/>
     <use xlink:href="#NotoSansCJKsc-Regular-65" transform="translate(4585.599213 0)"/>
     <use xlink:href="#NotoSansCJKsc-Regular-72" transform="translate(4640.999207 0)"/>
     <use xlink:href="#NotoSansCJKsc-Regular-27" transform="translate(4679.799194 0)"/>
     <use xlink:href="#NotoSansCJKsc-Regular-73" transform="translate(4707.599182 0)"/>
     <use xlink:href="#NotoSansCJKsc-Regular-20" transform="translate(4754.39917 0)"/>
     <use xlink:href="#NotoSansCJKsc-Regular-65" transform="translate(4776.799164 0)"/>
     <use xlink:href="#NotoSansCJKsc-Regular-78" transform="translate(4832.199158 0)"/>
     <use xlink:href="#NotoSansCJKsc-Regular-70" transform="translate(4881.999146 0)"/>
     <use xlink:href="#NotoSansCJKsc-Regular-65" transform="translate(4943.99913 0)"/>
     <use xlink:href="#NotoSansCJKsc-Regular-72" transform="translate(4999.399124 0)"/>
     <use xlink:href="#NotoSansCJKsc-Regular-69" transform="translate(5038.199112 0)"/>
     <use xlink:href="#NotoSansCJKsc-Regular-65" transform="translate(5065.699097 0)"/>
     <use xlink:href="#NotoSansCJKsc-Regular-6e" transform="translate(5121.099091 0)"/>
     <use xlink:href="#NotoSansCJKsc-Regular-63" transform="translate(5182.099075 0)"/>
     <use xlink:href="#NotoSansCJKsc-Regular-65" transform="translate(5233.09906 0)"/>
     <use xlink:href="#NotoSansCJKsc-Regular-2c" transform="translate(5288.499054 0)"/>
     <use xlink:href="#NotoSansCJKsc-Regular-20" transform="translate(5316.299042 0)"/>
     <use xlink:href="#NotoSansCJKsc-Regular-6e" transform="translate(5338.699036 0)"/>
     <use xlink:href="#NotoSansCJKsc-Regular-6f" transform="translate(5399.69902 0)"/>
     <use xlink:href="#NotoSansCJKsc-Regular-20" transform="translate(5460.299011 0)"/>
     <use xlink:href="#NotoSansCJKsc-Regular-6a" transform="translate(5482.699005 0)"/>
     <use xlink:href="#NotoSansCJKsc-Regular-6f" transform="translate(5510.19899 0)"/>
     <use xlink:href="#NotoSansCJKsc-Regular-69" transform="translate(5570.798981 0)"/>
     <use xlink:href="#NotoSansCJKsc-Regular-6e" transform="translate(5598.298965 0)"/>
     <use xlink:href="#NotoSansCJKsc-Regular-74" transform="translate(5659.29895 0)"/>
     <use xlink:href="#NotoSansCJKsc-Regular-20" transform="translate(5696.998947 0)"/>
     <use xlink:href="#NotoSansCJKsc-Regular-74" transform="translate(5719.398941 0)"/>
     <use xlink:href="#NotoSansCJKsc-Regular-72" transform="translate(5757.098938 0)"/>
     <use xlink:href="#NotoSansCJKsc-Regular-61" transform="translate(5795.898926 0)"/>
     <use xlink:href="#NotoSansCJKsc-Regular-69" transform="translate(5852.198914 0)"/>
     <use xlink:href="#NotoSansCJKsc-Regular-6e" transform="translate(5879.698898 0)"/>
     <use xlink:href="#NotoSansCJKsc-Regular-69" transform="translate(5940.698883 0)"/>
     <use xlink:href="#NotoSansCJKsc-Regular-6e" transform="translate(5968.198868 0)"/>
     <use xlink:href="#NotoSansCJKsc-Regular-67" transform="translate(6029.198853 0)"/>
     <use xlink:href="#NotoSansCJKsc-Regular-2e" transform="translate(6085.598846 0)"/>
    </g>
   </g>
   <g id="patch_11">
    <path d="M 16.0056 26.49168 
L 77.3856 26.49168 
L 77.3856 15.0156 
L 16.0056 15.0156 
z
" clip-path="url(#p07c059073f)" style="fill: #2563eb; stroke: #2563eb; stroke-linejoin: miter"/>
   </g>
  </g>
 </g>
 <defs>
  <clipPath id="p07c059073f">
   <rect x="8.64" y="8.64" width="613.8" height="255.024"/>
  </clipPath>
 </defs>
</svg>
