<?xml version="1.0" encoding="utf-8" standalone="no"?>
<!DOCTYPE svg PUBLIC "-//W3C//DTD SVG 1.1//EN"
  "http://www.w3.org/Graphics/SVG/1.1/DTD/svg11.dtd">
<svg xmlns:xlink="http://www.w3.org/1999/xlink" width="631.08pt" height="272.304pt" viewBox="0 0 631.08 272.304" xmlns="http://www.w3.org/2000/svg" version="1.1">
 <metadata>
  <rdf:RDF xmlns:dc="http://purl.org/dc/elements/1.1/" xmlns:cc="http://creativecommons.org/ns#" xmlns:rdf="http://www.w3.org/1999/02/22-rdf-syntax-ns#">
   <cc:Work>
    <dc:type rdf:resource="http://purl.org/dc/dcmitype/StillImage"/>
    <dc:date>2026-06-25T19:42:37.765325</dc:date>
    <dc:format>image/svg+xml</dc:format>
    <dc:creator>
     <cc:Agent>
      <dc:title>Matplotlib v3.10.5, https://matplotlib.org/</dc:title>
     </cc:Agent>
    </dc:creator>
   </cc:Work>
  </rdf:RDF>
 </metadata>
 <defs>
  <style type="text/css">*{stroke-linejoin: round; stroke-linecap: butt}</style>
 </defs>
 <g id="figure_1">
  <g id="patch_1">
   <path d="M 0 272.304 
L 631.08 272.304 
L 631.08 0 
L 0 0 
z
" style="fill: #ffffff"/>
  </g>
  <g id="axes_1">
   <g id="patch_2">
    <path d="M 140.768392 118.30032 
Q 148.894279 118.30032 155.093236 118.30032 
" clip-path="url(#p84971eb002)" style="fill: none; stroke: #94a3b8; stroke-width: 1.9; stroke-linecap: round"/>
    <path d="M 149.093236 114.90032 
L 155.093236 118.30032 
L 149.093236 121.70032 
" clip-path="url(#p84971eb002)" style="fill: none; stroke: #94a3b8; stroke-width: 1.9; stroke-linecap: round"/>
   </g>
   <g id="patch_3">
    <path d="M 283.281858 116.97757 
Q 291.909359 109.373899 299.091243 103.044293 
" clip-path="url(#p84971eb002)" style="fill: none; stroke: #94a3b8; stroke-width: 1.9; stroke-linecap: round"/>
    <path d="M 292.341886 104.460689 
L 299.091243 103.044293 
L 296.837976 109.562176 
" clip-path="url(#p84971eb002)" style="fill: none; stroke: #94a3b8; stroke-width: 1.9; stroke-linecap: round"/>
   </g>
   <g id="patch_4">
    <path d="M 282.588298 120.129881 
Q 291.90817 141.251278 300.450143 160.609744 
" clip-path="url(#p84971eb002)" style="fill: none; stroke: #94a3b8; stroke-width: 1.9; stroke-linecap: round"/>
    <path d="M 301.138585 153.747816 
L 300.450143 160.609744 
L 294.917319 156.492966 
" clip-path="url(#p84971eb002)" style="fill: none; stroke: #94a3b8; stroke-width: 1.9; stroke-linecap: round"/>
   </g>
   <g id="patch_5">
    <path d="M 439.071221 118.30032 
Q 448.427171 118.30032 455.856191 118.30032 
" clip-path="url(#p84971eb002)" style="fill: none; stroke: #94a3b8; stroke-width: 1.9; stroke-linecap: round"/>
    <path d="M 449.856191 114.90032 
L 455.856191 118.30032 
L 449.856191 121.70032 
" clip-path="url(#p84971eb002)" style="fill: none; stroke: #94a3b8; stroke-width: 1.9; stroke-linecap: round"/>
   </g>
   <g id="patch_6">
    <path d="M 20.916 159.614208 
L 133.8552 159.614208 
Q 146.1312 159.614208 146.1312 154.513728 
L 146.1312 82.086912 
Q 146.1312 76.986432 133.8552 76.986432 
L 20.916 76.986432 
Q 8.64 76.986432 8.64 82.086912 
L 8.64 154.513728 
Q 8.64 159.614208 20.916 159.614208 
z
" clip-path="url(#p84971eb002)" style="fill: #ecfeff; stroke: #a5f3fc; stroke-width: 1.4; stroke-linejoin: miter"/>
   </g>
   <g id="patch_7">
    <path d="M 163.9314 159.614208 
L 276.8706 159.614208 
Q 289.1466 159.614208 289.1466 154.513728 
L 289.1466 82.086912 
Q 289.1466 76.986432 276.8706 76.986432 
L 163.9314 76.986432 
Q 151.6554 76.986432 151.6554 82.086912 
L 151.6554 154.513728 
Q 151.6554 159.614208 163.9314 159.614208 
z
" clip-path="url(#p84971eb002)" style="fill: #f5f3ff; stroke: #ddd6fe; stroke-width: 1.4; stroke-linejoin: miter"/>
   </g>
   <g id="patch_8">
    <path d="M 306.9468 126.461088 
L 432.162 126.461088 
Q 444.438 126.461088 444.438 121.360608 
L 444.438 79.536672 
Q 444.438 74.436192 432.162 74.436192 
L 306.9468 74.436192 
Q 294.6708 74.436192 294.6708 79.536672 
L 294.6708 121.360608 
Q 294.6708 126.461088 306.9468 126.461088 
z
" clip-path="url(#p84971eb002)" style="fill: #eff6ff; stroke: #bfdbfe; stroke-width: 1.4; stroke-linejoin: miter"/>
   </g>
   <g id="patch_9">
    <path d="M 306.9468 190.217088 
L 432.162 190.217088 
Q 444.438 190.217088 444.438 185.116608 
L 444.438 143.292672 
Q 444.438 138.192192 432.162 138.192192 
L 306.9468 138.192192 
Q 294.6708 138.192192 294.6708 143.292672 
L 294.6708 185.116608 
Q 294.6708 190.217088 306.9468 190.217088 
z
" clip-path="url(#p84971eb002)" style="fill: #fffbeb; stroke: #fde68a; stroke-width: 1.4; stroke-linejoin: miter"/>
   </g>
   <g id="patch_10">
    <path d="M 464.6934 159.614208 
L 608.3226 159.614208 
Q 620.5986 159.614208 620.5986 154.513728 
L 620.5986 82.086912 
Q 620.5986 76.986432 608.3226 76.986432 
L 464.6934 76.986432 
Q 452.4174 76.986432 452.4174 82.086912 
L 452.4174 154.513728 
Q 452.4174 159.614208 464.6934 159.614208 
z
" clip-path="url(#p84971eb002)" style="fill: #ecfdf5; stroke: #bbf7d0; stroke-width: 1.4; stroke-linejoin: miter"/>
   </g>
   <g id="text_1">
    <!-- Beyond Item IDs — Semantic-Native Long Sequence Rec -->
    <g style="fill: #0f172a" transform="translate(16.0056 45.436811) scale(0.155 -0.155)">
     <defs>
      <path id="NotoSansCJKsc-Bold-42" d="M 582 0 
L 2272 0 
C 3315 0 4102 442 4102 1395 
C 4102 2029 3731 2394 3219 2515 
L 3219 2541 
C 3622 2688 3866 3130 3866 3571 
C 3866 4454 3123 4742 2150 4742 
L 582 4742 
L 582 0 
z
M 1530 2810 
L 1530 4013 
L 2093 4013 
C 2662 4013 2944 3846 2944 3430 
C 2944 3053 2688 2810 2086 2810 
L 1530 2810 
z
M 1530 730 
L 1530 2112 
L 2189 2112 
C 2842 2112 3181 1914 3181 1453 
C 3181 960 2829 730 2189 730 
L 1530 730 
z
" transform="scale(0.015625)"/>
      <path id="NotoSansCJKsc-Bold-65" d="M 2067 -90 
C 2509 -90 2963 64 3315 307 
L 2995 883 
C 2733 723 2483 640 2195 640 
C 1658 640 1274 941 1197 1523 
L 3405 1523 
C 3430 1613 3450 1786 3450 1958 
C 3450 2957 2938 3674 1952 3674 
C 1101 3674 282 2950 282 1792 
C 282 608 1062 -90 2067 -90 
z
M 1178 2157 
C 1254 2675 1587 2944 1965 2944 
C 2432 2944 2643 2637 2643 2157 
L 1178 2157 
z
" transform="scale(0.015625)"/>
      <path id="NotoSansCJKsc-Bold-79" d="M 819 -1434 
C 1619 -1434 2003 -954 2317 -109 
L 3590 3584 
L 2688 3584 
L 2195 1920 
C 2106 1587 2016 1242 1939 909 
L 1907 909 
C 1805 1254 1715 1600 1606 1920 
L 1037 3584 
L 90 3584 
L 1485 70 
L 1421 -147 
C 1318 -461 1114 -691 749 -691 
C 666 -691 563 -666 499 -646 
L 326 -1370 
C 467 -1408 608 -1434 819 -1434 
z
" transform="scale(0.015625)"/>
      <path id="NotoSansCJKsc-Bold-6f" d="M 2003 -90 
C 2899 -90 3725 602 3725 1792 
C 3725 2982 2899 3674 2003 3674 
C 1101 3674 282 2982 282 1792 
C 282 602 1101 -90 2003 -90 
z
M 2003 678 
C 1510 678 1242 1114 1242 1792 
C 1242 2464 1510 2906 2003 2906 
C 2490 2906 2765 2464 2765 1792 
C 2765 1114 2490 678 2003 678 
z
" transform="scale(0.015625)"/>
      <path id="NotoSansCJKsc-Bold-6e" d="M 506 0 
L 1446 0 
L 1446 2464 
C 1709 2726 1901 2867 2189 2867 
C 2541 2867 2694 2675 2694 2118 
L 2694 0 
L 3635 0 
L 3635 2234 
C 3635 3136 3302 3674 2528 3674 
C 2042 3674 1677 3418 1363 3110 
L 1344 3110 
L 1274 3584 
L 506 3584 
L 506 0 
z
" transform="scale(0.015625)"/>
      <path id="NotoSansCJKsc-Bold-64" d="M 1766 -90 
C 2138 -90 2496 109 2758 371 
L 2784 371 
L 2854 0 
L 3622 0 
L 3622 5107 
L 2682 5107 
L 2682 3846 
L 2714 3283 
C 2458 3520 2208 3674 1805 3674 
C 1037 3674 301 2957 301 1792 
C 301 614 870 -90 1766 -90 
z
M 2010 685 
C 1536 685 1267 1056 1267 1805 
C 1267 2515 1606 2899 2010 2899 
C 2240 2899 2464 2829 2682 2630 
L 2682 1056 
C 2477 787 2259 685 2010 685 
z
" transform="scale(0.015625)"/>
      <path id="NotoSansCJKsc-Bold-20" transform="scale(0.015625)"/>
      <path id="NotoSansCJKsc-Bold-49" d="M 582 0 
L 1530 0 
L 1530 4742 
L 582 4742 
L 582 0 
z
" transform="scale(0.015625)"/>
      <path id="NotoSansCJKsc-Bold-74" d="M 1818 -90 
C 2131 -90 2381 -13 2579 45 
L 2419 730 
C 2323 691 2182 653 2067 653 
C 1747 653 1574 845 1574 1254 
L 1574 2842 
L 2464 2842 
L 2464 3584 
L 1574 3584 
L 1574 4550 
L 800 4550 
L 691 3584 
L 134 3539 
L 134 2842 
L 640 2842 
L 640 1248 
C 640 454 966 -90 1818 -90 
z
" transform="scale(0.015625)"/>
      <path id="NotoSansCJKsc-Bold-6d" d="M 506 0 
L 1446 0 
L 1446 2464 
C 1696 2739 1926 2867 2131 2867 
C 2477 2867 2637 2675 2637 2118 
L 2637 0 
L 3571 0 
L 3571 2464 
C 3827 2739 4058 2867 4262 2867 
C 4602 2867 4762 2675 4762 2118 
L 4762 0 
L 5696 0 
L 5696 2234 
C 5696 3136 5350 3674 4589 3674 
C 4128 3674 3776 3392 3443 3046 
C 3277 3443 2976 3674 2464 3674 
C 1997 3674 1664 3418 1363 3104 
L 1344 3104 
L 1274 3584 
L 506 3584 
L 506 0 
z
" transform="scale(0.015625)"/>
      <path id="NotoSansCJKsc-Bold-44" d="M 582 0 
L 1933 0 
C 3334 0 4224 794 4224 2394 
C 4224 3987 3334 4742 1882 4742 
L 582 4742 
L 582 0 
z
M 1530 768 
L 1530 3981 
L 1818 3981 
C 2707 3981 3258 3546 3258 2394 
C 3258 1242 2707 768 1818 768 
L 1530 768 
z
" transform="scale(0.015625)"/>
      <path id="NotoSansCJKsc-Bold-73" d="M 1530 -90 
C 2458 -90 2957 410 2957 1043 
C 2957 1702 2432 1946 1958 2125 
C 1574 2266 1248 2362 1248 2624 
C 1248 2829 1402 2970 1728 2970 
C 1990 2970 2240 2842 2496 2662 
L 2918 3232 
C 2624 3462 2221 3674 1702 3674 
C 883 3674 365 3219 365 2579 
C 365 1978 870 1702 1325 1530 
C 1702 1382 2074 1261 2074 992 
C 2074 768 1914 614 1555 614 
C 1216 614 915 762 595 1005 
L 166 410 
C 525 115 1050 -90 1530 -90 
z
" transform="scale(0.015625)"/>
      <path id="NotoSansCJKsc-Bold-2014" d="M 314 1536 
L 5498 1536 
L 5498 2138 
L 314 2138 
L 314 1536 
z
" transform="scale(0.015625)"/>
      <path id="NotoSansCJKsc-Bold-53" d="M 1997 -90 
C 3091 -90 3738 570 3738 1344 
C 3738 2029 3360 2400 2784 2637 
L 2163 2886 
C 1760 3053 1427 3174 1427 3514 
C 1427 3827 1683 4013 2099 4013 
C 2496 4013 2810 3866 3110 3622 
L 3590 4211 
C 3206 4602 2656 4826 2099 4826 
C 1146 4826 461 4224 461 3456 
C 461 2765 947 2381 1427 2189 
L 2054 1914 
C 2477 1734 2771 1626 2771 1274 
C 2771 941 2509 730 2016 730 
C 1600 730 1146 941 813 1254 
L 269 602 
C 730 154 1363 -90 1997 -90 
z
" transform="scale(0.015625)"/>
      <path id="NotoSansCJKsc-Bold-61" d="M 1382 -90 
C 1798 -90 2157 109 2464 384 
L 2496 384 
L 2560 0 
L 3328 0 
L 3328 2093 
C 3328 3130 2861 3674 1952 3674 
C 1389 3674 877 3456 461 3200 
L 794 2573 
C 1126 2771 1446 2918 1779 2918 
C 2221 2918 2374 2650 2387 2298 
C 947 2144 326 1741 326 979 
C 326 365 742 -90 1382 -90 
z
M 1696 646 
C 1421 646 1222 768 1222 1050 
C 1222 1376 1510 1613 2387 1715 
L 2387 998 
C 2163 774 1965 646 1696 646 
z
" transform="scale(0.015625)"/>
      <path id="NotoSansCJKsc-Bold-69" d="M 506 0 
L 1446 0 
L 1446 3584 
L 506 3584 
L 506 0 
z
M 979 4166 
C 1299 4166 1523 4365 1523 4678 
C 1523 4986 1299 5190 979 5190 
C 646 5190 435 4986 435 4678 
C 435 4365 646 4166 979 4166 
z
" transform="scale(0.015625)"/>
      <path id="NotoSansCJKsc-Bold-63" d="M 2029 -90 
C 2426 -90 2861 45 3200 346 
L 2829 966 
C 2630 800 2394 678 2131 678 
C 1613 678 1242 1114 1242 1792 
C 1242 2464 1613 2906 2163 2906 
C 2362 2906 2528 2822 2707 2675 
L 3155 3270 
C 2893 3507 2554 3674 2112 3674 
C 1139 3674 282 2982 282 1792 
C 282 602 1043 -90 2029 -90 
z
" transform="scale(0.015625)"/>
      <path id="NotoSansCJKsc-Bold-2d" d="M 314 1491 
L 2061 1491 
L 2061 2170 
L 314 2170 
L 314 1491 
z
" transform="scale(0.015625)"/>
      <path id="NotoSansCJKsc-Bold-4e" d="M 582 0 
L 1485 0 
L 1485 1901 
C 1485 2445 1402 3040 1363 3552 
L 1395 3552 
L 1875 2534 
L 3238 0 
L 4205 0 
L 4205 4742 
L 3309 4742 
L 3309 2848 
C 3309 2310 3386 1683 3437 1190 
L 3405 1190 
L 2925 2214 
L 1549 4742 
L 582 4742 
L 582 0 
z
" transform="scale(0.015625)"/>
      <path id="NotoSansCJKsc-Bold-76" d="M 1312 0 
L 2400 0 
L 3597 3584 
L 2694 3584 
L 2170 1798 
C 2074 1446 1978 1075 1882 710 
L 1850 710 
C 1747 1075 1658 1446 1555 1798 
L 1037 3584 
L 90 3584 
L 1312 0 
z
" transform="scale(0.015625)"/>
      <path id="NotoSansCJKsc-Bold-4c" d="M 582 0 
L 3456 0 
L 3456 794 
L 1530 794 
L 1530 4742 
L 582 4742 
L 582 0 
z
" transform="scale(0.015625)"/>
      <path id="NotoSansCJKsc-Bold-67" d="M 1766 -1555 
C 2963 -1555 3718 -1005 3718 -282 
C 3718 346 3245 614 2381 614 
L 1766 614 
C 1350 614 1203 717 1203 902 
C 1203 1056 1267 1133 1357 1216 
C 1517 1158 1683 1133 1818 1133 
C 2592 1133 3206 1536 3206 2349 
C 3206 2573 3136 2771 3046 2893 
L 3654 2893 
L 3654 3584 
L 2368 3584 
C 2214 3635 2029 3674 1818 3674 
C 1062 3674 378 3219 378 2381 
C 378 1958 608 1619 858 1440 
L 858 1414 
C 640 1261 461 1011 461 749 
C 461 448 595 262 787 141 
L 787 109 
C 448 -77 275 -333 275 -634 
C 275 -1267 922 -1555 1766 -1555 
z
M 1818 1715 
C 1510 1715 1261 1952 1261 2381 
C 1261 2797 1504 3027 1818 3027 
C 2138 3027 2387 2797 2387 2381 
C 2387 1952 2138 1715 1818 1715 
z
M 1907 -954 
C 1389 -954 1056 -787 1056 -493 
C 1056 -339 1126 -198 1286 -70 
C 1421 -102 1568 -115 1779 -115 
L 2221 -115 
C 2605 -115 2816 -186 2816 -442 
C 2816 -717 2451 -954 1907 -954 
z
" transform="scale(0.015625)"/>
      <path id="NotoSansCJKsc-Bold-71" d="M 2682 -1376 
L 3622 -1376 
L 3622 3584 
L 2886 3584 
L 2803 3232 
L 2778 3232 
C 2490 3533 2202 3674 1805 3674 
C 1037 3674 301 2957 301 1792 
C 301 614 870 -90 1766 -90 
C 2112 -90 2464 90 2714 339 
L 2682 -237 
L 2682 -1376 
z
M 2010 685 
C 1536 685 1267 1056 1267 1805 
C 1267 2515 1606 2899 2010 2899 
C 2240 2899 2464 2829 2682 2630 
L 2682 1056 
C 2477 787 2259 685 2010 685 
z
" transform="scale(0.015625)"/>
      <path id="NotoSansCJKsc-Bold-75" d="M 1574 -90 
C 2067 -90 2406 154 2714 518 
L 2739 518 
L 2810 0 
L 3578 0 
L 3578 3584 
L 2637 3584 
L 2637 1165 
C 2394 845 2202 717 1914 717 
C 1562 717 1402 909 1402 1466 
L 1402 3584 
L 467 3584 
L 467 1350 
C 467 448 800 -90 1574 -90 
z
" transform="scale(0.015625)"/>
      <path id="NotoSansCJKsc-Bold-52" d="M 1530 2541 
L 1530 3987 
L 2144 3987 
C 2752 3987 3085 3814 3085 3302 
C 3085 2797 2752 2541 2144 2541 
L 1530 2541 
z
M 3162 0 
L 4218 0 
L 3110 1939 
C 3654 2150 4013 2592 4013 3302 
C 4013 4390 3226 4742 2227 4742 
L 582 4742 
L 582 0 
L 1530 0 
L 1530 1792 
L 2189 1792 
L 3162 0 
z
" transform="scale(0.015625)"/>
     </defs>
     <use xlink:href="#NotoSansCJKsc-Bold-42"/>
     <use xlink:href="#NotoSansCJKsc-Bold-65" transform="translate(68.099991 0)"/>
     <use xlink:href="#NotoSansCJKsc-Bold-79" transform="translate(126.199982 0)"/>
     <use xlink:href="#NotoSansCJKsc-Bold-6f" transform="translate(183.599976 0)"/>
     <use xlink:href="#NotoSansCJKsc-Bold-6e" transform="translate(246.199966 0)"/>
     <use xlink:href="#NotoSansCJKsc-Bold-64" transform="translate(310.299957 0)"/>
     <use xlink:href="#NotoSansCJKsc-Bold-20" transform="translate(374.699951 0)"/>
     <use xlink:href="#NotoSansCJKsc-Bold-49" transform="translate(397.399948 0)"/>
     <use xlink:href="#NotoSansCJKsc-Bold-74" transform="translate(430.399933 0)"/>
     <use xlink:href="#NotoSansCJKsc-Bold-65" transform="translate(472.499924 0)"/>
     <use xlink:href="#NotoSansCJKsc-Bold-6d" transform="translate(530.599915 0)"/>
     <use xlink:href="#NotoSansCJKsc-Bold-20" transform="translate(626.999908 0)"/>
     <use xlink:href="#NotoSansCJKsc-Bold-49" transform="translate(649.699905 0)"/>
     <use xlink:href="#NotoSansCJKsc-Bold-44" transform="translate(682.69989 0)"/>
     <use xlink:href="#NotoSansCJKsc-Bold-73" transform="translate(754.099884 0)"/>
     <use xlink:href="#NotoSansCJKsc-Bold-20" transform="translate(803.599869 0)"/>
     <use xlink:href="#NotoSansCJKsc-Bold-2014" transform="translate(826.299866 0)"/>
     <use xlink:href="#NotoSansCJKsc-Bold-20" transform="translate(917.099854 0)"/>
     <use xlink:href="#NotoSansCJKsc-Bold-53" transform="translate(939.79985 0)"/>
     <use xlink:href="#NotoSansCJKsc-Bold-65" transform="translate(1002.199844 0)"/>
     <use xlink:href="#NotoSansCJKsc-Bold-6d" transform="translate(1060.299835 0)"/>
     <use xlink:href="#NotoSansCJKsc-Bold-61" transform="translate(1156.699829 0)"/>
     <use xlink:href="#NotoSansCJKsc-Bold-6e" transform="translate(1215.79982 0)"/>
     <use xlink:href="#NotoSansCJKsc-Bold-74" transform="translate(1279.899811 0)"/>
     <use xlink:href="#NotoSansCJKsc-Bold-69" transform="translate(1321.999802 0)"/>
     <use xlink:href="#NotoSansCJKsc-Bold-63" transform="translate(1352.399796 0)"/>
     <use xlink:href="#NotoSansCJKsc-Bold-2d" transform="translate(1405.099792 0)"/>
     <use xlink:href="#NotoSansCJKsc-Bold-4e" transform="translate(1442.099777 0)"/>
     <use xlink:href="#NotoSansCJKsc-Bold-61" transform="translate(1516.999771 0)"/>
     <use xlink:href="#NotoSansCJKsc-Bold-74" transform="translate(1576.099762 0)"/>
     <use xlink:href="#NotoSansCJKsc-Bold-69" transform="translate(1618.199753 0)"/>
     <use xlink:href="#NotoSansCJKsc-Bold-76" transform="translate(1648.599747 0)"/>
     <use xlink:href="#NotoSansCJKsc-Bold-65" transform="translate(1706.199738 0)"/>
     <use xlink:href="#NotoSansCJKsc-Bold-20" transform="translate(1764.299728 0)"/>
     <use xlink:href="#NotoSansCJKsc-Bold-4c" transform="translate(1786.999725 0)"/>
     <use xlink:href="#NotoSansCJKsc-Bold-6f" transform="translate(1844.799713 0)"/>
     <use xlink:href="#NotoSansCJKsc-Bold-6e" transform="translate(1907.399704 0)"/>
     <use xlink:href="#NotoSansCJKsc-Bold-67" transform="translate(1971.499695 0)"/>
     <use xlink:href="#NotoSansCJKsc-Bold-20" transform="translate(2031.199692 0)"/>
     <use xlink:href="#NotoSansCJKsc-Bold-53" transform="translate(2053.899689 0)"/>
     <use xlink:href="#NotoSansCJKsc-Bold-65" transform="translate(2116.299683 0)"/>
     <use xlink:href="#NotoSansCJKsc-Bold-71" transform="translate(2174.399673 0)"/>
     <use xlink:href="#NotoSansCJKsc-Bold-75" transform="translate(2238.799667 0)"/>
     <use xlink:href="#NotoSansCJKsc-Bold-65" transform="translate(2302.499664 0)"/>
     <use xlink:href="#NotoSansCJKsc-Bold-6e" transform="translate(2360.599655 0)"/>
     <use xlink:href="#NotoSansCJKsc-Bold-63" transform="translate(2424.699646 0)"/>
     <use xlink:href="#NotoSansCJKsc-Bold-65" transform="translate(2477.399643 0)"/>
     <use xlink:href="#NotoSansCJKsc-Bold-20" transform="translate(2535.499634 0)"/>
     <use xlink:href="#NotoSansCJKsc-Bold-52" transform="translate(2558.199631 0)"/>
     <use xlink:href="#NotoSansCJKsc-Bold-65" transform="translate(2626.399612 0)"/>
     <use xlink:href="#NotoSansCJKsc-Bold-63" transform="translate(2684.499603 0)"/>
    </g>
   </g>
   <g id="text_2">
    <!-- Semantic IDs (RQ-VAE) + Temporal Folding -&gt; efficient 2000+ sequence modeling -->
    <g style="fill: #64748b" transform="translate(16.0056 54.236052) scale(0.096 -0.096)">
     <defs>
      <path id="NotoSansCJKsc-Regular-53" d="M 1946 -83 
C 2925 -83 3539 506 3539 1248 
C 3539 1946 3117 2266 2573 2502 
L 1907 2790 
C 1542 2944 1126 3117 1126 3578 
C 1126 3994 1472 4256 2003 4256 
C 2438 4256 2784 4090 3072 3821 
L 3379 4198 
C 3053 4538 2560 4774 2003 4774 
C 1152 4774 525 4256 525 3533 
C 525 2848 1043 2515 1478 2330 
L 2150 2035 
C 2598 1837 2938 1683 2938 1197 
C 2938 742 2573 435 1952 435 
C 1466 435 992 666 659 1018 
L 307 608 
C 710 186 1280 -83 1946 -83 
z
" transform="scale(0.015625)"/>
      <path id="NotoSansCJKsc-Regular-65" d="M 1997 -83 
C 2464 -83 2835 70 3136 269 
L 2931 659 
C 2669 486 2400 384 2061 384 
C 1402 384 947 858 909 1600 
L 3251 1600 
C 3264 1690 3277 1805 3277 1933 
C 3277 2925 2778 3565 1888 3565 
C 1094 3565 333 2867 333 1734 
C 333 589 1069 -83 1997 -83 
z
M 902 2016 
C 973 2707 1408 3098 1901 3098 
C 2445 3098 2765 2720 2765 2016 
L 902 2016 
z
" transform="scale(0.015625)"/>
      <path id="NotoSansCJKsc-Regular-6d" d="M 589 0 
L 1178 0 
L 1178 2522 
C 1491 2880 1786 3053 2048 3053 
C 2490 3053 2694 2778 2694 2125 
L 2694 0 
L 3277 0 
L 3277 2522 
C 3603 2880 3885 3053 4154 3053 
C 4595 3053 4800 2778 4800 2125 
L 4800 0 
L 5382 0 
L 5382 2202 
C 5382 3085 5043 3565 4333 3565 
C 3904 3565 3546 3290 3181 2899 
C 3040 3309 2758 3565 2221 3565 
C 1805 3565 1446 3302 1139 2970 
L 1126 2970 
L 1069 3475 
L 589 3475 
L 589 0 
z
" transform="scale(0.015625)"/>
      <path id="NotoSansCJKsc-Regular-61" d="M 1389 -83 
C 1818 -83 2208 141 2541 416 
L 2560 416 
L 2611 0 
L 3091 0 
L 3091 2138 
C 3091 3002 2739 3565 1888 3565 
C 1325 3565 838 3315 525 3110 
L 749 2707 
C 1024 2893 1389 3078 1792 3078 
C 2362 3078 2509 2650 2509 2202 
C 1030 2035 378 1658 378 902 
C 378 275 806 -83 1389 -83 
z
M 1555 390 
C 1210 390 941 544 941 941 
C 941 1389 1338 1677 2509 1811 
L 2509 845 
C 2170 544 1888 390 1555 390 
z
" transform="scale(0.015625)"/>
      <path id="NotoSansCJKsc-Regular-6e" d="M 589 0 
L 1178 0 
L 1178 2522 
C 1523 2874 1766 3053 2125 3053 
C 2586 3053 2784 2778 2784 2125 
L 2784 0 
L 3366 0 
L 3366 2202 
C 3366 3085 3034 3565 2304 3565 
C 1830 3565 1466 3302 1139 2970 
L 1126 2970 
L 1069 3475 
L 589 3475 
L 589 0 
z
" transform="scale(0.015625)"/>
      <path id="NotoSansCJKsc-Regular-74" d="M 1677 -83 
C 1894 -83 2125 -19 2323 45 
L 2208 486 
C 2093 435 1939 390 1811 390 
C 1408 390 1274 634 1274 1056 
L 1274 3002 
L 2221 3002 
L 2221 3475 
L 1274 3475 
L 1274 4454 
L 787 4454 
L 723 3475 
L 173 3443 
L 173 3002 
L 691 3002 
L 691 1075 
C 691 378 941 -83 1677 -83 
z
" transform="scale(0.015625)"/>
      <path id="NotoSansCJKsc-Regular-69" d="M 589 0 
L 1178 0 
L 1178 3475 
L 589 3475 
L 589 0 
z
M 883 4192 
C 1114 4192 1274 4346 1274 4582 
C 1274 4806 1114 4960 883 4960 
C 653 4960 499 4806 499 4582 
C 499 4346 653 4192 883 4192 
z
" transform="scale(0.015625)"/>
      <path id="NotoSansCJKsc-Regular-63" d="M 1958 -83 
C 2374 -83 2771 83 3085 352 
L 2829 749 
C 2611 557 2330 403 2010 403 
C 1370 403 934 934 934 1734 
C 934 2534 1395 3072 2029 3072 
C 2298 3072 2522 2950 2720 2771 
L 3014 3155 
C 2771 3373 2458 3565 2003 3565 
C 1107 3565 333 2893 333 1734 
C 333 582 1037 -83 1958 -83 
z
" transform="scale(0.015625)"/>
      <path id="NotoSansCJKsc-Regular-20" transform="scale(0.015625)"/>
      <path id="NotoSansCJKsc-Regular-49" d="M 646 0 
L 1235 0 
L 1235 4691 
L 646 4691 
L 646 0 
z
" transform="scale(0.015625)"/>
      <path id="NotoSansCJKsc-Regular-44" d="M 646 0 
L 1843 0 
C 3258 0 4026 877 4026 2362 
C 4026 3859 3258 4691 1818 4691 
L 646 4691 
L 646 0 
z
M 1235 486 
L 1235 4211 
L 1766 4211 
C 2874 4211 3418 3552 3418 2362 
C 3418 1178 2874 486 1766 486 
L 1235 486 
z
" transform="scale(0.015625)"/>
      <path id="NotoSansCJKsc-Regular-73" d="M 1498 -83 
C 2317 -83 2758 384 2758 947 
C 2758 1606 2208 1811 1702 2003 
C 1312 2150 954 2278 954 2605 
C 954 2880 1158 3110 1600 3110 
C 1907 3110 2150 2976 2387 2803 
L 2669 3168 
C 2406 3386 2022 3565 1594 3565 
C 832 3565 397 3130 397 2579 
C 397 1984 922 1754 1408 1574 
C 1792 1434 2202 1267 2202 915 
C 2202 614 1978 371 1517 371 
C 1101 371 794 538 486 787 
L 205 397 
C 531 122 1005 -83 1498 -83 
z
" transform="scale(0.015625)"/>
      <path id="NotoSansCJKsc-Regular-28" d="M 1530 -1254 
L 1888 -1094 
C 1338 -186 1075 902 1075 1990 
C 1075 3072 1338 4154 1888 5069 
L 1530 5235 
C 941 4275 589 3245 589 1990 
C 589 730 941 -301 1530 -1254 
z
" transform="scale(0.015625)"/>
      <path id="NotoSansCJKsc-Regular-52" d="M 1235 2464 
L 1235 4211 
L 2022 4211 
C 2758 4211 3162 3994 3162 3379 
C 3162 2765 2758 2464 2022 2464 
L 1235 2464 
z
M 3219 0 
L 3885 0 
L 2694 2054 
C 3328 2208 3750 2643 3750 3379 
C 3750 4352 3066 4691 2112 4691 
L 646 4691 
L 646 0 
L 1235 0 
L 1235 1990 
L 2080 1990 
L 3219 0 
z
" transform="scale(0.015625)"/>
      <path id="NotoSansCJKsc-Regular-51" d="M 2374 410 
C 1530 410 979 1165 979 2362 
C 979 3533 1530 4256 2374 4256 
C 3219 4256 3770 3533 3770 2362 
C 3770 1165 3219 410 2374 410 
z
M 3808 -1178 
C 4090 -1178 4339 -1133 4480 -1069 
L 4365 -614 
C 4243 -653 4083 -685 3872 -685 
C 3366 -685 2931 -474 2720 -58 
C 3712 115 4378 1011 4378 2362 
C 4378 3866 3552 4774 2374 4774 
C 1197 4774 371 3866 371 2362 
C 371 986 1062 77 2086 -64 
C 2349 -704 2944 -1178 3808 -1178 
z
" transform="scale(0.015625)"/>
      <path id="NotoSansCJKsc-Regular-2d" d="M 294 1568 
L 1933 1568 
L 1933 2016 
L 294 2016 
L 294 1568 
z
" transform="scale(0.015625)"/>
      <path id="NotoSansCJKsc-Regular-56" d="M 1504 0 
L 2189 0 
L 3680 4691 
L 3078 4691 
L 2323 2150 
C 2163 1600 2048 1152 1869 602 
L 1843 602 
C 1670 1152 1549 1600 1389 2150 
L 627 4691 
L 6 4691 
L 1504 0 
z
" transform="scale(0.015625)"/>
      <path id="NotoSansCJKsc-Regular-41" d="M 26 0 
L 621 0 
L 1075 1434 
L 2790 1434 
L 3238 0 
L 3866 0 
L 2272 4691 
L 1613 4691 
L 26 0 
z
M 1222 1901 
L 1453 2624 
C 1619 3155 1773 3661 1920 4211 
L 1946 4211 
C 2099 3667 2246 3155 2419 2624 
L 2643 1901 
L 1222 1901 
z
" transform="scale(0.015625)"/>
      <path id="NotoSansCJKsc-Regular-45" d="M 646 0 
L 3418 0 
L 3418 506 
L 1235 506 
L 1235 2214 
L 3014 2214 
L 3014 2720 
L 1235 2720 
L 1235 4192 
L 3347 4192 
L 3347 4691 
L 646 4691 
L 646 0 
z
" transform="scale(0.015625)"/>
      <path id="NotoSansCJKsc-Regular-29" d="M 634 -1254 
C 1222 -301 1574 730 1574 1990 
C 1574 3245 1222 4275 634 5235 
L 269 5069 
C 819 4154 1094 3072 1094 1990 
C 1094 902 819 -186 269 -1094 
L 634 -1254 
z
" transform="scale(0.015625)"/>
      <path id="NotoSansCJKsc-Regular-2b" d="M 1542 742 
L 2010 742 
L 2010 2144 
L 3315 2144 
L 3315 2579 
L 2010 2579 
L 2010 3981 
L 1542 3981 
L 1542 2579 
L 243 2579 
L 243 2144 
L 1542 2144 
L 1542 742 
z
" transform="scale(0.015625)"/>
      <path id="NotoSansCJKsc-Regular-54" d="M 1619 0 
L 2214 0 
L 2214 4192 
L 3635 4192 
L 3635 4691 
L 198 4691 
L 198 4192 
L 1619 4192 
L 1619 0 
z
" transform="scale(0.015625)"/>
      <path id="NotoSansCJKsc-Regular-70" d="M 589 -1466 
L 1178 -1466 
L 1178 -288 
L 1158 320 
C 1472 58 1805 -83 2118 -83 
C 2912 -83 3629 602 3629 1792 
C 3629 2867 3142 3565 2246 3565 
C 1843 3565 1453 3334 1139 3072 
L 1126 3072 
L 1069 3475 
L 589 3475 
L 589 -1466 
z
M 2022 410 
C 1792 410 1485 499 1178 768 
L 1178 2598 
C 1510 2906 1811 3072 2099 3072 
C 2765 3072 3021 2560 3021 1786 
C 3021 928 2598 410 2022 410 
z
" transform="scale(0.015625)"/>
      <path id="NotoSansCJKsc-Regular-6f" d="M 1939 -83 
C 2790 -83 3546 582 3546 1734 
C 3546 2893 2790 3565 1939 3565 
C 1088 3565 333 2893 333 1734 
C 333 582 1088 -83 1939 -83 
z
M 1939 403 
C 1338 403 934 934 934 1734 
C 934 2534 1338 3072 1939 3072 
C 2541 3072 2950 2534 2950 1734 
C 2950 934 2541 403 1939 403 
z
" transform="scale(0.015625)"/>
      <path id="NotoSansCJKsc-Regular-72" d="M 589 0 
L 1178 0 
L 1178 2234 
C 1408 2822 1760 3040 2048 3040 
C 2195 3040 2272 3021 2387 2982 
L 2496 3488 
C 2387 3546 2278 3565 2125 3565 
C 1741 3565 1382 3283 1139 2842 
L 1126 2842 
L 1069 3475 
L 589 3475 
L 589 0 
z
" transform="scale(0.015625)"/>
      <path id="NotoSansCJKsc-Regular-6c" d="M 1203 -83 
C 1363 -83 1459 -58 1542 -32 
L 1459 416 
C 1395 403 1370 403 1338 403 
C 1248 403 1178 474 1178 653 
L 1178 5094 
L 589 5094 
L 589 691 
C 589 198 768 -83 1203 -83 
z
" transform="scale(0.015625)"/>
      <path id="NotoSansCJKsc-Regular-46" d="M 646 0 
L 1235 0 
L 1235 2106 
L 3027 2106 
L 3027 2605 
L 1235 2605 
L 1235 4192 
L 3347 4192 
L 3347 4691 
L 646 4691 
L 646 0 
z
" transform="scale(0.015625)"/>
      <path id="NotoSansCJKsc-Regular-64" d="M 1773 -83 
C 2189 -83 2560 141 2829 410 
L 2848 410 
L 2899 0 
L 3379 0 
L 3379 5094 
L 2790 5094 
L 2790 3757 
L 2822 3162 
C 2515 3411 2253 3565 1843 3565 
C 1050 3565 339 2861 339 1734 
C 339 576 902 -83 1773 -83 
z
M 1901 410 
C 1293 410 941 902 941 1741 
C 941 2534 1389 3072 1946 3072 
C 2234 3072 2502 2970 2790 2707 
L 2790 883 
C 2502 563 2221 410 1901 410 
z
" transform="scale(0.015625)"/>
      <path id="NotoSansCJKsc-Regular-67" d="M 1760 -1600 
C 2835 -1600 3520 -1043 3520 -397 
C 3520 179 3110 429 2310 429 
L 1626 429 
C 1158 429 1018 589 1018 806 
C 1018 998 1114 1114 1242 1222 
C 1395 1146 1587 1101 1754 1101 
C 2470 1101 3027 1568 3027 2310 
C 3027 2611 2912 2867 2746 3027 
L 3456 3027 
L 3456 3475 
L 2246 3475 
C 2125 3526 1952 3565 1754 3565 
C 1056 3565 454 3085 454 2323 
C 454 1907 678 1568 909 1389 
L 909 1363 
C 723 1235 525 1005 525 717 
C 525 442 659 256 838 147 
L 838 115 
C 512 -83 326 -371 326 -672 
C 326 -1267 915 -1600 1760 -1600 
z
M 1754 1498 
C 1357 1498 1018 1818 1018 2323 
C 1018 2835 1350 3136 1754 3136 
C 2170 3136 2496 2835 2496 2323 
C 2496 1818 2157 1498 1754 1498 
z
M 1843 -1197 
C 1210 -1197 838 -960 838 -589 
C 838 -390 941 -179 1190 0 
C 1344 -38 1510 -51 1638 -51 
L 2240 -51 
C 2701 -51 2944 -166 2944 -493 
C 2944 -851 2515 -1197 1843 -1197 
z
" transform="scale(0.015625)"/>
      <path id="NotoSansCJKsc-Regular-3e" d="M 243 934 
L 3315 2144 
L 3315 2605 
L 243 3814 
L 243 3309 
L 1754 2746 
L 2714 2387 
L 2714 2362 
L 1754 2003 
L 243 1446 
L 243 934 
z
" transform="scale(0.015625)"/>
      <path id="NotoSansCJKsc-Regular-66" d="M 211 3002 
L 685 3002 
L 685 0 
L 1267 0 
L 1267 3002 
L 2003 3002 
L 2003 3475 
L 1267 3475 
L 1267 4026 
C 1267 4474 1427 4710 1760 4710 
C 1882 4710 2022 4678 2150 4614 
L 2278 5069 
C 2118 5133 1914 5178 1696 5178 
C 1005 5178 685 4736 685 4032 
L 685 3475 
L 211 3443 
L 211 3002 
z
" transform="scale(0.015625)"/>
      <path id="NotoSansCJKsc-Regular-32" d="M 282 0 
L 3232 0 
L 3232 506 
L 1933 506 
C 1696 506 1408 480 1165 461 
C 2266 1504 3008 2458 3008 3398 
C 3008 4230 2477 4774 1638 4774 
C 1043 4774 634 4506 256 4090 
L 595 3757 
C 858 4070 1184 4301 1568 4301 
C 2150 4301 2432 3910 2432 3373 
C 2432 2566 1754 1632 282 346 
L 282 0 
z
" transform="scale(0.015625)"/>
      <path id="NotoSansCJKsc-Regular-30" d="M 1779 -83 
C 2669 -83 3238 723 3238 2362 
C 3238 3987 2669 4774 1779 4774 
C 883 4774 320 3987 320 2362 
C 320 723 883 -83 1779 -83 
z
M 1779 390 
C 1248 390 883 986 883 2362 
C 883 3731 1248 4314 1779 4314 
C 2310 4314 2675 3731 2675 2362 
C 2675 986 2310 390 1779 390 
z
" transform="scale(0.015625)"/>
      <path id="NotoSansCJKsc-Regular-71" d="M 2790 -1466 
L 3379 -1466 
L 3379 3475 
L 2912 3475 
L 2854 3149 
L 2842 3149 
C 2534 3418 2253 3565 1843 3565 
C 1050 3565 339 2861 339 1734 
C 339 576 902 -83 1773 -83 
C 2176 -83 2541 128 2822 403 
L 2790 -230 
L 2790 -1466 
z
M 1901 410 
C 1293 410 941 902 941 1741 
C 941 2534 1389 3072 1946 3072 
C 2234 3072 2502 2970 2790 2707 
L 2790 883 
C 2502 563 2221 410 1901 410 
z
" transform="scale(0.015625)"/>
      <path id="NotoSansCJKsc-Regular-75" d="M 1606 -83 
C 2080 -83 2426 166 2752 544 
L 2771 544 
L 2816 0 
L 3302 0 
L 3302 3475 
L 2720 3475 
L 2720 1011 
C 2387 602 2138 422 1779 422 
C 1318 422 1126 698 1126 1344 
L 1126 3475 
L 538 3475 
L 538 1274 
C 538 384 870 -83 1606 -83 
z
" transform="scale(0.015625)"/>
     </defs>
     <use xlink:href="#NotoSansCJKsc-Regular-53"/>
     <use xlink:href="#NotoSansCJKsc-Regular-65" transform="translate(59.599991 0)"/>
     <use xlink:href="#NotoSansCJKsc-Regular-6d" transform="translate(114.999985 0)"/>
     <use xlink:href="#NotoSansCJKsc-Regular-61" transform="translate(207.599976 0)"/>
     <use xlink:href="#NotoSansCJKsc-Regular-6e" transform="translate(263.899963 0)"/>
     <use xlink:href="#NotoSansCJKsc-Regular-74" transform="translate(324.899948 0)"/>
     <use xlink:href="#NotoSansCJKsc-Regular-69" transform="translate(362.599945 0)"/>
     <use xlink:href="#NotoSansCJKsc-Regular-63" transform="translate(390.09993 0)"/>
     <use xlink:href="#NotoSansCJKsc-Regular-20" transform="translate(441.099915 0)"/>
     <use xlink:href="#NotoSansCJKsc-Regular-49" transform="translate(463.499908 0)"/>
     <use xlink:href="#NotoSansCJKsc-Regular-44" transform="translate(492.799896 0)"/>
     <use xlink:href="#NotoSansCJKsc-Regular-73" transform="translate(561.599884 0)"/>
     <use xlink:href="#NotoSansCJKsc-Regular-20" transform="translate(608.399872 0)"/>
     <use xlink:href="#NotoSansCJKsc-Regular-28" transform="translate(630.799866 0)"/>
     <use xlink:href="#NotoSansCJKsc-Regular-52" transform="translate(664.599854 0)"/>
     <use xlink:href="#NotoSansCJKsc-Regular-51" transform="translate(728.099838 0)"/>
     <use xlink:href="#NotoSansCJKsc-Regular-2d" transform="translate(802.29982 0)"/>
     <use xlink:href="#NotoSansCJKsc-Regular-56" transform="translate(836.999817 0)"/>
     <use xlink:href="#NotoSansCJKsc-Regular-41" transform="translate(894.499802 0)"/>
     <use xlink:href="#NotoSansCJKsc-Regular-45" transform="translate(955.299789 0)"/>
     <use xlink:href="#NotoSansCJKsc-Regular-29" transform="translate(1014.199783 0)"/>
     <use xlink:href="#NotoSansCJKsc-Regular-20" transform="translate(1047.999771 0)"/>
     <use xlink:href="#NotoSansCJKsc-Regular-2b" transform="translate(1070.399765 0)"/>
     <use xlink:href="#NotoSansCJKsc-Regular-20" transform="translate(1125.89975 0)"/>
     <use xlink:href="#NotoSansCJKsc-Regular-54" transform="translate(1148.299744 0)"/>
     <use xlink:href="#NotoSansCJKsc-Regular-65" transform="translate(1208.199738 0)"/>
     <use xlink:href="#NotoSansCJKsc-Regular-6d" transform="translate(1263.599731 0)"/>
     <use xlink:href="#NotoSansCJKsc-Regular-70" transform="translate(1356.199722 0)"/>
     <use xlink:href="#NotoSansCJKsc-Regular-6f" transform="translate(1418.199707 0)"/>
     <use xlink:href="#NotoSansCJKsc-Regular-72" transform="translate(1478.799698 0)"/>
     <use xlink:href="#NotoSansCJKsc-Regular-61" transform="translate(1517.599686 0)"/>
     <use xlink:href="#NotoSansCJKsc-Regular-6c" transform="translate(1573.899673 0)"/>
     <use xlink:href="#NotoSansCJKsc-Regular-20" transform="translate(1602.299667 0)"/>
     <use xlink:href="#NotoSansCJKsc-Regular-46" transform="translate(1624.699661 0)"/>
     <use xlink:href="#NotoSansCJKsc-Regular-6f" transform="translate(1679.899658 0)"/>
     <use xlink:href="#NotoSansCJKsc-Regular-6c" transform="translate(1740.499649 0)"/>
     <use xlink:href="#NotoSansCJKsc-Regular-64" transform="translate(1768.899643 0)"/>
     <use xlink:href="#NotoSansCJKsc-Regular-69" transform="translate(1830.899628 0)"/>
     <use xlink:href="#NotoSansCJKsc-Regular-6e" transform="translate(1858.399612 0)"/>
     <use xlink:href="#NotoSansCJKsc-Regular-67" transform="translate(1919.399597 0)"/>
     <use xlink:href="#NotoSansCJKsc-Regular-20" transform="translate(1975.799591 0)"/>
     <use xlink:href="#NotoSansCJKsc-Regular-2d" transform="translate(1998.199585 0)"/>
     <use xlink:href="#NotoSansCJKsc-Regular-3e" transform="translate(2032.899582 0)"/>
     <use xlink:href="#NotoSansCJKsc-Regular-20" transform="translate(2088.399567 0)"/>
     <use xlink:href="#NotoSansCJKsc-Regular-65" transform="translate(2110.799561 0)"/>
     <use xlink:href="#NotoSansCJKsc-Regular-66" transform="translate(2166.199554 0)"/>
     <use xlink:href="#NotoSansCJKsc-Regular-66" transform="translate(2198.699539 0)"/>
     <use xlink:href="#NotoSansCJKsc-Regular-69" transform="translate(2231.199524 0)"/>
     <use xlink:href="#NotoSansCJKsc-Regular-63" transform="translate(2258.699509 0)"/>
     <use xlink:href="#NotoSansCJKsc-Regular-69" transform="translate(2309.699493 0)"/>
     <use xlink:href="#NotoSansCJKsc-Regular-65" transform="translate(2337.199478 0)"/>
     <use xlink:href="#NotoSansCJKsc-Regular-6e" transform="translate(2392.599472 0)"/>
     <use xlink:href="#NotoSansCJKsc-Regular-74" transform="translate(2453.599457 0)"/>
     <use xlink:href="#NotoSansCJKsc-Regular-20" transform="translate(2491.299454 0)"/>
     <use xlink:href="#NotoSansCJKsc-Regular-32" transform="translate(2513.699448 0)"/>
     <use xlink:href="#NotoSansCJKsc-Regular-30" transform="translate(2569.199432 0)"/>
     <use xlink:href="#NotoSansCJKsc-Regular-30" transform="translate(2624.699417 0)"/>
     <use xlink:href="#NotoSansCJKsc-Regular-30" transform="translate(2680.199402 0)"/>
     <use xlink:href="#NotoSansCJKsc-Regular-2b" transform="translate(2735.699387 0)"/>
     <use xlink:href="#NotoSansCJKsc-Regular-20" transform="translate(2791.199371 0)"/>
     <use xlink:href="#NotoSansCJKsc-Regular-73" transform="translate(2813.599365 0)"/>
     <use xlink:href="#NotoSansCJKsc-Regular-65" transform="translate(2860.399353 0)"/>
     <use xlink:href="#NotoSansCJKsc-Regular-71" transform="translate(2915.799347 0)"/>
     <use xlink:href="#NotoSansCJKsc-Regular-75" transform="translate(2977.799332 0)"/>
     <use xlink:href="#NotoSansCJKsc-Regular-65" transform="translate(3038.499329 0)"/>
     <use xlink:href="#NotoSansCJKsc-Regular-6e" transform="translate(3093.899323 0)"/>
     <use xlink:href="#NotoSansCJKsc-Regular-63" transform="translate(3154.899307 0)"/>
     <use xlink:href="#NotoSansCJKsc-Regular-65" transform="translate(3205.899292 0)"/>
     <use xlink:href="#NotoSansCJKsc-Regular-20" transform="translate(3261.299286 0)"/>
     <use xlink:href="#NotoSansCJKsc-Regular-6d" transform="translate(3283.69928 0)"/>
     <use xlink:href="#NotoSansCJKsc-Regular-6f" transform="translate(3376.299271 0)"/>
     <use xlink:href="#NotoSansCJKsc-Regular-64" transform="translate(3436.899261 0)"/>
     <use xlink:href="#NotoSansCJKsc-Regular-65" transform="translate(3498.899246 0)"/>
     <use xlink:href="#NotoSansCJKsc-Regular-6c" transform="translate(3554.29924 0)"/>
     <use xlink:href="#NotoSansCJKsc-Regular-69" transform="translate(3582.699234 0)"/>
     <use xlink:href="#NotoSansCJKsc-Regular-6e" transform="translate(3610.199219 0)"/>
     <use xlink:href="#NotoSansCJKsc-Regular-67" transform="translate(3671.199203 0)"/>
    </g>
   </g>
   <g id="text_3">
    <!-- Content -->
    <g style="fill: #0891b2" transform="translate(56.456147 101.68664) scale(0.105 -0.105)">
     <defs>
      <path id="NotoSansCJKsc-Bold-43" d="M 2509 -90 
C 3130 -90 3635 154 4026 608 
L 3520 1197 
C 3270 922 2957 730 2547 730 
C 1798 730 1318 1350 1318 2381 
C 1318 3398 1850 4013 2566 4013 
C 2925 4013 3200 3846 3443 3616 
L 3936 4218 
C 3629 4538 3155 4826 2547 4826 
C 1350 4826 346 3910 346 2349 
C 346 768 1318 -90 2509 -90 
z
" transform="scale(0.015625)"/>
     </defs>
     <use xlink:href="#NotoSansCJKsc-Bold-43"/>
     <use xlink:href="#NotoSansCJKsc-Bold-6f" transform="translate(65.599991 0)"/>
     <use xlink:href="#NotoSansCJKsc-Bold-6e" transform="translate(128.199982 0)"/>
     <use xlink:href="#NotoSansCJKsc-Bold-74" transform="translate(192.299973 0)"/>
     <use xlink:href="#NotoSansCJKsc-Bold-65" transform="translate(234.399963 0)"/>
     <use xlink:href="#NotoSansCJKsc-Bold-6e" transform="translate(292.499954 0)"/>
     <use xlink:href="#NotoSansCJKsc-Bold-74" transform="translate(356.599945 0)"/>
    </g>
   </g>
   <g id="text_4">
    <!-- video frames -->
    <g style="fill: #475569" transform="translate(50.278022 115.772845) scale(0.09 -0.09)">
     <defs>
      <path id="NotoSansCJKsc-Regular-76" d="M 1338 0 
L 2022 0 
L 3251 3475 
L 2675 3475 
L 2016 1498 
C 1914 1158 1798 806 1696 474 
L 1664 474 
C 1562 806 1453 1158 1344 1498 
L 691 3475 
L 83 3475 
L 1338 0 
z
" transform="scale(0.015625)"/>
     </defs>
     <use xlink:href="#NotoSansCJKsc-Regular-76"/>
     <use xlink:href="#NotoSansCJKsc-Regular-69" transform="translate(52.099991 0)"/>
     <use xlink:href="#NotoSansCJKsc-Regular-64" transform="translate(79.599976 0)"/>
     <use xlink:href="#NotoSansCJKsc-Regular-65" transform="translate(141.59996 0)"/>
     <use xlink:href="#NotoSansCJKsc-Regular-6f" transform="translate(196.999954 0)"/>
     <use xlink:href="#NotoSansCJKsc-Regular-20" transform="translate(257.599945 0)"/>
     <use xlink:href="#NotoSansCJKsc-Regular-66" transform="translate(279.999939 0)"/>
     <use xlink:href="#NotoSansCJKsc-Regular-72" transform="translate(312.499924 0)"/>
     <use xlink:href="#NotoSansCJKsc-Regular-61" transform="translate(351.299911 0)"/>
     <use xlink:href="#NotoSansCJKsc-Regular-6d" transform="translate(407.599899 0)"/>
     <use xlink:href="#NotoSansCJKsc-Regular-65" transform="translate(500.19989 0)"/>
     <use xlink:href="#NotoSansCJKsc-Regular-73" transform="translate(555.599884 0)"/>
    </g>
   </g>
   <g id="text_5">
    <!-- text/audio -->
    <g style="fill: #475569" transform="translate(55.474819 128.524045) scale(0.09 -0.09)">
     <defs>
      <path id="NotoSansCJKsc-Regular-78" d="M 96 0 
L 710 0 
L 1178 813 
C 1299 1024 1408 1235 1530 1434 
L 1562 1434 
C 1696 1235 1824 1024 1939 813 
L 2451 0 
L 3091 0 
L 1946 1754 
L 3002 3475 
L 2394 3475 
L 1965 2714 
C 1856 2515 1760 2330 1658 2131 
L 1626 2131 
C 1510 2330 1389 2515 1286 2714 
L 819 3475 
L 186 3475 
L 1242 1811 
L 96 0 
z
" transform="scale(0.015625)"/>
      <path id="NotoSansCJKsc-Regular-2f" d="M 70 -1146 
L 499 -1146 
L 2413 5082 
L 1990 5082 
L 70 -1146 
z
" transform="scale(0.015625)"/>
     </defs>
     <use xlink:href="#NotoSansCJKsc-Regular-74"/>
     <use xlink:href="#NotoSansCJKsc-Regular-65" transform="translate(37.699997 0)"/>
     <use xlink:href="#NotoSansCJKsc-Regular-78" transform="translate(93.099991 0)"/>
     <use xlink:href="#NotoSansCJKsc-Regular-74" transform="translate(142.899979 0)"/>
     <use xlink:href="#NotoSansCJKsc-Regular-2f" transform="translate(180.599976 0)"/>
     <use xlink:href="#NotoSansCJKsc-Regular-61" transform="translate(219.799973 0)"/>
     <use xlink:href="#NotoSansCJKsc-Regular-75" transform="translate(276.09996 0)"/>
     <use xlink:href="#NotoSansCJKsc-Regular-64" transform="translate(336.799957 0)"/>
     <use xlink:href="#NotoSansCJKsc-Regular-69" transform="translate(398.799942 0)"/>
     <use xlink:href="#NotoSansCJKsc-Regular-6f" transform="translate(426.299927 0)"/>
    </g>
   </g>
   <g id="text_6">
    <!-- multimodal embed -->
    <g style="fill: #475569" transform="translate(37.047319 141.275245) scale(0.09 -0.09)">
     <defs>
      <path id="NotoSansCJKsc-Regular-62" d="M 2118 -83 
C 2912 -83 3629 602 3629 1792 
C 3629 2867 3142 3565 2246 3565 
C 1856 3565 1472 3347 1152 3078 
L 1178 3699 
L 1178 5094 
L 589 5094 
L 589 0 
L 1056 0 
L 1107 358 
L 1133 358 
C 1434 83 1798 -83 2118 -83 
z
M 2022 410 
C 1792 410 1478 499 1178 768 
L 1178 2598 
C 1504 2906 1811 3072 2099 3072 
C 2765 3072 3021 2560 3021 1786 
C 3021 928 2598 410 2022 410 
z
" transform="scale(0.015625)"/>
     </defs>
     <use xlink:href="#NotoSansCJKsc-Regular-6d"/>
     <use xlink:href="#NotoSansCJKsc-Regular-75" transform="translate(92.599991 0)"/>
     <use xlink:href="#NotoSansCJKsc-Regular-6c" transform="translate(153.299988 0)"/>
     <use xlink:href="#NotoSansCJKsc-Regular-74" transform="translate(181.699982 0)"/>
     <use xlink:href="#NotoSansCJKsc-Regular-69" transform="translate(219.399979 0)"/>
     <use xlink:href="#NotoSansCJKsc-Regular-6d" transform="translate(246.899963 0)"/>
     <use xlink:href="#NotoSansCJKsc-Regular-6f" transform="translate(339.499954 0)"/>
     <use xlink:href="#NotoSansCJKsc-Regular-64" transform="translate(400.099945 0)"/>
     <use xlink:href="#NotoSansCJKsc-Regular-61" transform="translate(462.09993 0)"/>
     <use xlink:href="#NotoSansCJKsc-Regular-6c" transform="translate(518.399918 0)"/>
     <use xlink:href="#NotoSansCJKsc-Regular-20" transform="translate(546.799911 0)"/>
     <use xlink:href="#NotoSansCJKsc-Regular-65" transform="translate(569.199905 0)"/>
     <use xlink:href="#NotoSansCJKsc-Regular-6d" transform="translate(624.599899 0)"/>
     <use xlink:href="#NotoSansCJKsc-Regular-62" transform="translate(717.19989 0)"/>
     <use xlink:href="#NotoSansCJKsc-Regular-65" transform="translate(778.999878 0)"/>
     <use xlink:href="#NotoSansCJKsc-Regular-64" transform="translate(834.399872 0)"/>
    </g>
   </g>
   <g id="text_7">
    <!-- Semantic IDs -->
    <g style="fill: #7c3aed" transform="translate(186.700922 101.68664) scale(0.105 -0.105)">
     <use xlink:href="#NotoSansCJKsc-Bold-53"/>
     <use xlink:href="#NotoSansCJKsc-Bold-65" transform="translate(62.399994 0)"/>
     <use xlink:href="#NotoSansCJKsc-Bold-6d" transform="translate(120.499985 0)"/>
     <use xlink:href="#NotoSansCJKsc-Bold-61" transform="translate(216.899979 0)"/>
     <use xlink:href="#NotoSansCJKsc-Bold-6e" transform="translate(275.999969 0)"/>
     <use xlink:href="#NotoSansCJKsc-Bold-74" transform="translate(340.09996 0)"/>
     <use xlink:href="#NotoSansCJKsc-Bold-69" transform="translate(382.199951 0)"/>
     <use xlink:href="#NotoSansCJKsc-Bold-63" transform="translate(412.599945 0)"/>
     <use xlink:href="#NotoSansCJKsc-Bold-20" transform="translate(465.299942 0)"/>
     <use xlink:href="#NotoSansCJKsc-Bold-49" transform="translate(487.999939 0)"/>
     <use xlink:href="#NotoSansCJKsc-Bold-44" transform="translate(520.999924 0)"/>
     <use xlink:href="#NotoSansCJKsc-Bold-73" transform="translate(592.399918 0)"/>
    </g>
   </g>
   <g id="text_8">
    <!-- RQ-VAE -->
    <g style="fill: #475569" transform="translate(204.668578 115.772845) scale(0.09 -0.09)">
     <use xlink:href="#NotoSansCJKsc-Regular-52"/>
     <use xlink:href="#NotoSansCJKsc-Regular-51" transform="translate(63.499985 0)"/>
     <use xlink:href="#NotoSansCJKsc-Regular-2d" transform="translate(137.699966 0)"/>
     <use xlink:href="#NotoSansCJKsc-Regular-56" transform="translate(172.399963 0)"/>
     <use xlink:href="#NotoSansCJKsc-Regular-41" transform="translate(229.899948 0)"/>
     <use xlink:href="#NotoSansCJKsc-Regular-45" transform="translate(290.699936 0)"/>
    </g>
   </g>
   <g id="text_9">
    <!-- bounded vocab -->
    <g style="fill: #475569" transform="translate(187.655063 128.524045) scale(0.09 -0.09)">
     <use xlink:href="#NotoSansCJKsc-Regular-62"/>
     <use xlink:href="#NotoSansCJKsc-Regular-6f" transform="translate(61.799988 0)"/>
     <use xlink:href="#NotoSansCJKsc-Regular-75" transform="translate(122.399979 0)"/>
     <use xlink:href="#NotoSansCJKsc-Regular-6e" transform="translate(183.099976 0)"/>
     <use xlink:href="#NotoSansCJKsc-Regular-64" transform="translate(244.09996 0)"/>
     <use xlink:href="#NotoSansCJKsc-Regular-65" transform="translate(306.099945 0)"/>
     <use xlink:href="#NotoSansCJKsc-Regular-64" transform="translate(361.499939 0)"/>
     <use xlink:href="#NotoSansCJKsc-Regular-20" transform="translate(423.499924 0)"/>
     <use xlink:href="#NotoSansCJKsc-Regular-76" transform="translate(445.899918 0)"/>
     <use xlink:href="#NotoSansCJKsc-Regular-6f" transform="translate(497.999908 0)"/>
     <use xlink:href="#NotoSansCJKsc-Regular-63" transform="translate(558.599899 0)"/>
     <use xlink:href="#NotoSansCJKsc-Regular-61" transform="translate(609.599884 0)"/>
     <use xlink:href="#NotoSansCJKsc-Regular-62" transform="translate(665.899872 0)"/>
    </g>
   </g>
   <g id="text_10">
    <!-- cold-start -->
    <g style="fill: #475569" transform="translate(199.971 141.275245) scale(0.09 -0.09)">
     <use xlink:href="#NotoSansCJKsc-Regular-63"/>
     <use xlink:href="#NotoSansCJKsc-Regular-6f" transform="translate(50.999985 0)"/>
     <use xlink:href="#NotoSansCJKsc-Regular-6c" transform="translate(111.599976 0)"/>
     <use xlink:href="#NotoSansCJKsc-Regular-64" transform="translate(139.999969 0)"/>
     <use xlink:href="#NotoSansCJKsc-Regular-2d" transform="translate(201.999954 0)"/>
     <use xlink:href="#NotoSansCJKsc-Regular-73" transform="translate(236.699951 0)"/>
     <use xlink:href="#NotoSansCJKsc-Regular-74" transform="translate(283.499939 0)"/>
     <use xlink:href="#NotoSansCJKsc-Regular-61" transform="translate(321.199936 0)"/>
     <use xlink:href="#NotoSansCJKsc-Regular-72" transform="translate(377.499924 0)"/>
     <use xlink:href="#NotoSansCJKsc-Regular-74" transform="translate(416.299911 0)"/>
    </g>
   </g>
   <g id="text_11">
    <!-- Temporal Folding -->
    <g style="fill: #2563eb" transform="translate(325.077619 99.02929) scale(0.102 -0.102)">
     <defs>
      <path id="NotoSansCJKsc-Bold-54" d="M 1523 0 
L 2470 0 
L 2470 3949 
L 3808 3949 
L 3808 4742 
L 192 4742 
L 192 3949 
L 1523 3949 
L 1523 0 
z
" transform="scale(0.015625)"/>
      <path id="NotoSansCJKsc-Bold-70" d="M 506 -1376 
L 1446 -1376 
L 1446 -282 
L 1414 301 
C 1683 51 1990 -90 2304 -90 
C 3091 -90 3827 621 3827 1850 
C 3827 2950 3296 3674 2419 3674 
C 2029 3674 1664 3469 1363 3213 
L 1344 3213 
L 1274 3584 
L 506 3584 
L 506 -1376 
z
M 2099 685 
C 1901 685 1677 755 1446 954 
L 1446 2534 
C 1690 2778 1907 2899 2150 2899 
C 2643 2899 2861 2522 2861 1837 
C 2861 1056 2522 685 2099 685 
z
" transform="scale(0.015625)"/>
      <path id="NotoSansCJKsc-Bold-72" d="M 506 0 
L 1446 0 
L 1446 2138 
C 1651 2656 1984 2842 2259 2842 
C 2413 2842 2515 2822 2643 2784 
L 2797 3597 
C 2694 3642 2579 3674 2381 3674 
C 2010 3674 1626 3418 1363 2950 
L 1344 2950 
L 1274 3584 
L 506 3584 
L 506 0 
z
" transform="scale(0.015625)"/>
      <path id="NotoSansCJKsc-Bold-6c" d="M 1395 -90 
C 1613 -90 1766 -51 1875 -6 
L 1760 691 
C 1696 678 1670 678 1632 678 
C 1542 678 1446 749 1446 966 
L 1446 5107 
L 506 5107 
L 506 1005 
C 506 339 736 -90 1395 -90 
z
" transform="scale(0.015625)"/>
      <path id="NotoSansCJKsc-Bold-46" d="M 582 0 
L 1530 0 
L 1530 1920 
L 3213 1920 
L 3213 2714 
L 1530 2714 
L 1530 3949 
L 3501 3949 
L 3501 4742 
L 582 4742 
L 582 0 
z
" transform="scale(0.015625)"/>
     </defs>
     <use xlink:href="#NotoSansCJKsc-Bold-54"/>
     <use xlink:href="#NotoSansCJKsc-Bold-65" transform="translate(62.499985 0)"/>
     <use xlink:href="#NotoSansCJKsc-Bold-6d" transform="translate(120.599976 0)"/>
     <use xlink:href="#NotoSansCJKsc-Bold-70" transform="translate(216.999969 0)"/>
     <use xlink:href="#NotoSansCJKsc-Bold-6f" transform="translate(281.399963 0)"/>
     <use xlink:href="#NotoSansCJKsc-Bold-72" transform="translate(343.999954 0)"/>
     <use xlink:href="#NotoSansCJKsc-Bold-61" transform="translate(387.599945 0)"/>
     <use xlink:href="#NotoSansCJKsc-Bold-6c" transform="translate(446.699936 0)"/>
     <use xlink:href="#NotoSansCJKsc-Bold-20" transform="translate(478.199921 0)"/>
     <use xlink:href="#NotoSansCJKsc-Bold-46" transform="translate(500.899918 0)"/>
     <use xlink:href="#NotoSansCJKsc-Bold-6f" transform="translate(559.399902 0)"/>
     <use xlink:href="#NotoSansCJKsc-Bold-6c" transform="translate(621.999893 0)"/>
     <use xlink:href="#NotoSansCJKsc-Bold-64" transform="translate(653.499878 0)"/>
     <use xlink:href="#NotoSansCJKsc-Bold-69" transform="translate(717.899872 0)"/>
     <use xlink:href="#NotoSansCJKsc-Bold-6e" transform="translate(748.299866 0)"/>
     <use xlink:href="#NotoSansCJKsc-Bold-67" transform="translate(812.399857 0)"/>
    </g>
   </g>
   <g id="text_12">
    <!-- super-tokens -->
    <g style="fill: #475569" transform="translate(342.489587 113.063418) scale(0.088 -0.088)">
     <defs>
      <path id="NotoSansCJKsc-Regular-6b" d="M 589 0 
L 1165 0 
L 1165 915 
L 1818 1677 
L 2835 0 
L 3469 0 
L 2157 2074 
L 3315 3475 
L 2662 3475 
L 1190 1645 
L 1165 1645 
L 1165 5094 
L 589 5094 
L 589 0 
z
" transform="scale(0.015625)"/>
     </defs>
     <use xlink:href="#NotoSansCJKsc-Regular-73"/>
     <use xlink:href="#NotoSansCJKsc-Regular-75" transform="translate(46.799988 0)"/>
     <use xlink:href="#NotoSansCJKsc-Regular-70" transform="translate(107.499985 0)"/>
     <use xlink:href="#NotoSansCJKsc-Regular-65" transform="translate(169.499969 0)"/>
     <use xlink:href="#NotoSansCJKsc-Regular-72" transform="translate(224.899963 0)"/>
     <use xlink:href="#NotoSansCJKsc-Regular-2d" transform="translate(263.699951 0)"/>
     <use xlink:href="#NotoSansCJKsc-Regular-74" transform="translate(298.399948 0)"/>
     <use xlink:href="#NotoSansCJKsc-Regular-6f" transform="translate(336.099945 0)"/>
     <use xlink:href="#NotoSansCJKsc-Regular-6b" transform="translate(396.699936 0)"/>
     <use xlink:href="#NotoSansCJKsc-Regular-65" transform="translate(451.899933 0)"/>
     <use xlink:href="#NotoSansCJKsc-Regular-6e" transform="translate(507.299927 0)"/>
     <use xlink:href="#NotoSansCJKsc-Regular-73" transform="translate(568.299911 0)"/>
    </g>
   </g>
   <g id="text_13">
    <!-- -83.9% step time -->
    <g style="fill: #475569" transform="translate(335.189712 125.814618) scale(0.088 -0.088)">
     <defs>
      <path id="NotoSansCJKsc-Regular-38" d="M 1792 -83 
C 2669 -83 3258 448 3258 1126 
C 3258 1773 2880 2125 2470 2362 
L 2470 2394 
C 2746 2611 3091 3034 3091 3526 
C 3091 4250 2605 4762 1805 4762 
C 1075 4762 518 4282 518 3571 
C 518 3078 813 2726 1152 2490 
L 1152 2464 
C 723 2234 294 1792 294 1165 
C 294 442 922 -83 1792 -83 
z
M 2112 2547 
C 1555 2765 1050 3014 1050 3571 
C 1050 4026 1363 4326 1798 4326 
C 2298 4326 2592 3962 2592 3494 
C 2592 3149 2426 2829 2112 2547 
z
M 1798 352 
C 1235 352 813 717 813 1216 
C 813 1664 1082 2035 1459 2278 
C 2125 2010 2701 1779 2701 1146 
C 2701 678 2342 352 1798 352 
z
" transform="scale(0.015625)"/>
      <path id="NotoSansCJKsc-Regular-33" d="M 1683 -83 
C 2522 -83 3194 416 3194 1254 
C 3194 1901 2752 2310 2202 2445 
L 2202 2477 
C 2701 2650 3034 3034 3034 3603 
C 3034 4346 2458 4774 1664 4774 
C 1126 4774 710 4538 358 4218 
L 672 3846 
C 941 4115 1267 4301 1645 4301 
C 2138 4301 2438 4006 2438 3558 
C 2438 3053 2112 2662 1139 2662 
L 1139 2214 
C 2227 2214 2598 1843 2598 1274 
C 2598 736 2208 403 1645 403 
C 1114 403 762 659 486 941 
L 186 563 
C 493 224 954 -83 1683 -83 
z
" transform="scale(0.015625)"/>
      <path id="NotoSansCJKsc-Regular-2e" d="M 890 -83 
C 1120 -83 1312 96 1312 358 
C 1312 627 1120 806 890 806 
C 653 806 467 627 467 358 
C 467 96 653 -83 890 -83 
z
" transform="scale(0.015625)"/>
      <path id="NotoSansCJKsc-Regular-39" d="M 1504 -83 
C 2381 -83 3206 646 3206 2547 
C 3206 4038 2528 4774 1626 4774 
C 896 4774 282 4166 282 3251 
C 282 2285 794 1779 1574 1779 
C 1965 1779 2368 2003 2656 2349 
C 2611 896 2086 403 1485 403 
C 1178 403 896 538 691 762 
L 371 397 
C 634 122 992 -83 1504 -83 
z
M 2650 2842 
C 2336 2394 1984 2214 1670 2214 
C 1114 2214 832 2624 832 3251 
C 832 3898 1178 4320 1632 4320 
C 2227 4320 2586 3808 2650 2842 
z
" transform="scale(0.015625)"/>
      <path id="NotoSansCJKsc-Regular-25" d="M 1312 1818 
C 1958 1818 2381 2362 2381 3309 
C 2381 4243 1958 4774 1312 4774 
C 672 4774 250 4243 250 3309 
C 250 2362 672 1818 1312 1818 
z
M 1312 2176 
C 941 2176 691 2560 691 3309 
C 691 4058 941 4416 1312 4416 
C 1683 4416 1933 4058 1933 3309 
C 1933 2560 1683 2176 1312 2176 
z
M 1446 -83 
L 1843 -83 
L 4435 4774 
L 4038 4774 
L 1446 -83 
z
M 4582 -83 
C 5222 -83 5645 454 5645 1402 
C 5645 2342 5222 2874 4582 2874 
C 3942 2874 3520 2342 3520 1402 
C 3520 454 3942 -83 4582 -83 
z
M 4582 275 
C 4211 275 3955 653 3955 1402 
C 3955 2150 4211 2515 4582 2515 
C 4947 2515 5210 2150 5210 1402 
C 5210 653 4947 275 4582 275 
z
" transform="scale(0.015625)"/>
     </defs>
     <use xlink:href="#NotoSansCJKsc-Regular-2d"/>
     <use xlink:href="#NotoSansCJKsc-Regular-38" transform="translate(34.699997 0)"/>
     <use xlink:href="#NotoSansCJKsc-Regular-33" transform="translate(90.199982 0)"/>
     <use xlink:href="#NotoSansCJKsc-Regular-2e" transform="translate(145.699966 0)"/>
     <use xlink:href="#NotoSansCJKsc-Regular-39" transform="translate(173.499954 0)"/>
     <use xlink:href="#NotoSansCJKsc-Regular-25" transform="translate(228.999939 0)"/>
     <use xlink:href="#NotoSansCJKsc-Regular-20" transform="translate(321.09993 0)"/>
     <use xlink:href="#NotoSansCJKsc-Regular-73" transform="translate(343.499924 0)"/>
     <use xlink:href="#NotoSansCJKsc-Regular-74" transform="translate(390.299911 0)"/>
     <use xlink:href="#NotoSansCJKsc-Regular-65" transform="translate(427.999908 0)"/>
     <use xlink:href="#NotoSansCJKsc-Regular-70" transform="translate(483.399902 0)"/>
     <use xlink:href="#NotoSansCJKsc-Regular-20" transform="translate(545.399887 0)"/>
     <use xlink:href="#NotoSansCJKsc-Regular-74" transform="translate(567.799881 0)"/>
     <use xlink:href="#NotoSansCJKsc-Regular-69" transform="translate(605.499878 0)"/>
     <use xlink:href="#NotoSansCJKsc-Regular-6d" transform="translate(632.999863 0)"/>
     <use xlink:href="#NotoSansCJKsc-Regular-65" transform="translate(725.599854 0)"/>
    </g>
   </g>
   <g id="text_14">
    <!-- Global Query -->
    <g style="fill: #d97706" transform="translate(336.746259 162.653009) scale(0.102 -0.102)">
     <defs>
      <path id="NotoSansCJKsc-Bold-47" d="M 2618 -90 
C 3270 -90 3834 160 4160 480 
L 4160 2618 
L 2470 2618 
L 2470 1843 
L 3309 1843 
L 3309 909 
C 3181 794 2944 730 2720 730 
C 1786 730 1318 1350 1318 2381 
C 1318 3398 1856 4013 2650 4013 
C 3072 4013 3341 3840 3578 3616 
L 4083 4218 
C 3776 4531 3302 4826 2618 4826 
C 1357 4826 346 3910 346 2349 
C 346 768 1331 -90 2618 -90 
z
" transform="scale(0.015625)"/>
      <path id="NotoSansCJKsc-Bold-62" d="M 2304 -90 
C 3091 -90 3827 621 3827 1856 
C 3827 2950 3296 3674 2413 3674 
C 2061 3674 1702 3501 1414 3245 
L 1446 3821 
L 1446 5107 
L 506 5107 
L 506 0 
L 1242 0 
L 1318 378 
L 1350 378 
C 1638 77 1984 -90 2304 -90 
z
M 2099 685 
C 1901 685 1664 755 1446 954 
L 1446 2534 
C 1690 2778 1907 2899 2150 2899 
C 2643 2899 2861 2522 2861 1837 
C 2861 1056 2522 685 2099 685 
z
" transform="scale(0.015625)"/>
      <path id="NotoSansCJKsc-Bold-51" d="M 2464 685 
C 1760 685 1318 1325 1318 2394 
C 1318 3405 1760 4013 2464 4013 
C 3168 4013 3616 3405 3616 2394 
C 3616 1325 3168 685 2464 685 
z
M 3994 -1286 
C 4339 -1286 4627 -1229 4794 -1146 
L 4621 -448 
C 4486 -493 4307 -531 4102 -531 
C 3674 -531 3245 -378 3027 -19 
C 3968 224 4582 1094 4582 2394 
C 4582 3930 3718 4826 2464 4826 
C 1210 4826 346 3930 346 2394 
C 346 1037 1018 147 2029 -51 
C 2349 -768 3027 -1286 3994 -1286 
z
" transform="scale(0.015625)"/>
     </defs>
     <use xlink:href="#NotoSansCJKsc-Bold-47"/>
     <use xlink:href="#NotoSansCJKsc-Bold-6c" transform="translate(71.699982 0)"/>
     <use xlink:href="#NotoSansCJKsc-Bold-6f" transform="translate(103.199966 0)"/>
     <use xlink:href="#NotoSansCJKsc-Bold-62" transform="translate(165.799957 0)"/>
     <use xlink:href="#NotoSansCJKsc-Bold-61" transform="translate(230.199951 0)"/>
     <use xlink:href="#NotoSansCJKsc-Bold-6c" transform="translate(289.299942 0)"/>
     <use xlink:href="#NotoSansCJKsc-Bold-20" transform="translate(320.799927 0)"/>
     <use xlink:href="#NotoSansCJKsc-Bold-51" transform="translate(343.499924 0)"/>
     <use xlink:href="#NotoSansCJKsc-Bold-75" transform="translate(420.499908 0)"/>
     <use xlink:href="#NotoSansCJKsc-Bold-65" transform="translate(484.199905 0)"/>
     <use xlink:href="#NotoSansCJKsc-Bold-72" transform="translate(542.299896 0)"/>
     <use xlink:href="#NotoSansCJKsc-Bold-79" transform="translate(585.899887 0)"/>
    </g>
   </g>
   <g id="text_15">
    <!-- capture long intent -->
    <g style="fill: #475569" transform="translate(330.24315 176.819418) scale(0.088 -0.088)">
     <use xlink:href="#NotoSansCJKsc-Regular-63"/>
     <use xlink:href="#NotoSansCJKsc-Regular-61" transform="translate(50.999985 0)"/>
     <use xlink:href="#NotoSansCJKsc-Regular-70" transform="translate(107.299973 0)"/>
     <use xlink:href="#NotoSansCJKsc-Regular-74" transform="translate(169.299957 0)"/>
     <use xlink:href="#NotoSansCJKsc-Regular-75" transform="translate(206.999954 0)"/>
     <use xlink:href="#NotoSansCJKsc-Regular-72" transform="translate(267.699951 0)"/>
     <use xlink:href="#NotoSansCJKsc-Regular-65" transform="translate(306.499939 0)"/>
     <use xlink:href="#NotoSansCJKsc-Regular-20" transform="translate(361.899933 0)"/>
     <use xlink:href="#NotoSansCJKsc-Regular-6c" transform="translate(384.299927 0)"/>
     <use xlink:href="#NotoSansCJKsc-Regular-6f" transform="translate(412.699921 0)"/>
     <use xlink:href="#NotoSansCJKsc-Regular-6e" transform="translate(473.299911 0)"/>
     <use xlink:href="#NotoSansCJKsc-Regular-67" transform="translate(534.299896 0)"/>
     <use xlink:href="#NotoSansCJKsc-Regular-20" transform="translate(590.69989 0)"/>
     <use xlink:href="#NotoSansCJKsc-Regular-69" transform="translate(613.099884 0)"/>
     <use xlink:href="#NotoSansCJKsc-Regular-6e" transform="translate(640.599869 0)"/>
     <use xlink:href="#NotoSansCJKsc-Regular-74" transform="translate(701.599854 0)"/>
     <use xlink:href="#NotoSansCJKsc-Regular-65" transform="translate(739.29985 0)"/>
     <use xlink:href="#NotoSansCJKsc-Regular-6e" transform="translate(794.699844 0)"/>
     <use xlink:href="#NotoSansCJKsc-Regular-74" transform="translate(855.699829 0)"/>
    </g>
   </g>
   <g id="text_16">
    <!-- Ranking -->
    <g style="fill: #10b981" transform="translate(515.193 101.822812) scale(0.105 -0.105)">
     <defs>
      <path id="NotoSansCJKsc-Bold-6b" d="M 506 0 
L 1434 0 
L 1434 909 
L 1933 1491 
L 2803 0 
L 3827 0 
L 2483 2106 
L 3712 3584 
L 2682 3584 
L 1459 2048 
L 1434 2048 
L 1434 5107 
L 506 5107 
L 506 0 
z
" transform="scale(0.015625)"/>
     </defs>
     <use xlink:href="#NotoSansCJKsc-Bold-52"/>
     <use xlink:href="#NotoSansCJKsc-Bold-61" transform="translate(68.199982 0)"/>
     <use xlink:href="#NotoSansCJKsc-Bold-6e" transform="translate(127.299973 0)"/>
     <use xlink:href="#NotoSansCJKsc-Bold-6b" transform="translate(191.399963 0)"/>
     <use xlink:href="#NotoSansCJKsc-Bold-69" transform="translate(251.799957 0)"/>
     <use xlink:href="#NotoSansCJKsc-Bold-6e" transform="translate(282.199951 0)"/>
     <use xlink:href="#NotoSansCJKsc-Bold-67" transform="translate(346.299942 0)"/>
    </g>
   </g>
   <g id="text_17">
    <!-- 2000+ sequence -->
    <g style="fill: #475569" transform="translate(502.864875 115.772845) scale(0.09 -0.09)">
     <use xlink:href="#NotoSansCJKsc-Regular-32"/>
     <use xlink:href="#NotoSansCJKsc-Regular-30" transform="translate(55.499985 0)"/>
     <use xlink:href="#NotoSansCJKsc-Regular-30" transform="translate(110.999969 0)"/>
     <use xlink:href="#NotoSansCJKsc-Regular-30" transform="translate(166.499954 0)"/>
     <use xlink:href="#NotoSansCJKsc-Regular-2b" transform="translate(221.999939 0)"/>
     <use xlink:href="#NotoSansCJKsc-Regular-20" transform="translate(277.499924 0)"/>
     <use xlink:href="#NotoSansCJKsc-Regular-73" transform="translate(299.899918 0)"/>
     <use xlink:href="#NotoSansCJKsc-Regular-65" transform="translate(346.699905 0)"/>
     <use xlink:href="#NotoSansCJKsc-Regular-71" transform="translate(402.099899 0)"/>
     <use xlink:href="#NotoSansCJKsc-Regular-75" transform="translate(464.099884 0)"/>
     <use xlink:href="#NotoSansCJKsc-Regular-65" transform="translate(524.799881 0)"/>
     <use xlink:href="#NotoSansCJKsc-Regular-6e" transform="translate(580.199875 0)"/>
     <use xlink:href="#NotoSansCJKsc-Regular-63" transform="translate(641.19986 0)"/>
     <use xlink:href="#NotoSansCJKsc-Regular-65" transform="translate(692.199844 0)"/>
    </g>
   </g>
   <g id="text_18">
    <!-- online serving -->
    <g style="fill: #475569" transform="translate(507.063938 128.524045) scale(0.09 -0.09)">
     <use xlink:href="#NotoSansCJKsc-Regular-6f"/>
     <use xlink:href="#NotoSansCJKsc-Regular-6e" transform="translate(60.599991 0)"/>
     <use xlink:href="#NotoSansCJKsc-Regular-6c" transform="translate(121.599976 0)"/>
     <use xlink:href="#NotoSansCJKsc-Regular-69" transform="translate(149.999969 0)"/>
     <use xlink:href="#NotoSansCJKsc-Regular-6e" transform="translate(177.499954 0)"/>
     <use xlink:href="#NotoSansCJKsc-Regular-65" transform="translate(238.499939 0)"/>
     <use xlink:href="#NotoSansCJKsc-Regular-20" transform="translate(293.899933 0)"/>
     <use xlink:href="#NotoSansCJKsc-Regular-73" transform="translate(316.299927 0)"/>
     <use xlink:href="#NotoSansCJKsc-Regular-65" transform="translate(363.099915 0)"/>
     <use xlink:href="#NotoSansCJKsc-Regular-72" transform="translate(418.499908 0)"/>
     <use xlink:href="#NotoSansCJKsc-Regular-76" transform="translate(457.299896 0)"/>
     <use xlink:href="#NotoSansCJKsc-Regular-69" transform="translate(509.399887 0)"/>
     <use xlink:href="#NotoSansCJKsc-Regular-6e" transform="translate(536.899872 0)"/>
     <use xlink:href="#NotoSansCJKsc-Regular-67" transform="translate(597.899857 0)"/>
    </g>
   </g>
   <g id="text_19">
    <!-- better freshness -->
    <g style="fill: #475569" transform="translate(502.604016 141.275245) scale(0.09 -0.09)">
     <defs>
      <path id="NotoSansCJKsc-Regular-68" d="M 589 0 
L 1178 0 
L 1178 2522 
C 1523 2874 1766 3053 2125 3053 
C 2586 3053 2784 2778 2784 2125 
L 2784 0 
L 3366 0 
L 3366 2202 
C 3366 3085 3034 3565 2304 3565 
C 1830 3565 1472 3302 1152 2982 
L 1178 3699 
L 1178 5094 
L 589 5094 
L 589 0 
z
" transform="scale(0.015625)"/>
     </defs>
     <use xlink:href="#NotoSansCJKsc-Regular-62"/>
     <use xlink:href="#NotoSansCJKsc-Regular-65" transform="translate(61.799988 0)"/>
     <use xlink:href="#NotoSansCJKsc-Regular-74" transform="translate(117.199982 0)"/>
     <use xlink:href="#NotoSansCJKsc-Regular-74" transform="translate(154.899979 0)"/>
     <use xlink:href="#NotoSansCJKsc-Regular-65" transform="translate(192.599976 0)"/>
     <use xlink:href="#NotoSansCJKsc-Regular-72" transform="translate(247.999969 0)"/>
     <use xlink:href="#NotoSansCJKsc-Regular-20" transform="translate(286.799957 0)"/>
     <use xlink:href="#NotoSansCJKsc-Regular-66" transform="translate(309.199951 0)"/>
     <use xlink:href="#NotoSansCJKsc-Regular-72" transform="translate(341.699936 0)"/>
     <use xlink:href="#NotoSansCJKsc-Regular-65" transform="translate(380.499924 0)"/>
     <use xlink:href="#NotoSansCJKsc-Regular-73" transform="translate(435.899918 0)"/>
     <use xlink:href="#NotoSansCJKsc-Regular-68" transform="translate(482.699905 0)"/>
     <use xlink:href="#NotoSansCJKsc-Regular-6e" transform="translate(543.399902 0)"/>
     <use xlink:href="#NotoSansCJKsc-Regular-65" transform="translate(604.399887 0)"/>
     <use xlink:href="#NotoSansCJKsc-Regular-73" transform="translate(659.799881 0)"/>
     <use xlink:href="#NotoSansCJKsc-Regular-73" transform="translate(706.599869 0)"/>
    </g>
   </g>
   <g id="text_20">
    <!-- Key idea: replace ID tables with Semantic IDs and scale sequence length efficiently. -->
    <g style="fill: #64748b" transform="translate(142.414453 246.11256) scale(0.09 -0.09)">
     <defs>
      <path id="NotoSansCJKsc-Regular-4b" d="M 646 0 
L 1235 0 
L 1235 1485 
L 2042 2445 
L 3450 0 
L 4109 0 
L 2413 2912 
L 3885 4691 
L 3213 4691 
L 1248 2336 
L 1235 2336 
L 1235 4691 
L 646 4691 
L 646 0 
z
" transform="scale(0.015625)"/>
      <path id="NotoSansCJKsc-Regular-79" d="M 646 -1498 
C 1338 -1498 1702 -973 1946 -294 
L 3251 3475 
L 2682 3475 
L 2054 1549 
C 1965 1235 1862 883 1773 563 
L 1741 563 
C 1619 890 1504 1242 1395 1549 
L 691 3475 
L 83 3475 
L 1478 -6 
L 1402 -269 
C 1254 -698 1011 -1018 621 -1018 
C 525 -1018 422 -986 352 -960 
L 237 -1427 
C 346 -1472 486 -1498 646 -1498 
z
" transform="scale(0.015625)"/>
      <path id="NotoSansCJKsc-Regular-3a" d="M 890 2496 
C 1120 2496 1312 2675 1312 2944 
C 1312 3206 1120 3392 890 3392 
C 653 3392 467 3206 467 2944 
C 467 2675 653 2496 890 2496 
z
M 890 -83 
C 1120 -83 1312 96 1312 358 
C 1312 627 1120 806 890 806 
C 653 806 467 627 467 358 
C 467 96 653 -83 890 -83 
z
" transform="scale(0.015625)"/>
      <path id="NotoSansCJKsc-Regular-77" d="M 1139 0 
L 1818 0 
L 2310 1862 
C 2400 2195 2470 2522 2547 2874 
L 2579 2874 
C 2662 2522 2726 2202 2816 1875 
L 3315 0 
L 4026 0 
L 4966 3475 
L 4403 3475 
L 3898 1466 
C 3821 1133 3757 819 3686 499 
L 3654 499 
C 3571 819 3494 1133 3411 1466 
L 2867 3475 
L 2298 3475 
L 1754 1466 
C 1670 1133 1594 819 1523 499 
L 1491 499 
C 1421 819 1357 1133 1286 1466 
L 768 3475 
L 173 3475 
L 1139 0 
z
" transform="scale(0.015625)"/>
     </defs>
     <use xlink:href="#NotoSansCJKsc-Regular-4b"/>
     <use xlink:href="#NotoSansCJKsc-Regular-65" transform="translate(64.599991 0)"/>
     <use xlink:href="#NotoSansCJKsc-Regular-79" transform="translate(119.999985 0)"/>
     <use xlink:href="#NotoSansCJKsc-Regular-20" transform="translate(172.099976 0)"/>
     <use xlink:href="#NotoSansCJKsc-Regular-69" transform="translate(194.499969 0)"/>
     <use xlink:href="#NotoSansCJKsc-Regular-64" transform="translate(221.999954 0)"/>
     <use xlink:href="#NotoSansCJKsc-Regular-65" transform="translate(283.999939 0)"/>
     <use xlink:href="#NotoSansCJKsc-Regular-61" transform="translate(339.399933 0)"/>
     <use xlink:href="#NotoSansCJKsc-Regular-3a" transform="translate(395.699921 0)"/>
     <use xlink:href="#NotoSansCJKsc-Regular-20" transform="translate(423.499908 0)"/>
     <use xlink:href="#NotoSansCJKsc-Regular-72" transform="translate(445.899902 0)"/>
     <use xlink:href="#NotoSansCJKsc-Regular-65" transform="translate(484.69989 0)"/>
     <use xlink:href="#NotoSansCJKsc-Regular-70" transform="translate(540.099884 0)"/>
     <use xlink:href="#NotoSansCJKsc-Regular-6c" transform="translate(602.099869 0)"/>
     <use xlink:href="#NotoSansCJKsc-Regular-61" transform="translate(630.499863 0)"/>
     <use xlink:href="#NotoSansCJKsc-Regular-63" transform="translate(686.79985 0)"/>
     <use xlink:href="#NotoSansCJKsc-Regular-65" transform="translate(737.799835 0)"/>
     <use xlink:href="#NotoSansCJKsc-Regular-20" transform="translate(793.199829 0)"/>
     <use xlink:href="#NotoSansCJKsc-Regular-49" transform="translate(815.599823 0)"/>
     <use xlink:href="#NotoSansCJKsc-Regular-44" transform="translate(844.899811 0)"/>
     <use xlink:href="#NotoSansCJKsc-Regular-20" transform="translate(913.699799 0)"/>
     <use xlink:href="#NotoSansCJKsc-Regular-74" transform="translate(936.099792 0)"/>
     <use xlink:href="#NotoSansCJKsc-Regular-61" transform="translate(973.799789 0)"/>
     <use xlink:href="#NotoSansCJKsc-Regular-62" transform="translate(1030.099777 0)"/>
     <use xlink:href="#NotoSansCJKsc-Regular-6c" transform="translate(1091.899765 0)"/>
     <use xlink:href="#NotoSansCJKsc-Regular-65" transform="translate(1120.299759 0)"/>
     <use xlink:href="#NotoSansCJKsc-Regular-73" transform="translate(1175.699753 0)"/>
     <use xlink:href="#NotoSansCJKsc-Regular-20" transform="translate(1222.499741 0)"/>
     <use xlink:href="#NotoSansCJKsc-Regular-77" transform="translate(1244.899734 0)"/>
     <use xlink:href="#NotoSansCJKsc-Regular-69" transform="translate(1325.099716 0)"/>
     <use xlink:href="#NotoSansCJKsc-Regular-74" transform="translate(1352.599701 0)"/>
     <use xlink:href="#NotoSansCJKsc-Regular-68" transform="translate(1390.299698 0)"/>
     <use xlink:href="#NotoSansCJKsc-Regular-20" transform="translate(1450.999695 0)"/>
     <use xlink:href="#NotoSansCJKsc-Regular-53" transform="translate(1473.399689 0)"/>
     <use xlink:href="#NotoSansCJKsc-Regular-65" transform="translate(1532.99968 0)"/>
     <use xlink:href="#NotoSansCJKsc-Regular-6d" transform="translate(1588.399673 0)"/>
     <use xlink:href="#NotoSansCJKsc-Regular-61" transform="translate(1680.999664 0)"/>
     <use xlink:href="#NotoSansCJKsc-Regular-6e" transform="translate(1737.299652 0)"/>
     <use xlink:href="#NotoSansCJKsc-Regular-74" transform="translate(1798.299637 0)"/>
     <use xlink:href="#NotoSansCJKsc-Regular-69" transform="translate(1835.999634 0)"/>
     <use xlink:href="#NotoSansCJKsc-Regular-63" transform="translate(1863.499619 0)"/>
     <use xlink:href="#NotoSansCJKsc-Regular-20" transform="translate(1914.499603 0)"/>
     <use xlink:href="#NotoSansCJKsc-Regular-49" transform="translate(1936.899597 0)"/>
     <use xlink:href="#NotoSansCJKsc-Regular-44" transform="translate(1966.199585 0)"/>
     <use xlink:href="#NotoSansCJKsc-Regular-73" transform="translate(2034.999573 0)"/>
     <use xlink:href="#NotoSansCJKsc-Regular-20" transform="translate(2081.799561 0)"/>
     <use xlink:href="#NotoSansCJKsc-Regular-61" transform="translate(2104.199554 0)"/>
     <use xlink:href="#NotoSansCJKsc-Regular-6e" transform="translate(2160.499542 0)"/>
     <use xlink:href="#NotoSansCJKsc-Regular-64" transform="translate(2221.499527 0)"/>
     <use xlink:href="#NotoSansCJKsc-Regular-20" transform="translate(2283.499512 0)"/>
     <use xlink:href="#NotoSansCJKsc-Regular-73" transform="translate(2305.899506 0)"/>
     <use xlink:href="#NotoSansCJKsc-Regular-63" transform="translate(2352.699493 0)"/>
     <use xlink:href="#NotoSansCJKsc-Regular-61" transform="translate(2403.699478 0)"/>
     <use xlink:href="#NotoSansCJKsc-Regular-6c" transform="translate(2459.999466 0)"/>
     <use xlink:href="#NotoSansCJKsc-Regular-65" transform="translate(2488.39946 0)"/>
     <use xlink:href="#NotoSansCJKsc-Regular-20" transform="translate(2543.799454 0)"/>
     <use xlink:href="#NotoSansCJKsc-Regular-73" transform="translate(2566.199448 0)"/>
     <use xlink:href="#NotoSansCJKsc-Regular-65" transform="translate(2612.999435 0)"/>
     <use xlink:href="#NotoSansCJKsc-Regular-71" transform="translate(2668.399429 0)"/>
     <use xlink:href="#NotoSansCJKsc-Regular-75" transform="translate(2730.399414 0)"/>
     <use xlink:href="#NotoSansCJKsc-Regular-65" transform="translate(2791.099411 0)"/>
     <use xlink:href="#NotoSansCJKsc-Regular-6e" transform="translate(2846.499405 0)"/>
     <use xlink:href="#NotoSansCJKsc-Regular-63" transform="translate(2907.49939 0)"/>
     <use xlink:href="#NotoSansCJKsc-Regular-65" transform="translate(2958.499374 0)"/>
     <use xlink:href="#NotoSansCJKsc-Regular-20" transform="translate(3013.899368 0)"/>
     <use xlink:href="#NotoSansCJKsc-Regular-6c" transform="translate(3036.299362 0)"/>
     <use xlink:href="#NotoSansCJKsc-Regular-65" transform="translate(3064.699356 0)"/>
     <use xlink:href="#NotoSansCJKsc-Regular-6e" transform="translate(3120.09935 0)"/>
     <use xlink:href="#NotoSansCJKsc-Regular-67" transform="translate(3181.099335 0)"/>
     <use xlink:href="#NotoSansCJKsc-Regular-74" transform="translate(3237.499329 0)"/>
     <use xlink:href="#NotoSansCJKsc-Regular-68" transform="translate(3275.199326 0)"/>
     <use xlink:href="#NotoSansCJKsc-Regular-20" transform="translate(3335.899323 0)"/>
     <use xlink:href="#NotoSansCJKsc-Regular-65" transform="translate(3358.299316 0)"/>
     <use xlink:href="#NotoSansCJKsc-Regular-66" transform="translate(3413.69931 0)"/>
     <use xlink:href="#NotoSansCJKsc-Regular-66" transform="translate(3446.199295 0)"/>
     <use xlink:href="#NotoSansCJKsc-Regular-69" transform="translate(3478.69928 0)"/>
     <use xlink:href="#NotoSansCJKsc-Regular-63" transform="translate(3506.199265 0)"/>
     <use xlink:href="#NotoSansCJKsc-Regular-69" transform="translate(3557.199249 0)"/>
     <use xlink:href="#NotoSansCJKsc-Regular-65" transform="translate(3584.699234 0)"/>
     <use xlink:href="#NotoSansCJKsc-Regular-6e" transform="translate(3640.099228 0)"/>
     <use xlink:href="#NotoSansCJKsc-Regular-74" transform="translate(3701.099213 0)"/>
     <use xlink:href="#NotoSansCJKsc-Regular-6c" transform="translate(3738.79921 0)"/>
     <use xlink:href="#NotoSansCJKsc-Regular-79" transform="translate(3767.199203 0)"/>
     <use xlink:href="#NotoSansCJKsc-Regular-2e" transform="translate(3819.299194 0)"/>
    </g>
   </g>
   <g id="patch_11">
    <path d="M 16.0056 26.49168 
L 77.3856 26.49168 
L 77.3856 15.0156 
L 16.0056 15.0156 
z
" clip-path="url(#p84971eb002)" style="fill: #2563eb; stroke: #2563eb; stroke-linejoin: miter"/>
   </g>
  </g>
 </g>
 <defs>
  <clipPath id="p84971eb002">
   <rect x="8.64" y="8.64" width="613.8" height="255.024"/>
  </clipPath>
 </defs>
</svg>
