<svg xmlns="http://www.w3.org/2000/svg" viewBox="0 0 980 430" font-family="Inter, system-ui, sans-serif"><defs><marker id="arr" markerWidth="9" markerHeight="9" refX="7" refY="3" orient="auto"><path d="M0,0 L7,3 L0,6 Z" fill="#64748b"/></marker><filter id="sh" x="-20%" y="-20%" width="140%" height="140%"><feDropShadow dx="0" dy="3" stdDeviation="4" flood-color="#0f172a" flood-opacity="0.10"/></filter></defs><rect width="980" height="430" fill="#ffffff"/><text x="28" y="34" font-size="17" fill="#0f172a" font-weight="700" text-anchor="start">DSG — Decoupled Search Grounding (vendor-agnostic MCP gateway)</text><text x="28" y="54" font-size="12" fill="#64748b" font-weight="400" text-anchor="start">Move grounding OUT of the reasoning model; retrieval becomes a controllable interface</text><line x1="28" y1="66" x2="952" y2="66" stroke="#cbd5e1" stroke-width="1"/><rect x="40" y="120" width="150" height="90" rx="12" fill="#f7f8fb" stroke="#2563eb" stroke-width="1.5" filter="url(#sh)"/><text x="115" y="150" font-size="13" fill="#2563eb" font-weight="700" text-anchor="middle">LLM Agent</text><text x="115" y="172" font-size="10" fill="#64748b" font-weight="400" text-anchor="middle">(interchangeable</text><text x="115" y="186" font-size="10" fill="#64748b" font-weight="400" text-anchor="middle">reasoning model)</text><rect x="260" y="100" width="220" height="230" rx="12" fill="#ffffff" stroke="#7c3aed" stroke-width="1.5" filter="url(#sh)"/><text x="370" y="124" font-size="13" fill="#7c3aed" font-weight="700" text-anchor="middle">DSG Gateway (MCP)</text><rect x="276" y="142" width="188" height="28" rx="7" fill="#f7f8fb" stroke="#cbd5e1" stroke-width="1.5" filter="url(#sh)"/><text x="370" y="161" font-size="11" fill="#0f172a" font-weight="400" text-anchor="middle">Provider routing</text><rect x="276" y="177" width="188" height="28" rx="7" fill="#f7f8fb" stroke="#cbd5e1" stroke-width="1.5" filter="url(#sh)"/><text x="370" y="196" font-size="11" fill="#0f172a" font-weight="400" text-anchor="middle">Source-aware context</text><rect x="276" y="212" width="188" height="28" rx="7" fill="#f7f8fb" stroke="#cbd5e1" stroke-width="1.5" filter="url(#sh)"/><text x="370" y="231" font-size="11" fill="#0f172a" font-weight="400" text-anchor="middle">Configured fallback</text><rect x="276" y="247" width="188" height="28" rx="7" fill="#f7f8fb" stroke="#cbd5e1" stroke-width="1.5" filter="url(#sh)"/><text x="370" y="266" font-size="11" fill="#0f172a" font-weight="400" text-anchor="middle">Retrieval-depth ctrl</text><rect x="276" y="282" width="188" height="28" rx="7" fill="#f7f8fb" stroke="#cbd5e1" stroke-width="1.5" filter="url(#sh)"/><text x="370" y="301" font-size="11" fill="#0f172a" font-weight="400" text-anchor="middle">Exact + semantic cache</text><line x1="190" y1="165" x2="258" y2="165" stroke="#64748b" stroke-width="1.8" marker-end="url(#arr)"/><line x1="190" y1="185" x2="258" y2="185" stroke="#64748b" stroke-width="1.8" marker-end="url(#arr)"/><rect x="540" y="110" width="110" height="40" rx="8" fill="#f7f8fb" stroke="#0891b2" stroke-width="1.5" filter="url(#sh)"/><text x="595" y="135" font-size="12" fill="#0891b2" font-weight="700" text-anchor="middle">Search A</text><line x1="480" y1="130" x2="538" y2="130" stroke="#64748b" stroke-width="1.8" marker-end="url(#arr)"/><rect x="540" y="160" width="110" height="40" rx="8" fill="#f7f8fb" stroke="#0891b2" stroke-width="1.5" filter="url(#sh)"/><text x="595" y="185" font-size="12" fill="#0891b2" font-weight="700" text-anchor="middle">Search B</text><line x1="480" y1="160" x2="538" y2="180" stroke="#64748b" stroke-width="1.8" marker-end="url(#arr)"/><rect x="540" y="210" width="110" height="40" rx="8" fill="#f7f8fb" stroke="#0891b2" stroke-width="1.5" filter="url(#sh)"/><text x="595" y="235" font-size="12" fill="#0891b2" font-weight="700" text-anchor="middle">Search C</text><line x1="480" y1="190" x2="538" y2="230" stroke="#64748b" stroke-width="1.8" marker-end="url(#arr)"/><rect x="720" y="130" width="220" height="140" rx="12" fill="#f7f8fb" stroke="#10b981" stroke-width="1.5" filter="url(#sh)"/><text x="830" y="156" font-size="14" fill="#10b981" font-weight="700" text-anchor="middle">Outcomes</text><text x="830" y="182" font-size="11" fill="#64748b" font-weight="400" text-anchor="middle">SimpleQA 86.1% vs 87.7%</text><text x="830" y="198" font-size="11" fill="#64748b" font-weight="400" text-anchor="middle">search cost −91% (−98% QIU)</text><text x="830" y="214" font-size="11" fill="#64748b" font-weight="400" text-anchor="middle">warm-cache hit 99.4%</text><text x="830" y="230" font-size="11" fill="#64748b" font-weight="400" text-anchor="middle">latency −68%</text><text x="830" y="246" font-size="11" fill="#64748b" font-weight="400" text-anchor="middle">no Search-Induced Verbosity</text><line x1="660" y1="175" x2="718" y2="175" stroke="#64748b" stroke-width="1.8" marker-end="url(#arr)"/><text x="40" y="400" font-size="12" fill="#64748b" font-weight="500" text-anchor="start">E-commerce Query Intent Understanding (QIU) production workload: matches native search at &gt;98% lower cost</text></svg>