<?xml version="1.0" encoding="utf-8" standalone="no"?>
<!DOCTYPE svg PUBLIC "-//W3C//DTD SVG 1.1//EN"
  "http://www.w3.org/Graphics/SVG/1.1/DTD/svg11.dtd">
<svg xmlns:xlink="http://www.w3.org/1999/xlink" width="787.896pt" height="315.583pt" viewBox="0 0 787.896 315.583" xmlns="http://www.w3.org/2000/svg" version="1.1">
 <metadata>
  <rdf:RDF xmlns:dc="http://purl.org/dc/elements/1.1/" xmlns:cc="http://creativecommons.org/ns#" xmlns:rdf="http://www.w3.org/1999/02/22-rdf-syntax-ns#">
   <cc:Work>
    <dc:type rdf:resource="http://purl.org/dc/dcmitype/StillImage"/>
    <dc:date>2026-06-25T19:42:37.715609</dc:date>
    <dc:format>image/svg+xml</dc:format>
    <dc:creator>
     <cc:Agent>
      <dc:title>Matplotlib v3.10.5, https://matplotlib.org/</dc:title>
     </cc:Agent>
    </dc:creator>
   </cc:Work>
  </rdf:RDF>
 </metadata>
 <defs>
  <style type="text/css">*{stroke-linejoin: round; stroke-linecap: butt}</style>
 </defs>
 <g id="figure_1">
  <g id="patch_1">
   <path d="M 0 315.583 
L 787.896 315.583 
L 787.896 0 
L 0 0 
z
" style="fill: #ffffff"/>
  </g>
  <g id="axes_1">
   <g id="patch_2">
    <path d="M 55.766 288.668 
L 779.256 288.668 
L 779.256 76.092 
L 55.766 76.092 
z
" style="fill: #ffffff"/>
   </g>
   <g id="matplotlib.axis_1">
    <g id="xtick_1">
     <g id="line2d_1">
      <defs>
       <path id="m693c6fd035" d="M 0 0 
L 0 3.5 
" style="stroke: #475569; stroke-width: 0.8"/>
      </defs>
      <g>
       <use xlink:href="#m693c6fd035" x="143.461758" y="288.668" style="fill: #475569; stroke: #475569; stroke-width: 0.8"/>
      </g>
     </g>
     <g id="text_1">
      <!-- Beauty -->
      <g style="fill: #475569" transform="translate(125.426914 304.368312) scale(0.11 -0.11)">
       <defs>
        <path id="NotoSansCJKsc-Regular-42" d="M 646 0 
L 2138 0 
C 3187 0 3917 454 3917 1376 
C 3917 2016 3520 2387 2963 2496 
L 2963 2528 
C 3405 2669 3648 3078 3648 3546 
C 3648 4371 2982 4691 2035 4691 
L 646 4691 
L 646 0 
z
M 1235 2701 
L 1235 4224 
L 1958 4224 
C 2694 4224 3066 4019 3066 3469 
C 3066 2989 2739 2701 1933 2701 
L 1235 2701 
z
M 1235 474 
L 1235 2240 
L 2054 2240 
C 2880 2240 3334 1978 3334 1395 
C 3334 762 2861 474 2054 474 
L 1235 474 
z
" transform="scale(0.015625)"/>
        <path id="NotoSansCJKsc-Regular-65" d="M 1997 -83 
C 2464 -83 2835 70 3136 269 
L 2931 659 
C 2669 486 2400 384 2061 384 
C 1402 384 947 858 909 1600 
L 3251 1600 
C 3264 1690 3277 1805 3277 1933 
C 3277 2925 2778 3565 1888 3565 
C 1094 3565 333 2867 333 1734 
C 333 589 1069 -83 1997 -83 
z
M 902 2016 
C 973 2707 1408 3098 1901 3098 
C 2445 3098 2765 2720 2765 2016 
L 902 2016 
z
" transform="scale(0.015625)"/>
        <path id="NotoSansCJKsc-Regular-61" d="M 1389 -83 
C 1818 -83 2208 141 2541 416 
L 2560 416 
L 2611 0 
L 3091 0 
L 3091 2138 
C 3091 3002 2739 3565 1888 3565 
C 1325 3565 838 3315 525 3110 
L 749 2707 
C 1024 2893 1389 3078 1792 3078 
C 2362 3078 2509 2650 2509 2202 
C 1030 2035 378 1658 378 902 
C 378 275 806 -83 1389 -83 
z
M 1555 390 
C 1210 390 941 544 941 941 
C 941 1389 1338 1677 2509 1811 
L 2509 845 
C 2170 544 1888 390 1555 390 
z
" transform="scale(0.015625)"/>
        <path id="NotoSansCJKsc-Regular-75" d="M 1606 -83 
C 2080 -83 2426 166 2752 544 
L 2771 544 
L 2816 0 
L 3302 0 
L 3302 3475 
L 2720 3475 
L 2720 1011 
C 2387 602 2138 422 1779 422 
C 1318 422 1126 698 1126 1344 
L 1126 3475 
L 538 3475 
L 538 1274 
C 538 384 870 -83 1606 -83 
z
" transform="scale(0.015625)"/>
        <path id="NotoSansCJKsc-Regular-74" d="M 1677 -83 
C 1894 -83 2125 -19 2323 45 
L 2208 486 
C 2093 435 1939 390 1811 390 
C 1408 390 1274 634 1274 1056 
L 1274 3002 
L 2221 3002 
L 2221 3475 
L 1274 3475 
L 1274 4454 
L 787 4454 
L 723 3475 
L 173 3443 
L 173 3002 
L 691 3002 
L 691 1075 
C 691 378 941 -83 1677 -83 
z
" transform="scale(0.015625)"/>
        <path id="NotoSansCJKsc-Regular-79" d="M 646 -1498 
C 1338 -1498 1702 -973 1946 -294 
L 3251 3475 
L 2682 3475 
L 2054 1549 
C 1965 1235 1862 883 1773 563 
L 1741 563 
C 1619 890 1504 1242 1395 1549 
L 691 3475 
L 83 3475 
L 1478 -6 
L 1402 -269 
C 1254 -698 1011 -1018 621 -1018 
C 525 -1018 422 -986 352 -960 
L 237 -1427 
C 346 -1472 486 -1498 646 -1498 
z
" transform="scale(0.015625)"/>
       </defs>
       <use xlink:href="#NotoSansCJKsc-Regular-42"/>
       <use xlink:href="#NotoSansCJKsc-Regular-65" transform="translate(65.699997 0)"/>
       <use xlink:href="#NotoSansCJKsc-Regular-61" transform="translate(121.099991 0)"/>
       <use xlink:href="#NotoSansCJKsc-Regular-75" transform="translate(177.399979 0)"/>
       <use xlink:href="#NotoSansCJKsc-Regular-74" transform="translate(238.099976 0)"/>
       <use xlink:href="#NotoSansCJKsc-Regular-79" transform="translate(275.799973 0)"/>
      </g>
     </g>
    </g>
    <g id="xtick_2">
     <g id="line2d_2">
      <g>
       <use xlink:href="#m693c6fd035" x="326.161253" y="288.668" style="fill: #475569; stroke: #475569; stroke-width: 0.8"/>
      </g>
     </g>
     <g id="text_2">
      <!-- Toys -->
      <g style="fill: #475569" transform="translate(314.094768 304.368312) scale(0.11 -0.11)">
       <defs>
        <path id="NotoSansCJKsc-Regular-54" d="M 1619 0 
L 2214 0 
L 2214 4192 
L 3635 4192 
L 3635 4691 
L 198 4691 
L 198 4192 
L 1619 4192 
L 1619 0 
z
" transform="scale(0.015625)"/>
        <path id="NotoSansCJKsc-Regular-6f" d="M 1939 -83 
C 2790 -83 3546 582 3546 1734 
C 3546 2893 2790 3565 1939 3565 
C 1088 3565 333 2893 333 1734 
C 333 582 1088 -83 1939 -83 
z
M 1939 403 
C 1338 403 934 934 934 1734 
C 934 2534 1338 3072 1939 3072 
C 2541 3072 2950 2534 2950 1734 
C 2950 934 2541 403 1939 403 
z
" transform="scale(0.015625)"/>
        <path id="NotoSansCJKsc-Regular-73" d="M 1498 -83 
C 2317 -83 2758 384 2758 947 
C 2758 1606 2208 1811 1702 2003 
C 1312 2150 954 2278 954 2605 
C 954 2880 1158 3110 1600 3110 
C 1907 3110 2150 2976 2387 2803 
L 2669 3168 
C 2406 3386 2022 3565 1594 3565 
C 832 3565 397 3130 397 2579 
C 397 1984 922 1754 1408 1574 
C 1792 1434 2202 1267 2202 915 
C 2202 614 1978 371 1517 371 
C 1101 371 794 538 486 787 
L 205 397 
C 531 122 1005 -83 1498 -83 
z
" transform="scale(0.015625)"/>
       </defs>
       <use xlink:href="#NotoSansCJKsc-Regular-54"/>
       <use xlink:href="#NotoSansCJKsc-Regular-6f" transform="translate(59.899994 0)"/>
       <use xlink:href="#NotoSansCJKsc-Regular-79" transform="translate(120.499985 0)"/>
       <use xlink:href="#NotoSansCJKsc-Regular-73" transform="translate(172.599976 0)"/>
      </g>
     </g>
    </g>
    <g id="xtick_3">
     <g id="line2d_3">
      <g>
       <use xlink:href="#m693c6fd035" x="508.860747" y="288.668" style="fill: #475569; stroke: #475569; stroke-width: 0.8"/>
      </g>
     </g>
     <g id="text_3">
      <!-- Sports -->
      <g style="fill: #475569" transform="translate(492.059107 304.423312) scale(0.11 -0.11)">
       <defs>
        <path id="NotoSansCJKsc-Regular-53" d="M 1946 -83 
C 2925 -83 3539 506 3539 1248 
C 3539 1946 3117 2266 2573 2502 
L 1907 2790 
C 1542 2944 1126 3117 1126 3578 
C 1126 3994 1472 4256 2003 4256 
C 2438 4256 2784 4090 3072 3821 
L 3379 4198 
C 3053 4538 2560 4774 2003 4774 
C 1152 4774 525 4256 525 3533 
C 525 2848 1043 2515 1478 2330 
L 2150 2035 
C 2598 1837 2938 1683 2938 1197 
C 2938 742 2573 435 1952 435 
C 1466 435 992 666 659 1018 
L 307 608 
C 710 186 1280 -83 1946 -83 
z
" transform="scale(0.015625)"/>
        <path id="NotoSansCJKsc-Regular-70" d="M 589 -1466 
L 1178 -1466 
L 1178 -288 
L 1158 320 
C 1472 58 1805 -83 2118 -83 
C 2912 -83 3629 602 3629 1792 
C 3629 2867 3142 3565 2246 3565 
C 1843 3565 1453 3334 1139 3072 
L 1126 3072 
L 1069 3475 
L 589 3475 
L 589 -1466 
z
M 2022 410 
C 1792 410 1485 499 1178 768 
L 1178 2598 
C 1510 2906 1811 3072 2099 3072 
C 2765 3072 3021 2560 3021 1786 
C 3021 928 2598 410 2022 410 
z
" transform="scale(0.015625)"/>
        <path id="NotoSansCJKsc-Regular-72" d="M 589 0 
L 1178 0 
L 1178 2234 
C 1408 2822 1760 3040 2048 3040 
C 2195 3040 2272 3021 2387 2982 
L 2496 3488 
C 2387 3546 2278 3565 2125 3565 
C 1741 3565 1382 3283 1139 2842 
L 1126 2842 
L 1069 3475 
L 589 3475 
L 589 0 
z
" transform="scale(0.015625)"/>
       </defs>
       <use xlink:href="#NotoSansCJKsc-Regular-53"/>
       <use xlink:href="#NotoSansCJKsc-Regular-70" transform="translate(59.599991 0)"/>
       <use xlink:href="#NotoSansCJKsc-Regular-6f" transform="translate(121.599976 0)"/>
       <use xlink:href="#NotoSansCJKsc-Regular-72" transform="translate(182.199966 0)"/>
       <use xlink:href="#NotoSansCJKsc-Regular-74" transform="translate(220.999954 0)"/>
       <use xlink:href="#NotoSansCJKsc-Regular-73" transform="translate(258.699951 0)"/>
      </g>
     </g>
    </g>
    <g id="xtick_4">
     <g id="line2d_4">
      <g>
       <use xlink:href="#m693c6fd035" x="691.560242" y="288.668" style="fill: #475569; stroke: #475569; stroke-width: 0.8"/>
      </g>
     </g>
     <g id="text_4">
      <!-- Yelp -->
      <g style="fill: #475569" transform="translate(680.620399 304.423312) scale(0.11 -0.11)">
       <defs>
        <path id="NotoSansCJKsc-Regular-59" d="M 1402 0 
L 1990 0 
L 1990 1818 
L 3405 4691 
L 2790 4691 
L 2189 3366 
C 2042 3021 1882 2688 1715 2336 
L 1690 2336 
C 1523 2688 1382 3021 1229 3366 
L 621 4691 
L -6 4691 
L 1402 1818 
L 1402 0 
z
" transform="scale(0.015625)"/>
        <path id="NotoSansCJKsc-Regular-6c" d="M 1203 -83 
C 1363 -83 1459 -58 1542 -32 
L 1459 416 
C 1395 403 1370 403 1338 403 
C 1248 403 1178 474 1178 653 
L 1178 5094 
L 589 5094 
L 589 691 
C 589 198 768 -83 1203 -83 
z
" transform="scale(0.015625)"/>
       </defs>
       <use xlink:href="#NotoSansCJKsc-Regular-59"/>
       <use xlink:href="#NotoSansCJKsc-Regular-65" transform="translate(53.099991 0)"/>
       <use xlink:href="#NotoSansCJKsc-Regular-6c" transform="translate(108.499985 0)"/>
       <use xlink:href="#NotoSansCJKsc-Regular-70" transform="translate(136.899979 0)"/>
      </g>
     </g>
    </g>
   </g>
   <g id="matplotlib.axis_2">
    <g id="ytick_1">
     <g id="line2d_5">
      <path d="M 55.766 288.668 
L 779.256 288.668 
" clip-path="url(#p9683bdc6e4)" style="fill: none; stroke: #e5e7eb; stroke-width: 0.8; stroke-linecap: square"/>
     </g>
     <g id="line2d_6">
      <defs>
       <path id="m453f67bf31" d="M 0 0 
L -3.5 0 
" style="stroke: #475569; stroke-width: 0.8"/>
      </defs>
      <g>
       <use xlink:href="#m453f67bf31" x="55.766" y="288.668" style="fill: #475569; stroke: #475569; stroke-width: 0.8"/>
      </g>
     </g>
     <g id="text_5">
      <!-- 0.00 -->
      <g style="fill: #475569" transform="translate(27.393344 293.045656) scale(0.11 -0.11)">
       <defs>
        <path id="NotoSansCJKsc-Regular-30" d="M 1779 -83 
C 2669 -83 3238 723 3238 2362 
C 3238 3987 2669 4774 1779 4774 
C 883 4774 320 3987 320 2362 
C 320 723 883 -83 1779 -83 
z
M 1779 390 
C 1248 390 883 986 883 2362 
C 883 3731 1248 4314 1779 4314 
C 2310 4314 2675 3731 2675 2362 
C 2675 986 2310 390 1779 390 
z
" transform="scale(0.015625)"/>
        <path id="NotoSansCJKsc-Regular-2e" d="M 890 -83 
C 1120 -83 1312 96 1312 358 
C 1312 627 1120 806 890 806 
C 653 806 467 627 467 358 
C 467 96 653 -83 890 -83 
z
" transform="scale(0.015625)"/>
       </defs>
       <use xlink:href="#NotoSansCJKsc-Regular-30"/>
       <use xlink:href="#NotoSansCJKsc-Regular-2e" transform="translate(55.499985 0)"/>
       <use xlink:href="#NotoSansCJKsc-Regular-30" transform="translate(83.299973 0)"/>
       <use xlink:href="#NotoSansCJKsc-Regular-30" transform="translate(138.799957 0)"/>
      </g>
     </g>
    </g>
    <g id="ytick_2">
     <g id="line2d_7">
      <path d="M 55.766 258.3 
L 779.256 258.3 
" clip-path="url(#p9683bdc6e4)" style="fill: none; stroke: #e5e7eb; stroke-width: 0.8; stroke-linecap: square"/>
     </g>
     <g id="line2d_8">
      <g>
       <use xlink:href="#m453f67bf31" x="55.766" y="258.3" style="fill: #475569; stroke: #475569; stroke-width: 0.8"/>
      </g>
     </g>
     <g id="text_6">
      <!-- 0.02 -->
      <g style="fill: #475569" transform="translate(27.393344 262.677656) scale(0.11 -0.11)">
       <defs>
        <path id="NotoSansCJKsc-Regular-32" d="M 282 0 
L 3232 0 
L 3232 506 
L 1933 506 
C 1696 506 1408 480 1165 461 
C 2266 1504 3008 2458 3008 3398 
C 3008 4230 2477 4774 1638 4774 
C 1043 4774 634 4506 256 4090 
L 595 3757 
C 858 4070 1184 4301 1568 4301 
C 2150 4301 2432 3910 2432 3373 
C 2432 2566 1754 1632 282 346 
L 282 0 
z
" transform="scale(0.015625)"/>
       </defs>
       <use xlink:href="#NotoSansCJKsc-Regular-30"/>
       <use xlink:href="#NotoSansCJKsc-Regular-2e" transform="translate(55.499985 0)"/>
       <use xlink:href="#NotoSansCJKsc-Regular-30" transform="translate(83.299973 0)"/>
       <use xlink:href="#NotoSansCJKsc-Regular-32" transform="translate(138.799957 0)"/>
      </g>
     </g>
    </g>
    <g id="ytick_3">
     <g id="line2d_9">
      <path d="M 55.766 227.932 
L 779.256 227.932 
" clip-path="url(#p9683bdc6e4)" style="fill: none; stroke: #e5e7eb; stroke-width: 0.8; stroke-linecap: square"/>
     </g>
     <g id="line2d_10">
      <g>
       <use xlink:href="#m453f67bf31" x="55.766" y="227.932" style="fill: #475569; stroke: #475569; stroke-width: 0.8"/>
      </g>
     </g>
     <g id="text_7">
      <!-- 0.04 -->
      <g style="fill: #475569" transform="translate(27.393344 232.309656) scale(0.11 -0.11)">
       <defs>
        <path id="NotoSansCJKsc-Regular-34" d="M 2176 0 
L 2726 0 
L 2726 1293 
L 3354 1293 
L 3354 1760 
L 2726 1760 
L 2726 4691 
L 2080 4691 
L 128 1677 
L 128 1293 
L 2176 1293 
L 2176 0 
z
M 2176 1760 
L 736 1760 
L 1805 3360 
C 1939 3590 2067 3827 2182 4051 
L 2208 4051 
C 2195 3814 2176 3430 2176 3200 
L 2176 1760 
z
" transform="scale(0.015625)"/>
       </defs>
       <use xlink:href="#NotoSansCJKsc-Regular-30"/>
       <use xlink:href="#NotoSansCJKsc-Regular-2e" transform="translate(55.499985 0)"/>
       <use xlink:href="#NotoSansCJKsc-Regular-30" transform="translate(83.299973 0)"/>
       <use xlink:href="#NotoSansCJKsc-Regular-34" transform="translate(138.799957 0)"/>
      </g>
     </g>
    </g>
    <g id="ytick_4">
     <g id="line2d_11">
      <path d="M 55.766 197.564 
L 779.256 197.564 
" clip-path="url(#p9683bdc6e4)" style="fill: none; stroke: #e5e7eb; stroke-width: 0.8; stroke-linecap: square"/>
     </g>
     <g id="line2d_12">
      <g>
       <use xlink:href="#m453f67bf31" x="55.766" y="197.564" style="fill: #475569; stroke: #475569; stroke-width: 0.8"/>
      </g>
     </g>
     <g id="text_8">
      <!-- 0.06 -->
      <g style="fill: #475569" transform="translate(27.393344 201.941656) scale(0.11 -0.11)">
       <defs>
        <path id="NotoSansCJKsc-Regular-36" d="M 1926 -83 
C 2656 -83 3277 531 3277 1440 
C 3277 2426 2765 2912 1971 2912 
C 1606 2912 1197 2701 909 2349 
C 934 3802 1466 4294 2118 4294 
C 2400 4294 2682 4154 2861 3936 
L 3194 4294 
C 2931 4576 2579 4774 2093 4774 
C 1184 4774 358 4077 358 2240 
C 358 691 1030 -83 1926 -83 
z
M 922 1882 
C 1229 2317 1587 2477 1875 2477 
C 2445 2477 2720 2074 2720 1440 
C 2720 800 2374 378 1926 378 
C 1338 378 986 909 922 1882 
z
" transform="scale(0.015625)"/>
       </defs>
       <use xlink:href="#NotoSansCJKsc-Regular-30"/>
       <use xlink:href="#NotoSansCJKsc-Regular-2e" transform="translate(55.499985 0)"/>
       <use xlink:href="#NotoSansCJKsc-Regular-30" transform="translate(83.299973 0)"/>
       <use xlink:href="#NotoSansCJKsc-Regular-36" transform="translate(138.799957 0)"/>
      </g>
     </g>
    </g>
    <g id="ytick_5">
     <g id="line2d_13">
      <path d="M 55.766 167.196 
L 779.256 167.196 
" clip-path="url(#p9683bdc6e4)" style="fill: none; stroke: #e5e7eb; stroke-width: 0.8; stroke-linecap: square"/>
     </g>
     <g id="line2d_14">
      <g>
       <use xlink:href="#m453f67bf31" x="55.766" y="167.196" style="fill: #475569; stroke: #475569; stroke-width: 0.8"/>
      </g>
     </g>
     <g id="text_9">
      <!-- 0.08 -->
      <g style="fill: #475569" transform="translate(27.393344 171.573656) scale(0.11 -0.11)">
       <defs>
        <path id="NotoSansCJKsc-Regular-38" d="M 1792 -83 
C 2669 -83 3258 448 3258 1126 
C 3258 1773 2880 2125 2470 2362 
L 2470 2394 
C 2746 2611 3091 3034 3091 3526 
C 3091 4250 2605 4762 1805 4762 
C 1075 4762 518 4282 518 3571 
C 518 3078 813 2726 1152 2490 
L 1152 2464 
C 723 2234 294 1792 294 1165 
C 294 442 922 -83 1792 -83 
z
M 2112 2547 
C 1555 2765 1050 3014 1050 3571 
C 1050 4026 1363 4326 1798 4326 
C 2298 4326 2592 3962 2592 3494 
C 2592 3149 2426 2829 2112 2547 
z
M 1798 352 
C 1235 352 813 717 813 1216 
C 813 1664 1082 2035 1459 2278 
C 2125 2010 2701 1779 2701 1146 
C 2701 678 2342 352 1798 352 
z
" transform="scale(0.015625)"/>
       </defs>
       <use xlink:href="#NotoSansCJKsc-Regular-30"/>
       <use xlink:href="#NotoSansCJKsc-Regular-2e" transform="translate(55.499985 0)"/>
       <use xlink:href="#NotoSansCJKsc-Regular-30" transform="translate(83.299973 0)"/>
       <use xlink:href="#NotoSansCJKsc-Regular-38" transform="translate(138.799957 0)"/>
      </g>
     </g>
    </g>
    <g id="ytick_6">
     <g id="line2d_15">
      <path d="M 55.766 136.828 
L 779.256 136.828 
" clip-path="url(#p9683bdc6e4)" style="fill: none; stroke: #e5e7eb; stroke-width: 0.8; stroke-linecap: square"/>
     </g>
     <g id="line2d_16">
      <g>
       <use xlink:href="#m453f67bf31" x="55.766" y="136.828" style="fill: #475569; stroke: #475569; stroke-width: 0.8"/>
      </g>
     </g>
     <g id="text_10">
      <!-- 0.10 -->
      <g style="fill: #475569" transform="translate(27.393344 141.205656) scale(0.11 -0.11)">
       <defs>
        <path id="NotoSansCJKsc-Regular-31" d="M 563 0 
L 3136 0 
L 3136 486 
L 2195 486 
L 2195 4691 
L 1747 4691 
C 1491 4544 1190 4435 774 4358 
L 774 3987 
L 1613 3987 
L 1613 486 
L 563 486 
L 563 0 
z
" transform="scale(0.015625)"/>
       </defs>
       <use xlink:href="#NotoSansCJKsc-Regular-30"/>
       <use xlink:href="#NotoSansCJKsc-Regular-2e" transform="translate(55.499985 0)"/>
       <use xlink:href="#NotoSansCJKsc-Regular-31" transform="translate(83.299973 0)"/>
       <use xlink:href="#NotoSansCJKsc-Regular-30" transform="translate(138.799957 0)"/>
      </g>
     </g>
    </g>
    <g id="ytick_7">
     <g id="line2d_17">
      <path d="M 55.766 106.46 
L 779.256 106.46 
" clip-path="url(#p9683bdc6e4)" style="fill: none; stroke: #e5e7eb; stroke-width: 0.8; stroke-linecap: square"/>
     </g>
     <g id="line2d_18">
      <g>
       <use xlink:href="#m453f67bf31" x="55.766" y="106.46" style="fill: #475569; stroke: #475569; stroke-width: 0.8"/>
      </g>
     </g>
     <g id="text_11">
      <!-- 0.12 -->
      <g style="fill: #475569" transform="translate(27.393344 110.837656) scale(0.11 -0.11)">
       <use xlink:href="#NotoSansCJKsc-Regular-30"/>
       <use xlink:href="#NotoSansCJKsc-Regular-2e" transform="translate(55.499985 0)"/>
       <use xlink:href="#NotoSansCJKsc-Regular-31" transform="translate(83.299973 0)"/>
       <use xlink:href="#NotoSansCJKsc-Regular-32" transform="translate(138.799957 0)"/>
      </g>
     </g>
    </g>
    <g id="ytick_8">
     <g id="line2d_19">
      <path d="M 55.766 76.092 
L 779.256 76.092 
" clip-path="url(#p9683bdc6e4)" style="fill: none; stroke: #e5e7eb; stroke-width: 0.8; stroke-linecap: square"/>
     </g>
     <g id="line2d_20">
      <g>
       <use xlink:href="#m453f67bf31" x="55.766" y="76.092" style="fill: #475569; stroke: #475569; stroke-width: 0.8"/>
      </g>
     </g>
     <g id="text_12">
      <!-- 0.14 -->
      <g style="fill: #475569" transform="translate(27.393344 80.469656) scale(0.11 -0.11)">
       <use xlink:href="#NotoSansCJKsc-Regular-30"/>
       <use xlink:href="#NotoSansCJKsc-Regular-2e" transform="translate(55.499985 0)"/>
       <use xlink:href="#NotoSansCJKsc-Regular-31" transform="translate(83.299973 0)"/>
       <use xlink:href="#NotoSansCJKsc-Regular-34" transform="translate(138.799957 0)"/>
      </g>
     </g>
    </g>
    <g id="text_13">
     <!-- HR@10 -->
     <g style="fill: #0f172a" transform="translate(20.873656 201.183984) rotate(-90) scale(0.11 -0.11)">
      <defs>
       <path id="NotoSansCJKsc-Regular-48" d="M 646 0 
L 1235 0 
L 1235 2214 
L 3424 2214 
L 3424 0 
L 4019 0 
L 4019 4691 
L 3424 4691 
L 3424 2726 
L 1235 2726 
L 1235 4691 
L 646 4691 
L 646 0 
z
" transform="scale(0.015625)"/>
       <path id="NotoSansCJKsc-Regular-52" d="M 1235 2464 
L 1235 4211 
L 2022 4211 
C 2758 4211 3162 3994 3162 3379 
C 3162 2765 2758 2464 2022 2464 
L 1235 2464 
z
M 3219 0 
L 3885 0 
L 2694 2054 
C 3328 2208 3750 2643 3750 3379 
C 3750 4352 3066 4691 2112 4691 
L 646 4691 
L 646 0 
L 1235 0 
L 1235 1990 
L 2080 1990 
L 3219 0 
z
" transform="scale(0.015625)"/>
       <path id="NotoSansCJKsc-Regular-40" d="M 2874 -1107 
C 3373 -1107 3821 -992 4237 -742 
L 4077 -397 
C 3763 -582 3360 -717 2918 -717 
C 1702 -717 787 77 787 1472 
C 787 3142 2022 4230 3296 4230 
C 4595 4230 5280 3386 5280 2227 
C 5280 1306 4768 749 4314 749 
C 3923 749 3782 1024 3923 1594 
L 4205 3021 
L 3821 3021 
L 3738 2726 
L 3725 2726 
C 3590 2963 3398 3078 3155 3078 
C 2317 3078 1773 2176 1773 1421 
C 1773 768 2150 403 2637 403 
C 2957 403 3277 621 3507 896 
L 3526 896 
C 3571 531 3872 352 4262 352 
C 4909 352 5690 1005 5690 2253 
C 5690 3661 4781 4621 3347 4621 
C 1747 4621 358 3366 358 1453 
C 358 -218 1478 -1107 2874 -1107 
z
M 2752 806 
C 2464 806 2246 992 2246 1453 
C 2246 1997 2598 2669 3155 2669 
C 3354 2669 3482 2592 3616 2368 
L 3418 1235 
C 3168 934 2950 806 2752 806 
z
" transform="scale(0.015625)"/>
      </defs>
      <use xlink:href="#NotoSansCJKsc-Regular-48"/>
      <use xlink:href="#NotoSansCJKsc-Regular-52" transform="translate(72.799988 0)"/>
      <use xlink:href="#NotoSansCJKsc-Regular-40" transform="translate(136.299973 0)"/>
      <use xlink:href="#NotoSansCJKsc-Regular-31" transform="translate(230.899963 0)"/>
      <use xlink:href="#NotoSansCJKsc-Regular-30" transform="translate(286.399948 0)"/>
     </g>
    </g>
   </g>
   <g id="patch_3">
    <path d="M 55.766 288.668 
L 55.766 76.092 
" style="fill: none; stroke: #94a3b8; stroke-width: 0.8; stroke-linejoin: miter; stroke-linecap: square"/>
   </g>
   <g id="patch_4">
    <path d="M 55.766 288.668 
L 779.256 288.668 
" style="fill: none; stroke: #94a3b8; stroke-width: 0.8; stroke-linejoin: miter; stroke-linecap: square"/>
   </g>
   <g id="patch_5">
    <path d="M 88.651909 288.668 
L 198.271606 288.668 
L 198.271606 128.4768 
L 88.651909 128.4768 
z
" clip-path="url(#p9683bdc6e4)" style="fill: #2563eb"/>
   </g>
   <g id="patch_6">
    <path d="M 271.351404 288.668 
L 380.971101 288.668 
L 380.971101 114.50752 
L 271.351404 114.50752 
z
" clip-path="url(#p9683bdc6e4)" style="fill: #10b981"/>
   </g>
   <g id="patch_7">
    <path d="M 454.050899 288.668 
L 563.670596 288.668 
L 563.670596 195.89376 
L 454.050899 195.89376 
z
" clip-path="url(#p9683bdc6e4)" style="fill: #0891b2"/>
   </g>
   <g id="patch_8">
    <path d="M 636.750394 288.668 
L 746.370091 288.668 
L 746.370091 220.03632 
L 636.750394 220.03632 
z
" clip-path="url(#p9683bdc6e4)" style="fill: #7c3aed"/>
   </g>
   <g id="text_14">
    <!-- 0.1055 -->
    <g style="fill: #0f172a" transform="translate(128.233008 126.4773) scale(0.093 -0.093)">
     <defs>
      <path id="NotoSansCJKsc-Bold-30" d="M 1888 -90 
C 2854 -90 3494 755 3494 2394 
C 3494 4019 2854 4826 1888 4826 
C 922 4826 282 4026 282 2394 
C 282 755 922 -90 1888 -90 
z
M 1888 646 
C 1478 646 1171 1056 1171 2394 
C 1171 3712 1478 4102 1888 4102 
C 2298 4102 2598 3712 2598 2394 
C 2598 1056 2298 646 1888 646 
z
" transform="scale(0.015625)"/>
      <path id="NotoSansCJKsc-Bold-2e" d="M 1043 -90 
C 1376 -90 1626 179 1626 525 
C 1626 877 1376 1139 1043 1139 
C 704 1139 454 877 454 525 
C 454 179 704 -90 1043 -90 
z
" transform="scale(0.015625)"/>
      <path id="NotoSansCJKsc-Bold-31" d="M 525 0 
L 3373 0 
L 3373 768 
L 2483 768 
L 2483 4742 
L 1786 4742 
C 1485 4550 1165 4429 685 4346 
L 685 3757 
L 1549 3757 
L 1549 768 
L 525 768 
L 525 0 
z
" transform="scale(0.015625)"/>
      <path id="NotoSansCJKsc-Bold-35" d="M 1773 -90 
C 2637 -90 3424 518 3424 1574 
C 3424 2605 2765 3072 1965 3072 
C 1747 3072 1581 3034 1395 2944 
L 1485 3949 
L 3206 3949 
L 3206 4742 
L 672 4742 
L 544 2438 
L 973 2163 
C 1254 2342 1408 2406 1683 2406 
C 2157 2406 2483 2099 2483 1549 
C 2483 992 2138 678 1645 678 
C 1210 678 870 896 602 1158 
L 166 557 
C 525 205 1018 -90 1773 -90 
z
" transform="scale(0.015625)"/>
     </defs>
     <use xlink:href="#NotoSansCJKsc-Bold-30"/>
     <use xlink:href="#NotoSansCJKsc-Bold-2e" transform="translate(58.999985 0)"/>
     <use xlink:href="#NotoSansCJKsc-Bold-31" transform="translate(91.499969 0)"/>
     <use xlink:href="#NotoSansCJKsc-Bold-30" transform="translate(150.499954 0)"/>
     <use xlink:href="#NotoSansCJKsc-Bold-35" transform="translate(209.499939 0)"/>
     <use xlink:href="#NotoSansCJKsc-Bold-35" transform="translate(268.499924 0)"/>
    </g>
   </g>
   <g id="text_15">
    <!-- 0.1147 -->
    <g style="fill: #0f172a" transform="translate(310.932503 112.50802) scale(0.093 -0.093)">
     <defs>
      <path id="NotoSansCJKsc-Bold-34" d="M 2157 0 
L 3034 0 
L 3034 1229 
L 3597 1229 
L 3597 1946 
L 3034 1946 
L 3034 4742 
L 1901 4742 
L 134 1869 
L 134 1229 
L 2157 1229 
L 2157 0 
z
M 2157 1946 
L 1050 1946 
L 1786 3123 
C 1920 3379 2048 3642 2163 3898 
L 2195 3898 
C 2176 3616 2157 3187 2157 2912 
L 2157 1946 
z
" transform="scale(0.015625)"/>
      <path id="NotoSansCJKsc-Bold-37" d="M 1190 0 
L 2138 0 
C 2221 1850 2368 2822 3469 4166 
L 3469 4742 
L 320 4742 
L 320 3949 
L 2451 3949 
C 1549 2694 1274 1645 1190 0 
z
" transform="scale(0.015625)"/>
     </defs>
     <use xlink:href="#NotoSansCJKsc-Bold-30"/>
     <use xlink:href="#NotoSansCJKsc-Bold-2e" transform="translate(58.999985 0)"/>
     <use xlink:href="#NotoSansCJKsc-Bold-31" transform="translate(91.499969 0)"/>
     <use xlink:href="#NotoSansCJKsc-Bold-31" transform="translate(150.499954 0)"/>
     <use xlink:href="#NotoSansCJKsc-Bold-34" transform="translate(209.499939 0)"/>
     <use xlink:href="#NotoSansCJKsc-Bold-37" transform="translate(268.499924 0)"/>
    </g>
   </g>
   <g id="text_16">
    <!-- 0.0611 -->
    <g style="fill: #0f172a" transform="translate(493.631997 193.89426) scale(0.093 -0.093)">
     <defs>
      <path id="NotoSansCJKsc-Bold-36" d="M 2022 -90 
C 2829 -90 3507 525 3507 1498 
C 3507 2509 2938 2982 2144 2982 
C 1843 2982 1440 2803 1178 2483 
C 1222 3661 1664 4070 2214 4070 
C 2483 4070 2771 3910 2938 3725 
L 3437 4288 
C 3155 4582 2733 4826 2150 4826 
C 1197 4826 320 4070 320 2304 
C 320 640 1126 -90 2022 -90 
z
M 1197 1818 
C 1434 2176 1722 2317 1971 2317 
C 2381 2317 2650 2061 2650 1498 
C 2650 922 2362 621 2003 621 
C 1606 621 1286 954 1197 1818 
z
" transform="scale(0.015625)"/>
     </defs>
     <use xlink:href="#NotoSansCJKsc-Bold-30"/>
     <use xlink:href="#NotoSansCJKsc-Bold-2e" transform="translate(58.999985 0)"/>
     <use xlink:href="#NotoSansCJKsc-Bold-30" transform="translate(91.499969 0)"/>
     <use xlink:href="#NotoSansCJKsc-Bold-36" transform="translate(150.499954 0)"/>
     <use xlink:href="#NotoSansCJKsc-Bold-31" transform="translate(209.499939 0)"/>
     <use xlink:href="#NotoSansCJKsc-Bold-31" transform="translate(268.499924 0)"/>
    </g>
   </g>
   <g id="text_17">
    <!-- 0.0452 -->
    <g style="fill: #0f172a" transform="translate(676.331492 218.03682) scale(0.093 -0.093)">
     <defs>
      <path id="NotoSansCJKsc-Bold-32" d="M 275 0 
L 3450 0 
L 3450 794 
L 2426 794 
C 2202 794 1888 768 1645 736 
C 2509 1587 3226 2509 3226 3366 
C 3226 4250 2630 4826 1734 4826 
C 1088 4826 666 4576 224 4102 
L 749 3597 
C 986 3859 1267 4083 1613 4083 
C 2067 4083 2323 3789 2323 3322 
C 2323 2586 1568 1696 275 544 
L 275 0 
z
" transform="scale(0.015625)"/>
     </defs>
     <use xlink:href="#NotoSansCJKsc-Bold-30"/>
     <use xlink:href="#NotoSansCJKsc-Bold-2e" transform="translate(58.999985 0)"/>
     <use xlink:href="#NotoSansCJKsc-Bold-30" transform="translate(91.499969 0)"/>
     <use xlink:href="#NotoSansCJKsc-Bold-34" transform="translate(150.499954 0)"/>
     <use xlink:href="#NotoSansCJKsc-Bold-35" transform="translate(209.499939 0)"/>
     <use xlink:href="#NotoSansCJKsc-Bold-32" transform="translate(268.499924 0)"/>
    </g>
   </g>
   <g id="text_18">
    <!-- Higher hit-rate with intent priors -->
    <g style="fill: #475569" transform="translate(334.408578 70.092) scale(0.11 -0.11)">
     <defs>
      <path id="NotoSansCJKsc-Regular-69" d="M 589 0 
L 1178 0 
L 1178 3475 
L 589 3475 
L 589 0 
z
M 883 4192 
C 1114 4192 1274 4346 1274 4582 
C 1274 4806 1114 4960 883 4960 
C 653 4960 499 4806 499 4582 
C 499 4346 653 4192 883 4192 
z
" transform="scale(0.015625)"/>
      <path id="NotoSansCJKsc-Regular-67" d="M 1760 -1600 
C 2835 -1600 3520 -1043 3520 -397 
C 3520 179 3110 429 2310 429 
L 1626 429 
C 1158 429 1018 589 1018 806 
C 1018 998 1114 1114 1242 1222 
C 1395 1146 1587 1101 1754 1101 
C 2470 1101 3027 1568 3027 2310 
C 3027 2611 2912 2867 2746 3027 
L 3456 3027 
L 3456 3475 
L 2246 3475 
C 2125 3526 1952 3565 1754 3565 
C 1056 3565 454 3085 454 2323 
C 454 1907 678 1568 909 1389 
L 909 1363 
C 723 1235 525 1005 525 717 
C 525 442 659 256 838 147 
L 838 115 
C 512 -83 326 -371 326 -672 
C 326 -1267 915 -1600 1760 -1600 
z
M 1754 1498 
C 1357 1498 1018 1818 1018 2323 
C 1018 2835 1350 3136 1754 3136 
C 2170 3136 2496 2835 2496 2323 
C 2496 1818 2157 1498 1754 1498 
z
M 1843 -1197 
C 1210 -1197 838 -960 838 -589 
C 838 -390 941 -179 1190 0 
C 1344 -38 1510 -51 1638 -51 
L 2240 -51 
C 2701 -51 2944 -166 2944 -493 
C 2944 -851 2515 -1197 1843 -1197 
z
" transform="scale(0.015625)"/>
      <path id="NotoSansCJKsc-Regular-68" d="M 589 0 
L 1178 0 
L 1178 2522 
C 1523 2874 1766 3053 2125 3053 
C 2586 3053 2784 2778 2784 2125 
L 2784 0 
L 3366 0 
L 3366 2202 
C 3366 3085 3034 3565 2304 3565 
C 1830 3565 1472 3302 1152 2982 
L 1178 3699 
L 1178 5094 
L 589 5094 
L 589 0 
z
" transform="scale(0.015625)"/>
      <path id="NotoSansCJKsc-Regular-20" transform="scale(0.015625)"/>
      <path id="NotoSansCJKsc-Regular-2d" d="M 294 1568 
L 1933 1568 
L 1933 2016 
L 294 2016 
L 294 1568 
z
" transform="scale(0.015625)"/>
      <path id="NotoSansCJKsc-Regular-77" d="M 1139 0 
L 1818 0 
L 2310 1862 
C 2400 2195 2470 2522 2547 2874 
L 2579 2874 
C 2662 2522 2726 2202 2816 1875 
L 3315 0 
L 4026 0 
L 4966 3475 
L 4403 3475 
L 3898 1466 
C 3821 1133 3757 819 3686 499 
L 3654 499 
C 3571 819 3494 1133 3411 1466 
L 2867 3475 
L 2298 3475 
L 1754 1466 
C 1670 1133 1594 819 1523 499 
L 1491 499 
C 1421 819 1357 1133 1286 1466 
L 768 3475 
L 173 3475 
L 1139 0 
z
" transform="scale(0.015625)"/>
      <path id="NotoSansCJKsc-Regular-6e" d="M 589 0 
L 1178 0 
L 1178 2522 
C 1523 2874 1766 3053 2125 3053 
C 2586 3053 2784 2778 2784 2125 
L 2784 0 
L 3366 0 
L 3366 2202 
C 3366 3085 3034 3565 2304 3565 
C 1830 3565 1466 3302 1139 2970 
L 1126 2970 
L 1069 3475 
L 589 3475 
L 589 0 
z
" transform="scale(0.015625)"/>
     </defs>
     <use xlink:href="#NotoSansCJKsc-Regular-48"/>
     <use xlink:href="#NotoSansCJKsc-Regular-69" transform="translate(72.799988 0)"/>
     <use xlink:href="#NotoSansCJKsc-Regular-67" transform="translate(100.299973 0)"/>
     <use xlink:href="#NotoSansCJKsc-Regular-68" transform="translate(156.699966 0)"/>
     <use xlink:href="#NotoSansCJKsc-Regular-65" transform="translate(217.399963 0)"/>
     <use xlink:href="#NotoSansCJKsc-Regular-72" transform="translate(272.799957 0)"/>
     <use xlink:href="#NotoSansCJKsc-Regular-20" transform="translate(311.599945 0)"/>
     <use xlink:href="#NotoSansCJKsc-Regular-68" transform="translate(333.999939 0)"/>
     <use xlink:href="#NotoSansCJKsc-Regular-69" transform="translate(394.699936 0)"/>
     <use xlink:href="#NotoSansCJKsc-Regular-74" transform="translate(422.199921 0)"/>
     <use xlink:href="#NotoSansCJKsc-Regular-2d" transform="translate(459.899918 0)"/>
     <use xlink:href="#NotoSansCJKsc-Regular-72" transform="translate(494.599915 0)"/>
     <use xlink:href="#NotoSansCJKsc-Regular-61" transform="translate(533.399902 0)"/>
     <use xlink:href="#NotoSansCJKsc-Regular-74" transform="translate(589.69989 0)"/>
     <use xlink:href="#NotoSansCJKsc-Regular-65" transform="translate(627.399887 0)"/>
     <use xlink:href="#NotoSansCJKsc-Regular-20" transform="translate(682.799881 0)"/>
     <use xlink:href="#NotoSansCJKsc-Regular-77" transform="translate(705.199875 0)"/>
     <use xlink:href="#NotoSansCJKsc-Regular-69" transform="translate(785.399857 0)"/>
     <use xlink:href="#NotoSansCJKsc-Regular-74" transform="translate(812.899841 0)"/>
     <use xlink:href="#NotoSansCJKsc-Regular-68" transform="translate(850.599838 0)"/>
     <use xlink:href="#NotoSansCJKsc-Regular-20" transform="translate(911.299835 0)"/>
     <use xlink:href="#NotoSansCJKsc-Regular-69" transform="translate(933.699829 0)"/>
     <use xlink:href="#NotoSansCJKsc-Regular-6e" transform="translate(961.199814 0)"/>
     <use xlink:href="#NotoSansCJKsc-Regular-74" transform="translate(1022.199799 0)"/>
     <use xlink:href="#NotoSansCJKsc-Regular-65" transform="translate(1059.899796 0)"/>
     <use xlink:href="#NotoSansCJKsc-Regular-6e" transform="translate(1115.299789 0)"/>
     <use xlink:href="#NotoSansCJKsc-Regular-74" transform="translate(1176.299774 0)"/>
     <use xlink:href="#NotoSansCJKsc-Regular-20" transform="translate(1213.999771 0)"/>
     <use xlink:href="#NotoSansCJKsc-Regular-70" transform="translate(1236.399765 0)"/>
     <use xlink:href="#NotoSansCJKsc-Regular-72" transform="translate(1298.39975 0)"/>
     <use xlink:href="#NotoSansCJKsc-Regular-69" transform="translate(1337.199738 0)"/>
     <use xlink:href="#NotoSansCJKsc-Regular-6f" transform="translate(1364.699722 0)"/>
     <use xlink:href="#NotoSansCJKsc-Regular-72" transform="translate(1425.299713 0)"/>
     <use xlink:href="#NotoSansCJKsc-Regular-73" transform="translate(1464.099701 0)"/>
    </g>
   </g>
  </g>
  <g id="text_19">
   <!-- SAERec — HR@10 gains on multiple datasets -->
   <g style="fill: #0f172a" transform="translate(8.64 19.587656) scale(0.135 -0.135)">
    <defs>
     <path id="NotoSansCJKsc-Bold-53" d="M 1997 -90 
C 3091 -90 3738 570 3738 1344 
C 3738 2029 3360 2400 2784 2637 
L 2163 2886 
C 1760 3053 1427 3174 1427 3514 
C 1427 3827 1683 4013 2099 4013 
C 2496 4013 2810 3866 3110 3622 
L 3590 4211 
C 3206 4602 2656 4826 2099 4826 
C 1146 4826 461 4224 461 3456 
C 461 2765 947 2381 1427 2189 
L 2054 1914 
C 2477 1734 2771 1626 2771 1274 
C 2771 941 2509 730 2016 730 
C 1600 730 1146 941 813 1254 
L 269 602 
C 730 154 1363 -90 1997 -90 
z
" transform="scale(0.015625)"/>
     <path id="NotoSansCJKsc-Bold-41" d="M -26 0 
L 934 0 
L 1267 1216 
L 2797 1216 
L 3130 0 
L 4128 0 
L 2611 4742 
L 1491 4742 
L -26 0 
z
M 1472 1952 
L 1613 2470 
C 1754 2963 1888 3501 2016 4019 
L 2042 4019 
C 2182 3514 2310 2963 2458 2470 
L 2598 1952 
L 1472 1952 
z
" transform="scale(0.015625)"/>
     <path id="NotoSansCJKsc-Bold-45" d="M 582 0 
L 3558 0 
L 3558 794 
L 1530 794 
L 1530 2061 
L 3187 2061 
L 3187 2854 
L 1530 2854 
L 1530 3949 
L 3488 3949 
L 3488 4742 
L 582 4742 
L 582 0 
z
" transform="scale(0.015625)"/>
     <path id="NotoSansCJKsc-Bold-52" d="M 1530 2541 
L 1530 3987 
L 2144 3987 
C 2752 3987 3085 3814 3085 3302 
C 3085 2797 2752 2541 2144 2541 
L 1530 2541 
z
M 3162 0 
L 4218 0 
L 3110 1939 
C 3654 2150 4013 2592 4013 3302 
C 4013 4390 3226 4742 2227 4742 
L 582 4742 
L 582 0 
L 1530 0 
L 1530 1792 
L 2189 1792 
L 3162 0 
z
" transform="scale(0.015625)"/>
     <path id="NotoSansCJKsc-Bold-65" d="M 2067 -90 
C 2509 -90 2963 64 3315 307 
L 2995 883 
C 2733 723 2483 640 2195 640 
C 1658 640 1274 941 1197 1523 
L 3405 1523 
C 3430 1613 3450 1786 3450 1958 
C 3450 2957 2938 3674 1952 3674 
C 1101 3674 282 2950 282 1792 
C 282 608 1062 -90 2067 -90 
z
M 1178 2157 
C 1254 2675 1587 2944 1965 2944 
C 2432 2944 2643 2637 2643 2157 
L 1178 2157 
z
" transform="scale(0.015625)"/>
     <path id="NotoSansCJKsc-Bold-63" d="M 2029 -90 
C 2426 -90 2861 45 3200 346 
L 2829 966 
C 2630 800 2394 678 2131 678 
C 1613 678 1242 1114 1242 1792 
C 1242 2464 1613 2906 2163 2906 
C 2362 2906 2528 2822 2707 2675 
L 3155 3270 
C 2893 3507 2554 3674 2112 3674 
C 1139 3674 282 2982 282 1792 
C 282 602 1043 -90 2029 -90 
z
" transform="scale(0.015625)"/>
     <path id="NotoSansCJKsc-Bold-20" transform="scale(0.015625)"/>
     <path id="NotoSansCJKsc-Bold-2014" d="M 314 1536 
L 5498 1536 
L 5498 2138 
L 314 2138 
L 314 1536 
z
" transform="scale(0.015625)"/>
     <path id="NotoSansCJKsc-Bold-48" d="M 582 0 
L 1530 0 
L 1530 2048 
L 3322 2048 
L 3322 0 
L 4262 0 
L 4262 4742 
L 3322 4742 
L 3322 2867 
L 1530 2867 
L 1530 4742 
L 582 4742 
L 582 0 
z
" transform="scale(0.015625)"/>
     <path id="NotoSansCJKsc-Bold-40" d="M 3059 -1216 
C 3571 -1216 4032 -1107 4467 -864 
L 4256 -346 
C 3949 -506 3526 -634 3130 -634 
C 1971 -634 998 83 998 1510 
C 998 3162 2234 4237 3488 4237 
C 4883 4237 5485 3328 5485 2246 
C 5485 1414 5024 890 4582 890 
C 4237 890 4122 1107 4237 1574 
L 4550 3136 
L 3974 3136 
L 3872 2835 
L 3859 2835 
C 3731 3085 3539 3194 3296 3194 
C 2458 3194 1850 2298 1850 1440 
C 1850 774 2234 365 2778 365 
C 3085 365 3450 570 3661 851 
L 3680 851 
C 3744 493 4077 301 4486 301 
C 5222 301 6080 966 6080 2278 
C 6080 3770 5107 4813 3565 4813 
C 1830 4813 352 3494 352 1485 
C 352 -326 1613 -1216 3059 -1216 
z
M 2982 960 
C 2726 960 2560 1133 2560 1491 
C 2560 1958 2854 2579 3322 2579 
C 3488 2579 3603 2509 3699 2342 
L 3514 1318 
C 3309 1062 3149 960 2982 960 
z
" transform="scale(0.015625)"/>
     <path id="NotoSansCJKsc-Bold-67" d="M 1766 -1555 
C 2963 -1555 3718 -1005 3718 -282 
C 3718 346 3245 614 2381 614 
L 1766 614 
C 1350 614 1203 717 1203 902 
C 1203 1056 1267 1133 1357 1216 
C 1517 1158 1683 1133 1818 1133 
C 2592 1133 3206 1536 3206 2349 
C 3206 2573 3136 2771 3046 2893 
L 3654 2893 
L 3654 3584 
L 2368 3584 
C 2214 3635 2029 3674 1818 3674 
C 1062 3674 378 3219 378 2381 
C 378 1958 608 1619 858 1440 
L 858 1414 
C 640 1261 461 1011 461 749 
C 461 448 595 262 787 141 
L 787 109 
C 448 -77 275 -333 275 -634 
C 275 -1267 922 -1555 1766 -1555 
z
M 1818 1715 
C 1510 1715 1261 1952 1261 2381 
C 1261 2797 1504 3027 1818 3027 
C 2138 3027 2387 2797 2387 2381 
C 2387 1952 2138 1715 1818 1715 
z
M 1907 -954 
C 1389 -954 1056 -787 1056 -493 
C 1056 -339 1126 -198 1286 -70 
C 1421 -102 1568 -115 1779 -115 
L 2221 -115 
C 2605 -115 2816 -186 2816 -442 
C 2816 -717 2451 -954 1907 -954 
z
" transform="scale(0.015625)"/>
     <path id="NotoSansCJKsc-Bold-61" d="M 1382 -90 
C 1798 -90 2157 109 2464 384 
L 2496 384 
L 2560 0 
L 3328 0 
L 3328 2093 
C 3328 3130 2861 3674 1952 3674 
C 1389 3674 877 3456 461 3200 
L 794 2573 
C 1126 2771 1446 2918 1779 2918 
C 2221 2918 2374 2650 2387 2298 
C 947 2144 326 1741 326 979 
C 326 365 742 -90 1382 -90 
z
M 1696 646 
C 1421 646 1222 768 1222 1050 
C 1222 1376 1510 1613 2387 1715 
L 2387 998 
C 2163 774 1965 646 1696 646 
z
" transform="scale(0.015625)"/>
     <path id="NotoSansCJKsc-Bold-69" d="M 506 0 
L 1446 0 
L 1446 3584 
L 506 3584 
L 506 0 
z
M 979 4166 
C 1299 4166 1523 4365 1523 4678 
C 1523 4986 1299 5190 979 5190 
C 646 5190 435 4986 435 4678 
C 435 4365 646 4166 979 4166 
z
" transform="scale(0.015625)"/>
     <path id="NotoSansCJKsc-Bold-6e" d="M 506 0 
L 1446 0 
L 1446 2464 
C 1709 2726 1901 2867 2189 2867 
C 2541 2867 2694 2675 2694 2118 
L 2694 0 
L 3635 0 
L 3635 2234 
C 3635 3136 3302 3674 2528 3674 
C 2042 3674 1677 3418 1363 3110 
L 1344 3110 
L 1274 3584 
L 506 3584 
L 506 0 
z
" transform="scale(0.015625)"/>
     <path id="NotoSansCJKsc-Bold-73" d="M 1530 -90 
C 2458 -90 2957 410 2957 1043 
C 2957 1702 2432 1946 1958 2125 
C 1574 2266 1248 2362 1248 2624 
C 1248 2829 1402 2970 1728 2970 
C 1990 2970 2240 2842 2496 2662 
L 2918 3232 
C 2624 3462 2221 3674 1702 3674 
C 883 3674 365 3219 365 2579 
C 365 1978 870 1702 1325 1530 
C 1702 1382 2074 1261 2074 992 
C 2074 768 1914 614 1555 614 
C 1216 614 915 762 595 1005 
L 166 410 
C 525 115 1050 -90 1530 -90 
z
" transform="scale(0.015625)"/>
     <path id="NotoSansCJKsc-Bold-6f" d="M 2003 -90 
C 2899 -90 3725 602 3725 1792 
C 3725 2982 2899 3674 2003 3674 
C 1101 3674 282 2982 282 1792 
C 282 602 1101 -90 2003 -90 
z
M 2003 678 
C 1510 678 1242 1114 1242 1792 
C 1242 2464 1510 2906 2003 2906 
C 2490 2906 2765 2464 2765 1792 
C 2765 1114 2490 678 2003 678 
z
" transform="scale(0.015625)"/>
     <path id="NotoSansCJKsc-Bold-6d" d="M 506 0 
L 1446 0 
L 1446 2464 
C 1696 2739 1926 2867 2131 2867 
C 2477 2867 2637 2675 2637 2118 
L 2637 0 
L 3571 0 
L 3571 2464 
C 3827 2739 4058 2867 4262 2867 
C 4602 2867 4762 2675 4762 2118 
L 4762 0 
L 5696 0 
L 5696 2234 
C 5696 3136 5350 3674 4589 3674 
C 4128 3674 3776 3392 3443 3046 
C 3277 3443 2976 3674 2464 3674 
C 1997 3674 1664 3418 1363 3104 
L 1344 3104 
L 1274 3584 
L 506 3584 
L 506 0 
z
" transform="scale(0.015625)"/>
     <path id="NotoSansCJKsc-Bold-75" d="M 1574 -90 
C 2067 -90 2406 154 2714 518 
L 2739 518 
L 2810 0 
L 3578 0 
L 3578 3584 
L 2637 3584 
L 2637 1165 
C 2394 845 2202 717 1914 717 
C 1562 717 1402 909 1402 1466 
L 1402 3584 
L 467 3584 
L 467 1350 
C 467 448 800 -90 1574 -90 
z
" transform="scale(0.015625)"/>
     <path id="NotoSansCJKsc-Bold-6c" d="M 1395 -90 
C 1613 -90 1766 -51 1875 -6 
L 1760 691 
C 1696 678 1670 678 1632 678 
C 1542 678 1446 749 1446 966 
L 1446 5107 
L 506 5107 
L 506 1005 
C 506 339 736 -90 1395 -90 
z
" transform="scale(0.015625)"/>
     <path id="NotoSansCJKsc-Bold-74" d="M 1818 -90 
C 2131 -90 2381 -13 2579 45 
L 2419 730 
C 2323 691 2182 653 2067 653 
C 1747 653 1574 845 1574 1254 
L 1574 2842 
L 2464 2842 
L 2464 3584 
L 1574 3584 
L 1574 4550 
L 800 4550 
L 691 3584 
L 134 3539 
L 134 2842 
L 640 2842 
L 640 1248 
C 640 454 966 -90 1818 -90 
z
" transform="scale(0.015625)"/>
     <path id="NotoSansCJKsc-Bold-70" d="M 506 -1376 
L 1446 -1376 
L 1446 -282 
L 1414 301 
C 1683 51 1990 -90 2304 -90 
C 3091 -90 3827 621 3827 1850 
C 3827 2950 3296 3674 2419 3674 
C 2029 3674 1664 3469 1363 3213 
L 1344 3213 
L 1274 3584 
L 506 3584 
L 506 -1376 
z
M 2099 685 
C 1901 685 1677 755 1446 954 
L 1446 2534 
C 1690 2778 1907 2899 2150 2899 
C 2643 2899 2861 2522 2861 1837 
C 2861 1056 2522 685 2099 685 
z
" transform="scale(0.015625)"/>
     <path id="NotoSansCJKsc-Bold-64" d="M 1766 -90 
C 2138 -90 2496 109 2758 371 
L 2784 371 
L 2854 0 
L 3622 0 
L 3622 5107 
L 2682 5107 
L 2682 3846 
L 2714 3283 
C 2458 3520 2208 3674 1805 3674 
C 1037 3674 301 2957 301 1792 
C 301 614 870 -90 1766 -90 
z
M 2010 685 
C 1536 685 1267 1056 1267 1805 
C 1267 2515 1606 2899 2010 2899 
C 2240 2899 2464 2829 2682 2630 
L 2682 1056 
C 2477 787 2259 685 2010 685 
z
" transform="scale(0.015625)"/>
    </defs>
    <use xlink:href="#NotoSansCJKsc-Bold-53"/>
    <use xlink:href="#NotoSansCJKsc-Bold-41" transform="translate(62.399994 0)"/>
    <use xlink:href="#NotoSansCJKsc-Bold-45" transform="translate(126.499985 0)"/>
    <use xlink:href="#NotoSansCJKsc-Bold-52" transform="translate(187.999969 0)"/>
    <use xlink:href="#NotoSansCJKsc-Bold-65" transform="translate(256.199951 0)"/>
    <use xlink:href="#NotoSansCJKsc-Bold-63" transform="translate(314.299942 0)"/>
    <use xlink:href="#NotoSansCJKsc-Bold-20" transform="translate(366.999939 0)"/>
    <use xlink:href="#NotoSansCJKsc-Bold-2014" transform="translate(389.699936 0)"/>
    <use xlink:href="#NotoSansCJKsc-Bold-20" transform="translate(480.499924 0)"/>
    <use xlink:href="#NotoSansCJKsc-Bold-48" transform="translate(503.199921 0)"/>
    <use xlink:href="#NotoSansCJKsc-Bold-52" transform="translate(578.899902 0)"/>
    <use xlink:href="#NotoSansCJKsc-Bold-40" transform="translate(647.099884 0)"/>
    <use xlink:href="#NotoSansCJKsc-Bold-31" transform="translate(747.799866 0)"/>
    <use xlink:href="#NotoSansCJKsc-Bold-30" transform="translate(806.79985 0)"/>
    <use xlink:href="#NotoSansCJKsc-Bold-20" transform="translate(865.799835 0)"/>
    <use xlink:href="#NotoSansCJKsc-Bold-67" transform="translate(888.499832 0)"/>
    <use xlink:href="#NotoSansCJKsc-Bold-61" transform="translate(948.199829 0)"/>
    <use xlink:href="#NotoSansCJKsc-Bold-69" transform="translate(1007.29982 0)"/>
    <use xlink:href="#NotoSansCJKsc-Bold-6e" transform="translate(1037.699814 0)"/>
    <use xlink:href="#NotoSansCJKsc-Bold-73" transform="translate(1101.799805 0)"/>
    <use xlink:href="#NotoSansCJKsc-Bold-20" transform="translate(1151.299789 0)"/>
    <use xlink:href="#NotoSansCJKsc-Bold-6f" transform="translate(1173.999786 0)"/>
    <use xlink:href="#NotoSansCJKsc-Bold-6e" transform="translate(1236.599777 0)"/>
    <use xlink:href="#NotoSansCJKsc-Bold-20" transform="translate(1300.699768 0)"/>
    <use xlink:href="#NotoSansCJKsc-Bold-6d" transform="translate(1323.399765 0)"/>
    <use xlink:href="#NotoSansCJKsc-Bold-75" transform="translate(1419.799759 0)"/>
    <use xlink:href="#NotoSansCJKsc-Bold-6c" transform="translate(1483.499756 0)"/>
    <use xlink:href="#NotoSansCJKsc-Bold-74" transform="translate(1514.999741 0)"/>
    <use xlink:href="#NotoSansCJKsc-Bold-69" transform="translate(1557.099731 0)"/>
    <use xlink:href="#NotoSansCJKsc-Bold-70" transform="translate(1587.499725 0)"/>
    <use xlink:href="#NotoSansCJKsc-Bold-6c" transform="translate(1651.899719 0)"/>
    <use xlink:href="#NotoSansCJKsc-Bold-65" transform="translate(1683.399704 0)"/>
    <use xlink:href="#NotoSansCJKsc-Bold-20" transform="translate(1741.499695 0)"/>
    <use xlink:href="#NotoSansCJKsc-Bold-64" transform="translate(1764.199692 0)"/>
    <use xlink:href="#NotoSansCJKsc-Bold-61" transform="translate(1828.599686 0)"/>
    <use xlink:href="#NotoSansCJKsc-Bold-74" transform="translate(1887.699677 0)"/>
    <use xlink:href="#NotoSansCJKsc-Bold-61" transform="translate(1929.799667 0)"/>
    <use xlink:href="#NotoSansCJKsc-Bold-73" transform="translate(1988.899658 0)"/>
    <use xlink:href="#NotoSansCJKsc-Bold-65" transform="translate(2038.399643 0)"/>
    <use xlink:href="#NotoSansCJKsc-Bold-74" transform="translate(2096.499634 0)"/>
    <use xlink:href="#NotoSansCJKsc-Bold-73" transform="translate(2138.599625 0)"/>
   </g>
  </g>
 </g>
 <defs>
  <clipPath id="p9683bdc6e4">
   <rect x="55.766" y="76.092" width="723.49" height="212.576"/>
  </clipPath>
 </defs>
</svg>
