<svg xmlns="http://www.w3.org/2000/svg" viewBox="0 0 980 430" font-family="Inter, system-ui, sans-serif"><defs><marker id="arr" markerWidth="9" markerHeight="9" refX="7" refY="3" orient="auto"><path d="M0,0 L7,3 L0,6 Z" fill="#64748b"/></marker><filter id="sh" x="-20%" y="-20%" width="140%" height="140%"><feDropShadow dx="0" dy="3" stdDeviation="4" flood-color="#0f172a" flood-opacity="0.10"/></filter></defs><rect width="980" height="430" fill="#ffffff"/><text x="28" y="34" font-size="17" fill="#0f172a" font-weight="700" text-anchor="start">APT — Atomic Physical Transitions for causal video understanding</text><text x="28" y="54" font-size="12" fill="#64748b" font-weight="400" text-anchor="start">Event label says WHAT; APT chain (typed, timestamped) explains WHY</text><line x1="28" y1="66" x2="952" y2="66" stroke="#cbd5e1" stroke-width="1"/><rect x="40" y="100" width="150" height="95" rx="12" fill="#f7f8fb" stroke="#0891b2" stroke-width="1.5" filter="url(#sh)"/><text x="115" y="126" font-size="13" fill="#0891b2" font-weight="700" text-anchor="middle">Video clip</text><text x="115" y="148" font-size="11" fill="#64748b" font-weight="400" text-anchor="middle">event: 'bounce'</text><text x="115" y="168" font-size="11" fill="#64748b" font-weight="400" text-anchor="middle">16 frames</text><rect x="230" y="110" width="150" height="56" rx="10" fill="#ffffff" stroke="#2563eb" stroke-width="1.5" filter="url(#sh)"/><text x="305" y="134" font-size="11" fill="#2563eb" font-weight="700" text-anchor="middle">t0</text><text x="305" y="152" font-size="11" fill="#64748b" font-weight="400" text-anchor="middle">free_fall</text><line x1="380" y1="138" x2="410" y2="138" stroke="#64748b" stroke-width="1.8" marker-end="url(#arr)"/><rect x="410" y="110" width="150" height="56" rx="10" fill="#ffffff" stroke="#7c3aed" stroke-width="1.5" filter="url(#sh)"/><text x="485" y="134" font-size="11" fill="#7c3aed" font-weight="700" text-anchor="middle">t1</text><text x="485" y="152" font-size="11" fill="#64748b" font-weight="400" text-anchor="middle">contact_init</text><line x1="560" y1="138" x2="590" y2="138" stroke="#64748b" stroke-width="1.8" marker-end="url(#arr)"/><rect x="590" y="110" width="150" height="56" rx="10" fill="#ffffff" stroke="#10b981" stroke-width="1.5" filter="url(#sh)"/><text x="665" y="134" font-size="11" fill="#10b981" font-weight="700" text-anchor="middle">t2</text><text x="665" y="152" font-size="11" fill="#64748b" font-weight="400" text-anchor="middle">elastic_rebound</text><line x1="740" y1="138" x2="770" y2="138" stroke="#64748b" stroke-width="1.8" marker-end="url(#arr)"/><rect x="770" y="110" width="150" height="56" rx="10" fill="#ffffff" stroke="#f59e0b" stroke-width="1.5" filter="url(#sh)"/><text x="845" y="134" font-size="11" fill="#f59e0b" font-weight="700" text-anchor="middle">t3</text><text x="845" y="152" font-size="11" fill="#64748b" font-weight="400" text-anchor="middle">sliding_arrest</text><line x1="190" y1="140" x2="228" y2="140" stroke="#64748b" stroke-width="1.8" marker-end="url(#arr)"/><text x="490" y="196" font-size="12" fill="#64748b" font-weight="600" text-anchor="middle">ordered causal transition chain (mechanism-typed)</text><rect x="120" y="250" width="220" height="80" rx="12" fill="#ffffff" stroke="#e11d48" stroke-width="1.5" filter="url(#sh)"/><text x="230" y="276" font-size="13" fill="#e11d48" font-weight="700" text-anchor="middle">APT-Tune (11M LoRA)</text><text x="230" y="298" font-size="10" fill="#64748b" font-weight="400" text-anchor="middle">format-conditional co-training</text><text x="230" y="314" font-size="10" fill="#64748b" font-weight="400" text-anchor="middle">image-pad-aware supervision</text><rect x="420" y="250" width="200" height="80" rx="12" fill="#f7f8fb" stroke="#2563eb" stroke-width="1.5" filter="url(#sh)"/><text x="520" y="276" font-size="13" fill="#2563eb" font-weight="700" text-anchor="middle">Qwen3-VL-2B</text><text x="520" y="296" font-size="11" fill="#64748b" font-weight="400" text-anchor="middle">no event-level forgetting</text><line x1="340" y1="290" x2="418" y2="290" stroke="#64748b" stroke-width="1.8" marker-end="url(#arr)"/><rect x="700" y="250" width="240" height="80" rx="12" fill="#f7f8fb" stroke="#10b981" stroke-width="1.5" filter="url(#sh)"/><text x="820" y="276" font-size="13" fill="#10b981" font-weight="700" text-anchor="middle">Results</text><text x="820" y="298" font-size="11" fill="#64748b" font-weight="400" text-anchor="middle">APT recall 10→38.1%</text><text x="820" y="314" font-size="11" fill="#64748b" font-weight="400" text-anchor="middle">SSv2 MC +15pp, →PhysBench</text><line x1="620" y1="290" x2="698" y2="290" stroke="#64748b" stroke-width="1.8" marker-end="url(#arr)"/><text x="40" y="400" font-size="12" fill="#64748b" font-weight="500" text-anchor="start">Data: human + simulator GT, 14 transition types, 27,303 timed instances over 1,246 trials</text></svg>