<?xml version="1.0" encoding="utf-8" standalone="no"?>
<!DOCTYPE svg PUBLIC "-//W3C//DTD SVG 1.1//EN"
  "http://www.w3.org/Graphics/SVG/1.1/DTD/svg11.dtd">
<svg xmlns:xlink="http://www.w3.org/1999/xlink" width="787.896pt" height="314.757844pt" viewBox="0 0 787.896 314.757844" xmlns="http://www.w3.org/2000/svg" version="1.1">
 <metadata>
  <rdf:RDF xmlns:dc="http://purl.org/dc/elements/1.1/" xmlns:cc="http://creativecommons.org/ns#" xmlns:rdf="http://www.w3.org/1999/02/22-rdf-syntax-ns#">
   <cc:Work>
    <dc:type rdf:resource="http://purl.org/dc/dcmitype/StillImage"/>
    <dc:date>2026-06-21T19:29:08.669815</dc:date>
    <dc:format>image/svg+xml</dc:format>
    <dc:creator>
     <cc:Agent>
      <dc:title>Matplotlib v3.10.5, https://matplotlib.org/</dc:title>
     </cc:Agent>
    </dc:creator>
   </cc:Work>
  </rdf:RDF>
 </metadata>
 <defs>
  <style type="text/css">*{stroke-linejoin: round; stroke-linecap: butt}</style>
 </defs>
 <g id="figure_1">
  <g id="patch_1">
   <path d="M 0 314.757844 
L 787.896 314.757844 
L 787.896 0 
L 0 0 
z
" style="fill: #ffffff"/>
  </g>
  <g id="axes_1">
   <g id="patch_2">
    <path d="M 52.7735 272.2705 
L 389.27475 272.2705 
L 389.27475 75.372 
L 52.7735 75.372 
z
" style="fill: #ffffff"/>
   </g>
   <g id="matplotlib.axis_1">
    <g id="xtick_1">
     <g id="line2d_1">
      <defs>
       <path id="mf61f2853b8" d="M 0 0 
L 0 3.5 
" style="stroke: #475569; stroke-width: 0.8"/>
      </defs>
      <g>
       <use xlink:href="#mf61f2853b8" x="68.069011" y="272.2705" style="fill: #475569; stroke: #475569; stroke-width: 0.8"/>
      </g>
     </g>
     <g id="text_1">
      <!-- 0 -->
      <g style="fill: #475569" transform="translate(65.016511 288.025812) scale(0.11 -0.11)">
       <defs>
        <path id="NotoSansCJKsc-Regular-30" d="M 1779 -83 
C 2669 -83 3238 723 3238 2362 
C 3238 3987 2669 4774 1779 4774 
C 883 4774 320 3987 320 2362 
C 320 723 883 -83 1779 -83 
z
M 1779 390 
C 1248 390 883 986 883 2362 
C 883 3731 1248 4314 1779 4314 
C 2310 4314 2675 3731 2675 2362 
C 2675 986 2310 390 1779 390 
z
" transform="scale(0.015625)"/>
       </defs>
       <use xlink:href="#NotoSansCJKsc-Regular-30"/>
      </g>
     </g>
    </g>
    <g id="xtick_2">
     <g id="line2d_2">
      <g>
       <use xlink:href="#mf61f2853b8" x="129.251057" y="272.2705" style="fill: #475569; stroke: #475569; stroke-width: 0.8"/>
      </g>
     </g>
     <g id="text_2">
      <!-- 10 -->
      <g style="fill: #475569" transform="translate(123.146057 288.025812) scale(0.11 -0.11)">
       <defs>
        <path id="NotoSansCJKsc-Regular-31" d="M 563 0 
L 3136 0 
L 3136 486 
L 2195 486 
L 2195 4691 
L 1747 4691 
C 1491 4544 1190 4435 774 4358 
L 774 3987 
L 1613 3987 
L 1613 486 
L 563 486 
L 563 0 
z
" transform="scale(0.015625)"/>
       </defs>
       <use xlink:href="#NotoSansCJKsc-Regular-31"/>
       <use xlink:href="#NotoSansCJKsc-Regular-30" transform="translate(55.499985 0)"/>
      </g>
     </g>
    </g>
    <g id="xtick_3">
     <g id="line2d_3">
      <g>
       <use xlink:href="#mf61f2853b8" x="190.433102" y="272.2705" style="fill: #475569; stroke: #475569; stroke-width: 0.8"/>
      </g>
     </g>
     <g id="text_3">
      <!-- 20 -->
      <g style="fill: #475569" transform="translate(184.328102 288.025812) scale(0.11 -0.11)">
       <defs>
        <path id="NotoSansCJKsc-Regular-32" d="M 282 0 
L 3232 0 
L 3232 506 
L 1933 506 
C 1696 506 1408 480 1165 461 
C 2266 1504 3008 2458 3008 3398 
C 3008 4230 2477 4774 1638 4774 
C 1043 4774 634 4506 256 4090 
L 595 3757 
C 858 4070 1184 4301 1568 4301 
C 2150 4301 2432 3910 2432 3373 
C 2432 2566 1754 1632 282 346 
L 282 0 
z
" transform="scale(0.015625)"/>
       </defs>
       <use xlink:href="#NotoSansCJKsc-Regular-32"/>
       <use xlink:href="#NotoSansCJKsc-Regular-30" transform="translate(55.499985 0)"/>
      </g>
     </g>
    </g>
    <g id="xtick_4">
     <g id="line2d_4">
      <g>
       <use xlink:href="#mf61f2853b8" x="251.615148" y="272.2705" style="fill: #475569; stroke: #475569; stroke-width: 0.8"/>
      </g>
     </g>
     <g id="text_4">
      <!-- 30 -->
      <g style="fill: #475569" transform="translate(245.510148 288.025812) scale(0.11 -0.11)">
       <defs>
        <path id="NotoSansCJKsc-Regular-33" d="M 1683 -83 
C 2522 -83 3194 416 3194 1254 
C 3194 1901 2752 2310 2202 2445 
L 2202 2477 
C 2701 2650 3034 3034 3034 3603 
C 3034 4346 2458 4774 1664 4774 
C 1126 4774 710 4538 358 4218 
L 672 3846 
C 941 4115 1267 4301 1645 4301 
C 2138 4301 2438 4006 2438 3558 
C 2438 3053 2112 2662 1139 2662 
L 1139 2214 
C 2227 2214 2598 1843 2598 1274 
C 2598 736 2208 403 1645 403 
C 1114 403 762 659 486 941 
L 186 563 
C 493 224 954 -83 1683 -83 
z
" transform="scale(0.015625)"/>
       </defs>
       <use xlink:href="#NotoSansCJKsc-Regular-33"/>
       <use xlink:href="#NotoSansCJKsc-Regular-30" transform="translate(55.499985 0)"/>
      </g>
     </g>
    </g>
    <g id="xtick_5">
     <g id="line2d_5">
      <g>
       <use xlink:href="#mf61f2853b8" x="312.797193" y="272.2705" style="fill: #475569; stroke: #475569; stroke-width: 0.8"/>
      </g>
     </g>
     <g id="text_5">
      <!-- 40 -->
      <g style="fill: #475569" transform="translate(306.692193 288.025812) scale(0.11 -0.11)">
       <defs>
        <path id="NotoSansCJKsc-Regular-34" d="M 2176 0 
L 2726 0 
L 2726 1293 
L 3354 1293 
L 3354 1760 
L 2726 1760 
L 2726 4691 
L 2080 4691 
L 128 1677 
L 128 1293 
L 2176 1293 
L 2176 0 
z
M 2176 1760 
L 736 1760 
L 1805 3360 
C 1939 3590 2067 3827 2182 4051 
L 2208 4051 
C 2195 3814 2176 3430 2176 3200 
L 2176 1760 
z
" transform="scale(0.015625)"/>
       </defs>
       <use xlink:href="#NotoSansCJKsc-Regular-34"/>
       <use xlink:href="#NotoSansCJKsc-Regular-30" transform="translate(55.499985 0)"/>
      </g>
     </g>
    </g>
    <g id="xtick_6">
     <g id="line2d_6">
      <g>
       <use xlink:href="#mf61f2853b8" x="373.979239" y="272.2705" style="fill: #475569; stroke: #475569; stroke-width: 0.8"/>
      </g>
     </g>
     <g id="text_6">
      <!-- 50 -->
      <g style="fill: #475569" transform="translate(367.874239 288.025812) scale(0.11 -0.11)">
       <defs>
        <path id="NotoSansCJKsc-Regular-35" d="M 1677 -83 
C 2464 -83 3213 499 3213 1523 
C 3213 2560 2573 3021 1798 3021 
C 1517 3021 1306 2950 1094 2835 
L 1216 4192 
L 2982 4192 
L 2982 4691 
L 704 4691 
L 550 2502 
L 864 2304 
C 1133 2483 1331 2579 1645 2579 
C 2234 2579 2618 2182 2618 1510 
C 2618 826 2176 403 1619 403 
C 1075 403 730 653 467 922 
L 173 538 
C 493 224 941 -83 1677 -83 
z
" transform="scale(0.015625)"/>
       </defs>
       <use xlink:href="#NotoSansCJKsc-Regular-35"/>
       <use xlink:href="#NotoSansCJKsc-Regular-30" transform="translate(55.499985 0)"/>
      </g>
     </g>
    </g>
    <g id="text_7">
     <!-- # attributes (ranked by influence) -->
     <g style="fill: #0f172a" transform="translate(135.848891 303.543156) scale(0.11 -0.11)">
      <defs>
       <path id="NotoSansCJKsc-Regular-23" d="M 646 0 
L 1024 0 
L 1203 1466 
L 2150 1466 
L 1978 0 
L 2362 0 
L 2534 1466 
L 3200 1466 
L 3200 1869 
L 2586 1869 
L 2720 2931 
L 3341 2931 
L 3341 3334 
L 2765 3334 
L 2931 4646 
L 2547 4646 
L 2381 3334 
L 1427 3334 
L 1594 4646 
L 1216 4646 
L 1050 3334 
L 397 3334 
L 397 2931 
L 1005 2931 
L 870 1869 
L 256 1869 
L 256 1466 
L 819 1466 
L 646 0 
z
M 1248 1869 
L 1382 2931 
L 2336 2931 
L 2202 1869 
L 1248 1869 
z
" transform="scale(0.015625)"/>
       <path id="NotoSansCJKsc-Regular-20" transform="scale(0.015625)"/>
       <path id="NotoSansCJKsc-Regular-61" d="M 1389 -83 
C 1818 -83 2208 141 2541 416 
L 2560 416 
L 2611 0 
L 3091 0 
L 3091 2138 
C 3091 3002 2739 3565 1888 3565 
C 1325 3565 838 3315 525 3110 
L 749 2707 
C 1024 2893 1389 3078 1792 3078 
C 2362 3078 2509 2650 2509 2202 
C 1030 2035 378 1658 378 902 
C 378 275 806 -83 1389 -83 
z
M 1555 390 
C 1210 390 941 544 941 941 
C 941 1389 1338 1677 2509 1811 
L 2509 845 
C 2170 544 1888 390 1555 390 
z
" transform="scale(0.015625)"/>
       <path id="NotoSansCJKsc-Regular-74" d="M 1677 -83 
C 1894 -83 2125 -19 2323 45 
L 2208 486 
C 2093 435 1939 390 1811 390 
C 1408 390 1274 634 1274 1056 
L 1274 3002 
L 2221 3002 
L 2221 3475 
L 1274 3475 
L 1274 4454 
L 787 4454 
L 723 3475 
L 173 3443 
L 173 3002 
L 691 3002 
L 691 1075 
C 691 378 941 -83 1677 -83 
z
" transform="scale(0.015625)"/>
       <path id="NotoSansCJKsc-Regular-72" d="M 589 0 
L 1178 0 
L 1178 2234 
C 1408 2822 1760 3040 2048 3040 
C 2195 3040 2272 3021 2387 2982 
L 2496 3488 
C 2387 3546 2278 3565 2125 3565 
C 1741 3565 1382 3283 1139 2842 
L 1126 2842 
L 1069 3475 
L 589 3475 
L 589 0 
z
" transform="scale(0.015625)"/>
       <path id="NotoSansCJKsc-Regular-69" d="M 589 0 
L 1178 0 
L 1178 3475 
L 589 3475 
L 589 0 
z
M 883 4192 
C 1114 4192 1274 4346 1274 4582 
C 1274 4806 1114 4960 883 4960 
C 653 4960 499 4806 499 4582 
C 499 4346 653 4192 883 4192 
z
" transform="scale(0.015625)"/>
       <path id="NotoSansCJKsc-Regular-62" d="M 2118 -83 
C 2912 -83 3629 602 3629 1792 
C 3629 2867 3142 3565 2246 3565 
C 1856 3565 1472 3347 1152 3078 
L 1178 3699 
L 1178 5094 
L 589 5094 
L 589 0 
L 1056 0 
L 1107 358 
L 1133 358 
C 1434 83 1798 -83 2118 -83 
z
M 2022 410 
C 1792 410 1478 499 1178 768 
L 1178 2598 
C 1504 2906 1811 3072 2099 3072 
C 2765 3072 3021 2560 3021 1786 
C 3021 928 2598 410 2022 410 
z
" transform="scale(0.015625)"/>
       <path id="NotoSansCJKsc-Regular-75" d="M 1606 -83 
C 2080 -83 2426 166 2752 544 
L 2771 544 
L 2816 0 
L 3302 0 
L 3302 3475 
L 2720 3475 
L 2720 1011 
C 2387 602 2138 422 1779 422 
C 1318 422 1126 698 1126 1344 
L 1126 3475 
L 538 3475 
L 538 1274 
C 538 384 870 -83 1606 -83 
z
" transform="scale(0.015625)"/>
       <path id="NotoSansCJKsc-Regular-65" d="M 1997 -83 
C 2464 -83 2835 70 3136 269 
L 2931 659 
C 2669 486 2400 384 2061 384 
C 1402 384 947 858 909 1600 
L 3251 1600 
C 3264 1690 3277 1805 3277 1933 
C 3277 2925 2778 3565 1888 3565 
C 1094 3565 333 2867 333 1734 
C 333 589 1069 -83 1997 -83 
z
M 902 2016 
C 973 2707 1408 3098 1901 3098 
C 2445 3098 2765 2720 2765 2016 
L 902 2016 
z
" transform="scale(0.015625)"/>
       <path id="NotoSansCJKsc-Regular-73" d="M 1498 -83 
C 2317 -83 2758 384 2758 947 
C 2758 1606 2208 1811 1702 2003 
C 1312 2150 954 2278 954 2605 
C 954 2880 1158 3110 1600 3110 
C 1907 3110 2150 2976 2387 2803 
L 2669 3168 
C 2406 3386 2022 3565 1594 3565 
C 832 3565 397 3130 397 2579 
C 397 1984 922 1754 1408 1574 
C 1792 1434 2202 1267 2202 915 
C 2202 614 1978 371 1517 371 
C 1101 371 794 538 486 787 
L 205 397 
C 531 122 1005 -83 1498 -83 
z
" transform="scale(0.015625)"/>
       <path id="NotoSansCJKsc-Regular-28" d="M 1530 -1254 
L 1888 -1094 
C 1338 -186 1075 902 1075 1990 
C 1075 3072 1338 4154 1888 5069 
L 1530 5235 
C 941 4275 589 3245 589 1990 
C 589 730 941 -301 1530 -1254 
z
" transform="scale(0.015625)"/>
       <path id="NotoSansCJKsc-Regular-6e" d="M 589 0 
L 1178 0 
L 1178 2522 
C 1523 2874 1766 3053 2125 3053 
C 2586 3053 2784 2778 2784 2125 
L 2784 0 
L 3366 0 
L 3366 2202 
C 3366 3085 3034 3565 2304 3565 
C 1830 3565 1466 3302 1139 2970 
L 1126 2970 
L 1069 3475 
L 589 3475 
L 589 0 
z
" transform="scale(0.015625)"/>
       <path id="NotoSansCJKsc-Regular-6b" d="M 589 0 
L 1165 0 
L 1165 915 
L 1818 1677 
L 2835 0 
L 3469 0 
L 2157 2074 
L 3315 3475 
L 2662 3475 
L 1190 1645 
L 1165 1645 
L 1165 5094 
L 589 5094 
L 589 0 
z
" transform="scale(0.015625)"/>
       <path id="NotoSansCJKsc-Regular-64" d="M 1773 -83 
C 2189 -83 2560 141 2829 410 
L 2848 410 
L 2899 0 
L 3379 0 
L 3379 5094 
L 2790 5094 
L 2790 3757 
L 2822 3162 
C 2515 3411 2253 3565 1843 3565 
C 1050 3565 339 2861 339 1734 
C 339 576 902 -83 1773 -83 
z
M 1901 410 
C 1293 410 941 902 941 1741 
C 941 2534 1389 3072 1946 3072 
C 2234 3072 2502 2970 2790 2707 
L 2790 883 
C 2502 563 2221 410 1901 410 
z
" transform="scale(0.015625)"/>
       <path id="NotoSansCJKsc-Regular-79" d="M 646 -1498 
C 1338 -1498 1702 -973 1946 -294 
L 3251 3475 
L 2682 3475 
L 2054 1549 
C 1965 1235 1862 883 1773 563 
L 1741 563 
C 1619 890 1504 1242 1395 1549 
L 691 3475 
L 83 3475 
L 1478 -6 
L 1402 -269 
C 1254 -698 1011 -1018 621 -1018 
C 525 -1018 422 -986 352 -960 
L 237 -1427 
C 346 -1472 486 -1498 646 -1498 
z
" transform="scale(0.015625)"/>
       <path id="NotoSansCJKsc-Regular-66" d="M 211 3002 
L 685 3002 
L 685 0 
L 1267 0 
L 1267 3002 
L 2003 3002 
L 2003 3475 
L 1267 3475 
L 1267 4026 
C 1267 4474 1427 4710 1760 4710 
C 1882 4710 2022 4678 2150 4614 
L 2278 5069 
C 2118 5133 1914 5178 1696 5178 
C 1005 5178 685 4736 685 4032 
L 685 3475 
L 211 3443 
L 211 3002 
z
" transform="scale(0.015625)"/>
       <path id="NotoSansCJKsc-Regular-6c" d="M 1203 -83 
C 1363 -83 1459 -58 1542 -32 
L 1459 416 
C 1395 403 1370 403 1338 403 
C 1248 403 1178 474 1178 653 
L 1178 5094 
L 589 5094 
L 589 691 
C 589 198 768 -83 1203 -83 
z
" transform="scale(0.015625)"/>
       <path id="NotoSansCJKsc-Regular-63" d="M 1958 -83 
C 2374 -83 2771 83 3085 352 
L 2829 749 
C 2611 557 2330 403 2010 403 
C 1370 403 934 934 934 1734 
C 934 2534 1395 3072 2029 3072 
C 2298 3072 2522 2950 2720 2771 
L 3014 3155 
C 2771 3373 2458 3565 2003 3565 
C 1107 3565 333 2893 333 1734 
C 333 582 1037 -83 1958 -83 
z
" transform="scale(0.015625)"/>
       <path id="NotoSansCJKsc-Regular-29" d="M 634 -1254 
C 1222 -301 1574 730 1574 1990 
C 1574 3245 1222 4275 634 5235 
L 269 5069 
C 819 4154 1094 3072 1094 1990 
C 1094 902 819 -186 269 -1094 
L 634 -1254 
z
" transform="scale(0.015625)"/>
      </defs>
      <use xlink:href="#NotoSansCJKsc-Regular-23"/>
      <use xlink:href="#NotoSansCJKsc-Regular-20" transform="translate(55.499985 0)"/>
      <use xlink:href="#NotoSansCJKsc-Regular-61" transform="translate(77.899979 0)"/>
      <use xlink:href="#NotoSansCJKsc-Regular-74" transform="translate(134.199966 0)"/>
      <use xlink:href="#NotoSansCJKsc-Regular-74" transform="translate(171.899963 0)"/>
      <use xlink:href="#NotoSansCJKsc-Regular-72" transform="translate(209.59996 0)"/>
      <use xlink:href="#NotoSansCJKsc-Regular-69" transform="translate(248.399948 0)"/>
      <use xlink:href="#NotoSansCJKsc-Regular-62" transform="translate(275.899933 0)"/>
      <use xlink:href="#NotoSansCJKsc-Regular-75" transform="translate(337.699921 0)"/>
      <use xlink:href="#NotoSansCJKsc-Regular-74" transform="translate(398.399918 0)"/>
      <use xlink:href="#NotoSansCJKsc-Regular-65" transform="translate(436.099915 0)"/>
      <use xlink:href="#NotoSansCJKsc-Regular-73" transform="translate(491.499908 0)"/>
      <use xlink:href="#NotoSansCJKsc-Regular-20" transform="translate(538.299896 0)"/>
      <use xlink:href="#NotoSansCJKsc-Regular-28" transform="translate(560.69989 0)"/>
      <use xlink:href="#NotoSansCJKsc-Regular-72" transform="translate(594.499878 0)"/>
      <use xlink:href="#NotoSansCJKsc-Regular-61" transform="translate(633.299866 0)"/>
      <use xlink:href="#NotoSansCJKsc-Regular-6e" transform="translate(689.599854 0)"/>
      <use xlink:href="#NotoSansCJKsc-Regular-6b" transform="translate(750.599838 0)"/>
      <use xlink:href="#NotoSansCJKsc-Regular-65" transform="translate(805.799835 0)"/>
      <use xlink:href="#NotoSansCJKsc-Regular-64" transform="translate(861.199829 0)"/>
      <use xlink:href="#NotoSansCJKsc-Regular-20" transform="translate(923.199814 0)"/>
      <use xlink:href="#NotoSansCJKsc-Regular-62" transform="translate(945.599808 0)"/>
      <use xlink:href="#NotoSansCJKsc-Regular-79" transform="translate(1007.399796 0)"/>
      <use xlink:href="#NotoSansCJKsc-Regular-20" transform="translate(1059.499786 0)"/>
      <use xlink:href="#NotoSansCJKsc-Regular-69" transform="translate(1081.89978 0)"/>
      <use xlink:href="#NotoSansCJKsc-Regular-6e" transform="translate(1109.399765 0)"/>
      <use xlink:href="#NotoSansCJKsc-Regular-66" transform="translate(1170.39975 0)"/>
      <use xlink:href="#NotoSansCJKsc-Regular-6c" transform="translate(1202.899734 0)"/>
      <use xlink:href="#NotoSansCJKsc-Regular-75" transform="translate(1231.299728 0)"/>
      <use xlink:href="#NotoSansCJKsc-Regular-65" transform="translate(1291.999725 0)"/>
      <use xlink:href="#NotoSansCJKsc-Regular-6e" transform="translate(1347.399719 0)"/>
      <use xlink:href="#NotoSansCJKsc-Regular-63" transform="translate(1408.399704 0)"/>
      <use xlink:href="#NotoSansCJKsc-Regular-65" transform="translate(1459.399689 0)"/>
      <use xlink:href="#NotoSansCJKsc-Regular-29" transform="translate(1514.799683 0)"/>
     </g>
    </g>
   </g>
   <g id="matplotlib.axis_2">
    <g id="ytick_1">
     <g id="line2d_7">
      <path d="M 52.7735 272.2705 
L 389.27475 272.2705 
" clip-path="url(#pf98e24f78e)" style="fill: none; stroke: #e5e7eb; stroke-width: 0.8; stroke-linecap: square"/>
     </g>
     <g id="line2d_8">
      <defs>
       <path id="m290f2a0de4" d="M 0 0 
L -3.5 0 
" style="stroke: #475569; stroke-width: 0.8"/>
      </defs>
      <g>
       <use xlink:href="#m290f2a0de4" x="52.7735" y="272.2705" style="fill: #475569; stroke: #475569; stroke-width: 0.8"/>
      </g>
     </g>
     <g id="text_8">
      <!-- 0 -->
      <g style="fill: #475569" transform="translate(39.6685 276.648156) scale(0.11 -0.11)">
       <use xlink:href="#NotoSansCJKsc-Regular-30"/>
      </g>
     </g>
    </g>
    <g id="ytick_2">
     <g id="line2d_9">
      <path d="M 52.7735 234.766024 
L 389.27475 234.766024 
" clip-path="url(#pf98e24f78e)" style="fill: none; stroke: #e5e7eb; stroke-width: 0.8; stroke-linecap: square"/>
     </g>
     <g id="line2d_10">
      <g>
       <use xlink:href="#m290f2a0de4" x="52.7735" y="234.766024" style="fill: #475569; stroke: #475569; stroke-width: 0.8"/>
      </g>
     </g>
     <g id="text_9">
      <!-- 20 -->
      <g style="fill: #475569" transform="translate(33.5635 239.14368) scale(0.11 -0.11)">
       <use xlink:href="#NotoSansCJKsc-Regular-32"/>
       <use xlink:href="#NotoSansCJKsc-Regular-30" transform="translate(55.499985 0)"/>
      </g>
     </g>
    </g>
    <g id="ytick_3">
     <g id="line2d_11">
      <path d="M 52.7735 197.261548 
L 389.27475 197.261548 
" clip-path="url(#pf98e24f78e)" style="fill: none; stroke: #e5e7eb; stroke-width: 0.8; stroke-linecap: square"/>
     </g>
     <g id="line2d_12">
      <g>
       <use xlink:href="#m290f2a0de4" x="52.7735" y="197.261548" style="fill: #475569; stroke: #475569; stroke-width: 0.8"/>
      </g>
     </g>
     <g id="text_10">
      <!-- 40 -->
      <g style="fill: #475569" transform="translate(33.5635 201.639204) scale(0.11 -0.11)">
       <use xlink:href="#NotoSansCJKsc-Regular-34"/>
       <use xlink:href="#NotoSansCJKsc-Regular-30" transform="translate(55.499985 0)"/>
      </g>
     </g>
    </g>
    <g id="ytick_4">
     <g id="line2d_13">
      <path d="M 52.7735 159.757071 
L 389.27475 159.757071 
" clip-path="url(#pf98e24f78e)" style="fill: none; stroke: #e5e7eb; stroke-width: 0.8; stroke-linecap: square"/>
     </g>
     <g id="line2d_14">
      <g>
       <use xlink:href="#m290f2a0de4" x="52.7735" y="159.757071" style="fill: #475569; stroke: #475569; stroke-width: 0.8"/>
      </g>
     </g>
     <g id="text_11">
      <!-- 60 -->
      <g style="fill: #475569" transform="translate(33.5635 164.134728) scale(0.11 -0.11)">
       <defs>
        <path id="NotoSansCJKsc-Regular-36" d="M 1926 -83 
C 2656 -83 3277 531 3277 1440 
C 3277 2426 2765 2912 1971 2912 
C 1606 2912 1197 2701 909 2349 
C 934 3802 1466 4294 2118 4294 
C 2400 4294 2682 4154 2861 3936 
L 3194 4294 
C 2931 4576 2579 4774 2093 4774 
C 1184 4774 358 4077 358 2240 
C 358 691 1030 -83 1926 -83 
z
M 922 1882 
C 1229 2317 1587 2477 1875 2477 
C 2445 2477 2720 2074 2720 1440 
C 2720 800 2374 378 1926 378 
C 1338 378 986 909 922 1882 
z
" transform="scale(0.015625)"/>
       </defs>
       <use xlink:href="#NotoSansCJKsc-Regular-36"/>
       <use xlink:href="#NotoSansCJKsc-Regular-30" transform="translate(55.499985 0)"/>
      </g>
     </g>
    </g>
    <g id="ytick_5">
     <g id="line2d_15">
      <path d="M 52.7735 122.252595 
L 389.27475 122.252595 
" clip-path="url(#pf98e24f78e)" style="fill: none; stroke: #e5e7eb; stroke-width: 0.8; stroke-linecap: square"/>
     </g>
     <g id="line2d_16">
      <g>
       <use xlink:href="#m290f2a0de4" x="52.7735" y="122.252595" style="fill: #475569; stroke: #475569; stroke-width: 0.8"/>
      </g>
     </g>
     <g id="text_12">
      <!-- 80 -->
      <g style="fill: #475569" transform="translate(33.5635 126.630251) scale(0.11 -0.11)">
       <defs>
        <path id="NotoSansCJKsc-Regular-38" d="M 1792 -83 
C 2669 -83 3258 448 3258 1126 
C 3258 1773 2880 2125 2470 2362 
L 2470 2394 
C 2746 2611 3091 3034 3091 3526 
C 3091 4250 2605 4762 1805 4762 
C 1075 4762 518 4282 518 3571 
C 518 3078 813 2726 1152 2490 
L 1152 2464 
C 723 2234 294 1792 294 1165 
C 294 442 922 -83 1792 -83 
z
M 2112 2547 
C 1555 2765 1050 3014 1050 3571 
C 1050 4026 1363 4326 1798 4326 
C 2298 4326 2592 3962 2592 3494 
C 2592 3149 2426 2829 2112 2547 
z
M 1798 352 
C 1235 352 813 717 813 1216 
C 813 1664 1082 2035 1459 2278 
C 2125 2010 2701 1779 2701 1146 
C 2701 678 2342 352 1798 352 
z
" transform="scale(0.015625)"/>
       </defs>
       <use xlink:href="#NotoSansCJKsc-Regular-38"/>
       <use xlink:href="#NotoSansCJKsc-Regular-30" transform="translate(55.499985 0)"/>
      </g>
     </g>
    </g>
    <g id="ytick_6">
     <g id="line2d_17">
      <path d="M 52.7735 84.748119 
L 389.27475 84.748119 
" clip-path="url(#pf98e24f78e)" style="fill: none; stroke: #e5e7eb; stroke-width: 0.8; stroke-linecap: square"/>
     </g>
     <g id="line2d_18">
      <g>
       <use xlink:href="#m290f2a0de4" x="52.7735" y="84.748119" style="fill: #475569; stroke: #475569; stroke-width: 0.8"/>
      </g>
     </g>
     <g id="text_13">
      <!-- 100 -->
      <g style="fill: #475569" transform="translate(27.4585 89.125775) scale(0.11 -0.11)">
       <use xlink:href="#NotoSansCJKsc-Regular-31"/>
       <use xlink:href="#NotoSansCJKsc-Regular-30" transform="translate(55.499985 0)"/>
       <use xlink:href="#NotoSansCJKsc-Regular-30" transform="translate(110.999969 0)"/>
      </g>
     </g>
    </g>
    <g id="text_14">
     <!-- Cumulative variation explained (%) -->
     <g style="fill: #0f172a" transform="translate(20.938813 263.894922) rotate(-90) scale(0.11 -0.11)">
      <defs>
       <path id="NotoSansCJKsc-Regular-43" d="M 2413 -83 
C 3021 -83 3482 160 3853 589 
L 3526 966 
C 3226 634 2886 435 2438 435 
C 1542 435 979 1178 979 2362 
C 979 3533 1574 4256 2458 4256 
C 2861 4256 3168 4077 3418 3814 
L 3738 4198 
C 3469 4499 3021 4774 2451 4774 
C 1261 4774 371 3859 371 2342 
C 371 819 1242 -83 2413 -83 
z
" transform="scale(0.015625)"/>
       <path id="NotoSansCJKsc-Regular-6d" d="M 589 0 
L 1178 0 
L 1178 2522 
C 1491 2880 1786 3053 2048 3053 
C 2490 3053 2694 2778 2694 2125 
L 2694 0 
L 3277 0 
L 3277 2522 
C 3603 2880 3885 3053 4154 3053 
C 4595 3053 4800 2778 4800 2125 
L 4800 0 
L 5382 0 
L 5382 2202 
C 5382 3085 5043 3565 4333 3565 
C 3904 3565 3546 3290 3181 2899 
C 3040 3309 2758 3565 2221 3565 
C 1805 3565 1446 3302 1139 2970 
L 1126 2970 
L 1069 3475 
L 589 3475 
L 589 0 
z
" transform="scale(0.015625)"/>
       <path id="NotoSansCJKsc-Regular-76" d="M 1338 0 
L 2022 0 
L 3251 3475 
L 2675 3475 
L 2016 1498 
C 1914 1158 1798 806 1696 474 
L 1664 474 
C 1562 806 1453 1158 1344 1498 
L 691 3475 
L 83 3475 
L 1338 0 
z
" transform="scale(0.015625)"/>
       <path id="NotoSansCJKsc-Regular-6f" d="M 1939 -83 
C 2790 -83 3546 582 3546 1734 
C 3546 2893 2790 3565 1939 3565 
C 1088 3565 333 2893 333 1734 
C 333 582 1088 -83 1939 -83 
z
M 1939 403 
C 1338 403 934 934 934 1734 
C 934 2534 1338 3072 1939 3072 
C 2541 3072 2950 2534 2950 1734 
C 2950 934 2541 403 1939 403 
z
" transform="scale(0.015625)"/>
       <path id="NotoSansCJKsc-Regular-78" d="M 96 0 
L 710 0 
L 1178 813 
C 1299 1024 1408 1235 1530 1434 
L 1562 1434 
C 1696 1235 1824 1024 1939 813 
L 2451 0 
L 3091 0 
L 1946 1754 
L 3002 3475 
L 2394 3475 
L 1965 2714 
C 1856 2515 1760 2330 1658 2131 
L 1626 2131 
C 1510 2330 1389 2515 1286 2714 
L 819 3475 
L 186 3475 
L 1242 1811 
L 96 0 
z
" transform="scale(0.015625)"/>
       <path id="NotoSansCJKsc-Regular-70" d="M 589 -1466 
L 1178 -1466 
L 1178 -288 
L 1158 320 
C 1472 58 1805 -83 2118 -83 
C 2912 -83 3629 602 3629 1792 
C 3629 2867 3142 3565 2246 3565 
C 1843 3565 1453 3334 1139 3072 
L 1126 3072 
L 1069 3475 
L 589 3475 
L 589 -1466 
z
M 2022 410 
C 1792 410 1485 499 1178 768 
L 1178 2598 
C 1510 2906 1811 3072 2099 3072 
C 2765 3072 3021 2560 3021 1786 
C 3021 928 2598 410 2022 410 
z
" transform="scale(0.015625)"/>
       <path id="NotoSansCJKsc-Regular-25" d="M 1312 1818 
C 1958 1818 2381 2362 2381 3309 
C 2381 4243 1958 4774 1312 4774 
C 672 4774 250 4243 250 3309 
C 250 2362 672 1818 1312 1818 
z
M 1312 2176 
C 941 2176 691 2560 691 3309 
C 691 4058 941 4416 1312 4416 
C 1683 4416 1933 4058 1933 3309 
C 1933 2560 1683 2176 1312 2176 
z
M 1446 -83 
L 1843 -83 
L 4435 4774 
L 4038 4774 
L 1446 -83 
z
M 4582 -83 
C 5222 -83 5645 454 5645 1402 
C 5645 2342 5222 2874 4582 2874 
C 3942 2874 3520 2342 3520 1402 
C 3520 454 3942 -83 4582 -83 
z
M 4582 275 
C 4211 275 3955 653 3955 1402 
C 3955 2150 4211 2515 4582 2515 
C 4947 2515 5210 2150 5210 1402 
C 5210 653 4947 275 4582 275 
z
" transform="scale(0.015625)"/>
      </defs>
      <use xlink:href="#NotoSansCJKsc-Regular-43"/>
      <use xlink:href="#NotoSansCJKsc-Regular-75" transform="translate(63.799988 0)"/>
      <use xlink:href="#NotoSansCJKsc-Regular-6d" transform="translate(124.499985 0)"/>
      <use xlink:href="#NotoSansCJKsc-Regular-75" transform="translate(217.099976 0)"/>
      <use xlink:href="#NotoSansCJKsc-Regular-6c" transform="translate(277.799973 0)"/>
      <use xlink:href="#NotoSansCJKsc-Regular-61" transform="translate(306.199966 0)"/>
      <use xlink:href="#NotoSansCJKsc-Regular-74" transform="translate(362.499954 0)"/>
      <use xlink:href="#NotoSansCJKsc-Regular-69" transform="translate(400.199951 0)"/>
      <use xlink:href="#NotoSansCJKsc-Regular-76" transform="translate(427.699936 0)"/>
      <use xlink:href="#NotoSansCJKsc-Regular-65" transform="translate(479.799927 0)"/>
      <use xlink:href="#NotoSansCJKsc-Regular-20" transform="translate(535.199921 0)"/>
      <use xlink:href="#NotoSansCJKsc-Regular-76" transform="translate(557.599915 0)"/>
      <use xlink:href="#NotoSansCJKsc-Regular-61" transform="translate(609.699905 0)"/>
      <use xlink:href="#NotoSansCJKsc-Regular-72" transform="translate(665.999893 0)"/>
      <use xlink:href="#NotoSansCJKsc-Regular-69" transform="translate(704.799881 0)"/>
      <use xlink:href="#NotoSansCJKsc-Regular-61" transform="translate(732.299866 0)"/>
      <use xlink:href="#NotoSansCJKsc-Regular-74" transform="translate(788.599854 0)"/>
      <use xlink:href="#NotoSansCJKsc-Regular-69" transform="translate(826.29985 0)"/>
      <use xlink:href="#NotoSansCJKsc-Regular-6f" transform="translate(853.799835 0)"/>
      <use xlink:href="#NotoSansCJKsc-Regular-6e" transform="translate(914.399826 0)"/>
      <use xlink:href="#NotoSansCJKsc-Regular-20" transform="translate(975.399811 0)"/>
      <use xlink:href="#NotoSansCJKsc-Regular-65" transform="translate(997.799805 0)"/>
      <use xlink:href="#NotoSansCJKsc-Regular-78" transform="translate(1053.199799 0)"/>
      <use xlink:href="#NotoSansCJKsc-Regular-70" transform="translate(1102.999786 0)"/>
      <use xlink:href="#NotoSansCJKsc-Regular-6c" transform="translate(1164.999771 0)"/>
      <use xlink:href="#NotoSansCJKsc-Regular-61" transform="translate(1193.399765 0)"/>
      <use xlink:href="#NotoSansCJKsc-Regular-69" transform="translate(1249.699753 0)"/>
      <use xlink:href="#NotoSansCJKsc-Regular-6e" transform="translate(1277.199738 0)"/>
      <use xlink:href="#NotoSansCJKsc-Regular-65" transform="translate(1338.199722 0)"/>
      <use xlink:href="#NotoSansCJKsc-Regular-64" transform="translate(1393.599716 0)"/>
      <use xlink:href="#NotoSansCJKsc-Regular-20" transform="translate(1455.599701 0)"/>
      <use xlink:href="#NotoSansCJKsc-Regular-28" transform="translate(1477.999695 0)"/>
      <use xlink:href="#NotoSansCJKsc-Regular-25" transform="translate(1511.799683 0)"/>
      <use xlink:href="#NotoSansCJKsc-Regular-29" transform="translate(1603.899673 0)"/>
     </g>
    </g>
   </g>
   <g id="line2d_19">
    <path d="M 52.7735 122.252595 
L 389.27475 122.252595 
" clip-path="url(#pf98e24f78e)" style="fill: none; stroke-dasharray: 4.44,1.92; stroke-dashoffset: 0; stroke: #94a3b8; stroke-width: 1.2"/>
   </g>
   <g id="line2d_20">
    <path d="M 159.84208 272.2705 
L 159.84208 75.372 
" clip-path="url(#pf98e24f78e)" style="fill: none; stroke-dasharray: 4.44,1.92; stroke-dashoffset: 0; stroke: #e11d48; stroke-width: 1.2"/>
   </g>
   <g id="patch_3">
    <path d="M 52.7735 272.2705 
L 52.7735 75.372 
" style="fill: none; stroke: #94a3b8; stroke-width: 0.8; stroke-linejoin: miter; stroke-linecap: square"/>
   </g>
   <g id="patch_4">
    <path d="M 52.7735 272.2705 
L 389.27475 272.2705 
" style="fill: none; stroke: #94a3b8; stroke-width: 0.8; stroke-linejoin: miter; stroke-linecap: square"/>
   </g>
   <g id="line2d_21">
    <path d="M 68.069011 272.2705 
L 98.660034 193.5111 
L 129.251057 154.1314 
L 159.84208 126.003043 
L 190.433102 112.876476 
L 221.024125 105.375581 
L 251.615148 99.74991 
L 282.20617 95.06185 
L 312.797193 91.311402 
L 343.388216 88.498567 
L 373.979239 84.748119 
" clip-path="url(#pf98e24f78e)" style="fill: none; stroke: #7c3aed; stroke-width: 2.4; stroke-linecap: square"/>
    <defs>
     <path id="m819c421015" d="M 0 2 
C 0.530406 2 1.03916 1.789267 1.414214 1.414214 
C 1.789267 1.03916 2 0.530406 2 0 
C 2 -0.530406 1.789267 -1.03916 1.414214 -1.414214 
C 1.03916 -1.789267 0.530406 -2 0 -2 
C -0.530406 -2 -1.03916 -1.789267 -1.414214 -1.414214 
C -1.789267 -1.03916 -2 -0.530406 -2 0 
C -2 0.530406 -1.789267 1.03916 -1.414214 1.414214 
C -1.03916 1.789267 -0.530406 2 0 2 
z
" style="stroke: #7c3aed"/>
    </defs>
    <g clip-path="url(#pf98e24f78e)">
     <use xlink:href="#m819c421015" x="68.069011" y="272.2705" style="fill: #7c3aed; stroke: #7c3aed"/>
     <use xlink:href="#m819c421015" x="98.660034" y="193.5111" style="fill: #7c3aed; stroke: #7c3aed"/>
     <use xlink:href="#m819c421015" x="129.251057" y="154.1314" style="fill: #7c3aed; stroke: #7c3aed"/>
     <use xlink:href="#m819c421015" x="159.84208" y="126.003043" style="fill: #7c3aed; stroke: #7c3aed"/>
     <use xlink:href="#m819c421015" x="190.433102" y="112.876476" style="fill: #7c3aed; stroke: #7c3aed"/>
     <use xlink:href="#m819c421015" x="221.024125" y="105.375581" style="fill: #7c3aed; stroke: #7c3aed"/>
     <use xlink:href="#m819c421015" x="251.615148" y="99.74991" style="fill: #7c3aed; stroke: #7c3aed"/>
     <use xlink:href="#m819c421015" x="282.20617" y="95.06185" style="fill: #7c3aed; stroke: #7c3aed"/>
     <use xlink:href="#m819c421015" x="312.797193" y="91.311402" style="fill: #7c3aed; stroke: #7c3aed"/>
     <use xlink:href="#m819c421015" x="343.388216" y="88.498567" style="fill: #7c3aed; stroke: #7c3aed"/>
     <use xlink:href="#m819c421015" x="373.979239" y="84.748119" style="fill: #7c3aed; stroke: #7c3aed"/>
    </g>
   </g>
   <g id="patch_5">
    <path d="M 217.027845 148.561306 
Q 189.344197 135.82525 162.879389 123.649931 
" style="fill: none; stroke: #e11d48; stroke-width: 1.2; stroke-linecap: round"/>
    <path d="M 165.397577 126.789792 
L 162.879389 123.649931 
L 166.902191 123.519297 
" style="fill: none; stroke: #e11d48; stroke-width: 1.2; stroke-linecap: round"/>
   </g>
   <g id="text_15">
    <!-- ~15 attributes -->
    <g style="fill: #e11d48" transform="translate(202.669511 158.580128) scale(0.09 -0.09)">
     <defs>
      <path id="NotoSansCJKsc-Bold-7e" d="M 2509 1779 
C 2854 1779 3219 1978 3552 2496 
L 3053 2874 
C 2899 2592 2720 2451 2522 2451 
C 2125 2451 1856 3014 1267 3014 
C 915 3014 557 2816 224 2291 
L 717 1920 
C 870 2195 1050 2349 1254 2349 
C 1651 2349 1920 1779 2509 1779 
z
" transform="scale(0.015625)"/>
      <path id="NotoSansCJKsc-Bold-31" d="M 525 0 
L 3373 0 
L 3373 768 
L 2483 768 
L 2483 4742 
L 1786 4742 
C 1485 4550 1165 4429 685 4346 
L 685 3757 
L 1549 3757 
L 1549 768 
L 525 768 
L 525 0 
z
" transform="scale(0.015625)"/>
      <path id="NotoSansCJKsc-Bold-35" d="M 1773 -90 
C 2637 -90 3424 518 3424 1574 
C 3424 2605 2765 3072 1965 3072 
C 1747 3072 1581 3034 1395 2944 
L 1485 3949 
L 3206 3949 
L 3206 4742 
L 672 4742 
L 544 2438 
L 973 2163 
C 1254 2342 1408 2406 1683 2406 
C 2157 2406 2483 2099 2483 1549 
C 2483 992 2138 678 1645 678 
C 1210 678 870 896 602 1158 
L 166 557 
C 525 205 1018 -90 1773 -90 
z
" transform="scale(0.015625)"/>
      <path id="NotoSansCJKsc-Bold-20" transform="scale(0.015625)"/>
      <path id="NotoSansCJKsc-Bold-61" d="M 1382 -90 
C 1798 -90 2157 109 2464 384 
L 2496 384 
L 2560 0 
L 3328 0 
L 3328 2093 
C 3328 3130 2861 3674 1952 3674 
C 1389 3674 877 3456 461 3200 
L 794 2573 
C 1126 2771 1446 2918 1779 2918 
C 2221 2918 2374 2650 2387 2298 
C 947 2144 326 1741 326 979 
C 326 365 742 -90 1382 -90 
z
M 1696 646 
C 1421 646 1222 768 1222 1050 
C 1222 1376 1510 1613 2387 1715 
L 2387 998 
C 2163 774 1965 646 1696 646 
z
" transform="scale(0.015625)"/>
      <path id="NotoSansCJKsc-Bold-74" d="M 1818 -90 
C 2131 -90 2381 -13 2579 45 
L 2419 730 
C 2323 691 2182 653 2067 653 
C 1747 653 1574 845 1574 1254 
L 1574 2842 
L 2464 2842 
L 2464 3584 
L 1574 3584 
L 1574 4550 
L 800 4550 
L 691 3584 
L 134 3539 
L 134 2842 
L 640 2842 
L 640 1248 
C 640 454 966 -90 1818 -90 
z
" transform="scale(0.015625)"/>
      <path id="NotoSansCJKsc-Bold-72" d="M 506 0 
L 1446 0 
L 1446 2138 
C 1651 2656 1984 2842 2259 2842 
C 2413 2842 2515 2822 2643 2784 
L 2797 3597 
C 2694 3642 2579 3674 2381 3674 
C 2010 3674 1626 3418 1363 2950 
L 1344 2950 
L 1274 3584 
L 506 3584 
L 506 0 
z
" transform="scale(0.015625)"/>
      <path id="NotoSansCJKsc-Bold-69" d="M 506 0 
L 1446 0 
L 1446 3584 
L 506 3584 
L 506 0 
z
M 979 4166 
C 1299 4166 1523 4365 1523 4678 
C 1523 4986 1299 5190 979 5190 
C 646 5190 435 4986 435 4678 
C 435 4365 646 4166 979 4166 
z
" transform="scale(0.015625)"/>
      <path id="NotoSansCJKsc-Bold-62" d="M 2304 -90 
C 3091 -90 3827 621 3827 1856 
C 3827 2950 3296 3674 2413 3674 
C 2061 3674 1702 3501 1414 3245 
L 1446 3821 
L 1446 5107 
L 506 5107 
L 506 0 
L 1242 0 
L 1318 378 
L 1350 378 
C 1638 77 1984 -90 2304 -90 
z
M 2099 685 
C 1901 685 1664 755 1446 954 
L 1446 2534 
C 1690 2778 1907 2899 2150 2899 
C 2643 2899 2861 2522 2861 1837 
C 2861 1056 2522 685 2099 685 
z
" transform="scale(0.015625)"/>
      <path id="NotoSansCJKsc-Bold-75" d="M 1574 -90 
C 2067 -90 2406 154 2714 518 
L 2739 518 
L 2810 0 
L 3578 0 
L 3578 3584 
L 2637 3584 
L 2637 1165 
C 2394 845 2202 717 1914 717 
C 1562 717 1402 909 1402 1466 
L 1402 3584 
L 467 3584 
L 467 1350 
C 467 448 800 -90 1574 -90 
z
" transform="scale(0.015625)"/>
      <path id="NotoSansCJKsc-Bold-65" d="M 2067 -90 
C 2509 -90 2963 64 3315 307 
L 2995 883 
C 2733 723 2483 640 2195 640 
C 1658 640 1274 941 1197 1523 
L 3405 1523 
C 3430 1613 3450 1786 3450 1958 
C 3450 2957 2938 3674 1952 3674 
C 1101 3674 282 2950 282 1792 
C 282 608 1062 -90 2067 -90 
z
M 1178 2157 
C 1254 2675 1587 2944 1965 2944 
C 2432 2944 2643 2637 2643 2157 
L 1178 2157 
z
" transform="scale(0.015625)"/>
      <path id="NotoSansCJKsc-Bold-73" d="M 1530 -90 
C 2458 -90 2957 410 2957 1043 
C 2957 1702 2432 1946 1958 2125 
C 1574 2266 1248 2362 1248 2624 
C 1248 2829 1402 2970 1728 2970 
C 1990 2970 2240 2842 2496 2662 
L 2918 3232 
C 2624 3462 2221 3674 1702 3674 
C 883 3674 365 3219 365 2579 
C 365 1978 870 1702 1325 1530 
C 1702 1382 2074 1261 2074 992 
C 2074 768 1914 614 1555 614 
C 1216 614 915 762 595 1005 
L 166 410 
C 525 115 1050 -90 1530 -90 
z
" transform="scale(0.015625)"/>
     </defs>
     <use xlink:href="#NotoSansCJKsc-Bold-7e"/>
     <use xlink:href="#NotoSansCJKsc-Bold-31" transform="translate(58.999985 0)"/>
     <use xlink:href="#NotoSansCJKsc-Bold-35" transform="translate(117.999969 0)"/>
     <use xlink:href="#NotoSansCJKsc-Bold-20" transform="translate(176.999954 0)"/>
     <use xlink:href="#NotoSansCJKsc-Bold-61" transform="translate(199.699951 0)"/>
     <use xlink:href="#NotoSansCJKsc-Bold-74" transform="translate(258.799942 0)"/>
     <use xlink:href="#NotoSansCJKsc-Bold-74" transform="translate(300.899933 0)"/>
     <use xlink:href="#NotoSansCJKsc-Bold-72" transform="translate(342.999924 0)"/>
     <use xlink:href="#NotoSansCJKsc-Bold-69" transform="translate(386.599915 0)"/>
     <use xlink:href="#NotoSansCJKsc-Bold-62" transform="translate(416.999908 0)"/>
     <use xlink:href="#NotoSansCJKsc-Bold-75" transform="translate(481.399902 0)"/>
     <use xlink:href="#NotoSansCJKsc-Bold-74" transform="translate(545.099899 0)"/>
     <use xlink:href="#NotoSansCJKsc-Bold-65" transform="translate(587.19989 0)"/>
     <use xlink:href="#NotoSansCJKsc-Bold-73" transform="translate(645.299881 0)"/>
    </g>
    <!-- ≈ 80% of variation -->
    <g style="fill: #e11d48" transform="translate(202.669511 169.13319) scale(0.09 -0.09)">
     <defs>
      <path id="NotoSansCJKsc-Bold-2248" d="M 3328 1926 
C 3040 2144 2720 2317 2317 2317 
C 1677 2317 1171 1882 845 1344 
L 1370 947 
C 1568 1325 1933 1664 2310 1664 
C 2598 1664 2803 1510 3040 1338 
C 3328 1120 3654 947 4051 947 
C 4691 947 5203 1382 5523 1920 
L 4998 2317 
C 4800 1946 4435 1600 4064 1600 
C 3776 1600 3565 1754 3328 1926 
z
M 3328 3526 
C 3040 3744 2720 3917 2317 3917 
C 1677 3917 1171 3482 845 2944 
L 1370 2547 
C 1568 2918 1933 3264 2310 3264 
C 2598 3264 2803 3110 3040 2938 
C 3328 2720 3654 2547 4051 2547 
C 4691 2547 5203 2982 5523 3520 
L 4998 3917 
C 4800 3539 4435 3200 4064 3200 
C 3776 3200 3565 3354 3328 3526 
z
" transform="scale(0.015625)"/>
      <path id="NotoSansCJKsc-Bold-38" d="M 1888 -90 
C 2842 -90 3482 461 3482 1178 
C 3482 1824 3123 2208 2682 2445 
L 2682 2477 
C 2989 2701 3290 3091 3290 3558 
C 3290 4314 2752 4819 1914 4819 
C 1088 4819 486 4333 486 3565 
C 486 3066 749 2707 1114 2445 
L 1114 2413 
C 672 2182 301 1786 301 1178 
C 301 435 973 -90 1888 -90 
z
M 2182 2707 
C 1690 2906 1318 3123 1318 3565 
C 1318 3949 1574 4160 1894 4160 
C 2291 4160 2522 3885 2522 3501 
C 2522 3219 2413 2944 2182 2707 
z
M 1907 576 
C 1466 576 1114 851 1114 1280 
C 1114 1638 1293 1952 1549 2163 
C 2163 1901 2605 1702 2605 1210 
C 2605 800 2310 576 1907 576 
z
" transform="scale(0.015625)"/>
      <path id="NotoSansCJKsc-Bold-30" d="M 1888 -90 
C 2854 -90 3494 755 3494 2394 
C 3494 4019 2854 4826 1888 4826 
C 922 4826 282 4026 282 2394 
C 282 755 922 -90 1888 -90 
z
M 1888 646 
C 1478 646 1171 1056 1171 2394 
C 1171 3712 1478 4102 1888 4102 
C 2298 4102 2598 3712 2598 2394 
C 2598 1056 2298 646 1888 646 
z
" transform="scale(0.015625)"/>
      <path id="NotoSansCJKsc-Bold-25" d="M 1357 1824 
C 2035 1824 2515 2381 2515 3334 
C 2515 4282 2035 4826 1357 4826 
C 678 4826 205 4282 205 3334 
C 205 2381 678 1824 1357 1824 
z
M 1357 2355 
C 1082 2355 864 2637 864 3334 
C 864 4026 1082 4294 1357 4294 
C 1632 4294 1850 4026 1850 3334 
C 1850 2637 1632 2355 1357 2355 
z
M 1510 -90 
L 2074 -90 
L 4646 4826 
L 4090 4826 
L 1510 -90 
z
M 4806 -90 
C 5478 -90 5958 467 5958 1421 
C 5958 2368 5478 2918 4806 2918 
C 4128 2918 3648 2368 3648 1421 
C 3648 467 4128 -90 4806 -90 
z
M 4806 448 
C 4525 448 4314 730 4314 1421 
C 4314 2125 4525 2381 4806 2381 
C 5082 2381 5293 2125 5293 1421 
C 5293 730 5082 448 4806 448 
z
" transform="scale(0.015625)"/>
      <path id="NotoSansCJKsc-Bold-6f" d="M 2003 -90 
C 2899 -90 3725 602 3725 1792 
C 3725 2982 2899 3674 2003 3674 
C 1101 3674 282 2982 282 1792 
C 282 602 1101 -90 2003 -90 
z
M 2003 678 
C 1510 678 1242 1114 1242 1792 
C 1242 2464 1510 2906 2003 2906 
C 2490 2906 2765 2464 2765 1792 
C 2765 1114 2490 678 2003 678 
z
" transform="scale(0.015625)"/>
      <path id="NotoSansCJKsc-Bold-66" d="M 179 2842 
L 666 2842 
L 666 0 
L 1600 0 
L 1600 2842 
L 2285 2842 
L 2285 3584 
L 1600 3584 
L 1600 3891 
C 1600 4288 1760 4454 2035 4454 
C 2163 4454 2298 4429 2419 4371 
L 2592 5075 
C 2432 5139 2189 5197 1907 5197 
C 1011 5197 666 4614 666 3872 
L 666 3578 
L 179 3539 
L 179 2842 
z
" transform="scale(0.015625)"/>
      <path id="NotoSansCJKsc-Bold-76" d="M 1312 0 
L 2400 0 
L 3597 3584 
L 2694 3584 
L 2170 1798 
C 2074 1446 1978 1075 1882 710 
L 1850 710 
C 1747 1075 1658 1446 1555 1798 
L 1037 3584 
L 90 3584 
L 1312 0 
z
" transform="scale(0.015625)"/>
      <path id="NotoSansCJKsc-Bold-6e" d="M 506 0 
L 1446 0 
L 1446 2464 
C 1709 2726 1901 2867 2189 2867 
C 2541 2867 2694 2675 2694 2118 
L 2694 0 
L 3635 0 
L 3635 2234 
C 3635 3136 3302 3674 2528 3674 
C 2042 3674 1677 3418 1363 3110 
L 1344 3110 
L 1274 3584 
L 506 3584 
L 506 0 
z
" transform="scale(0.015625)"/>
     </defs>
     <use xlink:href="#NotoSansCJKsc-Bold-2248"/>
     <use xlink:href="#NotoSansCJKsc-Bold-20" transform="translate(99.999985 0)"/>
     <use xlink:href="#NotoSansCJKsc-Bold-38" transform="translate(122.699982 0)"/>
     <use xlink:href="#NotoSansCJKsc-Bold-30" transform="translate(181.699966 0)"/>
     <use xlink:href="#NotoSansCJKsc-Bold-25" transform="translate(240.699951 0)"/>
     <use xlink:href="#NotoSansCJKsc-Bold-20" transform="translate(336.999939 0)"/>
     <use xlink:href="#NotoSansCJKsc-Bold-6f" transform="translate(359.699936 0)"/>
     <use xlink:href="#NotoSansCJKsc-Bold-66" transform="translate(422.299927 0)"/>
     <use xlink:href="#NotoSansCJKsc-Bold-20" transform="translate(459.499924 0)"/>
     <use xlink:href="#NotoSansCJKsc-Bold-76" transform="translate(482.199921 0)"/>
     <use xlink:href="#NotoSansCJKsc-Bold-61" transform="translate(539.799911 0)"/>
     <use xlink:href="#NotoSansCJKsc-Bold-72" transform="translate(598.899902 0)"/>
     <use xlink:href="#NotoSansCJKsc-Bold-69" transform="translate(642.499893 0)"/>
     <use xlink:href="#NotoSansCJKsc-Bold-61" transform="translate(672.899887 0)"/>
     <use xlink:href="#NotoSansCJKsc-Bold-74" transform="translate(731.999878 0)"/>
     <use xlink:href="#NotoSansCJKsc-Bold-69" transform="translate(774.099869 0)"/>
     <use xlink:href="#NotoSansCJKsc-Bold-6f" transform="translate(804.499863 0)"/>
     <use xlink:href="#NotoSansCJKsc-Bold-6e" transform="translate(867.099854 0)"/>
    </g>
   </g>
   <g id="text_16">
    <!-- Bias concentrates in few visual cues -->
    <g style="fill: #475569" transform="translate(129.540219 69.372) scale(0.11 -0.11)">
     <defs>
      <path id="NotoSansCJKsc-Regular-42" d="M 646 0 
L 2138 0 
C 3187 0 3917 454 3917 1376 
C 3917 2016 3520 2387 2963 2496 
L 2963 2528 
C 3405 2669 3648 3078 3648 3546 
C 3648 4371 2982 4691 2035 4691 
L 646 4691 
L 646 0 
z
M 1235 2701 
L 1235 4224 
L 1958 4224 
C 2694 4224 3066 4019 3066 3469 
C 3066 2989 2739 2701 1933 2701 
L 1235 2701 
z
M 1235 474 
L 1235 2240 
L 2054 2240 
C 2880 2240 3334 1978 3334 1395 
C 3334 762 2861 474 2054 474 
L 1235 474 
z
" transform="scale(0.015625)"/>
      <path id="NotoSansCJKsc-Regular-77" d="M 1139 0 
L 1818 0 
L 2310 1862 
C 2400 2195 2470 2522 2547 2874 
L 2579 2874 
C 2662 2522 2726 2202 2816 1875 
L 3315 0 
L 4026 0 
L 4966 3475 
L 4403 3475 
L 3898 1466 
C 3821 1133 3757 819 3686 499 
L 3654 499 
C 3571 819 3494 1133 3411 1466 
L 2867 3475 
L 2298 3475 
L 1754 1466 
C 1670 1133 1594 819 1523 499 
L 1491 499 
C 1421 819 1357 1133 1286 1466 
L 768 3475 
L 173 3475 
L 1139 0 
z
" transform="scale(0.015625)"/>
     </defs>
     <use xlink:href="#NotoSansCJKsc-Regular-42"/>
     <use xlink:href="#NotoSansCJKsc-Regular-69" transform="translate(65.699997 0)"/>
     <use xlink:href="#NotoSansCJKsc-Regular-61" transform="translate(93.199982 0)"/>
     <use xlink:href="#NotoSansCJKsc-Regular-73" transform="translate(149.499969 0)"/>
     <use xlink:href="#NotoSansCJKsc-Regular-20" transform="translate(196.299957 0)"/>
     <use xlink:href="#NotoSansCJKsc-Regular-63" transform="translate(218.699951 0)"/>
     <use xlink:href="#NotoSansCJKsc-Regular-6f" transform="translate(269.699936 0)"/>
     <use xlink:href="#NotoSansCJKsc-Regular-6e" transform="translate(330.299927 0)"/>
     <use xlink:href="#NotoSansCJKsc-Regular-63" transform="translate(391.299911 0)"/>
     <use xlink:href="#NotoSansCJKsc-Regular-65" transform="translate(442.299896 0)"/>
     <use xlink:href="#NotoSansCJKsc-Regular-6e" transform="translate(497.69989 0)"/>
     <use xlink:href="#NotoSansCJKsc-Regular-74" transform="translate(558.699875 0)"/>
     <use xlink:href="#NotoSansCJKsc-Regular-72" transform="translate(596.399872 0)"/>
     <use xlink:href="#NotoSansCJKsc-Regular-61" transform="translate(635.19986 0)"/>
     <use xlink:href="#NotoSansCJKsc-Regular-74" transform="translate(691.499847 0)"/>
     <use xlink:href="#NotoSansCJKsc-Regular-65" transform="translate(729.199844 0)"/>
     <use xlink:href="#NotoSansCJKsc-Regular-73" transform="translate(784.599838 0)"/>
     <use xlink:href="#NotoSansCJKsc-Regular-20" transform="translate(831.399826 0)"/>
     <use xlink:href="#NotoSansCJKsc-Regular-69" transform="translate(853.79982 0)"/>
     <use xlink:href="#NotoSansCJKsc-Regular-6e" transform="translate(881.299805 0)"/>
     <use xlink:href="#NotoSansCJKsc-Regular-20" transform="translate(942.299789 0)"/>
     <use xlink:href="#NotoSansCJKsc-Regular-66" transform="translate(964.699783 0)"/>
     <use xlink:href="#NotoSansCJKsc-Regular-65" transform="translate(997.199768 0)"/>
     <use xlink:href="#NotoSansCJKsc-Regular-77" transform="translate(1052.599762 0)"/>
     <use xlink:href="#NotoSansCJKsc-Regular-20" transform="translate(1132.799744 0)"/>
     <use xlink:href="#NotoSansCJKsc-Regular-76" transform="translate(1155.199738 0)"/>
     <use xlink:href="#NotoSansCJKsc-Regular-69" transform="translate(1207.299728 0)"/>
     <use xlink:href="#NotoSansCJKsc-Regular-73" transform="translate(1234.799713 0)"/>
     <use xlink:href="#NotoSansCJKsc-Regular-75" transform="translate(1281.599701 0)"/>
     <use xlink:href="#NotoSansCJKsc-Regular-61" transform="translate(1342.299698 0)"/>
     <use xlink:href="#NotoSansCJKsc-Regular-6c" transform="translate(1398.599686 0)"/>
     <use xlink:href="#NotoSansCJKsc-Regular-20" transform="translate(1426.99968 0)"/>
     <use xlink:href="#NotoSansCJKsc-Regular-63" transform="translate(1449.399673 0)"/>
     <use xlink:href="#NotoSansCJKsc-Regular-75" transform="translate(1500.399658 0)"/>
     <use xlink:href="#NotoSansCJKsc-Regular-65" transform="translate(1561.099655 0)"/>
     <use xlink:href="#NotoSansCJKsc-Regular-73" transform="translate(1616.499649 0)"/>
    </g>
   </g>
   <g id="line2d_22">
    <defs>
     <path id="ma54bb68e53" d="M 0 3 
C 0.795609 3 1.55874 2.683901 2.12132 2.12132 
C 2.683901 1.55874 3 0.795609 3 0 
C 3 -0.795609 2.683901 -1.55874 2.12132 -2.12132 
C 1.55874 -2.683901 0.795609 -3 0 -3 
C -0.795609 -3 -1.55874 -2.683901 -2.12132 -2.12132 
C -2.683901 -1.55874 -3 -0.795609 -3 0 
C -3 0.795609 -2.683901 1.55874 -2.12132 2.12132 
C -1.55874 2.683901 -0.795609 3 0 3 
z
" style="stroke: #e11d48"/>
    </defs>
    <g clip-path="url(#pf98e24f78e)">
     <use xlink:href="#ma54bb68e53" x="159.84208" y="122.252595" style="fill: #e11d48; stroke: #e11d48"/>
    </g>
   </g>
  </g>
  <g id="axes_2">
   <g id="patch_6">
    <path d="M 442.75475 272.2705 
L 779.256 272.2705 
L 779.256 75.372 
L 442.75475 75.372 
z
" style="fill: #ffffff"/>
   </g>
   <g id="matplotlib.axis_3">
    <g id="xtick_7">
     <g id="line2d_23">
      <g>
       <use xlink:href="#mf61f2853b8" x="479.431084" y="272.2705" style="fill: #475569; stroke: #475569; stroke-width: 0.8"/>
      </g>
     </g>
     <g id="text_17">
      <!-- Age -->
      <g style="fill: #475569" transform="translate(469.937568 287.7955) scale(0.11 -0.11)">
       <defs>
        <path id="NotoSansCJKsc-Regular-41" d="M 26 0 
L 621 0 
L 1075 1434 
L 2790 1434 
L 3238 0 
L 3866 0 
L 2272 4691 
L 1613 4691 
L 26 0 
z
M 1222 1901 
L 1453 2624 
C 1619 3155 1773 3661 1920 4211 
L 1946 4211 
C 2099 3667 2246 3155 2419 2624 
L 2643 1901 
L 1222 1901 
z
" transform="scale(0.015625)"/>
        <path id="NotoSansCJKsc-Regular-67" d="M 1760 -1600 
C 2835 -1600 3520 -1043 3520 -397 
C 3520 179 3110 429 2310 429 
L 1626 429 
C 1158 429 1018 589 1018 806 
C 1018 998 1114 1114 1242 1222 
C 1395 1146 1587 1101 1754 1101 
C 2470 1101 3027 1568 3027 2310 
C 3027 2611 2912 2867 2746 3027 
L 3456 3027 
L 3456 3475 
L 2246 3475 
C 2125 3526 1952 3565 1754 3565 
C 1056 3565 454 3085 454 2323 
C 454 1907 678 1568 909 1389 
L 909 1363 
C 723 1235 525 1005 525 717 
C 525 442 659 256 838 147 
L 838 115 
C 512 -83 326 -371 326 -672 
C 326 -1267 915 -1600 1760 -1600 
z
M 1754 1498 
C 1357 1498 1018 1818 1018 2323 
C 1018 2835 1350 3136 1754 3136 
C 2170 3136 2496 2835 2496 2323 
C 2496 1818 2157 1498 1754 1498 
z
M 1843 -1197 
C 1210 -1197 838 -960 838 -589 
C 838 -390 941 -179 1190 0 
C 1344 -38 1510 -51 1638 -51 
L 2240 -51 
C 2701 -51 2944 -166 2944 -493 
C 2944 -851 2515 -1197 1843 -1197 
z
" transform="scale(0.015625)"/>
       </defs>
       <use xlink:href="#NotoSansCJKsc-Regular-41"/>
       <use xlink:href="#NotoSansCJKsc-Regular-67" transform="translate(60.799988 0)"/>
       <use xlink:href="#NotoSansCJKsc-Regular-65" transform="translate(117.199982 0)"/>
      </g>
     </g>
    </g>
    <g id="xtick_8">
     <g id="line2d_24">
      <g>
       <use xlink:href="#mf61f2853b8" x="545.218229" y="272.2705" style="fill: #475569; stroke: #475569; stroke-width: 0.8"/>
      </g>
     </g>
     <g id="text_18">
      <!-- Body -->
      <g style="fill: #475569" transform="translate(531.996745 288.025812) scale(0.11 -0.11)">
       <use xlink:href="#NotoSansCJKsc-Regular-42"/>
       <use xlink:href="#NotoSansCJKsc-Regular-6f" transform="translate(65.699997 0)"/>
       <use xlink:href="#NotoSansCJKsc-Regular-64" transform="translate(126.299988 0)"/>
       <use xlink:href="#NotoSansCJKsc-Regular-79" transform="translate(188.299973 0)"/>
      </g>
      <!-- type -->
      <g style="fill: #475569" transform="translate(533.822057 301.106875) scale(0.11 -0.11)">
       <use xlink:href="#NotoSansCJKsc-Regular-74"/>
       <use xlink:href="#NotoSansCJKsc-Regular-79" transform="translate(37.699997 0)"/>
       <use xlink:href="#NotoSansCJKsc-Regular-70" transform="translate(89.799988 0)"/>
       <use xlink:href="#NotoSansCJKsc-Regular-65" transform="translate(151.799973 0)"/>
      </g>
     </g>
    </g>
    <g id="xtick_9">
     <g id="line2d_25">
      <g>
       <use xlink:href="#mf61f2853b8" x="611.005375" y="272.2705" style="fill: #475569; stroke: #475569; stroke-width: 0.8"/>
      </g>
     </g>
     <g id="text_19">
      <!-- Fashion -->
      <g style="fill: #475569" transform="translate(590.760219 288.025812) scale(0.11 -0.11)">
       <defs>
        <path id="NotoSansCJKsc-Regular-46" d="M 646 0 
L 1235 0 
L 1235 2106 
L 3027 2106 
L 3027 2605 
L 1235 2605 
L 1235 4192 
L 3347 4192 
L 3347 4691 
L 646 4691 
L 646 0 
z
" transform="scale(0.015625)"/>
        <path id="NotoSansCJKsc-Regular-68" d="M 589 0 
L 1178 0 
L 1178 2522 
C 1523 2874 1766 3053 2125 3053 
C 2586 3053 2784 2778 2784 2125 
L 2784 0 
L 3366 0 
L 3366 2202 
C 3366 3085 3034 3565 2304 3565 
C 1830 3565 1472 3302 1152 2982 
L 1178 3699 
L 1178 5094 
L 589 5094 
L 589 0 
z
" transform="scale(0.015625)"/>
       </defs>
       <use xlink:href="#NotoSansCJKsc-Regular-46"/>
       <use xlink:href="#NotoSansCJKsc-Regular-61" transform="translate(55.199997 0)"/>
       <use xlink:href="#NotoSansCJKsc-Regular-73" transform="translate(111.499985 0)"/>
       <use xlink:href="#NotoSansCJKsc-Regular-68" transform="translate(158.299973 0)"/>
       <use xlink:href="#NotoSansCJKsc-Regular-69" transform="translate(218.999969 0)"/>
       <use xlink:href="#NotoSansCJKsc-Regular-6f" transform="translate(246.499954 0)"/>
       <use xlink:href="#NotoSansCJKsc-Regular-6e" transform="translate(307.099945 0)"/>
      </g>
      <!-- style -->
      <g style="fill: #475569" transform="translate(598.883031 301.051875) scale(0.11 -0.11)">
       <use xlink:href="#NotoSansCJKsc-Regular-73"/>
       <use xlink:href="#NotoSansCJKsc-Regular-74" transform="translate(46.799988 0)"/>
       <use xlink:href="#NotoSansCJKsc-Regular-79" transform="translate(84.499985 0)"/>
       <use xlink:href="#NotoSansCJKsc-Regular-6c" transform="translate(136.599976 0)"/>
       <use xlink:href="#NotoSansCJKsc-Regular-65" transform="translate(164.999969 0)"/>
      </g>
     </g>
    </g>
    <g id="xtick_10">
     <g id="line2d_26">
      <g>
       <use xlink:href="#mf61f2853b8" x="676.792521" y="272.2705" style="fill: #475569; stroke: #475569; stroke-width: 0.8"/>
      </g>
     </g>
     <g id="text_20">
      <!-- Hair -->
      <g style="fill: #475569" transform="translate(666.046036 288.025812) scale(0.11 -0.11)">
       <defs>
        <path id="NotoSansCJKsc-Regular-48" d="M 646 0 
L 1235 0 
L 1235 2214 
L 3424 2214 
L 3424 0 
L 4019 0 
L 4019 4691 
L 3424 4691 
L 3424 2726 
L 1235 2726 
L 1235 4691 
L 646 4691 
L 646 0 
z
" transform="scale(0.015625)"/>
       </defs>
       <use xlink:href="#NotoSansCJKsc-Regular-48"/>
       <use xlink:href="#NotoSansCJKsc-Regular-61" transform="translate(72.799988 0)"/>
       <use xlink:href="#NotoSansCJKsc-Regular-69" transform="translate(129.099976 0)"/>
       <use xlink:href="#NotoSansCJKsc-Regular-72" transform="translate(156.59996 0)"/>
      </g>
     </g>
    </g>
    <g id="xtick_11">
     <g id="line2d_27">
      <g>
       <use xlink:href="#mf61f2853b8" x="742.579666" y="272.2705" style="fill: #475569; stroke: #475569; stroke-width: 0.8"/>
      </g>
     </g>
     <g id="text_21">
      <!-- Accessory -->
      <g style="fill: #475569" transform="translate(717.099198 287.970812) scale(0.11 -0.11)">
       <use xlink:href="#NotoSansCJKsc-Regular-41"/>
       <use xlink:href="#NotoSansCJKsc-Regular-63" transform="translate(60.799988 0)"/>
       <use xlink:href="#NotoSansCJKsc-Regular-63" transform="translate(111.799973 0)"/>
       <use xlink:href="#NotoSansCJKsc-Regular-65" transform="translate(162.799957 0)"/>
       <use xlink:href="#NotoSansCJKsc-Regular-73" transform="translate(218.199951 0)"/>
       <use xlink:href="#NotoSansCJKsc-Regular-73" transform="translate(264.999939 0)"/>
       <use xlink:href="#NotoSansCJKsc-Regular-6f" transform="translate(311.799927 0)"/>
       <use xlink:href="#NotoSansCJKsc-Regular-72" transform="translate(372.399918 0)"/>
       <use xlink:href="#NotoSansCJKsc-Regular-79" transform="translate(411.199905 0)"/>
      </g>
     </g>
    </g>
   </g>
   <g id="matplotlib.axis_4">
    <g id="ytick_7">
     <g id="line2d_28">
      <path d="M 442.75475 272.2705 
L 779.256 272.2705 
" clip-path="url(#pbbaf1e432a)" style="fill: none; stroke: #e5e7eb; stroke-width: 0.8; stroke-linecap: square"/>
     </g>
     <g id="line2d_29">
      <g>
       <use xlink:href="#m290f2a0de4" x="442.75475" y="272.2705" style="fill: #475569; stroke: #475569; stroke-width: 0.8"/>
      </g>
     </g>
     <g id="text_22">
      <!-- 0 -->
      <g style="fill: #475569" transform="translate(429.64975 276.648156) scale(0.11 -0.11)">
       <use xlink:href="#NotoSansCJKsc-Regular-30"/>
      </g>
     </g>
    </g>
    <g id="ytick_8">
     <g id="line2d_30">
      <path d="M 442.75475 239.454083 
L 779.256 239.454083 
" clip-path="url(#pbbaf1e432a)" style="fill: none; stroke: #e5e7eb; stroke-width: 0.8; stroke-linecap: square"/>
     </g>
     <g id="line2d_31">
      <g>
       <use xlink:href="#m290f2a0de4" x="442.75475" y="239.454083" style="fill: #475569; stroke: #475569; stroke-width: 0.8"/>
      </g>
     </g>
     <g id="text_23">
      <!-- 20 -->
      <g style="fill: #475569" transform="translate(423.54475 243.83174) scale(0.11 -0.11)">
       <use xlink:href="#NotoSansCJKsc-Regular-32"/>
       <use xlink:href="#NotoSansCJKsc-Regular-30" transform="translate(55.499985 0)"/>
      </g>
     </g>
    </g>
    <g id="ytick_9">
     <g id="line2d_32">
      <path d="M 442.75475 206.637667 
L 779.256 206.637667 
" clip-path="url(#pbbaf1e432a)" style="fill: none; stroke: #e5e7eb; stroke-width: 0.8; stroke-linecap: square"/>
     </g>
     <g id="line2d_33">
      <g>
       <use xlink:href="#m290f2a0de4" x="442.75475" y="206.637667" style="fill: #475569; stroke: #475569; stroke-width: 0.8"/>
      </g>
     </g>
     <g id="text_24">
      <!-- 40 -->
      <g style="fill: #475569" transform="translate(423.54475 211.015323) scale(0.11 -0.11)">
       <use xlink:href="#NotoSansCJKsc-Regular-34"/>
       <use xlink:href="#NotoSansCJKsc-Regular-30" transform="translate(55.499985 0)"/>
      </g>
     </g>
    </g>
    <g id="ytick_10">
     <g id="line2d_34">
      <path d="M 442.75475 173.82125 
L 779.256 173.82125 
" clip-path="url(#pbbaf1e432a)" style="fill: none; stroke: #e5e7eb; stroke-width: 0.8; stroke-linecap: square"/>
     </g>
     <g id="line2d_35">
      <g>
       <use xlink:href="#m290f2a0de4" x="442.75475" y="173.82125" style="fill: #475569; stroke: #475569; stroke-width: 0.8"/>
      </g>
     </g>
     <g id="text_25">
      <!-- 60 -->
      <g style="fill: #475569" transform="translate(423.54475 178.198906) scale(0.11 -0.11)">
       <use xlink:href="#NotoSansCJKsc-Regular-36"/>
       <use xlink:href="#NotoSansCJKsc-Regular-30" transform="translate(55.499985 0)"/>
      </g>
     </g>
    </g>
    <g id="ytick_11">
     <g id="line2d_36">
      <path d="M 442.75475 141.004833 
L 779.256 141.004833 
" clip-path="url(#pbbaf1e432a)" style="fill: none; stroke: #e5e7eb; stroke-width: 0.8; stroke-linecap: square"/>
     </g>
     <g id="line2d_37">
      <g>
       <use xlink:href="#m290f2a0de4" x="442.75475" y="141.004833" style="fill: #475569; stroke: #475569; stroke-width: 0.8"/>
      </g>
     </g>
     <g id="text_26">
      <!-- 80 -->
      <g style="fill: #475569" transform="translate(423.54475 145.38249) scale(0.11 -0.11)">
       <use xlink:href="#NotoSansCJKsc-Regular-38"/>
       <use xlink:href="#NotoSansCJKsc-Regular-30" transform="translate(55.499985 0)"/>
      </g>
     </g>
    </g>
    <g id="ytick_12">
     <g id="line2d_38">
      <path d="M 442.75475 108.188417 
L 779.256 108.188417 
" clip-path="url(#pbbaf1e432a)" style="fill: none; stroke: #e5e7eb; stroke-width: 0.8; stroke-linecap: square"/>
     </g>
     <g id="line2d_39">
      <g>
       <use xlink:href="#m290f2a0de4" x="442.75475" y="108.188417" style="fill: #475569; stroke: #475569; stroke-width: 0.8"/>
      </g>
     </g>
     <g id="text_27">
      <!-- 100 -->
      <g style="fill: #475569" transform="translate(417.43975 112.566073) scale(0.11 -0.11)">
       <use xlink:href="#NotoSansCJKsc-Regular-31"/>
       <use xlink:href="#NotoSansCJKsc-Regular-30" transform="translate(55.499985 0)"/>
       <use xlink:href="#NotoSansCJKsc-Regular-30" transform="translate(110.999969 0)"/>
      </g>
     </g>
    </g>
    <g id="ytick_13">
     <g id="line2d_40">
      <path d="M 442.75475 75.372 
L 779.256 75.372 
" clip-path="url(#pbbaf1e432a)" style="fill: none; stroke: #e5e7eb; stroke-width: 0.8; stroke-linecap: square"/>
     </g>
     <g id="line2d_41">
      <g>
       <use xlink:href="#m290f2a0de4" x="442.75475" y="75.372" style="fill: #475569; stroke: #475569; stroke-width: 0.8"/>
      </g>
     </g>
     <g id="text_28">
      <!-- 120 -->
      <g style="fill: #475569" transform="translate(417.43975 79.749656) scale(0.11 -0.11)">
       <use xlink:href="#NotoSansCJKsc-Regular-31"/>
       <use xlink:href="#NotoSansCJKsc-Regular-32" transform="translate(55.499985 0)"/>
       <use xlink:href="#NotoSansCJKsc-Regular-30" transform="translate(110.999969 0)"/>
      </g>
     </g>
    </g>
    <g id="text_29">
     <!-- Relative bias-shift magnitude -->
     <g style="fill: #0f172a" transform="translate(410.68975 248.787969) rotate(-90) scale(0.11 -0.11)">
      <defs>
       <path id="NotoSansCJKsc-Regular-52" d="M 1235 2464 
L 1235 4211 
L 2022 4211 
C 2758 4211 3162 3994 3162 3379 
C 3162 2765 2758 2464 2022 2464 
L 1235 2464 
z
M 3219 0 
L 3885 0 
L 2694 2054 
C 3328 2208 3750 2643 3750 3379 
C 3750 4352 3066 4691 2112 4691 
L 646 4691 
L 646 0 
L 1235 0 
L 1235 1990 
L 2080 1990 
L 3219 0 
z
" transform="scale(0.015625)"/>
       <path id="NotoSansCJKsc-Regular-2d" d="M 294 1568 
L 1933 1568 
L 1933 2016 
L 294 2016 
L 294 1568 
z
" transform="scale(0.015625)"/>
      </defs>
      <use xlink:href="#NotoSansCJKsc-Regular-52"/>
      <use xlink:href="#NotoSansCJKsc-Regular-65" transform="translate(63.499985 0)"/>
      <use xlink:href="#NotoSansCJKsc-Regular-6c" transform="translate(118.899979 0)"/>
      <use xlink:href="#NotoSansCJKsc-Regular-61" transform="translate(147.299973 0)"/>
      <use xlink:href="#NotoSansCJKsc-Regular-74" transform="translate(203.59996 0)"/>
      <use xlink:href="#NotoSansCJKsc-Regular-69" transform="translate(241.299957 0)"/>
      <use xlink:href="#NotoSansCJKsc-Regular-76" transform="translate(268.799942 0)"/>
      <use xlink:href="#NotoSansCJKsc-Regular-65" transform="translate(320.899933 0)"/>
      <use xlink:href="#NotoSansCJKsc-Regular-20" transform="translate(376.299927 0)"/>
      <use xlink:href="#NotoSansCJKsc-Regular-62" transform="translate(398.699921 0)"/>
      <use xlink:href="#NotoSansCJKsc-Regular-69" transform="translate(460.499908 0)"/>
      <use xlink:href="#NotoSansCJKsc-Regular-61" transform="translate(487.999893 0)"/>
      <use xlink:href="#NotoSansCJKsc-Regular-73" transform="translate(544.299881 0)"/>
      <use xlink:href="#NotoSansCJKsc-Regular-2d" transform="translate(591.099869 0)"/>
      <use xlink:href="#NotoSansCJKsc-Regular-73" transform="translate(625.799866 0)"/>
      <use xlink:href="#NotoSansCJKsc-Regular-68" transform="translate(672.599854 0)"/>
      <use xlink:href="#NotoSansCJKsc-Regular-69" transform="translate(733.29985 0)"/>
      <use xlink:href="#NotoSansCJKsc-Regular-66" transform="translate(760.799835 0)"/>
      <use xlink:href="#NotoSansCJKsc-Regular-74" transform="translate(793.29982 0)"/>
      <use xlink:href="#NotoSansCJKsc-Regular-20" transform="translate(830.999817 0)"/>
      <use xlink:href="#NotoSansCJKsc-Regular-6d" transform="translate(853.399811 0)"/>
      <use xlink:href="#NotoSansCJKsc-Regular-61" transform="translate(945.999802 0)"/>
      <use xlink:href="#NotoSansCJKsc-Regular-67" transform="translate(1002.299789 0)"/>
      <use xlink:href="#NotoSansCJKsc-Regular-6e" transform="translate(1058.699783 0)"/>
      <use xlink:href="#NotoSansCJKsc-Regular-69" transform="translate(1119.699768 0)"/>
      <use xlink:href="#NotoSansCJKsc-Regular-74" transform="translate(1147.199753 0)"/>
      <use xlink:href="#NotoSansCJKsc-Regular-75" transform="translate(1184.89975 0)"/>
      <use xlink:href="#NotoSansCJKsc-Regular-64" transform="translate(1245.599747 0)"/>
      <use xlink:href="#NotoSansCJKsc-Regular-65" transform="translate(1307.599731 0)"/>
     </g>
    </g>
   </g>
   <g id="patch_7">
    <path d="M 442.75475 272.2705 
L 442.75475 75.372 
" style="fill: none; stroke: #94a3b8; stroke-width: 0.8; stroke-linejoin: miter; stroke-linecap: square"/>
   </g>
   <g id="patch_8">
    <path d="M 442.75475 272.2705 
L 779.256 272.2705 
" style="fill: none; stroke: #94a3b8; stroke-width: 0.8; stroke-linejoin: miter; stroke-linecap: square"/>
   </g>
   <g id="patch_9">
    <path d="M 458.050261 272.2705 
L 500.811906 272.2705 
L 500.811906 108.188417 
L 458.050261 108.188417 
z
" clip-path="url(#pbbaf1e432a)" style="fill: #2563eb"/>
   </g>
   <g id="patch_10">
    <path d="M 523.837407 272.2705 
L 566.599052 272.2705 
L 566.599052 121.314983 
L 523.837407 121.314983 
z
" clip-path="url(#pbbaf1e432a)" style="fill: #2563eb"/>
   </g>
   <g id="patch_11">
    <path d="M 589.624553 272.2705 
L 632.386197 272.2705 
L 632.386197 127.878267 
L 589.624553 127.878267 
z
" clip-path="url(#pbbaf1e432a)" style="fill: #10b981"/>
   </g>
   <g id="patch_12">
    <path d="M 655.411698 272.2705 
L 698.173343 272.2705 
L 698.173343 195.151921 
L 655.411698 195.151921 
z
" clip-path="url(#pbbaf1e432a)" style="fill: #94a3b8"/>
   </g>
   <g id="patch_13">
    <path d="M 721.198844 272.2705 
L 763.960489 272.2705 
L 763.960489 214.841771 
L 721.198844 214.841771 
z
" clip-path="url(#pbbaf1e432a)" style="fill: #94a3b8"/>
   </g>
   <g id="text_30">
    <!-- 100 -->
    <g style="fill: #0f172a" transform="translate(471.200584 106.188917) scale(0.093 -0.093)">
     <use xlink:href="#NotoSansCJKsc-Bold-31"/>
     <use xlink:href="#NotoSansCJKsc-Bold-30" transform="translate(58.999985 0)"/>
     <use xlink:href="#NotoSansCJKsc-Bold-30" transform="translate(117.999969 0)"/>
    </g>
   </g>
   <g id="text_31">
    <!-- 92 -->
    <g style="fill: #0f172a" transform="translate(539.731229 119.315483) scale(0.093 -0.093)">
     <defs>
      <path id="NotoSansCJKsc-Bold-39" d="M 1632 -90 
C 2573 -90 3450 685 3450 2477 
C 3450 4122 2650 4826 1747 4826 
C 934 4826 256 4218 256 3245 
C 256 2240 819 1754 1613 1754 
C 1933 1754 2336 1946 2586 2266 
C 2541 1082 2106 678 1581 678 
C 1299 678 1005 826 832 1018 
L 333 448 
C 614 160 1043 -90 1632 -90 
z
M 2573 2938 
C 2342 2566 2048 2426 1792 2426 
C 1382 2426 1120 2688 1120 3245 
C 1120 3827 1408 4115 1760 4115 
C 2163 4115 2490 3795 2573 2938 
z
" transform="scale(0.015625)"/>
      <path id="NotoSansCJKsc-Bold-32" d="M 275 0 
L 3450 0 
L 3450 794 
L 2426 794 
C 2202 794 1888 768 1645 736 
C 2509 1587 3226 2509 3226 3366 
C 3226 4250 2630 4826 1734 4826 
C 1088 4826 666 4576 224 4102 
L 749 3597 
C 986 3859 1267 4083 1613 4083 
C 2067 4083 2323 3789 2323 3322 
C 2323 2586 1568 1696 275 544 
L 275 0 
z
" transform="scale(0.015625)"/>
     </defs>
     <use xlink:href="#NotoSansCJKsc-Bold-39"/>
     <use xlink:href="#NotoSansCJKsc-Bold-32" transform="translate(58.999985 0)"/>
    </g>
   </g>
   <g id="text_32">
    <!-- 88 -->
    <g style="fill: #0f172a" transform="translate(605.518375 125.878767) scale(0.093 -0.093)">
     <use xlink:href="#NotoSansCJKsc-Bold-38"/>
     <use xlink:href="#NotoSansCJKsc-Bold-38" transform="translate(58.999985 0)"/>
    </g>
   </g>
   <g id="text_33">
    <!-- 47 -->
    <g style="fill: #0f172a" transform="translate(671.305521 193.152421) scale(0.093 -0.093)">
     <defs>
      <path id="NotoSansCJKsc-Bold-34" d="M 2157 0 
L 3034 0 
L 3034 1229 
L 3597 1229 
L 3597 1946 
L 3034 1946 
L 3034 4742 
L 1901 4742 
L 134 1869 
L 134 1229 
L 2157 1229 
L 2157 0 
z
M 2157 1946 
L 1050 1946 
L 1786 3123 
C 1920 3379 2048 3642 2163 3898 
L 2195 3898 
C 2176 3616 2157 3187 2157 2912 
L 2157 1946 
z
" transform="scale(0.015625)"/>
      <path id="NotoSansCJKsc-Bold-37" d="M 1190 0 
L 2138 0 
C 2221 1850 2368 2822 3469 4166 
L 3469 4742 
L 320 4742 
L 320 3949 
L 2451 3949 
C 1549 2694 1274 1645 1190 0 
z
" transform="scale(0.015625)"/>
     </defs>
     <use xlink:href="#NotoSansCJKsc-Bold-34"/>
     <use xlink:href="#NotoSansCJKsc-Bold-37" transform="translate(58.999985 0)"/>
    </g>
   </g>
   <g id="text_34">
    <!-- 35 -->
    <g style="fill: #0f172a" transform="translate(737.092666 212.842271) scale(0.093 -0.093)">
     <defs>
      <path id="NotoSansCJKsc-Bold-33" d="M 1747 -90 
C 2656 -90 3418 410 3418 1280 
C 3418 1907 3008 2304 2477 2451 
L 2477 2483 
C 2976 2682 3264 3053 3264 3565 
C 3264 4378 2643 4826 1728 4826 
C 1171 4826 717 4602 307 4250 
L 794 3667 
C 1069 3930 1344 4083 1683 4083 
C 2086 4083 2317 3866 2317 3494 
C 2317 3066 2035 2771 1171 2771 
L 1171 2093 
C 2195 2093 2470 1805 2470 1338 
C 2470 915 2144 678 1664 678 
C 1229 678 890 890 608 1165 
L 166 570 
C 499 192 1005 -90 1747 -90 
z
" transform="scale(0.015625)"/>
     </defs>
     <use xlink:href="#NotoSansCJKsc-Bold-33"/>
     <use xlink:href="#NotoSansCJKsc-Bold-35" transform="translate(58.999985 0)"/>
    </g>
   </g>
   <g id="text_35">
    <!-- Age / body type / fashion dominate -->
    <g style="fill: #475569" transform="translate(521.486 69.372) scale(0.11 -0.11)">
     <defs>
      <path id="NotoSansCJKsc-Regular-2f" d="M 70 -1146 
L 499 -1146 
L 2413 5082 
L 1990 5082 
L 70 -1146 
z
" transform="scale(0.015625)"/>
     </defs>
     <use xlink:href="#NotoSansCJKsc-Regular-41"/>
     <use xlink:href="#NotoSansCJKsc-Regular-67" transform="translate(60.799988 0)"/>
     <use xlink:href="#NotoSansCJKsc-Regular-65" transform="translate(117.199982 0)"/>
     <use xlink:href="#NotoSansCJKsc-Regular-20" transform="translate(172.599976 0)"/>
     <use xlink:href="#NotoSansCJKsc-Regular-2f" transform="translate(194.999969 0)"/>
     <use xlink:href="#NotoSansCJKsc-Regular-20" transform="translate(234.199966 0)"/>
     <use xlink:href="#NotoSansCJKsc-Regular-62" transform="translate(256.59996 0)"/>
     <use xlink:href="#NotoSansCJKsc-Regular-6f" transform="translate(318.399948 0)"/>
     <use xlink:href="#NotoSansCJKsc-Regular-64" transform="translate(378.999939 0)"/>
     <use xlink:href="#NotoSansCJKsc-Regular-79" transform="translate(440.999924 0)"/>
     <use xlink:href="#NotoSansCJKsc-Regular-20" transform="translate(493.099915 0)"/>
     <use xlink:href="#NotoSansCJKsc-Regular-74" transform="translate(515.499908 0)"/>
     <use xlink:href="#NotoSansCJKsc-Regular-79" transform="translate(553.199905 0)"/>
     <use xlink:href="#NotoSansCJKsc-Regular-70" transform="translate(605.299896 0)"/>
     <use xlink:href="#NotoSansCJKsc-Regular-65" transform="translate(667.299881 0)"/>
     <use xlink:href="#NotoSansCJKsc-Regular-20" transform="translate(722.699875 0)"/>
     <use xlink:href="#NotoSansCJKsc-Regular-2f" transform="translate(745.099869 0)"/>
     <use xlink:href="#NotoSansCJKsc-Regular-20" transform="translate(784.299866 0)"/>
     <use xlink:href="#NotoSansCJKsc-Regular-66" transform="translate(806.69986 0)"/>
     <use xlink:href="#NotoSansCJKsc-Regular-61" transform="translate(839.199844 0)"/>
     <use xlink:href="#NotoSansCJKsc-Regular-73" transform="translate(895.499832 0)"/>
     <use xlink:href="#NotoSansCJKsc-Regular-68" transform="translate(942.29982 0)"/>
     <use xlink:href="#NotoSansCJKsc-Regular-69" transform="translate(1002.999817 0)"/>
     <use xlink:href="#NotoSansCJKsc-Regular-6f" transform="translate(1030.499802 0)"/>
     <use xlink:href="#NotoSansCJKsc-Regular-6e" transform="translate(1091.099792 0)"/>
     <use xlink:href="#NotoSansCJKsc-Regular-20" transform="translate(1152.099777 0)"/>
     <use xlink:href="#NotoSansCJKsc-Regular-64" transform="translate(1174.499771 0)"/>
     <use xlink:href="#NotoSansCJKsc-Regular-6f" transform="translate(1236.499756 0)"/>
     <use xlink:href="#NotoSansCJKsc-Regular-6d" transform="translate(1297.099747 0)"/>
     <use xlink:href="#NotoSansCJKsc-Regular-69" transform="translate(1389.699738 0)"/>
     <use xlink:href="#NotoSansCJKsc-Regular-6e" transform="translate(1417.199722 0)"/>
     <use xlink:href="#NotoSansCJKsc-Regular-61" transform="translate(1478.199707 0)"/>
     <use xlink:href="#NotoSansCJKsc-Regular-74" transform="translate(1534.499695 0)"/>
     <use xlink:href="#NotoSansCJKsc-Regular-65" transform="translate(1572.199692 0)"/>
    </g>
   </g>
  </g>
  <g id="text_36">
   <!-- StylisticBias — a few cues drive most bias -->
   <g style="fill: #0f172a" transform="translate(8.64 19.602422) scale(0.135 -0.135)">
    <defs>
     <path id="NotoSansCJKsc-Bold-53" d="M 1997 -90 
C 3091 -90 3738 570 3738 1344 
C 3738 2029 3360 2400 2784 2637 
L 2163 2886 
C 1760 3053 1427 3174 1427 3514 
C 1427 3827 1683 4013 2099 4013 
C 2496 4013 2810 3866 3110 3622 
L 3590 4211 
C 3206 4602 2656 4826 2099 4826 
C 1146 4826 461 4224 461 3456 
C 461 2765 947 2381 1427 2189 
L 2054 1914 
C 2477 1734 2771 1626 2771 1274 
C 2771 941 2509 730 2016 730 
C 1600 730 1146 941 813 1254 
L 269 602 
C 730 154 1363 -90 1997 -90 
z
" transform="scale(0.015625)"/>
     <path id="NotoSansCJKsc-Bold-79" d="M 819 -1434 
C 1619 -1434 2003 -954 2317 -109 
L 3590 3584 
L 2688 3584 
L 2195 1920 
C 2106 1587 2016 1242 1939 909 
L 1907 909 
C 1805 1254 1715 1600 1606 1920 
L 1037 3584 
L 90 3584 
L 1485 70 
L 1421 -147 
C 1318 -461 1114 -691 749 -691 
C 666 -691 563 -666 499 -646 
L 326 -1370 
C 467 -1408 608 -1434 819 -1434 
z
" transform="scale(0.015625)"/>
     <path id="NotoSansCJKsc-Bold-6c" d="M 1395 -90 
C 1613 -90 1766 -51 1875 -6 
L 1760 691 
C 1696 678 1670 678 1632 678 
C 1542 678 1446 749 1446 966 
L 1446 5107 
L 506 5107 
L 506 1005 
C 506 339 736 -90 1395 -90 
z
" transform="scale(0.015625)"/>
     <path id="NotoSansCJKsc-Bold-63" d="M 2029 -90 
C 2426 -90 2861 45 3200 346 
L 2829 966 
C 2630 800 2394 678 2131 678 
C 1613 678 1242 1114 1242 1792 
C 1242 2464 1613 2906 2163 2906 
C 2362 2906 2528 2822 2707 2675 
L 3155 3270 
C 2893 3507 2554 3674 2112 3674 
C 1139 3674 282 2982 282 1792 
C 282 602 1043 -90 2029 -90 
z
" transform="scale(0.015625)"/>
     <path id="NotoSansCJKsc-Bold-42" d="M 582 0 
L 2272 0 
C 3315 0 4102 442 4102 1395 
C 4102 2029 3731 2394 3219 2515 
L 3219 2541 
C 3622 2688 3866 3130 3866 3571 
C 3866 4454 3123 4742 2150 4742 
L 582 4742 
L 582 0 
z
M 1530 2810 
L 1530 4013 
L 2093 4013 
C 2662 4013 2944 3846 2944 3430 
C 2944 3053 2688 2810 2086 2810 
L 1530 2810 
z
M 1530 730 
L 1530 2112 
L 2189 2112 
C 2842 2112 3181 1914 3181 1453 
C 3181 960 2829 730 2189 730 
L 1530 730 
z
" transform="scale(0.015625)"/>
     <path id="NotoSansCJKsc-Bold-2014" d="M 314 1536 
L 5498 1536 
L 5498 2138 
L 314 2138 
L 314 1536 
z
" transform="scale(0.015625)"/>
     <path id="NotoSansCJKsc-Bold-77" d="M 1101 0 
L 2176 0 
L 2541 1562 
C 2611 1894 2669 2227 2733 2611 
L 2765 2611 
C 2835 2227 2899 1901 2976 1562 
L 3354 0 
L 4461 0 
L 5344 3584 
L 4467 3584 
L 4083 1818 
C 4019 1466 3968 1120 3904 768 
L 3878 768 
C 3795 1120 3731 1466 3648 1818 
L 3200 3584 
L 2368 3584 
L 1933 1818 
C 1843 1472 1779 1120 1709 768 
L 1677 768 
C 1619 1120 1568 1466 1510 1818 
L 1114 3584 
L 179 3584 
L 1101 0 
z
" transform="scale(0.015625)"/>
     <path id="NotoSansCJKsc-Bold-64" d="M 1766 -90 
C 2138 -90 2496 109 2758 371 
L 2784 371 
L 2854 0 
L 3622 0 
L 3622 5107 
L 2682 5107 
L 2682 3846 
L 2714 3283 
C 2458 3520 2208 3674 1805 3674 
C 1037 3674 301 2957 301 1792 
C 301 614 870 -90 1766 -90 
z
M 2010 685 
C 1536 685 1267 1056 1267 1805 
C 1267 2515 1606 2899 2010 2899 
C 2240 2899 2464 2829 2682 2630 
L 2682 1056 
C 2477 787 2259 685 2010 685 
z
" transform="scale(0.015625)"/>
     <path id="NotoSansCJKsc-Bold-6d" d="M 506 0 
L 1446 0 
L 1446 2464 
C 1696 2739 1926 2867 2131 2867 
C 2477 2867 2637 2675 2637 2118 
L 2637 0 
L 3571 0 
L 3571 2464 
C 3827 2739 4058 2867 4262 2867 
C 4602 2867 4762 2675 4762 2118 
L 4762 0 
L 5696 0 
L 5696 2234 
C 5696 3136 5350 3674 4589 3674 
C 4128 3674 3776 3392 3443 3046 
C 3277 3443 2976 3674 2464 3674 
C 1997 3674 1664 3418 1363 3104 
L 1344 3104 
L 1274 3584 
L 506 3584 
L 506 0 
z
" transform="scale(0.015625)"/>
    </defs>
    <use xlink:href="#NotoSansCJKsc-Bold-53"/>
    <use xlink:href="#NotoSansCJKsc-Bold-74" transform="translate(62.399994 0)"/>
    <use xlink:href="#NotoSansCJKsc-Bold-79" transform="translate(104.499985 0)"/>
    <use xlink:href="#NotoSansCJKsc-Bold-6c" transform="translate(161.899979 0)"/>
    <use xlink:href="#NotoSansCJKsc-Bold-69" transform="translate(193.399963 0)"/>
    <use xlink:href="#NotoSansCJKsc-Bold-73" transform="translate(223.799957 0)"/>
    <use xlink:href="#NotoSansCJKsc-Bold-74" transform="translate(273.299942 0)"/>
    <use xlink:href="#NotoSansCJKsc-Bold-69" transform="translate(315.399933 0)"/>
    <use xlink:href="#NotoSansCJKsc-Bold-63" transform="translate(345.799927 0)"/>
    <use xlink:href="#NotoSansCJKsc-Bold-42" transform="translate(398.499924 0)"/>
    <use xlink:href="#NotoSansCJKsc-Bold-69" transform="translate(466.599915 0)"/>
    <use xlink:href="#NotoSansCJKsc-Bold-61" transform="translate(496.999908 0)"/>
    <use xlink:href="#NotoSansCJKsc-Bold-73" transform="translate(556.099899 0)"/>
    <use xlink:href="#NotoSansCJKsc-Bold-20" transform="translate(605.599884 0)"/>
    <use xlink:href="#NotoSansCJKsc-Bold-2014" transform="translate(628.299881 0)"/>
    <use xlink:href="#NotoSansCJKsc-Bold-20" transform="translate(719.099869 0)"/>
    <use xlink:href="#NotoSansCJKsc-Bold-61" transform="translate(741.799866 0)"/>
    <use xlink:href="#NotoSansCJKsc-Bold-20" transform="translate(800.899857 0)"/>
    <use xlink:href="#NotoSansCJKsc-Bold-66" transform="translate(823.599854 0)"/>
    <use xlink:href="#NotoSansCJKsc-Bold-65" transform="translate(860.79985 0)"/>
    <use xlink:href="#NotoSansCJKsc-Bold-77" transform="translate(918.899841 0)"/>
    <use xlink:href="#NotoSansCJKsc-Bold-20" transform="translate(1005.199829 0)"/>
    <use xlink:href="#NotoSansCJKsc-Bold-63" transform="translate(1027.899826 0)"/>
    <use xlink:href="#NotoSansCJKsc-Bold-75" transform="translate(1080.599823 0)"/>
    <use xlink:href="#NotoSansCJKsc-Bold-65" transform="translate(1144.29982 0)"/>
    <use xlink:href="#NotoSansCJKsc-Bold-73" transform="translate(1202.399811 0)"/>
    <use xlink:href="#NotoSansCJKsc-Bold-20" transform="translate(1251.899796 0)"/>
    <use xlink:href="#NotoSansCJKsc-Bold-64" transform="translate(1274.599792 0)"/>
    <use xlink:href="#NotoSansCJKsc-Bold-72" transform="translate(1338.999786 0)"/>
    <use xlink:href="#NotoSansCJKsc-Bold-69" transform="translate(1382.599777 0)"/>
    <use xlink:href="#NotoSansCJKsc-Bold-76" transform="translate(1412.999771 0)"/>
    <use xlink:href="#NotoSansCJKsc-Bold-65" transform="translate(1470.599762 0)"/>
    <use xlink:href="#NotoSansCJKsc-Bold-20" transform="translate(1528.699753 0)"/>
    <use xlink:href="#NotoSansCJKsc-Bold-6d" transform="translate(1551.39975 0)"/>
    <use xlink:href="#NotoSansCJKsc-Bold-6f" transform="translate(1647.799744 0)"/>
    <use xlink:href="#NotoSansCJKsc-Bold-73" transform="translate(1710.399734 0)"/>
    <use xlink:href="#NotoSansCJKsc-Bold-74" transform="translate(1759.899719 0)"/>
    <use xlink:href="#NotoSansCJKsc-Bold-20" transform="translate(1801.99971 0)"/>
    <use xlink:href="#NotoSansCJKsc-Bold-62" transform="translate(1824.699707 0)"/>
    <use xlink:href="#NotoSansCJKsc-Bold-69" transform="translate(1889.099701 0)"/>
    <use xlink:href="#NotoSansCJKsc-Bold-61" transform="translate(1919.499695 0)"/>
    <use xlink:href="#NotoSansCJKsc-Bold-73" transform="translate(1978.599686 0)"/>
   </g>
  </g>
 </g>
 <defs>
  <clipPath id="pf98e24f78e">
   <rect x="52.7735" y="75.372" width="336.50125" height="196.8985"/>
  </clipPath>
  <clipPath id="pbbaf1e432a">
   <rect x="442.75475" y="75.372" width="336.50125" height="196.8985"/>
  </clipPath>
 </defs>
</svg>
