<?xml version="1.0" encoding="utf-8" standalone="no"?>
<!DOCTYPE svg PUBLIC "-//W3C//DTD SVG 1.1//EN"
  "http://www.w3.org/Graphics/SVG/1.1/DTD/svg11.dtd">
<svg xmlns:xlink="http://www.w3.org/1999/xlink" width="631.08pt" height="272.304pt" viewBox="0 0 631.08 272.304" xmlns="http://www.w3.org/2000/svg" version="1.1">
 <metadata>
  <rdf:RDF xmlns:dc="http://purl.org/dc/elements/1.1/" xmlns:cc="http://creativecommons.org/ns#" xmlns:rdf="http://www.w3.org/1999/02/22-rdf-syntax-ns#">
   <cc:Work>
    <dc:type rdf:resource="http://purl.org/dc/dcmitype/StillImage"/>
    <dc:date>2026-06-21T19:29:08.752793</dc:date>
    <dc:format>image/svg+xml</dc:format>
    <dc:creator>
     <cc:Agent>
      <dc:title>Matplotlib v3.10.5, https://matplotlib.org/</dc:title>
     </cc:Agent>
    </dc:creator>
   </cc:Work>
  </rdf:RDF>
 </metadata>
 <defs>
  <style type="text/css">*{stroke-linejoin: round; stroke-linecap: butt}</style>
 </defs>
 <g id="figure_1">
  <g id="patch_1">
   <path d="M 0 272.304 
L 631.08 272.304 
L 631.08 0 
L 0 0 
z
" style="fill: #ffffff"/>
  </g>
  <g id="axes_1">
   <g id="patch_2">
    <path d="M 142.607544 118.30032 
Q 149.814478 118.30032 155.094483 118.30032 
" clip-path="url(#pca55817a4d)" style="fill: none; stroke: #94a3b8; stroke-width: 1.9; stroke-linecap: round"/>
    <path d="M 149.094483 114.90032 
L 155.094483 118.30032 
L 149.094483 121.70032 
" clip-path="url(#pca55817a4d)" style="fill: none; stroke: #94a3b8; stroke-width: 1.9; stroke-linecap: round"/>
   </g>
   <g id="patch_3">
    <path d="M 289.919544 118.30032 
Q 297.126478 118.30032 302.406483 118.30032 
" clip-path="url(#pca55817a4d)" style="fill: none; stroke: #94a3b8; stroke-width: 1.9; stroke-linecap: round"/>
    <path d="M 296.406483 114.90032 
L 302.406483 118.30032 
L 296.406483 121.70032 
" clip-path="url(#pca55817a4d)" style="fill: none; stroke: #94a3b8; stroke-width: 1.9; stroke-linecap: round"/>
   </g>
   <g id="patch_4">
    <path d="M 449.354694 109.881913 
Q 456.713677 106.824374 462.29321 104.506168 
" clip-path="url(#pca55817a4d)" style="fill: none; stroke: #10b981; stroke-width: 1.9; stroke-linecap: round"/>
    <path d="M 455.447897 103.668497 
L 462.29321 104.506168 
L 458.056952 109.948054 
" clip-path="url(#pca55817a4d)" style="fill: none; stroke: #10b981; stroke-width: 1.9; stroke-linecap: round"/>
   </g>
   <g id="patch_5">
    <path d="M 448.421856 127.724876 
Q 456.713229 143.801225 464.121343 158.165 
" clip-path="url(#pca55817a4d)" style="fill: none; stroke: #e11d48; stroke-width: 1.9; stroke-linecap: round"/>
    <path d="M 464.392859 151.273971 
L 464.121343 158.165 
L 458.349305 154.390933 
" clip-path="url(#pca55817a4d)" style="fill: none; stroke: #e11d48; stroke-width: 1.9; stroke-linecap: round"/>
   </g>
   <g id="patch_6">
    <path d="M 22.7574 159.614208 
L 135.6966 159.614208 
Q 147.9726 159.614208 147.9726 154.513728 
L 147.9726 82.086912 
Q 147.9726 76.986432 135.6966 76.986432 
L 22.7574 76.986432 
Q 10.4814 76.986432 10.4814 82.086912 
L 10.4814 154.513728 
Q 10.4814 159.614208 22.7574 159.614208 
z
" clip-path="url(#pca55817a4d)" style="fill: #ecfeff; stroke: #a5f3fc; stroke-width: 1.4; stroke-linejoin: miter"/>
   </g>
   <g id="patch_7">
    <path d="M 163.9314 159.614208 
L 283.0086 159.614208 
Q 295.2846 159.614208 295.2846 154.513728 
L 295.2846 82.086912 
Q 295.2846 76.986432 283.0086 76.986432 
L 163.9314 76.986432 
Q 151.6554 76.986432 151.6554 82.086912 
L 151.6554 154.513728 
Q 151.6554 159.614208 163.9314 159.614208 
z
" clip-path="url(#pca55817a4d)" style="fill: #eff6ff; stroke: #bfdbfe; stroke-width: 1.4; stroke-linejoin: miter"/>
   </g>
   <g id="patch_8">
    <path d="M 311.2434 159.614208 
L 442.5966 159.614208 
Q 454.8726 159.614208 454.8726 154.513728 
L 454.8726 82.086912 
Q 454.8726 76.986432 442.5966 76.986432 
L 311.2434 76.986432 
Q 298.9674 76.986432 298.9674 82.086912 
L 298.9674 154.513728 
Q 298.9674 159.614208 311.2434 159.614208 
z
" clip-path="url(#pca55817a4d)" style="fill: #f5f3ff; stroke: #ddd6fe; stroke-width: 1.4; stroke-linejoin: miter"/>
   </g>
   <g id="patch_9">
    <path d="M 470.8314 126.461088 
L 608.3226 126.461088 
Q 620.5986 126.461088 620.5986 121.360608 
L 620.5986 82.086912 
Q 620.5986 76.986432 608.3226 76.986432 
L 470.8314 76.986432 
Q 458.5554 76.986432 458.5554 82.086912 
L 458.5554 121.360608 
Q 458.5554 126.461088 470.8314 126.461088 
z
" clip-path="url(#pca55817a4d)" style="fill: #ecfdf5; stroke: #bbf7d0; stroke-width: 1.4; stroke-linejoin: miter"/>
   </g>
   <g id="patch_10">
    <path d="M 470.8314 190.217088 
L 608.3226 190.217088 
Q 620.5986 190.217088 620.5986 185.116608 
L 620.5986 145.842912 
Q 620.5986 140.742432 608.3226 140.742432 
L 470.8314 140.742432 
Q 458.5554 140.742432 458.5554 145.842912 
L 458.5554 185.116608 
Q 458.5554 190.217088 470.8314 190.217088 
z
" clip-path="url(#pca55817a4d)" style="fill: #fff1f2; stroke: #fecdd3; stroke-width: 1.4; stroke-linejoin: miter"/>
   </g>
   <g id="text_1">
    <!-- NAMESAKES — black-box probe of identity memorization in T2I models -->
    <g style="fill: #0f172a" transform="translate(16.0056 45.453764) scale(0.155 -0.155)">
     <defs>
      <path id="NotoSansCJKsc-Bold-4e" d="M 582 0 
L 1485 0 
L 1485 1901 
C 1485 2445 1402 3040 1363 3552 
L 1395 3552 
L 1875 2534 
L 3238 0 
L 4205 0 
L 4205 4742 
L 3309 4742 
L 3309 2848 
C 3309 2310 3386 1683 3437 1190 
L 3405 1190 
L 2925 2214 
L 1549 4742 
L 582 4742 
L 582 0 
z
" transform="scale(0.015625)"/>
      <path id="NotoSansCJKsc-Bold-41" d="M -26 0 
L 934 0 
L 1267 1216 
L 2797 1216 
L 3130 0 
L 4128 0 
L 2611 4742 
L 1491 4742 
L -26 0 
z
M 1472 1952 
L 1613 2470 
C 1754 2963 1888 3501 2016 4019 
L 2042 4019 
C 2182 3514 2310 2963 2458 2470 
L 2598 1952 
L 1472 1952 
z
" transform="scale(0.015625)"/>
      <path id="NotoSansCJKsc-Bold-4d" d="M 582 0 
L 1434 0 
L 1434 1978 
C 1434 2432 1357 3085 1312 3533 
L 1338 3533 
L 1715 2419 
L 2451 429 
L 2995 429 
L 3725 2419 
L 4109 3533 
L 4141 3533 
C 4090 3085 4019 2432 4019 1978 
L 4019 0 
L 4883 0 
L 4883 4742 
L 3834 4742 
L 3040 2515 
C 2944 2227 2861 1914 2758 1613 
L 2726 1613 
C 2630 1914 2541 2227 2438 2515 
L 1632 4742 
L 582 4742 
L 582 0 
z
" transform="scale(0.015625)"/>
      <path id="NotoSansCJKsc-Bold-45" d="M 582 0 
L 3558 0 
L 3558 794 
L 1530 794 
L 1530 2061 
L 3187 2061 
L 3187 2854 
L 1530 2854 
L 1530 3949 
L 3488 3949 
L 3488 4742 
L 582 4742 
L 582 0 
z
" transform="scale(0.015625)"/>
      <path id="NotoSansCJKsc-Bold-53" d="M 1997 -90 
C 3091 -90 3738 570 3738 1344 
C 3738 2029 3360 2400 2784 2637 
L 2163 2886 
C 1760 3053 1427 3174 1427 3514 
C 1427 3827 1683 4013 2099 4013 
C 2496 4013 2810 3866 3110 3622 
L 3590 4211 
C 3206 4602 2656 4826 2099 4826 
C 1146 4826 461 4224 461 3456 
C 461 2765 947 2381 1427 2189 
L 2054 1914 
C 2477 1734 2771 1626 2771 1274 
C 2771 941 2509 730 2016 730 
C 1600 730 1146 941 813 1254 
L 269 602 
C 730 154 1363 -90 1997 -90 
z
" transform="scale(0.015625)"/>
      <path id="NotoSansCJKsc-Bold-4b" d="M 582 0 
L 1530 0 
L 1530 1331 
L 2150 2131 
L 3379 0 
L 4416 0 
L 2714 2874 
L 4160 4742 
L 3117 4742 
L 1549 2682 
L 1530 2682 
L 1530 4742 
L 582 4742 
L 582 0 
z
" transform="scale(0.015625)"/>
      <path id="NotoSansCJKsc-Bold-20" transform="scale(0.015625)"/>
      <path id="NotoSansCJKsc-Bold-2014" d="M 314 1536 
L 5498 1536 
L 5498 2138 
L 314 2138 
L 314 1536 
z
" transform="scale(0.015625)"/>
      <path id="NotoSansCJKsc-Bold-62" d="M 2304 -90 
C 3091 -90 3827 621 3827 1856 
C 3827 2950 3296 3674 2413 3674 
C 2061 3674 1702 3501 1414 3245 
L 1446 3821 
L 1446 5107 
L 506 5107 
L 506 0 
L 1242 0 
L 1318 378 
L 1350 378 
C 1638 77 1984 -90 2304 -90 
z
M 2099 685 
C 1901 685 1664 755 1446 954 
L 1446 2534 
C 1690 2778 1907 2899 2150 2899 
C 2643 2899 2861 2522 2861 1837 
C 2861 1056 2522 685 2099 685 
z
" transform="scale(0.015625)"/>
      <path id="NotoSansCJKsc-Bold-6c" d="M 1395 -90 
C 1613 -90 1766 -51 1875 -6 
L 1760 691 
C 1696 678 1670 678 1632 678 
C 1542 678 1446 749 1446 966 
L 1446 5107 
L 506 5107 
L 506 1005 
C 506 339 736 -90 1395 -90 
z
" transform="scale(0.015625)"/>
      <path id="NotoSansCJKsc-Bold-61" d="M 1382 -90 
C 1798 -90 2157 109 2464 384 
L 2496 384 
L 2560 0 
L 3328 0 
L 3328 2093 
C 3328 3130 2861 3674 1952 3674 
C 1389 3674 877 3456 461 3200 
L 794 2573 
C 1126 2771 1446 2918 1779 2918 
C 2221 2918 2374 2650 2387 2298 
C 947 2144 326 1741 326 979 
C 326 365 742 -90 1382 -90 
z
M 1696 646 
C 1421 646 1222 768 1222 1050 
C 1222 1376 1510 1613 2387 1715 
L 2387 998 
C 2163 774 1965 646 1696 646 
z
" transform="scale(0.015625)"/>
      <path id="NotoSansCJKsc-Bold-63" d="M 2029 -90 
C 2426 -90 2861 45 3200 346 
L 2829 966 
C 2630 800 2394 678 2131 678 
C 1613 678 1242 1114 1242 1792 
C 1242 2464 1613 2906 2163 2906 
C 2362 2906 2528 2822 2707 2675 
L 3155 3270 
C 2893 3507 2554 3674 2112 3674 
C 1139 3674 282 2982 282 1792 
C 282 602 1043 -90 2029 -90 
z
" transform="scale(0.015625)"/>
      <path id="NotoSansCJKsc-Bold-6b" d="M 506 0 
L 1434 0 
L 1434 909 
L 1933 1491 
L 2803 0 
L 3827 0 
L 2483 2106 
L 3712 3584 
L 2682 3584 
L 1459 2048 
L 1434 2048 
L 1434 5107 
L 506 5107 
L 506 0 
z
" transform="scale(0.015625)"/>
      <path id="NotoSansCJKsc-Bold-2d" d="M 314 1491 
L 2061 1491 
L 2061 2170 
L 314 2170 
L 314 1491 
z
" transform="scale(0.015625)"/>
      <path id="NotoSansCJKsc-Bold-6f" d="M 2003 -90 
C 2899 -90 3725 602 3725 1792 
C 3725 2982 2899 3674 2003 3674 
C 1101 3674 282 2982 282 1792 
C 282 602 1101 -90 2003 -90 
z
M 2003 678 
C 1510 678 1242 1114 1242 1792 
C 1242 2464 1510 2906 2003 2906 
C 2490 2906 2765 2464 2765 1792 
C 2765 1114 2490 678 2003 678 
z
" transform="scale(0.015625)"/>
      <path id="NotoSansCJKsc-Bold-78" d="M 102 0 
L 1082 0 
L 1408 659 
C 1510 870 1606 1082 1709 1280 
L 1741 1280 
C 1856 1082 1978 870 2086 659 
L 2483 0 
L 3494 0 
L 2374 1760 
L 3424 3584 
L 2451 3584 
L 2150 2950 
C 2067 2746 1971 2541 1888 2342 
L 1862 2342 
C 1754 2541 1645 2746 1542 2950 
L 1184 3584 
L 173 3584 
L 1222 1862 
L 102 0 
z
" transform="scale(0.015625)"/>
      <path id="NotoSansCJKsc-Bold-70" d="M 506 -1376 
L 1446 -1376 
L 1446 -282 
L 1414 301 
C 1683 51 1990 -90 2304 -90 
C 3091 -90 3827 621 3827 1850 
C 3827 2950 3296 3674 2419 3674 
C 2029 3674 1664 3469 1363 3213 
L 1344 3213 
L 1274 3584 
L 506 3584 
L 506 -1376 
z
M 2099 685 
C 1901 685 1677 755 1446 954 
L 1446 2534 
C 1690 2778 1907 2899 2150 2899 
C 2643 2899 2861 2522 2861 1837 
C 2861 1056 2522 685 2099 685 
z
" transform="scale(0.015625)"/>
      <path id="NotoSansCJKsc-Bold-72" d="M 506 0 
L 1446 0 
L 1446 2138 
C 1651 2656 1984 2842 2259 2842 
C 2413 2842 2515 2822 2643 2784 
L 2797 3597 
C 2694 3642 2579 3674 2381 3674 
C 2010 3674 1626 3418 1363 2950 
L 1344 2950 
L 1274 3584 
L 506 3584 
L 506 0 
z
" transform="scale(0.015625)"/>
      <path id="NotoSansCJKsc-Bold-65" d="M 2067 -90 
C 2509 -90 2963 64 3315 307 
L 2995 883 
C 2733 723 2483 640 2195 640 
C 1658 640 1274 941 1197 1523 
L 3405 1523 
C 3430 1613 3450 1786 3450 1958 
C 3450 2957 2938 3674 1952 3674 
C 1101 3674 282 2950 282 1792 
C 282 608 1062 -90 2067 -90 
z
M 1178 2157 
C 1254 2675 1587 2944 1965 2944 
C 2432 2944 2643 2637 2643 2157 
L 1178 2157 
z
" transform="scale(0.015625)"/>
      <path id="NotoSansCJKsc-Bold-66" d="M 179 2842 
L 666 2842 
L 666 0 
L 1600 0 
L 1600 2842 
L 2285 2842 
L 2285 3584 
L 1600 3584 
L 1600 3891 
C 1600 4288 1760 4454 2035 4454 
C 2163 4454 2298 4429 2419 4371 
L 2592 5075 
C 2432 5139 2189 5197 1907 5197 
C 1011 5197 666 4614 666 3872 
L 666 3578 
L 179 3539 
L 179 2842 
z
" transform="scale(0.015625)"/>
      <path id="NotoSansCJKsc-Bold-69" d="M 506 0 
L 1446 0 
L 1446 3584 
L 506 3584 
L 506 0 
z
M 979 4166 
C 1299 4166 1523 4365 1523 4678 
C 1523 4986 1299 5190 979 5190 
C 646 5190 435 4986 435 4678 
C 435 4365 646 4166 979 4166 
z
" transform="scale(0.015625)"/>
      <path id="NotoSansCJKsc-Bold-64" d="M 1766 -90 
C 2138 -90 2496 109 2758 371 
L 2784 371 
L 2854 0 
L 3622 0 
L 3622 5107 
L 2682 5107 
L 2682 3846 
L 2714 3283 
C 2458 3520 2208 3674 1805 3674 
C 1037 3674 301 2957 301 1792 
C 301 614 870 -90 1766 -90 
z
M 2010 685 
C 1536 685 1267 1056 1267 1805 
C 1267 2515 1606 2899 2010 2899 
C 2240 2899 2464 2829 2682 2630 
L 2682 1056 
C 2477 787 2259 685 2010 685 
z
" transform="scale(0.015625)"/>
      <path id="NotoSansCJKsc-Bold-6e" d="M 506 0 
L 1446 0 
L 1446 2464 
C 1709 2726 1901 2867 2189 2867 
C 2541 2867 2694 2675 2694 2118 
L 2694 0 
L 3635 0 
L 3635 2234 
C 3635 3136 3302 3674 2528 3674 
C 2042 3674 1677 3418 1363 3110 
L 1344 3110 
L 1274 3584 
L 506 3584 
L 506 0 
z
" transform="scale(0.015625)"/>
      <path id="NotoSansCJKsc-Bold-74" d="M 1818 -90 
C 2131 -90 2381 -13 2579 45 
L 2419 730 
C 2323 691 2182 653 2067 653 
C 1747 653 1574 845 1574 1254 
L 1574 2842 
L 2464 2842 
L 2464 3584 
L 1574 3584 
L 1574 4550 
L 800 4550 
L 691 3584 
L 134 3539 
L 134 2842 
L 640 2842 
L 640 1248 
C 640 454 966 -90 1818 -90 
z
" transform="scale(0.015625)"/>
      <path id="NotoSansCJKsc-Bold-79" d="M 819 -1434 
C 1619 -1434 2003 -954 2317 -109 
L 3590 3584 
L 2688 3584 
L 2195 1920 
C 2106 1587 2016 1242 1939 909 
L 1907 909 
C 1805 1254 1715 1600 1606 1920 
L 1037 3584 
L 90 3584 
L 1485 70 
L 1421 -147 
C 1318 -461 1114 -691 749 -691 
C 666 -691 563 -666 499 -646 
L 326 -1370 
C 467 -1408 608 -1434 819 -1434 
z
" transform="scale(0.015625)"/>
      <path id="NotoSansCJKsc-Bold-6d" d="M 506 0 
L 1446 0 
L 1446 2464 
C 1696 2739 1926 2867 2131 2867 
C 2477 2867 2637 2675 2637 2118 
L 2637 0 
L 3571 0 
L 3571 2464 
C 3827 2739 4058 2867 4262 2867 
C 4602 2867 4762 2675 4762 2118 
L 4762 0 
L 5696 0 
L 5696 2234 
C 5696 3136 5350 3674 4589 3674 
C 4128 3674 3776 3392 3443 3046 
C 3277 3443 2976 3674 2464 3674 
C 1997 3674 1664 3418 1363 3104 
L 1344 3104 
L 1274 3584 
L 506 3584 
L 506 0 
z
" transform="scale(0.015625)"/>
      <path id="NotoSansCJKsc-Bold-7a" d="M 262 0 
L 3098 0 
L 3098 742 
L 1434 742 
L 3040 3078 
L 3040 3584 
L 442 3584 
L 442 2842 
L 1869 2842 
L 262 499 
L 262 0 
z
" transform="scale(0.015625)"/>
      <path id="NotoSansCJKsc-Bold-54" d="M 1523 0 
L 2470 0 
L 2470 3949 
L 3808 3949 
L 3808 4742 
L 192 4742 
L 192 3949 
L 1523 3949 
L 1523 0 
z
" transform="scale(0.015625)"/>
      <path id="NotoSansCJKsc-Bold-32" d="M 275 0 
L 3450 0 
L 3450 794 
L 2426 794 
C 2202 794 1888 768 1645 736 
C 2509 1587 3226 2509 3226 3366 
C 3226 4250 2630 4826 1734 4826 
C 1088 4826 666 4576 224 4102 
L 749 3597 
C 986 3859 1267 4083 1613 4083 
C 2067 4083 2323 3789 2323 3322 
C 2323 2586 1568 1696 275 544 
L 275 0 
z
" transform="scale(0.015625)"/>
      <path id="NotoSansCJKsc-Bold-49" d="M 582 0 
L 1530 0 
L 1530 4742 
L 582 4742 
L 582 0 
z
" transform="scale(0.015625)"/>
      <path id="NotoSansCJKsc-Bold-73" d="M 1530 -90 
C 2458 -90 2957 410 2957 1043 
C 2957 1702 2432 1946 1958 2125 
C 1574 2266 1248 2362 1248 2624 
C 1248 2829 1402 2970 1728 2970 
C 1990 2970 2240 2842 2496 2662 
L 2918 3232 
C 2624 3462 2221 3674 1702 3674 
C 883 3674 365 3219 365 2579 
C 365 1978 870 1702 1325 1530 
C 1702 1382 2074 1261 2074 992 
C 2074 768 1914 614 1555 614 
C 1216 614 915 762 595 1005 
L 166 410 
C 525 115 1050 -90 1530 -90 
z
" transform="scale(0.015625)"/>
     </defs>
     <use xlink:href="#NotoSansCJKsc-Bold-4e"/>
     <use xlink:href="#NotoSansCJKsc-Bold-41" transform="translate(74.899994 0)"/>
     <use xlink:href="#NotoSansCJKsc-Bold-4d" transform="translate(138.999985 0)"/>
     <use xlink:href="#NotoSansCJKsc-Bold-45" transform="translate(224.299973 0)"/>
     <use xlink:href="#NotoSansCJKsc-Bold-53" transform="translate(285.799957 0)"/>
     <use xlink:href="#NotoSansCJKsc-Bold-41" transform="translate(348.199951 0)"/>
     <use xlink:href="#NotoSansCJKsc-Bold-4b" transform="translate(412.299942 0)"/>
     <use xlink:href="#NotoSansCJKsc-Bold-45" transform="translate(480.899933 0)"/>
     <use xlink:href="#NotoSansCJKsc-Bold-53" transform="translate(542.399918 0)"/>
     <use xlink:href="#NotoSansCJKsc-Bold-20" transform="translate(604.799911 0)"/>
     <use xlink:href="#NotoSansCJKsc-Bold-2014" transform="translate(627.499908 0)"/>
     <use xlink:href="#NotoSansCJKsc-Bold-20" transform="translate(718.299896 0)"/>
     <use xlink:href="#NotoSansCJKsc-Bold-62" transform="translate(740.999893 0)"/>
     <use xlink:href="#NotoSansCJKsc-Bold-6c" transform="translate(805.399887 0)"/>
     <use xlink:href="#NotoSansCJKsc-Bold-61" transform="translate(836.899872 0)"/>
     <use xlink:href="#NotoSansCJKsc-Bold-63" transform="translate(895.999863 0)"/>
     <use xlink:href="#NotoSansCJKsc-Bold-6b" transform="translate(948.69986 0)"/>
     <use xlink:href="#NotoSansCJKsc-Bold-2d" transform="translate(1009.099854 0)"/>
     <use xlink:href="#NotoSansCJKsc-Bold-62" transform="translate(1046.099838 0)"/>
     <use xlink:href="#NotoSansCJKsc-Bold-6f" transform="translate(1110.499832 0)"/>
     <use xlink:href="#NotoSansCJKsc-Bold-78" transform="translate(1173.099823 0)"/>
     <use xlink:href="#NotoSansCJKsc-Bold-20" transform="translate(1229.29982 0)"/>
     <use xlink:href="#NotoSansCJKsc-Bold-70" transform="translate(1251.999817 0)"/>
     <use xlink:href="#NotoSansCJKsc-Bold-72" transform="translate(1316.399811 0)"/>
     <use xlink:href="#NotoSansCJKsc-Bold-6f" transform="translate(1359.999802 0)"/>
     <use xlink:href="#NotoSansCJKsc-Bold-62" transform="translate(1422.599792 0)"/>
     <use xlink:href="#NotoSansCJKsc-Bold-65" transform="translate(1486.999786 0)"/>
     <use xlink:href="#NotoSansCJKsc-Bold-20" transform="translate(1545.099777 0)"/>
     <use xlink:href="#NotoSansCJKsc-Bold-6f" transform="translate(1567.799774 0)"/>
     <use xlink:href="#NotoSansCJKsc-Bold-66" transform="translate(1630.399765 0)"/>
     <use xlink:href="#NotoSansCJKsc-Bold-20" transform="translate(1667.599762 0)"/>
     <use xlink:href="#NotoSansCJKsc-Bold-69" transform="translate(1690.299759 0)"/>
     <use xlink:href="#NotoSansCJKsc-Bold-64" transform="translate(1720.699753 0)"/>
     <use xlink:href="#NotoSansCJKsc-Bold-65" transform="translate(1785.099747 0)"/>
     <use xlink:href="#NotoSansCJKsc-Bold-6e" transform="translate(1843.199738 0)"/>
     <use xlink:href="#NotoSansCJKsc-Bold-74" transform="translate(1907.299728 0)"/>
     <use xlink:href="#NotoSansCJKsc-Bold-69" transform="translate(1949.399719 0)"/>
     <use xlink:href="#NotoSansCJKsc-Bold-74" transform="translate(1979.799713 0)"/>
     <use xlink:href="#NotoSansCJKsc-Bold-79" transform="translate(2021.899704 0)"/>
     <use xlink:href="#NotoSansCJKsc-Bold-20" transform="translate(2079.299698 0)"/>
     <use xlink:href="#NotoSansCJKsc-Bold-6d" transform="translate(2101.999695 0)"/>
     <use xlink:href="#NotoSansCJKsc-Bold-65" transform="translate(2198.399689 0)"/>
     <use xlink:href="#NotoSansCJKsc-Bold-6d" transform="translate(2256.49968 0)"/>
     <use xlink:href="#NotoSansCJKsc-Bold-6f" transform="translate(2352.899673 0)"/>
     <use xlink:href="#NotoSansCJKsc-Bold-72" transform="translate(2415.499664 0)"/>
     <use xlink:href="#NotoSansCJKsc-Bold-69" transform="translate(2459.099655 0)"/>
     <use xlink:href="#NotoSansCJKsc-Bold-7a" transform="translate(2489.499649 0)"/>
     <use xlink:href="#NotoSansCJKsc-Bold-61" transform="translate(2540.59964 0)"/>
     <use xlink:href="#NotoSansCJKsc-Bold-74" transform="translate(2599.699631 0)"/>
     <use xlink:href="#NotoSansCJKsc-Bold-69" transform="translate(2641.799622 0)"/>
     <use xlink:href="#NotoSansCJKsc-Bold-6f" transform="translate(2672.199615 0)"/>
     <use xlink:href="#NotoSansCJKsc-Bold-6e" transform="translate(2734.799606 0)"/>
     <use xlink:href="#NotoSansCJKsc-Bold-20" transform="translate(2798.899597 0)"/>
     <use xlink:href="#NotoSansCJKsc-Bold-69" transform="translate(2821.599594 0)"/>
     <use xlink:href="#NotoSansCJKsc-Bold-6e" transform="translate(2851.999588 0)"/>
     <use xlink:href="#NotoSansCJKsc-Bold-20" transform="translate(2916.099579 0)"/>
     <use xlink:href="#NotoSansCJKsc-Bold-54" transform="translate(2938.799576 0)"/>
     <use xlink:href="#NotoSansCJKsc-Bold-32" transform="translate(3001.299561 0)"/>
     <use xlink:href="#NotoSansCJKsc-Bold-49" transform="translate(3060.299545 0)"/>
     <use xlink:href="#NotoSansCJKsc-Bold-20" transform="translate(3093.29953 0)"/>
     <use xlink:href="#NotoSansCJKsc-Bold-6d" transform="translate(3115.999527 0)"/>
     <use xlink:href="#NotoSansCJKsc-Bold-6f" transform="translate(3212.399521 0)"/>
     <use xlink:href="#NotoSansCJKsc-Bold-64" transform="translate(3274.999512 0)"/>
     <use xlink:href="#NotoSansCJKsc-Bold-65" transform="translate(3339.399506 0)"/>
     <use xlink:href="#NotoSansCJKsc-Bold-6c" transform="translate(3397.499496 0)"/>
     <use xlink:href="#NotoSansCJKsc-Bold-73" transform="translate(3428.999481 0)"/>
    </g>
   </g>
   <g id="text_2">
    <!-- Name prompts (+ perturbed names)  -&gt;  T2I model generates faces  -&gt;  behavioral probe  -&gt;  memorized vs fabricated -->
    <g style="fill: #64748b" transform="translate(16.0056 54.236052) scale(0.096 -0.096)">
     <defs>
      <path id="NotoSansCJKsc-Regular-4e" d="M 646 0 
L 1203 0 
L 1203 2464 
C 1203 2957 1158 3456 1133 3930 
L 1158 3930 
L 1664 2963 
L 3373 0 
L 3981 0 
L 3981 4691 
L 3418 4691 
L 3418 2253 
C 3418 1766 3462 1235 3501 768 
L 3469 768 
L 2963 1734 
L 1248 4691 
L 646 4691 
L 646 0 
z
" transform="scale(0.015625)"/>
      <path id="NotoSansCJKsc-Regular-61" d="M 1389 -83 
C 1818 -83 2208 141 2541 416 
L 2560 416 
L 2611 0 
L 3091 0 
L 3091 2138 
C 3091 3002 2739 3565 1888 3565 
C 1325 3565 838 3315 525 3110 
L 749 2707 
C 1024 2893 1389 3078 1792 3078 
C 2362 3078 2509 2650 2509 2202 
C 1030 2035 378 1658 378 902 
C 378 275 806 -83 1389 -83 
z
M 1555 390 
C 1210 390 941 544 941 941 
C 941 1389 1338 1677 2509 1811 
L 2509 845 
C 2170 544 1888 390 1555 390 
z
" transform="scale(0.015625)"/>
      <path id="NotoSansCJKsc-Regular-6d" d="M 589 0 
L 1178 0 
L 1178 2522 
C 1491 2880 1786 3053 2048 3053 
C 2490 3053 2694 2778 2694 2125 
L 2694 0 
L 3277 0 
L 3277 2522 
C 3603 2880 3885 3053 4154 3053 
C 4595 3053 4800 2778 4800 2125 
L 4800 0 
L 5382 0 
L 5382 2202 
C 5382 3085 5043 3565 4333 3565 
C 3904 3565 3546 3290 3181 2899 
C 3040 3309 2758 3565 2221 3565 
C 1805 3565 1446 3302 1139 2970 
L 1126 2970 
L 1069 3475 
L 589 3475 
L 589 0 
z
" transform="scale(0.015625)"/>
      <path id="NotoSansCJKsc-Regular-65" d="M 1997 -83 
C 2464 -83 2835 70 3136 269 
L 2931 659 
C 2669 486 2400 384 2061 384 
C 1402 384 947 858 909 1600 
L 3251 1600 
C 3264 1690 3277 1805 3277 1933 
C 3277 2925 2778 3565 1888 3565 
C 1094 3565 333 2867 333 1734 
C 333 589 1069 -83 1997 -83 
z
M 902 2016 
C 973 2707 1408 3098 1901 3098 
C 2445 3098 2765 2720 2765 2016 
L 902 2016 
z
" transform="scale(0.015625)"/>
      <path id="NotoSansCJKsc-Regular-20" transform="scale(0.015625)"/>
      <path id="NotoSansCJKsc-Regular-70" d="M 589 -1466 
L 1178 -1466 
L 1178 -288 
L 1158 320 
C 1472 58 1805 -83 2118 -83 
C 2912 -83 3629 602 3629 1792 
C 3629 2867 3142 3565 2246 3565 
C 1843 3565 1453 3334 1139 3072 
L 1126 3072 
L 1069 3475 
L 589 3475 
L 589 -1466 
z
M 2022 410 
C 1792 410 1485 499 1178 768 
L 1178 2598 
C 1510 2906 1811 3072 2099 3072 
C 2765 3072 3021 2560 3021 1786 
C 3021 928 2598 410 2022 410 
z
" transform="scale(0.015625)"/>
      <path id="NotoSansCJKsc-Regular-72" d="M 589 0 
L 1178 0 
L 1178 2234 
C 1408 2822 1760 3040 2048 3040 
C 2195 3040 2272 3021 2387 2982 
L 2496 3488 
C 2387 3546 2278 3565 2125 3565 
C 1741 3565 1382 3283 1139 2842 
L 1126 2842 
L 1069 3475 
L 589 3475 
L 589 0 
z
" transform="scale(0.015625)"/>
      <path id="NotoSansCJKsc-Regular-6f" d="M 1939 -83 
C 2790 -83 3546 582 3546 1734 
C 3546 2893 2790 3565 1939 3565 
C 1088 3565 333 2893 333 1734 
C 333 582 1088 -83 1939 -83 
z
M 1939 403 
C 1338 403 934 934 934 1734 
C 934 2534 1338 3072 1939 3072 
C 2541 3072 2950 2534 2950 1734 
C 2950 934 2541 403 1939 403 
z
" transform="scale(0.015625)"/>
      <path id="NotoSansCJKsc-Regular-74" d="M 1677 -83 
C 1894 -83 2125 -19 2323 45 
L 2208 486 
C 2093 435 1939 390 1811 390 
C 1408 390 1274 634 1274 1056 
L 1274 3002 
L 2221 3002 
L 2221 3475 
L 1274 3475 
L 1274 4454 
L 787 4454 
L 723 3475 
L 173 3443 
L 173 3002 
L 691 3002 
L 691 1075 
C 691 378 941 -83 1677 -83 
z
" transform="scale(0.015625)"/>
      <path id="NotoSansCJKsc-Regular-73" d="M 1498 -83 
C 2317 -83 2758 384 2758 947 
C 2758 1606 2208 1811 1702 2003 
C 1312 2150 954 2278 954 2605 
C 954 2880 1158 3110 1600 3110 
C 1907 3110 2150 2976 2387 2803 
L 2669 3168 
C 2406 3386 2022 3565 1594 3565 
C 832 3565 397 3130 397 2579 
C 397 1984 922 1754 1408 1574 
C 1792 1434 2202 1267 2202 915 
C 2202 614 1978 371 1517 371 
C 1101 371 794 538 486 787 
L 205 397 
C 531 122 1005 -83 1498 -83 
z
" transform="scale(0.015625)"/>
      <path id="NotoSansCJKsc-Regular-28" d="M 1530 -1254 
L 1888 -1094 
C 1338 -186 1075 902 1075 1990 
C 1075 3072 1338 4154 1888 5069 
L 1530 5235 
C 941 4275 589 3245 589 1990 
C 589 730 941 -301 1530 -1254 
z
" transform="scale(0.015625)"/>
      <path id="NotoSansCJKsc-Regular-2b" d="M 1542 742 
L 2010 742 
L 2010 2144 
L 3315 2144 
L 3315 2579 
L 2010 2579 
L 2010 3981 
L 1542 3981 
L 1542 2579 
L 243 2579 
L 243 2144 
L 1542 2144 
L 1542 742 
z
" transform="scale(0.015625)"/>
      <path id="NotoSansCJKsc-Regular-75" d="M 1606 -83 
C 2080 -83 2426 166 2752 544 
L 2771 544 
L 2816 0 
L 3302 0 
L 3302 3475 
L 2720 3475 
L 2720 1011 
C 2387 602 2138 422 1779 422 
C 1318 422 1126 698 1126 1344 
L 1126 3475 
L 538 3475 
L 538 1274 
C 538 384 870 -83 1606 -83 
z
" transform="scale(0.015625)"/>
      <path id="NotoSansCJKsc-Regular-62" d="M 2118 -83 
C 2912 -83 3629 602 3629 1792 
C 3629 2867 3142 3565 2246 3565 
C 1856 3565 1472 3347 1152 3078 
L 1178 3699 
L 1178 5094 
L 589 5094 
L 589 0 
L 1056 0 
L 1107 358 
L 1133 358 
C 1434 83 1798 -83 2118 -83 
z
M 2022 410 
C 1792 410 1478 499 1178 768 
L 1178 2598 
C 1504 2906 1811 3072 2099 3072 
C 2765 3072 3021 2560 3021 1786 
C 3021 928 2598 410 2022 410 
z
" transform="scale(0.015625)"/>
      <path id="NotoSansCJKsc-Regular-64" d="M 1773 -83 
C 2189 -83 2560 141 2829 410 
L 2848 410 
L 2899 0 
L 3379 0 
L 3379 5094 
L 2790 5094 
L 2790 3757 
L 2822 3162 
C 2515 3411 2253 3565 1843 3565 
C 1050 3565 339 2861 339 1734 
C 339 576 902 -83 1773 -83 
z
M 1901 410 
C 1293 410 941 902 941 1741 
C 941 2534 1389 3072 1946 3072 
C 2234 3072 2502 2970 2790 2707 
L 2790 883 
C 2502 563 2221 410 1901 410 
z
" transform="scale(0.015625)"/>
      <path id="NotoSansCJKsc-Regular-6e" d="M 589 0 
L 1178 0 
L 1178 2522 
C 1523 2874 1766 3053 2125 3053 
C 2586 3053 2784 2778 2784 2125 
L 2784 0 
L 3366 0 
L 3366 2202 
C 3366 3085 3034 3565 2304 3565 
C 1830 3565 1466 3302 1139 2970 
L 1126 2970 
L 1069 3475 
L 589 3475 
L 589 0 
z
" transform="scale(0.015625)"/>
      <path id="NotoSansCJKsc-Regular-29" d="M 634 -1254 
C 1222 -301 1574 730 1574 1990 
C 1574 3245 1222 4275 634 5235 
L 269 5069 
C 819 4154 1094 3072 1094 1990 
C 1094 902 819 -186 269 -1094 
L 634 -1254 
z
" transform="scale(0.015625)"/>
      <path id="NotoSansCJKsc-Regular-2d" d="M 294 1568 
L 1933 1568 
L 1933 2016 
L 294 2016 
L 294 1568 
z
" transform="scale(0.015625)"/>
      <path id="NotoSansCJKsc-Regular-3e" d="M 243 934 
L 3315 2144 
L 3315 2605 
L 243 3814 
L 243 3309 
L 1754 2746 
L 2714 2387 
L 2714 2362 
L 1754 2003 
L 243 1446 
L 243 934 
z
" transform="scale(0.015625)"/>
      <path id="NotoSansCJKsc-Regular-54" d="M 1619 0 
L 2214 0 
L 2214 4192 
L 3635 4192 
L 3635 4691 
L 198 4691 
L 198 4192 
L 1619 4192 
L 1619 0 
z
" transform="scale(0.015625)"/>
      <path id="NotoSansCJKsc-Regular-32" d="M 282 0 
L 3232 0 
L 3232 506 
L 1933 506 
C 1696 506 1408 480 1165 461 
C 2266 1504 3008 2458 3008 3398 
C 3008 4230 2477 4774 1638 4774 
C 1043 4774 634 4506 256 4090 
L 595 3757 
C 858 4070 1184 4301 1568 4301 
C 2150 4301 2432 3910 2432 3373 
C 2432 2566 1754 1632 282 346 
L 282 0 
z
" transform="scale(0.015625)"/>
      <path id="NotoSansCJKsc-Regular-49" d="M 646 0 
L 1235 0 
L 1235 4691 
L 646 4691 
L 646 0 
z
" transform="scale(0.015625)"/>
      <path id="NotoSansCJKsc-Regular-6c" d="M 1203 -83 
C 1363 -83 1459 -58 1542 -32 
L 1459 416 
C 1395 403 1370 403 1338 403 
C 1248 403 1178 474 1178 653 
L 1178 5094 
L 589 5094 
L 589 691 
C 589 198 768 -83 1203 -83 
z
" transform="scale(0.015625)"/>
      <path id="NotoSansCJKsc-Regular-67" d="M 1760 -1600 
C 2835 -1600 3520 -1043 3520 -397 
C 3520 179 3110 429 2310 429 
L 1626 429 
C 1158 429 1018 589 1018 806 
C 1018 998 1114 1114 1242 1222 
C 1395 1146 1587 1101 1754 1101 
C 2470 1101 3027 1568 3027 2310 
C 3027 2611 2912 2867 2746 3027 
L 3456 3027 
L 3456 3475 
L 2246 3475 
C 2125 3526 1952 3565 1754 3565 
C 1056 3565 454 3085 454 2323 
C 454 1907 678 1568 909 1389 
L 909 1363 
C 723 1235 525 1005 525 717 
C 525 442 659 256 838 147 
L 838 115 
C 512 -83 326 -371 326 -672 
C 326 -1267 915 -1600 1760 -1600 
z
M 1754 1498 
C 1357 1498 1018 1818 1018 2323 
C 1018 2835 1350 3136 1754 3136 
C 2170 3136 2496 2835 2496 2323 
C 2496 1818 2157 1498 1754 1498 
z
M 1843 -1197 
C 1210 -1197 838 -960 838 -589 
C 838 -390 941 -179 1190 0 
C 1344 -38 1510 -51 1638 -51 
L 2240 -51 
C 2701 -51 2944 -166 2944 -493 
C 2944 -851 2515 -1197 1843 -1197 
z
" transform="scale(0.015625)"/>
      <path id="NotoSansCJKsc-Regular-66" d="M 211 3002 
L 685 3002 
L 685 0 
L 1267 0 
L 1267 3002 
L 2003 3002 
L 2003 3475 
L 1267 3475 
L 1267 4026 
C 1267 4474 1427 4710 1760 4710 
C 1882 4710 2022 4678 2150 4614 
L 2278 5069 
C 2118 5133 1914 5178 1696 5178 
C 1005 5178 685 4736 685 4032 
L 685 3475 
L 211 3443 
L 211 3002 
z
" transform="scale(0.015625)"/>
      <path id="NotoSansCJKsc-Regular-63" d="M 1958 -83 
C 2374 -83 2771 83 3085 352 
L 2829 749 
C 2611 557 2330 403 2010 403 
C 1370 403 934 934 934 1734 
C 934 2534 1395 3072 2029 3072 
C 2298 3072 2522 2950 2720 2771 
L 3014 3155 
C 2771 3373 2458 3565 2003 3565 
C 1107 3565 333 2893 333 1734 
C 333 582 1037 -83 1958 -83 
z
" transform="scale(0.015625)"/>
      <path id="NotoSansCJKsc-Regular-68" d="M 589 0 
L 1178 0 
L 1178 2522 
C 1523 2874 1766 3053 2125 3053 
C 2586 3053 2784 2778 2784 2125 
L 2784 0 
L 3366 0 
L 3366 2202 
C 3366 3085 3034 3565 2304 3565 
C 1830 3565 1472 3302 1152 2982 
L 1178 3699 
L 1178 5094 
L 589 5094 
L 589 0 
z
" transform="scale(0.015625)"/>
      <path id="NotoSansCJKsc-Regular-76" d="M 1338 0 
L 2022 0 
L 3251 3475 
L 2675 3475 
L 2016 1498 
C 1914 1158 1798 806 1696 474 
L 1664 474 
C 1562 806 1453 1158 1344 1498 
L 691 3475 
L 83 3475 
L 1338 0 
z
" transform="scale(0.015625)"/>
      <path id="NotoSansCJKsc-Regular-69" d="M 589 0 
L 1178 0 
L 1178 3475 
L 589 3475 
L 589 0 
z
M 883 4192 
C 1114 4192 1274 4346 1274 4582 
C 1274 4806 1114 4960 883 4960 
C 653 4960 499 4806 499 4582 
C 499 4346 653 4192 883 4192 
z
" transform="scale(0.015625)"/>
      <path id="NotoSansCJKsc-Regular-7a" d="M 224 0 
L 2854 0 
L 2854 474 
L 960 474 
L 2797 3162 
L 2797 3475 
L 422 3475 
L 422 3002 
L 2054 3002 
L 224 314 
L 224 0 
z
" transform="scale(0.015625)"/>
     </defs>
     <use xlink:href="#NotoSansCJKsc-Regular-4e"/>
     <use xlink:href="#NotoSansCJKsc-Regular-61" transform="translate(72.299988 0)"/>
     <use xlink:href="#NotoSansCJKsc-Regular-6d" transform="translate(128.599976 0)"/>
     <use xlink:href="#NotoSansCJKsc-Regular-65" transform="translate(221.199966 0)"/>
     <use xlink:href="#NotoSansCJKsc-Regular-20" transform="translate(276.59996 0)"/>
     <use xlink:href="#NotoSansCJKsc-Regular-70" transform="translate(298.999954 0)"/>
     <use xlink:href="#NotoSansCJKsc-Regular-72" transform="translate(360.999939 0)"/>
     <use xlink:href="#NotoSansCJKsc-Regular-6f" transform="translate(399.799927 0)"/>
     <use xlink:href="#NotoSansCJKsc-Regular-6d" transform="translate(460.399918 0)"/>
     <use xlink:href="#NotoSansCJKsc-Regular-70" transform="translate(552.999908 0)"/>
     <use xlink:href="#NotoSansCJKsc-Regular-74" transform="translate(614.999893 0)"/>
     <use xlink:href="#NotoSansCJKsc-Regular-73" transform="translate(652.69989 0)"/>
     <use xlink:href="#NotoSansCJKsc-Regular-20" transform="translate(699.499878 0)"/>
     <use xlink:href="#NotoSansCJKsc-Regular-28" transform="translate(721.899872 0)"/>
     <use xlink:href="#NotoSansCJKsc-Regular-2b" transform="translate(755.69986 0)"/>
     <use xlink:href="#NotoSansCJKsc-Regular-20" transform="translate(811.199844 0)"/>
     <use xlink:href="#NotoSansCJKsc-Regular-70" transform="translate(833.599838 0)"/>
     <use xlink:href="#NotoSansCJKsc-Regular-65" transform="translate(895.599823 0)"/>
     <use xlink:href="#NotoSansCJKsc-Regular-72" transform="translate(950.999817 0)"/>
     <use xlink:href="#NotoSansCJKsc-Regular-74" transform="translate(989.799805 0)"/>
     <use xlink:href="#NotoSansCJKsc-Regular-75" transform="translate(1027.499802 0)"/>
     <use xlink:href="#NotoSansCJKsc-Regular-72" transform="translate(1088.199799 0)"/>
     <use xlink:href="#NotoSansCJKsc-Regular-62" transform="translate(1126.999786 0)"/>
     <use xlink:href="#NotoSansCJKsc-Regular-65" transform="translate(1188.799774 0)"/>
     <use xlink:href="#NotoSansCJKsc-Regular-64" transform="translate(1244.199768 0)"/>
     <use xlink:href="#NotoSansCJKsc-Regular-20" transform="translate(1306.199753 0)"/>
     <use xlink:href="#NotoSansCJKsc-Regular-6e" transform="translate(1328.599747 0)"/>
     <use xlink:href="#NotoSansCJKsc-Regular-61" transform="translate(1389.599731 0)"/>
     <use xlink:href="#NotoSansCJKsc-Regular-6d" transform="translate(1445.899719 0)"/>
     <use xlink:href="#NotoSansCJKsc-Regular-65" transform="translate(1538.49971 0)"/>
     <use xlink:href="#NotoSansCJKsc-Regular-73" transform="translate(1593.899704 0)"/>
     <use xlink:href="#NotoSansCJKsc-Regular-29" transform="translate(1640.699692 0)"/>
     <use xlink:href="#NotoSansCJKsc-Regular-20" transform="translate(1674.49968 0)"/>
     <use xlink:href="#NotoSansCJKsc-Regular-20" transform="translate(1696.899673 0)"/>
     <use xlink:href="#NotoSansCJKsc-Regular-2d" transform="translate(1719.299667 0)"/>
     <use xlink:href="#NotoSansCJKsc-Regular-3e" transform="translate(1753.999664 0)"/>
     <use xlink:href="#NotoSansCJKsc-Regular-20" transform="translate(1809.499649 0)"/>
     <use xlink:href="#NotoSansCJKsc-Regular-20" transform="translate(1831.899643 0)"/>
     <use xlink:href="#NotoSansCJKsc-Regular-54" transform="translate(1854.299637 0)"/>
     <use xlink:href="#NotoSansCJKsc-Regular-32" transform="translate(1914.199631 0)"/>
     <use xlink:href="#NotoSansCJKsc-Regular-49" transform="translate(1969.699615 0)"/>
     <use xlink:href="#NotoSansCJKsc-Regular-20" transform="translate(1998.999603 0)"/>
     <use xlink:href="#NotoSansCJKsc-Regular-6d" transform="translate(2021.399597 0)"/>
     <use xlink:href="#NotoSansCJKsc-Regular-6f" transform="translate(2113.999588 0)"/>
     <use xlink:href="#NotoSansCJKsc-Regular-64" transform="translate(2174.599579 0)"/>
     <use xlink:href="#NotoSansCJKsc-Regular-65" transform="translate(2236.599564 0)"/>
     <use xlink:href="#NotoSansCJKsc-Regular-6c" transform="translate(2291.999557 0)"/>
     <use xlink:href="#NotoSansCJKsc-Regular-20" transform="translate(2320.399551 0)"/>
     <use xlink:href="#NotoSansCJKsc-Regular-67" transform="translate(2342.799545 0)"/>
     <use xlink:href="#NotoSansCJKsc-Regular-65" transform="translate(2399.199539 0)"/>
     <use xlink:href="#NotoSansCJKsc-Regular-6e" transform="translate(2454.599533 0)"/>
     <use xlink:href="#NotoSansCJKsc-Regular-65" transform="translate(2515.599518 0)"/>
     <use xlink:href="#NotoSansCJKsc-Regular-72" transform="translate(2570.999512 0)"/>
     <use xlink:href="#NotoSansCJKsc-Regular-61" transform="translate(2609.7995 0)"/>
     <use xlink:href="#NotoSansCJKsc-Regular-74" transform="translate(2666.099487 0)"/>
     <use xlink:href="#NotoSansCJKsc-Regular-65" transform="translate(2703.799484 0)"/>
     <use xlink:href="#NotoSansCJKsc-Regular-73" transform="translate(2759.199478 0)"/>
     <use xlink:href="#NotoSansCJKsc-Regular-20" transform="translate(2805.999466 0)"/>
     <use xlink:href="#NotoSansCJKsc-Regular-66" transform="translate(2828.39946 0)"/>
     <use xlink:href="#NotoSansCJKsc-Regular-61" transform="translate(2860.899445 0)"/>
     <use xlink:href="#NotoSansCJKsc-Regular-63" transform="translate(2917.199432 0)"/>
     <use xlink:href="#NotoSansCJKsc-Regular-65" transform="translate(2968.199417 0)"/>
     <use xlink:href="#NotoSansCJKsc-Regular-73" transform="translate(3023.599411 0)"/>
     <use xlink:href="#NotoSansCJKsc-Regular-20" transform="translate(3070.399399 0)"/>
     <use xlink:href="#NotoSansCJKsc-Regular-20" transform="translate(3092.799393 0)"/>
     <use xlink:href="#NotoSansCJKsc-Regular-2d" transform="translate(3115.199387 0)"/>
     <use xlink:href="#NotoSansCJKsc-Regular-3e" transform="translate(3149.899384 0)"/>
     <use xlink:href="#NotoSansCJKsc-Regular-20" transform="translate(3205.399368 0)"/>
     <use xlink:href="#NotoSansCJKsc-Regular-20" transform="translate(3227.799362 0)"/>
     <use xlink:href="#NotoSansCJKsc-Regular-62" transform="translate(3250.199356 0)"/>
     <use xlink:href="#NotoSansCJKsc-Regular-65" transform="translate(3311.999344 0)"/>
     <use xlink:href="#NotoSansCJKsc-Regular-68" transform="translate(3367.399338 0)"/>
     <use xlink:href="#NotoSansCJKsc-Regular-61" transform="translate(3428.099335 0)"/>
     <use xlink:href="#NotoSansCJKsc-Regular-76" transform="translate(3484.399323 0)"/>
     <use xlink:href="#NotoSansCJKsc-Regular-69" transform="translate(3536.499313 0)"/>
     <use xlink:href="#NotoSansCJKsc-Regular-6f" transform="translate(3563.999298 0)"/>
     <use xlink:href="#NotoSansCJKsc-Regular-72" transform="translate(3624.599289 0)"/>
     <use xlink:href="#NotoSansCJKsc-Regular-61" transform="translate(3663.399277 0)"/>
     <use xlink:href="#NotoSansCJKsc-Regular-6c" transform="translate(3719.699265 0)"/>
     <use xlink:href="#NotoSansCJKsc-Regular-20" transform="translate(3748.099258 0)"/>
     <use xlink:href="#NotoSansCJKsc-Regular-70" transform="translate(3770.499252 0)"/>
     <use xlink:href="#NotoSansCJKsc-Regular-72" transform="translate(3832.499237 0)"/>
     <use xlink:href="#NotoSansCJKsc-Regular-6f" transform="translate(3871.299225 0)"/>
     <use xlink:href="#NotoSansCJKsc-Regular-62" transform="translate(3931.899216 0)"/>
     <use xlink:href="#NotoSansCJKsc-Regular-65" transform="translate(3993.699203 0)"/>
     <use xlink:href="#NotoSansCJKsc-Regular-20" transform="translate(4049.099197 0)"/>
     <use xlink:href="#NotoSansCJKsc-Regular-20" transform="translate(4071.499191 0)"/>
     <use xlink:href="#NotoSansCJKsc-Regular-2d" transform="translate(4093.899185 0)"/>
     <use xlink:href="#NotoSansCJKsc-Regular-3e" transform="translate(4128.599182 0)"/>
     <use xlink:href="#NotoSansCJKsc-Regular-20" transform="translate(4184.099167 0)"/>
     <use xlink:href="#NotoSansCJKsc-Regular-20" transform="translate(4206.499161 0)"/>
     <use xlink:href="#NotoSansCJKsc-Regular-6d" transform="translate(4228.899155 0)"/>
     <use xlink:href="#NotoSansCJKsc-Regular-65" transform="translate(4321.499146 0)"/>
     <use xlink:href="#NotoSansCJKsc-Regular-6d" transform="translate(4376.899139 0)"/>
     <use xlink:href="#NotoSansCJKsc-Regular-6f" transform="translate(4469.49913 0)"/>
     <use xlink:href="#NotoSansCJKsc-Regular-72" transform="translate(4530.099121 0)"/>
     <use xlink:href="#NotoSansCJKsc-Regular-69" transform="translate(4568.899109 0)"/>
     <use xlink:href="#NotoSansCJKsc-Regular-7a" transform="translate(4596.399094 0)"/>
     <use xlink:href="#NotoSansCJKsc-Regular-65" transform="translate(4643.899078 0)"/>
     <use xlink:href="#NotoSansCJKsc-Regular-64" transform="translate(4699.299072 0)"/>
     <use xlink:href="#NotoSansCJKsc-Regular-20" transform="translate(4761.299057 0)"/>
     <use xlink:href="#NotoSansCJKsc-Regular-76" transform="translate(4783.699051 0)"/>
     <use xlink:href="#NotoSansCJKsc-Regular-73" transform="translate(4835.799042 0)"/>
     <use xlink:href="#NotoSansCJKsc-Regular-20" transform="translate(4882.59903 0)"/>
     <use xlink:href="#NotoSansCJKsc-Regular-66" transform="translate(4904.999023 0)"/>
     <use xlink:href="#NotoSansCJKsc-Regular-61" transform="translate(4937.499008 0)"/>
     <use xlink:href="#NotoSansCJKsc-Regular-62" transform="translate(4993.798996 0)"/>
     <use xlink:href="#NotoSansCJKsc-Regular-72" transform="translate(5055.598984 0)"/>
     <use xlink:href="#NotoSansCJKsc-Regular-69" transform="translate(5094.398972 0)"/>
     <use xlink:href="#NotoSansCJKsc-Regular-63" transform="translate(5121.898956 0)"/>
     <use xlink:href="#NotoSansCJKsc-Regular-61" transform="translate(5172.898941 0)"/>
     <use xlink:href="#NotoSansCJKsc-Regular-74" transform="translate(5229.198929 0)"/>
     <use xlink:href="#NotoSansCJKsc-Regular-65" transform="translate(5266.898926 0)"/>
     <use xlink:href="#NotoSansCJKsc-Regular-64" transform="translate(5322.29892 0)"/>
    </g>
   </g>
   <g id="text_3">
    <!-- Name prompts -->
    <g style="fill: #0891b2" transform="translate(41.782641 101.447249) scale(0.102 -0.102)">
     <use xlink:href="#NotoSansCJKsc-Bold-4e"/>
     <use xlink:href="#NotoSansCJKsc-Bold-61" transform="translate(74.899994 0)"/>
     <use xlink:href="#NotoSansCJKsc-Bold-6d" transform="translate(133.999985 0)"/>
     <use xlink:href="#NotoSansCJKsc-Bold-65" transform="translate(230.399979 0)"/>
     <use xlink:href="#NotoSansCJKsc-Bold-20" transform="translate(288.499969 0)"/>
     <use xlink:href="#NotoSansCJKsc-Bold-70" transform="translate(311.199966 0)"/>
     <use xlink:href="#NotoSansCJKsc-Bold-72" transform="translate(375.59996 0)"/>
     <use xlink:href="#NotoSansCJKsc-Bold-6f" transform="translate(419.199951 0)"/>
     <use xlink:href="#NotoSansCJKsc-Bold-6d" transform="translate(481.799942 0)"/>
     <use xlink:href="#NotoSansCJKsc-Bold-70" transform="translate(578.199936 0)"/>
     <use xlink:href="#NotoSansCJKsc-Bold-74" transform="translate(642.59993 0)"/>
     <use xlink:href="#NotoSansCJKsc-Bold-73" transform="translate(684.699921 0)"/>
    </g>
   </g>
   <g id="text_4">
    <!-- 1269 name-face pairs -->
    <g style="fill: #475569" transform="translate(34.523719 115.89097) scale(0.09 -0.09)">
     <defs>
      <path id="NotoSansCJKsc-Regular-31" d="M 563 0 
L 3136 0 
L 3136 486 
L 2195 486 
L 2195 4691 
L 1747 4691 
C 1491 4544 1190 4435 774 4358 
L 774 3987 
L 1613 3987 
L 1613 486 
L 563 486 
L 563 0 
z
" transform="scale(0.015625)"/>
      <path id="NotoSansCJKsc-Regular-36" d="M 1926 -83 
C 2656 -83 3277 531 3277 1440 
C 3277 2426 2765 2912 1971 2912 
C 1606 2912 1197 2701 909 2349 
C 934 3802 1466 4294 2118 4294 
C 2400 4294 2682 4154 2861 3936 
L 3194 4294 
C 2931 4576 2579 4774 2093 4774 
C 1184 4774 358 4077 358 2240 
C 358 691 1030 -83 1926 -83 
z
M 922 1882 
C 1229 2317 1587 2477 1875 2477 
C 2445 2477 2720 2074 2720 1440 
C 2720 800 2374 378 1926 378 
C 1338 378 986 909 922 1882 
z
" transform="scale(0.015625)"/>
      <path id="NotoSansCJKsc-Regular-39" d="M 1504 -83 
C 2381 -83 3206 646 3206 2547 
C 3206 4038 2528 4774 1626 4774 
C 896 4774 282 4166 282 3251 
C 282 2285 794 1779 1574 1779 
C 1965 1779 2368 2003 2656 2349 
C 2611 896 2086 403 1485 403 
C 1178 403 896 538 691 762 
L 371 397 
C 634 122 992 -83 1504 -83 
z
M 2650 2842 
C 2336 2394 1984 2214 1670 2214 
C 1114 2214 832 2624 832 3251 
C 832 3898 1178 4320 1632 4320 
C 2227 4320 2586 3808 2650 2842 
z
" transform="scale(0.015625)"/>
     </defs>
     <use xlink:href="#NotoSansCJKsc-Regular-31"/>
     <use xlink:href="#NotoSansCJKsc-Regular-32" transform="translate(55.499985 0)"/>
     <use xlink:href="#NotoSansCJKsc-Regular-36" transform="translate(110.999969 0)"/>
     <use xlink:href="#NotoSansCJKsc-Regular-39" transform="translate(166.499954 0)"/>
     <use xlink:href="#NotoSansCJKsc-Regular-20" transform="translate(221.999939 0)"/>
     <use xlink:href="#NotoSansCJKsc-Regular-6e" transform="translate(244.399933 0)"/>
     <use xlink:href="#NotoSansCJKsc-Regular-61" transform="translate(305.399918 0)"/>
     <use xlink:href="#NotoSansCJKsc-Regular-6d" transform="translate(361.699905 0)"/>
     <use xlink:href="#NotoSansCJKsc-Regular-65" transform="translate(454.299896 0)"/>
     <use xlink:href="#NotoSansCJKsc-Regular-2d" transform="translate(509.69989 0)"/>
     <use xlink:href="#NotoSansCJKsc-Regular-66" transform="translate(544.399887 0)"/>
     <use xlink:href="#NotoSansCJKsc-Regular-61" transform="translate(576.899872 0)"/>
     <use xlink:href="#NotoSansCJKsc-Regular-63" transform="translate(633.19986 0)"/>
     <use xlink:href="#NotoSansCJKsc-Regular-65" transform="translate(684.199844 0)"/>
     <use xlink:href="#NotoSansCJKsc-Regular-20" transform="translate(739.599838 0)"/>
     <use xlink:href="#NotoSansCJKsc-Regular-70" transform="translate(761.999832 0)"/>
     <use xlink:href="#NotoSansCJKsc-Regular-61" transform="translate(823.999817 0)"/>
     <use xlink:href="#NotoSansCJKsc-Regular-69" transform="translate(880.299805 0)"/>
     <use xlink:href="#NotoSansCJKsc-Regular-72" transform="translate(907.799789 0)"/>
     <use xlink:href="#NotoSansCJKsc-Regular-73" transform="translate(946.599777 0)"/>
    </g>
   </g>
   <g id="text_5">
    <!-- varied fame levels -->
    <g style="fill: #475569" transform="translate(41.417156 128.524045) scale(0.09 -0.09)">
     <use xlink:href="#NotoSansCJKsc-Regular-76"/>
     <use xlink:href="#NotoSansCJKsc-Regular-61" transform="translate(52.099991 0)"/>
     <use xlink:href="#NotoSansCJKsc-Regular-72" transform="translate(108.399979 0)"/>
     <use xlink:href="#NotoSansCJKsc-Regular-69" transform="translate(147.199966 0)"/>
     <use xlink:href="#NotoSansCJKsc-Regular-65" transform="translate(174.699951 0)"/>
     <use xlink:href="#NotoSansCJKsc-Regular-64" transform="translate(230.099945 0)"/>
     <use xlink:href="#NotoSansCJKsc-Regular-20" transform="translate(292.09993 0)"/>
     <use xlink:href="#NotoSansCJKsc-Regular-66" transform="translate(314.499924 0)"/>
     <use xlink:href="#NotoSansCJKsc-Regular-61" transform="translate(346.999908 0)"/>
     <use xlink:href="#NotoSansCJKsc-Regular-6d" transform="translate(403.299896 0)"/>
     <use xlink:href="#NotoSansCJKsc-Regular-65" transform="translate(495.899887 0)"/>
     <use xlink:href="#NotoSansCJKsc-Regular-20" transform="translate(551.299881 0)"/>
     <use xlink:href="#NotoSansCJKsc-Regular-6c" transform="translate(573.699875 0)"/>
     <use xlink:href="#NotoSansCJKsc-Regular-65" transform="translate(602.099869 0)"/>
     <use xlink:href="#NotoSansCJKsc-Regular-76" transform="translate(657.499863 0)"/>
     <use xlink:href="#NotoSansCJKsc-Regular-65" transform="translate(709.599854 0)"/>
     <use xlink:href="#NotoSansCJKsc-Regular-6c" transform="translate(764.999847 0)"/>
     <use xlink:href="#NotoSansCJKsc-Regular-73" transform="translate(793.399841 0)"/>
    </g>
   </g>
   <g id="text_6">
    <!-- + perturbed-name controls -->
    <g style="fill: #475569" transform="translate(22.625438 141.275245) scale(0.09 -0.09)">
     <use xlink:href="#NotoSansCJKsc-Regular-2b"/>
     <use xlink:href="#NotoSansCJKsc-Regular-20" transform="translate(55.499985 0)"/>
     <use xlink:href="#NotoSansCJKsc-Regular-70" transform="translate(77.899979 0)"/>
     <use xlink:href="#NotoSansCJKsc-Regular-65" transform="translate(139.899963 0)"/>
     <use xlink:href="#NotoSansCJKsc-Regular-72" transform="translate(195.299957 0)"/>
     <use xlink:href="#NotoSansCJKsc-Regular-74" transform="translate(234.099945 0)"/>
     <use xlink:href="#NotoSansCJKsc-Regular-75" transform="translate(271.799942 0)"/>
     <use xlink:href="#NotoSansCJKsc-Regular-72" transform="translate(332.499939 0)"/>
     <use xlink:href="#NotoSansCJKsc-Regular-62" transform="translate(371.299927 0)"/>
     <use xlink:href="#NotoSansCJKsc-Regular-65" transform="translate(433.099915 0)"/>
     <use xlink:href="#NotoSansCJKsc-Regular-64" transform="translate(488.499908 0)"/>
     <use xlink:href="#NotoSansCJKsc-Regular-2d" transform="translate(550.499893 0)"/>
     <use xlink:href="#NotoSansCJKsc-Regular-6e" transform="translate(585.19989 0)"/>
     <use xlink:href="#NotoSansCJKsc-Regular-61" transform="translate(646.199875 0)"/>
     <use xlink:href="#NotoSansCJKsc-Regular-6d" transform="translate(702.499863 0)"/>
     <use xlink:href="#NotoSansCJKsc-Regular-65" transform="translate(795.099854 0)"/>
     <use xlink:href="#NotoSansCJKsc-Regular-20" transform="translate(850.499847 0)"/>
     <use xlink:href="#NotoSansCJKsc-Regular-63" transform="translate(872.899841 0)"/>
     <use xlink:href="#NotoSansCJKsc-Regular-6f" transform="translate(923.899826 0)"/>
     <use xlink:href="#NotoSansCJKsc-Regular-6e" transform="translate(984.499817 0)"/>
     <use xlink:href="#NotoSansCJKsc-Regular-74" transform="translate(1045.499802 0)"/>
     <use xlink:href="#NotoSansCJKsc-Regular-72" transform="translate(1083.199799 0)"/>
     <use xlink:href="#NotoSansCJKsc-Regular-6f" transform="translate(1121.999786 0)"/>
     <use xlink:href="#NotoSansCJKsc-Regular-6c" transform="translate(1182.599777 0)"/>
     <use xlink:href="#NotoSansCJKsc-Regular-73" transform="translate(1210.999771 0)"/>
    </g>
   </g>
   <g id="text_7">
    <!-- T2I model -->
    <g style="fill: #2563eb" transform="translate(198.469641 101.447249) scale(0.102 -0.102)">
     <use xlink:href="#NotoSansCJKsc-Bold-54"/>
     <use xlink:href="#NotoSansCJKsc-Bold-32" transform="translate(62.499985 0)"/>
     <use xlink:href="#NotoSansCJKsc-Bold-49" transform="translate(121.499969 0)"/>
     <use xlink:href="#NotoSansCJKsc-Bold-20" transform="translate(154.499954 0)"/>
     <use xlink:href="#NotoSansCJKsc-Bold-6d" transform="translate(177.199951 0)"/>
     <use xlink:href="#NotoSansCJKsc-Bold-6f" transform="translate(273.599945 0)"/>
     <use xlink:href="#NotoSansCJKsc-Bold-64" transform="translate(336.199936 0)"/>
     <use xlink:href="#NotoSansCJKsc-Bold-65" transform="translate(400.59993 0)"/>
     <use xlink:href="#NotoSansCJKsc-Bold-6c" transform="translate(458.699921 0)"/>
    </g>
   </g>
   <g id="text_8">
    <!-- generate face from -->
    <g style="fill: #475569" transform="translate(183.828516 115.89097) scale(0.09 -0.09)">
     <use xlink:href="#NotoSansCJKsc-Regular-67"/>
     <use xlink:href="#NotoSansCJKsc-Regular-65" transform="translate(56.399994 0)"/>
     <use xlink:href="#NotoSansCJKsc-Regular-6e" transform="translate(111.799988 0)"/>
     <use xlink:href="#NotoSansCJKsc-Regular-65" transform="translate(172.799973 0)"/>
     <use xlink:href="#NotoSansCJKsc-Regular-72" transform="translate(228.199966 0)"/>
     <use xlink:href="#NotoSansCJKsc-Regular-61" transform="translate(266.999954 0)"/>
     <use xlink:href="#NotoSansCJKsc-Regular-74" transform="translate(323.299942 0)"/>
     <use xlink:href="#NotoSansCJKsc-Regular-65" transform="translate(360.999939 0)"/>
     <use xlink:href="#NotoSansCJKsc-Regular-20" transform="translate(416.399933 0)"/>
     <use xlink:href="#NotoSansCJKsc-Regular-66" transform="translate(438.799927 0)"/>
     <use xlink:href="#NotoSansCJKsc-Regular-61" transform="translate(471.299911 0)"/>
     <use xlink:href="#NotoSansCJKsc-Regular-63" transform="translate(527.599899 0)"/>
     <use xlink:href="#NotoSansCJKsc-Regular-65" transform="translate(578.599884 0)"/>
     <use xlink:href="#NotoSansCJKsc-Regular-20" transform="translate(633.999878 0)"/>
     <use xlink:href="#NotoSansCJKsc-Regular-66" transform="translate(656.399872 0)"/>
     <use xlink:href="#NotoSansCJKsc-Regular-72" transform="translate(688.899857 0)"/>
     <use xlink:href="#NotoSansCJKsc-Regular-6f" transform="translate(727.699844 0)"/>
     <use xlink:href="#NotoSansCJKsc-Regular-6d" transform="translate(788.299835 0)"/>
    </g>
   </g>
   <g id="text_9">
    <!-- the name prompt -->
    <g style="fill: #475569" transform="translate(186.677578 128.524045) scale(0.09 -0.09)">
     <use xlink:href="#NotoSansCJKsc-Regular-74"/>
     <use xlink:href="#NotoSansCJKsc-Regular-68" transform="translate(37.699997 0)"/>
     <use xlink:href="#NotoSansCJKsc-Regular-65" transform="translate(98.399994 0)"/>
     <use xlink:href="#NotoSansCJKsc-Regular-20" transform="translate(153.799988 0)"/>
     <use xlink:href="#NotoSansCJKsc-Regular-6e" transform="translate(176.199982 0)"/>
     <use xlink:href="#NotoSansCJKsc-Regular-61" transform="translate(237.199966 0)"/>
     <use xlink:href="#NotoSansCJKsc-Regular-6d" transform="translate(293.499954 0)"/>
     <use xlink:href="#NotoSansCJKsc-Regular-65" transform="translate(386.099945 0)"/>
     <use xlink:href="#NotoSansCJKsc-Regular-20" transform="translate(441.499939 0)"/>
     <use xlink:href="#NotoSansCJKsc-Regular-70" transform="translate(463.899933 0)"/>
     <use xlink:href="#NotoSansCJKsc-Regular-72" transform="translate(525.899918 0)"/>
     <use xlink:href="#NotoSansCJKsc-Regular-6f" transform="translate(564.699905 0)"/>
     <use xlink:href="#NotoSansCJKsc-Regular-6d" transform="translate(625.299896 0)"/>
     <use xlink:href="#NotoSansCJKsc-Regular-70" transform="translate(717.899887 0)"/>
     <use xlink:href="#NotoSansCJKsc-Regular-74" transform="translate(779.899872 0)"/>
    </g>
   </g>
   <g id="text_10">
    <!-- (black box only) -->
    <g style="fill: #475569" transform="translate(190.197422 141.473527) scale(0.09 -0.09)">
     <defs>
      <path id="NotoSansCJKsc-Regular-6b" d="M 589 0 
L 1165 0 
L 1165 915 
L 1818 1677 
L 2835 0 
L 3469 0 
L 2157 2074 
L 3315 3475 
L 2662 3475 
L 1190 1645 
L 1165 1645 
L 1165 5094 
L 589 5094 
L 589 0 
z
" transform="scale(0.015625)"/>
      <path id="NotoSansCJKsc-Regular-78" d="M 96 0 
L 710 0 
L 1178 813 
C 1299 1024 1408 1235 1530 1434 
L 1562 1434 
C 1696 1235 1824 1024 1939 813 
L 2451 0 
L 3091 0 
L 1946 1754 
L 3002 3475 
L 2394 3475 
L 1965 2714 
C 1856 2515 1760 2330 1658 2131 
L 1626 2131 
C 1510 2330 1389 2515 1286 2714 
L 819 3475 
L 186 3475 
L 1242 1811 
L 96 0 
z
" transform="scale(0.015625)"/>
      <path id="NotoSansCJKsc-Regular-79" d="M 646 -1498 
C 1338 -1498 1702 -973 1946 -294 
L 3251 3475 
L 2682 3475 
L 2054 1549 
C 1965 1235 1862 883 1773 563 
L 1741 563 
C 1619 890 1504 1242 1395 1549 
L 691 3475 
L 83 3475 
L 1478 -6 
L 1402 -269 
C 1254 -698 1011 -1018 621 -1018 
C 525 -1018 422 -986 352 -960 
L 237 -1427 
C 346 -1472 486 -1498 646 -1498 
z
" transform="scale(0.015625)"/>
     </defs>
     <use xlink:href="#NotoSansCJKsc-Regular-28"/>
     <use xlink:href="#NotoSansCJKsc-Regular-62" transform="translate(33.799988 0)"/>
     <use xlink:href="#NotoSansCJKsc-Regular-6c" transform="translate(95.599976 0)"/>
     <use xlink:href="#NotoSansCJKsc-Regular-61" transform="translate(123.999969 0)"/>
     <use xlink:href="#NotoSansCJKsc-Regular-63" transform="translate(180.299957 0)"/>
     <use xlink:href="#NotoSansCJKsc-Regular-6b" transform="translate(231.299942 0)"/>
     <use xlink:href="#NotoSansCJKsc-Regular-20" transform="translate(286.499939 0)"/>
     <use xlink:href="#NotoSansCJKsc-Regular-62" transform="translate(308.899933 0)"/>
     <use xlink:href="#NotoSansCJKsc-Regular-6f" transform="translate(370.699921 0)"/>
     <use xlink:href="#NotoSansCJKsc-Regular-78" transform="translate(431.299911 0)"/>
     <use xlink:href="#NotoSansCJKsc-Regular-20" transform="translate(481.099899 0)"/>
     <use xlink:href="#NotoSansCJKsc-Regular-6f" transform="translate(503.499893 0)"/>
     <use xlink:href="#NotoSansCJKsc-Regular-6e" transform="translate(564.099884 0)"/>
     <use xlink:href="#NotoSansCJKsc-Regular-6c" transform="translate(625.099869 0)"/>
     <use xlink:href="#NotoSansCJKsc-Regular-79" transform="translate(653.499863 0)"/>
     <use xlink:href="#NotoSansCJKsc-Regular-29" transform="translate(705.599854 0)"/>
    </g>
   </g>
   <g id="text_11">
    <!-- Behavioral probe -->
    <g style="fill: #7c3aed" transform="translate(333.577172 101.57953) scale(0.102 -0.102)">
     <defs>
      <path id="NotoSansCJKsc-Bold-42" d="M 582 0 
L 2272 0 
C 3315 0 4102 442 4102 1395 
C 4102 2029 3731 2394 3219 2515 
L 3219 2541 
C 3622 2688 3866 3130 3866 3571 
C 3866 4454 3123 4742 2150 4742 
L 582 4742 
L 582 0 
z
M 1530 2810 
L 1530 4013 
L 2093 4013 
C 2662 4013 2944 3846 2944 3430 
C 2944 3053 2688 2810 2086 2810 
L 1530 2810 
z
M 1530 730 
L 1530 2112 
L 2189 2112 
C 2842 2112 3181 1914 3181 1453 
C 3181 960 2829 730 2189 730 
L 1530 730 
z
" transform="scale(0.015625)"/>
      <path id="NotoSansCJKsc-Bold-68" d="M 506 0 
L 1446 0 
L 1446 2464 
C 1709 2726 1901 2867 2189 2867 
C 2541 2867 2694 2675 2694 2118 
L 2694 0 
L 3635 0 
L 3635 2234 
C 3635 3136 3302 3674 2528 3674 
C 2042 3674 1683 3418 1402 3149 
L 1446 3821 
L 1446 5107 
L 506 5107 
L 506 0 
z
" transform="scale(0.015625)"/>
      <path id="NotoSansCJKsc-Bold-76" d="M 1312 0 
L 2400 0 
L 3597 3584 
L 2694 3584 
L 2170 1798 
C 2074 1446 1978 1075 1882 710 
L 1850 710 
C 1747 1075 1658 1446 1555 1798 
L 1037 3584 
L 90 3584 
L 1312 0 
z
" transform="scale(0.015625)"/>
     </defs>
     <use xlink:href="#NotoSansCJKsc-Bold-42"/>
     <use xlink:href="#NotoSansCJKsc-Bold-65" transform="translate(68.099991 0)"/>
     <use xlink:href="#NotoSansCJKsc-Bold-68" transform="translate(126.199982 0)"/>
     <use xlink:href="#NotoSansCJKsc-Bold-61" transform="translate(190.199966 0)"/>
     <use xlink:href="#NotoSansCJKsc-Bold-76" transform="translate(249.299957 0)"/>
     <use xlink:href="#NotoSansCJKsc-Bold-69" transform="translate(306.899948 0)"/>
     <use xlink:href="#NotoSansCJKsc-Bold-6f" transform="translate(337.299942 0)"/>
     <use xlink:href="#NotoSansCJKsc-Bold-72" transform="translate(399.899933 0)"/>
     <use xlink:href="#NotoSansCJKsc-Bold-61" transform="translate(443.499924 0)"/>
     <use xlink:href="#NotoSansCJKsc-Bold-6c" transform="translate(502.599915 0)"/>
     <use xlink:href="#NotoSansCJKsc-Bold-20" transform="translate(534.099899 0)"/>
     <use xlink:href="#NotoSansCJKsc-Bold-70" transform="translate(556.799896 0)"/>
     <use xlink:href="#NotoSansCJKsc-Bold-72" transform="translate(621.19989 0)"/>
     <use xlink:href="#NotoSansCJKsc-Bold-6f" transform="translate(664.799881 0)"/>
     <use xlink:href="#NotoSansCJKsc-Bold-62" transform="translate(727.399872 0)"/>
     <use xlink:href="#NotoSansCJKsc-Bold-65" transform="translate(791.799866 0)"/>
    </g>
   </g>
   <g id="text_12">
    <!-- compare behavior across -->
    <g style="fill: #475569" transform="translate(324.046406 115.772845) scale(0.09 -0.09)">
     <use xlink:href="#NotoSansCJKsc-Regular-63"/>
     <use xlink:href="#NotoSansCJKsc-Regular-6f" transform="translate(50.999985 0)"/>
     <use xlink:href="#NotoSansCJKsc-Regular-6d" transform="translate(111.599976 0)"/>
     <use xlink:href="#NotoSansCJKsc-Regular-70" transform="translate(204.199966 0)"/>
     <use xlink:href="#NotoSansCJKsc-Regular-61" transform="translate(266.199951 0)"/>
     <use xlink:href="#NotoSansCJKsc-Regular-72" transform="translate(322.499939 0)"/>
     <use xlink:href="#NotoSansCJKsc-Regular-65" transform="translate(361.299927 0)"/>
     <use xlink:href="#NotoSansCJKsc-Regular-20" transform="translate(416.699921 0)"/>
     <use xlink:href="#NotoSansCJKsc-Regular-62" transform="translate(439.099915 0)"/>
     <use xlink:href="#NotoSansCJKsc-Regular-65" transform="translate(500.899902 0)"/>
     <use xlink:href="#NotoSansCJKsc-Regular-68" transform="translate(556.299896 0)"/>
     <use xlink:href="#NotoSansCJKsc-Regular-61" transform="translate(616.999893 0)"/>
     <use xlink:href="#NotoSansCJKsc-Regular-76" transform="translate(673.299881 0)"/>
     <use xlink:href="#NotoSansCJKsc-Regular-69" transform="translate(725.399872 0)"/>
     <use xlink:href="#NotoSansCJKsc-Regular-6f" transform="translate(752.899857 0)"/>
     <use xlink:href="#NotoSansCJKsc-Regular-72" transform="translate(813.499847 0)"/>
     <use xlink:href="#NotoSansCJKsc-Regular-20" transform="translate(852.299835 0)"/>
     <use xlink:href="#NotoSansCJKsc-Regular-61" transform="translate(874.699829 0)"/>
     <use xlink:href="#NotoSansCJKsc-Regular-63" transform="translate(930.999817 0)"/>
     <use xlink:href="#NotoSansCJKsc-Regular-72" transform="translate(981.999802 0)"/>
     <use xlink:href="#NotoSansCJKsc-Regular-6f" transform="translate(1020.799789 0)"/>
     <use xlink:href="#NotoSansCJKsc-Regular-73" transform="translate(1081.39978 0)"/>
     <use xlink:href="#NotoSansCJKsc-Regular-73" transform="translate(1128.199768 0)"/>
    </g>
   </g>
   <g id="text_13">
    <!-- name vs perturbed name -->
    <g style="fill: #475569" transform="translate(324.300938 128.524045) scale(0.09 -0.09)">
     <use xlink:href="#NotoSansCJKsc-Regular-6e"/>
     <use xlink:href="#NotoSansCJKsc-Regular-61" transform="translate(60.999985 0)"/>
     <use xlink:href="#NotoSansCJKsc-Regular-6d" transform="translate(117.299973 0)"/>
     <use xlink:href="#NotoSansCJKsc-Regular-65" transform="translate(209.899963 0)"/>
     <use xlink:href="#NotoSansCJKsc-Regular-20" transform="translate(265.299957 0)"/>
     <use xlink:href="#NotoSansCJKsc-Regular-76" transform="translate(287.699951 0)"/>
     <use xlink:href="#NotoSansCJKsc-Regular-73" transform="translate(339.799942 0)"/>
     <use xlink:href="#NotoSansCJKsc-Regular-20" transform="translate(386.59993 0)"/>
     <use xlink:href="#NotoSansCJKsc-Regular-70" transform="translate(408.999924 0)"/>
     <use xlink:href="#NotoSansCJKsc-Regular-65" transform="translate(470.999908 0)"/>
     <use xlink:href="#NotoSansCJKsc-Regular-72" transform="translate(526.399902 0)"/>
     <use xlink:href="#NotoSansCJKsc-Regular-74" transform="translate(565.19989 0)"/>
     <use xlink:href="#NotoSansCJKsc-Regular-75" transform="translate(602.899887 0)"/>
     <use xlink:href="#NotoSansCJKsc-Regular-72" transform="translate(663.599884 0)"/>
     <use xlink:href="#NotoSansCJKsc-Regular-62" transform="translate(702.399872 0)"/>
     <use xlink:href="#NotoSansCJKsc-Regular-65" transform="translate(764.19986 0)"/>
     <use xlink:href="#NotoSansCJKsc-Regular-64" transform="translate(819.599854 0)"/>
     <use xlink:href="#NotoSansCJKsc-Regular-20" transform="translate(881.599838 0)"/>
     <use xlink:href="#NotoSansCJKsc-Regular-6e" transform="translate(903.999832 0)"/>
     <use xlink:href="#NotoSansCJKsc-Regular-61" transform="translate(964.999817 0)"/>
     <use xlink:href="#NotoSansCJKsc-Regular-6d" transform="translate(1021.299805 0)"/>
     <use xlink:href="#NotoSansCJKsc-Regular-65" transform="translate(1113.899796 0)"/>
    </g>
   </g>
   <g id="text_14">
    <!-- no ref photo / weights -->
    <g style="fill: #475569" transform="translate(330.865313 141.393371) scale(0.09 -0.09)">
     <defs>
      <path id="NotoSansCJKsc-Regular-2f" d="M 70 -1146 
L 499 -1146 
L 2413 5082 
L 1990 5082 
L 70 -1146 
z
" transform="scale(0.015625)"/>
      <path id="NotoSansCJKsc-Regular-77" d="M 1139 0 
L 1818 0 
L 2310 1862 
C 2400 2195 2470 2522 2547 2874 
L 2579 2874 
C 2662 2522 2726 2202 2816 1875 
L 3315 0 
L 4026 0 
L 4966 3475 
L 4403 3475 
L 3898 1466 
C 3821 1133 3757 819 3686 499 
L 3654 499 
C 3571 819 3494 1133 3411 1466 
L 2867 3475 
L 2298 3475 
L 1754 1466 
C 1670 1133 1594 819 1523 499 
L 1491 499 
C 1421 819 1357 1133 1286 1466 
L 768 3475 
L 173 3475 
L 1139 0 
z
" transform="scale(0.015625)"/>
     </defs>
     <use xlink:href="#NotoSansCJKsc-Regular-6e"/>
     <use xlink:href="#NotoSansCJKsc-Regular-6f" transform="translate(60.999985 0)"/>
     <use xlink:href="#NotoSansCJKsc-Regular-20" transform="translate(121.599976 0)"/>
     <use xlink:href="#NotoSansCJKsc-Regular-72" transform="translate(143.999969 0)"/>
     <use xlink:href="#NotoSansCJKsc-Regular-65" transform="translate(182.799957 0)"/>
     <use xlink:href="#NotoSansCJKsc-Regular-66" transform="translate(238.199951 0)"/>
     <use xlink:href="#NotoSansCJKsc-Regular-20" transform="translate(270.699936 0)"/>
     <use xlink:href="#NotoSansCJKsc-Regular-70" transform="translate(293.09993 0)"/>
     <use xlink:href="#NotoSansCJKsc-Regular-68" transform="translate(355.099915 0)"/>
     <use xlink:href="#NotoSansCJKsc-Regular-6f" transform="translate(415.799911 0)"/>
     <use xlink:href="#NotoSansCJKsc-Regular-74" transform="translate(476.399902 0)"/>
     <use xlink:href="#NotoSansCJKsc-Regular-6f" transform="translate(514.099899 0)"/>
     <use xlink:href="#NotoSansCJKsc-Regular-20" transform="translate(574.69989 0)"/>
     <use xlink:href="#NotoSansCJKsc-Regular-2f" transform="translate(597.099884 0)"/>
     <use xlink:href="#NotoSansCJKsc-Regular-20" transform="translate(636.299881 0)"/>
     <use xlink:href="#NotoSansCJKsc-Regular-77" transform="translate(658.699875 0)"/>
     <use xlink:href="#NotoSansCJKsc-Regular-65" transform="translate(738.899857 0)"/>
     <use xlink:href="#NotoSansCJKsc-Regular-69" transform="translate(794.29985 0)"/>
     <use xlink:href="#NotoSansCJKsc-Regular-67" transform="translate(821.799835 0)"/>
     <use xlink:href="#NotoSansCJKsc-Regular-68" transform="translate(878.199829 0)"/>
     <use xlink:href="#NotoSansCJKsc-Regular-74" transform="translate(938.899826 0)"/>
     <use xlink:href="#NotoSansCJKsc-Regular-73" transform="translate(976.599823 0)"/>
    </g>
   </g>
   <g id="text_15">
    <!-- Memorized -->
    <g style="fill: #10b981" transform="translate(510.70282 101.68664) scale(0.105 -0.105)">
     <use xlink:href="#NotoSansCJKsc-Bold-4d"/>
     <use xlink:href="#NotoSansCJKsc-Bold-65" transform="translate(85.299988 0)"/>
     <use xlink:href="#NotoSansCJKsc-Bold-6d" transform="translate(143.399979 0)"/>
     <use xlink:href="#NotoSansCJKsc-Bold-6f" transform="translate(239.799973 0)"/>
     <use xlink:href="#NotoSansCJKsc-Bold-72" transform="translate(302.399963 0)"/>
     <use xlink:href="#NotoSansCJKsc-Bold-69" transform="translate(345.999954 0)"/>
     <use xlink:href="#NotoSansCJKsc-Bold-7a" transform="translate(376.399948 0)"/>
     <use xlink:href="#NotoSansCJKsc-Bold-65" transform="translate(427.499939 0)"/>
     <use xlink:href="#NotoSansCJKsc-Bold-64" transform="translate(485.59993 0)"/>
    </g>
   </g>
   <g id="text_16">
    <!-- consistent likeness -->
    <g style="fill: #475569" transform="translate(500.662438 115.613658) scale(0.088 -0.088)">
     <use xlink:href="#NotoSansCJKsc-Regular-63"/>
     <use xlink:href="#NotoSansCJKsc-Regular-6f" transform="translate(50.999985 0)"/>
     <use xlink:href="#NotoSansCJKsc-Regular-6e" transform="translate(111.599976 0)"/>
     <use xlink:href="#NotoSansCJKsc-Regular-73" transform="translate(172.59996 0)"/>
     <use xlink:href="#NotoSansCJKsc-Regular-69" transform="translate(219.399948 0)"/>
     <use xlink:href="#NotoSansCJKsc-Regular-73" transform="translate(246.899933 0)"/>
     <use xlink:href="#NotoSansCJKsc-Regular-74" transform="translate(293.699921 0)"/>
     <use xlink:href="#NotoSansCJKsc-Regular-65" transform="translate(331.399918 0)"/>
     <use xlink:href="#NotoSansCJKsc-Regular-6e" transform="translate(386.799911 0)"/>
     <use xlink:href="#NotoSansCJKsc-Regular-74" transform="translate(447.799896 0)"/>
     <use xlink:href="#NotoSansCJKsc-Regular-20" transform="translate(485.499893 0)"/>
     <use xlink:href="#NotoSansCJKsc-Regular-6c" transform="translate(507.899887 0)"/>
     <use xlink:href="#NotoSansCJKsc-Regular-69" transform="translate(536.299881 0)"/>
     <use xlink:href="#NotoSansCJKsc-Regular-6b" transform="translate(563.799866 0)"/>
     <use xlink:href="#NotoSansCJKsc-Regular-65" transform="translate(618.999863 0)"/>
     <use xlink:href="#NotoSansCJKsc-Regular-6e" transform="translate(674.399857 0)"/>
     <use xlink:href="#NotoSansCJKsc-Regular-65" transform="translate(735.399841 0)"/>
     <use xlink:href="#NotoSansCJKsc-Regular-73" transform="translate(790.799835 0)"/>
     <use xlink:href="#NotoSansCJKsc-Regular-73" transform="translate(837.599823 0)"/>
    </g>
   </g>
   <g id="text_17">
    <!-- Fabricated -->
    <g style="fill: #e11d48" transform="translate(511.626492 165.44264) scale(0.105 -0.105)">
     <defs>
      <path id="NotoSansCJKsc-Bold-46" d="M 582 0 
L 1530 0 
L 1530 1920 
L 3213 1920 
L 3213 2714 
L 1530 2714 
L 1530 3949 
L 3501 3949 
L 3501 4742 
L 582 4742 
L 582 0 
z
" transform="scale(0.015625)"/>
     </defs>
     <use xlink:href="#NotoSansCJKsc-Bold-46"/>
     <use xlink:href="#NotoSansCJKsc-Bold-61" transform="translate(58.499985 0)"/>
     <use xlink:href="#NotoSansCJKsc-Bold-62" transform="translate(117.599976 0)"/>
     <use xlink:href="#NotoSansCJKsc-Bold-72" transform="translate(181.999969 0)"/>
     <use xlink:href="#NotoSansCJKsc-Bold-69" transform="translate(225.59996 0)"/>
     <use xlink:href="#NotoSansCJKsc-Bold-63" transform="translate(255.999954 0)"/>
     <use xlink:href="#NotoSansCJKsc-Bold-61" transform="translate(308.699951 0)"/>
     <use xlink:href="#NotoSansCJKsc-Bold-74" transform="translate(367.799942 0)"/>
     <use xlink:href="#NotoSansCJKsc-Bold-65" transform="translate(409.899933 0)"/>
     <use xlink:href="#NotoSansCJKsc-Bold-64" transform="translate(467.999924 0)"/>
    </g>
   </g>
   <g id="text_18">
    <!-- unrecognized / invented -->
    <g style="fill: #475569" transform="translate(489.70575 179.369658) scale(0.088 -0.088)">
     <use xlink:href="#NotoSansCJKsc-Regular-75"/>
     <use xlink:href="#NotoSansCJKsc-Regular-6e" transform="translate(60.699997 0)"/>
     <use xlink:href="#NotoSansCJKsc-Regular-72" transform="translate(121.699982 0)"/>
     <use xlink:href="#NotoSansCJKsc-Regular-65" transform="translate(160.499969 0)"/>
     <use xlink:href="#NotoSansCJKsc-Regular-63" transform="translate(215.899963 0)"/>
     <use xlink:href="#NotoSansCJKsc-Regular-6f" transform="translate(266.899948 0)"/>
     <use xlink:href="#NotoSansCJKsc-Regular-67" transform="translate(327.499939 0)"/>
     <use xlink:href="#NotoSansCJKsc-Regular-6e" transform="translate(383.899933 0)"/>
     <use xlink:href="#NotoSansCJKsc-Regular-69" transform="translate(444.899918 0)"/>
     <use xlink:href="#NotoSansCJKsc-Regular-7a" transform="translate(472.399902 0)"/>
     <use xlink:href="#NotoSansCJKsc-Regular-65" transform="translate(519.899887 0)"/>
     <use xlink:href="#NotoSansCJKsc-Regular-64" transform="translate(575.299881 0)"/>
     <use xlink:href="#NotoSansCJKsc-Regular-20" transform="translate(637.299866 0)"/>
     <use xlink:href="#NotoSansCJKsc-Regular-2f" transform="translate(659.69986 0)"/>
     <use xlink:href="#NotoSansCJKsc-Regular-20" transform="translate(698.899857 0)"/>
     <use xlink:href="#NotoSansCJKsc-Regular-69" transform="translate(721.29985 0)"/>
     <use xlink:href="#NotoSansCJKsc-Regular-6e" transform="translate(748.799835 0)"/>
     <use xlink:href="#NotoSansCJKsc-Regular-76" transform="translate(809.79982 0)"/>
     <use xlink:href="#NotoSansCJKsc-Regular-65" transform="translate(861.899811 0)"/>
     <use xlink:href="#NotoSansCJKsc-Regular-6e" transform="translate(917.299805 0)"/>
     <use xlink:href="#NotoSansCJKsc-Regular-74" transform="translate(978.299789 0)"/>
     <use xlink:href="#NotoSansCJKsc-Regular-65" transform="translate(1015.999786 0)"/>
     <use xlink:href="#NotoSansCJKsc-Regular-64" transform="translate(1071.39978 0)"/>
    </g>
   </g>
   <g id="text_19">
    <!-- Distinguishes memorized vs fabricated faces with NO reference photos, training data, or white-box access. -->
    <g style="fill: #64748b" transform="translate(93.727266 246.11256) scale(0.09 -0.09)">
     <defs>
      <path id="NotoSansCJKsc-Regular-44" d="M 646 0 
L 1843 0 
C 3258 0 4026 877 4026 2362 
C 4026 3859 3258 4691 1818 4691 
L 646 4691 
L 646 0 
z
M 1235 486 
L 1235 4211 
L 1766 4211 
C 2874 4211 3418 3552 3418 2362 
C 3418 1178 2874 486 1766 486 
L 1235 486 
z
" transform="scale(0.015625)"/>
      <path id="NotoSansCJKsc-Regular-4f" d="M 2374 -83 
C 3552 -83 4378 858 4378 2362 
C 4378 3866 3552 4774 2374 4774 
C 1197 4774 371 3866 371 2362 
C 371 858 1197 -83 2374 -83 
z
M 2374 435 
C 1530 435 979 1190 979 2362 
C 979 3533 1530 4256 2374 4256 
C 3219 4256 3770 3533 3770 2362 
C 3770 1190 3219 435 2374 435 
z
" transform="scale(0.015625)"/>
      <path id="NotoSansCJKsc-Regular-2c" d="M 480 -1216 
C 1056 -973 1414 -493 1414 122 
C 1414 550 1229 806 922 806 
C 685 806 480 653 480 397 
C 480 141 678 -13 909 -13 
L 979 -6 
C 973 -390 736 -698 339 -870 
L 480 -1216 
z
" transform="scale(0.015625)"/>
      <path id="NotoSansCJKsc-Regular-2e" d="M 890 -83 
C 1120 -83 1312 96 1312 358 
C 1312 627 1120 806 890 806 
C 653 806 467 627 467 358 
C 467 96 653 -83 890 -83 
z
" transform="scale(0.015625)"/>
     </defs>
     <use xlink:href="#NotoSansCJKsc-Regular-44"/>
     <use xlink:href="#NotoSansCJKsc-Regular-69" transform="translate(68.799988 0)"/>
     <use xlink:href="#NotoSansCJKsc-Regular-73" transform="translate(96.299973 0)"/>
     <use xlink:href="#NotoSansCJKsc-Regular-74" transform="translate(143.09996 0)"/>
     <use xlink:href="#NotoSansCJKsc-Regular-69" transform="translate(180.799957 0)"/>
     <use xlink:href="#NotoSansCJKsc-Regular-6e" transform="translate(208.299942 0)"/>
     <use xlink:href="#NotoSansCJKsc-Regular-67" transform="translate(269.299927 0)"/>
     <use xlink:href="#NotoSansCJKsc-Regular-75" transform="translate(325.699921 0)"/>
     <use xlink:href="#NotoSansCJKsc-Regular-69" transform="translate(386.399918 0)"/>
     <use xlink:href="#NotoSansCJKsc-Regular-73" transform="translate(413.899902 0)"/>
     <use xlink:href="#NotoSansCJKsc-Regular-68" transform="translate(460.69989 0)"/>
     <use xlink:href="#NotoSansCJKsc-Regular-65" transform="translate(521.399887 0)"/>
     <use xlink:href="#NotoSansCJKsc-Regular-73" transform="translate(576.799881 0)"/>
     <use xlink:href="#NotoSansCJKsc-Regular-20" transform="translate(623.599869 0)"/>
     <use xlink:href="#NotoSansCJKsc-Regular-6d" transform="translate(645.999863 0)"/>
     <use xlink:href="#NotoSansCJKsc-Regular-65" transform="translate(738.599854 0)"/>
     <use xlink:href="#NotoSansCJKsc-Regular-6d" transform="translate(793.999847 0)"/>
     <use xlink:href="#NotoSansCJKsc-Regular-6f" transform="translate(886.599838 0)"/>
     <use xlink:href="#NotoSansCJKsc-Regular-72" transform="translate(947.199829 0)"/>
     <use xlink:href="#NotoSansCJKsc-Regular-69" transform="translate(985.999817 0)"/>
     <use xlink:href="#NotoSansCJKsc-Regular-7a" transform="translate(1013.499802 0)"/>
     <use xlink:href="#NotoSansCJKsc-Regular-65" transform="translate(1060.999786 0)"/>
     <use xlink:href="#NotoSansCJKsc-Regular-64" transform="translate(1116.39978 0)"/>
     <use xlink:href="#NotoSansCJKsc-Regular-20" transform="translate(1178.399765 0)"/>
     <use xlink:href="#NotoSansCJKsc-Regular-76" transform="translate(1200.799759 0)"/>
     <use xlink:href="#NotoSansCJKsc-Regular-73" transform="translate(1252.89975 0)"/>
     <use xlink:href="#NotoSansCJKsc-Regular-20" transform="translate(1299.699738 0)"/>
     <use xlink:href="#NotoSansCJKsc-Regular-66" transform="translate(1322.099731 0)"/>
     <use xlink:href="#NotoSansCJKsc-Regular-61" transform="translate(1354.599716 0)"/>
     <use xlink:href="#NotoSansCJKsc-Regular-62" transform="translate(1410.899704 0)"/>
     <use xlink:href="#NotoSansCJKsc-Regular-72" transform="translate(1472.699692 0)"/>
     <use xlink:href="#NotoSansCJKsc-Regular-69" transform="translate(1511.49968 0)"/>
     <use xlink:href="#NotoSansCJKsc-Regular-63" transform="translate(1538.999664 0)"/>
     <use xlink:href="#NotoSansCJKsc-Regular-61" transform="translate(1589.999649 0)"/>
     <use xlink:href="#NotoSansCJKsc-Regular-74" transform="translate(1646.299637 0)"/>
     <use xlink:href="#NotoSansCJKsc-Regular-65" transform="translate(1683.999634 0)"/>
     <use xlink:href="#NotoSansCJKsc-Regular-64" transform="translate(1739.399628 0)"/>
     <use xlink:href="#NotoSansCJKsc-Regular-20" transform="translate(1801.399612 0)"/>
     <use xlink:href="#NotoSansCJKsc-Regular-66" transform="translate(1823.799606 0)"/>
     <use xlink:href="#NotoSansCJKsc-Regular-61" transform="translate(1856.299591 0)"/>
     <use xlink:href="#NotoSansCJKsc-Regular-63" transform="translate(1912.599579 0)"/>
     <use xlink:href="#NotoSansCJKsc-Regular-65" transform="translate(1963.599564 0)"/>
     <use xlink:href="#NotoSansCJKsc-Regular-73" transform="translate(2018.999557 0)"/>
     <use xlink:href="#NotoSansCJKsc-Regular-20" transform="translate(2065.799545 0)"/>
     <use xlink:href="#NotoSansCJKsc-Regular-77" transform="translate(2088.199539 0)"/>
     <use xlink:href="#NotoSansCJKsc-Regular-69" transform="translate(2168.399521 0)"/>
     <use xlink:href="#NotoSansCJKsc-Regular-74" transform="translate(2195.899506 0)"/>
     <use xlink:href="#NotoSansCJKsc-Regular-68" transform="translate(2233.599503 0)"/>
     <use xlink:href="#NotoSansCJKsc-Regular-20" transform="translate(2294.2995 0)"/>
     <use xlink:href="#NotoSansCJKsc-Regular-4e" transform="translate(2316.699493 0)"/>
     <use xlink:href="#NotoSansCJKsc-Regular-4f" transform="translate(2388.999481 0)"/>
     <use xlink:href="#NotoSansCJKsc-Regular-20" transform="translate(2463.199463 0)"/>
     <use xlink:href="#NotoSansCJKsc-Regular-72" transform="translate(2485.599457 0)"/>
     <use xlink:href="#NotoSansCJKsc-Regular-65" transform="translate(2524.399445 0)"/>
     <use xlink:href="#NotoSansCJKsc-Regular-66" transform="translate(2579.799438 0)"/>
     <use xlink:href="#NotoSansCJKsc-Regular-65" transform="translate(2612.299423 0)"/>
     <use xlink:href="#NotoSansCJKsc-Regular-72" transform="translate(2667.699417 0)"/>
     <use xlink:href="#NotoSansCJKsc-Regular-65" transform="translate(2706.499405 0)"/>
     <use xlink:href="#NotoSansCJKsc-Regular-6e" transform="translate(2761.899399 0)"/>
     <use xlink:href="#NotoSansCJKsc-Regular-63" transform="translate(2822.899384 0)"/>
     <use xlink:href="#NotoSansCJKsc-Regular-65" transform="translate(2873.899368 0)"/>
     <use xlink:href="#NotoSansCJKsc-Regular-20" transform="translate(2929.299362 0)"/>
     <use xlink:href="#NotoSansCJKsc-Regular-70" transform="translate(2951.699356 0)"/>
     <use xlink:href="#NotoSansCJKsc-Regular-68" transform="translate(3013.699341 0)"/>
     <use xlink:href="#NotoSansCJKsc-Regular-6f" transform="translate(3074.399338 0)"/>
     <use xlink:href="#NotoSansCJKsc-Regular-74" transform="translate(3134.999329 0)"/>
     <use xlink:href="#NotoSansCJKsc-Regular-6f" transform="translate(3172.699326 0)"/>
     <use xlink:href="#NotoSansCJKsc-Regular-73" transform="translate(3233.299316 0)"/>
     <use xlink:href="#NotoSansCJKsc-Regular-2c" transform="translate(3280.099304 0)"/>
     <use xlink:href="#NotoSansCJKsc-Regular-20" transform="translate(3307.899292 0)"/>
     <use xlink:href="#NotoSansCJKsc-Regular-74" transform="translate(3330.299286 0)"/>
     <use xlink:href="#NotoSansCJKsc-Regular-72" transform="translate(3367.999283 0)"/>
     <use xlink:href="#NotoSansCJKsc-Regular-61" transform="translate(3406.799271 0)"/>
     <use xlink:href="#NotoSansCJKsc-Regular-69" transform="translate(3463.099258 0)"/>
     <use xlink:href="#NotoSansCJKsc-Regular-6e" transform="translate(3490.599243 0)"/>
     <use xlink:href="#NotoSansCJKsc-Regular-69" transform="translate(3551.599228 0)"/>
     <use xlink:href="#NotoSansCJKsc-Regular-6e" transform="translate(3579.099213 0)"/>
     <use xlink:href="#NotoSansCJKsc-Regular-67" transform="translate(3640.099197 0)"/>
     <use xlink:href="#NotoSansCJKsc-Regular-20" transform="translate(3696.499191 0)"/>
     <use xlink:href="#NotoSansCJKsc-Regular-64" transform="translate(3718.899185 0)"/>
     <use xlink:href="#NotoSansCJKsc-Regular-61" transform="translate(3780.89917 0)"/>
     <use xlink:href="#NotoSansCJKsc-Regular-74" transform="translate(3837.199158 0)"/>
     <use xlink:href="#NotoSansCJKsc-Regular-61" transform="translate(3874.899155 0)"/>
     <use xlink:href="#NotoSansCJKsc-Regular-2c" transform="translate(3931.199142 0)"/>
     <use xlink:href="#NotoSansCJKsc-Regular-20" transform="translate(3958.99913 0)"/>
     <use xlink:href="#NotoSansCJKsc-Regular-6f" transform="translate(3981.399124 0)"/>
     <use xlink:href="#NotoSansCJKsc-Regular-72" transform="translate(4041.999115 0)"/>
     <use xlink:href="#NotoSansCJKsc-Regular-20" transform="translate(4080.799103 0)"/>
     <use xlink:href="#NotoSansCJKsc-Regular-77" transform="translate(4103.199097 0)"/>
     <use xlink:href="#NotoSansCJKsc-Regular-68" transform="translate(4183.399078 0)"/>
     <use xlink:href="#NotoSansCJKsc-Regular-69" transform="translate(4244.099075 0)"/>
     <use xlink:href="#NotoSansCJKsc-Regular-74" transform="translate(4271.59906 0)"/>
     <use xlink:href="#NotoSansCJKsc-Regular-65" transform="translate(4309.299057 0)"/>
     <use xlink:href="#NotoSansCJKsc-Regular-2d" transform="translate(4364.699051 0)"/>
     <use xlink:href="#NotoSansCJKsc-Regular-62" transform="translate(4399.399048 0)"/>
     <use xlink:href="#NotoSansCJKsc-Regular-6f" transform="translate(4461.199036 0)"/>
     <use xlink:href="#NotoSansCJKsc-Regular-78" transform="translate(4521.799026 0)"/>
     <use xlink:href="#NotoSansCJKsc-Regular-20" transform="translate(4571.599014 0)"/>
     <use xlink:href="#NotoSansCJKsc-Regular-61" transform="translate(4593.999008 0)"/>
     <use xlink:href="#NotoSansCJKsc-Regular-63" transform="translate(4650.298996 0)"/>
     <use xlink:href="#NotoSansCJKsc-Regular-63" transform="translate(4701.298981 0)"/>
     <use xlink:href="#NotoSansCJKsc-Regular-65" transform="translate(4752.298965 0)"/>
     <use xlink:href="#NotoSansCJKsc-Regular-73" transform="translate(4807.698959 0)"/>
     <use xlink:href="#NotoSansCJKsc-Regular-73" transform="translate(4854.498947 0)"/>
     <use xlink:href="#NotoSansCJKsc-Regular-2e" transform="translate(4901.298935 0)"/>
    </g>
   </g>
   <g id="patch_11">
    <path d="M 16.0056 26.49168 
L 77.3856 26.49168 
L 77.3856 15.0156 
L 16.0056 15.0156 
z
" clip-path="url(#pca55817a4d)" style="fill: #2563eb; stroke: #2563eb; stroke-linejoin: miter"/>
   </g>
  </g>
 </g>
 <defs>
  <clipPath id="pca55817a4d">
   <rect x="8.64" y="8.64" width="613.8" height="255.024"/>
  </clipPath>
 </defs>
</svg>
