<?xml version="1.0" encoding="utf-8" standalone="no"?>
<!DOCTYPE svg PUBLIC "-//W3C//DTD SVG 1.1//EN"
  "http://www.w3.org/Graphics/SVG/1.1/DTD/svg11.dtd">
<svg xmlns:xlink="http://www.w3.org/1999/xlink" width="787.896pt" height="315.583pt" viewBox="0 0 787.896 315.583" xmlns="http://www.w3.org/2000/svg" version="1.1">
 <metadata>
  <rdf:RDF xmlns:dc="http://purl.org/dc/elements/1.1/" xmlns:cc="http://creativecommons.org/ns#" xmlns:rdf="http://www.w3.org/1999/02/22-rdf-syntax-ns#">
   <cc:Work>
    <dc:type rdf:resource="http://purl.org/dc/dcmitype/StillImage"/>
    <dc:date>2026-06-28T20:08:34.435996</dc:date>
    <dc:format>image/svg+xml</dc:format>
    <dc:creator>
     <cc:Agent>
      <dc:title>Matplotlib v3.10.5, https://matplotlib.org/</dc:title>
     </cc:Agent>
    </dc:creator>
   </cc:Work>
  </rdf:RDF>
 </metadata>
 <defs>
  <style type="text/css">*{stroke-linejoin: round; stroke-linecap: butt}</style>
 </defs>
 <g id="figure_1">
  <g id="patch_1">
   <path d="M 0 315.583 
L 787.896 315.583 
L 787.896 0 
L 0 0 
z
" style="fill: #ffffff"/>
  </g>
  <g id="axes_1">
   <g id="patch_2">
    <path d="M 52.616 288.668 
L 257.031 288.668 
L 257.031 75.372 
L 52.616 75.372 
z
" style="fill: #ffffff"/>
   </g>
   <g id="matplotlib.axis_1">
    <g id="xtick_1">
     <g id="line2d_1">
      <defs>
       <path id="me7dab4980c" d="M 0 0 
L 0 3.5 
" style="stroke: #475569; stroke-width: 0.8"/>
      </defs>
      <g>
       <use xlink:href="#me7dab4980c" x="94.877752" y="288.668" style="fill: #475569; stroke: #475569; stroke-width: 0.8"/>
      </g>
     </g>
     <g id="text_1">
      <!-- Before -->
      <g style="fill: #475569" transform="translate(77.915408 304.423312) scale(0.11 -0.11)">
       <defs>
        <path id="NotoSansCJKsc-Regular-42" d="M 646 0 
L 2138 0 
C 3187 0 3917 454 3917 1376 
C 3917 2016 3520 2387 2963 2496 
L 2963 2528 
C 3405 2669 3648 3078 3648 3546 
C 3648 4371 2982 4691 2035 4691 
L 646 4691 
L 646 0 
z
M 1235 2701 
L 1235 4224 
L 1958 4224 
C 2694 4224 3066 4019 3066 3469 
C 3066 2989 2739 2701 1933 2701 
L 1235 2701 
z
M 1235 474 
L 1235 2240 
L 2054 2240 
C 2880 2240 3334 1978 3334 1395 
C 3334 762 2861 474 2054 474 
L 1235 474 
z
" transform="scale(0.015625)"/>
        <path id="NotoSansCJKsc-Regular-65" d="M 1997 -83 
C 2464 -83 2835 70 3136 269 
L 2931 659 
C 2669 486 2400 384 2061 384 
C 1402 384 947 858 909 1600 
L 3251 1600 
C 3264 1690 3277 1805 3277 1933 
C 3277 2925 2778 3565 1888 3565 
C 1094 3565 333 2867 333 1734 
C 333 589 1069 -83 1997 -83 
z
M 902 2016 
C 973 2707 1408 3098 1901 3098 
C 2445 3098 2765 2720 2765 2016 
L 902 2016 
z
" transform="scale(0.015625)"/>
        <path id="NotoSansCJKsc-Regular-66" d="M 211 3002 
L 685 3002 
L 685 0 
L 1267 0 
L 1267 3002 
L 2003 3002 
L 2003 3475 
L 1267 3475 
L 1267 4026 
C 1267 4474 1427 4710 1760 4710 
C 1882 4710 2022 4678 2150 4614 
L 2278 5069 
C 2118 5133 1914 5178 1696 5178 
C 1005 5178 685 4736 685 4032 
L 685 3475 
L 211 3443 
L 211 3002 
z
" transform="scale(0.015625)"/>
        <path id="NotoSansCJKsc-Regular-6f" d="M 1939 -83 
C 2790 -83 3546 582 3546 1734 
C 3546 2893 2790 3565 1939 3565 
C 1088 3565 333 2893 333 1734 
C 333 582 1088 -83 1939 -83 
z
M 1939 403 
C 1338 403 934 934 934 1734 
C 934 2534 1338 3072 1939 3072 
C 2541 3072 2950 2534 2950 1734 
C 2950 934 2541 403 1939 403 
z
" transform="scale(0.015625)"/>
        <path id="NotoSansCJKsc-Regular-72" d="M 589 0 
L 1178 0 
L 1178 2234 
C 1408 2822 1760 3040 2048 3040 
C 2195 3040 2272 3021 2387 2982 
L 2496 3488 
C 2387 3546 2278 3565 2125 3565 
C 1741 3565 1382 3283 1139 2842 
L 1126 2842 
L 1069 3475 
L 589 3475 
L 589 0 
z
" transform="scale(0.015625)"/>
       </defs>
       <use xlink:href="#NotoSansCJKsc-Regular-42"/>
       <use xlink:href="#NotoSansCJKsc-Regular-65" transform="translate(65.699997 0)"/>
       <use xlink:href="#NotoSansCJKsc-Regular-66" transform="translate(121.099991 0)"/>
       <use xlink:href="#NotoSansCJKsc-Regular-6f" transform="translate(153.599976 0)"/>
       <use xlink:href="#NotoSansCJKsc-Regular-72" transform="translate(214.199966 0)"/>
       <use xlink:href="#NotoSansCJKsc-Regular-65" transform="translate(252.999954 0)"/>
      </g>
     </g>
    </g>
    <g id="xtick_2">
     <g id="line2d_2">
      <g>
       <use xlink:href="#me7dab4980c" x="214.769248" y="288.668" style="fill: #475569; stroke: #475569; stroke-width: 0.8"/>
      </g>
     </g>
     <g id="text_2">
      <!-- After -->
      <g style="fill: #475569" transform="translate(202.383076 304.423312) scale(0.11 -0.11)">
       <defs>
        <path id="NotoSansCJKsc-Regular-41" d="M 26 0 
L 621 0 
L 1075 1434 
L 2790 1434 
L 3238 0 
L 3866 0 
L 2272 4691 
L 1613 4691 
L 26 0 
z
M 1222 1901 
L 1453 2624 
C 1619 3155 1773 3661 1920 4211 
L 1946 4211 
C 2099 3667 2246 3155 2419 2624 
L 2643 1901 
L 1222 1901 
z
" transform="scale(0.015625)"/>
        <path id="NotoSansCJKsc-Regular-74" d="M 1677 -83 
C 1894 -83 2125 -19 2323 45 
L 2208 486 
C 2093 435 1939 390 1811 390 
C 1408 390 1274 634 1274 1056 
L 1274 3002 
L 2221 3002 
L 2221 3475 
L 1274 3475 
L 1274 4454 
L 787 4454 
L 723 3475 
L 173 3443 
L 173 3002 
L 691 3002 
L 691 1075 
C 691 378 941 -83 1677 -83 
z
" transform="scale(0.015625)"/>
       </defs>
       <use xlink:href="#NotoSansCJKsc-Regular-41"/>
       <use xlink:href="#NotoSansCJKsc-Regular-66" transform="translate(60.799988 0)"/>
       <use xlink:href="#NotoSansCJKsc-Regular-74" transform="translate(93.299973 0)"/>
       <use xlink:href="#NotoSansCJKsc-Regular-65" transform="translate(130.999969 0)"/>
       <use xlink:href="#NotoSansCJKsc-Regular-72" transform="translate(186.399963 0)"/>
      </g>
     </g>
    </g>
   </g>
   <g id="matplotlib.axis_2">
    <g id="ytick_1">
     <g id="line2d_3">
      <path d="M 52.616 288.668 
L 257.031 288.668 
" clip-path="url(#p9f801190e4)" style="fill: none; stroke: #e5e7eb; stroke-width: 0.8; stroke-linecap: square"/>
     </g>
     <g id="line2d_4">
      <defs>
       <path id="m1e43bef680" d="M 0 0 
L -3.5 0 
" style="stroke: #475569; stroke-width: 0.8"/>
      </defs>
      <g>
       <use xlink:href="#m1e43bef680" x="52.616" y="288.668" style="fill: #475569; stroke: #475569; stroke-width: 0.8"/>
      </g>
     </g>
     <g id="text_3">
      <!-- 0 -->
      <g style="fill: #475569" transform="translate(39.511 293.045656) scale(0.11 -0.11)">
       <defs>
        <path id="NotoSansCJKsc-Regular-30" d="M 1779 -83 
C 2669 -83 3238 723 3238 2362 
C 3238 3987 2669 4774 1779 4774 
C 883 4774 320 3987 320 2362 
C 320 723 883 -83 1779 -83 
z
M 1779 390 
C 1248 390 883 986 883 2362 
C 883 3731 1248 4314 1779 4314 
C 2310 4314 2675 3731 2675 2362 
C 2675 986 2310 390 1779 390 
z
" transform="scale(0.015625)"/>
       </defs>
       <use xlink:href="#NotoSansCJKsc-Regular-30"/>
      </g>
     </g>
    </g>
    <g id="ytick_2">
     <g id="line2d_5">
      <path d="M 52.616 255.853231 
L 257.031 255.853231 
" clip-path="url(#p9f801190e4)" style="fill: none; stroke: #e5e7eb; stroke-width: 0.8; stroke-linecap: square"/>
     </g>
     <g id="line2d_6">
      <g>
       <use xlink:href="#m1e43bef680" x="52.616" y="255.853231" style="fill: #475569; stroke: #475569; stroke-width: 0.8"/>
      </g>
     </g>
     <g id="text_4">
      <!-- 20 -->
      <g style="fill: #475569" transform="translate(33.406 260.230887) scale(0.11 -0.11)">
       <defs>
        <path id="NotoSansCJKsc-Regular-32" d="M 282 0 
L 3232 0 
L 3232 506 
L 1933 506 
C 1696 506 1408 480 1165 461 
C 2266 1504 3008 2458 3008 3398 
C 3008 4230 2477 4774 1638 4774 
C 1043 4774 634 4506 256 4090 
L 595 3757 
C 858 4070 1184 4301 1568 4301 
C 2150 4301 2432 3910 2432 3373 
C 2432 2566 1754 1632 282 346 
L 282 0 
z
" transform="scale(0.015625)"/>
       </defs>
       <use xlink:href="#NotoSansCJKsc-Regular-32"/>
       <use xlink:href="#NotoSansCJKsc-Regular-30" transform="translate(55.499985 0)"/>
      </g>
     </g>
    </g>
    <g id="ytick_3">
     <g id="line2d_7">
      <path d="M 52.616 223.038462 
L 257.031 223.038462 
" clip-path="url(#p9f801190e4)" style="fill: none; stroke: #e5e7eb; stroke-width: 0.8; stroke-linecap: square"/>
     </g>
     <g id="line2d_8">
      <g>
       <use xlink:href="#m1e43bef680" x="52.616" y="223.038462" style="fill: #475569; stroke: #475569; stroke-width: 0.8"/>
      </g>
     </g>
     <g id="text_5">
      <!-- 40 -->
      <g style="fill: #475569" transform="translate(33.406 227.416118) scale(0.11 -0.11)">
       <defs>
        <path id="NotoSansCJKsc-Regular-34" d="M 2176 0 
L 2726 0 
L 2726 1293 
L 3354 1293 
L 3354 1760 
L 2726 1760 
L 2726 4691 
L 2080 4691 
L 128 1677 
L 128 1293 
L 2176 1293 
L 2176 0 
z
M 2176 1760 
L 736 1760 
L 1805 3360 
C 1939 3590 2067 3827 2182 4051 
L 2208 4051 
C 2195 3814 2176 3430 2176 3200 
L 2176 1760 
z
" transform="scale(0.015625)"/>
       </defs>
       <use xlink:href="#NotoSansCJKsc-Regular-34"/>
       <use xlink:href="#NotoSansCJKsc-Regular-30" transform="translate(55.499985 0)"/>
      </g>
     </g>
    </g>
    <g id="ytick_4">
     <g id="line2d_9">
      <path d="M 52.616 190.223692 
L 257.031 190.223692 
" clip-path="url(#p9f801190e4)" style="fill: none; stroke: #e5e7eb; stroke-width: 0.8; stroke-linecap: square"/>
     </g>
     <g id="line2d_10">
      <g>
       <use xlink:href="#m1e43bef680" x="52.616" y="190.223692" style="fill: #475569; stroke: #475569; stroke-width: 0.8"/>
      </g>
     </g>
     <g id="text_6">
      <!-- 60 -->
      <g style="fill: #475569" transform="translate(33.406 194.601349) scale(0.11 -0.11)">
       <defs>
        <path id="NotoSansCJKsc-Regular-36" d="M 1926 -83 
C 2656 -83 3277 531 3277 1440 
C 3277 2426 2765 2912 1971 2912 
C 1606 2912 1197 2701 909 2349 
C 934 3802 1466 4294 2118 4294 
C 2400 4294 2682 4154 2861 3936 
L 3194 4294 
C 2931 4576 2579 4774 2093 4774 
C 1184 4774 358 4077 358 2240 
C 358 691 1030 -83 1926 -83 
z
M 922 1882 
C 1229 2317 1587 2477 1875 2477 
C 2445 2477 2720 2074 2720 1440 
C 2720 800 2374 378 1926 378 
C 1338 378 986 909 922 1882 
z
" transform="scale(0.015625)"/>
       </defs>
       <use xlink:href="#NotoSansCJKsc-Regular-36"/>
       <use xlink:href="#NotoSansCJKsc-Regular-30" transform="translate(55.499985 0)"/>
      </g>
     </g>
    </g>
    <g id="ytick_5">
     <g id="line2d_11">
      <path d="M 52.616 157.408923 
L 257.031 157.408923 
" clip-path="url(#p9f801190e4)" style="fill: none; stroke: #e5e7eb; stroke-width: 0.8; stroke-linecap: square"/>
     </g>
     <g id="line2d_12">
      <g>
       <use xlink:href="#m1e43bef680" x="52.616" y="157.408923" style="fill: #475569; stroke: #475569; stroke-width: 0.8"/>
      </g>
     </g>
     <g id="text_7">
      <!-- 80 -->
      <g style="fill: #475569" transform="translate(33.406 161.786579) scale(0.11 -0.11)">
       <defs>
        <path id="NotoSansCJKsc-Regular-38" d="M 1792 -83 
C 2669 -83 3258 448 3258 1126 
C 3258 1773 2880 2125 2470 2362 
L 2470 2394 
C 2746 2611 3091 3034 3091 3526 
C 3091 4250 2605 4762 1805 4762 
C 1075 4762 518 4282 518 3571 
C 518 3078 813 2726 1152 2490 
L 1152 2464 
C 723 2234 294 1792 294 1165 
C 294 442 922 -83 1792 -83 
z
M 2112 2547 
C 1555 2765 1050 3014 1050 3571 
C 1050 4026 1363 4326 1798 4326 
C 2298 4326 2592 3962 2592 3494 
C 2592 3149 2426 2829 2112 2547 
z
M 1798 352 
C 1235 352 813 717 813 1216 
C 813 1664 1082 2035 1459 2278 
C 2125 2010 2701 1779 2701 1146 
C 2701 678 2342 352 1798 352 
z
" transform="scale(0.015625)"/>
       </defs>
       <use xlink:href="#NotoSansCJKsc-Regular-38"/>
       <use xlink:href="#NotoSansCJKsc-Regular-30" transform="translate(55.499985 0)"/>
      </g>
     </g>
    </g>
    <g id="ytick_6">
     <g id="line2d_13">
      <path d="M 52.616 124.594154 
L 257.031 124.594154 
" clip-path="url(#p9f801190e4)" style="fill: none; stroke: #e5e7eb; stroke-width: 0.8; stroke-linecap: square"/>
     </g>
     <g id="line2d_14">
      <g>
       <use xlink:href="#m1e43bef680" x="52.616" y="124.594154" style="fill: #475569; stroke: #475569; stroke-width: 0.8"/>
      </g>
     </g>
     <g id="text_8">
      <!-- 100 -->
      <g style="fill: #475569" transform="translate(27.301 128.97181) scale(0.11 -0.11)">
       <defs>
        <path id="NotoSansCJKsc-Regular-31" d="M 563 0 
L 3136 0 
L 3136 486 
L 2195 486 
L 2195 4691 
L 1747 4691 
C 1491 4544 1190 4435 774 4358 
L 774 3987 
L 1613 3987 
L 1613 486 
L 563 486 
L 563 0 
z
" transform="scale(0.015625)"/>
       </defs>
       <use xlink:href="#NotoSansCJKsc-Regular-31"/>
       <use xlink:href="#NotoSansCJKsc-Regular-30" transform="translate(55.499985 0)"/>
       <use xlink:href="#NotoSansCJKsc-Regular-30" transform="translate(110.999969 0)"/>
      </g>
     </g>
    </g>
    <g id="ytick_7">
     <g id="line2d_15">
      <path d="M 52.616 91.779385 
L 257.031 91.779385 
" clip-path="url(#p9f801190e4)" style="fill: none; stroke: #e5e7eb; stroke-width: 0.8; stroke-linecap: square"/>
     </g>
     <g id="line2d_16">
      <g>
       <use xlink:href="#m1e43bef680" x="52.616" y="91.779385" style="fill: #475569; stroke: #475569; stroke-width: 0.8"/>
      </g>
     </g>
     <g id="text_9">
      <!-- 120 -->
      <g style="fill: #475569" transform="translate(27.301 96.157041) scale(0.11 -0.11)">
       <use xlink:href="#NotoSansCJKsc-Regular-31"/>
       <use xlink:href="#NotoSansCJKsc-Regular-32" transform="translate(55.499985 0)"/>
       <use xlink:href="#NotoSansCJKsc-Regular-30" transform="translate(110.999969 0)"/>
      </g>
     </g>
    </g>
    <g id="text_10">
     <!-- Turnaround (hours) -->
     <g style="fill: #0f172a" transform="translate(20.781313 232.476484) rotate(-90) scale(0.11 -0.11)">
      <defs>
       <path id="NotoSansCJKsc-Regular-54" d="M 1619 0 
L 2214 0 
L 2214 4192 
L 3635 4192 
L 3635 4691 
L 198 4691 
L 198 4192 
L 1619 4192 
L 1619 0 
z
" transform="scale(0.015625)"/>
       <path id="NotoSansCJKsc-Regular-75" d="M 1606 -83 
C 2080 -83 2426 166 2752 544 
L 2771 544 
L 2816 0 
L 3302 0 
L 3302 3475 
L 2720 3475 
L 2720 1011 
C 2387 602 2138 422 1779 422 
C 1318 422 1126 698 1126 1344 
L 1126 3475 
L 538 3475 
L 538 1274 
C 538 384 870 -83 1606 -83 
z
" transform="scale(0.015625)"/>
       <path id="NotoSansCJKsc-Regular-6e" d="M 589 0 
L 1178 0 
L 1178 2522 
C 1523 2874 1766 3053 2125 3053 
C 2586 3053 2784 2778 2784 2125 
L 2784 0 
L 3366 0 
L 3366 2202 
C 3366 3085 3034 3565 2304 3565 
C 1830 3565 1466 3302 1139 2970 
L 1126 2970 
L 1069 3475 
L 589 3475 
L 589 0 
z
" transform="scale(0.015625)"/>
       <path id="NotoSansCJKsc-Regular-61" d="M 1389 -83 
C 1818 -83 2208 141 2541 416 
L 2560 416 
L 2611 0 
L 3091 0 
L 3091 2138 
C 3091 3002 2739 3565 1888 3565 
C 1325 3565 838 3315 525 3110 
L 749 2707 
C 1024 2893 1389 3078 1792 3078 
C 2362 3078 2509 2650 2509 2202 
C 1030 2035 378 1658 378 902 
C 378 275 806 -83 1389 -83 
z
M 1555 390 
C 1210 390 941 544 941 941 
C 941 1389 1338 1677 2509 1811 
L 2509 845 
C 2170 544 1888 390 1555 390 
z
" transform="scale(0.015625)"/>
       <path id="NotoSansCJKsc-Regular-64" d="M 1773 -83 
C 2189 -83 2560 141 2829 410 
L 2848 410 
L 2899 0 
L 3379 0 
L 3379 5094 
L 2790 5094 
L 2790 3757 
L 2822 3162 
C 2515 3411 2253 3565 1843 3565 
C 1050 3565 339 2861 339 1734 
C 339 576 902 -83 1773 -83 
z
M 1901 410 
C 1293 410 941 902 941 1741 
C 941 2534 1389 3072 1946 3072 
C 2234 3072 2502 2970 2790 2707 
L 2790 883 
C 2502 563 2221 410 1901 410 
z
" transform="scale(0.015625)"/>
       <path id="NotoSansCJKsc-Regular-20" transform="scale(0.015625)"/>
       <path id="NotoSansCJKsc-Regular-28" d="M 1530 -1254 
L 1888 -1094 
C 1338 -186 1075 902 1075 1990 
C 1075 3072 1338 4154 1888 5069 
L 1530 5235 
C 941 4275 589 3245 589 1990 
C 589 730 941 -301 1530 -1254 
z
" transform="scale(0.015625)"/>
       <path id="NotoSansCJKsc-Regular-68" d="M 589 0 
L 1178 0 
L 1178 2522 
C 1523 2874 1766 3053 2125 3053 
C 2586 3053 2784 2778 2784 2125 
L 2784 0 
L 3366 0 
L 3366 2202 
C 3366 3085 3034 3565 2304 3565 
C 1830 3565 1472 3302 1152 2982 
L 1178 3699 
L 1178 5094 
L 589 5094 
L 589 0 
z
" transform="scale(0.015625)"/>
       <path id="NotoSansCJKsc-Regular-73" d="M 1498 -83 
C 2317 -83 2758 384 2758 947 
C 2758 1606 2208 1811 1702 2003 
C 1312 2150 954 2278 954 2605 
C 954 2880 1158 3110 1600 3110 
C 1907 3110 2150 2976 2387 2803 
L 2669 3168 
C 2406 3386 2022 3565 1594 3565 
C 832 3565 397 3130 397 2579 
C 397 1984 922 1754 1408 1574 
C 1792 1434 2202 1267 2202 915 
C 2202 614 1978 371 1517 371 
C 1101 371 794 538 486 787 
L 205 397 
C 531 122 1005 -83 1498 -83 
z
" transform="scale(0.015625)"/>
       <path id="NotoSansCJKsc-Regular-29" d="M 634 -1254 
C 1222 -301 1574 730 1574 1990 
C 1574 3245 1222 4275 634 5235 
L 269 5069 
C 819 4154 1094 3072 1094 1990 
C 1094 902 819 -186 269 -1094 
L 634 -1254 
z
" transform="scale(0.015625)"/>
      </defs>
      <use xlink:href="#NotoSansCJKsc-Regular-54"/>
      <use xlink:href="#NotoSansCJKsc-Regular-75" transform="translate(59.899994 0)"/>
      <use xlink:href="#NotoSansCJKsc-Regular-72" transform="translate(120.599991 0)"/>
      <use xlink:href="#NotoSansCJKsc-Regular-6e" transform="translate(159.399979 0)"/>
      <use xlink:href="#NotoSansCJKsc-Regular-61" transform="translate(220.399963 0)"/>
      <use xlink:href="#NotoSansCJKsc-Regular-72" transform="translate(276.699951 0)"/>
      <use xlink:href="#NotoSansCJKsc-Regular-6f" transform="translate(315.499939 0)"/>
      <use xlink:href="#NotoSansCJKsc-Regular-75" transform="translate(376.09993 0)"/>
      <use xlink:href="#NotoSansCJKsc-Regular-6e" transform="translate(436.799927 0)"/>
      <use xlink:href="#NotoSansCJKsc-Regular-64" transform="translate(497.799911 0)"/>
      <use xlink:href="#NotoSansCJKsc-Regular-20" transform="translate(559.799896 0)"/>
      <use xlink:href="#NotoSansCJKsc-Regular-28" transform="translate(582.19989 0)"/>
      <use xlink:href="#NotoSansCJKsc-Regular-68" transform="translate(615.999878 0)"/>
      <use xlink:href="#NotoSansCJKsc-Regular-6f" transform="translate(676.699875 0)"/>
      <use xlink:href="#NotoSansCJKsc-Regular-75" transform="translate(737.299866 0)"/>
      <use xlink:href="#NotoSansCJKsc-Regular-72" transform="translate(797.999863 0)"/>
      <use xlink:href="#NotoSansCJKsc-Regular-73" transform="translate(836.79985 0)"/>
      <use xlink:href="#NotoSansCJKsc-Regular-29" transform="translate(883.599838 0)"/>
     </g>
    </g>
   </g>
   <g id="patch_3">
    <path d="M 52.616 288.668 
L 52.616 75.372 
" style="fill: none; stroke: #94a3b8; stroke-width: 0.8; stroke-linejoin: miter; stroke-linecap: square"/>
   </g>
   <g id="patch_4">
    <path d="M 52.616 288.668 
L 257.031 288.668 
" style="fill: none; stroke: #94a3b8; stroke-width: 0.8; stroke-linejoin: miter; stroke-linecap: square"/>
   </g>
   <g id="patch_5">
    <path d="M 61.907591 288.668 
L 127.847913 288.668 
L 127.847913 91.779385 
L 61.907591 91.779385 
z
" clip-path="url(#p9f801190e4)" style="fill: #94a3b8"/>
   </g>
   <g id="patch_6">
    <path d="M 181.799087 288.668 
L 247.739409 288.668 
L 247.739409 285.386523 
L 181.799087 285.386523 
z
" clip-path="url(#p9f801190e4)" style="fill: #2563eb"/>
   </g>
   <g id="text_11">
    <!-- 120 -->
    <g style="fill: #0f172a" transform="translate(86.647252 89.779885) scale(0.093 -0.093)">
     <defs>
      <path id="NotoSansCJKsc-Bold-31" d="M 525 0 
L 3373 0 
L 3373 768 
L 2483 768 
L 2483 4742 
L 1786 4742 
C 1485 4550 1165 4429 685 4346 
L 685 3757 
L 1549 3757 
L 1549 768 
L 525 768 
L 525 0 
z
" transform="scale(0.015625)"/>
      <path id="NotoSansCJKsc-Bold-32" d="M 275 0 
L 3450 0 
L 3450 794 
L 2426 794 
C 2202 794 1888 768 1645 736 
C 2509 1587 3226 2509 3226 3366 
C 3226 4250 2630 4826 1734 4826 
C 1088 4826 666 4576 224 4102 
L 749 3597 
C 986 3859 1267 4083 1613 4083 
C 2067 4083 2323 3789 2323 3322 
C 2323 2586 1568 1696 275 544 
L 275 0 
z
" transform="scale(0.015625)"/>
      <path id="NotoSansCJKsc-Bold-30" d="M 1888 -90 
C 2854 -90 3494 755 3494 2394 
C 3494 4019 2854 4826 1888 4826 
C 922 4826 282 4026 282 2394 
C 282 755 922 -90 1888 -90 
z
M 1888 646 
C 1478 646 1171 1056 1171 2394 
C 1171 3712 1478 4102 1888 4102 
C 2298 4102 2598 3712 2598 2394 
C 2598 1056 2298 646 1888 646 
z
" transform="scale(0.015625)"/>
     </defs>
     <use xlink:href="#NotoSansCJKsc-Bold-31"/>
     <use xlink:href="#NotoSansCJKsc-Bold-32" transform="translate(58.999985 0)"/>
     <use xlink:href="#NotoSansCJKsc-Bold-30" transform="translate(117.999969 0)"/>
    </g>
   </g>
   <g id="text_12">
    <!-- 2 -->
    <g style="fill: #0f172a" transform="translate(212.025748 283.387023) scale(0.093 -0.093)">
     <use xlink:href="#NotoSansCJKsc-Bold-32"/>
    </g>
   </g>
   <g id="text_13">
    <!-- Time-to-label -->
    <g style="fill: #475569" transform="translate(119.985297 69.372) scale(0.11 -0.11)">
     <defs>
      <path id="NotoSansCJKsc-Regular-69" d="M 589 0 
L 1178 0 
L 1178 3475 
L 589 3475 
L 589 0 
z
M 883 4192 
C 1114 4192 1274 4346 1274 4582 
C 1274 4806 1114 4960 883 4960 
C 653 4960 499 4806 499 4582 
C 499 4346 653 4192 883 4192 
z
" transform="scale(0.015625)"/>
      <path id="NotoSansCJKsc-Regular-6d" d="M 589 0 
L 1178 0 
L 1178 2522 
C 1491 2880 1786 3053 2048 3053 
C 2490 3053 2694 2778 2694 2125 
L 2694 0 
L 3277 0 
L 3277 2522 
C 3603 2880 3885 3053 4154 3053 
C 4595 3053 4800 2778 4800 2125 
L 4800 0 
L 5382 0 
L 5382 2202 
C 5382 3085 5043 3565 4333 3565 
C 3904 3565 3546 3290 3181 2899 
C 3040 3309 2758 3565 2221 3565 
C 1805 3565 1446 3302 1139 2970 
L 1126 2970 
L 1069 3475 
L 589 3475 
L 589 0 
z
" transform="scale(0.015625)"/>
      <path id="NotoSansCJKsc-Regular-2d" d="M 294 1568 
L 1933 1568 
L 1933 2016 
L 294 2016 
L 294 1568 
z
" transform="scale(0.015625)"/>
      <path id="NotoSansCJKsc-Regular-6c" d="M 1203 -83 
C 1363 -83 1459 -58 1542 -32 
L 1459 416 
C 1395 403 1370 403 1338 403 
C 1248 403 1178 474 1178 653 
L 1178 5094 
L 589 5094 
L 589 691 
C 589 198 768 -83 1203 -83 
z
" transform="scale(0.015625)"/>
      <path id="NotoSansCJKsc-Regular-62" d="M 2118 -83 
C 2912 -83 3629 602 3629 1792 
C 3629 2867 3142 3565 2246 3565 
C 1856 3565 1472 3347 1152 3078 
L 1178 3699 
L 1178 5094 
L 589 5094 
L 589 0 
L 1056 0 
L 1107 358 
L 1133 358 
C 1434 83 1798 -83 2118 -83 
z
M 2022 410 
C 1792 410 1478 499 1178 768 
L 1178 2598 
C 1504 2906 1811 3072 2099 3072 
C 2765 3072 3021 2560 3021 1786 
C 3021 928 2598 410 2022 410 
z
" transform="scale(0.015625)"/>
     </defs>
     <use xlink:href="#NotoSansCJKsc-Regular-54"/>
     <use xlink:href="#NotoSansCJKsc-Regular-69" transform="translate(59.899994 0)"/>
     <use xlink:href="#NotoSansCJKsc-Regular-6d" transform="translate(87.399979 0)"/>
     <use xlink:href="#NotoSansCJKsc-Regular-65" transform="translate(179.999969 0)"/>
     <use xlink:href="#NotoSansCJKsc-Regular-2d" transform="translate(235.399963 0)"/>
     <use xlink:href="#NotoSansCJKsc-Regular-74" transform="translate(270.09996 0)"/>
     <use xlink:href="#NotoSansCJKsc-Regular-6f" transform="translate(307.799957 0)"/>
     <use xlink:href="#NotoSansCJKsc-Regular-2d" transform="translate(368.399948 0)"/>
     <use xlink:href="#NotoSansCJKsc-Regular-6c" transform="translate(403.099945 0)"/>
     <use xlink:href="#NotoSansCJKsc-Regular-61" transform="translate(431.499939 0)"/>
     <use xlink:href="#NotoSansCJKsc-Regular-62" transform="translate(487.799927 0)"/>
     <use xlink:href="#NotoSansCJKsc-Regular-65" transform="translate(549.599915 0)"/>
     <use xlink:href="#NotoSansCJKsc-Regular-6c" transform="translate(604.999908 0)"/>
    </g>
   </g>
  </g>
  <g id="axes_2">
   <g id="patch_7">
    <path d="M 313.7285 288.668 
L 518.1435 288.668 
L 518.1435 75.372 
L 313.7285 75.372 
z
" style="fill: #ffffff"/>
   </g>
   <g id="matplotlib.axis_3">
    <g id="xtick_3">
     <g id="line2d_17">
      <g>
       <use xlink:href="#me7dab4980c" x="355.990252" y="288.668" style="fill: #475569; stroke: #475569; stroke-width: 0.8"/>
      </g>
     </g>
     <g id="text_14">
      <!-- Compute -->
      <g style="fill: #475569" transform="translate(332.186424 304.423312) scale(0.11 -0.11)">
       <defs>
        <path id="NotoSansCJKsc-Regular-43" d="M 2413 -83 
C 3021 -83 3482 160 3853 589 
L 3526 966 
C 3226 634 2886 435 2438 435 
C 1542 435 979 1178 979 2362 
C 979 3533 1574 4256 2458 4256 
C 2861 4256 3168 4077 3418 3814 
L 3738 4198 
C 3469 4499 3021 4774 2451 4774 
C 1261 4774 371 3859 371 2342 
C 371 819 1242 -83 2413 -83 
z
" transform="scale(0.015625)"/>
        <path id="NotoSansCJKsc-Regular-70" d="M 589 -1466 
L 1178 -1466 
L 1178 -288 
L 1158 320 
C 1472 58 1805 -83 2118 -83 
C 2912 -83 3629 602 3629 1792 
C 3629 2867 3142 3565 2246 3565 
C 1843 3565 1453 3334 1139 3072 
L 1126 3072 
L 1069 3475 
L 589 3475 
L 589 -1466 
z
M 2022 410 
C 1792 410 1485 499 1178 768 
L 1178 2598 
C 1510 2906 1811 3072 2099 3072 
C 2765 3072 3021 2560 3021 1786 
C 3021 928 2598 410 2022 410 
z
" transform="scale(0.015625)"/>
       </defs>
       <use xlink:href="#NotoSansCJKsc-Regular-43"/>
       <use xlink:href="#NotoSansCJKsc-Regular-6f" transform="translate(63.799988 0)"/>
       <use xlink:href="#NotoSansCJKsc-Regular-6d" transform="translate(124.399979 0)"/>
       <use xlink:href="#NotoSansCJKsc-Regular-70" transform="translate(216.999969 0)"/>
       <use xlink:href="#NotoSansCJKsc-Regular-75" transform="translate(278.999954 0)"/>
       <use xlink:href="#NotoSansCJKsc-Regular-74" transform="translate(339.699951 0)"/>
       <use xlink:href="#NotoSansCJKsc-Regular-65" transform="translate(377.399948 0)"/>
      </g>
     </g>
    </g>
    <g id="xtick_4">
     <g id="line2d_18">
      <g>
       <use xlink:href="#me7dab4980c" x="475.881748" y="288.668" style="fill: #475569; stroke: #475569; stroke-width: 0.8"/>
      </g>
     </g>
     <g id="text_15">
      <!-- Cascade -->
      <g style="fill: #475569" transform="translate(454.344092 304.423312) scale(0.11 -0.11)">
       <defs>
        <path id="NotoSansCJKsc-Regular-63" d="M 1958 -83 
C 2374 -83 2771 83 3085 352 
L 2829 749 
C 2611 557 2330 403 2010 403 
C 1370 403 934 934 934 1734 
C 934 2534 1395 3072 2029 3072 
C 2298 3072 2522 2950 2720 2771 
L 3014 3155 
C 2771 3373 2458 3565 2003 3565 
C 1107 3565 333 2893 333 1734 
C 333 582 1037 -83 1958 -83 
z
" transform="scale(0.015625)"/>
       </defs>
       <use xlink:href="#NotoSansCJKsc-Regular-43"/>
       <use xlink:href="#NotoSansCJKsc-Regular-61" transform="translate(63.799988 0)"/>
       <use xlink:href="#NotoSansCJKsc-Regular-73" transform="translate(120.099976 0)"/>
       <use xlink:href="#NotoSansCJKsc-Regular-63" transform="translate(166.899963 0)"/>
       <use xlink:href="#NotoSansCJKsc-Regular-61" transform="translate(217.899948 0)"/>
       <use xlink:href="#NotoSansCJKsc-Regular-64" transform="translate(274.199936 0)"/>
       <use xlink:href="#NotoSansCJKsc-Regular-65" transform="translate(336.199921 0)"/>
      </g>
     </g>
    </g>
   </g>
   <g id="matplotlib.axis_4">
    <g id="ytick_8">
     <g id="line2d_19">
      <path d="M 313.7285 288.668 
L 518.1435 288.668 
" clip-path="url(#padc111a336)" style="fill: none; stroke: #e5e7eb; stroke-width: 0.8; stroke-linecap: square"/>
     </g>
     <g id="line2d_20">
      <g>
       <use xlink:href="#m1e43bef680" x="313.7285" y="288.668" style="fill: #475569; stroke: #475569; stroke-width: 0.8"/>
      </g>
     </g>
     <g id="text_16">
      <!-- 0.0 -->
      <g style="fill: #475569" transform="translate(291.460844 293.045656) scale(0.11 -0.11)">
       <defs>
        <path id="NotoSansCJKsc-Regular-2e" d="M 890 -83 
C 1120 -83 1312 96 1312 358 
C 1312 627 1120 806 890 806 
C 653 806 467 627 467 358 
C 467 96 653 -83 890 -83 
z
" transform="scale(0.015625)"/>
       </defs>
       <use xlink:href="#NotoSansCJKsc-Regular-30"/>
       <use xlink:href="#NotoSansCJKsc-Regular-2e" transform="translate(55.499985 0)"/>
       <use xlink:href="#NotoSansCJKsc-Regular-30" transform="translate(83.299973 0)"/>
      </g>
     </g>
    </g>
    <g id="ytick_9">
     <g id="line2d_21">
      <path d="M 313.7285 253.118667 
L 518.1435 253.118667 
" clip-path="url(#padc111a336)" style="fill: none; stroke: #e5e7eb; stroke-width: 0.8; stroke-linecap: square"/>
     </g>
     <g id="line2d_22">
      <g>
       <use xlink:href="#m1e43bef680" x="313.7285" y="253.118667" style="fill: #475569; stroke: #475569; stroke-width: 0.8"/>
      </g>
     </g>
     <g id="text_17">
      <!-- 0.2 -->
      <g style="fill: #475569" transform="translate(291.460844 257.496323) scale(0.11 -0.11)">
       <use xlink:href="#NotoSansCJKsc-Regular-30"/>
       <use xlink:href="#NotoSansCJKsc-Regular-2e" transform="translate(55.499985 0)"/>
       <use xlink:href="#NotoSansCJKsc-Regular-32" transform="translate(83.299973 0)"/>
      </g>
     </g>
    </g>
    <g id="ytick_10">
     <g id="line2d_23">
      <path d="M 313.7285 217.569333 
L 518.1435 217.569333 
" clip-path="url(#padc111a336)" style="fill: none; stroke: #e5e7eb; stroke-width: 0.8; stroke-linecap: square"/>
     </g>
     <g id="line2d_24">
      <g>
       <use xlink:href="#m1e43bef680" x="313.7285" y="217.569333" style="fill: #475569; stroke: #475569; stroke-width: 0.8"/>
      </g>
     </g>
     <g id="text_18">
      <!-- 0.4 -->
      <g style="fill: #475569" transform="translate(291.460844 221.94699) scale(0.11 -0.11)">
       <use xlink:href="#NotoSansCJKsc-Regular-30"/>
       <use xlink:href="#NotoSansCJKsc-Regular-2e" transform="translate(55.499985 0)"/>
       <use xlink:href="#NotoSansCJKsc-Regular-34" transform="translate(83.299973 0)"/>
      </g>
     </g>
    </g>
    <g id="ytick_11">
     <g id="line2d_25">
      <path d="M 313.7285 182.02 
L 518.1435 182.02 
" clip-path="url(#padc111a336)" style="fill: none; stroke: #e5e7eb; stroke-width: 0.8; stroke-linecap: square"/>
     </g>
     <g id="line2d_26">
      <g>
       <use xlink:href="#m1e43bef680" x="313.7285" y="182.02" style="fill: #475569; stroke: #475569; stroke-width: 0.8"/>
      </g>
     </g>
     <g id="text_19">
      <!-- 0.6 -->
      <g style="fill: #475569" transform="translate(291.460844 186.397656) scale(0.11 -0.11)">
       <use xlink:href="#NotoSansCJKsc-Regular-30"/>
       <use xlink:href="#NotoSansCJKsc-Regular-2e" transform="translate(55.499985 0)"/>
       <use xlink:href="#NotoSansCJKsc-Regular-36" transform="translate(83.299973 0)"/>
      </g>
     </g>
    </g>
    <g id="ytick_12">
     <g id="line2d_27">
      <path d="M 313.7285 146.470667 
L 518.1435 146.470667 
" clip-path="url(#padc111a336)" style="fill: none; stroke: #e5e7eb; stroke-width: 0.8; stroke-linecap: square"/>
     </g>
     <g id="line2d_28">
      <g>
       <use xlink:href="#m1e43bef680" x="313.7285" y="146.470667" style="fill: #475569; stroke: #475569; stroke-width: 0.8"/>
      </g>
     </g>
     <g id="text_20">
      <!-- 0.8 -->
      <g style="fill: #475569" transform="translate(291.460844 150.848323) scale(0.11 -0.11)">
       <use xlink:href="#NotoSansCJKsc-Regular-30"/>
       <use xlink:href="#NotoSansCJKsc-Regular-2e" transform="translate(55.499985 0)"/>
       <use xlink:href="#NotoSansCJKsc-Regular-38" transform="translate(83.299973 0)"/>
      </g>
     </g>
    </g>
    <g id="ytick_13">
     <g id="line2d_29">
      <path d="M 313.7285 110.921333 
L 518.1435 110.921333 
" clip-path="url(#padc111a336)" style="fill: none; stroke: #e5e7eb; stroke-width: 0.8; stroke-linecap: square"/>
     </g>
     <g id="line2d_30">
      <g>
       <use xlink:href="#m1e43bef680" x="313.7285" y="110.921333" style="fill: #475569; stroke: #475569; stroke-width: 0.8"/>
      </g>
     </g>
     <g id="text_21">
      <!-- 1.0 -->
      <g style="fill: #475569" transform="translate(291.460844 115.29899) scale(0.11 -0.11)">
       <use xlink:href="#NotoSansCJKsc-Regular-31"/>
       <use xlink:href="#NotoSansCJKsc-Regular-2e" transform="translate(55.499985 0)"/>
       <use xlink:href="#NotoSansCJKsc-Regular-30" transform="translate(83.299973 0)"/>
      </g>
     </g>
    </g>
    <g id="ytick_14">
     <g id="line2d_31">
      <path d="M 313.7285 75.372 
L 518.1435 75.372 
" clip-path="url(#padc111a336)" style="fill: none; stroke: #e5e7eb; stroke-width: 0.8; stroke-linecap: square"/>
     </g>
     <g id="line2d_32">
      <g>
       <use xlink:href="#m1e43bef680" x="313.7285" y="75.372" style="fill: #475569; stroke: #475569; stroke-width: 0.8"/>
      </g>
     </g>
     <g id="text_22">
      <!-- 1.2 -->
      <g style="fill: #475569" transform="translate(291.460844 79.749656) scale(0.11 -0.11)">
       <use xlink:href="#NotoSansCJKsc-Regular-31"/>
       <use xlink:href="#NotoSansCJKsc-Regular-2e" transform="translate(55.499985 0)"/>
       <use xlink:href="#NotoSansCJKsc-Regular-32" transform="translate(83.299973 0)"/>
      </g>
     </g>
    </g>
    <g id="text_23">
     <!-- Relative cost -->
     <g style="fill: #0f172a" transform="translate(284.941156 214.734687) rotate(-90) scale(0.11 -0.11)">
      <defs>
       <path id="NotoSansCJKsc-Regular-52" d="M 1235 2464 
L 1235 4211 
L 2022 4211 
C 2758 4211 3162 3994 3162 3379 
C 3162 2765 2758 2464 2022 2464 
L 1235 2464 
z
M 3219 0 
L 3885 0 
L 2694 2054 
C 3328 2208 3750 2643 3750 3379 
C 3750 4352 3066 4691 2112 4691 
L 646 4691 
L 646 0 
L 1235 0 
L 1235 1990 
L 2080 1990 
L 3219 0 
z
" transform="scale(0.015625)"/>
       <path id="NotoSansCJKsc-Regular-76" d="M 1338 0 
L 2022 0 
L 3251 3475 
L 2675 3475 
L 2016 1498 
C 1914 1158 1798 806 1696 474 
L 1664 474 
C 1562 806 1453 1158 1344 1498 
L 691 3475 
L 83 3475 
L 1338 0 
z
" transform="scale(0.015625)"/>
      </defs>
      <use xlink:href="#NotoSansCJKsc-Regular-52"/>
      <use xlink:href="#NotoSansCJKsc-Regular-65" transform="translate(63.499985 0)"/>
      <use xlink:href="#NotoSansCJKsc-Regular-6c" transform="translate(118.899979 0)"/>
      <use xlink:href="#NotoSansCJKsc-Regular-61" transform="translate(147.299973 0)"/>
      <use xlink:href="#NotoSansCJKsc-Regular-74" transform="translate(203.59996 0)"/>
      <use xlink:href="#NotoSansCJKsc-Regular-69" transform="translate(241.299957 0)"/>
      <use xlink:href="#NotoSansCJKsc-Regular-76" transform="translate(268.799942 0)"/>
      <use xlink:href="#NotoSansCJKsc-Regular-65" transform="translate(320.899933 0)"/>
      <use xlink:href="#NotoSansCJKsc-Regular-20" transform="translate(376.299927 0)"/>
      <use xlink:href="#NotoSansCJKsc-Regular-63" transform="translate(398.699921 0)"/>
      <use xlink:href="#NotoSansCJKsc-Regular-6f" transform="translate(449.699905 0)"/>
      <use xlink:href="#NotoSansCJKsc-Regular-73" transform="translate(510.299896 0)"/>
      <use xlink:href="#NotoSansCJKsc-Regular-74" transform="translate(557.099884 0)"/>
     </g>
    </g>
   </g>
   <g id="patch_8">
    <path d="M 313.7285 288.668 
L 313.7285 75.372 
" style="fill: none; stroke: #94a3b8; stroke-width: 0.8; stroke-linejoin: miter; stroke-linecap: square"/>
   </g>
   <g id="patch_9">
    <path d="M 313.7285 288.668 
L 518.1435 288.668 
" style="fill: none; stroke: #94a3b8; stroke-width: 0.8; stroke-linejoin: miter; stroke-linecap: square"/>
   </g>
   <g id="patch_10">
    <path d="M 323.020091 288.668 
L 388.960413 288.668 
L 388.960413 110.921333 
L 323.020091 110.921333 
z
" clip-path="url(#padc111a336)" style="fill: #94a3b8"/>
   </g>
   <g id="patch_11">
    <path d="M 442.911587 288.668 
L 508.851909 288.668 
L 508.851909 199.794667 
L 442.911587 199.794667 
z
" clip-path="url(#padc111a336)" style="fill: #d97706"/>
   </g>
   <g id="text_24">
    <!-- 1.00 -->
    <g style="fill: #0f172a" transform="translate(346.248502 108.921833) scale(0.093 -0.093)">
     <defs>
      <path id="NotoSansCJKsc-Bold-2e" d="M 1043 -90 
C 1376 -90 1626 179 1626 525 
C 1626 877 1376 1139 1043 1139 
C 704 1139 454 877 454 525 
C 454 179 704 -90 1043 -90 
z
" transform="scale(0.015625)"/>
     </defs>
     <use xlink:href="#NotoSansCJKsc-Bold-31"/>
     <use xlink:href="#NotoSansCJKsc-Bold-2e" transform="translate(58.999985 0)"/>
     <use xlink:href="#NotoSansCJKsc-Bold-30" transform="translate(91.499969 0)"/>
     <use xlink:href="#NotoSansCJKsc-Bold-30" transform="translate(150.499954 0)"/>
    </g>
   </g>
   <g id="text_25">
    <!-- 0.50 -->
    <g style="fill: #0f172a" transform="translate(466.139998 197.795167) scale(0.093 -0.093)">
     <defs>
      <path id="NotoSansCJKsc-Bold-35" d="M 1773 -90 
C 2637 -90 3424 518 3424 1574 
C 3424 2605 2765 3072 1965 3072 
C 1747 3072 1581 3034 1395 2944 
L 1485 3949 
L 3206 3949 
L 3206 4742 
L 672 4742 
L 544 2438 
L 973 2163 
C 1254 2342 1408 2406 1683 2406 
C 2157 2406 2483 2099 2483 1549 
C 2483 992 2138 678 1645 678 
C 1210 678 870 896 602 1158 
L 166 557 
C 525 205 1018 -90 1773 -90 
z
" transform="scale(0.015625)"/>
     </defs>
     <use xlink:href="#NotoSansCJKsc-Bold-30"/>
     <use xlink:href="#NotoSansCJKsc-Bold-2e" transform="translate(58.999985 0)"/>
     <use xlink:href="#NotoSansCJKsc-Bold-35" transform="translate(91.499969 0)"/>
     <use xlink:href="#NotoSansCJKsc-Bold-30" transform="translate(150.499954 0)"/>
    </g>
   </g>
   <g id="text_26">
    <!-- Cost reduction -->
    <g style="fill: #475569" transform="translate(378.206 69.372) scale(0.11 -0.11)">
     <use xlink:href="#NotoSansCJKsc-Regular-43"/>
     <use xlink:href="#NotoSansCJKsc-Regular-6f" transform="translate(63.799988 0)"/>
     <use xlink:href="#NotoSansCJKsc-Regular-73" transform="translate(124.399979 0)"/>
     <use xlink:href="#NotoSansCJKsc-Regular-74" transform="translate(171.199966 0)"/>
     <use xlink:href="#NotoSansCJKsc-Regular-20" transform="translate(208.899963 0)"/>
     <use xlink:href="#NotoSansCJKsc-Regular-72" transform="translate(231.299957 0)"/>
     <use xlink:href="#NotoSansCJKsc-Regular-65" transform="translate(270.099945 0)"/>
     <use xlink:href="#NotoSansCJKsc-Regular-64" transform="translate(325.499939 0)"/>
     <use xlink:href="#NotoSansCJKsc-Regular-75" transform="translate(387.499924 0)"/>
     <use xlink:href="#NotoSansCJKsc-Regular-63" transform="translate(448.199921 0)"/>
     <use xlink:href="#NotoSansCJKsc-Regular-74" transform="translate(499.199905 0)"/>
     <use xlink:href="#NotoSansCJKsc-Regular-69" transform="translate(536.899902 0)"/>
     <use xlink:href="#NotoSansCJKsc-Regular-6f" transform="translate(564.399887 0)"/>
     <use xlink:href="#NotoSansCJKsc-Regular-6e" transform="translate(624.999878 0)"/>
    </g>
   </g>
  </g>
  <g id="axes_3">
   <g id="patch_12">
    <path d="M 574.841 288.668 
L 779.256 288.668 
L 779.256 75.372 
L 574.841 75.372 
z
" style="fill: #ffffff"/>
   </g>
   <g id="matplotlib.axis_5">
    <g id="xtick_5">
     <g id="line2d_33">
      <g>
       <use xlink:href="#me7dab4980c" x="617.102752" y="288.668" style="fill: #475569; stroke: #475569; stroke-width: 0.8"/>
      </g>
     </g>
     <g id="text_27">
      <!-- +FT -->
      <g style="fill: #475569" transform="translate(607.719237 304.423312) scale(0.11 -0.11)">
       <defs>
        <path id="NotoSansCJKsc-Regular-2b" d="M 1542 742 
L 2010 742 
L 2010 2144 
L 3315 2144 
L 3315 2579 
L 2010 2579 
L 2010 3981 
L 1542 3981 
L 1542 2579 
L 243 2579 
L 243 2144 
L 1542 2144 
L 1542 742 
z
" transform="scale(0.015625)"/>
        <path id="NotoSansCJKsc-Regular-46" d="M 646 0 
L 1235 0 
L 1235 2106 
L 3027 2106 
L 3027 2605 
L 1235 2605 
L 1235 4192 
L 3347 4192 
L 3347 4691 
L 646 4691 
L 646 0 
z
" transform="scale(0.015625)"/>
       </defs>
       <use xlink:href="#NotoSansCJKsc-Regular-2b"/>
       <use xlink:href="#NotoSansCJKsc-Regular-46" transform="translate(55.499985 0)"/>
       <use xlink:href="#NotoSansCJKsc-Regular-54" transform="translate(110.699982 0)"/>
      </g>
     </g>
    </g>
    <g id="xtick_6">
     <g id="line2d_34">
      <g>
       <use xlink:href="#me7dab4980c" x="736.994248" y="288.668" style="fill: #475569; stroke: #475569; stroke-width: 0.8"/>
      </g>
     </g>
     <g id="text_28">
      <!-- +Calib -->
      <g style="fill: #475569" transform="translate(720.86292 304.423312) scale(0.11 -0.11)">
       <use xlink:href="#NotoSansCJKsc-Regular-2b"/>
       <use xlink:href="#NotoSansCJKsc-Regular-43" transform="translate(55.499985 0)"/>
       <use xlink:href="#NotoSansCJKsc-Regular-61" transform="translate(119.299973 0)"/>
       <use xlink:href="#NotoSansCJKsc-Regular-6c" transform="translate(175.59996 0)"/>
       <use xlink:href="#NotoSansCJKsc-Regular-69" transform="translate(203.999954 0)"/>
       <use xlink:href="#NotoSansCJKsc-Regular-62" transform="translate(231.499939 0)"/>
      </g>
     </g>
    </g>
   </g>
   <g id="matplotlib.axis_6">
    <g id="ytick_15">
     <g id="line2d_35">
      <path d="M 574.841 288.668 
L 779.256 288.668 
" clip-path="url(#p7e113bc5ef)" style="fill: none; stroke: #e5e7eb; stroke-width: 0.8; stroke-linecap: square"/>
     </g>
     <g id="line2d_36">
      <g>
       <use xlink:href="#m1e43bef680" x="574.841" y="288.668" style="fill: #475569; stroke: #475569; stroke-width: 0.8"/>
      </g>
     </g>
     <g id="text_29">
      <!-- 0.0 -->
      <g style="fill: #475569" transform="translate(552.573344 293.045656) scale(0.11 -0.11)">
       <use xlink:href="#NotoSansCJKsc-Regular-30"/>
       <use xlink:href="#NotoSansCJKsc-Regular-2e" transform="translate(55.499985 0)"/>
       <use xlink:href="#NotoSansCJKsc-Regular-30" transform="translate(83.299973 0)"/>
      </g>
     </g>
    </g>
    <g id="ytick_16">
     <g id="line2d_37">
      <path d="M 574.841 264.429818 
L 779.256 264.429818 
" clip-path="url(#p7e113bc5ef)" style="fill: none; stroke: #e5e7eb; stroke-width: 0.8; stroke-linecap: square"/>
     </g>
     <g id="line2d_38">
      <g>
       <use xlink:href="#m1e43bef680" x="574.841" y="264.429818" style="fill: #475569; stroke: #475569; stroke-width: 0.8"/>
      </g>
     </g>
     <g id="text_30">
      <!-- 2.5 -->
      <g style="fill: #475569" transform="translate(552.573344 268.807474) scale(0.11 -0.11)">
       <defs>
        <path id="NotoSansCJKsc-Regular-35" d="M 1677 -83 
C 2464 -83 3213 499 3213 1523 
C 3213 2560 2573 3021 1798 3021 
C 1517 3021 1306 2950 1094 2835 
L 1216 4192 
L 2982 4192 
L 2982 4691 
L 704 4691 
L 550 2502 
L 864 2304 
C 1133 2483 1331 2579 1645 2579 
C 2234 2579 2618 2182 2618 1510 
C 2618 826 2176 403 1619 403 
C 1075 403 730 653 467 922 
L 173 538 
C 493 224 941 -83 1677 -83 
z
" transform="scale(0.015625)"/>
       </defs>
       <use xlink:href="#NotoSansCJKsc-Regular-32"/>
       <use xlink:href="#NotoSansCJKsc-Regular-2e" transform="translate(55.499985 0)"/>
       <use xlink:href="#NotoSansCJKsc-Regular-35" transform="translate(83.299973 0)"/>
      </g>
     </g>
    </g>
    <g id="ytick_17">
     <g id="line2d_39">
      <path d="M 574.841 240.191636 
L 779.256 240.191636 
" clip-path="url(#p7e113bc5ef)" style="fill: none; stroke: #e5e7eb; stroke-width: 0.8; stroke-linecap: square"/>
     </g>
     <g id="line2d_40">
      <g>
       <use xlink:href="#m1e43bef680" x="574.841" y="240.191636" style="fill: #475569; stroke: #475569; stroke-width: 0.8"/>
      </g>
     </g>
     <g id="text_31">
      <!-- 5.0 -->
      <g style="fill: #475569" transform="translate(552.573344 244.569293) scale(0.11 -0.11)">
       <use xlink:href="#NotoSansCJKsc-Regular-35"/>
       <use xlink:href="#NotoSansCJKsc-Regular-2e" transform="translate(55.499985 0)"/>
       <use xlink:href="#NotoSansCJKsc-Regular-30" transform="translate(83.299973 0)"/>
      </g>
     </g>
    </g>
    <g id="ytick_18">
     <g id="line2d_41">
      <path d="M 574.841 215.953455 
L 779.256 215.953455 
" clip-path="url(#p7e113bc5ef)" style="fill: none; stroke: #e5e7eb; stroke-width: 0.8; stroke-linecap: square"/>
     </g>
     <g id="line2d_42">
      <g>
       <use xlink:href="#m1e43bef680" x="574.841" y="215.953455" style="fill: #475569; stroke: #475569; stroke-width: 0.8"/>
      </g>
     </g>
     <g id="text_32">
      <!-- 7.5 -->
      <g style="fill: #475569" transform="translate(552.573344 220.331111) scale(0.11 -0.11)">
       <defs>
        <path id="NotoSansCJKsc-Regular-37" d="M 1267 0 
L 1875 0 
C 1952 1837 2150 2931 3251 4339 
L 3251 4691 
L 314 4691 
L 314 4192 
L 2592 4192 
C 1670 2912 1350 1779 1267 0 
z
" transform="scale(0.015625)"/>
       </defs>
       <use xlink:href="#NotoSansCJKsc-Regular-37"/>
       <use xlink:href="#NotoSansCJKsc-Regular-2e" transform="translate(55.499985 0)"/>
       <use xlink:href="#NotoSansCJKsc-Regular-35" transform="translate(83.299973 0)"/>
      </g>
     </g>
    </g>
    <g id="ytick_19">
     <g id="line2d_43">
      <path d="M 574.841 191.715273 
L 779.256 191.715273 
" clip-path="url(#p7e113bc5ef)" style="fill: none; stroke: #e5e7eb; stroke-width: 0.8; stroke-linecap: square"/>
     </g>
     <g id="line2d_44">
      <g>
       <use xlink:href="#m1e43bef680" x="574.841" y="191.715273" style="fill: #475569; stroke: #475569; stroke-width: 0.8"/>
      </g>
     </g>
     <g id="text_33">
      <!-- 10.0 -->
      <g style="fill: #475569" transform="translate(546.468344 196.092929) scale(0.11 -0.11)">
       <use xlink:href="#NotoSansCJKsc-Regular-31"/>
       <use xlink:href="#NotoSansCJKsc-Regular-30" transform="translate(55.499985 0)"/>
       <use xlink:href="#NotoSansCJKsc-Regular-2e" transform="translate(110.999969 0)"/>
       <use xlink:href="#NotoSansCJKsc-Regular-30" transform="translate(138.799957 0)"/>
      </g>
     </g>
    </g>
    <g id="ytick_20">
     <g id="line2d_45">
      <path d="M 574.841 167.477091 
L 779.256 167.477091 
" clip-path="url(#p7e113bc5ef)" style="fill: none; stroke: #e5e7eb; stroke-width: 0.8; stroke-linecap: square"/>
     </g>
     <g id="line2d_46">
      <g>
       <use xlink:href="#m1e43bef680" x="574.841" y="167.477091" style="fill: #475569; stroke: #475569; stroke-width: 0.8"/>
      </g>
     </g>
     <g id="text_34">
      <!-- 12.5 -->
      <g style="fill: #475569" transform="translate(546.468344 171.854747) scale(0.11 -0.11)">
       <use xlink:href="#NotoSansCJKsc-Regular-31"/>
       <use xlink:href="#NotoSansCJKsc-Regular-32" transform="translate(55.499985 0)"/>
       <use xlink:href="#NotoSansCJKsc-Regular-2e" transform="translate(110.999969 0)"/>
       <use xlink:href="#NotoSansCJKsc-Regular-35" transform="translate(138.799957 0)"/>
      </g>
     </g>
    </g>
    <g id="ytick_21">
     <g id="line2d_47">
      <path d="M 574.841 143.238909 
L 779.256 143.238909 
" clip-path="url(#p7e113bc5ef)" style="fill: none; stroke: #e5e7eb; stroke-width: 0.8; stroke-linecap: square"/>
     </g>
     <g id="line2d_48">
      <g>
       <use xlink:href="#m1e43bef680" x="574.841" y="143.238909" style="fill: #475569; stroke: #475569; stroke-width: 0.8"/>
      </g>
     </g>
     <g id="text_35">
      <!-- 15.0 -->
      <g style="fill: #475569" transform="translate(546.468344 147.616565) scale(0.11 -0.11)">
       <use xlink:href="#NotoSansCJKsc-Regular-31"/>
       <use xlink:href="#NotoSansCJKsc-Regular-35" transform="translate(55.499985 0)"/>
       <use xlink:href="#NotoSansCJKsc-Regular-2e" transform="translate(110.999969 0)"/>
       <use xlink:href="#NotoSansCJKsc-Regular-30" transform="translate(138.799957 0)"/>
      </g>
     </g>
    </g>
    <g id="ytick_22">
     <g id="line2d_49">
      <path d="M 574.841 119.000727 
L 779.256 119.000727 
" clip-path="url(#p7e113bc5ef)" style="fill: none; stroke: #e5e7eb; stroke-width: 0.8; stroke-linecap: square"/>
     </g>
     <g id="line2d_50">
      <g>
       <use xlink:href="#m1e43bef680" x="574.841" y="119.000727" style="fill: #475569; stroke: #475569; stroke-width: 0.8"/>
      </g>
     </g>
     <g id="text_36">
      <!-- 17.5 -->
      <g style="fill: #475569" transform="translate(546.468344 123.378384) scale(0.11 -0.11)">
       <use xlink:href="#NotoSansCJKsc-Regular-31"/>
       <use xlink:href="#NotoSansCJKsc-Regular-37" transform="translate(55.499985 0)"/>
       <use xlink:href="#NotoSansCJKsc-Regular-2e" transform="translate(110.999969 0)"/>
       <use xlink:href="#NotoSansCJKsc-Regular-35" transform="translate(138.799957 0)"/>
      </g>
     </g>
    </g>
    <g id="ytick_23">
     <g id="line2d_51">
      <path d="M 574.841 94.762545 
L 779.256 94.762545 
" clip-path="url(#p7e113bc5ef)" style="fill: none; stroke: #e5e7eb; stroke-width: 0.8; stroke-linecap: square"/>
     </g>
     <g id="line2d_52">
      <g>
       <use xlink:href="#m1e43bef680" x="574.841" y="94.762545" style="fill: #475569; stroke: #475569; stroke-width: 0.8"/>
      </g>
     </g>
     <g id="text_37">
      <!-- 20.0 -->
      <g style="fill: #475569" transform="translate(546.468344 99.140202) scale(0.11 -0.11)">
       <use xlink:href="#NotoSansCJKsc-Regular-32"/>
       <use xlink:href="#NotoSansCJKsc-Regular-30" transform="translate(55.499985 0)"/>
       <use xlink:href="#NotoSansCJKsc-Regular-2e" transform="translate(110.999969 0)"/>
       <use xlink:href="#NotoSansCJKsc-Regular-30" transform="translate(138.799957 0)"/>
      </g>
     </g>
    </g>
    <g id="text_38">
     <!-- Δ score (points) -->
     <g style="fill: #0f172a" transform="translate(539.948656 221.960312) rotate(-90) scale(0.11 -0.11)">
      <defs>
       <path id="NotoSansCJKsc-Regular-394" d="M 211 0 
L 3987 0 
L 3987 358 
L 2438 4691 
L 1766 4691 
L 211 358 
L 211 0 
z
M 851 506 
L 1587 2650 
L 2080 4160 
L 2112 4160 
L 2598 2650 
L 3334 506 
L 851 506 
z
" transform="scale(0.015625)"/>
      </defs>
      <use xlink:href="#NotoSansCJKsc-Regular-394"/>
      <use xlink:href="#NotoSansCJKsc-Regular-20" transform="translate(65.599991 0)"/>
      <use xlink:href="#NotoSansCJKsc-Regular-73" transform="translate(87.999985 0)"/>
      <use xlink:href="#NotoSansCJKsc-Regular-63" transform="translate(134.799973 0)"/>
      <use xlink:href="#NotoSansCJKsc-Regular-6f" transform="translate(185.799957 0)"/>
      <use xlink:href="#NotoSansCJKsc-Regular-72" transform="translate(246.399948 0)"/>
      <use xlink:href="#NotoSansCJKsc-Regular-65" transform="translate(285.199936 0)"/>
      <use xlink:href="#NotoSansCJKsc-Regular-20" transform="translate(340.59993 0)"/>
      <use xlink:href="#NotoSansCJKsc-Regular-28" transform="translate(362.999924 0)"/>
      <use xlink:href="#NotoSansCJKsc-Regular-70" transform="translate(396.799911 0)"/>
      <use xlink:href="#NotoSansCJKsc-Regular-6f" transform="translate(458.799896 0)"/>
      <use xlink:href="#NotoSansCJKsc-Regular-69" transform="translate(519.399887 0)"/>
      <use xlink:href="#NotoSansCJKsc-Regular-6e" transform="translate(546.899872 0)"/>
      <use xlink:href="#NotoSansCJKsc-Regular-74" transform="translate(607.899857 0)"/>
      <use xlink:href="#NotoSansCJKsc-Regular-73" transform="translate(645.599854 0)"/>
      <use xlink:href="#NotoSansCJKsc-Regular-29" transform="translate(692.399841 0)"/>
     </g>
    </g>
   </g>
   <g id="patch_13">
    <path d="M 574.841 288.668 
L 574.841 75.372 
" style="fill: none; stroke: #94a3b8; stroke-width: 0.8; stroke-linejoin: miter; stroke-linecap: square"/>
   </g>
   <g id="patch_14">
    <path d="M 574.841 288.668 
L 779.256 288.668 
" style="fill: none; stroke: #94a3b8; stroke-width: 0.8; stroke-linejoin: miter; stroke-linecap: square"/>
   </g>
   <g id="patch_15">
    <path d="M 584.132591 288.668 
L 650.072913 288.668 
L 650.072913 94.762545 
L 584.132591 94.762545 
z
" clip-path="url(#p7e113bc5ef)" style="fill: #10b981"/>
   </g>
   <g id="patch_16">
    <path d="M 704.024087 288.668 
L 769.964409 288.668 
L 769.964409 282.850836 
L 704.024087 282.850836 
z
" clip-path="url(#p7e113bc5ef)" style="fill: #0891b2"/>
   </g>
   <g id="text_39">
    <!-- 20.0 -->
    <g style="fill: #0f172a" transform="translate(607.361002 92.763045) scale(0.093 -0.093)">
     <use xlink:href="#NotoSansCJKsc-Bold-32"/>
     <use xlink:href="#NotoSansCJKsc-Bold-30" transform="translate(58.999985 0)"/>
     <use xlink:href="#NotoSansCJKsc-Bold-2e" transform="translate(117.999969 0)"/>
     <use xlink:href="#NotoSansCJKsc-Bold-30" transform="translate(150.499954 0)"/>
    </g>
   </g>
   <g id="text_40">
    <!-- 0.6 -->
    <g style="fill: #0f172a" transform="translate(729.995998 280.851336) scale(0.093 -0.093)">
     <defs>
      <path id="NotoSansCJKsc-Bold-36" d="M 2022 -90 
C 2829 -90 3507 525 3507 1498 
C 3507 2509 2938 2982 2144 2982 
C 1843 2982 1440 2803 1178 2483 
C 1222 3661 1664 4070 2214 4070 
C 2483 4070 2771 3910 2938 3725 
L 3437 4288 
C 3155 4582 2733 4826 2150 4826 
C 1197 4826 320 4070 320 2304 
C 320 640 1126 -90 2022 -90 
z
M 1197 1818 
C 1434 2176 1722 2317 1971 2317 
C 2381 2317 2650 2061 2650 1498 
C 2650 922 2362 621 2003 621 
C 1606 621 1286 954 1197 1818 
z
" transform="scale(0.015625)"/>
     </defs>
     <use xlink:href="#NotoSansCJKsc-Bold-30"/>
     <use xlink:href="#NotoSansCJKsc-Bold-2e" transform="translate(58.999985 0)"/>
     <use xlink:href="#NotoSansCJKsc-Bold-36" transform="translate(91.499969 0)"/>
    </g>
   </g>
   <g id="text_41">
    <!-- Quality gains -->
    <g style="fill: #475569" transform="translate(643.646313 69.372) scale(0.11 -0.11)">
     <defs>
      <path id="NotoSansCJKsc-Regular-51" d="M 2374 410 
C 1530 410 979 1165 979 2362 
C 979 3533 1530 4256 2374 4256 
C 3219 4256 3770 3533 3770 2362 
C 3770 1165 3219 410 2374 410 
z
M 3808 -1178 
C 4090 -1178 4339 -1133 4480 -1069 
L 4365 -614 
C 4243 -653 4083 -685 3872 -685 
C 3366 -685 2931 -474 2720 -58 
C 3712 115 4378 1011 4378 2362 
C 4378 3866 3552 4774 2374 4774 
C 1197 4774 371 3866 371 2362 
C 371 986 1062 77 2086 -64 
C 2349 -704 2944 -1178 3808 -1178 
z
" transform="scale(0.015625)"/>
      <path id="NotoSansCJKsc-Regular-79" d="M 646 -1498 
C 1338 -1498 1702 -973 1946 -294 
L 3251 3475 
L 2682 3475 
L 2054 1549 
C 1965 1235 1862 883 1773 563 
L 1741 563 
C 1619 890 1504 1242 1395 1549 
L 691 3475 
L 83 3475 
L 1478 -6 
L 1402 -269 
C 1254 -698 1011 -1018 621 -1018 
C 525 -1018 422 -986 352 -960 
L 237 -1427 
C 346 -1472 486 -1498 646 -1498 
z
" transform="scale(0.015625)"/>
      <path id="NotoSansCJKsc-Regular-67" d="M 1760 -1600 
C 2835 -1600 3520 -1043 3520 -397 
C 3520 179 3110 429 2310 429 
L 1626 429 
C 1158 429 1018 589 1018 806 
C 1018 998 1114 1114 1242 1222 
C 1395 1146 1587 1101 1754 1101 
C 2470 1101 3027 1568 3027 2310 
C 3027 2611 2912 2867 2746 3027 
L 3456 3027 
L 3456 3475 
L 2246 3475 
C 2125 3526 1952 3565 1754 3565 
C 1056 3565 454 3085 454 2323 
C 454 1907 678 1568 909 1389 
L 909 1363 
C 723 1235 525 1005 525 717 
C 525 442 659 256 838 147 
L 838 115 
C 512 -83 326 -371 326 -672 
C 326 -1267 915 -1600 1760 -1600 
z
M 1754 1498 
C 1357 1498 1018 1818 1018 2323 
C 1018 2835 1350 3136 1754 3136 
C 2170 3136 2496 2835 2496 2323 
C 2496 1818 2157 1498 1754 1498 
z
M 1843 -1197 
C 1210 -1197 838 -960 838 -589 
C 838 -390 941 -179 1190 0 
C 1344 -38 1510 -51 1638 -51 
L 2240 -51 
C 2701 -51 2944 -166 2944 -493 
C 2944 -851 2515 -1197 1843 -1197 
z
" transform="scale(0.015625)"/>
     </defs>
     <use xlink:href="#NotoSansCJKsc-Regular-51"/>
     <use xlink:href="#NotoSansCJKsc-Regular-75" transform="translate(74.199982 0)"/>
     <use xlink:href="#NotoSansCJKsc-Regular-61" transform="translate(134.899979 0)"/>
     <use xlink:href="#NotoSansCJKsc-Regular-6c" transform="translate(191.199966 0)"/>
     <use xlink:href="#NotoSansCJKsc-Regular-69" transform="translate(219.59996 0)"/>
     <use xlink:href="#NotoSansCJKsc-Regular-74" transform="translate(247.099945 0)"/>
     <use xlink:href="#NotoSansCJKsc-Regular-79" transform="translate(284.799942 0)"/>
     <use xlink:href="#NotoSansCJKsc-Regular-20" transform="translate(336.899933 0)"/>
     <use xlink:href="#NotoSansCJKsc-Regular-67" transform="translate(359.299927 0)"/>
     <use xlink:href="#NotoSansCJKsc-Regular-61" transform="translate(415.699921 0)"/>
     <use xlink:href="#NotoSansCJKsc-Regular-69" transform="translate(471.999908 0)"/>
     <use xlink:href="#NotoSansCJKsc-Regular-6e" transform="translate(499.499893 0)"/>
     <use xlink:href="#NotoSansCJKsc-Regular-73" transform="translate(560.499878 0)"/>
    </g>
   </g>
  </g>
  <g id="text_42">
   <!-- AutoRelAnnotator — production impact -->
   <g style="fill: #0f172a" transform="translate(8.64 19.587656) scale(0.135 -0.135)">
    <defs>
     <path id="NotoSansCJKsc-Bold-41" d="M -26 0 
L 934 0 
L 1267 1216 
L 2797 1216 
L 3130 0 
L 4128 0 
L 2611 4742 
L 1491 4742 
L -26 0 
z
M 1472 1952 
L 1613 2470 
C 1754 2963 1888 3501 2016 4019 
L 2042 4019 
C 2182 3514 2310 2963 2458 2470 
L 2598 1952 
L 1472 1952 
z
" transform="scale(0.015625)"/>
     <path id="NotoSansCJKsc-Bold-75" d="M 1574 -90 
C 2067 -90 2406 154 2714 518 
L 2739 518 
L 2810 0 
L 3578 0 
L 3578 3584 
L 2637 3584 
L 2637 1165 
C 2394 845 2202 717 1914 717 
C 1562 717 1402 909 1402 1466 
L 1402 3584 
L 467 3584 
L 467 1350 
C 467 448 800 -90 1574 -90 
z
" transform="scale(0.015625)"/>
     <path id="NotoSansCJKsc-Bold-74" d="M 1818 -90 
C 2131 -90 2381 -13 2579 45 
L 2419 730 
C 2323 691 2182 653 2067 653 
C 1747 653 1574 845 1574 1254 
L 1574 2842 
L 2464 2842 
L 2464 3584 
L 1574 3584 
L 1574 4550 
L 800 4550 
L 691 3584 
L 134 3539 
L 134 2842 
L 640 2842 
L 640 1248 
C 640 454 966 -90 1818 -90 
z
" transform="scale(0.015625)"/>
     <path id="NotoSansCJKsc-Bold-6f" d="M 2003 -90 
C 2899 -90 3725 602 3725 1792 
C 3725 2982 2899 3674 2003 3674 
C 1101 3674 282 2982 282 1792 
C 282 602 1101 -90 2003 -90 
z
M 2003 678 
C 1510 678 1242 1114 1242 1792 
C 1242 2464 1510 2906 2003 2906 
C 2490 2906 2765 2464 2765 1792 
C 2765 1114 2490 678 2003 678 
z
" transform="scale(0.015625)"/>
     <path id="NotoSansCJKsc-Bold-52" d="M 1530 2541 
L 1530 3987 
L 2144 3987 
C 2752 3987 3085 3814 3085 3302 
C 3085 2797 2752 2541 2144 2541 
L 1530 2541 
z
M 3162 0 
L 4218 0 
L 3110 1939 
C 3654 2150 4013 2592 4013 3302 
C 4013 4390 3226 4742 2227 4742 
L 582 4742 
L 582 0 
L 1530 0 
L 1530 1792 
L 2189 1792 
L 3162 0 
z
" transform="scale(0.015625)"/>
     <path id="NotoSansCJKsc-Bold-65" d="M 2067 -90 
C 2509 -90 2963 64 3315 307 
L 2995 883 
C 2733 723 2483 640 2195 640 
C 1658 640 1274 941 1197 1523 
L 3405 1523 
C 3430 1613 3450 1786 3450 1958 
C 3450 2957 2938 3674 1952 3674 
C 1101 3674 282 2950 282 1792 
C 282 608 1062 -90 2067 -90 
z
M 1178 2157 
C 1254 2675 1587 2944 1965 2944 
C 2432 2944 2643 2637 2643 2157 
L 1178 2157 
z
" transform="scale(0.015625)"/>
     <path id="NotoSansCJKsc-Bold-6c" d="M 1395 -90 
C 1613 -90 1766 -51 1875 -6 
L 1760 691 
C 1696 678 1670 678 1632 678 
C 1542 678 1446 749 1446 966 
L 1446 5107 
L 506 5107 
L 506 1005 
C 506 339 736 -90 1395 -90 
z
" transform="scale(0.015625)"/>
     <path id="NotoSansCJKsc-Bold-6e" d="M 506 0 
L 1446 0 
L 1446 2464 
C 1709 2726 1901 2867 2189 2867 
C 2541 2867 2694 2675 2694 2118 
L 2694 0 
L 3635 0 
L 3635 2234 
C 3635 3136 3302 3674 2528 3674 
C 2042 3674 1677 3418 1363 3110 
L 1344 3110 
L 1274 3584 
L 506 3584 
L 506 0 
z
" transform="scale(0.015625)"/>
     <path id="NotoSansCJKsc-Bold-61" d="M 1382 -90 
C 1798 -90 2157 109 2464 384 
L 2496 384 
L 2560 0 
L 3328 0 
L 3328 2093 
C 3328 3130 2861 3674 1952 3674 
C 1389 3674 877 3456 461 3200 
L 794 2573 
C 1126 2771 1446 2918 1779 2918 
C 2221 2918 2374 2650 2387 2298 
C 947 2144 326 1741 326 979 
C 326 365 742 -90 1382 -90 
z
M 1696 646 
C 1421 646 1222 768 1222 1050 
C 1222 1376 1510 1613 2387 1715 
L 2387 998 
C 2163 774 1965 646 1696 646 
z
" transform="scale(0.015625)"/>
     <path id="NotoSansCJKsc-Bold-72" d="M 506 0 
L 1446 0 
L 1446 2138 
C 1651 2656 1984 2842 2259 2842 
C 2413 2842 2515 2822 2643 2784 
L 2797 3597 
C 2694 3642 2579 3674 2381 3674 
C 2010 3674 1626 3418 1363 2950 
L 1344 2950 
L 1274 3584 
L 506 3584 
L 506 0 
z
" transform="scale(0.015625)"/>
     <path id="NotoSansCJKsc-Bold-20" transform="scale(0.015625)"/>
     <path id="NotoSansCJKsc-Bold-2014" d="M 314 1536 
L 5498 1536 
L 5498 2138 
L 314 2138 
L 314 1536 
z
" transform="scale(0.015625)"/>
     <path id="NotoSansCJKsc-Bold-70" d="M 506 -1376 
L 1446 -1376 
L 1446 -282 
L 1414 301 
C 1683 51 1990 -90 2304 -90 
C 3091 -90 3827 621 3827 1850 
C 3827 2950 3296 3674 2419 3674 
C 2029 3674 1664 3469 1363 3213 
L 1344 3213 
L 1274 3584 
L 506 3584 
L 506 -1376 
z
M 2099 685 
C 1901 685 1677 755 1446 954 
L 1446 2534 
C 1690 2778 1907 2899 2150 2899 
C 2643 2899 2861 2522 2861 1837 
C 2861 1056 2522 685 2099 685 
z
" transform="scale(0.015625)"/>
     <path id="NotoSansCJKsc-Bold-64" d="M 1766 -90 
C 2138 -90 2496 109 2758 371 
L 2784 371 
L 2854 0 
L 3622 0 
L 3622 5107 
L 2682 5107 
L 2682 3846 
L 2714 3283 
C 2458 3520 2208 3674 1805 3674 
C 1037 3674 301 2957 301 1792 
C 301 614 870 -90 1766 -90 
z
M 2010 685 
C 1536 685 1267 1056 1267 1805 
C 1267 2515 1606 2899 2010 2899 
C 2240 2899 2464 2829 2682 2630 
L 2682 1056 
C 2477 787 2259 685 2010 685 
z
" transform="scale(0.015625)"/>
     <path id="NotoSansCJKsc-Bold-63" d="M 2029 -90 
C 2426 -90 2861 45 3200 346 
L 2829 966 
C 2630 800 2394 678 2131 678 
C 1613 678 1242 1114 1242 1792 
C 1242 2464 1613 2906 2163 2906 
C 2362 2906 2528 2822 2707 2675 
L 3155 3270 
C 2893 3507 2554 3674 2112 3674 
C 1139 3674 282 2982 282 1792 
C 282 602 1043 -90 2029 -90 
z
" transform="scale(0.015625)"/>
     <path id="NotoSansCJKsc-Bold-69" d="M 506 0 
L 1446 0 
L 1446 3584 
L 506 3584 
L 506 0 
z
M 979 4166 
C 1299 4166 1523 4365 1523 4678 
C 1523 4986 1299 5190 979 5190 
C 646 5190 435 4986 435 4678 
C 435 4365 646 4166 979 4166 
z
" transform="scale(0.015625)"/>
     <path id="NotoSansCJKsc-Bold-6d" d="M 506 0 
L 1446 0 
L 1446 2464 
C 1696 2739 1926 2867 2131 2867 
C 2477 2867 2637 2675 2637 2118 
L 2637 0 
L 3571 0 
L 3571 2464 
C 3827 2739 4058 2867 4262 2867 
C 4602 2867 4762 2675 4762 2118 
L 4762 0 
L 5696 0 
L 5696 2234 
C 5696 3136 5350 3674 4589 3674 
C 4128 3674 3776 3392 3443 3046 
C 3277 3443 2976 3674 2464 3674 
C 1997 3674 1664 3418 1363 3104 
L 1344 3104 
L 1274 3584 
L 506 3584 
L 506 0 
z
" transform="scale(0.015625)"/>
    </defs>
    <use xlink:href="#NotoSansCJKsc-Bold-41"/>
    <use xlink:href="#NotoSansCJKsc-Bold-75" transform="translate(64.099991 0)"/>
    <use xlink:href="#NotoSansCJKsc-Bold-74" transform="translate(127.799988 0)"/>
    <use xlink:href="#NotoSansCJKsc-Bold-6f" transform="translate(169.899979 0)"/>
    <use xlink:href="#NotoSansCJKsc-Bold-52" transform="translate(232.499969 0)"/>
    <use xlink:href="#NotoSansCJKsc-Bold-65" transform="translate(300.699951 0)"/>
    <use xlink:href="#NotoSansCJKsc-Bold-6c" transform="translate(358.799942 0)"/>
    <use xlink:href="#NotoSansCJKsc-Bold-41" transform="translate(390.299927 0)"/>
    <use xlink:href="#NotoSansCJKsc-Bold-6e" transform="translate(454.399918 0)"/>
    <use xlink:href="#NotoSansCJKsc-Bold-6e" transform="translate(518.499908 0)"/>
    <use xlink:href="#NotoSansCJKsc-Bold-6f" transform="translate(582.599899 0)"/>
    <use xlink:href="#NotoSansCJKsc-Bold-74" transform="translate(645.19989 0)"/>
    <use xlink:href="#NotoSansCJKsc-Bold-61" transform="translate(687.299881 0)"/>
    <use xlink:href="#NotoSansCJKsc-Bold-74" transform="translate(746.399872 0)"/>
    <use xlink:href="#NotoSansCJKsc-Bold-6f" transform="translate(788.499863 0)"/>
    <use xlink:href="#NotoSansCJKsc-Bold-72" transform="translate(851.099854 0)"/>
    <use xlink:href="#NotoSansCJKsc-Bold-20" transform="translate(894.699844 0)"/>
    <use xlink:href="#NotoSansCJKsc-Bold-2014" transform="translate(917.399841 0)"/>
    <use xlink:href="#NotoSansCJKsc-Bold-20" transform="translate(1008.199829 0)"/>
    <use xlink:href="#NotoSansCJKsc-Bold-70" transform="translate(1030.899826 0)"/>
    <use xlink:href="#NotoSansCJKsc-Bold-72" transform="translate(1095.29982 0)"/>
    <use xlink:href="#NotoSansCJKsc-Bold-6f" transform="translate(1138.899811 0)"/>
    <use xlink:href="#NotoSansCJKsc-Bold-64" transform="translate(1201.499802 0)"/>
    <use xlink:href="#NotoSansCJKsc-Bold-75" transform="translate(1265.899796 0)"/>
    <use xlink:href="#NotoSansCJKsc-Bold-63" transform="translate(1329.599792 0)"/>
    <use xlink:href="#NotoSansCJKsc-Bold-74" transform="translate(1382.299789 0)"/>
    <use xlink:href="#NotoSansCJKsc-Bold-69" transform="translate(1424.39978 0)"/>
    <use xlink:href="#NotoSansCJKsc-Bold-6f" transform="translate(1454.799774 0)"/>
    <use xlink:href="#NotoSansCJKsc-Bold-6e" transform="translate(1517.399765 0)"/>
    <use xlink:href="#NotoSansCJKsc-Bold-20" transform="translate(1581.499756 0)"/>
    <use xlink:href="#NotoSansCJKsc-Bold-69" transform="translate(1604.199753 0)"/>
    <use xlink:href="#NotoSansCJKsc-Bold-6d" transform="translate(1634.599747 0)"/>
    <use xlink:href="#NotoSansCJKsc-Bold-70" transform="translate(1730.999741 0)"/>
    <use xlink:href="#NotoSansCJKsc-Bold-61" transform="translate(1795.399734 0)"/>
    <use xlink:href="#NotoSansCJKsc-Bold-63" transform="translate(1854.499725 0)"/>
    <use xlink:href="#NotoSansCJKsc-Bold-74" transform="translate(1907.199722 0)"/>
   </g>
  </g>
 </g>
 <defs>
  <clipPath id="p9f801190e4">
   <rect x="52.616" y="75.372" width="204.415" height="213.296"/>
  </clipPath>
  <clipPath id="padc111a336">
   <rect x="313.7285" y="75.372" width="204.415" height="213.296"/>
  </clipPath>
  <clipPath id="p7e113bc5ef">
   <rect x="574.841" y="75.372" width="204.415" height="213.296"/>
  </clipPath>
 </defs>
</svg>
