<?xml version="1.0" encoding="utf-8" standalone="no"?>
<!DOCTYPE svg PUBLIC "-//W3C//DTD SVG 1.1//EN"
  "http://www.w3.org/Graphics/SVG/1.1/DTD/svg11.dtd">
<svg xmlns:xlink="http://www.w3.org/1999/xlink" width="631.08pt" height="272.304pt" viewBox="0 0 631.08 272.304" xmlns="http://www.w3.org/2000/svg" version="1.1">
 <metadata>
  <rdf:RDF xmlns:dc="http://purl.org/dc/elements/1.1/" xmlns:cc="http://creativecommons.org/ns#" xmlns:rdf="http://www.w3.org/1999/02/22-rdf-syntax-ns#">
   <cc:Work>
    <dc:type rdf:resource="http://purl.org/dc/dcmitype/StillImage"/>
    <dc:date>2026-06-21T19:29:07.886071</dc:date>
    <dc:format>image/svg+xml</dc:format>
    <dc:creator>
     <cc:Agent>
      <dc:title>Matplotlib v3.10.5, https://matplotlib.org/</dc:title>
     </cc:Agent>
    </dc:creator>
   </cc:Work>
  </rdf:RDF>
 </metadata>
 <defs>
  <style type="text/css">*{stroke-linejoin: round; stroke-linecap: butt}</style>
 </defs>
 <g id="figure_1">
  <g id="patch_1">
   <path d="M 0 272.304 
L 631.08 272.304 
L 631.08 0 
L 0 0 
z
" style="fill: #ffffff"/>
  </g>
  <g id="axes_1">
   <g id="patch_2">
    <path d="M 142.607544 123.4008 
Q 149.814478 123.4008 155.094483 123.4008 
" clip-path="url(#pb4bd5bdfe5)" style="fill: none; stroke: #94a3b8; stroke-width: 1.9; stroke-linecap: round"/>
    <path d="M 149.094483 120.0008 
L 155.094483 123.4008 
L 149.094483 126.8008 
" clip-path="url(#pb4bd5bdfe5)" style="fill: none; stroke: #94a3b8; stroke-width: 1.9; stroke-linecap: round"/>
   </g>
   <g id="patch_3">
    <path d="M 305.264544 123.4008 
Q 312.471478 123.4008 317.751483 123.4008 
" clip-path="url(#pb4bd5bdfe5)" style="fill: none; stroke: #94a3b8; stroke-width: 1.9; stroke-linecap: round"/>
    <path d="M 311.751483 120.0008 
L 317.751483 123.4008 
L 311.751483 126.8008 
" clip-path="url(#pb4bd5bdfe5)" style="fill: none; stroke: #94a3b8; stroke-width: 1.9; stroke-linecap: round"/>
   </g>
   <g id="patch_4">
    <path d="M 387.203955 161.838325 
Q 230.37382 176.318412 75.462452 190.62134 
" clip-path="url(#pb4bd5bdfe5)" style="fill: none; stroke-dasharray: 9.5,7.6; stroke-dashoffset: 0; stroke: #d97706; stroke-width: 1.9; stroke-linecap: round"/>
    <path d="M 81.749632 193.455307 
L 75.462452 190.62134 
L 81.124449 186.684108 
" clip-path="url(#pb4bd5bdfe5)" style="fill: none; stroke-dasharray: 9.5,7.6; stroke-dashoffset: 0; stroke: #d97706; stroke-width: 1.9; stroke-linecap: round"/>
   </g>
   <g id="patch_5">
    <path d="M 387.21747 161.945726 
Q 289.60615 176.318398 193.901204 190.410367 
" clip-path="url(#pb4bd5bdfe5)" style="fill: none; stroke-dasharray: 9.5,7.6; stroke-dashoffset: 0; stroke: #d97706; stroke-width: 1.9; stroke-linecap: round"/>
    <path d="M 200.33249 192.900059 
L 193.901204 190.410367 
L 199.341912 186.172597 
" clip-path="url(#pb4bd5bdfe5)" style="fill: none; stroke-dasharray: 9.5,7.6; stroke-dashoffset: 0; stroke: #d97706; stroke-width: 1.9; stroke-linecap: round"/>
   </g>
   <g id="patch_6">
    <path d="M 387.316565 162.337294 
Q 348.838422 176.318363 312.171358 189.641374 
" clip-path="url(#pb4bd5bdfe5)" style="fill: none; stroke-dasharray: 9.5,7.6; stroke-dashoffset: 0; stroke: #d97706; stroke-width: 1.9; stroke-linecap: round"/>
    <path d="M 318.971757 190.787928 
L 312.171358 189.641374 
L 316.649515 184.396747 
" clip-path="url(#pb4bd5bdfe5)" style="fill: none; stroke-dasharray: 9.5,7.6; stroke-dashoffset: 0; stroke: #d97706; stroke-width: 1.9; stroke-linecap: round"/>
   </g>
   <g id="patch_7">
    <path d="M 390.774238 162.880567 
Q 408.070227 176.318185 423.844559 188.573595 
" clip-path="url(#pb4bd5bdfe5)" style="fill: none; stroke-dasharray: 9.5,7.6; stroke-dashoffset: 0; stroke: #d97706; stroke-width: 1.9; stroke-linecap: round"/>
    <path d="M 421.192444 182.20757 
L 423.844559 188.573595 
L 417.020515 187.577393 
" clip-path="url(#pb4bd5bdfe5)" style="fill: none; stroke-dasharray: 9.5,7.6; stroke-dashoffset: 0; stroke: #d97706; stroke-width: 1.9; stroke-linecap: round"/>
   </g>
   <g id="patch_8">
    <path d="M 22.7574 164.714688 
L 135.6966 164.714688 
Q 147.9726 164.714688 147.9726 159.614208 
L 147.9726 87.187392 
Q 147.9726 82.086912 135.6966 82.086912 
L 22.7574 82.086912 
Q 10.4814 82.086912 10.4814 87.187392 
L 10.4814 159.614208 
Q 10.4814 164.714688 22.7574 164.714688 
z
" clip-path="url(#pb4bd5bdfe5)" style="fill: #ecfeff; stroke: #a5f3fc; stroke-width: 1.4; stroke-linejoin: miter"/>
   </g>
   <g id="patch_9">
    <path d="M 163.9314 164.714688 
L 298.3536 164.714688 
Q 310.6296 164.714688 310.6296 159.614208 
L 310.6296 87.187392 
Q 310.6296 82.086912 298.3536 82.086912 
L 163.9314 82.086912 
Q 151.6554 82.086912 151.6554 87.187392 
L 151.6554 159.614208 
Q 151.6554 164.714688 163.9314 164.714688 
z
" clip-path="url(#pb4bd5bdfe5)" style="fill: #eff6ff; stroke: #bfdbfe; stroke-width: 1.4; stroke-linejoin: miter"/>
   </g>
   <g id="patch_10">
    <path d="M 326.5884 164.714688 
L 461.0106 164.714688 
Q 473.2866 164.714688 473.2866 159.614208 
L 473.2866 87.187392 
Q 473.2866 82.086912 461.0106 82.086912 
L 326.5884 82.086912 
Q 314.3124 82.086912 314.3124 87.187392 
L 314.3124 159.614208 
Q 314.3124 164.714688 326.5884 164.714688 
z
" clip-path="url(#pb4bd5bdfe5)" style="fill: #f5f3ff; stroke: #ddd6fe; stroke-width: 1.4; stroke-linejoin: miter"/>
   </g>
   <g id="patch_11">
    <path d="M 22.7574 241.221888 
L 120.3516 241.221888 
Q 132.6276 241.221888 132.6276 236.121408 
L 132.6276 194.297472 
Q 132.6276 189.196992 120.3516 189.196992 
L 22.7574 189.196992 
Q 10.4814 189.196992 10.4814 194.297472 
L 10.4814 236.121408 
Q 10.4814 241.221888 22.7574 241.221888 
z
" clip-path="url(#pb4bd5bdfe5)" style="fill: #fffbeb; stroke: #fde68a; stroke-width: 1.4; stroke-linejoin: miter"/>
   </g>
   <g id="patch_12">
    <path d="M 141.2208 241.221888 
L 238.815 241.221888 
Q 251.091 241.221888 251.091 236.121408 
L 251.091 194.297472 
Q 251.091 189.196992 238.815 189.196992 
L 141.2208 189.196992 
Q 128.9448 189.196992 128.9448 194.297472 
L 128.9448 236.121408 
Q 128.9448 241.221888 141.2208 241.221888 
z
" clip-path="url(#pb4bd5bdfe5)" style="fill: #fffbeb; stroke: #fde68a; stroke-width: 1.4; stroke-linejoin: miter"/>
   </g>
   <g id="patch_13">
    <path d="M 259.6842 241.221888 
L 357.2784 241.221888 
Q 369.5544 241.221888 369.5544 236.121408 
L 369.5544 194.297472 
Q 369.5544 189.196992 357.2784 189.196992 
L 259.6842 189.196992 
Q 247.4082 189.196992 247.4082 194.297472 
L 247.4082 236.121408 
Q 247.4082 241.221888 259.6842 241.221888 
z
" clip-path="url(#pb4bd5bdfe5)" style="fill: #fffbeb; stroke: #fde68a; stroke-width: 1.4; stroke-linejoin: miter"/>
   </g>
   <g id="patch_14">
    <path d="M 378.1476 241.221888 
L 475.7418 241.221888 
Q 488.0178 241.221888 488.0178 236.121408 
L 488.0178 194.297472 
Q 488.0178 189.196992 475.7418 189.196992 
L 378.1476 189.196992 
Q 365.8716 189.196992 365.8716 194.297472 
L 365.8716 236.121408 
Q 365.8716 241.221888 378.1476 241.221888 
z
" clip-path="url(#pb4bd5bdfe5)" style="fill: #fffbeb; stroke: #fde68a; stroke-width: 1.4; stroke-linejoin: miter"/>
   </g>
   <g id="patch_15">
    <path d="M 486.1764 164.714688 
L 608.3226 164.714688 
Q 620.5986 164.714688 620.5986 159.614208 
L 620.5986 87.187392 
Q 620.5986 82.086912 608.3226 82.086912 
L 486.1764 82.086912 
Q 473.9004 82.086912 473.9004 87.187392 
L 473.9004 159.614208 
Q 473.9004 164.714688 486.1764 164.714688 
z
" clip-path="url(#pb4bd5bdfe5)" style="fill: #ecfdf5; stroke: #bbf7d0; stroke-width: 1.4; stroke-linejoin: miter"/>
   </g>
   <g id="text_1">
    <!-- NEST — Narrative Event Structures in Time -->
    <g style="fill: #0f172a" transform="translate(16.0056 45.235796) scale(0.155 -0.155)">
     <defs>
      <path id="NotoSansCJKsc-Bold-4e" d="M 582 0 
L 1485 0 
L 1485 1901 
C 1485 2445 1402 3040 1363 3552 
L 1395 3552 
L 1875 2534 
L 3238 0 
L 4205 0 
L 4205 4742 
L 3309 4742 
L 3309 2848 
C 3309 2310 3386 1683 3437 1190 
L 3405 1190 
L 2925 2214 
L 1549 4742 
L 582 4742 
L 582 0 
z
" transform="scale(0.015625)"/>
      <path id="NotoSansCJKsc-Bold-45" d="M 582 0 
L 3558 0 
L 3558 794 
L 1530 794 
L 1530 2061 
L 3187 2061 
L 3187 2854 
L 1530 2854 
L 1530 3949 
L 3488 3949 
L 3488 4742 
L 582 4742 
L 582 0 
z
" transform="scale(0.015625)"/>
      <path id="NotoSansCJKsc-Bold-53" d="M 1997 -90 
C 3091 -90 3738 570 3738 1344 
C 3738 2029 3360 2400 2784 2637 
L 2163 2886 
C 1760 3053 1427 3174 1427 3514 
C 1427 3827 1683 4013 2099 4013 
C 2496 4013 2810 3866 3110 3622 
L 3590 4211 
C 3206 4602 2656 4826 2099 4826 
C 1146 4826 461 4224 461 3456 
C 461 2765 947 2381 1427 2189 
L 2054 1914 
C 2477 1734 2771 1626 2771 1274 
C 2771 941 2509 730 2016 730 
C 1600 730 1146 941 813 1254 
L 269 602 
C 730 154 1363 -90 1997 -90 
z
" transform="scale(0.015625)"/>
      <path id="NotoSansCJKsc-Bold-54" d="M 1523 0 
L 2470 0 
L 2470 3949 
L 3808 3949 
L 3808 4742 
L 192 4742 
L 192 3949 
L 1523 3949 
L 1523 0 
z
" transform="scale(0.015625)"/>
      <path id="NotoSansCJKsc-Bold-20" transform="scale(0.015625)"/>
      <path id="NotoSansCJKsc-Bold-2014" d="M 314 1536 
L 5498 1536 
L 5498 2138 
L 314 2138 
L 314 1536 
z
" transform="scale(0.015625)"/>
      <path id="NotoSansCJKsc-Bold-61" d="M 1382 -90 
C 1798 -90 2157 109 2464 384 
L 2496 384 
L 2560 0 
L 3328 0 
L 3328 2093 
C 3328 3130 2861 3674 1952 3674 
C 1389 3674 877 3456 461 3200 
L 794 2573 
C 1126 2771 1446 2918 1779 2918 
C 2221 2918 2374 2650 2387 2298 
C 947 2144 326 1741 326 979 
C 326 365 742 -90 1382 -90 
z
M 1696 646 
C 1421 646 1222 768 1222 1050 
C 1222 1376 1510 1613 2387 1715 
L 2387 998 
C 2163 774 1965 646 1696 646 
z
" transform="scale(0.015625)"/>
      <path id="NotoSansCJKsc-Bold-72" d="M 506 0 
L 1446 0 
L 1446 2138 
C 1651 2656 1984 2842 2259 2842 
C 2413 2842 2515 2822 2643 2784 
L 2797 3597 
C 2694 3642 2579 3674 2381 3674 
C 2010 3674 1626 3418 1363 2950 
L 1344 2950 
L 1274 3584 
L 506 3584 
L 506 0 
z
" transform="scale(0.015625)"/>
      <path id="NotoSansCJKsc-Bold-74" d="M 1818 -90 
C 2131 -90 2381 -13 2579 45 
L 2419 730 
C 2323 691 2182 653 2067 653 
C 1747 653 1574 845 1574 1254 
L 1574 2842 
L 2464 2842 
L 2464 3584 
L 1574 3584 
L 1574 4550 
L 800 4550 
L 691 3584 
L 134 3539 
L 134 2842 
L 640 2842 
L 640 1248 
C 640 454 966 -90 1818 -90 
z
" transform="scale(0.015625)"/>
      <path id="NotoSansCJKsc-Bold-69" d="M 506 0 
L 1446 0 
L 1446 3584 
L 506 3584 
L 506 0 
z
M 979 4166 
C 1299 4166 1523 4365 1523 4678 
C 1523 4986 1299 5190 979 5190 
C 646 5190 435 4986 435 4678 
C 435 4365 646 4166 979 4166 
z
" transform="scale(0.015625)"/>
      <path id="NotoSansCJKsc-Bold-76" d="M 1312 0 
L 2400 0 
L 3597 3584 
L 2694 3584 
L 2170 1798 
C 2074 1446 1978 1075 1882 710 
L 1850 710 
C 1747 1075 1658 1446 1555 1798 
L 1037 3584 
L 90 3584 
L 1312 0 
z
" transform="scale(0.015625)"/>
      <path id="NotoSansCJKsc-Bold-65" d="M 2067 -90 
C 2509 -90 2963 64 3315 307 
L 2995 883 
C 2733 723 2483 640 2195 640 
C 1658 640 1274 941 1197 1523 
L 3405 1523 
C 3430 1613 3450 1786 3450 1958 
C 3450 2957 2938 3674 1952 3674 
C 1101 3674 282 2950 282 1792 
C 282 608 1062 -90 2067 -90 
z
M 1178 2157 
C 1254 2675 1587 2944 1965 2944 
C 2432 2944 2643 2637 2643 2157 
L 1178 2157 
z
" transform="scale(0.015625)"/>
      <path id="NotoSansCJKsc-Bold-6e" d="M 506 0 
L 1446 0 
L 1446 2464 
C 1709 2726 1901 2867 2189 2867 
C 2541 2867 2694 2675 2694 2118 
L 2694 0 
L 3635 0 
L 3635 2234 
C 3635 3136 3302 3674 2528 3674 
C 2042 3674 1677 3418 1363 3110 
L 1344 3110 
L 1274 3584 
L 506 3584 
L 506 0 
z
" transform="scale(0.015625)"/>
      <path id="NotoSansCJKsc-Bold-75" d="M 1574 -90 
C 2067 -90 2406 154 2714 518 
L 2739 518 
L 2810 0 
L 3578 0 
L 3578 3584 
L 2637 3584 
L 2637 1165 
C 2394 845 2202 717 1914 717 
C 1562 717 1402 909 1402 1466 
L 1402 3584 
L 467 3584 
L 467 1350 
C 467 448 800 -90 1574 -90 
z
" transform="scale(0.015625)"/>
      <path id="NotoSansCJKsc-Bold-63" d="M 2029 -90 
C 2426 -90 2861 45 3200 346 
L 2829 966 
C 2630 800 2394 678 2131 678 
C 1613 678 1242 1114 1242 1792 
C 1242 2464 1613 2906 2163 2906 
C 2362 2906 2528 2822 2707 2675 
L 3155 3270 
C 2893 3507 2554 3674 2112 3674 
C 1139 3674 282 2982 282 1792 
C 282 602 1043 -90 2029 -90 
z
" transform="scale(0.015625)"/>
      <path id="NotoSansCJKsc-Bold-73" d="M 1530 -90 
C 2458 -90 2957 410 2957 1043 
C 2957 1702 2432 1946 1958 2125 
C 1574 2266 1248 2362 1248 2624 
C 1248 2829 1402 2970 1728 2970 
C 1990 2970 2240 2842 2496 2662 
L 2918 3232 
C 2624 3462 2221 3674 1702 3674 
C 883 3674 365 3219 365 2579 
C 365 1978 870 1702 1325 1530 
C 1702 1382 2074 1261 2074 992 
C 2074 768 1914 614 1555 614 
C 1216 614 915 762 595 1005 
L 166 410 
C 525 115 1050 -90 1530 -90 
z
" transform="scale(0.015625)"/>
      <path id="NotoSansCJKsc-Bold-6d" d="M 506 0 
L 1446 0 
L 1446 2464 
C 1696 2739 1926 2867 2131 2867 
C 2477 2867 2637 2675 2637 2118 
L 2637 0 
L 3571 0 
L 3571 2464 
C 3827 2739 4058 2867 4262 2867 
C 4602 2867 4762 2675 4762 2118 
L 4762 0 
L 5696 0 
L 5696 2234 
C 5696 3136 5350 3674 4589 3674 
C 4128 3674 3776 3392 3443 3046 
C 3277 3443 2976 3674 2464 3674 
C 1997 3674 1664 3418 1363 3104 
L 1344 3104 
L 1274 3584 
L 506 3584 
L 506 0 
z
" transform="scale(0.015625)"/>
     </defs>
     <use xlink:href="#NotoSansCJKsc-Bold-4e"/>
     <use xlink:href="#NotoSansCJKsc-Bold-45" transform="translate(74.899994 0)"/>
     <use xlink:href="#NotoSansCJKsc-Bold-53" transform="translate(136.399979 0)"/>
     <use xlink:href="#NotoSansCJKsc-Bold-54" transform="translate(198.799973 0)"/>
     <use xlink:href="#NotoSansCJKsc-Bold-20" transform="translate(261.299957 0)"/>
     <use xlink:href="#NotoSansCJKsc-Bold-2014" transform="translate(283.999954 0)"/>
     <use xlink:href="#NotoSansCJKsc-Bold-20" transform="translate(374.799942 0)"/>
     <use xlink:href="#NotoSansCJKsc-Bold-4e" transform="translate(397.499939 0)"/>
     <use xlink:href="#NotoSansCJKsc-Bold-61" transform="translate(472.399933 0)"/>
     <use xlink:href="#NotoSansCJKsc-Bold-72" transform="translate(531.499924 0)"/>
     <use xlink:href="#NotoSansCJKsc-Bold-72" transform="translate(575.099915 0)"/>
     <use xlink:href="#NotoSansCJKsc-Bold-61" transform="translate(618.699905 0)"/>
     <use xlink:href="#NotoSansCJKsc-Bold-74" transform="translate(677.799896 0)"/>
     <use xlink:href="#NotoSansCJKsc-Bold-69" transform="translate(719.899887 0)"/>
     <use xlink:href="#NotoSansCJKsc-Bold-76" transform="translate(750.299881 0)"/>
     <use xlink:href="#NotoSansCJKsc-Bold-65" transform="translate(807.899872 0)"/>
     <use xlink:href="#NotoSansCJKsc-Bold-20" transform="translate(865.999863 0)"/>
     <use xlink:href="#NotoSansCJKsc-Bold-45" transform="translate(888.69986 0)"/>
     <use xlink:href="#NotoSansCJKsc-Bold-76" transform="translate(950.199844 0)"/>
     <use xlink:href="#NotoSansCJKsc-Bold-65" transform="translate(1007.799835 0)"/>
     <use xlink:href="#NotoSansCJKsc-Bold-6e" transform="translate(1065.899826 0)"/>
     <use xlink:href="#NotoSansCJKsc-Bold-74" transform="translate(1129.999817 0)"/>
     <use xlink:href="#NotoSansCJKsc-Bold-20" transform="translate(1172.099808 0)"/>
     <use xlink:href="#NotoSansCJKsc-Bold-53" transform="translate(1194.799805 0)"/>
     <use xlink:href="#NotoSansCJKsc-Bold-74" transform="translate(1257.199799 0)"/>
     <use xlink:href="#NotoSansCJKsc-Bold-72" transform="translate(1299.299789 0)"/>
     <use xlink:href="#NotoSansCJKsc-Bold-75" transform="translate(1342.89978 0)"/>
     <use xlink:href="#NotoSansCJKsc-Bold-63" transform="translate(1406.599777 0)"/>
     <use xlink:href="#NotoSansCJKsc-Bold-74" transform="translate(1459.299774 0)"/>
     <use xlink:href="#NotoSansCJKsc-Bold-75" transform="translate(1501.399765 0)"/>
     <use xlink:href="#NotoSansCJKsc-Bold-72" transform="translate(1565.099762 0)"/>
     <use xlink:href="#NotoSansCJKsc-Bold-65" transform="translate(1608.699753 0)"/>
     <use xlink:href="#NotoSansCJKsc-Bold-73" transform="translate(1666.799744 0)"/>
     <use xlink:href="#NotoSansCJKsc-Bold-20" transform="translate(1716.299728 0)"/>
     <use xlink:href="#NotoSansCJKsc-Bold-69" transform="translate(1738.999725 0)"/>
     <use xlink:href="#NotoSansCJKsc-Bold-6e" transform="translate(1769.399719 0)"/>
     <use xlink:href="#NotoSansCJKsc-Bold-20" transform="translate(1833.49971 0)"/>
     <use xlink:href="#NotoSansCJKsc-Bold-54" transform="translate(1856.199707 0)"/>
     <use xlink:href="#NotoSansCJKsc-Bold-69" transform="translate(1918.699692 0)"/>
     <use xlink:href="#NotoSansCJKsc-Bold-6d" transform="translate(1949.099686 0)"/>
     <use xlink:href="#NotoSansCJKsc-Bold-65" transform="translate(2045.49968 0)"/>
    </g>
   </g>
   <g id="text_2">
    <!-- 1005 full movies  -&gt;  ~102 multimodal events/film (visual + dialogue + audio)  -&gt;  linked by relations  -&gt;  4 tasks -->
    <g style="fill: #64748b" transform="translate(16.0056 54.236052) scale(0.096 -0.096)">
     <defs>
      <path id="NotoSansCJKsc-Regular-31" d="M 563 0 
L 3136 0 
L 3136 486 
L 2195 486 
L 2195 4691 
L 1747 4691 
C 1491 4544 1190 4435 774 4358 
L 774 3987 
L 1613 3987 
L 1613 486 
L 563 486 
L 563 0 
z
" transform="scale(0.015625)"/>
      <path id="NotoSansCJKsc-Regular-30" d="M 1779 -83 
C 2669 -83 3238 723 3238 2362 
C 3238 3987 2669 4774 1779 4774 
C 883 4774 320 3987 320 2362 
C 320 723 883 -83 1779 -83 
z
M 1779 390 
C 1248 390 883 986 883 2362 
C 883 3731 1248 4314 1779 4314 
C 2310 4314 2675 3731 2675 2362 
C 2675 986 2310 390 1779 390 
z
" transform="scale(0.015625)"/>
      <path id="NotoSansCJKsc-Regular-35" d="M 1677 -83 
C 2464 -83 3213 499 3213 1523 
C 3213 2560 2573 3021 1798 3021 
C 1517 3021 1306 2950 1094 2835 
L 1216 4192 
L 2982 4192 
L 2982 4691 
L 704 4691 
L 550 2502 
L 864 2304 
C 1133 2483 1331 2579 1645 2579 
C 2234 2579 2618 2182 2618 1510 
C 2618 826 2176 403 1619 403 
C 1075 403 730 653 467 922 
L 173 538 
C 493 224 941 -83 1677 -83 
z
" transform="scale(0.015625)"/>
      <path id="NotoSansCJKsc-Regular-20" transform="scale(0.015625)"/>
      <path id="NotoSansCJKsc-Regular-66" d="M 211 3002 
L 685 3002 
L 685 0 
L 1267 0 
L 1267 3002 
L 2003 3002 
L 2003 3475 
L 1267 3475 
L 1267 4026 
C 1267 4474 1427 4710 1760 4710 
C 1882 4710 2022 4678 2150 4614 
L 2278 5069 
C 2118 5133 1914 5178 1696 5178 
C 1005 5178 685 4736 685 4032 
L 685 3475 
L 211 3443 
L 211 3002 
z
" transform="scale(0.015625)"/>
      <path id="NotoSansCJKsc-Regular-75" d="M 1606 -83 
C 2080 -83 2426 166 2752 544 
L 2771 544 
L 2816 0 
L 3302 0 
L 3302 3475 
L 2720 3475 
L 2720 1011 
C 2387 602 2138 422 1779 422 
C 1318 422 1126 698 1126 1344 
L 1126 3475 
L 538 3475 
L 538 1274 
C 538 384 870 -83 1606 -83 
z
" transform="scale(0.015625)"/>
      <path id="NotoSansCJKsc-Regular-6c" d="M 1203 -83 
C 1363 -83 1459 -58 1542 -32 
L 1459 416 
C 1395 403 1370 403 1338 403 
C 1248 403 1178 474 1178 653 
L 1178 5094 
L 589 5094 
L 589 691 
C 589 198 768 -83 1203 -83 
z
" transform="scale(0.015625)"/>
      <path id="NotoSansCJKsc-Regular-6d" d="M 589 0 
L 1178 0 
L 1178 2522 
C 1491 2880 1786 3053 2048 3053 
C 2490 3053 2694 2778 2694 2125 
L 2694 0 
L 3277 0 
L 3277 2522 
C 3603 2880 3885 3053 4154 3053 
C 4595 3053 4800 2778 4800 2125 
L 4800 0 
L 5382 0 
L 5382 2202 
C 5382 3085 5043 3565 4333 3565 
C 3904 3565 3546 3290 3181 2899 
C 3040 3309 2758 3565 2221 3565 
C 1805 3565 1446 3302 1139 2970 
L 1126 2970 
L 1069 3475 
L 589 3475 
L 589 0 
z
" transform="scale(0.015625)"/>
      <path id="NotoSansCJKsc-Regular-6f" d="M 1939 -83 
C 2790 -83 3546 582 3546 1734 
C 3546 2893 2790 3565 1939 3565 
C 1088 3565 333 2893 333 1734 
C 333 582 1088 -83 1939 -83 
z
M 1939 403 
C 1338 403 934 934 934 1734 
C 934 2534 1338 3072 1939 3072 
C 2541 3072 2950 2534 2950 1734 
C 2950 934 2541 403 1939 403 
z
" transform="scale(0.015625)"/>
      <path id="NotoSansCJKsc-Regular-76" d="M 1338 0 
L 2022 0 
L 3251 3475 
L 2675 3475 
L 2016 1498 
C 1914 1158 1798 806 1696 474 
L 1664 474 
C 1562 806 1453 1158 1344 1498 
L 691 3475 
L 83 3475 
L 1338 0 
z
" transform="scale(0.015625)"/>
      <path id="NotoSansCJKsc-Regular-69" d="M 589 0 
L 1178 0 
L 1178 3475 
L 589 3475 
L 589 0 
z
M 883 4192 
C 1114 4192 1274 4346 1274 4582 
C 1274 4806 1114 4960 883 4960 
C 653 4960 499 4806 499 4582 
C 499 4346 653 4192 883 4192 
z
" transform="scale(0.015625)"/>
      <path id="NotoSansCJKsc-Regular-65" d="M 1997 -83 
C 2464 -83 2835 70 3136 269 
L 2931 659 
C 2669 486 2400 384 2061 384 
C 1402 384 947 858 909 1600 
L 3251 1600 
C 3264 1690 3277 1805 3277 1933 
C 3277 2925 2778 3565 1888 3565 
C 1094 3565 333 2867 333 1734 
C 333 589 1069 -83 1997 -83 
z
M 902 2016 
C 973 2707 1408 3098 1901 3098 
C 2445 3098 2765 2720 2765 2016 
L 902 2016 
z
" transform="scale(0.015625)"/>
      <path id="NotoSansCJKsc-Regular-73" d="M 1498 -83 
C 2317 -83 2758 384 2758 947 
C 2758 1606 2208 1811 1702 2003 
C 1312 2150 954 2278 954 2605 
C 954 2880 1158 3110 1600 3110 
C 1907 3110 2150 2976 2387 2803 
L 2669 3168 
C 2406 3386 2022 3565 1594 3565 
C 832 3565 397 3130 397 2579 
C 397 1984 922 1754 1408 1574 
C 1792 1434 2202 1267 2202 915 
C 2202 614 1978 371 1517 371 
C 1101 371 794 538 486 787 
L 205 397 
C 531 122 1005 -83 1498 -83 
z
" transform="scale(0.015625)"/>
      <path id="NotoSansCJKsc-Regular-2d" d="M 294 1568 
L 1933 1568 
L 1933 2016 
L 294 2016 
L 294 1568 
z
" transform="scale(0.015625)"/>
      <path id="NotoSansCJKsc-Regular-3e" d="M 243 934 
L 3315 2144 
L 3315 2605 
L 243 3814 
L 243 3309 
L 1754 2746 
L 2714 2387 
L 2714 2362 
L 1754 2003 
L 243 1446 
L 243 934 
z
" transform="scale(0.015625)"/>
      <path id="NotoSansCJKsc-Regular-7e" d="M 2406 1837 
C 2714 1837 3034 2029 3296 2477 
L 2970 2714 
C 2803 2406 2624 2278 2419 2278 
C 2016 2278 1715 2886 1152 2886 
C 845 2886 518 2688 262 2240 
L 589 2010 
C 749 2317 928 2445 1133 2445 
C 1542 2445 1843 1837 2406 1837 
z
" transform="scale(0.015625)"/>
      <path id="NotoSansCJKsc-Regular-32" d="M 282 0 
L 3232 0 
L 3232 506 
L 1933 506 
C 1696 506 1408 480 1165 461 
C 2266 1504 3008 2458 3008 3398 
C 3008 4230 2477 4774 1638 4774 
C 1043 4774 634 4506 256 4090 
L 595 3757 
C 858 4070 1184 4301 1568 4301 
C 2150 4301 2432 3910 2432 3373 
C 2432 2566 1754 1632 282 346 
L 282 0 
z
" transform="scale(0.015625)"/>
      <path id="NotoSansCJKsc-Regular-74" d="M 1677 -83 
C 1894 -83 2125 -19 2323 45 
L 2208 486 
C 2093 435 1939 390 1811 390 
C 1408 390 1274 634 1274 1056 
L 1274 3002 
L 2221 3002 
L 2221 3475 
L 1274 3475 
L 1274 4454 
L 787 4454 
L 723 3475 
L 173 3443 
L 173 3002 
L 691 3002 
L 691 1075 
C 691 378 941 -83 1677 -83 
z
" transform="scale(0.015625)"/>
      <path id="NotoSansCJKsc-Regular-64" d="M 1773 -83 
C 2189 -83 2560 141 2829 410 
L 2848 410 
L 2899 0 
L 3379 0 
L 3379 5094 
L 2790 5094 
L 2790 3757 
L 2822 3162 
C 2515 3411 2253 3565 1843 3565 
C 1050 3565 339 2861 339 1734 
C 339 576 902 -83 1773 -83 
z
M 1901 410 
C 1293 410 941 902 941 1741 
C 941 2534 1389 3072 1946 3072 
C 2234 3072 2502 2970 2790 2707 
L 2790 883 
C 2502 563 2221 410 1901 410 
z
" transform="scale(0.015625)"/>
      <path id="NotoSansCJKsc-Regular-61" d="M 1389 -83 
C 1818 -83 2208 141 2541 416 
L 2560 416 
L 2611 0 
L 3091 0 
L 3091 2138 
C 3091 3002 2739 3565 1888 3565 
C 1325 3565 838 3315 525 3110 
L 749 2707 
C 1024 2893 1389 3078 1792 3078 
C 2362 3078 2509 2650 2509 2202 
C 1030 2035 378 1658 378 902 
C 378 275 806 -83 1389 -83 
z
M 1555 390 
C 1210 390 941 544 941 941 
C 941 1389 1338 1677 2509 1811 
L 2509 845 
C 2170 544 1888 390 1555 390 
z
" transform="scale(0.015625)"/>
      <path id="NotoSansCJKsc-Regular-6e" d="M 589 0 
L 1178 0 
L 1178 2522 
C 1523 2874 1766 3053 2125 3053 
C 2586 3053 2784 2778 2784 2125 
L 2784 0 
L 3366 0 
L 3366 2202 
C 3366 3085 3034 3565 2304 3565 
C 1830 3565 1466 3302 1139 2970 
L 1126 2970 
L 1069 3475 
L 589 3475 
L 589 0 
z
" transform="scale(0.015625)"/>
      <path id="NotoSansCJKsc-Regular-2f" d="M 70 -1146 
L 499 -1146 
L 2413 5082 
L 1990 5082 
L 70 -1146 
z
" transform="scale(0.015625)"/>
      <path id="NotoSansCJKsc-Regular-28" d="M 1530 -1254 
L 1888 -1094 
C 1338 -186 1075 902 1075 1990 
C 1075 3072 1338 4154 1888 5069 
L 1530 5235 
C 941 4275 589 3245 589 1990 
C 589 730 941 -301 1530 -1254 
z
" transform="scale(0.015625)"/>
      <path id="NotoSansCJKsc-Regular-2b" d="M 1542 742 
L 2010 742 
L 2010 2144 
L 3315 2144 
L 3315 2579 
L 2010 2579 
L 2010 3981 
L 1542 3981 
L 1542 2579 
L 243 2579 
L 243 2144 
L 1542 2144 
L 1542 742 
z
" transform="scale(0.015625)"/>
      <path id="NotoSansCJKsc-Regular-67" d="M 1760 -1600 
C 2835 -1600 3520 -1043 3520 -397 
C 3520 179 3110 429 2310 429 
L 1626 429 
C 1158 429 1018 589 1018 806 
C 1018 998 1114 1114 1242 1222 
C 1395 1146 1587 1101 1754 1101 
C 2470 1101 3027 1568 3027 2310 
C 3027 2611 2912 2867 2746 3027 
L 3456 3027 
L 3456 3475 
L 2246 3475 
C 2125 3526 1952 3565 1754 3565 
C 1056 3565 454 3085 454 2323 
C 454 1907 678 1568 909 1389 
L 909 1363 
C 723 1235 525 1005 525 717 
C 525 442 659 256 838 147 
L 838 115 
C 512 -83 326 -371 326 -672 
C 326 -1267 915 -1600 1760 -1600 
z
M 1754 1498 
C 1357 1498 1018 1818 1018 2323 
C 1018 2835 1350 3136 1754 3136 
C 2170 3136 2496 2835 2496 2323 
C 2496 1818 2157 1498 1754 1498 
z
M 1843 -1197 
C 1210 -1197 838 -960 838 -589 
C 838 -390 941 -179 1190 0 
C 1344 -38 1510 -51 1638 -51 
L 2240 -51 
C 2701 -51 2944 -166 2944 -493 
C 2944 -851 2515 -1197 1843 -1197 
z
" transform="scale(0.015625)"/>
      <path id="NotoSansCJKsc-Regular-29" d="M 634 -1254 
C 1222 -301 1574 730 1574 1990 
C 1574 3245 1222 4275 634 5235 
L 269 5069 
C 819 4154 1094 3072 1094 1990 
C 1094 902 819 -186 269 -1094 
L 634 -1254 
z
" transform="scale(0.015625)"/>
      <path id="NotoSansCJKsc-Regular-6b" d="M 589 0 
L 1165 0 
L 1165 915 
L 1818 1677 
L 2835 0 
L 3469 0 
L 2157 2074 
L 3315 3475 
L 2662 3475 
L 1190 1645 
L 1165 1645 
L 1165 5094 
L 589 5094 
L 589 0 
z
" transform="scale(0.015625)"/>
      <path id="NotoSansCJKsc-Regular-62" d="M 2118 -83 
C 2912 -83 3629 602 3629 1792 
C 3629 2867 3142 3565 2246 3565 
C 1856 3565 1472 3347 1152 3078 
L 1178 3699 
L 1178 5094 
L 589 5094 
L 589 0 
L 1056 0 
L 1107 358 
L 1133 358 
C 1434 83 1798 -83 2118 -83 
z
M 2022 410 
C 1792 410 1478 499 1178 768 
L 1178 2598 
C 1504 2906 1811 3072 2099 3072 
C 2765 3072 3021 2560 3021 1786 
C 3021 928 2598 410 2022 410 
z
" transform="scale(0.015625)"/>
      <path id="NotoSansCJKsc-Regular-79" d="M 646 -1498 
C 1338 -1498 1702 -973 1946 -294 
L 3251 3475 
L 2682 3475 
L 2054 1549 
C 1965 1235 1862 883 1773 563 
L 1741 563 
C 1619 890 1504 1242 1395 1549 
L 691 3475 
L 83 3475 
L 1478 -6 
L 1402 -269 
C 1254 -698 1011 -1018 621 -1018 
C 525 -1018 422 -986 352 -960 
L 237 -1427 
C 346 -1472 486 -1498 646 -1498 
z
" transform="scale(0.015625)"/>
      <path id="NotoSansCJKsc-Regular-72" d="M 589 0 
L 1178 0 
L 1178 2234 
C 1408 2822 1760 3040 2048 3040 
C 2195 3040 2272 3021 2387 2982 
L 2496 3488 
C 2387 3546 2278 3565 2125 3565 
C 1741 3565 1382 3283 1139 2842 
L 1126 2842 
L 1069 3475 
L 589 3475 
L 589 0 
z
" transform="scale(0.015625)"/>
      <path id="NotoSansCJKsc-Regular-34" d="M 2176 0 
L 2726 0 
L 2726 1293 
L 3354 1293 
L 3354 1760 
L 2726 1760 
L 2726 4691 
L 2080 4691 
L 128 1677 
L 128 1293 
L 2176 1293 
L 2176 0 
z
M 2176 1760 
L 736 1760 
L 1805 3360 
C 1939 3590 2067 3827 2182 4051 
L 2208 4051 
C 2195 3814 2176 3430 2176 3200 
L 2176 1760 
z
" transform="scale(0.015625)"/>
     </defs>
     <use xlink:href="#NotoSansCJKsc-Regular-31"/>
     <use xlink:href="#NotoSansCJKsc-Regular-30" transform="translate(55.499985 0)"/>
     <use xlink:href="#NotoSansCJKsc-Regular-30" transform="translate(110.999969 0)"/>
     <use xlink:href="#NotoSansCJKsc-Regular-35" transform="translate(166.499954 0)"/>
     <use xlink:href="#NotoSansCJKsc-Regular-20" transform="translate(221.999939 0)"/>
     <use xlink:href="#NotoSansCJKsc-Regular-66" transform="translate(244.399933 0)"/>
     <use xlink:href="#NotoSansCJKsc-Regular-75" transform="translate(276.899918 0)"/>
     <use xlink:href="#NotoSansCJKsc-Regular-6c" transform="translate(337.599915 0)"/>
     <use xlink:href="#NotoSansCJKsc-Regular-6c" transform="translate(365.999908 0)"/>
     <use xlink:href="#NotoSansCJKsc-Regular-20" transform="translate(394.399902 0)"/>
     <use xlink:href="#NotoSansCJKsc-Regular-6d" transform="translate(416.799896 0)"/>
     <use xlink:href="#NotoSansCJKsc-Regular-6f" transform="translate(509.399887 0)"/>
     <use xlink:href="#NotoSansCJKsc-Regular-76" transform="translate(569.999878 0)"/>
     <use xlink:href="#NotoSansCJKsc-Regular-69" transform="translate(622.099869 0)"/>
     <use xlink:href="#NotoSansCJKsc-Regular-65" transform="translate(649.599854 0)"/>
     <use xlink:href="#NotoSansCJKsc-Regular-73" transform="translate(704.999847 0)"/>
     <use xlink:href="#NotoSansCJKsc-Regular-20" transform="translate(751.799835 0)"/>
     <use xlink:href="#NotoSansCJKsc-Regular-20" transform="translate(774.199829 0)"/>
     <use xlink:href="#NotoSansCJKsc-Regular-2d" transform="translate(796.599823 0)"/>
     <use xlink:href="#NotoSansCJKsc-Regular-3e" transform="translate(831.29982 0)"/>
     <use xlink:href="#NotoSansCJKsc-Regular-20" transform="translate(886.799805 0)"/>
     <use xlink:href="#NotoSansCJKsc-Regular-20" transform="translate(909.199799 0)"/>
     <use xlink:href="#NotoSansCJKsc-Regular-7e" transform="translate(931.599792 0)"/>
     <use xlink:href="#NotoSansCJKsc-Regular-31" transform="translate(987.099777 0)"/>
     <use xlink:href="#NotoSansCJKsc-Regular-30" transform="translate(1042.599762 0)"/>
     <use xlink:href="#NotoSansCJKsc-Regular-32" transform="translate(1098.099747 0)"/>
     <use xlink:href="#NotoSansCJKsc-Regular-20" transform="translate(1153.599731 0)"/>
     <use xlink:href="#NotoSansCJKsc-Regular-6d" transform="translate(1175.999725 0)"/>
     <use xlink:href="#NotoSansCJKsc-Regular-75" transform="translate(1268.599716 0)"/>
     <use xlink:href="#NotoSansCJKsc-Regular-6c" transform="translate(1329.299713 0)"/>
     <use xlink:href="#NotoSansCJKsc-Regular-74" transform="translate(1357.699707 0)"/>
     <use xlink:href="#NotoSansCJKsc-Regular-69" transform="translate(1395.399704 0)"/>
     <use xlink:href="#NotoSansCJKsc-Regular-6d" transform="translate(1422.899689 0)"/>
     <use xlink:href="#NotoSansCJKsc-Regular-6f" transform="translate(1515.49968 0)"/>
     <use xlink:href="#NotoSansCJKsc-Regular-64" transform="translate(1576.09967 0)"/>
     <use xlink:href="#NotoSansCJKsc-Regular-61" transform="translate(1638.099655 0)"/>
     <use xlink:href="#NotoSansCJKsc-Regular-6c" transform="translate(1694.399643 0)"/>
     <use xlink:href="#NotoSansCJKsc-Regular-20" transform="translate(1722.799637 0)"/>
     <use xlink:href="#NotoSansCJKsc-Regular-65" transform="translate(1745.199631 0)"/>
     <use xlink:href="#NotoSansCJKsc-Regular-76" transform="translate(1800.599625 0)"/>
     <use xlink:href="#NotoSansCJKsc-Regular-65" transform="translate(1852.699615 0)"/>
     <use xlink:href="#NotoSansCJKsc-Regular-6e" transform="translate(1908.099609 0)"/>
     <use xlink:href="#NotoSansCJKsc-Regular-74" transform="translate(1969.099594 0)"/>
     <use xlink:href="#NotoSansCJKsc-Regular-73" transform="translate(2006.799591 0)"/>
     <use xlink:href="#NotoSansCJKsc-Regular-2f" transform="translate(2053.599579 0)"/>
     <use xlink:href="#NotoSansCJKsc-Regular-66" transform="translate(2092.799576 0)"/>
     <use xlink:href="#NotoSansCJKsc-Regular-69" transform="translate(2125.299561 0)"/>
     <use xlink:href="#NotoSansCJKsc-Regular-6c" transform="translate(2152.799545 0)"/>
     <use xlink:href="#NotoSansCJKsc-Regular-6d" transform="translate(2181.199539 0)"/>
     <use xlink:href="#NotoSansCJKsc-Regular-20" transform="translate(2273.79953 0)"/>
     <use xlink:href="#NotoSansCJKsc-Regular-28" transform="translate(2296.199524 0)"/>
     <use xlink:href="#NotoSansCJKsc-Regular-76" transform="translate(2329.999512 0)"/>
     <use xlink:href="#NotoSansCJKsc-Regular-69" transform="translate(2382.099503 0)"/>
     <use xlink:href="#NotoSansCJKsc-Regular-73" transform="translate(2409.599487 0)"/>
     <use xlink:href="#NotoSansCJKsc-Regular-75" transform="translate(2456.399475 0)"/>
     <use xlink:href="#NotoSansCJKsc-Regular-61" transform="translate(2517.099472 0)"/>
     <use xlink:href="#NotoSansCJKsc-Regular-6c" transform="translate(2573.39946 0)"/>
     <use xlink:href="#NotoSansCJKsc-Regular-20" transform="translate(2601.799454 0)"/>
     <use xlink:href="#NotoSansCJKsc-Regular-2b" transform="translate(2624.199448 0)"/>
     <use xlink:href="#NotoSansCJKsc-Regular-20" transform="translate(2679.699432 0)"/>
     <use xlink:href="#NotoSansCJKsc-Regular-64" transform="translate(2702.099426 0)"/>
     <use xlink:href="#NotoSansCJKsc-Regular-69" transform="translate(2764.099411 0)"/>
     <use xlink:href="#NotoSansCJKsc-Regular-61" transform="translate(2791.599396 0)"/>
     <use xlink:href="#NotoSansCJKsc-Regular-6c" transform="translate(2847.899384 0)"/>
     <use xlink:href="#NotoSansCJKsc-Regular-6f" transform="translate(2876.299377 0)"/>
     <use xlink:href="#NotoSansCJKsc-Regular-67" transform="translate(2936.899368 0)"/>
     <use xlink:href="#NotoSansCJKsc-Regular-75" transform="translate(2993.299362 0)"/>
     <use xlink:href="#NotoSansCJKsc-Regular-65" transform="translate(3053.999359 0)"/>
     <use xlink:href="#NotoSansCJKsc-Regular-20" transform="translate(3109.399353 0)"/>
     <use xlink:href="#NotoSansCJKsc-Regular-2b" transform="translate(3131.799347 0)"/>
     <use xlink:href="#NotoSansCJKsc-Regular-20" transform="translate(3187.299332 0)"/>
     <use xlink:href="#NotoSansCJKsc-Regular-61" transform="translate(3209.699326 0)"/>
     <use xlink:href="#NotoSansCJKsc-Regular-75" transform="translate(3265.999313 0)"/>
     <use xlink:href="#NotoSansCJKsc-Regular-64" transform="translate(3326.69931 0)"/>
     <use xlink:href="#NotoSansCJKsc-Regular-69" transform="translate(3388.699295 0)"/>
     <use xlink:href="#NotoSansCJKsc-Regular-6f" transform="translate(3416.19928 0)"/>
     <use xlink:href="#NotoSansCJKsc-Regular-29" transform="translate(3476.799271 0)"/>
     <use xlink:href="#NotoSansCJKsc-Regular-20" transform="translate(3510.599258 0)"/>
     <use xlink:href="#NotoSansCJKsc-Regular-20" transform="translate(3532.999252 0)"/>
     <use xlink:href="#NotoSansCJKsc-Regular-2d" transform="translate(3555.399246 0)"/>
     <use xlink:href="#NotoSansCJKsc-Regular-3e" transform="translate(3590.099243 0)"/>
     <use xlink:href="#NotoSansCJKsc-Regular-20" transform="translate(3645.599228 0)"/>
     <use xlink:href="#NotoSansCJKsc-Regular-20" transform="translate(3667.999222 0)"/>
     <use xlink:href="#NotoSansCJKsc-Regular-6c" transform="translate(3690.399216 0)"/>
     <use xlink:href="#NotoSansCJKsc-Regular-69" transform="translate(3718.79921 0)"/>
     <use xlink:href="#NotoSansCJKsc-Regular-6e" transform="translate(3746.299194 0)"/>
     <use xlink:href="#NotoSansCJKsc-Regular-6b" transform="translate(3807.299179 0)"/>
     <use xlink:href="#NotoSansCJKsc-Regular-65" transform="translate(3862.499176 0)"/>
     <use xlink:href="#NotoSansCJKsc-Regular-64" transform="translate(3917.89917 0)"/>
     <use xlink:href="#NotoSansCJKsc-Regular-20" transform="translate(3979.899155 0)"/>
     <use xlink:href="#NotoSansCJKsc-Regular-62" transform="translate(4002.299149 0)"/>
     <use xlink:href="#NotoSansCJKsc-Regular-79" transform="translate(4064.099136 0)"/>
     <use xlink:href="#NotoSansCJKsc-Regular-20" transform="translate(4116.199127 0)"/>
     <use xlink:href="#NotoSansCJKsc-Regular-72" transform="translate(4138.599121 0)"/>
     <use xlink:href="#NotoSansCJKsc-Regular-65" transform="translate(4177.399109 0)"/>
     <use xlink:href="#NotoSansCJKsc-Regular-6c" transform="translate(4232.799103 0)"/>
     <use xlink:href="#NotoSansCJKsc-Regular-61" transform="translate(4261.199097 0)"/>
     <use xlink:href="#NotoSansCJKsc-Regular-74" transform="translate(4317.499084 0)"/>
     <use xlink:href="#NotoSansCJKsc-Regular-69" transform="translate(4355.199081 0)"/>
     <use xlink:href="#NotoSansCJKsc-Regular-6f" transform="translate(4382.699066 0)"/>
     <use xlink:href="#NotoSansCJKsc-Regular-6e" transform="translate(4443.299057 0)"/>
     <use xlink:href="#NotoSansCJKsc-Regular-73" transform="translate(4504.299042 0)"/>
     <use xlink:href="#NotoSansCJKsc-Regular-20" transform="translate(4551.09903 0)"/>
     <use xlink:href="#NotoSansCJKsc-Regular-20" transform="translate(4573.499023 0)"/>
     <use xlink:href="#NotoSansCJKsc-Regular-2d" transform="translate(4595.899017 0)"/>
     <use xlink:href="#NotoSansCJKsc-Regular-3e" transform="translate(4630.599014 0)"/>
     <use xlink:href="#NotoSansCJKsc-Regular-20" transform="translate(4686.098999 0)"/>
     <use xlink:href="#NotoSansCJKsc-Regular-20" transform="translate(4708.498993 0)"/>
     <use xlink:href="#NotoSansCJKsc-Regular-34" transform="translate(4730.898987 0)"/>
     <use xlink:href="#NotoSansCJKsc-Regular-20" transform="translate(4786.398972 0)"/>
     <use xlink:href="#NotoSansCJKsc-Regular-74" transform="translate(4808.798965 0)"/>
     <use xlink:href="#NotoSansCJKsc-Regular-61" transform="translate(4846.498962 0)"/>
     <use xlink:href="#NotoSansCJKsc-Regular-73" transform="translate(4902.79895 0)"/>
     <use xlink:href="#NotoSansCJKsc-Regular-6b" transform="translate(4949.598938 0)"/>
     <use xlink:href="#NotoSansCJKsc-Regular-73" transform="translate(5004.798935 0)"/>
    </g>
   </g>
   <g id="text_3">
    <!-- Full-length movies -->
    <g style="fill: #0891b2" transform="translate(30.98032 106.923292) scale(0.105 -0.105)">
     <defs>
      <path id="NotoSansCJKsc-Bold-46" d="M 582 0 
L 1530 0 
L 1530 1920 
L 3213 1920 
L 3213 2714 
L 1530 2714 
L 1530 3949 
L 3501 3949 
L 3501 4742 
L 582 4742 
L 582 0 
z
" transform="scale(0.015625)"/>
      <path id="NotoSansCJKsc-Bold-6c" d="M 1395 -90 
C 1613 -90 1766 -51 1875 -6 
L 1760 691 
C 1696 678 1670 678 1632 678 
C 1542 678 1446 749 1446 966 
L 1446 5107 
L 506 5107 
L 506 1005 
C 506 339 736 -90 1395 -90 
z
" transform="scale(0.015625)"/>
      <path id="NotoSansCJKsc-Bold-2d" d="M 314 1491 
L 2061 1491 
L 2061 2170 
L 314 2170 
L 314 1491 
z
" transform="scale(0.015625)"/>
      <path id="NotoSansCJKsc-Bold-67" d="M 1766 -1555 
C 2963 -1555 3718 -1005 3718 -282 
C 3718 346 3245 614 2381 614 
L 1766 614 
C 1350 614 1203 717 1203 902 
C 1203 1056 1267 1133 1357 1216 
C 1517 1158 1683 1133 1818 1133 
C 2592 1133 3206 1536 3206 2349 
C 3206 2573 3136 2771 3046 2893 
L 3654 2893 
L 3654 3584 
L 2368 3584 
C 2214 3635 2029 3674 1818 3674 
C 1062 3674 378 3219 378 2381 
C 378 1958 608 1619 858 1440 
L 858 1414 
C 640 1261 461 1011 461 749 
C 461 448 595 262 787 141 
L 787 109 
C 448 -77 275 -333 275 -634 
C 275 -1267 922 -1555 1766 -1555 
z
M 1818 1715 
C 1510 1715 1261 1952 1261 2381 
C 1261 2797 1504 3027 1818 3027 
C 2138 3027 2387 2797 2387 2381 
C 2387 1952 2138 1715 1818 1715 
z
M 1907 -954 
C 1389 -954 1056 -787 1056 -493 
C 1056 -339 1126 -198 1286 -70 
C 1421 -102 1568 -115 1779 -115 
L 2221 -115 
C 2605 -115 2816 -186 2816 -442 
C 2816 -717 2451 -954 1907 -954 
z
" transform="scale(0.015625)"/>
      <path id="NotoSansCJKsc-Bold-68" d="M 506 0 
L 1446 0 
L 1446 2464 
C 1709 2726 1901 2867 2189 2867 
C 2541 2867 2694 2675 2694 2118 
L 2694 0 
L 3635 0 
L 3635 2234 
C 3635 3136 3302 3674 2528 3674 
C 2042 3674 1683 3418 1402 3149 
L 1446 3821 
L 1446 5107 
L 506 5107 
L 506 0 
z
" transform="scale(0.015625)"/>
      <path id="NotoSansCJKsc-Bold-6f" d="M 2003 -90 
C 2899 -90 3725 602 3725 1792 
C 3725 2982 2899 3674 2003 3674 
C 1101 3674 282 2982 282 1792 
C 282 602 1101 -90 2003 -90 
z
M 2003 678 
C 1510 678 1242 1114 1242 1792 
C 1242 2464 1510 2906 2003 2906 
C 2490 2906 2765 2464 2765 1792 
C 2765 1114 2490 678 2003 678 
z
" transform="scale(0.015625)"/>
     </defs>
     <use xlink:href="#NotoSansCJKsc-Bold-46"/>
     <use xlink:href="#NotoSansCJKsc-Bold-75" transform="translate(58.499985 0)"/>
     <use xlink:href="#NotoSansCJKsc-Bold-6c" transform="translate(122.199982 0)"/>
     <use xlink:href="#NotoSansCJKsc-Bold-6c" transform="translate(153.699966 0)"/>
     <use xlink:href="#NotoSansCJKsc-Bold-2d" transform="translate(185.199951 0)"/>
     <use xlink:href="#NotoSansCJKsc-Bold-6c" transform="translate(222.199936 0)"/>
     <use xlink:href="#NotoSansCJKsc-Bold-65" transform="translate(253.699921 0)"/>
     <use xlink:href="#NotoSansCJKsc-Bold-6e" transform="translate(311.799911 0)"/>
     <use xlink:href="#NotoSansCJKsc-Bold-67" transform="translate(375.899902 0)"/>
     <use xlink:href="#NotoSansCJKsc-Bold-74" transform="translate(435.599899 0)"/>
     <use xlink:href="#NotoSansCJKsc-Bold-68" transform="translate(477.69989 0)"/>
     <use xlink:href="#NotoSansCJKsc-Bold-20" transform="translate(541.699875 0)"/>
     <use xlink:href="#NotoSansCJKsc-Bold-6d" transform="translate(564.399872 0)"/>
     <use xlink:href="#NotoSansCJKsc-Bold-6f" transform="translate(660.799866 0)"/>
     <use xlink:href="#NotoSansCJKsc-Bold-76" transform="translate(723.399857 0)"/>
     <use xlink:href="#NotoSansCJKsc-Bold-69" transform="translate(780.999847 0)"/>
     <use xlink:href="#NotoSansCJKsc-Bold-65" transform="translate(811.399841 0)"/>
     <use xlink:href="#NotoSansCJKsc-Bold-73" transform="translate(869.499832 0)"/>
    </g>
   </g>
   <g id="text_4">
    <!-- 1005 films (avg ~98 min) -->
    <g style="fill: #475569" transform="translate(28.853719 121.071607) scale(0.09 -0.09)">
     <defs>
      <path id="NotoSansCJKsc-Regular-39" d="M 1504 -83 
C 2381 -83 3206 646 3206 2547 
C 3206 4038 2528 4774 1626 4774 
C 896 4774 282 4166 282 3251 
C 282 2285 794 1779 1574 1779 
C 1965 1779 2368 2003 2656 2349 
C 2611 896 2086 403 1485 403 
C 1178 403 896 538 691 762 
L 371 397 
C 634 122 992 -83 1504 -83 
z
M 2650 2842 
C 2336 2394 1984 2214 1670 2214 
C 1114 2214 832 2624 832 3251 
C 832 3898 1178 4320 1632 4320 
C 2227 4320 2586 3808 2650 2842 
z
" transform="scale(0.015625)"/>
      <path id="NotoSansCJKsc-Regular-38" d="M 1792 -83 
C 2669 -83 3258 448 3258 1126 
C 3258 1773 2880 2125 2470 2362 
L 2470 2394 
C 2746 2611 3091 3034 3091 3526 
C 3091 4250 2605 4762 1805 4762 
C 1075 4762 518 4282 518 3571 
C 518 3078 813 2726 1152 2490 
L 1152 2464 
C 723 2234 294 1792 294 1165 
C 294 442 922 -83 1792 -83 
z
M 2112 2547 
C 1555 2765 1050 3014 1050 3571 
C 1050 4026 1363 4326 1798 4326 
C 2298 4326 2592 3962 2592 3494 
C 2592 3149 2426 2829 2112 2547 
z
M 1798 352 
C 1235 352 813 717 813 1216 
C 813 1664 1082 2035 1459 2278 
C 2125 2010 2701 1779 2701 1146 
C 2701 678 2342 352 1798 352 
z
" transform="scale(0.015625)"/>
     </defs>
     <use xlink:href="#NotoSansCJKsc-Regular-31"/>
     <use xlink:href="#NotoSansCJKsc-Regular-30" transform="translate(55.499985 0)"/>
     <use xlink:href="#NotoSansCJKsc-Regular-30" transform="translate(110.999969 0)"/>
     <use xlink:href="#NotoSansCJKsc-Regular-35" transform="translate(166.499954 0)"/>
     <use xlink:href="#NotoSansCJKsc-Regular-20" transform="translate(221.999939 0)"/>
     <use xlink:href="#NotoSansCJKsc-Regular-66" transform="translate(244.399933 0)"/>
     <use xlink:href="#NotoSansCJKsc-Regular-69" transform="translate(276.899918 0)"/>
     <use xlink:href="#NotoSansCJKsc-Regular-6c" transform="translate(304.399902 0)"/>
     <use xlink:href="#NotoSansCJKsc-Regular-6d" transform="translate(332.799896 0)"/>
     <use xlink:href="#NotoSansCJKsc-Regular-73" transform="translate(425.399887 0)"/>
     <use xlink:href="#NotoSansCJKsc-Regular-20" transform="translate(472.199875 0)"/>
     <use xlink:href="#NotoSansCJKsc-Regular-28" transform="translate(494.599869 0)"/>
     <use xlink:href="#NotoSansCJKsc-Regular-61" transform="translate(528.399857 0)"/>
     <use xlink:href="#NotoSansCJKsc-Regular-76" transform="translate(584.699844 0)"/>
     <use xlink:href="#NotoSansCJKsc-Regular-67" transform="translate(636.799835 0)"/>
     <use xlink:href="#NotoSansCJKsc-Regular-20" transform="translate(693.199829 0)"/>
     <use xlink:href="#NotoSansCJKsc-Regular-7e" transform="translate(715.599823 0)"/>
     <use xlink:href="#NotoSansCJKsc-Regular-39" transform="translate(771.099808 0)"/>
     <use xlink:href="#NotoSansCJKsc-Regular-38" transform="translate(826.599792 0)"/>
     <use xlink:href="#NotoSansCJKsc-Regular-20" transform="translate(882.099777 0)"/>
     <use xlink:href="#NotoSansCJKsc-Regular-6d" transform="translate(904.499771 0)"/>
     <use xlink:href="#NotoSansCJKsc-Regular-69" transform="translate(997.099762 0)"/>
     <use xlink:href="#NotoSansCJKsc-Regular-6e" transform="translate(1024.599747 0)"/>
     <use xlink:href="#NotoSansCJKsc-Regular-29" transform="translate(1085.599731 0)"/>
    </g>
   </g>
   <g id="text_5">
    <!-- 1639.3 total hours -->
    <g style="fill: #475569" transform="translate(41.498719 133.624526) scale(0.09 -0.09)">
     <defs>
      <path id="NotoSansCJKsc-Regular-36" d="M 1926 -83 
C 2656 -83 3277 531 3277 1440 
C 3277 2426 2765 2912 1971 2912 
C 1606 2912 1197 2701 909 2349 
C 934 3802 1466 4294 2118 4294 
C 2400 4294 2682 4154 2861 3936 
L 3194 4294 
C 2931 4576 2579 4774 2093 4774 
C 1184 4774 358 4077 358 2240 
C 358 691 1030 -83 1926 -83 
z
M 922 1882 
C 1229 2317 1587 2477 1875 2477 
C 2445 2477 2720 2074 2720 1440 
C 2720 800 2374 378 1926 378 
C 1338 378 986 909 922 1882 
z
" transform="scale(0.015625)"/>
      <path id="NotoSansCJKsc-Regular-33" d="M 1683 -83 
C 2522 -83 3194 416 3194 1254 
C 3194 1901 2752 2310 2202 2445 
L 2202 2477 
C 2701 2650 3034 3034 3034 3603 
C 3034 4346 2458 4774 1664 4774 
C 1126 4774 710 4538 358 4218 
L 672 3846 
C 941 4115 1267 4301 1645 4301 
C 2138 4301 2438 4006 2438 3558 
C 2438 3053 2112 2662 1139 2662 
L 1139 2214 
C 2227 2214 2598 1843 2598 1274 
C 2598 736 2208 403 1645 403 
C 1114 403 762 659 486 941 
L 186 563 
C 493 224 954 -83 1683 -83 
z
" transform="scale(0.015625)"/>
      <path id="NotoSansCJKsc-Regular-2e" d="M 890 -83 
C 1120 -83 1312 96 1312 358 
C 1312 627 1120 806 890 806 
C 653 806 467 627 467 358 
C 467 96 653 -83 890 -83 
z
" transform="scale(0.015625)"/>
      <path id="NotoSansCJKsc-Regular-68" d="M 589 0 
L 1178 0 
L 1178 2522 
C 1523 2874 1766 3053 2125 3053 
C 2586 3053 2784 2778 2784 2125 
L 2784 0 
L 3366 0 
L 3366 2202 
C 3366 3085 3034 3565 2304 3565 
C 1830 3565 1472 3302 1152 2982 
L 1178 3699 
L 1178 5094 
L 589 5094 
L 589 0 
z
" transform="scale(0.015625)"/>
     </defs>
     <use xlink:href="#NotoSansCJKsc-Regular-31"/>
     <use xlink:href="#NotoSansCJKsc-Regular-36" transform="translate(55.499985 0)"/>
     <use xlink:href="#NotoSansCJKsc-Regular-33" transform="translate(110.999969 0)"/>
     <use xlink:href="#NotoSansCJKsc-Regular-39" transform="translate(166.499954 0)"/>
     <use xlink:href="#NotoSansCJKsc-Regular-2e" transform="translate(221.999939 0)"/>
     <use xlink:href="#NotoSansCJKsc-Regular-33" transform="translate(249.799927 0)"/>
     <use xlink:href="#NotoSansCJKsc-Regular-20" transform="translate(305.299911 0)"/>
     <use xlink:href="#NotoSansCJKsc-Regular-74" transform="translate(327.699905 0)"/>
     <use xlink:href="#NotoSansCJKsc-Regular-6f" transform="translate(365.399902 0)"/>
     <use xlink:href="#NotoSansCJKsc-Regular-74" transform="translate(425.999893 0)"/>
     <use xlink:href="#NotoSansCJKsc-Regular-61" transform="translate(463.69989 0)"/>
     <use xlink:href="#NotoSansCJKsc-Regular-6c" transform="translate(519.999878 0)"/>
     <use xlink:href="#NotoSansCJKsc-Regular-20" transform="translate(548.399872 0)"/>
     <use xlink:href="#NotoSansCJKsc-Regular-68" transform="translate(570.799866 0)"/>
     <use xlink:href="#NotoSansCJKsc-Regular-6f" transform="translate(631.499863 0)"/>
     <use xlink:href="#NotoSansCJKsc-Regular-75" transform="translate(692.099854 0)"/>
     <use xlink:href="#NotoSansCJKsc-Regular-72" transform="translate(752.79985 0)"/>
     <use xlink:href="#NotoSansCJKsc-Regular-73" transform="translate(791.599838 0)"/>
    </g>
   </g>
   <g id="text_6">
    <!-- untrimmed, complete -->
    <g style="fill: #475569" transform="translate(33.254578 146.375725) scale(0.09 -0.09)">
     <defs>
      <path id="NotoSansCJKsc-Regular-2c" d="M 480 -1216 
C 1056 -973 1414 -493 1414 122 
C 1414 550 1229 806 922 806 
C 685 806 480 653 480 397 
C 480 141 678 -13 909 -13 
L 979 -6 
C 973 -390 736 -698 339 -870 
L 480 -1216 
z
" transform="scale(0.015625)"/>
      <path id="NotoSansCJKsc-Regular-63" d="M 1958 -83 
C 2374 -83 2771 83 3085 352 
L 2829 749 
C 2611 557 2330 403 2010 403 
C 1370 403 934 934 934 1734 
C 934 2534 1395 3072 2029 3072 
C 2298 3072 2522 2950 2720 2771 
L 3014 3155 
C 2771 3373 2458 3565 2003 3565 
C 1107 3565 333 2893 333 1734 
C 333 582 1037 -83 1958 -83 
z
" transform="scale(0.015625)"/>
      <path id="NotoSansCJKsc-Regular-70" d="M 589 -1466 
L 1178 -1466 
L 1178 -288 
L 1158 320 
C 1472 58 1805 -83 2118 -83 
C 2912 -83 3629 602 3629 1792 
C 3629 2867 3142 3565 2246 3565 
C 1843 3565 1453 3334 1139 3072 
L 1126 3072 
L 1069 3475 
L 589 3475 
L 589 -1466 
z
M 2022 410 
C 1792 410 1485 499 1178 768 
L 1178 2598 
C 1510 2906 1811 3072 2099 3072 
C 2765 3072 3021 2560 3021 1786 
C 3021 928 2598 410 2022 410 
z
" transform="scale(0.015625)"/>
     </defs>
     <use xlink:href="#NotoSansCJKsc-Regular-75"/>
     <use xlink:href="#NotoSansCJKsc-Regular-6e" transform="translate(60.699997 0)"/>
     <use xlink:href="#NotoSansCJKsc-Regular-74" transform="translate(121.699982 0)"/>
     <use xlink:href="#NotoSansCJKsc-Regular-72" transform="translate(159.399979 0)"/>
     <use xlink:href="#NotoSansCJKsc-Regular-69" transform="translate(198.199966 0)"/>
     <use xlink:href="#NotoSansCJKsc-Regular-6d" transform="translate(225.699951 0)"/>
     <use xlink:href="#NotoSansCJKsc-Regular-6d" transform="translate(318.299942 0)"/>
     <use xlink:href="#NotoSansCJKsc-Regular-65" transform="translate(410.899933 0)"/>
     <use xlink:href="#NotoSansCJKsc-Regular-64" transform="translate(466.299927 0)"/>
     <use xlink:href="#NotoSansCJKsc-Regular-2c" transform="translate(528.299911 0)"/>
     <use xlink:href="#NotoSansCJKsc-Regular-20" transform="translate(556.099899 0)"/>
     <use xlink:href="#NotoSansCJKsc-Regular-63" transform="translate(578.499893 0)"/>
     <use xlink:href="#NotoSansCJKsc-Regular-6f" transform="translate(629.499878 0)"/>
     <use xlink:href="#NotoSansCJKsc-Regular-6d" transform="translate(690.099869 0)"/>
     <use xlink:href="#NotoSansCJKsc-Regular-70" transform="translate(782.69986 0)"/>
     <use xlink:href="#NotoSansCJKsc-Regular-6c" transform="translate(844.699844 0)"/>
     <use xlink:href="#NotoSansCJKsc-Regular-65" transform="translate(873.099838 0)"/>
     <use xlink:href="#NotoSansCJKsc-Regular-74" transform="translate(928.499832 0)"/>
     <use xlink:href="#NotoSansCJKsc-Regular-65" transform="translate(966.199829 0)"/>
    </g>
   </g>
   <g id="text_7">
    <!-- Multimodal events -->
    <g style="fill: #2563eb" transform="translate(182.885977 106.78712) scale(0.105 -0.105)">
     <defs>
      <path id="NotoSansCJKsc-Bold-4d" d="M 582 0 
L 1434 0 
L 1434 1978 
C 1434 2432 1357 3085 1312 3533 
L 1338 3533 
L 1715 2419 
L 2451 429 
L 2995 429 
L 3725 2419 
L 4109 3533 
L 4141 3533 
C 4090 3085 4019 2432 4019 1978 
L 4019 0 
L 4883 0 
L 4883 4742 
L 3834 4742 
L 3040 2515 
C 2944 2227 2861 1914 2758 1613 
L 2726 1613 
C 2630 1914 2541 2227 2438 2515 
L 1632 4742 
L 582 4742 
L 582 0 
z
" transform="scale(0.015625)"/>
      <path id="NotoSansCJKsc-Bold-64" d="M 1766 -90 
C 2138 -90 2496 109 2758 371 
L 2784 371 
L 2854 0 
L 3622 0 
L 3622 5107 
L 2682 5107 
L 2682 3846 
L 2714 3283 
C 2458 3520 2208 3674 1805 3674 
C 1037 3674 301 2957 301 1792 
C 301 614 870 -90 1766 -90 
z
M 2010 685 
C 1536 685 1267 1056 1267 1805 
C 1267 2515 1606 2899 2010 2899 
C 2240 2899 2464 2829 2682 2630 
L 2682 1056 
C 2477 787 2259 685 2010 685 
z
" transform="scale(0.015625)"/>
     </defs>
     <use xlink:href="#NotoSansCJKsc-Bold-4d"/>
     <use xlink:href="#NotoSansCJKsc-Bold-75" transform="translate(85.299988 0)"/>
     <use xlink:href="#NotoSansCJKsc-Bold-6c" transform="translate(148.999985 0)"/>
     <use xlink:href="#NotoSansCJKsc-Bold-74" transform="translate(180.499969 0)"/>
     <use xlink:href="#NotoSansCJKsc-Bold-69" transform="translate(222.59996 0)"/>
     <use xlink:href="#NotoSansCJKsc-Bold-6d" transform="translate(252.999954 0)"/>
     <use xlink:href="#NotoSansCJKsc-Bold-6f" transform="translate(349.399948 0)"/>
     <use xlink:href="#NotoSansCJKsc-Bold-64" transform="translate(411.999939 0)"/>
     <use xlink:href="#NotoSansCJKsc-Bold-61" transform="translate(476.399933 0)"/>
     <use xlink:href="#NotoSansCJKsc-Bold-6c" transform="translate(535.499924 0)"/>
     <use xlink:href="#NotoSansCJKsc-Bold-20" transform="translate(566.999908 0)"/>
     <use xlink:href="#NotoSansCJKsc-Bold-65" transform="translate(589.699905 0)"/>
     <use xlink:href="#NotoSansCJKsc-Bold-76" transform="translate(647.799896 0)"/>
     <use xlink:href="#NotoSansCJKsc-Bold-65" transform="translate(705.399887 0)"/>
     <use xlink:href="#NotoSansCJKsc-Bold-6e" transform="translate(763.499878 0)"/>
     <use xlink:href="#NotoSansCJKsc-Bold-74" transform="translate(827.599869 0)"/>
     <use xlink:href="#NotoSansCJKsc-Bold-73" transform="translate(869.69986 0)"/>
    </g>
   </g>
   <g id="text_8">
    <!-- ~102 events / film -->
    <g style="fill: #475569" transform="translate(194.340234 120.873325) scale(0.09 -0.09)">
     <use xlink:href="#NotoSansCJKsc-Regular-7e"/>
     <use xlink:href="#NotoSansCJKsc-Regular-31" transform="translate(55.499985 0)"/>
     <use xlink:href="#NotoSansCJKsc-Regular-30" transform="translate(110.999969 0)"/>
     <use xlink:href="#NotoSansCJKsc-Regular-32" transform="translate(166.499954 0)"/>
     <use xlink:href="#NotoSansCJKsc-Regular-20" transform="translate(221.999939 0)"/>
     <use xlink:href="#NotoSansCJKsc-Regular-65" transform="translate(244.399933 0)"/>
     <use xlink:href="#NotoSansCJKsc-Regular-76" transform="translate(299.799927 0)"/>
     <use xlink:href="#NotoSansCJKsc-Regular-65" transform="translate(351.899918 0)"/>
     <use xlink:href="#NotoSansCJKsc-Regular-6e" transform="translate(407.299911 0)"/>
     <use xlink:href="#NotoSansCJKsc-Regular-74" transform="translate(468.299896 0)"/>
     <use xlink:href="#NotoSansCJKsc-Regular-73" transform="translate(505.999893 0)"/>
     <use xlink:href="#NotoSansCJKsc-Regular-20" transform="translate(552.799881 0)"/>
     <use xlink:href="#NotoSansCJKsc-Regular-2f" transform="translate(575.199875 0)"/>
     <use xlink:href="#NotoSansCJKsc-Regular-20" transform="translate(614.399872 0)"/>
     <use xlink:href="#NotoSansCJKsc-Regular-66" transform="translate(636.799866 0)"/>
     <use xlink:href="#NotoSansCJKsc-Regular-69" transform="translate(669.29985 0)"/>
     <use xlink:href="#NotoSansCJKsc-Regular-6c" transform="translate(696.799835 0)"/>
     <use xlink:href="#NotoSansCJKsc-Regular-6d" transform="translate(725.199829 0)"/>
    </g>
   </g>
   <g id="text_9">
    <!-- grounded in visual, -->
    <g style="fill: #475569" transform="translate(191.100938 133.624526) scale(0.09 -0.09)">
     <use xlink:href="#NotoSansCJKsc-Regular-67"/>
     <use xlink:href="#NotoSansCJKsc-Regular-72" transform="translate(56.399994 0)"/>
     <use xlink:href="#NotoSansCJKsc-Regular-6f" transform="translate(95.199982 0)"/>
     <use xlink:href="#NotoSansCJKsc-Regular-75" transform="translate(155.799973 0)"/>
     <use xlink:href="#NotoSansCJKsc-Regular-6e" transform="translate(216.499969 0)"/>
     <use xlink:href="#NotoSansCJKsc-Regular-64" transform="translate(277.499954 0)"/>
     <use xlink:href="#NotoSansCJKsc-Regular-65" transform="translate(339.499939 0)"/>
     <use xlink:href="#NotoSansCJKsc-Regular-64" transform="translate(394.899933 0)"/>
     <use xlink:href="#NotoSansCJKsc-Regular-20" transform="translate(456.899918 0)"/>
     <use xlink:href="#NotoSansCJKsc-Regular-69" transform="translate(479.299911 0)"/>
     <use xlink:href="#NotoSansCJKsc-Regular-6e" transform="translate(506.799896 0)"/>
     <use xlink:href="#NotoSansCJKsc-Regular-20" transform="translate(567.799881 0)"/>
     <use xlink:href="#NotoSansCJKsc-Regular-76" transform="translate(590.199875 0)"/>
     <use xlink:href="#NotoSansCJKsc-Regular-69" transform="translate(642.299866 0)"/>
     <use xlink:href="#NotoSansCJKsc-Regular-73" transform="translate(669.79985 0)"/>
     <use xlink:href="#NotoSansCJKsc-Regular-75" transform="translate(716.599838 0)"/>
     <use xlink:href="#NotoSansCJKsc-Regular-61" transform="translate(777.299835 0)"/>
     <use xlink:href="#NotoSansCJKsc-Regular-6c" transform="translate(833.599823 0)"/>
     <use xlink:href="#NotoSansCJKsc-Regular-2c" transform="translate(861.999817 0)"/>
    </g>
   </g>
   <g id="text_10">
    <!-- dialogue &amp; audio -->
    <g style="fill: #475569" transform="translate(195.717656 146.375725) scale(0.09 -0.09)">
     <defs>
      <path id="NotoSansCJKsc-Regular-26" d="M 1658 -83 
C 2208 -83 2650 128 3008 454 
C 3392 186 3757 0 4090 -83 
L 4243 403 
C 3981 474 3680 627 3366 851 
C 3738 1338 4006 1907 4186 2528 
L 3642 2528 
C 3494 1990 3270 1530 2982 1146 
C 2541 1510 2099 1978 1792 2464 
C 2317 2842 2848 3238 2848 3853 
C 2848 4397 2509 4774 1926 4774 
C 1280 4774 851 4294 851 3674 
C 851 3334 966 2957 1158 2573 
C 672 2240 230 1850 230 1216 
C 230 461 813 -83 1658 -83 
z
M 2624 762 
C 2355 531 2048 384 1728 384 
C 1203 384 800 723 800 1248 
C 800 1613 1062 1901 1395 2163 
C 1722 1658 2163 1165 2624 762 
z
M 1574 2848 
C 1434 3136 1350 3424 1350 3680 
C 1350 4064 1574 4365 1933 4365 
C 2246 4365 2374 4115 2374 3840 
C 2374 3424 2003 3142 1574 2848 
z
" transform="scale(0.015625)"/>
     </defs>
     <use xlink:href="#NotoSansCJKsc-Regular-64"/>
     <use xlink:href="#NotoSansCJKsc-Regular-69" transform="translate(61.999985 0)"/>
     <use xlink:href="#NotoSansCJKsc-Regular-61" transform="translate(89.499969 0)"/>
     <use xlink:href="#NotoSansCJKsc-Regular-6c" transform="translate(145.799957 0)"/>
     <use xlink:href="#NotoSansCJKsc-Regular-6f" transform="translate(174.199951 0)"/>
     <use xlink:href="#NotoSansCJKsc-Regular-67" transform="translate(234.799942 0)"/>
     <use xlink:href="#NotoSansCJKsc-Regular-75" transform="translate(291.199936 0)"/>
     <use xlink:href="#NotoSansCJKsc-Regular-65" transform="translate(351.899933 0)"/>
     <use xlink:href="#NotoSansCJKsc-Regular-20" transform="translate(407.299927 0)"/>
     <use xlink:href="#NotoSansCJKsc-Regular-26" transform="translate(429.699921 0)"/>
     <use xlink:href="#NotoSansCJKsc-Regular-20" transform="translate(497.699905 0)"/>
     <use xlink:href="#NotoSansCJKsc-Regular-61" transform="translate(520.099899 0)"/>
     <use xlink:href="#NotoSansCJKsc-Regular-75" transform="translate(576.399887 0)"/>
     <use xlink:href="#NotoSansCJKsc-Regular-64" transform="translate(637.099884 0)"/>
     <use xlink:href="#NotoSansCJKsc-Regular-69" transform="translate(699.099869 0)"/>
     <use xlink:href="#NotoSansCJKsc-Regular-6f" transform="translate(726.599854 0)"/>
    </g>
   </g>
   <g id="text_11">
    <!-- Narrative relations -->
    <g style="fill: #7c3aed" transform="translate(344.862117 106.78712) scale(0.105 -0.105)">
     <use xlink:href="#NotoSansCJKsc-Bold-4e"/>
     <use xlink:href="#NotoSansCJKsc-Bold-61" transform="translate(74.899994 0)"/>
     <use xlink:href="#NotoSansCJKsc-Bold-72" transform="translate(133.999985 0)"/>
     <use xlink:href="#NotoSansCJKsc-Bold-72" transform="translate(177.599976 0)"/>
     <use xlink:href="#NotoSansCJKsc-Bold-61" transform="translate(221.199966 0)"/>
     <use xlink:href="#NotoSansCJKsc-Bold-74" transform="translate(280.299957 0)"/>
     <use xlink:href="#NotoSansCJKsc-Bold-69" transform="translate(322.399948 0)"/>
     <use xlink:href="#NotoSansCJKsc-Bold-76" transform="translate(352.799942 0)"/>
     <use xlink:href="#NotoSansCJKsc-Bold-65" transform="translate(410.399933 0)"/>
     <use xlink:href="#NotoSansCJKsc-Bold-20" transform="translate(468.499924 0)"/>
     <use xlink:href="#NotoSansCJKsc-Bold-72" transform="translate(491.199921 0)"/>
     <use xlink:href="#NotoSansCJKsc-Bold-65" transform="translate(534.799911 0)"/>
     <use xlink:href="#NotoSansCJKsc-Bold-6c" transform="translate(592.899902 0)"/>
     <use xlink:href="#NotoSansCJKsc-Bold-61" transform="translate(624.399887 0)"/>
     <use xlink:href="#NotoSansCJKsc-Bold-74" transform="translate(683.499878 0)"/>
     <use xlink:href="#NotoSansCJKsc-Bold-69" transform="translate(725.599869 0)"/>
     <use xlink:href="#NotoSansCJKsc-Bold-6f" transform="translate(755.999863 0)"/>
     <use xlink:href="#NotoSansCJKsc-Bold-6e" transform="translate(818.599854 0)"/>
     <use xlink:href="#NotoSansCJKsc-Bold-73" transform="translate(882.699844 0)"/>
    </g>
   </g>
   <g id="text_12">
    <!-- temporal ordering -->
    <g style="fill: #475569" transform="translate(355.337859 120.873325) scale(0.09 -0.09)">
     <use xlink:href="#NotoSansCJKsc-Regular-74"/>
     <use xlink:href="#NotoSansCJKsc-Regular-65" transform="translate(37.699997 0)"/>
     <use xlink:href="#NotoSansCJKsc-Regular-6d" transform="translate(93.099991 0)"/>
     <use xlink:href="#NotoSansCJKsc-Regular-70" transform="translate(185.699982 0)"/>
     <use xlink:href="#NotoSansCJKsc-Regular-6f" transform="translate(247.699966 0)"/>
     <use xlink:href="#NotoSansCJKsc-Regular-72" transform="translate(308.299957 0)"/>
     <use xlink:href="#NotoSansCJKsc-Regular-61" transform="translate(347.099945 0)"/>
     <use xlink:href="#NotoSansCJKsc-Regular-6c" transform="translate(403.399933 0)"/>
     <use xlink:href="#NotoSansCJKsc-Regular-20" transform="translate(431.799927 0)"/>
     <use xlink:href="#NotoSansCJKsc-Regular-6f" transform="translate(454.199921 0)"/>
     <use xlink:href="#NotoSansCJKsc-Regular-72" transform="translate(514.799911 0)"/>
     <use xlink:href="#NotoSansCJKsc-Regular-64" transform="translate(553.599899 0)"/>
     <use xlink:href="#NotoSansCJKsc-Regular-65" transform="translate(615.599884 0)"/>
     <use xlink:href="#NotoSansCJKsc-Regular-72" transform="translate(670.999878 0)"/>
     <use xlink:href="#NotoSansCJKsc-Regular-69" transform="translate(709.799866 0)"/>
     <use xlink:href="#NotoSansCJKsc-Regular-6e" transform="translate(737.29985 0)"/>
     <use xlink:href="#NotoSansCJKsc-Regular-67" transform="translate(798.299835 0)"/>
    </g>
   </g>
   <g id="text_13">
    <!-- hierarchical composition -->
    <g style="fill: #475569" transform="translate(341.478563 133.624526) scale(0.09 -0.09)">
     <use xlink:href="#NotoSansCJKsc-Regular-68"/>
     <use xlink:href="#NotoSansCJKsc-Regular-69" transform="translate(60.699997 0)"/>
     <use xlink:href="#NotoSansCJKsc-Regular-65" transform="translate(88.199982 0)"/>
     <use xlink:href="#NotoSansCJKsc-Regular-72" transform="translate(143.599976 0)"/>
     <use xlink:href="#NotoSansCJKsc-Regular-61" transform="translate(182.399963 0)"/>
     <use xlink:href="#NotoSansCJKsc-Regular-72" transform="translate(238.699951 0)"/>
     <use xlink:href="#NotoSansCJKsc-Regular-63" transform="translate(277.499939 0)"/>
     <use xlink:href="#NotoSansCJKsc-Regular-68" transform="translate(328.499924 0)"/>
     <use xlink:href="#NotoSansCJKsc-Regular-69" transform="translate(389.199921 0)"/>
     <use xlink:href="#NotoSansCJKsc-Regular-63" transform="translate(416.699905 0)"/>
     <use xlink:href="#NotoSansCJKsc-Regular-61" transform="translate(467.69989 0)"/>
     <use xlink:href="#NotoSansCJKsc-Regular-6c" transform="translate(523.999878 0)"/>
     <use xlink:href="#NotoSansCJKsc-Regular-20" transform="translate(552.399872 0)"/>
     <use xlink:href="#NotoSansCJKsc-Regular-63" transform="translate(574.799866 0)"/>
     <use xlink:href="#NotoSansCJKsc-Regular-6f" transform="translate(625.79985 0)"/>
     <use xlink:href="#NotoSansCJKsc-Regular-6d" transform="translate(686.399841 0)"/>
     <use xlink:href="#NotoSansCJKsc-Regular-70" transform="translate(778.999832 0)"/>
     <use xlink:href="#NotoSansCJKsc-Regular-6f" transform="translate(840.999817 0)"/>
     <use xlink:href="#NotoSansCJKsc-Regular-73" transform="translate(901.599808 0)"/>
     <use xlink:href="#NotoSansCJKsc-Regular-69" transform="translate(948.399796 0)"/>
     <use xlink:href="#NotoSansCJKsc-Regular-74" transform="translate(975.89978 0)"/>
     <use xlink:href="#NotoSansCJKsc-Regular-69" transform="translate(1013.599777 0)"/>
     <use xlink:href="#NotoSansCJKsc-Regular-6f" transform="translate(1041.099762 0)"/>
     <use xlink:href="#NotoSansCJKsc-Regular-6e" transform="translate(1101.699753 0)"/>
    </g>
   </g>
   <g id="text_14">
    <!-- long-range dependency -->
    <g style="fill: #475569" transform="translate(343.906453 146.375725) scale(0.09 -0.09)">
     <use xlink:href="#NotoSansCJKsc-Regular-6c"/>
     <use xlink:href="#NotoSansCJKsc-Regular-6f" transform="translate(28.399994 0)"/>
     <use xlink:href="#NotoSansCJKsc-Regular-6e" transform="translate(88.999985 0)"/>
     <use xlink:href="#NotoSansCJKsc-Regular-67" transform="translate(149.999969 0)"/>
     <use xlink:href="#NotoSansCJKsc-Regular-2d" transform="translate(206.399963 0)"/>
     <use xlink:href="#NotoSansCJKsc-Regular-72" transform="translate(241.09996 0)"/>
     <use xlink:href="#NotoSansCJKsc-Regular-61" transform="translate(279.899948 0)"/>
     <use xlink:href="#NotoSansCJKsc-Regular-6e" transform="translate(336.199936 0)"/>
     <use xlink:href="#NotoSansCJKsc-Regular-67" transform="translate(397.199921 0)"/>
     <use xlink:href="#NotoSansCJKsc-Regular-65" transform="translate(453.599915 0)"/>
     <use xlink:href="#NotoSansCJKsc-Regular-20" transform="translate(508.999908 0)"/>
     <use xlink:href="#NotoSansCJKsc-Regular-64" transform="translate(531.399902 0)"/>
     <use xlink:href="#NotoSansCJKsc-Regular-65" transform="translate(593.399887 0)"/>
     <use xlink:href="#NotoSansCJKsc-Regular-70" transform="translate(648.799881 0)"/>
     <use xlink:href="#NotoSansCJKsc-Regular-65" transform="translate(710.799866 0)"/>
     <use xlink:href="#NotoSansCJKsc-Regular-6e" transform="translate(766.19986 0)"/>
     <use xlink:href="#NotoSansCJKsc-Regular-64" transform="translate(827.199844 0)"/>
     <use xlink:href="#NotoSansCJKsc-Regular-65" transform="translate(889.199829 0)"/>
     <use xlink:href="#NotoSansCJKsc-Regular-6e" transform="translate(944.599823 0)"/>
     <use xlink:href="#NotoSansCJKsc-Regular-63" transform="translate(1005.599808 0)"/>
     <use xlink:href="#NotoSansCJKsc-Regular-79" transform="translate(1056.599792 0)"/>
    </g>
   </g>
   <g id="text_15">
    <!-- ETD -->
    <g style="fill: #d97706" transform="translate(60.807156 214.296184) scale(0.11 -0.11)">
     <defs>
      <path id="NotoSansCJKsc-Bold-44" d="M 582 0 
L 1933 0 
C 3334 0 4224 794 4224 2394 
C 4224 3987 3334 4742 1882 4742 
L 582 4742 
L 582 0 
z
M 1530 768 
L 1530 3981 
L 1818 3981 
C 2707 3981 3258 3546 3258 2394 
C 3258 1242 2707 768 1818 768 
L 1530 768 
z
" transform="scale(0.015625)"/>
     </defs>
     <use xlink:href="#NotoSansCJKsc-Bold-45"/>
     <use xlink:href="#NotoSansCJKsc-Bold-54" transform="translate(61.499985 0)"/>
     <use xlink:href="#NotoSansCJKsc-Bold-44" transform="translate(123.999969 0)"/>
    </g>
   </g>
   <g id="text_16">
    <!-- trigger detect -->
    <g style="fill: #475569" transform="translate(44.350953 227.66503) scale(0.086 -0.086)">
     <use xlink:href="#NotoSansCJKsc-Regular-74"/>
     <use xlink:href="#NotoSansCJKsc-Regular-72" transform="translate(37.699997 0)"/>
     <use xlink:href="#NotoSansCJKsc-Regular-69" transform="translate(76.499985 0)"/>
     <use xlink:href="#NotoSansCJKsc-Regular-67" transform="translate(103.999969 0)"/>
     <use xlink:href="#NotoSansCJKsc-Regular-67" transform="translate(160.399963 0)"/>
     <use xlink:href="#NotoSansCJKsc-Regular-65" transform="translate(216.799957 0)"/>
     <use xlink:href="#NotoSansCJKsc-Regular-72" transform="translate(272.199951 0)"/>
     <use xlink:href="#NotoSansCJKsc-Regular-20" transform="translate(310.999939 0)"/>
     <use xlink:href="#NotoSansCJKsc-Regular-64" transform="translate(333.399933 0)"/>
     <use xlink:href="#NotoSansCJKsc-Regular-65" transform="translate(395.399918 0)"/>
     <use xlink:href="#NotoSansCJKsc-Regular-74" transform="translate(450.799911 0)"/>
     <use xlink:href="#NotoSansCJKsc-Regular-65" transform="translate(488.499908 0)"/>
     <use xlink:href="#NotoSansCJKsc-Regular-63" transform="translate(543.899902 0)"/>
     <use xlink:href="#NotoSansCJKsc-Regular-74" transform="translate(594.899887 0)"/>
    </g>
   </g>
   <g id="text_17">
    <!-- EL -->
    <g style="fill: #d97706" transform="translate(183.456572 214.296184) scale(0.11 -0.11)">
     <defs>
      <path id="NotoSansCJKsc-Bold-4c" d="M 582 0 
L 3456 0 
L 3456 794 
L 1530 794 
L 1530 4742 
L 582 4742 
L 582 0 
z
" transform="scale(0.015625)"/>
     </defs>
     <use xlink:href="#NotoSansCJKsc-Bold-45"/>
     <use xlink:href="#NotoSansCJKsc-Bold-4c" transform="translate(61.499985 0)"/>
    </g>
   </g>
   <g id="text_18">
    <!-- event localize -->
    <g style="fill: #475569" transform="translate(162.535525 227.66503) scale(0.086 -0.086)">
     <defs>
      <path id="NotoSansCJKsc-Regular-7a" d="M 224 0 
L 2854 0 
L 2854 474 
L 960 474 
L 2797 3162 
L 2797 3475 
L 422 3475 
L 422 3002 
L 2054 3002 
L 224 314 
L 224 0 
z
" transform="scale(0.015625)"/>
     </defs>
     <use xlink:href="#NotoSansCJKsc-Regular-65"/>
     <use xlink:href="#NotoSansCJKsc-Regular-76" transform="translate(55.399994 0)"/>
     <use xlink:href="#NotoSansCJKsc-Regular-65" transform="translate(107.499985 0)"/>
     <use xlink:href="#NotoSansCJKsc-Regular-6e" transform="translate(162.899979 0)"/>
     <use xlink:href="#NotoSansCJKsc-Regular-74" transform="translate(223.899963 0)"/>
     <use xlink:href="#NotoSansCJKsc-Regular-20" transform="translate(261.59996 0)"/>
     <use xlink:href="#NotoSansCJKsc-Regular-6c" transform="translate(283.999954 0)"/>
     <use xlink:href="#NotoSansCJKsc-Regular-6f" transform="translate(312.399948 0)"/>
     <use xlink:href="#NotoSansCJKsc-Regular-63" transform="translate(372.999939 0)"/>
     <use xlink:href="#NotoSansCJKsc-Regular-61" transform="translate(423.999924 0)"/>
     <use xlink:href="#NotoSansCJKsc-Regular-6c" transform="translate(480.299911 0)"/>
     <use xlink:href="#NotoSansCJKsc-Regular-69" transform="translate(508.699905 0)"/>
     <use xlink:href="#NotoSansCJKsc-Regular-7a" transform="translate(536.19989 0)"/>
     <use xlink:href="#NotoSansCJKsc-Regular-65" transform="translate(583.699875 0)"/>
    </g>
   </g>
   <g id="text_19">
    <!-- EAE -->
    <g style="fill: #d97706" transform="translate(298.191144 214.296184) scale(0.11 -0.11)">
     <defs>
      <path id="NotoSansCJKsc-Bold-41" d="M -26 0 
L 934 0 
L 1267 1216 
L 2797 1216 
L 3130 0 
L 4128 0 
L 2611 4742 
L 1491 4742 
L -26 0 
z
M 1472 1952 
L 1613 2470 
C 1754 2963 1888 3501 2016 4019 
L 2042 4019 
C 2182 3514 2310 2963 2458 2470 
L 2598 1952 
L 1472 1952 
z
" transform="scale(0.015625)"/>
     </defs>
     <use xlink:href="#NotoSansCJKsc-Bold-45"/>
     <use xlink:href="#NotoSansCJKsc-Bold-41" transform="translate(61.499985 0)"/>
     <use xlink:href="#NotoSansCJKsc-Bold-45" transform="translate(125.599976 0)"/>
    </g>
   </g>
   <g id="text_20">
    <!-- argument extract -->
    <g style="fill: #475569" transform="translate(273.736628 227.484968) scale(0.086 -0.086)">
     <defs>
      <path id="NotoSansCJKsc-Regular-78" d="M 96 0 
L 710 0 
L 1178 813 
C 1299 1024 1408 1235 1530 1434 
L 1562 1434 
C 1696 1235 1824 1024 1939 813 
L 2451 0 
L 3091 0 
L 1946 1754 
L 3002 3475 
L 2394 3475 
L 1965 2714 
C 1856 2515 1760 2330 1658 2131 
L 1626 2131 
C 1510 2330 1389 2515 1286 2714 
L 819 3475 
L 186 3475 
L 1242 1811 
L 96 0 
z
" transform="scale(0.015625)"/>
     </defs>
     <use xlink:href="#NotoSansCJKsc-Regular-61"/>
     <use xlink:href="#NotoSansCJKsc-Regular-72" transform="translate(56.299988 0)"/>
     <use xlink:href="#NotoSansCJKsc-Regular-67" transform="translate(95.099976 0)"/>
     <use xlink:href="#NotoSansCJKsc-Regular-75" transform="translate(151.499969 0)"/>
     <use xlink:href="#NotoSansCJKsc-Regular-6d" transform="translate(212.199966 0)"/>
     <use xlink:href="#NotoSansCJKsc-Regular-65" transform="translate(304.799957 0)"/>
     <use xlink:href="#NotoSansCJKsc-Regular-6e" transform="translate(360.199951 0)"/>
     <use xlink:href="#NotoSansCJKsc-Regular-74" transform="translate(421.199936 0)"/>
     <use xlink:href="#NotoSansCJKsc-Regular-20" transform="translate(458.899933 0)"/>
     <use xlink:href="#NotoSansCJKsc-Regular-65" transform="translate(481.299927 0)"/>
     <use xlink:href="#NotoSansCJKsc-Regular-78" transform="translate(536.699921 0)"/>
     <use xlink:href="#NotoSansCJKsc-Regular-74" transform="translate(586.499908 0)"/>
     <use xlink:href="#NotoSansCJKsc-Regular-72" transform="translate(624.199905 0)"/>
     <use xlink:href="#NotoSansCJKsc-Regular-61" transform="translate(662.999893 0)"/>
     <use xlink:href="#NotoSansCJKsc-Regular-63" transform="translate(719.299881 0)"/>
     <use xlink:href="#NotoSansCJKsc-Regular-74" transform="translate(770.299866 0)"/>
    </g>
   </g>
   <g id="text_21">
    <!-- ERE -->
    <g style="fill: #d97706" transform="translate(416.428528 214.296184) scale(0.11 -0.11)">
     <defs>
      <path id="NotoSansCJKsc-Bold-52" d="M 1530 2541 
L 1530 3987 
L 2144 3987 
C 2752 3987 3085 3814 3085 3302 
C 3085 2797 2752 2541 2144 2541 
L 1530 2541 
z
M 3162 0 
L 4218 0 
L 3110 1939 
C 3654 2150 4013 2592 4013 3302 
C 4013 4390 3226 4742 2227 4742 
L 582 4742 
L 582 0 
L 1530 0 
L 1530 1792 
L 2189 1792 
L 3162 0 
z
" transform="scale(0.015625)"/>
     </defs>
     <use xlink:href="#NotoSansCJKsc-Bold-45"/>
     <use xlink:href="#NotoSansCJKsc-Bold-52" transform="translate(61.499985 0)"/>
     <use xlink:href="#NotoSansCJKsc-Bold-45" transform="translate(129.699966 0)"/>
    </g>
   </g>
   <g id="text_22">
    <!-- relation extract -->
    <g style="fill: #475569" transform="translate(396.207763 227.66503) scale(0.086 -0.086)">
     <use xlink:href="#NotoSansCJKsc-Regular-72"/>
     <use xlink:href="#NotoSansCJKsc-Regular-65" transform="translate(38.799988 0)"/>
     <use xlink:href="#NotoSansCJKsc-Regular-6c" transform="translate(94.199982 0)"/>
     <use xlink:href="#NotoSansCJKsc-Regular-61" transform="translate(122.599976 0)"/>
     <use xlink:href="#NotoSansCJKsc-Regular-74" transform="translate(178.899963 0)"/>
     <use xlink:href="#NotoSansCJKsc-Regular-69" transform="translate(216.59996 0)"/>
     <use xlink:href="#NotoSansCJKsc-Regular-6f" transform="translate(244.099945 0)"/>
     <use xlink:href="#NotoSansCJKsc-Regular-6e" transform="translate(304.699936 0)"/>
     <use xlink:href="#NotoSansCJKsc-Regular-20" transform="translate(365.699921 0)"/>
     <use xlink:href="#NotoSansCJKsc-Regular-65" transform="translate(388.099915 0)"/>
     <use xlink:href="#NotoSansCJKsc-Regular-78" transform="translate(443.499908 0)"/>
     <use xlink:href="#NotoSansCJKsc-Regular-74" transform="translate(493.299896 0)"/>
     <use xlink:href="#NotoSansCJKsc-Regular-72" transform="translate(530.999893 0)"/>
     <use xlink:href="#NotoSansCJKsc-Regular-61" transform="translate(569.799881 0)"/>
     <use xlink:href="#NotoSansCJKsc-Regular-63" transform="translate(626.099869 0)"/>
     <use xlink:href="#NotoSansCJKsc-Regular-74" transform="translate(677.099854 0)"/>
    </g>
   </g>
   <g id="text_23">
    <!-- Beyond multiple-choice -->
    <g style="fill: #10b981" transform="translate(487.4265 106.68001) scale(0.102 -0.102)">
     <defs>
      <path id="NotoSansCJKsc-Bold-42" d="M 582 0 
L 2272 0 
C 3315 0 4102 442 4102 1395 
C 4102 2029 3731 2394 3219 2515 
L 3219 2541 
C 3622 2688 3866 3130 3866 3571 
C 3866 4454 3123 4742 2150 4742 
L 582 4742 
L 582 0 
z
M 1530 2810 
L 1530 4013 
L 2093 4013 
C 2662 4013 2944 3846 2944 3430 
C 2944 3053 2688 2810 2086 2810 
L 1530 2810 
z
M 1530 730 
L 1530 2112 
L 2189 2112 
C 2842 2112 3181 1914 3181 1453 
C 3181 960 2829 730 2189 730 
L 1530 730 
z
" transform="scale(0.015625)"/>
      <path id="NotoSansCJKsc-Bold-79" d="M 819 -1434 
C 1619 -1434 2003 -954 2317 -109 
L 3590 3584 
L 2688 3584 
L 2195 1920 
C 2106 1587 2016 1242 1939 909 
L 1907 909 
C 1805 1254 1715 1600 1606 1920 
L 1037 3584 
L 90 3584 
L 1485 70 
L 1421 -147 
C 1318 -461 1114 -691 749 -691 
C 666 -691 563 -666 499 -646 
L 326 -1370 
C 467 -1408 608 -1434 819 -1434 
z
" transform="scale(0.015625)"/>
      <path id="NotoSansCJKsc-Bold-70" d="M 506 -1376 
L 1446 -1376 
L 1446 -282 
L 1414 301 
C 1683 51 1990 -90 2304 -90 
C 3091 -90 3827 621 3827 1850 
C 3827 2950 3296 3674 2419 3674 
C 2029 3674 1664 3469 1363 3213 
L 1344 3213 
L 1274 3584 
L 506 3584 
L 506 -1376 
z
M 2099 685 
C 1901 685 1677 755 1446 954 
L 1446 2534 
C 1690 2778 1907 2899 2150 2899 
C 2643 2899 2861 2522 2861 1837 
C 2861 1056 2522 685 2099 685 
z
" transform="scale(0.015625)"/>
     </defs>
     <use xlink:href="#NotoSansCJKsc-Bold-42"/>
     <use xlink:href="#NotoSansCJKsc-Bold-65" transform="translate(68.099991 0)"/>
     <use xlink:href="#NotoSansCJKsc-Bold-79" transform="translate(126.199982 0)"/>
     <use xlink:href="#NotoSansCJKsc-Bold-6f" transform="translate(183.599976 0)"/>
     <use xlink:href="#NotoSansCJKsc-Bold-6e" transform="translate(246.199966 0)"/>
     <use xlink:href="#NotoSansCJKsc-Bold-64" transform="translate(310.299957 0)"/>
     <use xlink:href="#NotoSansCJKsc-Bold-20" transform="translate(374.699951 0)"/>
     <use xlink:href="#NotoSansCJKsc-Bold-6d" transform="translate(397.399948 0)"/>
     <use xlink:href="#NotoSansCJKsc-Bold-75" transform="translate(493.799942 0)"/>
     <use xlink:href="#NotoSansCJKsc-Bold-6c" transform="translate(557.499939 0)"/>
     <use xlink:href="#NotoSansCJKsc-Bold-74" transform="translate(588.999924 0)"/>
     <use xlink:href="#NotoSansCJKsc-Bold-69" transform="translate(631.099915 0)"/>
     <use xlink:href="#NotoSansCJKsc-Bold-70" transform="translate(661.499908 0)"/>
     <use xlink:href="#NotoSansCJKsc-Bold-6c" transform="translate(725.899902 0)"/>
     <use xlink:href="#NotoSansCJKsc-Bold-65" transform="translate(757.399887 0)"/>
     <use xlink:href="#NotoSansCJKsc-Bold-2d" transform="translate(815.499878 0)"/>
     <use xlink:href="#NotoSansCJKsc-Bold-63" transform="translate(852.499863 0)"/>
     <use xlink:href="#NotoSansCJKsc-Bold-68" transform="translate(905.19986 0)"/>
     <use xlink:href="#NotoSansCJKsc-Bold-6f" transform="translate(969.199844 0)"/>
     <use xlink:href="#NotoSansCJKsc-Bold-69" transform="translate(1031.799835 0)"/>
     <use xlink:href="#NotoSansCJKsc-Bold-63" transform="translate(1062.199829 0)"/>
     <use xlink:href="#NotoSansCJKsc-Bold-65" transform="translate(1114.899826 0)"/>
    </g>
   </g>
   <g id="text_24">
    <!-- link early setups to -->
    <g style="fill: #475569" transform="translate(507.738094 120.873325) scale(0.09 -0.09)">
     <use xlink:href="#NotoSansCJKsc-Regular-6c"/>
     <use xlink:href="#NotoSansCJKsc-Regular-69" transform="translate(28.399994 0)"/>
     <use xlink:href="#NotoSansCJKsc-Regular-6e" transform="translate(55.899979 0)"/>
     <use xlink:href="#NotoSansCJKsc-Regular-6b" transform="translate(116.899963 0)"/>
     <use xlink:href="#NotoSansCJKsc-Regular-20" transform="translate(172.09996 0)"/>
     <use xlink:href="#NotoSansCJKsc-Regular-65" transform="translate(194.499954 0)"/>
     <use xlink:href="#NotoSansCJKsc-Regular-61" transform="translate(249.899948 0)"/>
     <use xlink:href="#NotoSansCJKsc-Regular-72" transform="translate(306.199936 0)"/>
     <use xlink:href="#NotoSansCJKsc-Regular-6c" transform="translate(344.999924 0)"/>
     <use xlink:href="#NotoSansCJKsc-Regular-79" transform="translate(373.399918 0)"/>
     <use xlink:href="#NotoSansCJKsc-Regular-20" transform="translate(425.499908 0)"/>
     <use xlink:href="#NotoSansCJKsc-Regular-73" transform="translate(447.899902 0)"/>
     <use xlink:href="#NotoSansCJKsc-Regular-65" transform="translate(494.69989 0)"/>
     <use xlink:href="#NotoSansCJKsc-Regular-74" transform="translate(550.099884 0)"/>
     <use xlink:href="#NotoSansCJKsc-Regular-75" transform="translate(587.799881 0)"/>
     <use xlink:href="#NotoSansCJKsc-Regular-70" transform="translate(648.499878 0)"/>
     <use xlink:href="#NotoSansCJKsc-Regular-73" transform="translate(710.499863 0)"/>
     <use xlink:href="#NotoSansCJKsc-Regular-20" transform="translate(757.29985 0)"/>
     <use xlink:href="#NotoSansCJKsc-Regular-74" transform="translate(779.699844 0)"/>
     <use xlink:href="#NotoSansCJKsc-Regular-6f" transform="translate(817.399841 0)"/>
    </g>
   </g>
   <g id="text_25">
    <!-- later payoffs across -->
    <g style="fill: #475569" transform="translate(506.547703 133.742651) scale(0.09 -0.09)">
     <use xlink:href="#NotoSansCJKsc-Regular-6c"/>
     <use xlink:href="#NotoSansCJKsc-Regular-61" transform="translate(28.399994 0)"/>
     <use xlink:href="#NotoSansCJKsc-Regular-74" transform="translate(84.699982 0)"/>
     <use xlink:href="#NotoSansCJKsc-Regular-65" transform="translate(122.399979 0)"/>
     <use xlink:href="#NotoSansCJKsc-Regular-72" transform="translate(177.799973 0)"/>
     <use xlink:href="#NotoSansCJKsc-Regular-20" transform="translate(216.59996 0)"/>
     <use xlink:href="#NotoSansCJKsc-Regular-70" transform="translate(238.999954 0)"/>
     <use xlink:href="#NotoSansCJKsc-Regular-61" transform="translate(300.999939 0)"/>
     <use xlink:href="#NotoSansCJKsc-Regular-79" transform="translate(357.299927 0)"/>
     <use xlink:href="#NotoSansCJKsc-Regular-6f" transform="translate(409.399918 0)"/>
     <use xlink:href="#NotoSansCJKsc-Regular-66" transform="translate(469.999908 0)"/>
     <use xlink:href="#NotoSansCJKsc-Regular-66" transform="translate(502.499893 0)"/>
     <use xlink:href="#NotoSansCJKsc-Regular-73" transform="translate(534.999878 0)"/>
     <use xlink:href="#NotoSansCJKsc-Regular-20" transform="translate(581.799866 0)"/>
     <use xlink:href="#NotoSansCJKsc-Regular-61" transform="translate(604.19986 0)"/>
     <use xlink:href="#NotoSansCJKsc-Regular-63" transform="translate(660.499847 0)"/>
     <use xlink:href="#NotoSansCJKsc-Regular-72" transform="translate(711.499832 0)"/>
     <use xlink:href="#NotoSansCJKsc-Regular-6f" transform="translate(750.29982 0)"/>
     <use xlink:href="#NotoSansCJKsc-Regular-73" transform="translate(810.899811 0)"/>
     <use xlink:href="#NotoSansCJKsc-Regular-73" transform="translate(857.699799 0)"/>
    </g>
   </g>
   <g id="text_26">
    <!-- long time gaps -->
    <g style="fill: #475569" transform="translate(516.383016 146.375725) scale(0.09 -0.09)">
     <use xlink:href="#NotoSansCJKsc-Regular-6c"/>
     <use xlink:href="#NotoSansCJKsc-Regular-6f" transform="translate(28.399994 0)"/>
     <use xlink:href="#NotoSansCJKsc-Regular-6e" transform="translate(88.999985 0)"/>
     <use xlink:href="#NotoSansCJKsc-Regular-67" transform="translate(149.999969 0)"/>
     <use xlink:href="#NotoSansCJKsc-Regular-20" transform="translate(206.399963 0)"/>
     <use xlink:href="#NotoSansCJKsc-Regular-74" transform="translate(228.799957 0)"/>
     <use xlink:href="#NotoSansCJKsc-Regular-69" transform="translate(266.499954 0)"/>
     <use xlink:href="#NotoSansCJKsc-Regular-6d" transform="translate(293.999939 0)"/>
     <use xlink:href="#NotoSansCJKsc-Regular-65" transform="translate(386.59993 0)"/>
     <use xlink:href="#NotoSansCJKsc-Regular-20" transform="translate(441.999924 0)"/>
     <use xlink:href="#NotoSansCJKsc-Regular-67" transform="translate(464.399918 0)"/>
     <use xlink:href="#NotoSansCJKsc-Regular-61" transform="translate(520.799911 0)"/>
     <use xlink:href="#NotoSansCJKsc-Regular-70" transform="translate(577.099899 0)"/>
     <use xlink:href="#NotoSansCJKsc-Regular-73" transform="translate(639.099884 0)"/>
    </g>
   </g>
   <g id="text_27">
    <!-- Moves long-video understanding from needle-in-a-haystack retrieval to narrative event-structure reasoning. -->
    <g style="fill: #64748b" transform="translate(89.717344 252.48816) scale(0.09 -0.09)">
     <defs>
      <path id="NotoSansCJKsc-Regular-4d" d="M 646 0 
L 1178 0 
L 1178 2598 
C 1178 3002 1139 3571 1101 3981 
L 1126 3981 
L 1504 2912 
L 2394 474 
L 2790 474 
L 3674 2912 
L 4051 3981 
L 4077 3981 
C 4045 3571 4000 3002 4000 2598 
L 4000 0 
L 4550 0 
L 4550 4691 
L 3840 4691 
L 2944 2182 
C 2835 1862 2739 1530 2618 1203 
L 2592 1203 
C 2477 1530 2374 1862 2253 2182 
L 1357 4691 
L 646 4691 
L 646 0 
z
" transform="scale(0.015625)"/>
     </defs>
     <use xlink:href="#NotoSansCJKsc-Regular-4d"/>
     <use xlink:href="#NotoSansCJKsc-Regular-6f" transform="translate(81.199982 0)"/>
     <use xlink:href="#NotoSansCJKsc-Regular-76" transform="translate(141.799973 0)"/>
     <use xlink:href="#NotoSansCJKsc-Regular-65" transform="translate(193.899963 0)"/>
     <use xlink:href="#NotoSansCJKsc-Regular-73" transform="translate(249.299957 0)"/>
     <use xlink:href="#NotoSansCJKsc-Regular-20" transform="translate(296.099945 0)"/>
     <use xlink:href="#NotoSansCJKsc-Regular-6c" transform="translate(318.499939 0)"/>
     <use xlink:href="#NotoSansCJKsc-Regular-6f" transform="translate(346.899933 0)"/>
     <use xlink:href="#NotoSansCJKsc-Regular-6e" transform="translate(407.499924 0)"/>
     <use xlink:href="#NotoSansCJKsc-Regular-67" transform="translate(468.499908 0)"/>
     <use xlink:href="#NotoSansCJKsc-Regular-2d" transform="translate(524.899902 0)"/>
     <use xlink:href="#NotoSansCJKsc-Regular-76" transform="translate(559.599899 0)"/>
     <use xlink:href="#NotoSansCJKsc-Regular-69" transform="translate(611.69989 0)"/>
     <use xlink:href="#NotoSansCJKsc-Regular-64" transform="translate(639.199875 0)"/>
     <use xlink:href="#NotoSansCJKsc-Regular-65" transform="translate(701.19986 0)"/>
     <use xlink:href="#NotoSansCJKsc-Regular-6f" transform="translate(756.599854 0)"/>
     <use xlink:href="#NotoSansCJKsc-Regular-20" transform="translate(817.199844 0)"/>
     <use xlink:href="#NotoSansCJKsc-Regular-75" transform="translate(839.599838 0)"/>
     <use xlink:href="#NotoSansCJKsc-Regular-6e" transform="translate(900.299835 0)"/>
     <use xlink:href="#NotoSansCJKsc-Regular-64" transform="translate(961.29982 0)"/>
     <use xlink:href="#NotoSansCJKsc-Regular-65" transform="translate(1023.299805 0)"/>
     <use xlink:href="#NotoSansCJKsc-Regular-72" transform="translate(1078.699799 0)"/>
     <use xlink:href="#NotoSansCJKsc-Regular-73" transform="translate(1117.499786 0)"/>
     <use xlink:href="#NotoSansCJKsc-Regular-74" transform="translate(1164.299774 0)"/>
     <use xlink:href="#NotoSansCJKsc-Regular-61" transform="translate(1201.999771 0)"/>
     <use xlink:href="#NotoSansCJKsc-Regular-6e" transform="translate(1258.299759 0)"/>
     <use xlink:href="#NotoSansCJKsc-Regular-64" transform="translate(1319.299744 0)"/>
     <use xlink:href="#NotoSansCJKsc-Regular-69" transform="translate(1381.299728 0)"/>
     <use xlink:href="#NotoSansCJKsc-Regular-6e" transform="translate(1408.799713 0)"/>
     <use xlink:href="#NotoSansCJKsc-Regular-67" transform="translate(1469.799698 0)"/>
     <use xlink:href="#NotoSansCJKsc-Regular-20" transform="translate(1526.199692 0)"/>
     <use xlink:href="#NotoSansCJKsc-Regular-66" transform="translate(1548.599686 0)"/>
     <use xlink:href="#NotoSansCJKsc-Regular-72" transform="translate(1581.09967 0)"/>
     <use xlink:href="#NotoSansCJKsc-Regular-6f" transform="translate(1619.899658 0)"/>
     <use xlink:href="#NotoSansCJKsc-Regular-6d" transform="translate(1680.499649 0)"/>
     <use xlink:href="#NotoSansCJKsc-Regular-20" transform="translate(1773.09964 0)"/>
     <use xlink:href="#NotoSansCJKsc-Regular-6e" transform="translate(1795.499634 0)"/>
     <use xlink:href="#NotoSansCJKsc-Regular-65" transform="translate(1856.499619 0)"/>
     <use xlink:href="#NotoSansCJKsc-Regular-65" transform="translate(1911.899612 0)"/>
     <use xlink:href="#NotoSansCJKsc-Regular-64" transform="translate(1967.299606 0)"/>
     <use xlink:href="#NotoSansCJKsc-Regular-6c" transform="translate(2029.299591 0)"/>
     <use xlink:href="#NotoSansCJKsc-Regular-65" transform="translate(2057.699585 0)"/>
     <use xlink:href="#NotoSansCJKsc-Regular-2d" transform="translate(2113.099579 0)"/>
     <use xlink:href="#NotoSansCJKsc-Regular-69" transform="translate(2147.799576 0)"/>
     <use xlink:href="#NotoSansCJKsc-Regular-6e" transform="translate(2175.299561 0)"/>
     <use xlink:href="#NotoSansCJKsc-Regular-2d" transform="translate(2236.299545 0)"/>
     <use xlink:href="#NotoSansCJKsc-Regular-61" transform="translate(2270.999542 0)"/>
     <use xlink:href="#NotoSansCJKsc-Regular-2d" transform="translate(2327.29953 0)"/>
     <use xlink:href="#NotoSansCJKsc-Regular-68" transform="translate(2361.999527 0)"/>
     <use xlink:href="#NotoSansCJKsc-Regular-61" transform="translate(2422.699524 0)"/>
     <use xlink:href="#NotoSansCJKsc-Regular-79" transform="translate(2478.999512 0)"/>
     <use xlink:href="#NotoSansCJKsc-Regular-73" transform="translate(2531.099503 0)"/>
     <use xlink:href="#NotoSansCJKsc-Regular-74" transform="translate(2577.89949 0)"/>
     <use xlink:href="#NotoSansCJKsc-Regular-61" transform="translate(2615.599487 0)"/>
     <use xlink:href="#NotoSansCJKsc-Regular-63" transform="translate(2671.899475 0)"/>
     <use xlink:href="#NotoSansCJKsc-Regular-6b" transform="translate(2722.89946 0)"/>
     <use xlink:href="#NotoSansCJKsc-Regular-20" transform="translate(2778.099457 0)"/>
     <use xlink:href="#NotoSansCJKsc-Regular-72" transform="translate(2800.499451 0)"/>
     <use xlink:href="#NotoSansCJKsc-Regular-65" transform="translate(2839.299438 0)"/>
     <use xlink:href="#NotoSansCJKsc-Regular-74" transform="translate(2894.699432 0)"/>
     <use xlink:href="#NotoSansCJKsc-Regular-72" transform="translate(2932.399429 0)"/>
     <use xlink:href="#NotoSansCJKsc-Regular-69" transform="translate(2971.199417 0)"/>
     <use xlink:href="#NotoSansCJKsc-Regular-65" transform="translate(2998.699402 0)"/>
     <use xlink:href="#NotoSansCJKsc-Regular-76" transform="translate(3054.099396 0)"/>
     <use xlink:href="#NotoSansCJKsc-Regular-61" transform="translate(3106.199387 0)"/>
     <use xlink:href="#NotoSansCJKsc-Regular-6c" transform="translate(3162.499374 0)"/>
     <use xlink:href="#NotoSansCJKsc-Regular-20" transform="translate(3190.899368 0)"/>
     <use xlink:href="#NotoSansCJKsc-Regular-74" transform="translate(3213.299362 0)"/>
     <use xlink:href="#NotoSansCJKsc-Regular-6f" transform="translate(3250.999359 0)"/>
     <use xlink:href="#NotoSansCJKsc-Regular-20" transform="translate(3311.59935 0)"/>
     <use xlink:href="#NotoSansCJKsc-Regular-6e" transform="translate(3333.999344 0)"/>
     <use xlink:href="#NotoSansCJKsc-Regular-61" transform="translate(3394.999329 0)"/>
     <use xlink:href="#NotoSansCJKsc-Regular-72" transform="translate(3451.299316 0)"/>
     <use xlink:href="#NotoSansCJKsc-Regular-72" transform="translate(3490.099304 0)"/>
     <use xlink:href="#NotoSansCJKsc-Regular-61" transform="translate(3528.899292 0)"/>
     <use xlink:href="#NotoSansCJKsc-Regular-74" transform="translate(3585.19928 0)"/>
     <use xlink:href="#NotoSansCJKsc-Regular-69" transform="translate(3622.899277 0)"/>
     <use xlink:href="#NotoSansCJKsc-Regular-76" transform="translate(3650.399261 0)"/>
     <use xlink:href="#NotoSansCJKsc-Regular-65" transform="translate(3702.499252 0)"/>
     <use xlink:href="#NotoSansCJKsc-Regular-20" transform="translate(3757.899246 0)"/>
     <use xlink:href="#NotoSansCJKsc-Regular-65" transform="translate(3780.29924 0)"/>
     <use xlink:href="#NotoSansCJKsc-Regular-76" transform="translate(3835.699234 0)"/>
     <use xlink:href="#NotoSansCJKsc-Regular-65" transform="translate(3887.799225 0)"/>
     <use xlink:href="#NotoSansCJKsc-Regular-6e" transform="translate(3943.199219 0)"/>
     <use xlink:href="#NotoSansCJKsc-Regular-74" transform="translate(4004.199203 0)"/>
     <use xlink:href="#NotoSansCJKsc-Regular-2d" transform="translate(4041.8992 0)"/>
     <use xlink:href="#NotoSansCJKsc-Regular-73" transform="translate(4076.599197 0)"/>
     <use xlink:href="#NotoSansCJKsc-Regular-74" transform="translate(4123.399185 0)"/>
     <use xlink:href="#NotoSansCJKsc-Regular-72" transform="translate(4161.099182 0)"/>
     <use xlink:href="#NotoSansCJKsc-Regular-75" transform="translate(4199.89917 0)"/>
     <use xlink:href="#NotoSansCJKsc-Regular-63" transform="translate(4260.599167 0)"/>
     <use xlink:href="#NotoSansCJKsc-Regular-74" transform="translate(4311.599152 0)"/>
     <use xlink:href="#NotoSansCJKsc-Regular-75" transform="translate(4349.299149 0)"/>
     <use xlink:href="#NotoSansCJKsc-Regular-72" transform="translate(4409.999146 0)"/>
     <use xlink:href="#NotoSansCJKsc-Regular-65" transform="translate(4448.799133 0)"/>
     <use xlink:href="#NotoSansCJKsc-Regular-20" transform="translate(4504.199127 0)"/>
     <use xlink:href="#NotoSansCJKsc-Regular-72" transform="translate(4526.599121 0)"/>
     <use xlink:href="#NotoSansCJKsc-Regular-65" transform="translate(4565.399109 0)"/>
     <use xlink:href="#NotoSansCJKsc-Regular-61" transform="translate(4620.799103 0)"/>
     <use xlink:href="#NotoSansCJKsc-Regular-73" transform="translate(4677.099091 0)"/>
     <use xlink:href="#NotoSansCJKsc-Regular-6f" transform="translate(4723.899078 0)"/>
     <use xlink:href="#NotoSansCJKsc-Regular-6e" transform="translate(4784.499069 0)"/>
     <use xlink:href="#NotoSansCJKsc-Regular-69" transform="translate(4845.499054 0)"/>
     <use xlink:href="#NotoSansCJKsc-Regular-6e" transform="translate(4872.999039 0)"/>
     <use xlink:href="#NotoSansCJKsc-Regular-67" transform="translate(4933.999023 0)"/>
     <use xlink:href="#NotoSansCJKsc-Regular-2e" transform="translate(4990.399017 0)"/>
    </g>
   </g>
   <g id="patch_16">
    <path d="M 16.0056 26.49168 
L 77.3856 26.49168 
L 77.3856 15.0156 
L 16.0056 15.0156 
z
" clip-path="url(#pb4bd5bdfe5)" style="fill: #2563eb; stroke: #2563eb; stroke-linejoin: miter"/>
   </g>
  </g>
 </g>
 <defs>
  <clipPath id="pb4bd5bdfe5">
   <rect x="8.64" y="8.64" width="613.8" height="255.024"/>
  </clipPath>
 </defs>
</svg>
