<svg xmlns="http://www.w3.org/2000/svg" viewBox="0 0 980 430" font-family="Inter, system-ui, sans-serif"><defs><marker id="arr" markerWidth="9" markerHeight="9" refX="7" refY="3" orient="auto"><path d="M0,0 L7,3 L0,6 Z" fill="#64748b"/></marker><filter id="sh" x="-20%" y="-20%" width="140%" height="140%"><feDropShadow dx="0" dy="3" stdDeviation="4" flood-color="#0f172a" flood-opacity="0.10"/></filter></defs><rect width="980" height="430" fill="#ffffff"/><text x="28" y="34" font-size="17" fill="#0f172a" font-weight="700" text-anchor="start">SAMA — Semantic Anchor-aligned Multimodal Augmentation (MNER/MRE/MEE)</text><text x="28" y="54" font-size="12" fill="#64748b" font-weight="400" text-anchor="start">Anchors from labels guide unified multi-expert text + anchor-preserving image synthesis</text><line x1="28" y1="66" x2="952" y2="66" stroke="#cbd5e1" stroke-width="1"/><rect x="40" y="100" width="150" height="90" rx="12" fill="#f7f8fb" stroke="#0891b2" stroke-width="1.5" filter="url(#sh)"/><text x="115" y="126" font-size="13" fill="#0891b2" font-weight="700" text-anchor="middle">Labeled pair</text><text x="115" y="148" font-size="11" fill="#64748b" font-weight="400" text-anchor="middle">text + image</text><text x="115" y="168" font-size="11" fill="#64748b" font-weight="400" text-anchor="middle">+ GT labels</text><rect x="230" y="110" width="140" height="70" rx="12" fill="#ffffff" stroke="#e11d48" stroke-width="1.5" filter="url(#sh)"/><text x="300" y="138" font-size="13" fill="#e11d48" font-weight="700" text-anchor="middle">Semantic</text><text x="300" y="156" font-size="13" fill="#e11d48" font-weight="700" text-anchor="middle">Anchors</text><line x1="190" y1="145" x2="228" y2="145" stroke="#64748b" stroke-width="1.8" marker-end="url(#arr)"/><rect x="420" y="96" width="200" height="120" rx="12" fill="#ffffff" stroke="#2563eb" stroke-width="1.5" filter="url(#sh)"/><text x="520" y="118" font-size="14" fill="#2563eb" font-weight="700" text-anchor="middle">CME-MLLM</text><text x="520" y="136" font-size="11" fill="#64748b" font-weight="400" text-anchor="middle">Universal Adapter</text><rect x="432" y="150" width="56" height="50" rx="8" fill="#f7f8fb" stroke="#7c3aed" stroke-width="1.5" filter="url(#sh)"/><text x="460" y="180" font-size="11" fill="#7c3aed" font-weight="700" text-anchor="middle">MNER</text><rect x="494" y="150" width="56" height="50" rx="8" fill="#f7f8fb" stroke="#7c3aed" stroke-width="1.5" filter="url(#sh)"/><text x="522" y="180" font-size="11" fill="#7c3aed" font-weight="700" text-anchor="middle">MRE</text><rect x="556" y="150" width="56" height="50" rx="8" fill="#f7f8fb" stroke="#7c3aed" stroke-width="1.5" filter="url(#sh)"/><text x="584" y="180" font-size="11" fill="#7c3aed" font-weight="700" text-anchor="middle">MEE</text><line x1="370" y1="145" x2="418" y2="145" stroke="#64748b" stroke-width="1.8" marker-end="url(#arr)"/><rect x="420" y="250" width="200" height="64" rx="12" fill="#f7f8fb" stroke="#10b981" stroke-width="1.5" filter="url(#sh)"/><text x="520" y="276" font-size="12" fill="#10b981" font-weight="700" text-anchor="middle">Anchor-Preserving</text><text x="520" y="294" font-size="12" fill="#64748b" font-weight="400" text-anchor="middle">Diffusion (image)</text><line x1="300" y1="180" x2="300" y2="282" stroke="#64748b" stroke-width="1.8" marker-end="url(#arr)"/><line x1="370" y1="282" x2="418" y2="282" stroke="#64748b" stroke-width="1.8" marker-end="url(#arr)"/><rect x="680" y="150" width="130" height="110" rx="12" fill="#ffffff" stroke="#f59e0b" stroke-width="1.5" filter="url(#sh)"/><text x="745" y="178" font-size="13" fill="#f59e0b" font-weight="700" text-anchor="middle">Dual-</text><text x="745" y="196" font-size="13" fill="#f59e0b" font-weight="700" text-anchor="middle">Constraint</text><text x="745" y="218" font-size="13" fill="#f59e0b" font-weight="700" text-anchor="middle">Filter</text><text x="745" y="240" font-size="10" fill="#64748b" font-weight="400" text-anchor="middle">auto, no human</text><line x1="620" y1="156" x2="678" y2="156" stroke="#64748b" stroke-width="1.8" marker-end="url(#arr)"/><line x1="620" y1="282" x2="678" y2="240" stroke="#64748b" stroke-width="1.8" marker-end="url(#arr)"/><rect x="840" y="165" width="110" height="80" rx="12" fill="#f7f8fb" stroke="#10b981" stroke-width="1.5" filter="url(#sh)"/><text x="895" y="195" font-size="12" fill="#10b981" font-weight="700" text-anchor="middle">Synthetic</text><text x="895" y="213" font-size="12" fill="#64748b" font-weight="400" text-anchor="middle">train data</text><text x="895" y="231" font-size="11" fill="#64748b" font-weight="400" text-anchor="middle">F1 ↑ 1-3</text><line x1="810" y1="205" x2="838" y2="205" stroke="#64748b" stroke-width="1.8" marker-end="url(#arr)"/><text x="40" y="400" font-size="12" fill="#64748b" font-weight="500" text-anchor="start">Unified anchors close the cross-modal gap and let MNER/MRE/MEE share semantics; gains larger in low-resource</text></svg>