<?xml version="1.0" encoding="utf-8" standalone="no"?>
<!DOCTYPE svg PUBLIC "-//W3C//DTD SVG 1.1//EN"
  "http://www.w3.org/Graphics/SVG/1.1/DTD/svg11.dtd">
<svg xmlns:xlink="http://www.w3.org/1999/xlink" width="787.896pt" height="314.497062pt" viewBox="0 0 787.896 314.497062" xmlns="http://www.w3.org/2000/svg" version="1.1">
 <metadata>
  <rdf:RDF xmlns:dc="http://purl.org/dc/elements/1.1/" xmlns:cc="http://creativecommons.org/ns#" xmlns:rdf="http://www.w3.org/1999/02/22-rdf-syntax-ns#">
   <cc:Work>
    <dc:type rdf:resource="http://purl.org/dc/dcmitype/StillImage"/>
    <dc:date>2026-06-25T19:42:37.414794</dc:date>
    <dc:format>image/svg+xml</dc:format>
    <dc:creator>
     <cc:Agent>
      <dc:title>Matplotlib v3.10.5, https://matplotlib.org/</dc:title>
     </cc:Agent>
    </dc:creator>
   </cc:Work>
  </rdf:RDF>
 </metadata>
 <defs>
  <style type="text/css">*{stroke-linejoin: round; stroke-linecap: butt}</style>
 </defs>
 <g id="figure_1">
  <g id="patch_1">
   <path d="M 0 314.497062 
L 787.896 314.497062 
L 787.896 0 
L 0 0 
z
" style="fill: #ffffff"/>
  </g>
  <g id="axes_1">
   <g id="patch_2">
    <path d="M 46.496 274.556 
L 389.11725 274.556 
L 389.11725 76.05825 
L 46.496 76.05825 
z
" style="fill: #ffffff"/>
   </g>
   <g id="matplotlib.axis_1">
    <g id="xtick_1">
     <g id="line2d_1">
      <defs>
       <path id="m30c924e56b" d="M 0 0 
L 0 3.5 
" style="stroke: #475569; stroke-width: 0.8"/>
      </defs>
      <g>
       <use xlink:href="#m30c924e56b" x="120.471043" y="274.556" style="fill: #475569; stroke: #475569; stroke-width: 0.8"/>
      </g>
     </g>
     <g id="text_1">
      <!-- Leakage↓ -->
      <g style="fill: #475569" transform="translate(93.558855 290.796) scale(0.11 -0.11)">
       <defs>
        <path id="NotoSansCJKsc-Regular-4c" d="M 646 0 
L 3290 0 
L 3290 506 
L 1235 506 
L 1235 4691 
L 646 4691 
L 646 0 
z
" transform="scale(0.015625)"/>
        <path id="NotoSansCJKsc-Regular-65" d="M 1997 -83 
C 2464 -83 2835 70 3136 269 
L 2931 659 
C 2669 486 2400 384 2061 384 
C 1402 384 947 858 909 1600 
L 3251 1600 
C 3264 1690 3277 1805 3277 1933 
C 3277 2925 2778 3565 1888 3565 
C 1094 3565 333 2867 333 1734 
C 333 589 1069 -83 1997 -83 
z
M 902 2016 
C 973 2707 1408 3098 1901 3098 
C 2445 3098 2765 2720 2765 2016 
L 902 2016 
z
" transform="scale(0.015625)"/>
        <path id="NotoSansCJKsc-Regular-61" d="M 1389 -83 
C 1818 -83 2208 141 2541 416 
L 2560 416 
L 2611 0 
L 3091 0 
L 3091 2138 
C 3091 3002 2739 3565 1888 3565 
C 1325 3565 838 3315 525 3110 
L 749 2707 
C 1024 2893 1389 3078 1792 3078 
C 2362 3078 2509 2650 2509 2202 
C 1030 2035 378 1658 378 902 
C 378 275 806 -83 1389 -83 
z
M 1555 390 
C 1210 390 941 544 941 941 
C 941 1389 1338 1677 2509 1811 
L 2509 845 
C 2170 544 1888 390 1555 390 
z
" transform="scale(0.015625)"/>
        <path id="NotoSansCJKsc-Regular-6b" d="M 589 0 
L 1165 0 
L 1165 915 
L 1818 1677 
L 2835 0 
L 3469 0 
L 2157 2074 
L 3315 3475 
L 2662 3475 
L 1190 1645 
L 1165 1645 
L 1165 5094 
L 589 5094 
L 589 0 
z
" transform="scale(0.015625)"/>
        <path id="NotoSansCJKsc-Regular-67" d="M 1760 -1600 
C 2835 -1600 3520 -1043 3520 -397 
C 3520 179 3110 429 2310 429 
L 1626 429 
C 1158 429 1018 589 1018 806 
C 1018 998 1114 1114 1242 1222 
C 1395 1146 1587 1101 1754 1101 
C 2470 1101 3027 1568 3027 2310 
C 3027 2611 2912 2867 2746 3027 
L 3456 3027 
L 3456 3475 
L 2246 3475 
C 2125 3526 1952 3565 1754 3565 
C 1056 3565 454 3085 454 2323 
C 454 1907 678 1568 909 1389 
L 909 1363 
C 723 1235 525 1005 525 717 
C 525 442 659 256 838 147 
L 838 115 
C 512 -83 326 -371 326 -672 
C 326 -1267 915 -1600 1760 -1600 
z
M 1754 1498 
C 1357 1498 1018 1818 1018 2323 
C 1018 2835 1350 3136 1754 3136 
C 2170 3136 2496 2835 2496 2323 
C 2496 1818 2157 1498 1754 1498 
z
M 1843 -1197 
C 1210 -1197 838 -960 838 -589 
C 838 -390 941 -179 1190 0 
C 1344 -38 1510 -51 1638 -51 
L 2240 -51 
C 2701 -51 2944 -166 2944 -493 
C 2944 -851 2515 -1197 1843 -1197 
z
" transform="scale(0.015625)"/>
        <path id="NotoSansCJKsc-Regular-2193" d="M 3418 442 
L 3418 5376 
L 2982 5376 
L 2982 442 
C 2733 768 2330 1190 1933 1478 
L 1709 1094 
C 2272 666 2835 26 3200 -544 
C 3565 26 4128 666 4691 1094 
L 4467 1478 
C 4070 1190 3667 768 3418 442 
z
" transform="scale(0.015625)"/>
       </defs>
       <use xlink:href="#NotoSansCJKsc-Regular-4c"/>
       <use xlink:href="#NotoSansCJKsc-Regular-65" transform="translate(54.299988 0)"/>
       <use xlink:href="#NotoSansCJKsc-Regular-61" transform="translate(109.699982 0)"/>
       <use xlink:href="#NotoSansCJKsc-Regular-6b" transform="translate(165.999969 0)"/>
       <use xlink:href="#NotoSansCJKsc-Regular-61" transform="translate(221.199966 0)"/>
       <use xlink:href="#NotoSansCJKsc-Regular-67" transform="translate(277.499954 0)"/>
       <use xlink:href="#NotoSansCJKsc-Regular-65" transform="translate(333.899948 0)"/>
       <use xlink:href="#NotoSansCJKsc-Regular-2193" transform="translate(389.299942 0)"/>
      </g>
     </g>
    </g>
    <g id="xtick_2">
     <g id="line2d_2">
      <g>
       <use xlink:href="#m30c924e56b" x="315.142207" y="274.556" style="fill: #475569; stroke: #475569; stroke-width: 0.8"/>
      </g>
     </g>
     <g id="text_2">
      <!-- Overkill↓ -->
      <g style="fill: #475569" transform="translate(289.841348 290.311312) scale(0.11 -0.11)">
       <defs>
        <path id="NotoSansCJKsc-Regular-4f" d="M 2374 -83 
C 3552 -83 4378 858 4378 2362 
C 4378 3866 3552 4774 2374 4774 
C 1197 4774 371 3866 371 2362 
C 371 858 1197 -83 2374 -83 
z
M 2374 435 
C 1530 435 979 1190 979 2362 
C 979 3533 1530 4256 2374 4256 
C 3219 4256 3770 3533 3770 2362 
C 3770 1190 3219 435 2374 435 
z
" transform="scale(0.015625)"/>
        <path id="NotoSansCJKsc-Regular-76" d="M 1338 0 
L 2022 0 
L 3251 3475 
L 2675 3475 
L 2016 1498 
C 1914 1158 1798 806 1696 474 
L 1664 474 
C 1562 806 1453 1158 1344 1498 
L 691 3475 
L 83 3475 
L 1338 0 
z
" transform="scale(0.015625)"/>
        <path id="NotoSansCJKsc-Regular-72" d="M 589 0 
L 1178 0 
L 1178 2234 
C 1408 2822 1760 3040 2048 3040 
C 2195 3040 2272 3021 2387 2982 
L 2496 3488 
C 2387 3546 2278 3565 2125 3565 
C 1741 3565 1382 3283 1139 2842 
L 1126 2842 
L 1069 3475 
L 589 3475 
L 589 0 
z
" transform="scale(0.015625)"/>
        <path id="NotoSansCJKsc-Regular-69" d="M 589 0 
L 1178 0 
L 1178 3475 
L 589 3475 
L 589 0 
z
M 883 4192 
C 1114 4192 1274 4346 1274 4582 
C 1274 4806 1114 4960 883 4960 
C 653 4960 499 4806 499 4582 
C 499 4346 653 4192 883 4192 
z
" transform="scale(0.015625)"/>
        <path id="NotoSansCJKsc-Regular-6c" d="M 1203 -83 
C 1363 -83 1459 -58 1542 -32 
L 1459 416 
C 1395 403 1370 403 1338 403 
C 1248 403 1178 474 1178 653 
L 1178 5094 
L 589 5094 
L 589 691 
C 589 198 768 -83 1203 -83 
z
" transform="scale(0.015625)"/>
       </defs>
       <use xlink:href="#NotoSansCJKsc-Regular-4f"/>
       <use xlink:href="#NotoSansCJKsc-Regular-76" transform="translate(74.199982 0)"/>
       <use xlink:href="#NotoSansCJKsc-Regular-65" transform="translate(126.299973 0)"/>
       <use xlink:href="#NotoSansCJKsc-Regular-72" transform="translate(181.699966 0)"/>
       <use xlink:href="#NotoSansCJKsc-Regular-6b" transform="translate(220.499954 0)"/>
       <use xlink:href="#NotoSansCJKsc-Regular-69" transform="translate(275.699951 0)"/>
       <use xlink:href="#NotoSansCJKsc-Regular-6c" transform="translate(303.199936 0)"/>
       <use xlink:href="#NotoSansCJKsc-Regular-6c" transform="translate(331.59993 0)"/>
       <use xlink:href="#NotoSansCJKsc-Regular-2193" transform="translate(359.999924 0)"/>
      </g>
     </g>
    </g>
   </g>
   <g id="matplotlib.axis_2">
    <g id="ytick_1">
     <g id="line2d_3">
      <path d="M 46.496 274.556 
L 389.11725 274.556 
" clip-path="url(#pedd996aed6)" style="fill: none; stroke: #e5e7eb; stroke-width: 0.8; stroke-linecap: square"/>
     </g>
     <g id="line2d_4">
      <defs>
       <path id="m91ae5823da" d="M 0 0 
L -3.5 0 
" style="stroke: #475569; stroke-width: 0.8"/>
      </defs>
      <g>
       <use xlink:href="#m91ae5823da" x="46.496" y="274.556" style="fill: #475569; stroke: #475569; stroke-width: 0.8"/>
      </g>
     </g>
     <g id="text_3">
      <!-- 0 -->
      <g style="fill: #475569" transform="translate(33.391 278.933656) scale(0.11 -0.11)">
       <defs>
        <path id="NotoSansCJKsc-Regular-30" d="M 1779 -83 
C 2669 -83 3238 723 3238 2362 
C 3238 3987 2669 4774 1779 4774 
C 883 4774 320 3987 320 2362 
C 320 723 883 -83 1779 -83 
z
M 1779 390 
C 1248 390 883 986 883 2362 
C 883 3731 1248 4314 1779 4314 
C 2310 4314 2675 3731 2675 2362 
C 2675 986 2310 390 1779 390 
z
" transform="scale(0.015625)"/>
       </defs>
       <use xlink:href="#NotoSansCJKsc-Regular-30"/>
      </g>
     </g>
    </g>
    <g id="ytick_2">
     <g id="line2d_5">
      <path d="M 46.496 241.473042 
L 389.11725 241.473042 
" clip-path="url(#pedd996aed6)" style="fill: none; stroke: #e5e7eb; stroke-width: 0.8; stroke-linecap: square"/>
     </g>
     <g id="line2d_6">
      <g>
       <use xlink:href="#m91ae5823da" x="46.496" y="241.473042" style="fill: #475569; stroke: #475569; stroke-width: 0.8"/>
      </g>
     </g>
     <g id="text_4">
      <!-- 10 -->
      <g style="fill: #475569" transform="translate(27.286 245.850698) scale(0.11 -0.11)">
       <defs>
        <path id="NotoSansCJKsc-Regular-31" d="M 563 0 
L 3136 0 
L 3136 486 
L 2195 486 
L 2195 4691 
L 1747 4691 
C 1491 4544 1190 4435 774 4358 
L 774 3987 
L 1613 3987 
L 1613 486 
L 563 486 
L 563 0 
z
" transform="scale(0.015625)"/>
       </defs>
       <use xlink:href="#NotoSansCJKsc-Regular-31"/>
       <use xlink:href="#NotoSansCJKsc-Regular-30" transform="translate(55.499985 0)"/>
      </g>
     </g>
    </g>
    <g id="ytick_3">
     <g id="line2d_7">
      <path d="M 46.496 208.390083 
L 389.11725 208.390083 
" clip-path="url(#pedd996aed6)" style="fill: none; stroke: #e5e7eb; stroke-width: 0.8; stroke-linecap: square"/>
     </g>
     <g id="line2d_8">
      <g>
       <use xlink:href="#m91ae5823da" x="46.496" y="208.390083" style="fill: #475569; stroke: #475569; stroke-width: 0.8"/>
      </g>
     </g>
     <g id="text_5">
      <!-- 20 -->
      <g style="fill: #475569" transform="translate(27.286 212.76774) scale(0.11 -0.11)">
       <defs>
        <path id="NotoSansCJKsc-Regular-32" d="M 282 0 
L 3232 0 
L 3232 506 
L 1933 506 
C 1696 506 1408 480 1165 461 
C 2266 1504 3008 2458 3008 3398 
C 3008 4230 2477 4774 1638 4774 
C 1043 4774 634 4506 256 4090 
L 595 3757 
C 858 4070 1184 4301 1568 4301 
C 2150 4301 2432 3910 2432 3373 
C 2432 2566 1754 1632 282 346 
L 282 0 
z
" transform="scale(0.015625)"/>
       </defs>
       <use xlink:href="#NotoSansCJKsc-Regular-32"/>
       <use xlink:href="#NotoSansCJKsc-Regular-30" transform="translate(55.499985 0)"/>
      </g>
     </g>
    </g>
    <g id="ytick_4">
     <g id="line2d_9">
      <path d="M 46.496 175.307125 
L 389.11725 175.307125 
" clip-path="url(#pedd996aed6)" style="fill: none; stroke: #e5e7eb; stroke-width: 0.8; stroke-linecap: square"/>
     </g>
     <g id="line2d_10">
      <g>
       <use xlink:href="#m91ae5823da" x="46.496" y="175.307125" style="fill: #475569; stroke: #475569; stroke-width: 0.8"/>
      </g>
     </g>
     <g id="text_6">
      <!-- 30 -->
      <g style="fill: #475569" transform="translate(27.286 179.684781) scale(0.11 -0.11)">
       <defs>
        <path id="NotoSansCJKsc-Regular-33" d="M 1683 -83 
C 2522 -83 3194 416 3194 1254 
C 3194 1901 2752 2310 2202 2445 
L 2202 2477 
C 2701 2650 3034 3034 3034 3603 
C 3034 4346 2458 4774 1664 4774 
C 1126 4774 710 4538 358 4218 
L 672 3846 
C 941 4115 1267 4301 1645 4301 
C 2138 4301 2438 4006 2438 3558 
C 2438 3053 2112 2662 1139 2662 
L 1139 2214 
C 2227 2214 2598 1843 2598 1274 
C 2598 736 2208 403 1645 403 
C 1114 403 762 659 486 941 
L 186 563 
C 493 224 954 -83 1683 -83 
z
" transform="scale(0.015625)"/>
       </defs>
       <use xlink:href="#NotoSansCJKsc-Regular-33"/>
       <use xlink:href="#NotoSansCJKsc-Regular-30" transform="translate(55.499985 0)"/>
      </g>
     </g>
    </g>
    <g id="ytick_5">
     <g id="line2d_11">
      <path d="M 46.496 142.224167 
L 389.11725 142.224167 
" clip-path="url(#pedd996aed6)" style="fill: none; stroke: #e5e7eb; stroke-width: 0.8; stroke-linecap: square"/>
     </g>
     <g id="line2d_12">
      <g>
       <use xlink:href="#m91ae5823da" x="46.496" y="142.224167" style="fill: #475569; stroke: #475569; stroke-width: 0.8"/>
      </g>
     </g>
     <g id="text_7">
      <!-- 40 -->
      <g style="fill: #475569" transform="translate(27.286 146.601823) scale(0.11 -0.11)">
       <defs>
        <path id="NotoSansCJKsc-Regular-34" d="M 2176 0 
L 2726 0 
L 2726 1293 
L 3354 1293 
L 3354 1760 
L 2726 1760 
L 2726 4691 
L 2080 4691 
L 128 1677 
L 128 1293 
L 2176 1293 
L 2176 0 
z
M 2176 1760 
L 736 1760 
L 1805 3360 
C 1939 3590 2067 3827 2182 4051 
L 2208 4051 
C 2195 3814 2176 3430 2176 3200 
L 2176 1760 
z
" transform="scale(0.015625)"/>
       </defs>
       <use xlink:href="#NotoSansCJKsc-Regular-34"/>
       <use xlink:href="#NotoSansCJKsc-Regular-30" transform="translate(55.499985 0)"/>
      </g>
     </g>
    </g>
    <g id="ytick_6">
     <g id="line2d_13">
      <path d="M 46.496 109.141208 
L 389.11725 109.141208 
" clip-path="url(#pedd996aed6)" style="fill: none; stroke: #e5e7eb; stroke-width: 0.8; stroke-linecap: square"/>
     </g>
     <g id="line2d_14">
      <g>
       <use xlink:href="#m91ae5823da" x="46.496" y="109.141208" style="fill: #475569; stroke: #475569; stroke-width: 0.8"/>
      </g>
     </g>
     <g id="text_8">
      <!-- 50 -->
      <g style="fill: #475569" transform="translate(27.286 113.518865) scale(0.11 -0.11)">
       <defs>
        <path id="NotoSansCJKsc-Regular-35" d="M 1677 -83 
C 2464 -83 3213 499 3213 1523 
C 3213 2560 2573 3021 1798 3021 
C 1517 3021 1306 2950 1094 2835 
L 1216 4192 
L 2982 4192 
L 2982 4691 
L 704 4691 
L 550 2502 
L 864 2304 
C 1133 2483 1331 2579 1645 2579 
C 2234 2579 2618 2182 2618 1510 
C 2618 826 2176 403 1619 403 
C 1075 403 730 653 467 922 
L 173 538 
C 493 224 941 -83 1677 -83 
z
" transform="scale(0.015625)"/>
       </defs>
       <use xlink:href="#NotoSansCJKsc-Regular-35"/>
       <use xlink:href="#NotoSansCJKsc-Regular-30" transform="translate(55.499985 0)"/>
      </g>
     </g>
    </g>
    <g id="ytick_7">
     <g id="line2d_15">
      <path d="M 46.496 76.05825 
L 389.11725 76.05825 
" clip-path="url(#pedd996aed6)" style="fill: none; stroke: #e5e7eb; stroke-width: 0.8; stroke-linecap: square"/>
     </g>
     <g id="line2d_16">
      <g>
       <use xlink:href="#m91ae5823da" x="46.496" y="76.05825" style="fill: #475569; stroke: #475569; stroke-width: 0.8"/>
      </g>
     </g>
     <g id="text_9">
      <!-- 60 -->
      <g style="fill: #475569" transform="translate(27.286 80.435906) scale(0.11 -0.11)">
       <defs>
        <path id="NotoSansCJKsc-Regular-36" d="M 1926 -83 
C 2656 -83 3277 531 3277 1440 
C 3277 2426 2765 2912 1971 2912 
C 1606 2912 1197 2701 909 2349 
C 934 3802 1466 4294 2118 4294 
C 2400 4294 2682 4154 2861 3936 
L 3194 4294 
C 2931 4576 2579 4774 2093 4774 
C 1184 4774 358 4077 358 2240 
C 358 691 1030 -83 1926 -83 
z
M 922 1882 
C 1229 2317 1587 2477 1875 2477 
C 2445 2477 2720 2074 2720 1440 
C 2720 800 2374 378 1926 378 
C 1338 378 986 909 922 1882 
z
" transform="scale(0.015625)"/>
       </defs>
       <use xlink:href="#NotoSansCJKsc-Regular-36"/>
       <use xlink:href="#NotoSansCJKsc-Regular-30" transform="translate(55.499985 0)"/>
      </g>
     </g>
    </g>
    <g id="text_10">
     <!-- Relative reduction -->
     <g style="fill: #0f172a" transform="translate(20.766313 222.245328) rotate(-90) scale(0.11 -0.11)">
      <defs>
       <path id="NotoSansCJKsc-Regular-52" d="M 1235 2464 
L 1235 4211 
L 2022 4211 
C 2758 4211 3162 3994 3162 3379 
C 3162 2765 2758 2464 2022 2464 
L 1235 2464 
z
M 3219 0 
L 3885 0 
L 2694 2054 
C 3328 2208 3750 2643 3750 3379 
C 3750 4352 3066 4691 2112 4691 
L 646 4691 
L 646 0 
L 1235 0 
L 1235 1990 
L 2080 1990 
L 3219 0 
z
" transform="scale(0.015625)"/>
       <path id="NotoSansCJKsc-Regular-74" d="M 1677 -83 
C 1894 -83 2125 -19 2323 45 
L 2208 486 
C 2093 435 1939 390 1811 390 
C 1408 390 1274 634 1274 1056 
L 1274 3002 
L 2221 3002 
L 2221 3475 
L 1274 3475 
L 1274 4454 
L 787 4454 
L 723 3475 
L 173 3443 
L 173 3002 
L 691 3002 
L 691 1075 
C 691 378 941 -83 1677 -83 
z
" transform="scale(0.015625)"/>
       <path id="NotoSansCJKsc-Regular-20" transform="scale(0.015625)"/>
       <path id="NotoSansCJKsc-Regular-64" d="M 1773 -83 
C 2189 -83 2560 141 2829 410 
L 2848 410 
L 2899 0 
L 3379 0 
L 3379 5094 
L 2790 5094 
L 2790 3757 
L 2822 3162 
C 2515 3411 2253 3565 1843 3565 
C 1050 3565 339 2861 339 1734 
C 339 576 902 -83 1773 -83 
z
M 1901 410 
C 1293 410 941 902 941 1741 
C 941 2534 1389 3072 1946 3072 
C 2234 3072 2502 2970 2790 2707 
L 2790 883 
C 2502 563 2221 410 1901 410 
z
" transform="scale(0.015625)"/>
       <path id="NotoSansCJKsc-Regular-75" d="M 1606 -83 
C 2080 -83 2426 166 2752 544 
L 2771 544 
L 2816 0 
L 3302 0 
L 3302 3475 
L 2720 3475 
L 2720 1011 
C 2387 602 2138 422 1779 422 
C 1318 422 1126 698 1126 1344 
L 1126 3475 
L 538 3475 
L 538 1274 
C 538 384 870 -83 1606 -83 
z
" transform="scale(0.015625)"/>
       <path id="NotoSansCJKsc-Regular-63" d="M 1958 -83 
C 2374 -83 2771 83 3085 352 
L 2829 749 
C 2611 557 2330 403 2010 403 
C 1370 403 934 934 934 1734 
C 934 2534 1395 3072 2029 3072 
C 2298 3072 2522 2950 2720 2771 
L 3014 3155 
C 2771 3373 2458 3565 2003 3565 
C 1107 3565 333 2893 333 1734 
C 333 582 1037 -83 1958 -83 
z
" transform="scale(0.015625)"/>
       <path id="NotoSansCJKsc-Regular-6f" d="M 1939 -83 
C 2790 -83 3546 582 3546 1734 
C 3546 2893 2790 3565 1939 3565 
C 1088 3565 333 2893 333 1734 
C 333 582 1088 -83 1939 -83 
z
M 1939 403 
C 1338 403 934 934 934 1734 
C 934 2534 1338 3072 1939 3072 
C 2541 3072 2950 2534 2950 1734 
C 2950 934 2541 403 1939 403 
z
" transform="scale(0.015625)"/>
       <path id="NotoSansCJKsc-Regular-6e" d="M 589 0 
L 1178 0 
L 1178 2522 
C 1523 2874 1766 3053 2125 3053 
C 2586 3053 2784 2778 2784 2125 
L 2784 0 
L 3366 0 
L 3366 2202 
C 3366 3085 3034 3565 2304 3565 
C 1830 3565 1466 3302 1139 2970 
L 1126 2970 
L 1069 3475 
L 589 3475 
L 589 0 
z
" transform="scale(0.015625)"/>
      </defs>
      <use xlink:href="#NotoSansCJKsc-Regular-52"/>
      <use xlink:href="#NotoSansCJKsc-Regular-65" transform="translate(63.499985 0)"/>
      <use xlink:href="#NotoSansCJKsc-Regular-6c" transform="translate(118.899979 0)"/>
      <use xlink:href="#NotoSansCJKsc-Regular-61" transform="translate(147.299973 0)"/>
      <use xlink:href="#NotoSansCJKsc-Regular-74" transform="translate(203.59996 0)"/>
      <use xlink:href="#NotoSansCJKsc-Regular-69" transform="translate(241.299957 0)"/>
      <use xlink:href="#NotoSansCJKsc-Regular-76" transform="translate(268.799942 0)"/>
      <use xlink:href="#NotoSansCJKsc-Regular-65" transform="translate(320.899933 0)"/>
      <use xlink:href="#NotoSansCJKsc-Regular-20" transform="translate(376.299927 0)"/>
      <use xlink:href="#NotoSansCJKsc-Regular-72" transform="translate(398.699921 0)"/>
      <use xlink:href="#NotoSansCJKsc-Regular-65" transform="translate(437.499908 0)"/>
      <use xlink:href="#NotoSansCJKsc-Regular-64" transform="translate(492.899902 0)"/>
      <use xlink:href="#NotoSansCJKsc-Regular-75" transform="translate(554.899887 0)"/>
      <use xlink:href="#NotoSansCJKsc-Regular-63" transform="translate(615.599884 0)"/>
      <use xlink:href="#NotoSansCJKsc-Regular-74" transform="translate(666.599869 0)"/>
      <use xlink:href="#NotoSansCJKsc-Regular-69" transform="translate(704.299866 0)"/>
      <use xlink:href="#NotoSansCJKsc-Regular-6f" transform="translate(731.79985 0)"/>
      <use xlink:href="#NotoSansCJKsc-Regular-6e" transform="translate(792.399841 0)"/>
     </g>
    </g>
   </g>
   <g id="patch_3">
    <path d="M 46.496 274.556 
L 46.496 76.05825 
" style="fill: none; stroke: #94a3b8; stroke-width: 0.8; stroke-linejoin: miter; stroke-linecap: square"/>
   </g>
   <g id="patch_4">
    <path d="M 46.496 274.556 
L 389.11725 274.556 
" style="fill: none; stroke: #94a3b8; stroke-width: 0.8; stroke-linejoin: miter; stroke-linecap: square"/>
   </g>
   <g id="patch_5">
    <path d="M 62.069693 274.556 
L 178.872392 274.556 
L 178.872392 133.291768 
L 62.069693 133.291768 
z
" clip-path="url(#pedd996aed6)" style="fill: #2563eb"/>
   </g>
   <g id="patch_6">
    <path d="M 256.740858 274.556 
L 373.543557 274.556 
L 373.543557 152.149054 
L 256.740858 152.149054 
z
" clip-path="url(#pedd996aed6)" style="fill: #10b981"/>
   </g>
   <g id="text_11">
    <!-- 42.7% -->
    <g style="fill: #0f172a" transform="translate(106.251488 131.292268) scale(0.093 -0.093)">
     <defs>
      <path id="NotoSansCJKsc-Bold-34" d="M 2157 0 
L 3034 0 
L 3034 1229 
L 3597 1229 
L 3597 1946 
L 3034 1946 
L 3034 4742 
L 1901 4742 
L 134 1869 
L 134 1229 
L 2157 1229 
L 2157 0 
z
M 2157 1946 
L 1050 1946 
L 1786 3123 
C 1920 3379 2048 3642 2163 3898 
L 2195 3898 
C 2176 3616 2157 3187 2157 2912 
L 2157 1946 
z
" transform="scale(0.015625)"/>
      <path id="NotoSansCJKsc-Bold-32" d="M 275 0 
L 3450 0 
L 3450 794 
L 2426 794 
C 2202 794 1888 768 1645 736 
C 2509 1587 3226 2509 3226 3366 
C 3226 4250 2630 4826 1734 4826 
C 1088 4826 666 4576 224 4102 
L 749 3597 
C 986 3859 1267 4083 1613 4083 
C 2067 4083 2323 3789 2323 3322 
C 2323 2586 1568 1696 275 544 
L 275 0 
z
" transform="scale(0.015625)"/>
      <path id="NotoSansCJKsc-Bold-2e" d="M 1043 -90 
C 1376 -90 1626 179 1626 525 
C 1626 877 1376 1139 1043 1139 
C 704 1139 454 877 454 525 
C 454 179 704 -90 1043 -90 
z
" transform="scale(0.015625)"/>
      <path id="NotoSansCJKsc-Bold-37" d="M 1190 0 
L 2138 0 
C 2221 1850 2368 2822 3469 4166 
L 3469 4742 
L 320 4742 
L 320 3949 
L 2451 3949 
C 1549 2694 1274 1645 1190 0 
z
" transform="scale(0.015625)"/>
      <path id="NotoSansCJKsc-Bold-25" d="M 1357 1824 
C 2035 1824 2515 2381 2515 3334 
C 2515 4282 2035 4826 1357 4826 
C 678 4826 205 4282 205 3334 
C 205 2381 678 1824 1357 1824 
z
M 1357 2355 
C 1082 2355 864 2637 864 3334 
C 864 4026 1082 4294 1357 4294 
C 1632 4294 1850 4026 1850 3334 
C 1850 2637 1632 2355 1357 2355 
z
M 1510 -90 
L 2074 -90 
L 4646 4826 
L 4090 4826 
L 1510 -90 
z
M 4806 -90 
C 5478 -90 5958 467 5958 1421 
C 5958 2368 5478 2918 4806 2918 
C 4128 2918 3648 2368 3648 1421 
C 3648 467 4128 -90 4806 -90 
z
M 4806 448 
C 4525 448 4314 730 4314 1421 
C 4314 2125 4525 2381 4806 2381 
C 5082 2381 5293 2125 5293 1421 
C 5293 730 5082 448 4806 448 
z
" transform="scale(0.015625)"/>
     </defs>
     <use xlink:href="#NotoSansCJKsc-Bold-34"/>
     <use xlink:href="#NotoSansCJKsc-Bold-32" transform="translate(58.999985 0)"/>
     <use xlink:href="#NotoSansCJKsc-Bold-2e" transform="translate(117.999969 0)"/>
     <use xlink:href="#NotoSansCJKsc-Bold-37" transform="translate(150.499954 0)"/>
     <use xlink:href="#NotoSansCJKsc-Bold-25" transform="translate(209.499939 0)"/>
    </g>
   </g>
   <g id="text_12">
    <!-- 37.0% -->
    <g style="fill: #0f172a" transform="translate(300.922653 150.149554) scale(0.093 -0.093)">
     <defs>
      <path id="NotoSansCJKsc-Bold-33" d="M 1747 -90 
C 2656 -90 3418 410 3418 1280 
C 3418 1907 3008 2304 2477 2451 
L 2477 2483 
C 2976 2682 3264 3053 3264 3565 
C 3264 4378 2643 4826 1728 4826 
C 1171 4826 717 4602 307 4250 
L 794 3667 
C 1069 3930 1344 4083 1683 4083 
C 2086 4083 2317 3866 2317 3494 
C 2317 3066 2035 2771 1171 2771 
L 1171 2093 
C 2195 2093 2470 1805 2470 1338 
C 2470 915 2144 678 1664 678 
C 1229 678 890 890 608 1165 
L 166 570 
C 499 192 1005 -90 1747 -90 
z
" transform="scale(0.015625)"/>
      <path id="NotoSansCJKsc-Bold-30" d="M 1888 -90 
C 2854 -90 3494 755 3494 2394 
C 3494 4019 2854 4826 1888 4826 
C 922 4826 282 4026 282 2394 
C 282 755 922 -90 1888 -90 
z
M 1888 646 
C 1478 646 1171 1056 1171 2394 
C 1171 3712 1478 4102 1888 4102 
C 2298 4102 2598 3712 2598 2394 
C 2598 1056 2298 646 1888 646 
z
" transform="scale(0.015625)"/>
     </defs>
     <use xlink:href="#NotoSansCJKsc-Bold-33"/>
     <use xlink:href="#NotoSansCJKsc-Bold-37" transform="translate(58.999985 0)"/>
     <use xlink:href="#NotoSansCJKsc-Bold-2e" transform="translate(117.999969 0)"/>
     <use xlink:href="#NotoSansCJKsc-Bold-30" transform="translate(150.499954 0)"/>
     <use xlink:href="#NotoSansCJKsc-Bold-25" transform="translate(209.499939 0)"/>
    </g>
   </g>
   <g id="text_13">
    <!-- Lower violation leakage &amp; overkill -->
    <g style="fill: #475569" transform="translate(131.542563 70.05825) scale(0.11 -0.11)">
     <defs>
      <path id="NotoSansCJKsc-Regular-77" d="M 1139 0 
L 1818 0 
L 2310 1862 
C 2400 2195 2470 2522 2547 2874 
L 2579 2874 
C 2662 2522 2726 2202 2816 1875 
L 3315 0 
L 4026 0 
L 4966 3475 
L 4403 3475 
L 3898 1466 
C 3821 1133 3757 819 3686 499 
L 3654 499 
C 3571 819 3494 1133 3411 1466 
L 2867 3475 
L 2298 3475 
L 1754 1466 
C 1670 1133 1594 819 1523 499 
L 1491 499 
C 1421 819 1357 1133 1286 1466 
L 768 3475 
L 173 3475 
L 1139 0 
z
" transform="scale(0.015625)"/>
      <path id="NotoSansCJKsc-Regular-26" d="M 1658 -83 
C 2208 -83 2650 128 3008 454 
C 3392 186 3757 0 4090 -83 
L 4243 403 
C 3981 474 3680 627 3366 851 
C 3738 1338 4006 1907 4186 2528 
L 3642 2528 
C 3494 1990 3270 1530 2982 1146 
C 2541 1510 2099 1978 1792 2464 
C 2317 2842 2848 3238 2848 3853 
C 2848 4397 2509 4774 1926 4774 
C 1280 4774 851 4294 851 3674 
C 851 3334 966 2957 1158 2573 
C 672 2240 230 1850 230 1216 
C 230 461 813 -83 1658 -83 
z
M 2624 762 
C 2355 531 2048 384 1728 384 
C 1203 384 800 723 800 1248 
C 800 1613 1062 1901 1395 2163 
C 1722 1658 2163 1165 2624 762 
z
M 1574 2848 
C 1434 3136 1350 3424 1350 3680 
C 1350 4064 1574 4365 1933 4365 
C 2246 4365 2374 4115 2374 3840 
C 2374 3424 2003 3142 1574 2848 
z
" transform="scale(0.015625)"/>
     </defs>
     <use xlink:href="#NotoSansCJKsc-Regular-4c"/>
     <use xlink:href="#NotoSansCJKsc-Regular-6f" transform="translate(54.299988 0)"/>
     <use xlink:href="#NotoSansCJKsc-Regular-77" transform="translate(114.899979 0)"/>
     <use xlink:href="#NotoSansCJKsc-Regular-65" transform="translate(195.09996 0)"/>
     <use xlink:href="#NotoSansCJKsc-Regular-72" transform="translate(250.499954 0)"/>
     <use xlink:href="#NotoSansCJKsc-Regular-20" transform="translate(289.299942 0)"/>
     <use xlink:href="#NotoSansCJKsc-Regular-76" transform="translate(311.699936 0)"/>
     <use xlink:href="#NotoSansCJKsc-Regular-69" transform="translate(363.799927 0)"/>
     <use xlink:href="#NotoSansCJKsc-Regular-6f" transform="translate(391.299911 0)"/>
     <use xlink:href="#NotoSansCJKsc-Regular-6c" transform="translate(451.899902 0)"/>
     <use xlink:href="#NotoSansCJKsc-Regular-61" transform="translate(480.299896 0)"/>
     <use xlink:href="#NotoSansCJKsc-Regular-74" transform="translate(536.599884 0)"/>
     <use xlink:href="#NotoSansCJKsc-Regular-69" transform="translate(574.299881 0)"/>
     <use xlink:href="#NotoSansCJKsc-Regular-6f" transform="translate(601.799866 0)"/>
     <use xlink:href="#NotoSansCJKsc-Regular-6e" transform="translate(662.399857 0)"/>
     <use xlink:href="#NotoSansCJKsc-Regular-20" transform="translate(723.399841 0)"/>
     <use xlink:href="#NotoSansCJKsc-Regular-6c" transform="translate(745.799835 0)"/>
     <use xlink:href="#NotoSansCJKsc-Regular-65" transform="translate(774.199829 0)"/>
     <use xlink:href="#NotoSansCJKsc-Regular-61" transform="translate(829.599823 0)"/>
     <use xlink:href="#NotoSansCJKsc-Regular-6b" transform="translate(885.899811 0)"/>
     <use xlink:href="#NotoSansCJKsc-Regular-61" transform="translate(941.099808 0)"/>
     <use xlink:href="#NotoSansCJKsc-Regular-67" transform="translate(997.399796 0)"/>
     <use xlink:href="#NotoSansCJKsc-Regular-65" transform="translate(1053.799789 0)"/>
     <use xlink:href="#NotoSansCJKsc-Regular-20" transform="translate(1109.199783 0)"/>
     <use xlink:href="#NotoSansCJKsc-Regular-26" transform="translate(1131.599777 0)"/>
     <use xlink:href="#NotoSansCJKsc-Regular-20" transform="translate(1199.599762 0)"/>
     <use xlink:href="#NotoSansCJKsc-Regular-6f" transform="translate(1221.999756 0)"/>
     <use xlink:href="#NotoSansCJKsc-Regular-76" transform="translate(1282.599747 0)"/>
     <use xlink:href="#NotoSansCJKsc-Regular-65" transform="translate(1334.699738 0)"/>
     <use xlink:href="#NotoSansCJKsc-Regular-72" transform="translate(1390.099731 0)"/>
     <use xlink:href="#NotoSansCJKsc-Regular-6b" transform="translate(1428.899719 0)"/>
     <use xlink:href="#NotoSansCJKsc-Regular-69" transform="translate(1484.099716 0)"/>
     <use xlink:href="#NotoSansCJKsc-Regular-6c" transform="translate(1511.599701 0)"/>
     <use xlink:href="#NotoSansCJKsc-Regular-6c" transform="translate(1539.999695 0)"/>
    </g>
   </g>
  </g>
  <g id="axes_2">
   <g id="patch_7">
    <path d="M 436.63475 274.556 
L 779.256 274.556 
L 779.256 76.05825 
L 436.63475 76.05825 
z
" style="fill: #ffffff"/>
   </g>
   <g id="matplotlib.axis_3">
    <g id="xtick_3">
     <g id="line2d_17">
      <g>
       <use xlink:href="#m30c924e56b" x="507.469935" y="274.556" style="fill: #475569; stroke: #475569; stroke-width: 0.8"/>
      </g>
     </g>
     <g id="text_14">
      <!-- Recall -->
      <g style="fill: #475569" transform="translate(491.904076 290.311312) scale(0.11 -0.11)">
       <use xlink:href="#NotoSansCJKsc-Regular-52"/>
       <use xlink:href="#NotoSansCJKsc-Regular-65" transform="translate(63.499985 0)"/>
       <use xlink:href="#NotoSansCJKsc-Regular-63" transform="translate(118.899979 0)"/>
       <use xlink:href="#NotoSansCJKsc-Regular-61" transform="translate(169.899963 0)"/>
       <use xlink:href="#NotoSansCJKsc-Regular-6c" transform="translate(226.199951 0)"/>
       <use xlink:href="#NotoSansCJKsc-Regular-6c" transform="translate(254.599945 0)"/>
      </g>
      <!-- (before RAG) -->
      <g style="fill: #475569" transform="translate(475.146263 303.337375) scale(0.11 -0.11)">
       <defs>
        <path id="NotoSansCJKsc-Regular-28" d="M 1530 -1254 
L 1888 -1094 
C 1338 -186 1075 902 1075 1990 
C 1075 3072 1338 4154 1888 5069 
L 1530 5235 
C 941 4275 589 3245 589 1990 
C 589 730 941 -301 1530 -1254 
z
" transform="scale(0.015625)"/>
        <path id="NotoSansCJKsc-Regular-62" d="M 2118 -83 
C 2912 -83 3629 602 3629 1792 
C 3629 2867 3142 3565 2246 3565 
C 1856 3565 1472 3347 1152 3078 
L 1178 3699 
L 1178 5094 
L 589 5094 
L 589 0 
L 1056 0 
L 1107 358 
L 1133 358 
C 1434 83 1798 -83 2118 -83 
z
M 2022 410 
C 1792 410 1478 499 1178 768 
L 1178 2598 
C 1504 2906 1811 3072 2099 3072 
C 2765 3072 3021 2560 3021 1786 
C 3021 928 2598 410 2022 410 
z
" transform="scale(0.015625)"/>
        <path id="NotoSansCJKsc-Regular-66" d="M 211 3002 
L 685 3002 
L 685 0 
L 1267 0 
L 1267 3002 
L 2003 3002 
L 2003 3475 
L 1267 3475 
L 1267 4026 
C 1267 4474 1427 4710 1760 4710 
C 1882 4710 2022 4678 2150 4614 
L 2278 5069 
C 2118 5133 1914 5178 1696 5178 
C 1005 5178 685 4736 685 4032 
L 685 3475 
L 211 3443 
L 211 3002 
z
" transform="scale(0.015625)"/>
        <path id="NotoSansCJKsc-Regular-41" d="M 26 0 
L 621 0 
L 1075 1434 
L 2790 1434 
L 3238 0 
L 3866 0 
L 2272 4691 
L 1613 4691 
L 26 0 
z
M 1222 1901 
L 1453 2624 
C 1619 3155 1773 3661 1920 4211 
L 1946 4211 
C 2099 3667 2246 3155 2419 2624 
L 2643 1901 
L 1222 1901 
z
" transform="scale(0.015625)"/>
        <path id="NotoSansCJKsc-Regular-47" d="M 2490 -83 
C 3117 -83 3635 147 3936 461 
L 3936 2432 
L 2394 2432 
L 2394 1939 
L 3392 1939 
L 3392 710 
C 3206 538 2880 435 2547 435 
C 1542 435 979 1178 979 2362 
C 979 3533 1594 4256 2541 4256 
C 3008 4256 3315 4058 3552 3814 
L 3872 4198 
C 3603 4480 3174 4774 2522 4774 
C 1280 4774 371 3859 371 2342 
C 371 819 1254 -83 2490 -83 
z
" transform="scale(0.015625)"/>
        <path id="NotoSansCJKsc-Regular-29" d="M 634 -1254 
C 1222 -301 1574 730 1574 1990 
C 1574 3245 1222 4275 634 5235 
L 269 5069 
C 819 4154 1094 3072 1094 1990 
C 1094 902 819 -186 269 -1094 
L 634 -1254 
z
" transform="scale(0.015625)"/>
       </defs>
       <use xlink:href="#NotoSansCJKsc-Regular-28"/>
       <use xlink:href="#NotoSansCJKsc-Regular-62" transform="translate(33.799988 0)"/>
       <use xlink:href="#NotoSansCJKsc-Regular-65" transform="translate(95.599976 0)"/>
       <use xlink:href="#NotoSansCJKsc-Regular-66" transform="translate(150.999969 0)"/>
       <use xlink:href="#NotoSansCJKsc-Regular-6f" transform="translate(183.499954 0)"/>
       <use xlink:href="#NotoSansCJKsc-Regular-72" transform="translate(244.099945 0)"/>
       <use xlink:href="#NotoSansCJKsc-Regular-65" transform="translate(282.899933 0)"/>
       <use xlink:href="#NotoSansCJKsc-Regular-20" transform="translate(338.299927 0)"/>
       <use xlink:href="#NotoSansCJKsc-Regular-52" transform="translate(360.699921 0)"/>
       <use xlink:href="#NotoSansCJKsc-Regular-41" transform="translate(424.199905 0)"/>
       <use xlink:href="#NotoSansCJKsc-Regular-47" transform="translate(484.999893 0)"/>
       <use xlink:href="#NotoSansCJKsc-Regular-29" transform="translate(553.899887 0)"/>
      </g>
     </g>
    </g>
    <g id="xtick_4">
     <g id="line2d_18">
      <g>
       <use xlink:href="#m30c924e56b" x="708.420815" y="274.556" style="fill: #475569; stroke: #475569; stroke-width: 0.8"/>
      </g>
     </g>
     <g id="text_15">
      <!-- Recall -->
      <g style="fill: #475569" transform="translate(692.854956 290.311312) scale(0.11 -0.11)">
       <use xlink:href="#NotoSansCJKsc-Regular-52"/>
       <use xlink:href="#NotoSansCJKsc-Regular-65" transform="translate(63.499985 0)"/>
       <use xlink:href="#NotoSansCJKsc-Regular-63" transform="translate(118.899979 0)"/>
       <use xlink:href="#NotoSansCJKsc-Regular-61" transform="translate(169.899963 0)"/>
       <use xlink:href="#NotoSansCJKsc-Regular-6c" transform="translate(226.199951 0)"/>
       <use xlink:href="#NotoSansCJKsc-Regular-6c" transform="translate(254.599945 0)"/>
      </g>
      <!-- (with RAG) -->
      <g style="fill: #475569" transform="translate(681.508627 303.337375) scale(0.11 -0.11)">
       <defs>
        <path id="NotoSansCJKsc-Regular-68" d="M 589 0 
L 1178 0 
L 1178 2522 
C 1523 2874 1766 3053 2125 3053 
C 2586 3053 2784 2778 2784 2125 
L 2784 0 
L 3366 0 
L 3366 2202 
C 3366 3085 3034 3565 2304 3565 
C 1830 3565 1472 3302 1152 2982 
L 1178 3699 
L 1178 5094 
L 589 5094 
L 589 0 
z
" transform="scale(0.015625)"/>
       </defs>
       <use xlink:href="#NotoSansCJKsc-Regular-28"/>
       <use xlink:href="#NotoSansCJKsc-Regular-77" transform="translate(33.799988 0)"/>
       <use xlink:href="#NotoSansCJKsc-Regular-69" transform="translate(113.999969 0)"/>
       <use xlink:href="#NotoSansCJKsc-Regular-74" transform="translate(141.499954 0)"/>
       <use xlink:href="#NotoSansCJKsc-Regular-68" transform="translate(179.199951 0)"/>
       <use xlink:href="#NotoSansCJKsc-Regular-20" transform="translate(239.899948 0)"/>
       <use xlink:href="#NotoSansCJKsc-Regular-52" transform="translate(262.299942 0)"/>
       <use xlink:href="#NotoSansCJKsc-Regular-41" transform="translate(325.799927 0)"/>
       <use xlink:href="#NotoSansCJKsc-Regular-47" transform="translate(386.599915 0)"/>
       <use xlink:href="#NotoSansCJKsc-Regular-29" transform="translate(455.499908 0)"/>
      </g>
     </g>
    </g>
   </g>
   <g id="matplotlib.axis_4">
    <g id="ytick_8">
     <g id="line2d_19">
      <path d="M 436.63475 274.556 
L 779.256 274.556 
" clip-path="url(#pd5c5c1298e)" style="fill: none; stroke: #e5e7eb; stroke-width: 0.8; stroke-linecap: square"/>
     </g>
     <g id="line2d_20">
      <g>
       <use xlink:href="#m91ae5823da" x="436.63475" y="274.556" style="fill: #475569; stroke: #475569; stroke-width: 0.8"/>
      </g>
     </g>
     <g id="text_16">
      <!-- 0 -->
      <g style="fill: #475569" transform="translate(423.52975 278.933656) scale(0.11 -0.11)">
       <use xlink:href="#NotoSansCJKsc-Regular-30"/>
      </g>
     </g>
    </g>
    <g id="ytick_9">
     <g id="line2d_21">
      <path d="M 436.63475 246.199179 
L 779.256 246.199179 
" clip-path="url(#pd5c5c1298e)" style="fill: none; stroke: #e5e7eb; stroke-width: 0.8; stroke-linecap: square"/>
     </g>
     <g id="line2d_22">
      <g>
       <use xlink:href="#m91ae5823da" x="436.63475" y="246.199179" style="fill: #475569; stroke: #475569; stroke-width: 0.8"/>
      </g>
     </g>
     <g id="text_17">
      <!-- 10 -->
      <g style="fill: #475569" transform="translate(417.42475 250.576835) scale(0.11 -0.11)">
       <use xlink:href="#NotoSansCJKsc-Regular-31"/>
       <use xlink:href="#NotoSansCJKsc-Regular-30" transform="translate(55.499985 0)"/>
      </g>
     </g>
    </g>
    <g id="ytick_10">
     <g id="line2d_23">
      <path d="M 436.63475 217.842357 
L 779.256 217.842357 
" clip-path="url(#pd5c5c1298e)" style="fill: none; stroke: #e5e7eb; stroke-width: 0.8; stroke-linecap: square"/>
     </g>
     <g id="line2d_24">
      <g>
       <use xlink:href="#m91ae5823da" x="436.63475" y="217.842357" style="fill: #475569; stroke: #475569; stroke-width: 0.8"/>
      </g>
     </g>
     <g id="text_18">
      <!-- 20 -->
      <g style="fill: #475569" transform="translate(417.42475 222.220013) scale(0.11 -0.11)">
       <use xlink:href="#NotoSansCJKsc-Regular-32"/>
       <use xlink:href="#NotoSansCJKsc-Regular-30" transform="translate(55.499985 0)"/>
      </g>
     </g>
    </g>
    <g id="ytick_11">
     <g id="line2d_25">
      <path d="M 436.63475 189.485536 
L 779.256 189.485536 
" clip-path="url(#pd5c5c1298e)" style="fill: none; stroke: #e5e7eb; stroke-width: 0.8; stroke-linecap: square"/>
     </g>
     <g id="line2d_26">
      <g>
       <use xlink:href="#m91ae5823da" x="436.63475" y="189.485536" style="fill: #475569; stroke: #475569; stroke-width: 0.8"/>
      </g>
     </g>
     <g id="text_19">
      <!-- 30 -->
      <g style="fill: #475569" transform="translate(417.42475 193.863192) scale(0.11 -0.11)">
       <use xlink:href="#NotoSansCJKsc-Regular-33"/>
       <use xlink:href="#NotoSansCJKsc-Regular-30" transform="translate(55.499985 0)"/>
      </g>
     </g>
    </g>
    <g id="ytick_12">
     <g id="line2d_27">
      <path d="M 436.63475 161.128714 
L 779.256 161.128714 
" clip-path="url(#pd5c5c1298e)" style="fill: none; stroke: #e5e7eb; stroke-width: 0.8; stroke-linecap: square"/>
     </g>
     <g id="line2d_28">
      <g>
       <use xlink:href="#m91ae5823da" x="436.63475" y="161.128714" style="fill: #475569; stroke: #475569; stroke-width: 0.8"/>
      </g>
     </g>
     <g id="text_20">
      <!-- 40 -->
      <g style="fill: #475569" transform="translate(417.42475 165.506371) scale(0.11 -0.11)">
       <use xlink:href="#NotoSansCJKsc-Regular-34"/>
       <use xlink:href="#NotoSansCJKsc-Regular-30" transform="translate(55.499985 0)"/>
      </g>
     </g>
    </g>
    <g id="ytick_13">
     <g id="line2d_29">
      <path d="M 436.63475 132.771893 
L 779.256 132.771893 
" clip-path="url(#pd5c5c1298e)" style="fill: none; stroke: #e5e7eb; stroke-width: 0.8; stroke-linecap: square"/>
     </g>
     <g id="line2d_30">
      <g>
       <use xlink:href="#m91ae5823da" x="436.63475" y="132.771893" style="fill: #475569; stroke: #475569; stroke-width: 0.8"/>
      </g>
     </g>
     <g id="text_21">
      <!-- 50 -->
      <g style="fill: #475569" transform="translate(417.42475 137.149549) scale(0.11 -0.11)">
       <use xlink:href="#NotoSansCJKsc-Regular-35"/>
       <use xlink:href="#NotoSansCJKsc-Regular-30" transform="translate(55.499985 0)"/>
      </g>
     </g>
    </g>
    <g id="ytick_14">
     <g id="line2d_31">
      <path d="M 436.63475 104.415071 
L 779.256 104.415071 
" clip-path="url(#pd5c5c1298e)" style="fill: none; stroke: #e5e7eb; stroke-width: 0.8; stroke-linecap: square"/>
     </g>
     <g id="line2d_32">
      <g>
       <use xlink:href="#m91ae5823da" x="436.63475" y="104.415071" style="fill: #475569; stroke: #475569; stroke-width: 0.8"/>
      </g>
     </g>
     <g id="text_22">
      <!-- 60 -->
      <g style="fill: #475569" transform="translate(417.42475 108.792728) scale(0.11 -0.11)">
       <use xlink:href="#NotoSansCJKsc-Regular-36"/>
       <use xlink:href="#NotoSansCJKsc-Regular-30" transform="translate(55.499985 0)"/>
      </g>
     </g>
    </g>
    <g id="ytick_15">
     <g id="line2d_33">
      <path d="M 436.63475 76.05825 
L 779.256 76.05825 
" clip-path="url(#pd5c5c1298e)" style="fill: none; stroke: #e5e7eb; stroke-width: 0.8; stroke-linecap: square"/>
     </g>
     <g id="line2d_34">
      <g>
       <use xlink:href="#m91ae5823da" x="436.63475" y="76.05825" style="fill: #475569; stroke: #475569; stroke-width: 0.8"/>
      </g>
     </g>
     <g id="text_23">
      <!-- 70 -->
      <g style="fill: #475569" transform="translate(417.42475 80.435906) scale(0.11 -0.11)">
       <defs>
        <path id="NotoSansCJKsc-Regular-37" d="M 1267 0 
L 1875 0 
C 1952 1837 2150 2931 3251 4339 
L 3251 4691 
L 314 4691 
L 314 4192 
L 2592 4192 
C 1670 2912 1350 1779 1267 0 
z
" transform="scale(0.015625)"/>
       </defs>
       <use xlink:href="#NotoSansCJKsc-Regular-37"/>
       <use xlink:href="#NotoSansCJKsc-Regular-30" transform="translate(55.499985 0)"/>
      </g>
     </g>
    </g>
    <g id="text_24">
     <!-- Leakage recall (%) -->
     <g style="fill: #0f172a" transform="translate(410.67475 222.174) rotate(-90) scale(0.11 -0.11)">
      <defs>
       <path id="NotoSansCJKsc-Regular-25" d="M 1312 1818 
C 1958 1818 2381 2362 2381 3309 
C 2381 4243 1958 4774 1312 4774 
C 672 4774 250 4243 250 3309 
C 250 2362 672 1818 1312 1818 
z
M 1312 2176 
C 941 2176 691 2560 691 3309 
C 691 4058 941 4416 1312 4416 
C 1683 4416 1933 4058 1933 3309 
C 1933 2560 1683 2176 1312 2176 
z
M 1446 -83 
L 1843 -83 
L 4435 4774 
L 4038 4774 
L 1446 -83 
z
M 4582 -83 
C 5222 -83 5645 454 5645 1402 
C 5645 2342 5222 2874 4582 2874 
C 3942 2874 3520 2342 3520 1402 
C 3520 454 3942 -83 4582 -83 
z
M 4582 275 
C 4211 275 3955 653 3955 1402 
C 3955 2150 4211 2515 4582 2515 
C 4947 2515 5210 2150 5210 1402 
C 5210 653 4947 275 4582 275 
z
" transform="scale(0.015625)"/>
      </defs>
      <use xlink:href="#NotoSansCJKsc-Regular-4c"/>
      <use xlink:href="#NotoSansCJKsc-Regular-65" transform="translate(54.299988 0)"/>
      <use xlink:href="#NotoSansCJKsc-Regular-61" transform="translate(109.699982 0)"/>
      <use xlink:href="#NotoSansCJKsc-Regular-6b" transform="translate(165.999969 0)"/>
      <use xlink:href="#NotoSansCJKsc-Regular-61" transform="translate(221.199966 0)"/>
      <use xlink:href="#NotoSansCJKsc-Regular-67" transform="translate(277.499954 0)"/>
      <use xlink:href="#NotoSansCJKsc-Regular-65" transform="translate(333.899948 0)"/>
      <use xlink:href="#NotoSansCJKsc-Regular-20" transform="translate(389.299942 0)"/>
      <use xlink:href="#NotoSansCJKsc-Regular-72" transform="translate(411.699936 0)"/>
      <use xlink:href="#NotoSansCJKsc-Regular-65" transform="translate(450.499924 0)"/>
      <use xlink:href="#NotoSansCJKsc-Regular-63" transform="translate(505.899918 0)"/>
      <use xlink:href="#NotoSansCJKsc-Regular-61" transform="translate(556.899902 0)"/>
      <use xlink:href="#NotoSansCJKsc-Regular-6c" transform="translate(613.19989 0)"/>
      <use xlink:href="#NotoSansCJKsc-Regular-6c" transform="translate(641.599884 0)"/>
      <use xlink:href="#NotoSansCJKsc-Regular-20" transform="translate(669.999878 0)"/>
      <use xlink:href="#NotoSansCJKsc-Regular-28" transform="translate(692.399872 0)"/>
      <use xlink:href="#NotoSansCJKsc-Regular-25" transform="translate(726.19986 0)"/>
      <use xlink:href="#NotoSansCJKsc-Regular-29" transform="translate(818.29985 0)"/>
     </g>
    </g>
   </g>
   <g id="patch_8">
    <path d="M 436.63475 274.556 
L 436.63475 76.05825 
" style="fill: none; stroke: #94a3b8; stroke-width: 0.8; stroke-linejoin: miter; stroke-linecap: square"/>
   </g>
   <g id="patch_9">
    <path d="M 436.63475 274.556 
L 779.256 274.556 
" style="fill: none; stroke: #94a3b8; stroke-width: 0.8; stroke-linejoin: miter; stroke-linecap: square"/>
   </g>
   <g id="patch_10">
    <path d="M 452.208443 274.556 
L 562.731427 274.556 
L 562.731427 163.113692 
L 452.208443 163.113692 
z
" clip-path="url(#pd5c5c1298e)" style="fill: #94a3b8"/>
   </g>
   <g id="patch_11">
    <path d="M 653.159323 274.556 
L 763.682307 274.556 
L 763.682307 122.563437 
L 653.159323 122.563437 
z
" clip-path="url(#pd5c5c1298e)" style="fill: #d97706"/>
   </g>
   <g id="text_25">
    <!-- 39.3 -->
    <g style="fill: #0f172a" transform="translate(497.728185 161.114192) scale(0.093 -0.093)">
     <defs>
      <path id="NotoSansCJKsc-Bold-39" d="M 1632 -90 
C 2573 -90 3450 685 3450 2477 
C 3450 4122 2650 4826 1747 4826 
C 934 4826 256 4218 256 3245 
C 256 2240 819 1754 1613 1754 
C 1933 1754 2336 1946 2586 2266 
C 2541 1082 2106 678 1581 678 
C 1299 678 1005 826 832 1018 
L 333 448 
C 614 160 1043 -90 1632 -90 
z
M 2573 2938 
C 2342 2566 2048 2426 1792 2426 
C 1382 2426 1120 2688 1120 3245 
C 1120 3827 1408 4115 1760 4115 
C 2163 4115 2490 3795 2573 2938 
z
" transform="scale(0.015625)"/>
     </defs>
     <use xlink:href="#NotoSansCJKsc-Bold-33"/>
     <use xlink:href="#NotoSansCJKsc-Bold-39" transform="translate(58.999985 0)"/>
     <use xlink:href="#NotoSansCJKsc-Bold-2e" transform="translate(117.999969 0)"/>
     <use xlink:href="#NotoSansCJKsc-Bold-33" transform="translate(150.499954 0)"/>
    </g>
   </g>
   <g id="text_26">
    <!-- 53.6 -->
    <g style="fill: #0f172a" transform="translate(698.679065 120.563937) scale(0.093 -0.093)">
     <defs>
      <path id="NotoSansCJKsc-Bold-35" d="M 1773 -90 
C 2637 -90 3424 518 3424 1574 
C 3424 2605 2765 3072 1965 3072 
C 1747 3072 1581 3034 1395 2944 
L 1485 3949 
L 3206 3949 
L 3206 4742 
L 672 4742 
L 544 2438 
L 973 2163 
C 1254 2342 1408 2406 1683 2406 
C 2157 2406 2483 2099 2483 1549 
C 2483 992 2138 678 1645 678 
C 1210 678 870 896 602 1158 
L 166 557 
C 525 205 1018 -90 1773 -90 
z
" transform="scale(0.015625)"/>
      <path id="NotoSansCJKsc-Bold-36" d="M 2022 -90 
C 2829 -90 3507 525 3507 1498 
C 3507 2509 2938 2982 2144 2982 
C 1843 2982 1440 2803 1178 2483 
C 1222 3661 1664 4070 2214 4070 
C 2483 4070 2771 3910 2938 3725 
L 3437 4288 
C 3155 4582 2733 4826 2150 4826 
C 1197 4826 320 4070 320 2304 
C 320 640 1126 -90 2022 -90 
z
M 1197 1818 
C 1434 2176 1722 2317 1971 2317 
C 2381 2317 2650 2061 2650 1498 
C 2650 922 2362 621 2003 621 
C 1606 621 1286 954 1197 1818 
z
" transform="scale(0.015625)"/>
     </defs>
     <use xlink:href="#NotoSansCJKsc-Bold-35"/>
     <use xlink:href="#NotoSansCJKsc-Bold-33" transform="translate(58.999985 0)"/>
     <use xlink:href="#NotoSansCJKsc-Bold-2e" transform="translate(117.999969 0)"/>
     <use xlink:href="#NotoSansCJKsc-Bold-36" transform="translate(150.499954 0)"/>
    </g>
   </g>
   <g id="text_27">
    <!-- RAG boosts recall (39.3 → 53.6) -->
    <g style="fill: #475569" transform="translate(529.074516 70.05825) scale(0.11 -0.11)">
     <defs>
      <path id="NotoSansCJKsc-Regular-73" d="M 1498 -83 
C 2317 -83 2758 384 2758 947 
C 2758 1606 2208 1811 1702 2003 
C 1312 2150 954 2278 954 2605 
C 954 2880 1158 3110 1600 3110 
C 1907 3110 2150 2976 2387 2803 
L 2669 3168 
C 2406 3386 2022 3565 1594 3565 
C 832 3565 397 3130 397 2579 
C 397 1984 922 1754 1408 1574 
C 1792 1434 2202 1267 2202 915 
C 2202 614 1978 371 1517 371 
C 1101 371 794 538 486 787 
L 205 397 
C 531 122 1005 -83 1498 -83 
z
" transform="scale(0.015625)"/>
      <path id="NotoSansCJKsc-Regular-39" d="M 1504 -83 
C 2381 -83 3206 646 3206 2547 
C 3206 4038 2528 4774 1626 4774 
C 896 4774 282 4166 282 3251 
C 282 2285 794 1779 1574 1779 
C 1965 1779 2368 2003 2656 2349 
C 2611 896 2086 403 1485 403 
C 1178 403 896 538 691 762 
L 371 397 
C 634 122 992 -83 1504 -83 
z
M 2650 2842 
C 2336 2394 1984 2214 1670 2214 
C 1114 2214 832 2624 832 3251 
C 832 3898 1178 4320 1632 4320 
C 2227 4320 2586 3808 2650 2842 
z
" transform="scale(0.015625)"/>
      <path id="NotoSansCJKsc-Regular-2e" d="M 890 -83 
C 1120 -83 1312 96 1312 358 
C 1312 627 1120 806 890 806 
C 653 806 467 627 467 358 
C 467 96 653 -83 890 -83 
z
" transform="scale(0.015625)"/>
      <path id="NotoSansCJKsc-Regular-2192" d="M 5190 2650 
L 256 2650 
L 256 2214 
L 5190 2214 
C 4864 1965 4442 1562 4154 1165 
L 4538 941 
C 4966 1504 5606 2067 6176 2432 
C 5606 2797 4966 3360 4538 3923 
L 4154 3699 
C 4442 3302 4864 2899 5190 2650 
z
" transform="scale(0.015625)"/>
     </defs>
     <use xlink:href="#NotoSansCJKsc-Regular-52"/>
     <use xlink:href="#NotoSansCJKsc-Regular-41" transform="translate(63.499985 0)"/>
     <use xlink:href="#NotoSansCJKsc-Regular-47" transform="translate(124.299973 0)"/>
     <use xlink:href="#NotoSansCJKsc-Regular-20" transform="translate(193.199966 0)"/>
     <use xlink:href="#NotoSansCJKsc-Regular-62" transform="translate(215.59996 0)"/>
     <use xlink:href="#NotoSansCJKsc-Regular-6f" transform="translate(277.399948 0)"/>
     <use xlink:href="#NotoSansCJKsc-Regular-6f" transform="translate(337.999939 0)"/>
     <use xlink:href="#NotoSansCJKsc-Regular-73" transform="translate(398.59993 0)"/>
     <use xlink:href="#NotoSansCJKsc-Regular-74" transform="translate(445.399918 0)"/>
     <use xlink:href="#NotoSansCJKsc-Regular-73" transform="translate(483.099915 0)"/>
     <use xlink:href="#NotoSansCJKsc-Regular-20" transform="translate(529.899902 0)"/>
     <use xlink:href="#NotoSansCJKsc-Regular-72" transform="translate(552.299896 0)"/>
     <use xlink:href="#NotoSansCJKsc-Regular-65" transform="translate(591.099884 0)"/>
     <use xlink:href="#NotoSansCJKsc-Regular-63" transform="translate(646.499878 0)"/>
     <use xlink:href="#NotoSansCJKsc-Regular-61" transform="translate(697.499863 0)"/>
     <use xlink:href="#NotoSansCJKsc-Regular-6c" transform="translate(753.79985 0)"/>
     <use xlink:href="#NotoSansCJKsc-Regular-6c" transform="translate(782.199844 0)"/>
     <use xlink:href="#NotoSansCJKsc-Regular-20" transform="translate(810.599838 0)"/>
     <use xlink:href="#NotoSansCJKsc-Regular-28" transform="translate(832.999832 0)"/>
     <use xlink:href="#NotoSansCJKsc-Regular-33" transform="translate(866.79982 0)"/>
     <use xlink:href="#NotoSansCJKsc-Regular-39" transform="translate(922.299805 0)"/>
     <use xlink:href="#NotoSansCJKsc-Regular-2e" transform="translate(977.799789 0)"/>
     <use xlink:href="#NotoSansCJKsc-Regular-33" transform="translate(1005.599777 0)"/>
     <use xlink:href="#NotoSansCJKsc-Regular-20" transform="translate(1061.099762 0)"/>
     <use xlink:href="#NotoSansCJKsc-Regular-2192" transform="translate(1083.499756 0)"/>
     <use xlink:href="#NotoSansCJKsc-Regular-20" transform="translate(1183.499741 0)"/>
     <use xlink:href="#NotoSansCJKsc-Regular-35" transform="translate(1205.899734 0)"/>
     <use xlink:href="#NotoSansCJKsc-Regular-33" transform="translate(1261.399719 0)"/>
     <use xlink:href="#NotoSansCJKsc-Regular-2e" transform="translate(1316.899704 0)"/>
     <use xlink:href="#NotoSansCJKsc-Regular-36" transform="translate(1344.699692 0)"/>
     <use xlink:href="#NotoSansCJKsc-Regular-29" transform="translate(1400.199677 0)"/>
    </g>
   </g>
  </g>
  <g id="text_28">
   <!-- UNIVID — production-style gains (relative) -->
   <g style="fill: #0f172a" transform="translate(8.64 19.885078) scale(0.135 -0.135)">
    <defs>
     <path id="NotoSansCJKsc-Bold-55" d="M 2406 -90 
C 3558 -90 4230 563 4230 2131 
L 4230 4742 
L 3322 4742 
L 3322 2048 
C 3322 1062 2957 730 2406 730 
C 1850 730 1504 1062 1504 2048 
L 1504 4742 
L 563 4742 
L 563 2131 
C 563 563 1242 -90 2406 -90 
z
" transform="scale(0.015625)"/>
     <path id="NotoSansCJKsc-Bold-4e" d="M 582 0 
L 1485 0 
L 1485 1901 
C 1485 2445 1402 3040 1363 3552 
L 1395 3552 
L 1875 2534 
L 3238 0 
L 4205 0 
L 4205 4742 
L 3309 4742 
L 3309 2848 
C 3309 2310 3386 1683 3437 1190 
L 3405 1190 
L 2925 2214 
L 1549 4742 
L 582 4742 
L 582 0 
z
" transform="scale(0.015625)"/>
     <path id="NotoSansCJKsc-Bold-49" d="M 582 0 
L 1530 0 
L 1530 4742 
L 582 4742 
L 582 0 
z
" transform="scale(0.015625)"/>
     <path id="NotoSansCJKsc-Bold-56" d="M 1414 0 
L 2547 0 
L 3994 4742 
L 3034 4742 
L 2419 2432 
C 2272 1907 2170 1434 2016 902 
L 1984 902 
C 1837 1434 1734 1907 1587 2432 
L 966 4742 
L -32 4742 
L 1414 0 
z
" transform="scale(0.015625)"/>
     <path id="NotoSansCJKsc-Bold-44" d="M 582 0 
L 1933 0 
C 3334 0 4224 794 4224 2394 
C 4224 3987 3334 4742 1882 4742 
L 582 4742 
L 582 0 
z
M 1530 768 
L 1530 3981 
L 1818 3981 
C 2707 3981 3258 3546 3258 2394 
C 3258 1242 2707 768 1818 768 
L 1530 768 
z
" transform="scale(0.015625)"/>
     <path id="NotoSansCJKsc-Bold-20" transform="scale(0.015625)"/>
     <path id="NotoSansCJKsc-Bold-2014" d="M 314 1536 
L 5498 1536 
L 5498 2138 
L 314 2138 
L 314 1536 
z
" transform="scale(0.015625)"/>
     <path id="NotoSansCJKsc-Bold-70" d="M 506 -1376 
L 1446 -1376 
L 1446 -282 
L 1414 301 
C 1683 51 1990 -90 2304 -90 
C 3091 -90 3827 621 3827 1850 
C 3827 2950 3296 3674 2419 3674 
C 2029 3674 1664 3469 1363 3213 
L 1344 3213 
L 1274 3584 
L 506 3584 
L 506 -1376 
z
M 2099 685 
C 1901 685 1677 755 1446 954 
L 1446 2534 
C 1690 2778 1907 2899 2150 2899 
C 2643 2899 2861 2522 2861 1837 
C 2861 1056 2522 685 2099 685 
z
" transform="scale(0.015625)"/>
     <path id="NotoSansCJKsc-Bold-72" d="M 506 0 
L 1446 0 
L 1446 2138 
C 1651 2656 1984 2842 2259 2842 
C 2413 2842 2515 2822 2643 2784 
L 2797 3597 
C 2694 3642 2579 3674 2381 3674 
C 2010 3674 1626 3418 1363 2950 
L 1344 2950 
L 1274 3584 
L 506 3584 
L 506 0 
z
" transform="scale(0.015625)"/>
     <path id="NotoSansCJKsc-Bold-6f" d="M 2003 -90 
C 2899 -90 3725 602 3725 1792 
C 3725 2982 2899 3674 2003 3674 
C 1101 3674 282 2982 282 1792 
C 282 602 1101 -90 2003 -90 
z
M 2003 678 
C 1510 678 1242 1114 1242 1792 
C 1242 2464 1510 2906 2003 2906 
C 2490 2906 2765 2464 2765 1792 
C 2765 1114 2490 678 2003 678 
z
" transform="scale(0.015625)"/>
     <path id="NotoSansCJKsc-Bold-64" d="M 1766 -90 
C 2138 -90 2496 109 2758 371 
L 2784 371 
L 2854 0 
L 3622 0 
L 3622 5107 
L 2682 5107 
L 2682 3846 
L 2714 3283 
C 2458 3520 2208 3674 1805 3674 
C 1037 3674 301 2957 301 1792 
C 301 614 870 -90 1766 -90 
z
M 2010 685 
C 1536 685 1267 1056 1267 1805 
C 1267 2515 1606 2899 2010 2899 
C 2240 2899 2464 2829 2682 2630 
L 2682 1056 
C 2477 787 2259 685 2010 685 
z
" transform="scale(0.015625)"/>
     <path id="NotoSansCJKsc-Bold-75" d="M 1574 -90 
C 2067 -90 2406 154 2714 518 
L 2739 518 
L 2810 0 
L 3578 0 
L 3578 3584 
L 2637 3584 
L 2637 1165 
C 2394 845 2202 717 1914 717 
C 1562 717 1402 909 1402 1466 
L 1402 3584 
L 467 3584 
L 467 1350 
C 467 448 800 -90 1574 -90 
z
" transform="scale(0.015625)"/>
     <path id="NotoSansCJKsc-Bold-63" d="M 2029 -90 
C 2426 -90 2861 45 3200 346 
L 2829 966 
C 2630 800 2394 678 2131 678 
C 1613 678 1242 1114 1242 1792 
C 1242 2464 1613 2906 2163 2906 
C 2362 2906 2528 2822 2707 2675 
L 3155 3270 
C 2893 3507 2554 3674 2112 3674 
C 1139 3674 282 2982 282 1792 
C 282 602 1043 -90 2029 -90 
z
" transform="scale(0.015625)"/>
     <path id="NotoSansCJKsc-Bold-74" d="M 1818 -90 
C 2131 -90 2381 -13 2579 45 
L 2419 730 
C 2323 691 2182 653 2067 653 
C 1747 653 1574 845 1574 1254 
L 1574 2842 
L 2464 2842 
L 2464 3584 
L 1574 3584 
L 1574 4550 
L 800 4550 
L 691 3584 
L 134 3539 
L 134 2842 
L 640 2842 
L 640 1248 
C 640 454 966 -90 1818 -90 
z
" transform="scale(0.015625)"/>
     <path id="NotoSansCJKsc-Bold-69" d="M 506 0 
L 1446 0 
L 1446 3584 
L 506 3584 
L 506 0 
z
M 979 4166 
C 1299 4166 1523 4365 1523 4678 
C 1523 4986 1299 5190 979 5190 
C 646 5190 435 4986 435 4678 
C 435 4365 646 4166 979 4166 
z
" transform="scale(0.015625)"/>
     <path id="NotoSansCJKsc-Bold-6e" d="M 506 0 
L 1446 0 
L 1446 2464 
C 1709 2726 1901 2867 2189 2867 
C 2541 2867 2694 2675 2694 2118 
L 2694 0 
L 3635 0 
L 3635 2234 
C 3635 3136 3302 3674 2528 3674 
C 2042 3674 1677 3418 1363 3110 
L 1344 3110 
L 1274 3584 
L 506 3584 
L 506 0 
z
" transform="scale(0.015625)"/>
     <path id="NotoSansCJKsc-Bold-2d" d="M 314 1491 
L 2061 1491 
L 2061 2170 
L 314 2170 
L 314 1491 
z
" transform="scale(0.015625)"/>
     <path id="NotoSansCJKsc-Bold-73" d="M 1530 -90 
C 2458 -90 2957 410 2957 1043 
C 2957 1702 2432 1946 1958 2125 
C 1574 2266 1248 2362 1248 2624 
C 1248 2829 1402 2970 1728 2970 
C 1990 2970 2240 2842 2496 2662 
L 2918 3232 
C 2624 3462 2221 3674 1702 3674 
C 883 3674 365 3219 365 2579 
C 365 1978 870 1702 1325 1530 
C 1702 1382 2074 1261 2074 992 
C 2074 768 1914 614 1555 614 
C 1216 614 915 762 595 1005 
L 166 410 
C 525 115 1050 -90 1530 -90 
z
" transform="scale(0.015625)"/>
     <path id="NotoSansCJKsc-Bold-79" d="M 819 -1434 
C 1619 -1434 2003 -954 2317 -109 
L 3590 3584 
L 2688 3584 
L 2195 1920 
C 2106 1587 2016 1242 1939 909 
L 1907 909 
C 1805 1254 1715 1600 1606 1920 
L 1037 3584 
L 90 3584 
L 1485 70 
L 1421 -147 
C 1318 -461 1114 -691 749 -691 
C 666 -691 563 -666 499 -646 
L 326 -1370 
C 467 -1408 608 -1434 819 -1434 
z
" transform="scale(0.015625)"/>
     <path id="NotoSansCJKsc-Bold-6c" d="M 1395 -90 
C 1613 -90 1766 -51 1875 -6 
L 1760 691 
C 1696 678 1670 678 1632 678 
C 1542 678 1446 749 1446 966 
L 1446 5107 
L 506 5107 
L 506 1005 
C 506 339 736 -90 1395 -90 
z
" transform="scale(0.015625)"/>
     <path id="NotoSansCJKsc-Bold-65" d="M 2067 -90 
C 2509 -90 2963 64 3315 307 
L 2995 883 
C 2733 723 2483 640 2195 640 
C 1658 640 1274 941 1197 1523 
L 3405 1523 
C 3430 1613 3450 1786 3450 1958 
C 3450 2957 2938 3674 1952 3674 
C 1101 3674 282 2950 282 1792 
C 282 608 1062 -90 2067 -90 
z
M 1178 2157 
C 1254 2675 1587 2944 1965 2944 
C 2432 2944 2643 2637 2643 2157 
L 1178 2157 
z
" transform="scale(0.015625)"/>
     <path id="NotoSansCJKsc-Bold-67" d="M 1766 -1555 
C 2963 -1555 3718 -1005 3718 -282 
C 3718 346 3245 614 2381 614 
L 1766 614 
C 1350 614 1203 717 1203 902 
C 1203 1056 1267 1133 1357 1216 
C 1517 1158 1683 1133 1818 1133 
C 2592 1133 3206 1536 3206 2349 
C 3206 2573 3136 2771 3046 2893 
L 3654 2893 
L 3654 3584 
L 2368 3584 
C 2214 3635 2029 3674 1818 3674 
C 1062 3674 378 3219 378 2381 
C 378 1958 608 1619 858 1440 
L 858 1414 
C 640 1261 461 1011 461 749 
C 461 448 595 262 787 141 
L 787 109 
C 448 -77 275 -333 275 -634 
C 275 -1267 922 -1555 1766 -1555 
z
M 1818 1715 
C 1510 1715 1261 1952 1261 2381 
C 1261 2797 1504 3027 1818 3027 
C 2138 3027 2387 2797 2387 2381 
C 2387 1952 2138 1715 1818 1715 
z
M 1907 -954 
C 1389 -954 1056 -787 1056 -493 
C 1056 -339 1126 -198 1286 -70 
C 1421 -102 1568 -115 1779 -115 
L 2221 -115 
C 2605 -115 2816 -186 2816 -442 
C 2816 -717 2451 -954 1907 -954 
z
" transform="scale(0.015625)"/>
     <path id="NotoSansCJKsc-Bold-61" d="M 1382 -90 
C 1798 -90 2157 109 2464 384 
L 2496 384 
L 2560 0 
L 3328 0 
L 3328 2093 
C 3328 3130 2861 3674 1952 3674 
C 1389 3674 877 3456 461 3200 
L 794 2573 
C 1126 2771 1446 2918 1779 2918 
C 2221 2918 2374 2650 2387 2298 
C 947 2144 326 1741 326 979 
C 326 365 742 -90 1382 -90 
z
M 1696 646 
C 1421 646 1222 768 1222 1050 
C 1222 1376 1510 1613 2387 1715 
L 2387 998 
C 2163 774 1965 646 1696 646 
z
" transform="scale(0.015625)"/>
     <path id="NotoSansCJKsc-Bold-28" d="M 1504 -1293 
L 2086 -1043 
C 1549 -109 1306 966 1306 2016 
C 1306 3066 1549 4147 2086 5082 
L 1504 5331 
C 896 4339 544 3296 544 2016 
C 544 736 896 -307 1504 -1293 
z
" transform="scale(0.015625)"/>
     <path id="NotoSansCJKsc-Bold-76" d="M 1312 0 
L 2400 0 
L 3597 3584 
L 2694 3584 
L 2170 1798 
C 2074 1446 1978 1075 1882 710 
L 1850 710 
C 1747 1075 1658 1446 1555 1798 
L 1037 3584 
L 90 3584 
L 1312 0 
z
" transform="scale(0.015625)"/>
     <path id="NotoSansCJKsc-Bold-29" d="M 915 -1293 
C 1523 -307 1875 736 1875 2016 
C 1875 3296 1523 4339 915 5331 
L 333 5082 
C 870 4147 1114 3066 1114 2016 
C 1114 966 870 -109 333 -1043 
L 915 -1293 
z
" transform="scale(0.015625)"/>
    </defs>
    <use xlink:href="#NotoSansCJKsc-Bold-55"/>
    <use xlink:href="#NotoSansCJKsc-Bold-4e" transform="translate(74.799988 0)"/>
    <use xlink:href="#NotoSansCJKsc-Bold-49" transform="translate(149.699982 0)"/>
    <use xlink:href="#NotoSansCJKsc-Bold-56" transform="translate(182.699966 0)"/>
    <use xlink:href="#NotoSansCJKsc-Bold-49" transform="translate(244.59996 0)"/>
    <use xlink:href="#NotoSansCJKsc-Bold-44" transform="translate(277.599945 0)"/>
    <use xlink:href="#NotoSansCJKsc-Bold-20" transform="translate(348.999939 0)"/>
    <use xlink:href="#NotoSansCJKsc-Bold-2014" transform="translate(371.699936 0)"/>
    <use xlink:href="#NotoSansCJKsc-Bold-20" transform="translate(462.499924 0)"/>
    <use xlink:href="#NotoSansCJKsc-Bold-70" transform="translate(485.199921 0)"/>
    <use xlink:href="#NotoSansCJKsc-Bold-72" transform="translate(549.599915 0)"/>
    <use xlink:href="#NotoSansCJKsc-Bold-6f" transform="translate(593.199905 0)"/>
    <use xlink:href="#NotoSansCJKsc-Bold-64" transform="translate(655.799896 0)"/>
    <use xlink:href="#NotoSansCJKsc-Bold-75" transform="translate(720.19989 0)"/>
    <use xlink:href="#NotoSansCJKsc-Bold-63" transform="translate(783.899887 0)"/>
    <use xlink:href="#NotoSansCJKsc-Bold-74" transform="translate(836.599884 0)"/>
    <use xlink:href="#NotoSansCJKsc-Bold-69" transform="translate(878.699875 0)"/>
    <use xlink:href="#NotoSansCJKsc-Bold-6f" transform="translate(909.099869 0)"/>
    <use xlink:href="#NotoSansCJKsc-Bold-6e" transform="translate(971.69986 0)"/>
    <use xlink:href="#NotoSansCJKsc-Bold-2d" transform="translate(1035.79985 0)"/>
    <use xlink:href="#NotoSansCJKsc-Bold-73" transform="translate(1072.799835 0)"/>
    <use xlink:href="#NotoSansCJKsc-Bold-74" transform="translate(1122.29982 0)"/>
    <use xlink:href="#NotoSansCJKsc-Bold-79" transform="translate(1164.399811 0)"/>
    <use xlink:href="#NotoSansCJKsc-Bold-6c" transform="translate(1221.799805 0)"/>
    <use xlink:href="#NotoSansCJKsc-Bold-65" transform="translate(1253.299789 0)"/>
    <use xlink:href="#NotoSansCJKsc-Bold-20" transform="translate(1311.39978 0)"/>
    <use xlink:href="#NotoSansCJKsc-Bold-67" transform="translate(1334.099777 0)"/>
    <use xlink:href="#NotoSansCJKsc-Bold-61" transform="translate(1393.799774 0)"/>
    <use xlink:href="#NotoSansCJKsc-Bold-69" transform="translate(1452.899765 0)"/>
    <use xlink:href="#NotoSansCJKsc-Bold-6e" transform="translate(1483.299759 0)"/>
    <use xlink:href="#NotoSansCJKsc-Bold-73" transform="translate(1547.39975 0)"/>
    <use xlink:href="#NotoSansCJKsc-Bold-20" transform="translate(1596.899734 0)"/>
    <use xlink:href="#NotoSansCJKsc-Bold-28" transform="translate(1619.599731 0)"/>
    <use xlink:href="#NotoSansCJKsc-Bold-72" transform="translate(1657.399719 0)"/>
    <use xlink:href="#NotoSansCJKsc-Bold-65" transform="translate(1700.99971 0)"/>
    <use xlink:href="#NotoSansCJKsc-Bold-6c" transform="translate(1759.099701 0)"/>
    <use xlink:href="#NotoSansCJKsc-Bold-61" transform="translate(1790.599686 0)"/>
    <use xlink:href="#NotoSansCJKsc-Bold-74" transform="translate(1849.699677 0)"/>
    <use xlink:href="#NotoSansCJKsc-Bold-69" transform="translate(1891.799667 0)"/>
    <use xlink:href="#NotoSansCJKsc-Bold-76" transform="translate(1922.199661 0)"/>
    <use xlink:href="#NotoSansCJKsc-Bold-65" transform="translate(1979.799652 0)"/>
    <use xlink:href="#NotoSansCJKsc-Bold-29" transform="translate(2037.899643 0)"/>
   </g>
  </g>
 </g>
 <defs>
  <clipPath id="pedd996aed6">
   <rect x="46.496" y="76.05825" width="342.62125" height="198.49775"/>
  </clipPath>
  <clipPath id="pd5c5c1298e">
   <rect x="436.63475" y="76.05825" width="342.62125" height="198.49775"/>
  </clipPath>
 </defs>
</svg>
