<?xml version="1.0" encoding="utf-8" standalone="no"?>
<!DOCTYPE svg PUBLIC "-//W3C//DTD SVG 1.1//EN"
  "http://www.w3.org/Graphics/SVG/1.1/DTD/svg11.dtd">
<svg xmlns:xlink="http://www.w3.org/1999/xlink" width="631.08pt" height="272.304pt" viewBox="0 0 631.08 272.304" xmlns="http://www.w3.org/2000/svg" version="1.1">
 <metadata>
  <rdf:RDF xmlns:dc="http://purl.org/dc/elements/1.1/" xmlns:cc="http://creativecommons.org/ns#" xmlns:rdf="http://www.w3.org/1999/02/22-rdf-syntax-ns#">
   <cc:Work>
    <dc:type rdf:resource="http://purl.org/dc/dcmitype/StillImage"/>
    <dc:date>2026-06-27T20:28:40.170146</dc:date>
    <dc:format>image/svg+xml</dc:format>
    <dc:creator>
     <cc:Agent>
      <dc:title>Matplotlib v3.10.5, https://matplotlib.org/</dc:title>
     </cc:Agent>
    </dc:creator>
   </cc:Work>
  </rdf:RDF>
 </metadata>
 <defs>
  <style type="text/css">*{stroke-linejoin: round; stroke-linecap: butt}</style>
 </defs>
 <g id="figure_1">
  <g id="patch_1">
   <path d="M 0 272.304 
L 631.08 272.304 
L 631.08 0 
L 0 0 
z
" style="fill: #ffffff"/>
  </g>
  <g id="axes_1">
   <g id="patch_2">
    <path d="M 128.492093 123.4008 
Q 133.548351 123.4008 136.677681 123.4008 
" clip-path="url(#pdf650e746f)" style="fill: none; stroke: #94a3b8; stroke-width: 1.9; stroke-linecap: round"/>
    <path d="M 130.677681 120.0008 
L 136.677681 123.4008 
L 130.677681 126.8008 
" clip-path="url(#pdf650e746f)" style="fill: none; stroke: #94a3b8; stroke-width: 1.9; stroke-linecap: round"/>
   </g>
   <g id="patch_3">
    <path d="M 253.093493 123.4008 
Q 258.149751 123.4008 261.279081 123.4008 
" clip-path="url(#pdf650e746f)" style="fill: none; stroke: #94a3b8; stroke-width: 1.9; stroke-linecap: round"/>
    <path d="M 255.279081 120.0008 
L 261.279081 123.4008 
L 255.279081 126.8008 
" clip-path="url(#pdf650e746f)" style="fill: none; stroke: #94a3b8; stroke-width: 1.9; stroke-linecap: round"/>
   </g>
   <g id="patch_4">
    <path d="M 377.694893 123.4008 
Q 382.751151 123.4008 385.880481 123.4008 
" clip-path="url(#pdf650e746f)" style="fill: none; stroke: #94a3b8; stroke-width: 1.9; stroke-linecap: round"/>
    <path d="M 379.880481 120.0008 
L 385.880481 123.4008 
L 379.880481 126.8008 
" clip-path="url(#pdf650e746f)" style="fill: none; stroke: #94a3b8; stroke-width: 1.9; stroke-linecap: round"/>
   </g>
   <g id="patch_5">
    <path d="M 502.296293 123.4008 
Q 507.352551 123.4008 510.481881 123.4008 
" clip-path="url(#pdf650e746f)" style="fill: none; stroke: #94a3b8; stroke-width: 1.9; stroke-linecap: round"/>
    <path d="M 504.481881 120.0008 
L 510.481881 123.4008 
L 504.481881 126.8008 
" clip-path="url(#pdf650e746f)" style="fill: none; stroke: #94a3b8; stroke-width: 1.9; stroke-linecap: round"/>
   </g>
   <g id="patch_6">
    <path d="M 20.916 164.714688 
L 121.5792 164.714688 
Q 133.8552 164.714688 133.8552 159.614208 
L 133.8552 87.187392 
Q 133.8552 82.086912 121.5792 82.086912 
L 20.916 82.086912 
Q 8.64 82.086912 8.64 87.187392 
L 8.64 159.614208 
Q 8.64 164.714688 20.916 164.714688 
z
" clip-path="url(#pdf650e746f)" style="fill: #ecfeff; stroke: #a5f3fc; stroke-width: 1.4; stroke-linejoin: miter"/>
   </g>
   <g id="patch_7">
    <path d="M 145.5174 164.714688 
L 246.1806 164.714688 
Q 258.4566 164.714688 258.4566 159.614208 
L 258.4566 87.187392 
Q 258.4566 82.086912 246.1806 82.086912 
L 145.5174 82.086912 
Q 133.2414 82.086912 133.2414 87.187392 
L 133.2414 159.614208 
Q 133.2414 164.714688 145.5174 164.714688 
z
" clip-path="url(#pdf650e746f)" style="fill: #eff6ff; stroke: #bfdbfe; stroke-width: 1.4; stroke-linejoin: miter"/>
   </g>
   <g id="patch_8">
    <path d="M 270.1188 164.714688 
L 370.782 164.714688 
Q 383.058 164.714688 383.058 159.614208 
L 383.058 87.187392 
Q 383.058 82.086912 370.782 82.086912 
L 270.1188 82.086912 
Q 257.8428 82.086912 257.8428 87.187392 
L 257.8428 159.614208 
Q 257.8428 164.714688 270.1188 164.714688 
z
" clip-path="url(#pdf650e746f)" style="fill: #f5f3ff; stroke: #ddd6fe; stroke-width: 1.4; stroke-linejoin: miter"/>
   </g>
   <g id="patch_9">
    <path d="M 394.7202 164.714688 
L 495.3834 164.714688 
Q 507.6594 164.714688 507.6594 159.614208 
L 507.6594 87.187392 
Q 507.6594 82.086912 495.3834 82.086912 
L 394.7202 82.086912 
Q 382.4442 82.086912 382.4442 87.187392 
L 382.4442 159.614208 
Q 382.4442 164.714688 394.7202 164.714688 
z
" clip-path="url(#pdf650e746f)" style="fill: #fffbeb; stroke: #fde68a; stroke-width: 1.4; stroke-linejoin: miter"/>
   </g>
   <g id="patch_10">
    <path d="M 519.3216 164.714688 
L 619.9848 164.714688 
Q 632.2608 164.714688 632.2608 159.614208 
L 632.2608 87.187392 
Q 632.2608 82.086912 619.9848 82.086912 
L 519.3216 82.086912 
Q 507.0456 82.086912 507.0456 87.187392 
L 507.0456 159.614208 
Q 507.0456 164.714688 519.3216 164.714688 
z
" clip-path="url(#pdf650e746f)" style="fill: #ecfdf5; stroke: #bbf7d0; stroke-width: 1.4; stroke-linejoin: miter"/>
   </g>
   <g id="text_1">
    <!-- Qwen-Image-Agent — Context-centric agentic image generation -->
    <g style="fill: #0f172a" transform="translate(16.0056 45.436811) scale(0.155 -0.155)">
     <defs>
      <path id="NotoSansCJKsc-Bold-51" d="M 2464 685 
C 1760 685 1318 1325 1318 2394 
C 1318 3405 1760 4013 2464 4013 
C 3168 4013 3616 3405 3616 2394 
C 3616 1325 3168 685 2464 685 
z
M 3994 -1286 
C 4339 -1286 4627 -1229 4794 -1146 
L 4621 -448 
C 4486 -493 4307 -531 4102 -531 
C 3674 -531 3245 -378 3027 -19 
C 3968 224 4582 1094 4582 2394 
C 4582 3930 3718 4826 2464 4826 
C 1210 4826 346 3930 346 2394 
C 346 1037 1018 147 2029 -51 
C 2349 -768 3027 -1286 3994 -1286 
z
" transform="scale(0.015625)"/>
      <path id="NotoSansCJKsc-Bold-77" d="M 1101 0 
L 2176 0 
L 2541 1562 
C 2611 1894 2669 2227 2733 2611 
L 2765 2611 
C 2835 2227 2899 1901 2976 1562 
L 3354 0 
L 4461 0 
L 5344 3584 
L 4467 3584 
L 4083 1818 
C 4019 1466 3968 1120 3904 768 
L 3878 768 
C 3795 1120 3731 1466 3648 1818 
L 3200 3584 
L 2368 3584 
L 1933 1818 
C 1843 1472 1779 1120 1709 768 
L 1677 768 
C 1619 1120 1568 1466 1510 1818 
L 1114 3584 
L 179 3584 
L 1101 0 
z
" transform="scale(0.015625)"/>
      <path id="NotoSansCJKsc-Bold-65" d="M 2067 -90 
C 2509 -90 2963 64 3315 307 
L 2995 883 
C 2733 723 2483 640 2195 640 
C 1658 640 1274 941 1197 1523 
L 3405 1523 
C 3430 1613 3450 1786 3450 1958 
C 3450 2957 2938 3674 1952 3674 
C 1101 3674 282 2950 282 1792 
C 282 608 1062 -90 2067 -90 
z
M 1178 2157 
C 1254 2675 1587 2944 1965 2944 
C 2432 2944 2643 2637 2643 2157 
L 1178 2157 
z
" transform="scale(0.015625)"/>
      <path id="NotoSansCJKsc-Bold-6e" d="M 506 0 
L 1446 0 
L 1446 2464 
C 1709 2726 1901 2867 2189 2867 
C 2541 2867 2694 2675 2694 2118 
L 2694 0 
L 3635 0 
L 3635 2234 
C 3635 3136 3302 3674 2528 3674 
C 2042 3674 1677 3418 1363 3110 
L 1344 3110 
L 1274 3584 
L 506 3584 
L 506 0 
z
" transform="scale(0.015625)"/>
      <path id="NotoSansCJKsc-Bold-2d" d="M 314 1491 
L 2061 1491 
L 2061 2170 
L 314 2170 
L 314 1491 
z
" transform="scale(0.015625)"/>
      <path id="NotoSansCJKsc-Bold-49" d="M 582 0 
L 1530 0 
L 1530 4742 
L 582 4742 
L 582 0 
z
" transform="scale(0.015625)"/>
      <path id="NotoSansCJKsc-Bold-6d" d="M 506 0 
L 1446 0 
L 1446 2464 
C 1696 2739 1926 2867 2131 2867 
C 2477 2867 2637 2675 2637 2118 
L 2637 0 
L 3571 0 
L 3571 2464 
C 3827 2739 4058 2867 4262 2867 
C 4602 2867 4762 2675 4762 2118 
L 4762 0 
L 5696 0 
L 5696 2234 
C 5696 3136 5350 3674 4589 3674 
C 4128 3674 3776 3392 3443 3046 
C 3277 3443 2976 3674 2464 3674 
C 1997 3674 1664 3418 1363 3104 
L 1344 3104 
L 1274 3584 
L 506 3584 
L 506 0 
z
" transform="scale(0.015625)"/>
      <path id="NotoSansCJKsc-Bold-61" d="M 1382 -90 
C 1798 -90 2157 109 2464 384 
L 2496 384 
L 2560 0 
L 3328 0 
L 3328 2093 
C 3328 3130 2861 3674 1952 3674 
C 1389 3674 877 3456 461 3200 
L 794 2573 
C 1126 2771 1446 2918 1779 2918 
C 2221 2918 2374 2650 2387 2298 
C 947 2144 326 1741 326 979 
C 326 365 742 -90 1382 -90 
z
M 1696 646 
C 1421 646 1222 768 1222 1050 
C 1222 1376 1510 1613 2387 1715 
L 2387 998 
C 2163 774 1965 646 1696 646 
z
" transform="scale(0.015625)"/>
      <path id="NotoSansCJKsc-Bold-67" d="M 1766 -1555 
C 2963 -1555 3718 -1005 3718 -282 
C 3718 346 3245 614 2381 614 
L 1766 614 
C 1350 614 1203 717 1203 902 
C 1203 1056 1267 1133 1357 1216 
C 1517 1158 1683 1133 1818 1133 
C 2592 1133 3206 1536 3206 2349 
C 3206 2573 3136 2771 3046 2893 
L 3654 2893 
L 3654 3584 
L 2368 3584 
C 2214 3635 2029 3674 1818 3674 
C 1062 3674 378 3219 378 2381 
C 378 1958 608 1619 858 1440 
L 858 1414 
C 640 1261 461 1011 461 749 
C 461 448 595 262 787 141 
L 787 109 
C 448 -77 275 -333 275 -634 
C 275 -1267 922 -1555 1766 -1555 
z
M 1818 1715 
C 1510 1715 1261 1952 1261 2381 
C 1261 2797 1504 3027 1818 3027 
C 2138 3027 2387 2797 2387 2381 
C 2387 1952 2138 1715 1818 1715 
z
M 1907 -954 
C 1389 -954 1056 -787 1056 -493 
C 1056 -339 1126 -198 1286 -70 
C 1421 -102 1568 -115 1779 -115 
L 2221 -115 
C 2605 -115 2816 -186 2816 -442 
C 2816 -717 2451 -954 1907 -954 
z
" transform="scale(0.015625)"/>
      <path id="NotoSansCJKsc-Bold-41" d="M -26 0 
L 934 0 
L 1267 1216 
L 2797 1216 
L 3130 0 
L 4128 0 
L 2611 4742 
L 1491 4742 
L -26 0 
z
M 1472 1952 
L 1613 2470 
C 1754 2963 1888 3501 2016 4019 
L 2042 4019 
C 2182 3514 2310 2963 2458 2470 
L 2598 1952 
L 1472 1952 
z
" transform="scale(0.015625)"/>
      <path id="NotoSansCJKsc-Bold-74" d="M 1818 -90 
C 2131 -90 2381 -13 2579 45 
L 2419 730 
C 2323 691 2182 653 2067 653 
C 1747 653 1574 845 1574 1254 
L 1574 2842 
L 2464 2842 
L 2464 3584 
L 1574 3584 
L 1574 4550 
L 800 4550 
L 691 3584 
L 134 3539 
L 134 2842 
L 640 2842 
L 640 1248 
C 640 454 966 -90 1818 -90 
z
" transform="scale(0.015625)"/>
      <path id="NotoSansCJKsc-Bold-20" transform="scale(0.015625)"/>
      <path id="NotoSansCJKsc-Bold-2014" d="M 314 1536 
L 5498 1536 
L 5498 2138 
L 314 2138 
L 314 1536 
z
" transform="scale(0.015625)"/>
      <path id="NotoSansCJKsc-Bold-43" d="M 2509 -90 
C 3130 -90 3635 154 4026 608 
L 3520 1197 
C 3270 922 2957 730 2547 730 
C 1798 730 1318 1350 1318 2381 
C 1318 3398 1850 4013 2566 4013 
C 2925 4013 3200 3846 3443 3616 
L 3936 4218 
C 3629 4538 3155 4826 2547 4826 
C 1350 4826 346 3910 346 2349 
C 346 768 1318 -90 2509 -90 
z
" transform="scale(0.015625)"/>
      <path id="NotoSansCJKsc-Bold-6f" d="M 2003 -90 
C 2899 -90 3725 602 3725 1792 
C 3725 2982 2899 3674 2003 3674 
C 1101 3674 282 2982 282 1792 
C 282 602 1101 -90 2003 -90 
z
M 2003 678 
C 1510 678 1242 1114 1242 1792 
C 1242 2464 1510 2906 2003 2906 
C 2490 2906 2765 2464 2765 1792 
C 2765 1114 2490 678 2003 678 
z
" transform="scale(0.015625)"/>
      <path id="NotoSansCJKsc-Bold-78" d="M 102 0 
L 1082 0 
L 1408 659 
C 1510 870 1606 1082 1709 1280 
L 1741 1280 
C 1856 1082 1978 870 2086 659 
L 2483 0 
L 3494 0 
L 2374 1760 
L 3424 3584 
L 2451 3584 
L 2150 2950 
C 2067 2746 1971 2541 1888 2342 
L 1862 2342 
C 1754 2541 1645 2746 1542 2950 
L 1184 3584 
L 173 3584 
L 1222 1862 
L 102 0 
z
" transform="scale(0.015625)"/>
      <path id="NotoSansCJKsc-Bold-63" d="M 2029 -90 
C 2426 -90 2861 45 3200 346 
L 2829 966 
C 2630 800 2394 678 2131 678 
C 1613 678 1242 1114 1242 1792 
C 1242 2464 1613 2906 2163 2906 
C 2362 2906 2528 2822 2707 2675 
L 3155 3270 
C 2893 3507 2554 3674 2112 3674 
C 1139 3674 282 2982 282 1792 
C 282 602 1043 -90 2029 -90 
z
" transform="scale(0.015625)"/>
      <path id="NotoSansCJKsc-Bold-72" d="M 506 0 
L 1446 0 
L 1446 2138 
C 1651 2656 1984 2842 2259 2842 
C 2413 2842 2515 2822 2643 2784 
L 2797 3597 
C 2694 3642 2579 3674 2381 3674 
C 2010 3674 1626 3418 1363 2950 
L 1344 2950 
L 1274 3584 
L 506 3584 
L 506 0 
z
" transform="scale(0.015625)"/>
      <path id="NotoSansCJKsc-Bold-69" d="M 506 0 
L 1446 0 
L 1446 3584 
L 506 3584 
L 506 0 
z
M 979 4166 
C 1299 4166 1523 4365 1523 4678 
C 1523 4986 1299 5190 979 5190 
C 646 5190 435 4986 435 4678 
C 435 4365 646 4166 979 4166 
z
" transform="scale(0.015625)"/>
     </defs>
     <use xlink:href="#NotoSansCJKsc-Bold-51"/>
     <use xlink:href="#NotoSansCJKsc-Bold-77" transform="translate(76.999985 0)"/>
     <use xlink:href="#NotoSansCJKsc-Bold-65" transform="translate(163.299973 0)"/>
     <use xlink:href="#NotoSansCJKsc-Bold-6e" transform="translate(221.399963 0)"/>
     <use xlink:href="#NotoSansCJKsc-Bold-2d" transform="translate(285.499954 0)"/>
     <use xlink:href="#NotoSansCJKsc-Bold-49" transform="translate(322.499939 0)"/>
     <use xlink:href="#NotoSansCJKsc-Bold-6d" transform="translate(355.499924 0)"/>
     <use xlink:href="#NotoSansCJKsc-Bold-61" transform="translate(451.899918 0)"/>
     <use xlink:href="#NotoSansCJKsc-Bold-67" transform="translate(510.999908 0)"/>
     <use xlink:href="#NotoSansCJKsc-Bold-65" transform="translate(570.699905 0)"/>
     <use xlink:href="#NotoSansCJKsc-Bold-2d" transform="translate(628.799896 0)"/>
     <use xlink:href="#NotoSansCJKsc-Bold-41" transform="translate(665.799881 0)"/>
     <use xlink:href="#NotoSansCJKsc-Bold-67" transform="translate(729.899872 0)"/>
     <use xlink:href="#NotoSansCJKsc-Bold-65" transform="translate(789.599869 0)"/>
     <use xlink:href="#NotoSansCJKsc-Bold-6e" transform="translate(847.69986 0)"/>
     <use xlink:href="#NotoSansCJKsc-Bold-74" transform="translate(911.79985 0)"/>
     <use xlink:href="#NotoSansCJKsc-Bold-20" transform="translate(953.899841 0)"/>
     <use xlink:href="#NotoSansCJKsc-Bold-2014" transform="translate(976.599838 0)"/>
     <use xlink:href="#NotoSansCJKsc-Bold-20" transform="translate(1067.399826 0)"/>
     <use xlink:href="#NotoSansCJKsc-Bold-43" transform="translate(1090.099823 0)"/>
     <use xlink:href="#NotoSansCJKsc-Bold-6f" transform="translate(1155.699814 0)"/>
     <use xlink:href="#NotoSansCJKsc-Bold-6e" transform="translate(1218.299805 0)"/>
     <use xlink:href="#NotoSansCJKsc-Bold-74" transform="translate(1282.399796 0)"/>
     <use xlink:href="#NotoSansCJKsc-Bold-65" transform="translate(1324.499786 0)"/>
     <use xlink:href="#NotoSansCJKsc-Bold-78" transform="translate(1382.599777 0)"/>
     <use xlink:href="#NotoSansCJKsc-Bold-74" transform="translate(1438.799774 0)"/>
     <use xlink:href="#NotoSansCJKsc-Bold-2d" transform="translate(1480.899765 0)"/>
     <use xlink:href="#NotoSansCJKsc-Bold-63" transform="translate(1517.89975 0)"/>
     <use xlink:href="#NotoSansCJKsc-Bold-65" transform="translate(1570.599747 0)"/>
     <use xlink:href="#NotoSansCJKsc-Bold-6e" transform="translate(1628.699738 0)"/>
     <use xlink:href="#NotoSansCJKsc-Bold-74" transform="translate(1692.799728 0)"/>
     <use xlink:href="#NotoSansCJKsc-Bold-72" transform="translate(1734.899719 0)"/>
     <use xlink:href="#NotoSansCJKsc-Bold-69" transform="translate(1778.49971 0)"/>
     <use xlink:href="#NotoSansCJKsc-Bold-63" transform="translate(1808.899704 0)"/>
     <use xlink:href="#NotoSansCJKsc-Bold-20" transform="translate(1861.599701 0)"/>
     <use xlink:href="#NotoSansCJKsc-Bold-61" transform="translate(1884.299698 0)"/>
     <use xlink:href="#NotoSansCJKsc-Bold-67" transform="translate(1943.399689 0)"/>
     <use xlink:href="#NotoSansCJKsc-Bold-65" transform="translate(2003.099686 0)"/>
     <use xlink:href="#NotoSansCJKsc-Bold-6e" transform="translate(2061.199677 0)"/>
     <use xlink:href="#NotoSansCJKsc-Bold-74" transform="translate(2125.299667 0)"/>
     <use xlink:href="#NotoSansCJKsc-Bold-69" transform="translate(2167.399658 0)"/>
     <use xlink:href="#NotoSansCJKsc-Bold-63" transform="translate(2197.799652 0)"/>
     <use xlink:href="#NotoSansCJKsc-Bold-20" transform="translate(2250.499649 0)"/>
     <use xlink:href="#NotoSansCJKsc-Bold-69" transform="translate(2273.199646 0)"/>
     <use xlink:href="#NotoSansCJKsc-Bold-6d" transform="translate(2303.59964 0)"/>
     <use xlink:href="#NotoSansCJKsc-Bold-61" transform="translate(2399.999634 0)"/>
     <use xlink:href="#NotoSansCJKsc-Bold-67" transform="translate(2459.099625 0)"/>
     <use xlink:href="#NotoSansCJKsc-Bold-65" transform="translate(2518.799622 0)"/>
     <use xlink:href="#NotoSansCJKsc-Bold-20" transform="translate(2576.899612 0)"/>
     <use xlink:href="#NotoSansCJKsc-Bold-67" transform="translate(2599.599609 0)"/>
     <use xlink:href="#NotoSansCJKsc-Bold-65" transform="translate(2659.299606 0)"/>
     <use xlink:href="#NotoSansCJKsc-Bold-6e" transform="translate(2717.399597 0)"/>
     <use xlink:href="#NotoSansCJKsc-Bold-65" transform="translate(2781.499588 0)"/>
     <use xlink:href="#NotoSansCJKsc-Bold-72" transform="translate(2839.599579 0)"/>
     <use xlink:href="#NotoSansCJKsc-Bold-61" transform="translate(2883.19957 0)"/>
     <use xlink:href="#NotoSansCJKsc-Bold-74" transform="translate(2942.299561 0)"/>
     <use xlink:href="#NotoSansCJKsc-Bold-69" transform="translate(2984.399551 0)"/>
     <use xlink:href="#NotoSansCJKsc-Bold-6f" transform="translate(3014.799545 0)"/>
     <use xlink:href="#NotoSansCJKsc-Bold-6e" transform="translate(3077.399536 0)"/>
    </g>
   </g>
   <g id="text_2">
    <!-- Context-aware planning -&gt; grounding (reason/search/memory/feedback) -&gt; generation -->
    <g style="fill: #64748b" transform="translate(16.0056 54.236052) scale(0.096 -0.096)">
     <defs>
      <path id="NotoSansCJKsc-Regular-43" d="M 2413 -83 
C 3021 -83 3482 160 3853 589 
L 3526 966 
C 3226 634 2886 435 2438 435 
C 1542 435 979 1178 979 2362 
C 979 3533 1574 4256 2458 4256 
C 2861 4256 3168 4077 3418 3814 
L 3738 4198 
C 3469 4499 3021 4774 2451 4774 
C 1261 4774 371 3859 371 2342 
C 371 819 1242 -83 2413 -83 
z
" transform="scale(0.015625)"/>
      <path id="NotoSansCJKsc-Regular-6f" d="M 1939 -83 
C 2790 -83 3546 582 3546 1734 
C 3546 2893 2790 3565 1939 3565 
C 1088 3565 333 2893 333 1734 
C 333 582 1088 -83 1939 -83 
z
M 1939 403 
C 1338 403 934 934 934 1734 
C 934 2534 1338 3072 1939 3072 
C 2541 3072 2950 2534 2950 1734 
C 2950 934 2541 403 1939 403 
z
" transform="scale(0.015625)"/>
      <path id="NotoSansCJKsc-Regular-6e" d="M 589 0 
L 1178 0 
L 1178 2522 
C 1523 2874 1766 3053 2125 3053 
C 2586 3053 2784 2778 2784 2125 
L 2784 0 
L 3366 0 
L 3366 2202 
C 3366 3085 3034 3565 2304 3565 
C 1830 3565 1466 3302 1139 2970 
L 1126 2970 
L 1069 3475 
L 589 3475 
L 589 0 
z
" transform="scale(0.015625)"/>
      <path id="NotoSansCJKsc-Regular-74" d="M 1677 -83 
C 1894 -83 2125 -19 2323 45 
L 2208 486 
C 2093 435 1939 390 1811 390 
C 1408 390 1274 634 1274 1056 
L 1274 3002 
L 2221 3002 
L 2221 3475 
L 1274 3475 
L 1274 4454 
L 787 4454 
L 723 3475 
L 173 3443 
L 173 3002 
L 691 3002 
L 691 1075 
C 691 378 941 -83 1677 -83 
z
" transform="scale(0.015625)"/>
      <path id="NotoSansCJKsc-Regular-65" d="M 1997 -83 
C 2464 -83 2835 70 3136 269 
L 2931 659 
C 2669 486 2400 384 2061 384 
C 1402 384 947 858 909 1600 
L 3251 1600 
C 3264 1690 3277 1805 3277 1933 
C 3277 2925 2778 3565 1888 3565 
C 1094 3565 333 2867 333 1734 
C 333 589 1069 -83 1997 -83 
z
M 902 2016 
C 973 2707 1408 3098 1901 3098 
C 2445 3098 2765 2720 2765 2016 
L 902 2016 
z
" transform="scale(0.015625)"/>
      <path id="NotoSansCJKsc-Regular-78" d="M 96 0 
L 710 0 
L 1178 813 
C 1299 1024 1408 1235 1530 1434 
L 1562 1434 
C 1696 1235 1824 1024 1939 813 
L 2451 0 
L 3091 0 
L 1946 1754 
L 3002 3475 
L 2394 3475 
L 1965 2714 
C 1856 2515 1760 2330 1658 2131 
L 1626 2131 
C 1510 2330 1389 2515 1286 2714 
L 819 3475 
L 186 3475 
L 1242 1811 
L 96 0 
z
" transform="scale(0.015625)"/>
      <path id="NotoSansCJKsc-Regular-2d" d="M 294 1568 
L 1933 1568 
L 1933 2016 
L 294 2016 
L 294 1568 
z
" transform="scale(0.015625)"/>
      <path id="NotoSansCJKsc-Regular-61" d="M 1389 -83 
C 1818 -83 2208 141 2541 416 
L 2560 416 
L 2611 0 
L 3091 0 
L 3091 2138 
C 3091 3002 2739 3565 1888 3565 
C 1325 3565 838 3315 525 3110 
L 749 2707 
C 1024 2893 1389 3078 1792 3078 
C 2362 3078 2509 2650 2509 2202 
C 1030 2035 378 1658 378 902 
C 378 275 806 -83 1389 -83 
z
M 1555 390 
C 1210 390 941 544 941 941 
C 941 1389 1338 1677 2509 1811 
L 2509 845 
C 2170 544 1888 390 1555 390 
z
" transform="scale(0.015625)"/>
      <path id="NotoSansCJKsc-Regular-77" d="M 1139 0 
L 1818 0 
L 2310 1862 
C 2400 2195 2470 2522 2547 2874 
L 2579 2874 
C 2662 2522 2726 2202 2816 1875 
L 3315 0 
L 4026 0 
L 4966 3475 
L 4403 3475 
L 3898 1466 
C 3821 1133 3757 819 3686 499 
L 3654 499 
C 3571 819 3494 1133 3411 1466 
L 2867 3475 
L 2298 3475 
L 1754 1466 
C 1670 1133 1594 819 1523 499 
L 1491 499 
C 1421 819 1357 1133 1286 1466 
L 768 3475 
L 173 3475 
L 1139 0 
z
" transform="scale(0.015625)"/>
      <path id="NotoSansCJKsc-Regular-72" d="M 589 0 
L 1178 0 
L 1178 2234 
C 1408 2822 1760 3040 2048 3040 
C 2195 3040 2272 3021 2387 2982 
L 2496 3488 
C 2387 3546 2278 3565 2125 3565 
C 1741 3565 1382 3283 1139 2842 
L 1126 2842 
L 1069 3475 
L 589 3475 
L 589 0 
z
" transform="scale(0.015625)"/>
      <path id="NotoSansCJKsc-Regular-20" transform="scale(0.015625)"/>
      <path id="NotoSansCJKsc-Regular-70" d="M 589 -1466 
L 1178 -1466 
L 1178 -288 
L 1158 320 
C 1472 58 1805 -83 2118 -83 
C 2912 -83 3629 602 3629 1792 
C 3629 2867 3142 3565 2246 3565 
C 1843 3565 1453 3334 1139 3072 
L 1126 3072 
L 1069 3475 
L 589 3475 
L 589 -1466 
z
M 2022 410 
C 1792 410 1485 499 1178 768 
L 1178 2598 
C 1510 2906 1811 3072 2099 3072 
C 2765 3072 3021 2560 3021 1786 
C 3021 928 2598 410 2022 410 
z
" transform="scale(0.015625)"/>
      <path id="NotoSansCJKsc-Regular-6c" d="M 1203 -83 
C 1363 -83 1459 -58 1542 -32 
L 1459 416 
C 1395 403 1370 403 1338 403 
C 1248 403 1178 474 1178 653 
L 1178 5094 
L 589 5094 
L 589 691 
C 589 198 768 -83 1203 -83 
z
" transform="scale(0.015625)"/>
      <path id="NotoSansCJKsc-Regular-69" d="M 589 0 
L 1178 0 
L 1178 3475 
L 589 3475 
L 589 0 
z
M 883 4192 
C 1114 4192 1274 4346 1274 4582 
C 1274 4806 1114 4960 883 4960 
C 653 4960 499 4806 499 4582 
C 499 4346 653 4192 883 4192 
z
" transform="scale(0.015625)"/>
      <path id="NotoSansCJKsc-Regular-67" d="M 1760 -1600 
C 2835 -1600 3520 -1043 3520 -397 
C 3520 179 3110 429 2310 429 
L 1626 429 
C 1158 429 1018 589 1018 806 
C 1018 998 1114 1114 1242 1222 
C 1395 1146 1587 1101 1754 1101 
C 2470 1101 3027 1568 3027 2310 
C 3027 2611 2912 2867 2746 3027 
L 3456 3027 
L 3456 3475 
L 2246 3475 
C 2125 3526 1952 3565 1754 3565 
C 1056 3565 454 3085 454 2323 
C 454 1907 678 1568 909 1389 
L 909 1363 
C 723 1235 525 1005 525 717 
C 525 442 659 256 838 147 
L 838 115 
C 512 -83 326 -371 326 -672 
C 326 -1267 915 -1600 1760 -1600 
z
M 1754 1498 
C 1357 1498 1018 1818 1018 2323 
C 1018 2835 1350 3136 1754 3136 
C 2170 3136 2496 2835 2496 2323 
C 2496 1818 2157 1498 1754 1498 
z
M 1843 -1197 
C 1210 -1197 838 -960 838 -589 
C 838 -390 941 -179 1190 0 
C 1344 -38 1510 -51 1638 -51 
L 2240 -51 
C 2701 -51 2944 -166 2944 -493 
C 2944 -851 2515 -1197 1843 -1197 
z
" transform="scale(0.015625)"/>
      <path id="NotoSansCJKsc-Regular-3e" d="M 243 934 
L 3315 2144 
L 3315 2605 
L 243 3814 
L 243 3309 
L 1754 2746 
L 2714 2387 
L 2714 2362 
L 1754 2003 
L 243 1446 
L 243 934 
z
" transform="scale(0.015625)"/>
      <path id="NotoSansCJKsc-Regular-75" d="M 1606 -83 
C 2080 -83 2426 166 2752 544 
L 2771 544 
L 2816 0 
L 3302 0 
L 3302 3475 
L 2720 3475 
L 2720 1011 
C 2387 602 2138 422 1779 422 
C 1318 422 1126 698 1126 1344 
L 1126 3475 
L 538 3475 
L 538 1274 
C 538 384 870 -83 1606 -83 
z
" transform="scale(0.015625)"/>
      <path id="NotoSansCJKsc-Regular-64" d="M 1773 -83 
C 2189 -83 2560 141 2829 410 
L 2848 410 
L 2899 0 
L 3379 0 
L 3379 5094 
L 2790 5094 
L 2790 3757 
L 2822 3162 
C 2515 3411 2253 3565 1843 3565 
C 1050 3565 339 2861 339 1734 
C 339 576 902 -83 1773 -83 
z
M 1901 410 
C 1293 410 941 902 941 1741 
C 941 2534 1389 3072 1946 3072 
C 2234 3072 2502 2970 2790 2707 
L 2790 883 
C 2502 563 2221 410 1901 410 
z
" transform="scale(0.015625)"/>
      <path id="NotoSansCJKsc-Regular-28" d="M 1530 -1254 
L 1888 -1094 
C 1338 -186 1075 902 1075 1990 
C 1075 3072 1338 4154 1888 5069 
L 1530 5235 
C 941 4275 589 3245 589 1990 
C 589 730 941 -301 1530 -1254 
z
" transform="scale(0.015625)"/>
      <path id="NotoSansCJKsc-Regular-73" d="M 1498 -83 
C 2317 -83 2758 384 2758 947 
C 2758 1606 2208 1811 1702 2003 
C 1312 2150 954 2278 954 2605 
C 954 2880 1158 3110 1600 3110 
C 1907 3110 2150 2976 2387 2803 
L 2669 3168 
C 2406 3386 2022 3565 1594 3565 
C 832 3565 397 3130 397 2579 
C 397 1984 922 1754 1408 1574 
C 1792 1434 2202 1267 2202 915 
C 2202 614 1978 371 1517 371 
C 1101 371 794 538 486 787 
L 205 397 
C 531 122 1005 -83 1498 -83 
z
" transform="scale(0.015625)"/>
      <path id="NotoSansCJKsc-Regular-2f" d="M 70 -1146 
L 499 -1146 
L 2413 5082 
L 1990 5082 
L 70 -1146 
z
" transform="scale(0.015625)"/>
      <path id="NotoSansCJKsc-Regular-63" d="M 1958 -83 
C 2374 -83 2771 83 3085 352 
L 2829 749 
C 2611 557 2330 403 2010 403 
C 1370 403 934 934 934 1734 
C 934 2534 1395 3072 2029 3072 
C 2298 3072 2522 2950 2720 2771 
L 3014 3155 
C 2771 3373 2458 3565 2003 3565 
C 1107 3565 333 2893 333 1734 
C 333 582 1037 -83 1958 -83 
z
" transform="scale(0.015625)"/>
      <path id="NotoSansCJKsc-Regular-68" d="M 589 0 
L 1178 0 
L 1178 2522 
C 1523 2874 1766 3053 2125 3053 
C 2586 3053 2784 2778 2784 2125 
L 2784 0 
L 3366 0 
L 3366 2202 
C 3366 3085 3034 3565 2304 3565 
C 1830 3565 1472 3302 1152 2982 
L 1178 3699 
L 1178 5094 
L 589 5094 
L 589 0 
z
" transform="scale(0.015625)"/>
      <path id="NotoSansCJKsc-Regular-6d" d="M 589 0 
L 1178 0 
L 1178 2522 
C 1491 2880 1786 3053 2048 3053 
C 2490 3053 2694 2778 2694 2125 
L 2694 0 
L 3277 0 
L 3277 2522 
C 3603 2880 3885 3053 4154 3053 
C 4595 3053 4800 2778 4800 2125 
L 4800 0 
L 5382 0 
L 5382 2202 
C 5382 3085 5043 3565 4333 3565 
C 3904 3565 3546 3290 3181 2899 
C 3040 3309 2758 3565 2221 3565 
C 1805 3565 1446 3302 1139 2970 
L 1126 2970 
L 1069 3475 
L 589 3475 
L 589 0 
z
" transform="scale(0.015625)"/>
      <path id="NotoSansCJKsc-Regular-79" d="M 646 -1498 
C 1338 -1498 1702 -973 1946 -294 
L 3251 3475 
L 2682 3475 
L 2054 1549 
C 1965 1235 1862 883 1773 563 
L 1741 563 
C 1619 890 1504 1242 1395 1549 
L 691 3475 
L 83 3475 
L 1478 -6 
L 1402 -269 
C 1254 -698 1011 -1018 621 -1018 
C 525 -1018 422 -986 352 -960 
L 237 -1427 
C 346 -1472 486 -1498 646 -1498 
z
" transform="scale(0.015625)"/>
      <path id="NotoSansCJKsc-Regular-66" d="M 211 3002 
L 685 3002 
L 685 0 
L 1267 0 
L 1267 3002 
L 2003 3002 
L 2003 3475 
L 1267 3475 
L 1267 4026 
C 1267 4474 1427 4710 1760 4710 
C 1882 4710 2022 4678 2150 4614 
L 2278 5069 
C 2118 5133 1914 5178 1696 5178 
C 1005 5178 685 4736 685 4032 
L 685 3475 
L 211 3443 
L 211 3002 
z
" transform="scale(0.015625)"/>
      <path id="NotoSansCJKsc-Regular-62" d="M 2118 -83 
C 2912 -83 3629 602 3629 1792 
C 3629 2867 3142 3565 2246 3565 
C 1856 3565 1472 3347 1152 3078 
L 1178 3699 
L 1178 5094 
L 589 5094 
L 589 0 
L 1056 0 
L 1107 358 
L 1133 358 
C 1434 83 1798 -83 2118 -83 
z
M 2022 410 
C 1792 410 1478 499 1178 768 
L 1178 2598 
C 1504 2906 1811 3072 2099 3072 
C 2765 3072 3021 2560 3021 1786 
C 3021 928 2598 410 2022 410 
z
" transform="scale(0.015625)"/>
      <path id="NotoSansCJKsc-Regular-6b" d="M 589 0 
L 1165 0 
L 1165 915 
L 1818 1677 
L 2835 0 
L 3469 0 
L 2157 2074 
L 3315 3475 
L 2662 3475 
L 1190 1645 
L 1165 1645 
L 1165 5094 
L 589 5094 
L 589 0 
z
" transform="scale(0.015625)"/>
      <path id="NotoSansCJKsc-Regular-29" d="M 634 -1254 
C 1222 -301 1574 730 1574 1990 
C 1574 3245 1222 4275 634 5235 
L 269 5069 
C 819 4154 1094 3072 1094 1990 
C 1094 902 819 -186 269 -1094 
L 634 -1254 
z
" transform="scale(0.015625)"/>
     </defs>
     <use xlink:href="#NotoSansCJKsc-Regular-43"/>
     <use xlink:href="#NotoSansCJKsc-Regular-6f" transform="translate(63.799988 0)"/>
     <use xlink:href="#NotoSansCJKsc-Regular-6e" transform="translate(124.399979 0)"/>
     <use xlink:href="#NotoSansCJKsc-Regular-74" transform="translate(185.399963 0)"/>
     <use xlink:href="#NotoSansCJKsc-Regular-65" transform="translate(223.09996 0)"/>
     <use xlink:href="#NotoSansCJKsc-Regular-78" transform="translate(278.499954 0)"/>
     <use xlink:href="#NotoSansCJKsc-Regular-74" transform="translate(328.299942 0)"/>
     <use xlink:href="#NotoSansCJKsc-Regular-2d" transform="translate(365.999939 0)"/>
     <use xlink:href="#NotoSansCJKsc-Regular-61" transform="translate(400.699936 0)"/>
     <use xlink:href="#NotoSansCJKsc-Regular-77" transform="translate(456.999924 0)"/>
     <use xlink:href="#NotoSansCJKsc-Regular-61" transform="translate(537.199905 0)"/>
     <use xlink:href="#NotoSansCJKsc-Regular-72" transform="translate(593.499893 0)"/>
     <use xlink:href="#NotoSansCJKsc-Regular-65" transform="translate(632.299881 0)"/>
     <use xlink:href="#NotoSansCJKsc-Regular-20" transform="translate(687.699875 0)"/>
     <use xlink:href="#NotoSansCJKsc-Regular-70" transform="translate(710.099869 0)"/>
     <use xlink:href="#NotoSansCJKsc-Regular-6c" transform="translate(772.099854 0)"/>
     <use xlink:href="#NotoSansCJKsc-Regular-61" transform="translate(800.499847 0)"/>
     <use xlink:href="#NotoSansCJKsc-Regular-6e" transform="translate(856.799835 0)"/>
     <use xlink:href="#NotoSansCJKsc-Regular-6e" transform="translate(917.79982 0)"/>
     <use xlink:href="#NotoSansCJKsc-Regular-69" transform="translate(978.799805 0)"/>
     <use xlink:href="#NotoSansCJKsc-Regular-6e" transform="translate(1006.299789 0)"/>
     <use xlink:href="#NotoSansCJKsc-Regular-67" transform="translate(1067.299774 0)"/>
     <use xlink:href="#NotoSansCJKsc-Regular-20" transform="translate(1123.699768 0)"/>
     <use xlink:href="#NotoSansCJKsc-Regular-2d" transform="translate(1146.099762 0)"/>
     <use xlink:href="#NotoSansCJKsc-Regular-3e" transform="translate(1180.799759 0)"/>
     <use xlink:href="#NotoSansCJKsc-Regular-20" transform="translate(1236.299744 0)"/>
     <use xlink:href="#NotoSansCJKsc-Regular-67" transform="translate(1258.699738 0)"/>
     <use xlink:href="#NotoSansCJKsc-Regular-72" transform="translate(1315.099731 0)"/>
     <use xlink:href="#NotoSansCJKsc-Regular-6f" transform="translate(1353.899719 0)"/>
     <use xlink:href="#NotoSansCJKsc-Regular-75" transform="translate(1414.49971 0)"/>
     <use xlink:href="#NotoSansCJKsc-Regular-6e" transform="translate(1475.199707 0)"/>
     <use xlink:href="#NotoSansCJKsc-Regular-64" transform="translate(1536.199692 0)"/>
     <use xlink:href="#NotoSansCJKsc-Regular-69" transform="translate(1598.199677 0)"/>
     <use xlink:href="#NotoSansCJKsc-Regular-6e" transform="translate(1625.699661 0)"/>
     <use xlink:href="#NotoSansCJKsc-Regular-67" transform="translate(1686.699646 0)"/>
     <use xlink:href="#NotoSansCJKsc-Regular-20" transform="translate(1743.09964 0)"/>
     <use xlink:href="#NotoSansCJKsc-Regular-28" transform="translate(1765.499634 0)"/>
     <use xlink:href="#NotoSansCJKsc-Regular-72" transform="translate(1799.299622 0)"/>
     <use xlink:href="#NotoSansCJKsc-Regular-65" transform="translate(1838.099609 0)"/>
     <use xlink:href="#NotoSansCJKsc-Regular-61" transform="translate(1893.499603 0)"/>
     <use xlink:href="#NotoSansCJKsc-Regular-73" transform="translate(1949.799591 0)"/>
     <use xlink:href="#NotoSansCJKsc-Regular-6f" transform="translate(1996.599579 0)"/>
     <use xlink:href="#NotoSansCJKsc-Regular-6e" transform="translate(2057.19957 0)"/>
     <use xlink:href="#NotoSansCJKsc-Regular-2f" transform="translate(2118.199554 0)"/>
     <use xlink:href="#NotoSansCJKsc-Regular-73" transform="translate(2157.399551 0)"/>
     <use xlink:href="#NotoSansCJKsc-Regular-65" transform="translate(2204.199539 0)"/>
     <use xlink:href="#NotoSansCJKsc-Regular-61" transform="translate(2259.599533 0)"/>
     <use xlink:href="#NotoSansCJKsc-Regular-72" transform="translate(2315.899521 0)"/>
     <use xlink:href="#NotoSansCJKsc-Regular-63" transform="translate(2354.699509 0)"/>
     <use xlink:href="#NotoSansCJKsc-Regular-68" transform="translate(2405.699493 0)"/>
     <use xlink:href="#NotoSansCJKsc-Regular-2f" transform="translate(2466.39949 0)"/>
     <use xlink:href="#NotoSansCJKsc-Regular-6d" transform="translate(2505.599487 0)"/>
     <use xlink:href="#NotoSansCJKsc-Regular-65" transform="translate(2598.199478 0)"/>
     <use xlink:href="#NotoSansCJKsc-Regular-6d" transform="translate(2653.599472 0)"/>
     <use xlink:href="#NotoSansCJKsc-Regular-6f" transform="translate(2746.199463 0)"/>
     <use xlink:href="#NotoSansCJKsc-Regular-72" transform="translate(2806.799454 0)"/>
     <use xlink:href="#NotoSansCJKsc-Regular-79" transform="translate(2845.599442 0)"/>
     <use xlink:href="#NotoSansCJKsc-Regular-2f" transform="translate(2897.699432 0)"/>
     <use xlink:href="#NotoSansCJKsc-Regular-66" transform="translate(2936.899429 0)"/>
     <use xlink:href="#NotoSansCJKsc-Regular-65" transform="translate(2969.399414 0)"/>
     <use xlink:href="#NotoSansCJKsc-Regular-65" transform="translate(3024.799408 0)"/>
     <use xlink:href="#NotoSansCJKsc-Regular-64" transform="translate(3080.199402 0)"/>
     <use xlink:href="#NotoSansCJKsc-Regular-62" transform="translate(3142.199387 0)"/>
     <use xlink:href="#NotoSansCJKsc-Regular-61" transform="translate(3203.999374 0)"/>
     <use xlink:href="#NotoSansCJKsc-Regular-63" transform="translate(3260.299362 0)"/>
     <use xlink:href="#NotoSansCJKsc-Regular-6b" transform="translate(3311.299347 0)"/>
     <use xlink:href="#NotoSansCJKsc-Regular-29" transform="translate(3366.499344 0)"/>
     <use xlink:href="#NotoSansCJKsc-Regular-20" transform="translate(3400.299332 0)"/>
     <use xlink:href="#NotoSansCJKsc-Regular-2d" transform="translate(3422.699326 0)"/>
     <use xlink:href="#NotoSansCJKsc-Regular-3e" transform="translate(3457.399323 0)"/>
     <use xlink:href="#NotoSansCJKsc-Regular-20" transform="translate(3512.899307 0)"/>
     <use xlink:href="#NotoSansCJKsc-Regular-67" transform="translate(3535.299301 0)"/>
     <use xlink:href="#NotoSansCJKsc-Regular-65" transform="translate(3591.699295 0)"/>
     <use xlink:href="#NotoSansCJKsc-Regular-6e" transform="translate(3647.099289 0)"/>
     <use xlink:href="#NotoSansCJKsc-Regular-65" transform="translate(3708.099274 0)"/>
     <use xlink:href="#NotoSansCJKsc-Regular-72" transform="translate(3763.499268 0)"/>
     <use xlink:href="#NotoSansCJKsc-Regular-61" transform="translate(3802.299255 0)"/>
     <use xlink:href="#NotoSansCJKsc-Regular-74" transform="translate(3858.599243 0)"/>
     <use xlink:href="#NotoSansCJKsc-Regular-69" transform="translate(3896.29924 0)"/>
     <use xlink:href="#NotoSansCJKsc-Regular-6f" transform="translate(3923.799225 0)"/>
     <use xlink:href="#NotoSansCJKsc-Regular-6e" transform="translate(3984.399216 0)"/>
    </g>
   </g>
   <g id="text_3">
    <!-- User context -->
    <g style="fill: #0891b2" transform="translate(36.786663 107.186104) scale(0.11 -0.11)">
     <defs>
      <path id="NotoSansCJKsc-Bold-55" d="M 2406 -90 
C 3558 -90 4230 563 4230 2131 
L 4230 4742 
L 3322 4742 
L 3322 2048 
C 3322 1062 2957 730 2406 730 
C 1850 730 1504 1062 1504 2048 
L 1504 4742 
L 563 4742 
L 563 2131 
C 563 563 1242 -90 2406 -90 
z
" transform="scale(0.015625)"/>
      <path id="NotoSansCJKsc-Bold-73" d="M 1530 -90 
C 2458 -90 2957 410 2957 1043 
C 2957 1702 2432 1946 1958 2125 
C 1574 2266 1248 2362 1248 2624 
C 1248 2829 1402 2970 1728 2970 
C 1990 2970 2240 2842 2496 2662 
L 2918 3232 
C 2624 3462 2221 3674 1702 3674 
C 883 3674 365 3219 365 2579 
C 365 1978 870 1702 1325 1530 
C 1702 1382 2074 1261 2074 992 
C 2074 768 1914 614 1555 614 
C 1216 614 915 762 595 1005 
L 166 410 
C 525 115 1050 -90 1530 -90 
z
" transform="scale(0.015625)"/>
     </defs>
     <use xlink:href="#NotoSansCJKsc-Bold-55"/>
     <use xlink:href="#NotoSansCJKsc-Bold-73" transform="translate(74.799988 0)"/>
     <use xlink:href="#NotoSansCJKsc-Bold-65" transform="translate(124.299973 0)"/>
     <use xlink:href="#NotoSansCJKsc-Bold-72" transform="translate(182.399963 0)"/>
     <use xlink:href="#NotoSansCJKsc-Bold-20" transform="translate(225.999954 0)"/>
     <use xlink:href="#NotoSansCJKsc-Bold-63" transform="translate(248.699951 0)"/>
     <use xlink:href="#NotoSansCJKsc-Bold-6f" transform="translate(301.399948 0)"/>
     <use xlink:href="#NotoSansCJKsc-Bold-6e" transform="translate(363.999939 0)"/>
     <use xlink:href="#NotoSansCJKsc-Bold-74" transform="translate(428.09993 0)"/>
     <use xlink:href="#NotoSansCJKsc-Bold-65" transform="translate(470.199921 0)"/>
     <use xlink:href="#NotoSansCJKsc-Bold-78" transform="translate(528.299911 0)"/>
     <use xlink:href="#NotoSansCJKsc-Bold-74" transform="translate(584.499908 0)"/>
    </g>
   </g>
   <g id="text_4">
    <!-- underspecified -->
    <g style="fill: #475569" transform="translate(39.836897 120.99145) scale(0.09 -0.09)">
     <use xlink:href="#NotoSansCJKsc-Regular-75"/>
     <use xlink:href="#NotoSansCJKsc-Regular-6e" transform="translate(60.699997 0)"/>
     <use xlink:href="#NotoSansCJKsc-Regular-64" transform="translate(121.699982 0)"/>
     <use xlink:href="#NotoSansCJKsc-Regular-65" transform="translate(183.699966 0)"/>
     <use xlink:href="#NotoSansCJKsc-Regular-72" transform="translate(239.09996 0)"/>
     <use xlink:href="#NotoSansCJKsc-Regular-73" transform="translate(277.899948 0)"/>
     <use xlink:href="#NotoSansCJKsc-Regular-70" transform="translate(324.699936 0)"/>
     <use xlink:href="#NotoSansCJKsc-Regular-65" transform="translate(386.699921 0)"/>
     <use xlink:href="#NotoSansCJKsc-Regular-63" transform="translate(442.099915 0)"/>
     <use xlink:href="#NotoSansCJKsc-Regular-69" transform="translate(493.099899 0)"/>
     <use xlink:href="#NotoSansCJKsc-Regular-66" transform="translate(520.599884 0)"/>
     <use xlink:href="#NotoSansCJKsc-Regular-69" transform="translate(553.099869 0)"/>
     <use xlink:href="#NotoSansCJKsc-Regular-65" transform="translate(580.599854 0)"/>
     <use xlink:href="#NotoSansCJKsc-Regular-64" transform="translate(635.999847 0)"/>
    </g>
   </g>
   <g id="text_5">
    <!-- implicit -->
    <g style="fill: #475569" transform="translate(55.308459 133.624526) scale(0.09 -0.09)">
     <use xlink:href="#NotoSansCJKsc-Regular-69"/>
     <use xlink:href="#NotoSansCJKsc-Regular-6d" transform="translate(27.499985 0)"/>
     <use xlink:href="#NotoSansCJKsc-Regular-70" transform="translate(120.099976 0)"/>
     <use xlink:href="#NotoSansCJKsc-Regular-6c" transform="translate(182.09996 0)"/>
     <use xlink:href="#NotoSansCJKsc-Regular-69" transform="translate(210.499954 0)"/>
     <use xlink:href="#NotoSansCJKsc-Regular-63" transform="translate(237.999939 0)"/>
     <use xlink:href="#NotoSansCJKsc-Regular-69" transform="translate(288.999924 0)"/>
     <use xlink:href="#NotoSansCJKsc-Regular-74" transform="translate(316.499908 0)"/>
    </g>
   </g>
   <g id="text_6">
    <!-- needs info -->
    <g style="fill: #475569" transform="translate(49.440178 146.375725) scale(0.09 -0.09)">
     <use xlink:href="#NotoSansCJKsc-Regular-6e"/>
     <use xlink:href="#NotoSansCJKsc-Regular-65" transform="translate(60.999985 0)"/>
     <use xlink:href="#NotoSansCJKsc-Regular-65" transform="translate(116.399979 0)"/>
     <use xlink:href="#NotoSansCJKsc-Regular-64" transform="translate(171.799973 0)"/>
     <use xlink:href="#NotoSansCJKsc-Regular-73" transform="translate(233.799957 0)"/>
     <use xlink:href="#NotoSansCJKsc-Regular-20" transform="translate(280.599945 0)"/>
     <use xlink:href="#NotoSansCJKsc-Regular-69" transform="translate(302.999939 0)"/>
     <use xlink:href="#NotoSansCJKsc-Regular-6e" transform="translate(330.499924 0)"/>
     <use xlink:href="#NotoSansCJKsc-Regular-66" transform="translate(391.499908 0)"/>
     <use xlink:href="#NotoSansCJKsc-Regular-6f" transform="translate(423.999893 0)"/>
    </g>
   </g>
   <g id="text_7">
    <!-- Planning -->
    <g style="fill: #2563eb" transform="translate(171.666188 107.32876) scale(0.11 -0.11)">
     <defs>
      <path id="NotoSansCJKsc-Bold-50" d="M 582 0 
L 1530 0 
L 1530 1683 
L 2163 1683 
C 3181 1683 3994 2170 3994 3251 
C 3994 4371 3187 4742 2138 4742 
L 582 4742 
L 582 0 
z
M 1530 2432 
L 1530 3987 
L 2067 3987 
C 2720 3987 3066 3802 3066 3251 
C 3066 2707 2752 2432 2099 2432 
L 1530 2432 
z
" transform="scale(0.015625)"/>
      <path id="NotoSansCJKsc-Bold-6c" d="M 1395 -90 
C 1613 -90 1766 -51 1875 -6 
L 1760 691 
C 1696 678 1670 678 1632 678 
C 1542 678 1446 749 1446 966 
L 1446 5107 
L 506 5107 
L 506 1005 
C 506 339 736 -90 1395 -90 
z
" transform="scale(0.015625)"/>
     </defs>
     <use xlink:href="#NotoSansCJKsc-Bold-50"/>
     <use xlink:href="#NotoSansCJKsc-Bold-6c" transform="translate(66.699997 0)"/>
     <use xlink:href="#NotoSansCJKsc-Bold-61" transform="translate(98.199982 0)"/>
     <use xlink:href="#NotoSansCJKsc-Bold-6e" transform="translate(157.299973 0)"/>
     <use xlink:href="#NotoSansCJKsc-Bold-6e" transform="translate(221.399963 0)"/>
     <use xlink:href="#NotoSansCJKsc-Bold-69" transform="translate(285.499954 0)"/>
     <use xlink:href="#NotoSansCJKsc-Bold-6e" transform="translate(315.899948 0)"/>
     <use xlink:href="#NotoSansCJKsc-Bold-67" transform="translate(379.999939 0)"/>
    </g>
   </g>
   <g id="text_8">
    <!-- find gaps -->
    <g style="fill: #475569" transform="translate(176.638219 120.99145) scale(0.09 -0.09)">
     <use xlink:href="#NotoSansCJKsc-Regular-66"/>
     <use xlink:href="#NotoSansCJKsc-Regular-69" transform="translate(32.499985 0)"/>
     <use xlink:href="#NotoSansCJKsc-Regular-6e" transform="translate(59.999969 0)"/>
     <use xlink:href="#NotoSansCJKsc-Regular-64" transform="translate(120.999954 0)"/>
     <use xlink:href="#NotoSansCJKsc-Regular-20" transform="translate(182.999939 0)"/>
     <use xlink:href="#NotoSansCJKsc-Regular-67" transform="translate(205.399933 0)"/>
     <use xlink:href="#NotoSansCJKsc-Regular-61" transform="translate(261.799927 0)"/>
     <use xlink:href="#NotoSansCJKsc-Regular-70" transform="translate(318.099915 0)"/>
     <use xlink:href="#NotoSansCJKsc-Regular-73" transform="translate(380.099899 0)"/>
    </g>
   </g>
   <g id="text_9">
    <!-- route tools -->
    <g style="fill: #475569" transform="translate(172.912359 133.624526) scale(0.09 -0.09)">
     <use xlink:href="#NotoSansCJKsc-Regular-72"/>
     <use xlink:href="#NotoSansCJKsc-Regular-6f" transform="translate(38.799988 0)"/>
     <use xlink:href="#NotoSansCJKsc-Regular-75" transform="translate(99.399979 0)"/>
     <use xlink:href="#NotoSansCJKsc-Regular-74" transform="translate(160.099976 0)"/>
     <use xlink:href="#NotoSansCJKsc-Regular-65" transform="translate(197.799973 0)"/>
     <use xlink:href="#NotoSansCJKsc-Regular-20" transform="translate(253.199966 0)"/>
     <use xlink:href="#NotoSansCJKsc-Regular-74" transform="translate(275.59996 0)"/>
     <use xlink:href="#NotoSansCJKsc-Regular-6f" transform="translate(313.299957 0)"/>
     <use xlink:href="#NotoSansCJKsc-Regular-6f" transform="translate(373.899948 0)"/>
     <use xlink:href="#NotoSansCJKsc-Regular-6c" transform="translate(434.499939 0)"/>
     <use xlink:href="#NotoSansCJKsc-Regular-73" transform="translate(462.899933 0)"/>
    </g>
   </g>
   <g id="text_10">
    <!-- spec -->
    <g style="fill: #475569" transform="translate(186.164859 146.375725) scale(0.09 -0.09)">
     <use xlink:href="#NotoSansCJKsc-Regular-73"/>
     <use xlink:href="#NotoSansCJKsc-Regular-70" transform="translate(46.799988 0)"/>
     <use xlink:href="#NotoSansCJKsc-Regular-65" transform="translate(108.799973 0)"/>
     <use xlink:href="#NotoSansCJKsc-Regular-63" transform="translate(164.199966 0)"/>
    </g>
   </g>
   <g id="text_11">
    <!-- Grounding -->
    <g style="fill: #7c3aed" transform="translate(291.614072 107.32876) scale(0.11 -0.11)">
     <defs>
      <path id="NotoSansCJKsc-Bold-47" d="M 2618 -90 
C 3270 -90 3834 160 4160 480 
L 4160 2618 
L 2470 2618 
L 2470 1843 
L 3309 1843 
L 3309 909 
C 3181 794 2944 730 2720 730 
C 1786 730 1318 1350 1318 2381 
C 1318 3398 1856 4013 2650 4013 
C 3072 4013 3341 3840 3578 3616 
L 4083 4218 
C 3776 4531 3302 4826 2618 4826 
C 1357 4826 346 3910 346 2349 
C 346 768 1331 -90 2618 -90 
z
" transform="scale(0.015625)"/>
      <path id="NotoSansCJKsc-Bold-75" d="M 1574 -90 
C 2067 -90 2406 154 2714 518 
L 2739 518 
L 2810 0 
L 3578 0 
L 3578 3584 
L 2637 3584 
L 2637 1165 
C 2394 845 2202 717 1914 717 
C 1562 717 1402 909 1402 1466 
L 1402 3584 
L 467 3584 
L 467 1350 
C 467 448 800 -90 1574 -90 
z
" transform="scale(0.015625)"/>
      <path id="NotoSansCJKsc-Bold-64" d="M 1766 -90 
C 2138 -90 2496 109 2758 371 
L 2784 371 
L 2854 0 
L 3622 0 
L 3622 5107 
L 2682 5107 
L 2682 3846 
L 2714 3283 
C 2458 3520 2208 3674 1805 3674 
C 1037 3674 301 2957 301 1792 
C 301 614 870 -90 1766 -90 
z
M 2010 685 
C 1536 685 1267 1056 1267 1805 
C 1267 2515 1606 2899 2010 2899 
C 2240 2899 2464 2829 2682 2630 
L 2682 1056 
C 2477 787 2259 685 2010 685 
z
" transform="scale(0.015625)"/>
     </defs>
     <use xlink:href="#NotoSansCJKsc-Bold-47"/>
     <use xlink:href="#NotoSansCJKsc-Bold-72" transform="translate(71.699982 0)"/>
     <use xlink:href="#NotoSansCJKsc-Bold-6f" transform="translate(115.299973 0)"/>
     <use xlink:href="#NotoSansCJKsc-Bold-75" transform="translate(177.899963 0)"/>
     <use xlink:href="#NotoSansCJKsc-Bold-6e" transform="translate(241.59996 0)"/>
     <use xlink:href="#NotoSansCJKsc-Bold-64" transform="translate(305.699951 0)"/>
     <use xlink:href="#NotoSansCJKsc-Bold-69" transform="translate(370.099945 0)"/>
     <use xlink:href="#NotoSansCJKsc-Bold-6e" transform="translate(400.499939 0)"/>
     <use xlink:href="#NotoSansCJKsc-Bold-67" transform="translate(464.59993 0)"/>
    </g>
   </g>
   <g id="text_12">
    <!-- search -->
    <g style="fill: #475569" transform="translate(306.5454 120.873325) scale(0.09 -0.09)">
     <use xlink:href="#NotoSansCJKsc-Regular-73"/>
     <use xlink:href="#NotoSansCJKsc-Regular-65" transform="translate(46.799988 0)"/>
     <use xlink:href="#NotoSansCJKsc-Regular-61" transform="translate(102.199982 0)"/>
     <use xlink:href="#NotoSansCJKsc-Regular-72" transform="translate(158.499969 0)"/>
     <use xlink:href="#NotoSansCJKsc-Regular-63" transform="translate(197.299957 0)"/>
     <use xlink:href="#NotoSansCJKsc-Regular-68" transform="translate(248.299942 0)"/>
    </g>
   </g>
   <g id="text_13">
    <!-- memory -->
    <g style="fill: #475569" transform="translate(302.806884 133.579526) scale(0.09 -0.09)">
     <use xlink:href="#NotoSansCJKsc-Regular-6d"/>
     <use xlink:href="#NotoSansCJKsc-Regular-65" transform="translate(92.599991 0)"/>
     <use xlink:href="#NotoSansCJKsc-Regular-6d" transform="translate(147.999985 0)"/>
     <use xlink:href="#NotoSansCJKsc-Regular-6f" transform="translate(240.599976 0)"/>
     <use xlink:href="#NotoSansCJKsc-Regular-72" transform="translate(301.199966 0)"/>
     <use xlink:href="#NotoSansCJKsc-Regular-79" transform="translate(339.999954 0)"/>
    </g>
   </g>
   <g id="text_14">
    <!-- feedback -->
    <g style="fill: #475569" transform="translate(301.117978 146.375725) scale(0.09 -0.09)">
     <use xlink:href="#NotoSansCJKsc-Regular-66"/>
     <use xlink:href="#NotoSansCJKsc-Regular-65" transform="translate(32.499985 0)"/>
     <use xlink:href="#NotoSansCJKsc-Regular-65" transform="translate(87.899979 0)"/>
     <use xlink:href="#NotoSansCJKsc-Regular-64" transform="translate(143.299973 0)"/>
     <use xlink:href="#NotoSansCJKsc-Regular-62" transform="translate(205.299957 0)"/>
     <use xlink:href="#NotoSansCJKsc-Regular-61" transform="translate(267.099945 0)"/>
     <use xlink:href="#NotoSansCJKsc-Regular-63" transform="translate(323.399933 0)"/>
     <use xlink:href="#NotoSansCJKsc-Regular-6b" transform="translate(374.399918 0)"/>
    </g>
   </g>
   <g id="text_15">
    <!-- Gen context -->
    <g style="fill: #d97706" transform="translate(412.356019 107.186104) scale(0.11 -0.11)">
     <use xlink:href="#NotoSansCJKsc-Bold-47"/>
     <use xlink:href="#NotoSansCJKsc-Bold-65" transform="translate(71.699982 0)"/>
     <use xlink:href="#NotoSansCJKsc-Bold-6e" transform="translate(129.799973 0)"/>
     <use xlink:href="#NotoSansCJKsc-Bold-20" transform="translate(193.899963 0)"/>
     <use xlink:href="#NotoSansCJKsc-Bold-63" transform="translate(216.59996 0)"/>
     <use xlink:href="#NotoSansCJKsc-Bold-6f" transform="translate(269.299957 0)"/>
     <use xlink:href="#NotoSansCJKsc-Bold-6e" transform="translate(331.899948 0)"/>
     <use xlink:href="#NotoSansCJKsc-Bold-74" transform="translate(395.999939 0)"/>
     <use xlink:href="#NotoSansCJKsc-Bold-65" transform="translate(438.09993 0)"/>
     <use xlink:href="#NotoSansCJKsc-Bold-78" transform="translate(496.199921 0)"/>
     <use xlink:href="#NotoSansCJKsc-Bold-74" transform="translate(552.399918 0)"/>
    </g>
   </g>
   <g id="text_16">
    <!-- assembled -->
    <g style="fill: #475569" transform="translate(422.3043 120.873325) scale(0.09 -0.09)">
     <use xlink:href="#NotoSansCJKsc-Regular-61"/>
     <use xlink:href="#NotoSansCJKsc-Regular-73" transform="translate(56.299988 0)"/>
     <use xlink:href="#NotoSansCJKsc-Regular-73" transform="translate(103.099976 0)"/>
     <use xlink:href="#NotoSansCJKsc-Regular-65" transform="translate(149.899963 0)"/>
     <use xlink:href="#NotoSansCJKsc-Regular-6d" transform="translate(205.299957 0)"/>
     <use xlink:href="#NotoSansCJKsc-Regular-62" transform="translate(297.899948 0)"/>
     <use xlink:href="#NotoSansCJKsc-Regular-6c" transform="translate(359.699936 0)"/>
     <use xlink:href="#NotoSansCJKsc-Regular-65" transform="translate(388.09993 0)"/>
     <use xlink:href="#NotoSansCJKsc-Regular-64" transform="translate(443.499924 0)"/>
    </g>
   </g>
   <g id="text_17">
    <!-- detailed -->
    <g style="fill: #475569" transform="translate(427.739456 133.624526) scale(0.09 -0.09)">
     <use xlink:href="#NotoSansCJKsc-Regular-64"/>
     <use xlink:href="#NotoSansCJKsc-Regular-65" transform="translate(61.999985 0)"/>
     <use xlink:href="#NotoSansCJKsc-Regular-74" transform="translate(117.399979 0)"/>
     <use xlink:href="#NotoSansCJKsc-Regular-61" transform="translate(155.099976 0)"/>
     <use xlink:href="#NotoSansCJKsc-Regular-69" transform="translate(211.399963 0)"/>
     <use xlink:href="#NotoSansCJKsc-Regular-6c" transform="translate(238.899948 0)"/>
     <use xlink:href="#NotoSansCJKsc-Regular-65" transform="translate(267.299942 0)"/>
     <use xlink:href="#NotoSansCJKsc-Regular-64" transform="translate(322.699936 0)"/>
    </g>
   </g>
   <g id="text_18">
    <!-- alloc -->
    <g style="fill: #475569" transform="translate(434.940159 146.375725) scale(0.09 -0.09)">
     <use xlink:href="#NotoSansCJKsc-Regular-61"/>
     <use xlink:href="#NotoSansCJKsc-Regular-6c" transform="translate(56.299988 0)"/>
     <use xlink:href="#NotoSansCJKsc-Regular-6c" transform="translate(84.699982 0)"/>
     <use xlink:href="#NotoSansCJKsc-Regular-6f" transform="translate(113.099976 0)"/>
     <use xlink:href="#NotoSansCJKsc-Regular-63" transform="translate(173.699966 0)"/>
    </g>
   </g>
   <g id="text_19">
    <!-- Generator -->
    <g style="fill: #10b981" transform="translate(541.990778 107.186104) scale(0.11 -0.11)">
     <use xlink:href="#NotoSansCJKsc-Bold-47"/>
     <use xlink:href="#NotoSansCJKsc-Bold-65" transform="translate(71.699982 0)"/>
     <use xlink:href="#NotoSansCJKsc-Bold-6e" transform="translate(129.799973 0)"/>
     <use xlink:href="#NotoSansCJKsc-Bold-65" transform="translate(193.899963 0)"/>
     <use xlink:href="#NotoSansCJKsc-Bold-72" transform="translate(251.999954 0)"/>
     <use xlink:href="#NotoSansCJKsc-Bold-61" transform="translate(295.599945 0)"/>
     <use xlink:href="#NotoSansCJKsc-Bold-74" transform="translate(354.699936 0)"/>
     <use xlink:href="#NotoSansCJKsc-Bold-6f" transform="translate(396.799927 0)"/>
     <use xlink:href="#NotoSansCJKsc-Bold-72" transform="translate(459.399918 0)"/>
    </g>
   </g>
   <g id="text_20">
    <!-- T2I/edit -->
    <g style="fill: #475569" transform="translate(553.159997 120.873325) scale(0.09 -0.09)">
     <defs>
      <path id="NotoSansCJKsc-Regular-54" d="M 1619 0 
L 2214 0 
L 2214 4192 
L 3635 4192 
L 3635 4691 
L 198 4691 
L 198 4192 
L 1619 4192 
L 1619 0 
z
" transform="scale(0.015625)"/>
      <path id="NotoSansCJKsc-Regular-32" d="M 282 0 
L 3232 0 
L 3232 506 
L 1933 506 
C 1696 506 1408 480 1165 461 
C 2266 1504 3008 2458 3008 3398 
C 3008 4230 2477 4774 1638 4774 
C 1043 4774 634 4506 256 4090 
L 595 3757 
C 858 4070 1184 4301 1568 4301 
C 2150 4301 2432 3910 2432 3373 
C 2432 2566 1754 1632 282 346 
L 282 0 
z
" transform="scale(0.015625)"/>
      <path id="NotoSansCJKsc-Regular-49" d="M 646 0 
L 1235 0 
L 1235 4691 
L 646 4691 
L 646 0 
z
" transform="scale(0.015625)"/>
     </defs>
     <use xlink:href="#NotoSansCJKsc-Regular-54"/>
     <use xlink:href="#NotoSansCJKsc-Regular-32" transform="translate(59.899994 0)"/>
     <use xlink:href="#NotoSansCJKsc-Regular-49" transform="translate(115.399979 0)"/>
     <use xlink:href="#NotoSansCJKsc-Regular-2f" transform="translate(144.699966 0)"/>
     <use xlink:href="#NotoSansCJKsc-Regular-65" transform="translate(183.899963 0)"/>
     <use xlink:href="#NotoSansCJKsc-Regular-64" transform="translate(239.299957 0)"/>
     <use xlink:href="#NotoSansCJKsc-Regular-69" transform="translate(301.299942 0)"/>
     <use xlink:href="#NotoSansCJKsc-Regular-74" transform="translate(328.799927 0)"/>
    </g>
   </g>
   <g id="text_21">
    <!-- images -->
    <g style="fill: #475569" transform="translate(554.5782 133.436088) scale(0.09 -0.09)">
     <use xlink:href="#NotoSansCJKsc-Regular-69"/>
     <use xlink:href="#NotoSansCJKsc-Regular-6d" transform="translate(27.499985 0)"/>
     <use xlink:href="#NotoSansCJKsc-Regular-61" transform="translate(120.099976 0)"/>
     <use xlink:href="#NotoSansCJKsc-Regular-67" transform="translate(176.399963 0)"/>
     <use xlink:href="#NotoSansCJKsc-Regular-65" transform="translate(232.799957 0)"/>
     <use xlink:href="#NotoSansCJKsc-Regular-73" transform="translate(288.199951 0)"/>
    </g>
   </g>
   <g id="text_22">
    <!-- iterate -->
    <g style="fill: #475569" transform="translate(555.756638 146.375725) scale(0.09 -0.09)">
     <use xlink:href="#NotoSansCJKsc-Regular-69"/>
     <use xlink:href="#NotoSansCJKsc-Regular-74" transform="translate(27.499985 0)"/>
     <use xlink:href="#NotoSansCJKsc-Regular-65" transform="translate(65.199982 0)"/>
     <use xlink:href="#NotoSansCJKsc-Regular-72" transform="translate(120.599976 0)"/>
     <use xlink:href="#NotoSansCJKsc-Regular-61" transform="translate(159.399963 0)"/>
     <use xlink:href="#NotoSansCJKsc-Regular-74" transform="translate(215.699951 0)"/>
     <use xlink:href="#NotoSansCJKsc-Regular-65" transform="translate(253.399948 0)"/>
    </g>
   </g>
   <g id="text_23">
    <!-- Key idea: close the context gap by acquiring missing context before generation. -->
    <g style="fill: #64748b" transform="translate(149.904844 246.11256) scale(0.09 -0.09)">
     <defs>
      <path id="NotoSansCJKsc-Regular-4b" d="M 646 0 
L 1235 0 
L 1235 1485 
L 2042 2445 
L 3450 0 
L 4109 0 
L 2413 2912 
L 3885 4691 
L 3213 4691 
L 1248 2336 
L 1235 2336 
L 1235 4691 
L 646 4691 
L 646 0 
z
" transform="scale(0.015625)"/>
      <path id="NotoSansCJKsc-Regular-3a" d="M 890 2496 
C 1120 2496 1312 2675 1312 2944 
C 1312 3206 1120 3392 890 3392 
C 653 3392 467 3206 467 2944 
C 467 2675 653 2496 890 2496 
z
M 890 -83 
C 1120 -83 1312 96 1312 358 
C 1312 627 1120 806 890 806 
C 653 806 467 627 467 358 
C 467 96 653 -83 890 -83 
z
" transform="scale(0.015625)"/>
      <path id="NotoSansCJKsc-Regular-71" d="M 2790 -1466 
L 3379 -1466 
L 3379 3475 
L 2912 3475 
L 2854 3149 
L 2842 3149 
C 2534 3418 2253 3565 1843 3565 
C 1050 3565 339 2861 339 1734 
C 339 576 902 -83 1773 -83 
C 2176 -83 2541 128 2822 403 
L 2790 -230 
L 2790 -1466 
z
M 1901 410 
C 1293 410 941 902 941 1741 
C 941 2534 1389 3072 1946 3072 
C 2234 3072 2502 2970 2790 2707 
L 2790 883 
C 2502 563 2221 410 1901 410 
z
" transform="scale(0.015625)"/>
      <path id="NotoSansCJKsc-Regular-2e" d="M 890 -83 
C 1120 -83 1312 96 1312 358 
C 1312 627 1120 806 890 806 
C 653 806 467 627 467 358 
C 467 96 653 -83 890 -83 
z
" transform="scale(0.015625)"/>
     </defs>
     <use xlink:href="#NotoSansCJKsc-Regular-4b"/>
     <use xlink:href="#NotoSansCJKsc-Regular-65" transform="translate(64.599991 0)"/>
     <use xlink:href="#NotoSansCJKsc-Regular-79" transform="translate(119.999985 0)"/>
     <use xlink:href="#NotoSansCJKsc-Regular-20" transform="translate(172.099976 0)"/>
     <use xlink:href="#NotoSansCJKsc-Regular-69" transform="translate(194.499969 0)"/>
     <use xlink:href="#NotoSansCJKsc-Regular-64" transform="translate(221.999954 0)"/>
     <use xlink:href="#NotoSansCJKsc-Regular-65" transform="translate(283.999939 0)"/>
     <use xlink:href="#NotoSansCJKsc-Regular-61" transform="translate(339.399933 0)"/>
     <use xlink:href="#NotoSansCJKsc-Regular-3a" transform="translate(395.699921 0)"/>
     <use xlink:href="#NotoSansCJKsc-Regular-20" transform="translate(423.499908 0)"/>
     <use xlink:href="#NotoSansCJKsc-Regular-63" transform="translate(445.899902 0)"/>
     <use xlink:href="#NotoSansCJKsc-Regular-6c" transform="translate(496.899887 0)"/>
     <use xlink:href="#NotoSansCJKsc-Regular-6f" transform="translate(525.299881 0)"/>
     <use xlink:href="#NotoSansCJKsc-Regular-73" transform="translate(585.899872 0)"/>
     <use xlink:href="#NotoSansCJKsc-Regular-65" transform="translate(632.69986 0)"/>
     <use xlink:href="#NotoSansCJKsc-Regular-20" transform="translate(688.099854 0)"/>
     <use xlink:href="#NotoSansCJKsc-Regular-74" transform="translate(710.499847 0)"/>
     <use xlink:href="#NotoSansCJKsc-Regular-68" transform="translate(748.199844 0)"/>
     <use xlink:href="#NotoSansCJKsc-Regular-65" transform="translate(808.899841 0)"/>
     <use xlink:href="#NotoSansCJKsc-Regular-20" transform="translate(864.299835 0)"/>
     <use xlink:href="#NotoSansCJKsc-Regular-63" transform="translate(886.699829 0)"/>
     <use xlink:href="#NotoSansCJKsc-Regular-6f" transform="translate(937.699814 0)"/>
     <use xlink:href="#NotoSansCJKsc-Regular-6e" transform="translate(998.299805 0)"/>
     <use xlink:href="#NotoSansCJKsc-Regular-74" transform="translate(1059.299789 0)"/>
     <use xlink:href="#NotoSansCJKsc-Regular-65" transform="translate(1096.999786 0)"/>
     <use xlink:href="#NotoSansCJKsc-Regular-78" transform="translate(1152.39978 0)"/>
     <use xlink:href="#NotoSansCJKsc-Regular-74" transform="translate(1202.199768 0)"/>
     <use xlink:href="#NotoSansCJKsc-Regular-20" transform="translate(1239.899765 0)"/>
     <use xlink:href="#NotoSansCJKsc-Regular-67" transform="translate(1262.299759 0)"/>
     <use xlink:href="#NotoSansCJKsc-Regular-61" transform="translate(1318.699753 0)"/>
     <use xlink:href="#NotoSansCJKsc-Regular-70" transform="translate(1374.999741 0)"/>
     <use xlink:href="#NotoSansCJKsc-Regular-20" transform="translate(1436.999725 0)"/>
     <use xlink:href="#NotoSansCJKsc-Regular-62" transform="translate(1459.399719 0)"/>
     <use xlink:href="#NotoSansCJKsc-Regular-79" transform="translate(1521.199707 0)"/>
     <use xlink:href="#NotoSansCJKsc-Regular-20" transform="translate(1573.299698 0)"/>
     <use xlink:href="#NotoSansCJKsc-Regular-61" transform="translate(1595.699692 0)"/>
     <use xlink:href="#NotoSansCJKsc-Regular-63" transform="translate(1651.99968 0)"/>
     <use xlink:href="#NotoSansCJKsc-Regular-71" transform="translate(1702.999664 0)"/>
     <use xlink:href="#NotoSansCJKsc-Regular-75" transform="translate(1764.999649 0)"/>
     <use xlink:href="#NotoSansCJKsc-Regular-69" transform="translate(1825.699646 0)"/>
     <use xlink:href="#NotoSansCJKsc-Regular-72" transform="translate(1853.199631 0)"/>
     <use xlink:href="#NotoSansCJKsc-Regular-69" transform="translate(1891.999619 0)"/>
     <use xlink:href="#NotoSansCJKsc-Regular-6e" transform="translate(1919.499603 0)"/>
     <use xlink:href="#NotoSansCJKsc-Regular-67" transform="translate(1980.499588 0)"/>
     <use xlink:href="#NotoSansCJKsc-Regular-20" transform="translate(2036.899582 0)"/>
     <use xlink:href="#NotoSansCJKsc-Regular-6d" transform="translate(2059.299576 0)"/>
     <use xlink:href="#NotoSansCJKsc-Regular-69" transform="translate(2151.899567 0)"/>
     <use xlink:href="#NotoSansCJKsc-Regular-73" transform="translate(2179.399551 0)"/>
     <use xlink:href="#NotoSansCJKsc-Regular-73" transform="translate(2226.199539 0)"/>
     <use xlink:href="#NotoSansCJKsc-Regular-69" transform="translate(2272.999527 0)"/>
     <use xlink:href="#NotoSansCJKsc-Regular-6e" transform="translate(2300.499512 0)"/>
     <use xlink:href="#NotoSansCJKsc-Regular-67" transform="translate(2361.499496 0)"/>
     <use xlink:href="#NotoSansCJKsc-Regular-20" transform="translate(2417.89949 0)"/>
     <use xlink:href="#NotoSansCJKsc-Regular-63" transform="translate(2440.299484 0)"/>
     <use xlink:href="#NotoSansCJKsc-Regular-6f" transform="translate(2491.299469 0)"/>
     <use xlink:href="#NotoSansCJKsc-Regular-6e" transform="translate(2551.89946 0)"/>
     <use xlink:href="#NotoSansCJKsc-Regular-74" transform="translate(2612.899445 0)"/>
     <use xlink:href="#NotoSansCJKsc-Regular-65" transform="translate(2650.599442 0)"/>
     <use xlink:href="#NotoSansCJKsc-Regular-78" transform="translate(2705.999435 0)"/>
     <use xlink:href="#NotoSansCJKsc-Regular-74" transform="translate(2755.799423 0)"/>
     <use xlink:href="#NotoSansCJKsc-Regular-20" transform="translate(2793.49942 0)"/>
     <use xlink:href="#NotoSansCJKsc-Regular-62" transform="translate(2815.899414 0)"/>
     <use xlink:href="#NotoSansCJKsc-Regular-65" transform="translate(2877.699402 0)"/>
     <use xlink:href="#NotoSansCJKsc-Regular-66" transform="translate(2933.099396 0)"/>
     <use xlink:href="#NotoSansCJKsc-Regular-6f" transform="translate(2965.59938 0)"/>
     <use xlink:href="#NotoSansCJKsc-Regular-72" transform="translate(3026.199371 0)"/>
     <use xlink:href="#NotoSansCJKsc-Regular-65" transform="translate(3064.999359 0)"/>
     <use xlink:href="#NotoSansCJKsc-Regular-20" transform="translate(3120.399353 0)"/>
     <use xlink:href="#NotoSansCJKsc-Regular-67" transform="translate(3142.799347 0)"/>
     <use xlink:href="#NotoSansCJKsc-Regular-65" transform="translate(3199.199341 0)"/>
     <use xlink:href="#NotoSansCJKsc-Regular-6e" transform="translate(3254.599335 0)"/>
     <use xlink:href="#NotoSansCJKsc-Regular-65" transform="translate(3315.599319 0)"/>
     <use xlink:href="#NotoSansCJKsc-Regular-72" transform="translate(3370.999313 0)"/>
     <use xlink:href="#NotoSansCJKsc-Regular-61" transform="translate(3409.799301 0)"/>
     <use xlink:href="#NotoSansCJKsc-Regular-74" transform="translate(3466.099289 0)"/>
     <use xlink:href="#NotoSansCJKsc-Regular-69" transform="translate(3503.799286 0)"/>
     <use xlink:href="#NotoSansCJKsc-Regular-6f" transform="translate(3531.299271 0)"/>
     <use xlink:href="#NotoSansCJKsc-Regular-6e" transform="translate(3591.899261 0)"/>
     <use xlink:href="#NotoSansCJKsc-Regular-2e" transform="translate(3652.899246 0)"/>
    </g>
   </g>
   <g id="patch_11">
    <path d="M 16.0056 26.49168 
L 77.3856 26.49168 
L 77.3856 15.0156 
L 16.0056 15.0156 
z
" clip-path="url(#pdf650e746f)" style="fill: #2563eb; stroke: #2563eb; stroke-linejoin: miter"/>
   </g>
  </g>
 </g>
 <defs>
  <clipPath id="pdf650e746f">
   <rect x="8.64" y="8.64" width="613.8" height="255.024"/>
  </clipPath>
 </defs>
</svg>
