<svg xmlns="http://www.w3.org/2000/svg" width="1200" height="700" viewBox="0 0 1200 700">
  <defs>
    <linearGradient id="bg" x1="0" y1="0" x2="1" y2="1"><stop offset="0%" stop-color="#f8fafc"/><stop offset="100%" stop-color="#fdf2f8"/></linearGradient>
    <linearGradient id="bar" x1="0" y1="0" x2="1" y2="0"><stop offset="0%" stop-color="#db2777"/><stop offset="100%" stop-color="#2563eb"/></linearGradient>
    <filter id="sh" x="-20%" y="-20%" width="140%" height="140%"><feDropShadow dx="0" dy="10" stdDeviation="16" flood-color="#0f172a" flood-opacity="0.12"/></filter>
    <style>
      .t{font:700 32px ui-sans-serif,system-ui,-apple-system,Segoe UI,Roboto,Helvetica,Arial;fill:#0f172a}
      .s{font:500 16px ui-sans-serif,system-ui,-apple-system,Segoe UI,Roboto,Helvetica,Arial;fill:#475569}
      .h{font:700 18px ui-sans-serif,system-ui,-apple-system,Segoe UI,Roboto,Helvetica,Arial;fill:#0f172a}
      .p{font:500 15px ui-sans-serif,system-ui,-apple-system,Segoe UI,Roboto,Helvetica,Arial;fill:#334155}
      .m{font:600 13px ui-monospace,SFMono-Regular,Menlo,Consolas,monospace;fill:#334155}
    </style>
  </defs>

  <rect width="1200" height="700" rx="28" fill="url(#bg)"/>
  <g filter="url(#sh)"><rect x="48" y="42" width="1104" height="86" rx="18" fill="#fff"/></g>
  <rect x="48" y="42" width="1104" height="6" rx="3" fill="url(#bar)"/>
  <text class="t" x="76" y="92">CFALR</text>
  <text class="s" x="76" y="118">Collaborative Filtering + LLM token injection for outfit recommendation</text>

  <g filter="url(#sh)"><rect x="60" y="170" width="1080" height="470" rx="18" fill="#fff"/></g>

  <rect x="92" y="220" width="300" height="165" rx="16" fill="#f8fafc" stroke="#e2e8f0"/>
  <text class="h" x="112" y="252">1) User history</text>
  <text class="p" x="112" y="282">click / purchase / likes</text>
  <text class="p" x="112" y="308">outfit interactions</text>

  <rect x="422" y="220" width="320" height="165" rx="16" fill="#fdf2f8" stroke="#fbcfe8"/>
  <text class="h" x="442" y="252">2) CF signals</text>
  <text class="m" x="442" y="282">u, i embeddings</text>
  <text class="p" x="442" y="308">project → single token</text>

  <rect x="772" y="220" width="336" height="165" rx="16" fill="#eff6ff" stroke="#bfdbfe"/>
  <text class="h" x="792" y="252">3) LLM (P-FITB)</text>
  <text class="p" x="792" y="282">fill missing items</text>
  <text class="p" x="792" y="308">multimodal item text/attr</text>

  <rect x="92" y="440" width="1016" height="180" rx="16" fill="#f1f5f9" stroke="#cbd5e1"/>
  <text class="h" x="112" y="472">4) CF-augmented generation</text>
  <text class="p" x="112" y="502">combine LLM distribution with CF preference</text>
  <text class="m" x="112" y="530">p(next) ∝ p_LLM(next) ⊕ p_CF(next)</text>

  <g fill="none" stroke="#94a3b8" stroke-width="4">
    <path d="M 392 302 L 422 302"/>
    <path d="M 742 302 L 772 302"/>
    <path d="M 590 385 L 590 440"/>
  </g>
  <g fill="#94a3b8">
    <polygon points="417,302 405,295 405,309"/>
    <polygon points="767,302 755,295 755,309"/>
    <polygon points="590,440 583,428 597,428"/>
  </g>
</svg>
