<?xml version="1.0" encoding="utf-8" standalone="no"?>
<!DOCTYPE svg PUBLIC "-//W3C//DTD SVG 1.1//EN"
  "http://www.w3.org/Graphics/SVG/1.1/DTD/svg11.dtd">
<svg xmlns:xlink="http://www.w3.org/1999/xlink" width="787.896pt" height="314.727375pt" viewBox="0 0 787.896 314.727375" xmlns="http://www.w3.org/2000/svg" version="1.1">
 <metadata>
  <rdf:RDF xmlns:dc="http://purl.org/dc/elements/1.1/" xmlns:cc="http://creativecommons.org/ns#" xmlns:rdf="http://www.w3.org/1999/02/22-rdf-syntax-ns#">
   <cc:Work>
    <dc:type rdf:resource="http://purl.org/dc/dcmitype/StillImage"/>
    <dc:date>2026-06-27T20:28:39.531686</dc:date>
    <dc:format>image/svg+xml</dc:format>
    <dc:creator>
     <cc:Agent>
      <dc:title>Matplotlib v3.10.5, https://matplotlib.org/</dc:title>
     </cc:Agent>
    </dc:creator>
   </cc:Work>
  </rdf:RDF>
 </metadata>
 <defs>
  <style type="text/css">*{stroke-linejoin: round; stroke-linecap: butt}</style>
 </defs>
 <g id="figure_1">
  <g id="patch_1">
   <path d="M 0 314.727375 
L 787.896 314.727375 
L 787.896 0 
L 0 0 
z
" style="fill: #ffffff"/>
  </g>
  <g id="axes_1">
   <g id="patch_2">
    <path d="M 40.466 274.556 
L 779.256 274.556 
L 779.256 76.05825 
L 40.466 76.05825 
z
" style="fill: #ffffff"/>
   </g>
   <g id="matplotlib.axis_1">
    <g id="xtick_1">
     <g id="line2d_1">
      <defs>
       <path id="m2c445435f5" d="M 0 0 
L 0 3.5 
" style="stroke: #475569; stroke-width: 0.8"/>
      </defs>
      <g>
       <use xlink:href="#m2c445435f5" x="159.253809" y="274.556" style="fill: #475569; stroke: #475569; stroke-width: 0.8"/>
      </g>
     </g>
     <g id="text_1">
      <!-- Majority -->
      <g style="fill: #475569" transform="translate(138.260996 290.168656) scale(0.11 -0.11)">
       <defs>
        <path id="NotoSansCJKsc-Regular-4d" d="M 646 0 
L 1178 0 
L 1178 2598 
C 1178 3002 1139 3571 1101 3981 
L 1126 3981 
L 1504 2912 
L 2394 474 
L 2790 474 
L 3674 2912 
L 4051 3981 
L 4077 3981 
C 4045 3571 4000 3002 4000 2598 
L 4000 0 
L 4550 0 
L 4550 4691 
L 3840 4691 
L 2944 2182 
C 2835 1862 2739 1530 2618 1203 
L 2592 1203 
C 2477 1530 2374 1862 2253 2182 
L 1357 4691 
L 646 4691 
L 646 0 
z
" transform="scale(0.015625)"/>
        <path id="NotoSansCJKsc-Regular-61" d="M 1389 -83 
C 1818 -83 2208 141 2541 416 
L 2560 416 
L 2611 0 
L 3091 0 
L 3091 2138 
C 3091 3002 2739 3565 1888 3565 
C 1325 3565 838 3315 525 3110 
L 749 2707 
C 1024 2893 1389 3078 1792 3078 
C 2362 3078 2509 2650 2509 2202 
C 1030 2035 378 1658 378 902 
C 378 275 806 -83 1389 -83 
z
M 1555 390 
C 1210 390 941 544 941 941 
C 941 1389 1338 1677 2509 1811 
L 2509 845 
C 2170 544 1888 390 1555 390 
z
" transform="scale(0.015625)"/>
        <path id="NotoSansCJKsc-Regular-6a" d="M 224 -1549 
C 915 -1549 1178 -1107 1178 -397 
L 1178 3475 
L 595 3475 
L 595 -397 
C 595 -819 512 -1082 166 -1082 
C 45 -1082 -77 -1050 -166 -1018 
L -282 -1459 
C -160 -1510 19 -1549 224 -1549 
z
M 883 4192 
C 1107 4192 1274 4346 1274 4582 
C 1274 4806 1107 4960 883 4960 
C 653 4960 493 4806 493 4582 
C 493 4346 653 4192 883 4192 
z
" transform="scale(0.015625)"/>
        <path id="NotoSansCJKsc-Regular-6f" d="M 1939 -83 
C 2790 -83 3546 582 3546 1734 
C 3546 2893 2790 3565 1939 3565 
C 1088 3565 333 2893 333 1734 
C 333 582 1088 -83 1939 -83 
z
M 1939 403 
C 1338 403 934 934 934 1734 
C 934 2534 1338 3072 1939 3072 
C 2541 3072 2950 2534 2950 1734 
C 2950 934 2541 403 1939 403 
z
" transform="scale(0.015625)"/>
        <path id="NotoSansCJKsc-Regular-72" d="M 589 0 
L 1178 0 
L 1178 2234 
C 1408 2822 1760 3040 2048 3040 
C 2195 3040 2272 3021 2387 2982 
L 2496 3488 
C 2387 3546 2278 3565 2125 3565 
C 1741 3565 1382 3283 1139 2842 
L 1126 2842 
L 1069 3475 
L 589 3475 
L 589 0 
z
" transform="scale(0.015625)"/>
        <path id="NotoSansCJKsc-Regular-69" d="M 589 0 
L 1178 0 
L 1178 3475 
L 589 3475 
L 589 0 
z
M 883 4192 
C 1114 4192 1274 4346 1274 4582 
C 1274 4806 1114 4960 883 4960 
C 653 4960 499 4806 499 4582 
C 499 4346 653 4192 883 4192 
z
" transform="scale(0.015625)"/>
        <path id="NotoSansCJKsc-Regular-74" d="M 1677 -83 
C 1894 -83 2125 -19 2323 45 
L 2208 486 
C 2093 435 1939 390 1811 390 
C 1408 390 1274 634 1274 1056 
L 1274 3002 
L 2221 3002 
L 2221 3475 
L 1274 3475 
L 1274 4454 
L 787 4454 
L 723 3475 
L 173 3443 
L 173 3002 
L 691 3002 
L 691 1075 
C 691 378 941 -83 1677 -83 
z
" transform="scale(0.015625)"/>
        <path id="NotoSansCJKsc-Regular-79" d="M 646 -1498 
C 1338 -1498 1702 -973 1946 -294 
L 3251 3475 
L 2682 3475 
L 2054 1549 
C 1965 1235 1862 883 1773 563 
L 1741 563 
C 1619 890 1504 1242 1395 1549 
L 691 3475 
L 83 3475 
L 1478 -6 
L 1402 -269 
C 1254 -698 1011 -1018 621 -1018 
C 525 -1018 422 -986 352 -960 
L 237 -1427 
C 346 -1472 486 -1498 646 -1498 
z
" transform="scale(0.015625)"/>
       </defs>
       <use xlink:href="#NotoSansCJKsc-Regular-4d"/>
       <use xlink:href="#NotoSansCJKsc-Regular-61" transform="translate(81.199982 0)"/>
       <use xlink:href="#NotoSansCJKsc-Regular-6a" transform="translate(137.499969 0)"/>
       <use xlink:href="#NotoSansCJKsc-Regular-6f" transform="translate(164.999954 0)"/>
       <use xlink:href="#NotoSansCJKsc-Regular-72" transform="translate(225.599945 0)"/>
       <use xlink:href="#NotoSansCJKsc-Regular-69" transform="translate(264.399933 0)"/>
       <use xlink:href="#NotoSansCJKsc-Regular-74" transform="translate(291.899918 0)"/>
       <use xlink:href="#NotoSansCJKsc-Regular-79" transform="translate(329.599915 0)"/>
      </g>
      <!-- Text Bias -->
      <g style="fill: #475569" transform="translate(136.070449 303.337375) scale(0.11 -0.11)">
       <defs>
        <path id="NotoSansCJKsc-Regular-54" d="M 1619 0 
L 2214 0 
L 2214 4192 
L 3635 4192 
L 3635 4691 
L 198 4691 
L 198 4192 
L 1619 4192 
L 1619 0 
z
" transform="scale(0.015625)"/>
        <path id="NotoSansCJKsc-Regular-65" d="M 1997 -83 
C 2464 -83 2835 70 3136 269 
L 2931 659 
C 2669 486 2400 384 2061 384 
C 1402 384 947 858 909 1600 
L 3251 1600 
C 3264 1690 3277 1805 3277 1933 
C 3277 2925 2778 3565 1888 3565 
C 1094 3565 333 2867 333 1734 
C 333 589 1069 -83 1997 -83 
z
M 902 2016 
C 973 2707 1408 3098 1901 3098 
C 2445 3098 2765 2720 2765 2016 
L 902 2016 
z
" transform="scale(0.015625)"/>
        <path id="NotoSansCJKsc-Regular-78" d="M 96 0 
L 710 0 
L 1178 813 
C 1299 1024 1408 1235 1530 1434 
L 1562 1434 
C 1696 1235 1824 1024 1939 813 
L 2451 0 
L 3091 0 
L 1946 1754 
L 3002 3475 
L 2394 3475 
L 1965 2714 
C 1856 2515 1760 2330 1658 2131 
L 1626 2131 
C 1510 2330 1389 2515 1286 2714 
L 819 3475 
L 186 3475 
L 1242 1811 
L 96 0 
z
" transform="scale(0.015625)"/>
        <path id="NotoSansCJKsc-Regular-20" transform="scale(0.015625)"/>
        <path id="NotoSansCJKsc-Regular-42" d="M 646 0 
L 2138 0 
C 3187 0 3917 454 3917 1376 
C 3917 2016 3520 2387 2963 2496 
L 2963 2528 
C 3405 2669 3648 3078 3648 3546 
C 3648 4371 2982 4691 2035 4691 
L 646 4691 
L 646 0 
z
M 1235 2701 
L 1235 4224 
L 1958 4224 
C 2694 4224 3066 4019 3066 3469 
C 3066 2989 2739 2701 1933 2701 
L 1235 2701 
z
M 1235 474 
L 1235 2240 
L 2054 2240 
C 2880 2240 3334 1978 3334 1395 
C 3334 762 2861 474 2054 474 
L 1235 474 
z
" transform="scale(0.015625)"/>
        <path id="NotoSansCJKsc-Regular-73" d="M 1498 -83 
C 2317 -83 2758 384 2758 947 
C 2758 1606 2208 1811 1702 2003 
C 1312 2150 954 2278 954 2605 
C 954 2880 1158 3110 1600 3110 
C 1907 3110 2150 2976 2387 2803 
L 2669 3168 
C 2406 3386 2022 3565 1594 3565 
C 832 3565 397 3130 397 2579 
C 397 1984 922 1754 1408 1574 
C 1792 1434 2202 1267 2202 915 
C 2202 614 1978 371 1517 371 
C 1101 371 794 538 486 787 
L 205 397 
C 531 122 1005 -83 1498 -83 
z
" transform="scale(0.015625)"/>
       </defs>
       <use xlink:href="#NotoSansCJKsc-Regular-54"/>
       <use xlink:href="#NotoSansCJKsc-Regular-65" transform="translate(59.899994 0)"/>
       <use xlink:href="#NotoSansCJKsc-Regular-78" transform="translate(115.299988 0)"/>
       <use xlink:href="#NotoSansCJKsc-Regular-74" transform="translate(165.099976 0)"/>
       <use xlink:href="#NotoSansCJKsc-Regular-20" transform="translate(202.799973 0)"/>
       <use xlink:href="#NotoSansCJKsc-Regular-42" transform="translate(225.199966 0)"/>
       <use xlink:href="#NotoSansCJKsc-Regular-69" transform="translate(290.899963 0)"/>
       <use xlink:href="#NotoSansCJKsc-Regular-61" transform="translate(318.399948 0)"/>
       <use xlink:href="#NotoSansCJKsc-Regular-73" transform="translate(374.699936 0)"/>
      </g>
     </g>
    </g>
    <g id="xtick_2">
     <g id="line2d_2">
      <g>
       <use xlink:href="#m2c445435f5" x="409.861" y="274.556" style="fill: #475569; stroke: #475569; stroke-width: 0.8"/>
      </g>
     </g>
     <g id="text_2">
      <!-- Info -->
      <g style="fill: #475569" transform="translate(399.774516 290.311312) scale(0.11 -0.11)">
       <defs>
        <path id="NotoSansCJKsc-Regular-49" d="M 646 0 
L 1235 0 
L 1235 4691 
L 646 4691 
L 646 0 
z
" transform="scale(0.015625)"/>
        <path id="NotoSansCJKsc-Regular-6e" d="M 589 0 
L 1178 0 
L 1178 2522 
C 1523 2874 1766 3053 2125 3053 
C 2586 3053 2784 2778 2784 2125 
L 2784 0 
L 3366 0 
L 3366 2202 
C 3366 3085 3034 3565 2304 3565 
C 1830 3565 1466 3302 1139 2970 
L 1126 2970 
L 1069 3475 
L 589 3475 
L 589 0 
z
" transform="scale(0.015625)"/>
        <path id="NotoSansCJKsc-Regular-66" d="M 211 3002 
L 685 3002 
L 685 0 
L 1267 0 
L 1267 3002 
L 2003 3002 
L 2003 3475 
L 1267 3475 
L 1267 4026 
C 1267 4474 1427 4710 1760 4710 
C 1882 4710 2022 4678 2150 4614 
L 2278 5069 
C 2118 5133 1914 5178 1696 5178 
C 1005 5178 685 4736 685 4032 
L 685 3475 
L 211 3443 
L 211 3002 
z
" transform="scale(0.015625)"/>
       </defs>
       <use xlink:href="#NotoSansCJKsc-Regular-49"/>
       <use xlink:href="#NotoSansCJKsc-Regular-6e" transform="translate(29.299988 0)"/>
       <use xlink:href="#NotoSansCJKsc-Regular-66" transform="translate(90.299973 0)"/>
       <use xlink:href="#NotoSansCJKsc-Regular-6f" transform="translate(122.799957 0)"/>
      </g>
      <!-- Sparsity -->
      <g style="fill: #475569" transform="translate(388.918031 303.337375) scale(0.11 -0.11)">
       <defs>
        <path id="NotoSansCJKsc-Regular-53" d="M 1946 -83 
C 2925 -83 3539 506 3539 1248 
C 3539 1946 3117 2266 2573 2502 
L 1907 2790 
C 1542 2944 1126 3117 1126 3578 
C 1126 3994 1472 4256 2003 4256 
C 2438 4256 2784 4090 3072 3821 
L 3379 4198 
C 3053 4538 2560 4774 2003 4774 
C 1152 4774 525 4256 525 3533 
C 525 2848 1043 2515 1478 2330 
L 2150 2035 
C 2598 1837 2938 1683 2938 1197 
C 2938 742 2573 435 1952 435 
C 1466 435 992 666 659 1018 
L 307 608 
C 710 186 1280 -83 1946 -83 
z
" transform="scale(0.015625)"/>
        <path id="NotoSansCJKsc-Regular-70" d="M 589 -1466 
L 1178 -1466 
L 1178 -288 
L 1158 320 
C 1472 58 1805 -83 2118 -83 
C 2912 -83 3629 602 3629 1792 
C 3629 2867 3142 3565 2246 3565 
C 1843 3565 1453 3334 1139 3072 
L 1126 3072 
L 1069 3475 
L 589 3475 
L 589 -1466 
z
M 2022 410 
C 1792 410 1485 499 1178 768 
L 1178 2598 
C 1510 2906 1811 3072 2099 3072 
C 2765 3072 3021 2560 3021 1786 
C 3021 928 2598 410 2022 410 
z
" transform="scale(0.015625)"/>
       </defs>
       <use xlink:href="#NotoSansCJKsc-Regular-53"/>
       <use xlink:href="#NotoSansCJKsc-Regular-70" transform="translate(59.599991 0)"/>
       <use xlink:href="#NotoSansCJKsc-Regular-61" transform="translate(121.599976 0)"/>
       <use xlink:href="#NotoSansCJKsc-Regular-72" transform="translate(177.899963 0)"/>
       <use xlink:href="#NotoSansCJKsc-Regular-73" transform="translate(216.699951 0)"/>
       <use xlink:href="#NotoSansCJKsc-Regular-69" transform="translate(263.499939 0)"/>
       <use xlink:href="#NotoSansCJKsc-Regular-74" transform="translate(290.999924 0)"/>
       <use xlink:href="#NotoSansCJKsc-Regular-79" transform="translate(328.699921 0)"/>
      </g>
     </g>
    </g>
    <g id="xtick_3">
     <g id="line2d_3">
      <g>
       <use xlink:href="#m2c445435f5" x="660.468191" y="274.556" style="fill: #475569; stroke: #475569; stroke-width: 0.8"/>
      </g>
     </g>
     <g id="text_3">
      <!-- Attribute -->
      <g style="fill: #475569" transform="translate(637.472176 290.311312) scale(0.11 -0.11)">
       <defs>
        <path id="NotoSansCJKsc-Regular-41" d="M 26 0 
L 621 0 
L 1075 1434 
L 2790 1434 
L 3238 0 
L 3866 0 
L 2272 4691 
L 1613 4691 
L 26 0 
z
M 1222 1901 
L 1453 2624 
C 1619 3155 1773 3661 1920 4211 
L 1946 4211 
C 2099 3667 2246 3155 2419 2624 
L 2643 1901 
L 1222 1901 
z
" transform="scale(0.015625)"/>
        <path id="NotoSansCJKsc-Regular-62" d="M 2118 -83 
C 2912 -83 3629 602 3629 1792 
C 3629 2867 3142 3565 2246 3565 
C 1856 3565 1472 3347 1152 3078 
L 1178 3699 
L 1178 5094 
L 589 5094 
L 589 0 
L 1056 0 
L 1107 358 
L 1133 358 
C 1434 83 1798 -83 2118 -83 
z
M 2022 410 
C 1792 410 1478 499 1178 768 
L 1178 2598 
C 1504 2906 1811 3072 2099 3072 
C 2765 3072 3021 2560 3021 1786 
C 3021 928 2598 410 2022 410 
z
" transform="scale(0.015625)"/>
        <path id="NotoSansCJKsc-Regular-75" d="M 1606 -83 
C 2080 -83 2426 166 2752 544 
L 2771 544 
L 2816 0 
L 3302 0 
L 3302 3475 
L 2720 3475 
L 2720 1011 
C 2387 602 2138 422 1779 422 
C 1318 422 1126 698 1126 1344 
L 1126 3475 
L 538 3475 
L 538 1274 
C 538 384 870 -83 1606 -83 
z
" transform="scale(0.015625)"/>
       </defs>
       <use xlink:href="#NotoSansCJKsc-Regular-41"/>
       <use xlink:href="#NotoSansCJKsc-Regular-74" transform="translate(60.799988 0)"/>
       <use xlink:href="#NotoSansCJKsc-Regular-74" transform="translate(98.499985 0)"/>
       <use xlink:href="#NotoSansCJKsc-Regular-72" transform="translate(136.199982 0)"/>
       <use xlink:href="#NotoSansCJKsc-Regular-69" transform="translate(174.999969 0)"/>
       <use xlink:href="#NotoSansCJKsc-Regular-62" transform="translate(202.499954 0)"/>
       <use xlink:href="#NotoSansCJKsc-Regular-75" transform="translate(264.299942 0)"/>
       <use xlink:href="#NotoSansCJKsc-Regular-74" transform="translate(324.999939 0)"/>
       <use xlink:href="#NotoSansCJKsc-Regular-65" transform="translate(362.699936 0)"/>
      </g>
      <!-- Hijacking -->
      <g style="fill: #475569" transform="translate(636.532019 303.337375) scale(0.11 -0.11)">
       <defs>
        <path id="NotoSansCJKsc-Regular-48" d="M 646 0 
L 1235 0 
L 1235 2214 
L 3424 2214 
L 3424 0 
L 4019 0 
L 4019 4691 
L 3424 4691 
L 3424 2726 
L 1235 2726 
L 1235 4691 
L 646 4691 
L 646 0 
z
" transform="scale(0.015625)"/>
        <path id="NotoSansCJKsc-Regular-63" d="M 1958 -83 
C 2374 -83 2771 83 3085 352 
L 2829 749 
C 2611 557 2330 403 2010 403 
C 1370 403 934 934 934 1734 
C 934 2534 1395 3072 2029 3072 
C 2298 3072 2522 2950 2720 2771 
L 3014 3155 
C 2771 3373 2458 3565 2003 3565 
C 1107 3565 333 2893 333 1734 
C 333 582 1037 -83 1958 -83 
z
" transform="scale(0.015625)"/>
        <path id="NotoSansCJKsc-Regular-6b" d="M 589 0 
L 1165 0 
L 1165 915 
L 1818 1677 
L 2835 0 
L 3469 0 
L 2157 2074 
L 3315 3475 
L 2662 3475 
L 1190 1645 
L 1165 1645 
L 1165 5094 
L 589 5094 
L 589 0 
z
" transform="scale(0.015625)"/>
        <path id="NotoSansCJKsc-Regular-67" d="M 1760 -1600 
C 2835 -1600 3520 -1043 3520 -397 
C 3520 179 3110 429 2310 429 
L 1626 429 
C 1158 429 1018 589 1018 806 
C 1018 998 1114 1114 1242 1222 
C 1395 1146 1587 1101 1754 1101 
C 2470 1101 3027 1568 3027 2310 
C 3027 2611 2912 2867 2746 3027 
L 3456 3027 
L 3456 3475 
L 2246 3475 
C 2125 3526 1952 3565 1754 3565 
C 1056 3565 454 3085 454 2323 
C 454 1907 678 1568 909 1389 
L 909 1363 
C 723 1235 525 1005 525 717 
C 525 442 659 256 838 147 
L 838 115 
C 512 -83 326 -371 326 -672 
C 326 -1267 915 -1600 1760 -1600 
z
M 1754 1498 
C 1357 1498 1018 1818 1018 2323 
C 1018 2835 1350 3136 1754 3136 
C 2170 3136 2496 2835 2496 2323 
C 2496 1818 2157 1498 1754 1498 
z
M 1843 -1197 
C 1210 -1197 838 -960 838 -589 
C 838 -390 941 -179 1190 0 
C 1344 -38 1510 -51 1638 -51 
L 2240 -51 
C 2701 -51 2944 -166 2944 -493 
C 2944 -851 2515 -1197 1843 -1197 
z
" transform="scale(0.015625)"/>
       </defs>
       <use xlink:href="#NotoSansCJKsc-Regular-48"/>
       <use xlink:href="#NotoSansCJKsc-Regular-69" transform="translate(72.799988 0)"/>
       <use xlink:href="#NotoSansCJKsc-Regular-6a" transform="translate(100.299973 0)"/>
       <use xlink:href="#NotoSansCJKsc-Regular-61" transform="translate(127.799957 0)"/>
       <use xlink:href="#NotoSansCJKsc-Regular-63" transform="translate(184.099945 0)"/>
       <use xlink:href="#NotoSansCJKsc-Regular-6b" transform="translate(235.09993 0)"/>
       <use xlink:href="#NotoSansCJKsc-Regular-69" transform="translate(290.299927 0)"/>
       <use xlink:href="#NotoSansCJKsc-Regular-6e" transform="translate(317.799911 0)"/>
       <use xlink:href="#NotoSansCJKsc-Regular-67" transform="translate(378.799896 0)"/>
      </g>
     </g>
    </g>
   </g>
   <g id="matplotlib.axis_2">
    <g id="ytick_1">
     <g id="line2d_4">
      <path d="M 40.466 274.556 
L 779.256 274.556 
" clip-path="url(#p330b69f6b6)" style="fill: none; stroke: #e5e7eb; stroke-width: 0.8; stroke-linecap: square"/>
     </g>
     <g id="line2d_5">
      <defs>
       <path id="md28ebf232c" d="M 0 0 
L -3.5 0 
" style="stroke: #475569; stroke-width: 0.8"/>
      </defs>
      <g>
       <use xlink:href="#md28ebf232c" x="40.466" y="274.556" style="fill: #475569; stroke: #475569; stroke-width: 0.8"/>
      </g>
     </g>
     <g id="text_4">
      <!-- 0 -->
      <g style="fill: #475569" transform="translate(27.361 278.933656) scale(0.11 -0.11)">
       <defs>
        <path id="NotoSansCJKsc-Regular-30" d="M 1779 -83 
C 2669 -83 3238 723 3238 2362 
C 3238 3987 2669 4774 1779 4774 
C 883 4774 320 3987 320 2362 
C 320 723 883 -83 1779 -83 
z
M 1779 390 
C 1248 390 883 986 883 2362 
C 883 3731 1248 4314 1779 4314 
C 2310 4314 2675 3731 2675 2362 
C 2675 986 2310 390 1779 390 
z
" transform="scale(0.015625)"/>
       </defs>
       <use xlink:href="#NotoSansCJKsc-Regular-30"/>
      </g>
     </g>
    </g>
    <g id="ytick_2">
     <g id="line2d_6">
      <path d="M 40.466 249.743781 
L 779.256 249.743781 
" clip-path="url(#p330b69f6b6)" style="fill: none; stroke: #e5e7eb; stroke-width: 0.8; stroke-linecap: square"/>
     </g>
     <g id="line2d_7">
      <g>
       <use xlink:href="#md28ebf232c" x="40.466" y="249.743781" style="fill: #475569; stroke: #475569; stroke-width: 0.8"/>
      </g>
     </g>
     <g id="text_5">
      <!-- 1 -->
      <g style="fill: #475569" transform="translate(27.361 254.121437) scale(0.11 -0.11)">
       <defs>
        <path id="NotoSansCJKsc-Regular-31" d="M 563 0 
L 3136 0 
L 3136 486 
L 2195 486 
L 2195 4691 
L 1747 4691 
C 1491 4544 1190 4435 774 4358 
L 774 3987 
L 1613 3987 
L 1613 486 
L 563 486 
L 563 0 
z
" transform="scale(0.015625)"/>
       </defs>
       <use xlink:href="#NotoSansCJKsc-Regular-31"/>
      </g>
     </g>
    </g>
    <g id="ytick_3">
     <g id="line2d_8">
      <path d="M 40.466 224.931562 
L 779.256 224.931562 
" clip-path="url(#p330b69f6b6)" style="fill: none; stroke: #e5e7eb; stroke-width: 0.8; stroke-linecap: square"/>
     </g>
     <g id="line2d_9">
      <g>
       <use xlink:href="#md28ebf232c" x="40.466" y="224.931562" style="fill: #475569; stroke: #475569; stroke-width: 0.8"/>
      </g>
     </g>
     <g id="text_6">
      <!-- 2 -->
      <g style="fill: #475569" transform="translate(27.361 229.309219) scale(0.11 -0.11)">
       <defs>
        <path id="NotoSansCJKsc-Regular-32" d="M 282 0 
L 3232 0 
L 3232 506 
L 1933 506 
C 1696 506 1408 480 1165 461 
C 2266 1504 3008 2458 3008 3398 
C 3008 4230 2477 4774 1638 4774 
C 1043 4774 634 4506 256 4090 
L 595 3757 
C 858 4070 1184 4301 1568 4301 
C 2150 4301 2432 3910 2432 3373 
C 2432 2566 1754 1632 282 346 
L 282 0 
z
" transform="scale(0.015625)"/>
       </defs>
       <use xlink:href="#NotoSansCJKsc-Regular-32"/>
      </g>
     </g>
    </g>
    <g id="ytick_4">
     <g id="line2d_10">
      <path d="M 40.466 200.119344 
L 779.256 200.119344 
" clip-path="url(#p330b69f6b6)" style="fill: none; stroke: #e5e7eb; stroke-width: 0.8; stroke-linecap: square"/>
     </g>
     <g id="line2d_11">
      <g>
       <use xlink:href="#md28ebf232c" x="40.466" y="200.119344" style="fill: #475569; stroke: #475569; stroke-width: 0.8"/>
      </g>
     </g>
     <g id="text_7">
      <!-- 3 -->
      <g style="fill: #475569" transform="translate(27.361 204.497) scale(0.11 -0.11)">
       <defs>
        <path id="NotoSansCJKsc-Regular-33" d="M 1683 -83 
C 2522 -83 3194 416 3194 1254 
C 3194 1901 2752 2310 2202 2445 
L 2202 2477 
C 2701 2650 3034 3034 3034 3603 
C 3034 4346 2458 4774 1664 4774 
C 1126 4774 710 4538 358 4218 
L 672 3846 
C 941 4115 1267 4301 1645 4301 
C 2138 4301 2438 4006 2438 3558 
C 2438 3053 2112 2662 1139 2662 
L 1139 2214 
C 2227 2214 2598 1843 2598 1274 
C 2598 736 2208 403 1645 403 
C 1114 403 762 659 486 941 
L 186 563 
C 493 224 954 -83 1683 -83 
z
" transform="scale(0.015625)"/>
       </defs>
       <use xlink:href="#NotoSansCJKsc-Regular-33"/>
      </g>
     </g>
    </g>
    <g id="ytick_5">
     <g id="line2d_12">
      <path d="M 40.466 175.307125 
L 779.256 175.307125 
" clip-path="url(#p330b69f6b6)" style="fill: none; stroke: #e5e7eb; stroke-width: 0.8; stroke-linecap: square"/>
     </g>
     <g id="line2d_13">
      <g>
       <use xlink:href="#md28ebf232c" x="40.466" y="175.307125" style="fill: #475569; stroke: #475569; stroke-width: 0.8"/>
      </g>
     </g>
     <g id="text_8">
      <!-- 4 -->
      <g style="fill: #475569" transform="translate(27.361 179.684781) scale(0.11 -0.11)">
       <defs>
        <path id="NotoSansCJKsc-Regular-34" d="M 2176 0 
L 2726 0 
L 2726 1293 
L 3354 1293 
L 3354 1760 
L 2726 1760 
L 2726 4691 
L 2080 4691 
L 128 1677 
L 128 1293 
L 2176 1293 
L 2176 0 
z
M 2176 1760 
L 736 1760 
L 1805 3360 
C 1939 3590 2067 3827 2182 4051 
L 2208 4051 
C 2195 3814 2176 3430 2176 3200 
L 2176 1760 
z
" transform="scale(0.015625)"/>
       </defs>
       <use xlink:href="#NotoSansCJKsc-Regular-34"/>
      </g>
     </g>
    </g>
    <g id="ytick_6">
     <g id="line2d_14">
      <path d="M 40.466 150.494906 
L 779.256 150.494906 
" clip-path="url(#p330b69f6b6)" style="fill: none; stroke: #e5e7eb; stroke-width: 0.8; stroke-linecap: square"/>
     </g>
     <g id="line2d_15">
      <g>
       <use xlink:href="#md28ebf232c" x="40.466" y="150.494906" style="fill: #475569; stroke: #475569; stroke-width: 0.8"/>
      </g>
     </g>
     <g id="text_9">
      <!-- 5 -->
      <g style="fill: #475569" transform="translate(27.361 154.872562) scale(0.11 -0.11)">
       <defs>
        <path id="NotoSansCJKsc-Regular-35" d="M 1677 -83 
C 2464 -83 3213 499 3213 1523 
C 3213 2560 2573 3021 1798 3021 
C 1517 3021 1306 2950 1094 2835 
L 1216 4192 
L 2982 4192 
L 2982 4691 
L 704 4691 
L 550 2502 
L 864 2304 
C 1133 2483 1331 2579 1645 2579 
C 2234 2579 2618 2182 2618 1510 
C 2618 826 2176 403 1619 403 
C 1075 403 730 653 467 922 
L 173 538 
C 493 224 941 -83 1677 -83 
z
" transform="scale(0.015625)"/>
       </defs>
       <use xlink:href="#NotoSansCJKsc-Regular-35"/>
      </g>
     </g>
    </g>
    <g id="ytick_7">
     <g id="line2d_16">
      <path d="M 40.466 125.682687 
L 779.256 125.682687 
" clip-path="url(#p330b69f6b6)" style="fill: none; stroke: #e5e7eb; stroke-width: 0.8; stroke-linecap: square"/>
     </g>
     <g id="line2d_17">
      <g>
       <use xlink:href="#md28ebf232c" x="40.466" y="125.682687" style="fill: #475569; stroke: #475569; stroke-width: 0.8"/>
      </g>
     </g>
     <g id="text_10">
      <!-- 6 -->
      <g style="fill: #475569" transform="translate(27.361 130.060344) scale(0.11 -0.11)">
       <defs>
        <path id="NotoSansCJKsc-Regular-36" d="M 1926 -83 
C 2656 -83 3277 531 3277 1440 
C 3277 2426 2765 2912 1971 2912 
C 1606 2912 1197 2701 909 2349 
C 934 3802 1466 4294 2118 4294 
C 2400 4294 2682 4154 2861 3936 
L 3194 4294 
C 2931 4576 2579 4774 2093 4774 
C 1184 4774 358 4077 358 2240 
C 358 691 1030 -83 1926 -83 
z
M 922 1882 
C 1229 2317 1587 2477 1875 2477 
C 2445 2477 2720 2074 2720 1440 
C 2720 800 2374 378 1926 378 
C 1338 378 986 909 922 1882 
z
" transform="scale(0.015625)"/>
       </defs>
       <use xlink:href="#NotoSansCJKsc-Regular-36"/>
      </g>
     </g>
    </g>
    <g id="ytick_8">
     <g id="line2d_18">
      <path d="M 40.466 100.870469 
L 779.256 100.870469 
" clip-path="url(#p330b69f6b6)" style="fill: none; stroke: #e5e7eb; stroke-width: 0.8; stroke-linecap: square"/>
     </g>
     <g id="line2d_19">
      <g>
       <use xlink:href="#md28ebf232c" x="40.466" y="100.870469" style="fill: #475569; stroke: #475569; stroke-width: 0.8"/>
      </g>
     </g>
     <g id="text_11">
      <!-- 7 -->
      <g style="fill: #475569" transform="translate(27.361 105.248125) scale(0.11 -0.11)">
       <defs>
        <path id="NotoSansCJKsc-Regular-37" d="M 1267 0 
L 1875 0 
C 1952 1837 2150 2931 3251 4339 
L 3251 4691 
L 314 4691 
L 314 4192 
L 2592 4192 
C 1670 2912 1350 1779 1267 0 
z
" transform="scale(0.015625)"/>
       </defs>
       <use xlink:href="#NotoSansCJKsc-Regular-37"/>
      </g>
     </g>
    </g>
    <g id="ytick_9">
     <g id="line2d_20">
      <path d="M 40.466 76.05825 
L 779.256 76.05825 
" clip-path="url(#p330b69f6b6)" style="fill: none; stroke: #e5e7eb; stroke-width: 0.8; stroke-linecap: square"/>
     </g>
     <g id="line2d_21">
      <g>
       <use xlink:href="#md28ebf232c" x="40.466" y="76.05825" style="fill: #475569; stroke: #475569; stroke-width: 0.8"/>
      </g>
     </g>
     <g id="text_12">
      <!-- 8 -->
      <g style="fill: #475569" transform="translate(27.361 80.435906) scale(0.11 -0.11)">
       <defs>
        <path id="NotoSansCJKsc-Regular-38" d="M 1792 -83 
C 2669 -83 3258 448 3258 1126 
C 3258 1773 2880 2125 2470 2362 
L 2470 2394 
C 2746 2611 3091 3034 3091 3526 
C 3091 4250 2605 4762 1805 4762 
C 1075 4762 518 4282 518 3571 
C 518 3078 813 2726 1152 2490 
L 1152 2464 
C 723 2234 294 1792 294 1165 
C 294 442 922 -83 1792 -83 
z
M 2112 2547 
C 1555 2765 1050 3014 1050 3571 
C 1050 4026 1363 4326 1798 4326 
C 2298 4326 2592 3962 2592 3494 
C 2592 3149 2426 2829 2112 2547 
z
M 1798 352 
C 1235 352 813 717 813 1216 
C 813 1664 1082 2035 1459 2278 
C 2125 2010 2701 1779 2701 1146 
C 2701 678 2342 352 1798 352 
z
" transform="scale(0.015625)"/>
       </defs>
       <use xlink:href="#NotoSansCJKsc-Regular-38"/>
      </g>
     </g>
    </g>
    <g id="text_13">
     <!-- Total score -->
     <g style="fill: #0f172a" transform="translate(20.841313 203.791969) rotate(-90) scale(0.11 -0.11)">
      <defs>
       <path id="NotoSansCJKsc-Regular-6c" d="M 1203 -83 
C 1363 -83 1459 -58 1542 -32 
L 1459 416 
C 1395 403 1370 403 1338 403 
C 1248 403 1178 474 1178 653 
L 1178 5094 
L 589 5094 
L 589 691 
C 589 198 768 -83 1203 -83 
z
" transform="scale(0.015625)"/>
      </defs>
      <use xlink:href="#NotoSansCJKsc-Regular-54"/>
      <use xlink:href="#NotoSansCJKsc-Regular-6f" transform="translate(59.899994 0)"/>
      <use xlink:href="#NotoSansCJKsc-Regular-74" transform="translate(120.499985 0)"/>
      <use xlink:href="#NotoSansCJKsc-Regular-61" transform="translate(158.199982 0)"/>
      <use xlink:href="#NotoSansCJKsc-Regular-6c" transform="translate(214.499969 0)"/>
      <use xlink:href="#NotoSansCJKsc-Regular-20" transform="translate(242.899963 0)"/>
      <use xlink:href="#NotoSansCJKsc-Regular-73" transform="translate(265.299957 0)"/>
      <use xlink:href="#NotoSansCJKsc-Regular-63" transform="translate(312.099945 0)"/>
      <use xlink:href="#NotoSansCJKsc-Regular-6f" transform="translate(363.09993 0)"/>
      <use xlink:href="#NotoSansCJKsc-Regular-72" transform="translate(423.699921 0)"/>
      <use xlink:href="#NotoSansCJKsc-Regular-65" transform="translate(462.499908 0)"/>
     </g>
    </g>
   </g>
   <g id="patch_3">
    <path d="M 40.466 274.556 
L 40.466 76.05825 
" style="fill: none; stroke: #94a3b8; stroke-width: 0.8; stroke-linejoin: miter; stroke-linecap: square"/>
   </g>
   <g id="patch_4">
    <path d="M 40.466 274.556 
L 779.256 274.556 
" style="fill: none; stroke: #94a3b8; stroke-width: 0.8; stroke-linejoin: miter; stroke-linecap: square"/>
   </g>
   <g id="patch_5">
    <path d="M 74.047364 274.556 
L 159.253809 274.556 
L 159.253809 140.321897 
L 74.047364 140.321897 
z
" clip-path="url(#p330b69f6b6)" style="fill: #94a3b8"/>
   </g>
   <g id="patch_6">
    <path d="M 324.654555 274.556 
L 409.861 274.556 
L 409.861 177.04398 
L 324.654555 177.04398 
z
" clip-path="url(#p330b69f6b6)" style="fill: #94a3b8"/>
   </g>
   <g id="patch_7">
    <path d="M 575.261746 274.556 
L 660.468191 274.556 
L 660.468191 206.570521 
L 575.261746 206.570521 
z
" clip-path="url(#p330b69f6b6)" style="fill: #94a3b8"/>
   </g>
   <g id="patch_8">
    <path d="M 159.253809 274.556 
L 244.460254 274.556 
L 244.460254 105.088546 
L 159.253809 105.088546 
z
" clip-path="url(#p330b69f6b6)" style="fill: #2563eb"/>
   </g>
   <g id="patch_9">
    <path d="M 409.861 274.556 
L 495.067445 274.556 
L 495.067445 145.036218 
L 409.861 145.036218 
z
" clip-path="url(#p330b69f6b6)" style="fill: #2563eb"/>
   </g>
   <g id="patch_10">
    <path d="M 660.468191 274.556 
L 745.674636 274.556 
L 745.674636 179.773324 
L 660.468191 179.773324 
z
" clip-path="url(#p330b69f6b6)" style="fill: #2563eb"/>
   </g>
   <g id="text_14">
    <!-- 6.83 -->
    <g style="fill: #0f172a" transform="translate(192.115281 103.089046) scale(0.093 -0.093)">
     <defs>
      <path id="NotoSansCJKsc-Bold-36" d="M 2022 -90 
C 2829 -90 3507 525 3507 1498 
C 3507 2509 2938 2982 2144 2982 
C 1843 2982 1440 2803 1178 2483 
C 1222 3661 1664 4070 2214 4070 
C 2483 4070 2771 3910 2938 3725 
L 3437 4288 
C 3155 4582 2733 4826 2150 4826 
C 1197 4826 320 4070 320 2304 
C 320 640 1126 -90 2022 -90 
z
M 1197 1818 
C 1434 2176 1722 2317 1971 2317 
C 2381 2317 2650 2061 2650 1498 
C 2650 922 2362 621 2003 621 
C 1606 621 1286 954 1197 1818 
z
" transform="scale(0.015625)"/>
      <path id="NotoSansCJKsc-Bold-2e" d="M 1043 -90 
C 1376 -90 1626 179 1626 525 
C 1626 877 1376 1139 1043 1139 
C 704 1139 454 877 454 525 
C 454 179 704 -90 1043 -90 
z
" transform="scale(0.015625)"/>
      <path id="NotoSansCJKsc-Bold-38" d="M 1888 -90 
C 2842 -90 3482 461 3482 1178 
C 3482 1824 3123 2208 2682 2445 
L 2682 2477 
C 2989 2701 3290 3091 3290 3558 
C 3290 4314 2752 4819 1914 4819 
C 1088 4819 486 4333 486 3565 
C 486 3066 749 2707 1114 2445 
L 1114 2413 
C 672 2182 301 1786 301 1178 
C 301 435 973 -90 1888 -90 
z
M 2182 2707 
C 1690 2906 1318 3123 1318 3565 
C 1318 3949 1574 4160 1894 4160 
C 2291 4160 2522 3885 2522 3501 
C 2522 3219 2413 2944 2182 2707 
z
M 1907 576 
C 1466 576 1114 851 1114 1280 
C 1114 1638 1293 1952 1549 2163 
C 2163 1901 2605 1702 2605 1210 
C 2605 800 2310 576 1907 576 
z
" transform="scale(0.015625)"/>
      <path id="NotoSansCJKsc-Bold-33" d="M 1747 -90 
C 2656 -90 3418 410 3418 1280 
C 3418 1907 3008 2304 2477 2451 
L 2477 2483 
C 2976 2682 3264 3053 3264 3565 
C 3264 4378 2643 4826 1728 4826 
C 1171 4826 717 4602 307 4250 
L 794 3667 
C 1069 3930 1344 4083 1683 4083 
C 2086 4083 2317 3866 2317 3494 
C 2317 3066 2035 2771 1171 2771 
L 1171 2093 
C 2195 2093 2470 1805 2470 1338 
C 2470 915 2144 678 1664 678 
C 1229 678 890 890 608 1165 
L 166 570 
C 499 192 1005 -90 1747 -90 
z
" transform="scale(0.015625)"/>
     </defs>
     <use xlink:href="#NotoSansCJKsc-Bold-36"/>
     <use xlink:href="#NotoSansCJKsc-Bold-2e" transform="translate(58.999985 0)"/>
     <use xlink:href="#NotoSansCJKsc-Bold-38" transform="translate(91.499969 0)"/>
     <use xlink:href="#NotoSansCJKsc-Bold-33" transform="translate(150.499954 0)"/>
    </g>
   </g>
   <g id="text_15">
    <!-- 5.22 -->
    <g style="fill: #0f172a" transform="translate(442.722473 143.036718) scale(0.093 -0.093)">
     <defs>
      <path id="NotoSansCJKsc-Bold-35" d="M 1773 -90 
C 2637 -90 3424 518 3424 1574 
C 3424 2605 2765 3072 1965 3072 
C 1747 3072 1581 3034 1395 2944 
L 1485 3949 
L 3206 3949 
L 3206 4742 
L 672 4742 
L 544 2438 
L 973 2163 
C 1254 2342 1408 2406 1683 2406 
C 2157 2406 2483 2099 2483 1549 
C 2483 992 2138 678 1645 678 
C 1210 678 870 896 602 1158 
L 166 557 
C 525 205 1018 -90 1773 -90 
z
" transform="scale(0.015625)"/>
      <path id="NotoSansCJKsc-Bold-32" d="M 275 0 
L 3450 0 
L 3450 794 
L 2426 794 
C 2202 794 1888 768 1645 736 
C 2509 1587 3226 2509 3226 3366 
C 3226 4250 2630 4826 1734 4826 
C 1088 4826 666 4576 224 4102 
L 749 3597 
C 986 3859 1267 4083 1613 4083 
C 2067 4083 2323 3789 2323 3322 
C 2323 2586 1568 1696 275 544 
L 275 0 
z
" transform="scale(0.015625)"/>
     </defs>
     <use xlink:href="#NotoSansCJKsc-Bold-35"/>
     <use xlink:href="#NotoSansCJKsc-Bold-2e" transform="translate(58.999985 0)"/>
     <use xlink:href="#NotoSansCJKsc-Bold-32" transform="translate(91.499969 0)"/>
     <use xlink:href="#NotoSansCJKsc-Bold-32" transform="translate(150.499954 0)"/>
    </g>
   </g>
   <g id="text_16">
    <!-- 3.82 -->
    <g style="fill: #0f172a" transform="translate(693.329664 177.773824) scale(0.093 -0.093)">
     <use xlink:href="#NotoSansCJKsc-Bold-33"/>
     <use xlink:href="#NotoSansCJKsc-Bold-2e" transform="translate(58.999985 0)"/>
     <use xlink:href="#NotoSansCJKsc-Bold-38" transform="translate(91.499969 0)"/>
     <use xlink:href="#NotoSansCJKsc-Bold-32" transform="translate(150.499954 0)"/>
    </g>
   </g>
   <g id="text_17">
    <!-- Higher robustness on challenging hallucination subsets -->
    <g style="fill: #475569" transform="translate(268.111391 70.05825) scale(0.11 -0.11)">
     <defs>
      <path id="NotoSansCJKsc-Regular-68" d="M 589 0 
L 1178 0 
L 1178 2522 
C 1523 2874 1766 3053 2125 3053 
C 2586 3053 2784 2778 2784 2125 
L 2784 0 
L 3366 0 
L 3366 2202 
C 3366 3085 3034 3565 2304 3565 
C 1830 3565 1472 3302 1152 2982 
L 1178 3699 
L 1178 5094 
L 589 5094 
L 589 0 
z
" transform="scale(0.015625)"/>
     </defs>
     <use xlink:href="#NotoSansCJKsc-Regular-48"/>
     <use xlink:href="#NotoSansCJKsc-Regular-69" transform="translate(72.799988 0)"/>
     <use xlink:href="#NotoSansCJKsc-Regular-67" transform="translate(100.299973 0)"/>
     <use xlink:href="#NotoSansCJKsc-Regular-68" transform="translate(156.699966 0)"/>
     <use xlink:href="#NotoSansCJKsc-Regular-65" transform="translate(217.399963 0)"/>
     <use xlink:href="#NotoSansCJKsc-Regular-72" transform="translate(272.799957 0)"/>
     <use xlink:href="#NotoSansCJKsc-Regular-20" transform="translate(311.599945 0)"/>
     <use xlink:href="#NotoSansCJKsc-Regular-72" transform="translate(333.999939 0)"/>
     <use xlink:href="#NotoSansCJKsc-Regular-6f" transform="translate(372.799927 0)"/>
     <use xlink:href="#NotoSansCJKsc-Regular-62" transform="translate(433.399918 0)"/>
     <use xlink:href="#NotoSansCJKsc-Regular-75" transform="translate(495.199905 0)"/>
     <use xlink:href="#NotoSansCJKsc-Regular-73" transform="translate(555.899902 0)"/>
     <use xlink:href="#NotoSansCJKsc-Regular-74" transform="translate(602.69989 0)"/>
     <use xlink:href="#NotoSansCJKsc-Regular-6e" transform="translate(640.399887 0)"/>
     <use xlink:href="#NotoSansCJKsc-Regular-65" transform="translate(701.399872 0)"/>
     <use xlink:href="#NotoSansCJKsc-Regular-73" transform="translate(756.799866 0)"/>
     <use xlink:href="#NotoSansCJKsc-Regular-73" transform="translate(803.599854 0)"/>
     <use xlink:href="#NotoSansCJKsc-Regular-20" transform="translate(850.399841 0)"/>
     <use xlink:href="#NotoSansCJKsc-Regular-6f" transform="translate(872.799835 0)"/>
     <use xlink:href="#NotoSansCJKsc-Regular-6e" transform="translate(933.399826 0)"/>
     <use xlink:href="#NotoSansCJKsc-Regular-20" transform="translate(994.399811 0)"/>
     <use xlink:href="#NotoSansCJKsc-Regular-63" transform="translate(1016.799805 0)"/>
     <use xlink:href="#NotoSansCJKsc-Regular-68" transform="translate(1067.799789 0)"/>
     <use xlink:href="#NotoSansCJKsc-Regular-61" transform="translate(1128.499786 0)"/>
     <use xlink:href="#NotoSansCJKsc-Regular-6c" transform="translate(1184.799774 0)"/>
     <use xlink:href="#NotoSansCJKsc-Regular-6c" transform="translate(1213.199768 0)"/>
     <use xlink:href="#NotoSansCJKsc-Regular-65" transform="translate(1241.599762 0)"/>
     <use xlink:href="#NotoSansCJKsc-Regular-6e" transform="translate(1296.999756 0)"/>
     <use xlink:href="#NotoSansCJKsc-Regular-67" transform="translate(1357.999741 0)"/>
     <use xlink:href="#NotoSansCJKsc-Regular-69" transform="translate(1414.399734 0)"/>
     <use xlink:href="#NotoSansCJKsc-Regular-6e" transform="translate(1441.899719 0)"/>
     <use xlink:href="#NotoSansCJKsc-Regular-67" transform="translate(1502.899704 0)"/>
     <use xlink:href="#NotoSansCJKsc-Regular-20" transform="translate(1559.299698 0)"/>
     <use xlink:href="#NotoSansCJKsc-Regular-68" transform="translate(1581.699692 0)"/>
     <use xlink:href="#NotoSansCJKsc-Regular-61" transform="translate(1642.399689 0)"/>
     <use xlink:href="#NotoSansCJKsc-Regular-6c" transform="translate(1698.699677 0)"/>
     <use xlink:href="#NotoSansCJKsc-Regular-6c" transform="translate(1727.09967 0)"/>
     <use xlink:href="#NotoSansCJKsc-Regular-75" transform="translate(1755.499664 0)"/>
     <use xlink:href="#NotoSansCJKsc-Regular-63" transform="translate(1816.199661 0)"/>
     <use xlink:href="#NotoSansCJKsc-Regular-69" transform="translate(1867.199646 0)"/>
     <use xlink:href="#NotoSansCJKsc-Regular-6e" transform="translate(1894.699631 0)"/>
     <use xlink:href="#NotoSansCJKsc-Regular-61" transform="translate(1955.699615 0)"/>
     <use xlink:href="#NotoSansCJKsc-Regular-74" transform="translate(2011.999603 0)"/>
     <use xlink:href="#NotoSansCJKsc-Regular-69" transform="translate(2049.6996 0)"/>
     <use xlink:href="#NotoSansCJKsc-Regular-6f" transform="translate(2077.199585 0)"/>
     <use xlink:href="#NotoSansCJKsc-Regular-6e" transform="translate(2137.799576 0)"/>
     <use xlink:href="#NotoSansCJKsc-Regular-20" transform="translate(2198.799561 0)"/>
     <use xlink:href="#NotoSansCJKsc-Regular-73" transform="translate(2221.199554 0)"/>
     <use xlink:href="#NotoSansCJKsc-Regular-75" transform="translate(2267.999542 0)"/>
     <use xlink:href="#NotoSansCJKsc-Regular-62" transform="translate(2328.699539 0)"/>
     <use xlink:href="#NotoSansCJKsc-Regular-73" transform="translate(2390.499527 0)"/>
     <use xlink:href="#NotoSansCJKsc-Regular-65" transform="translate(2437.299515 0)"/>
     <use xlink:href="#NotoSansCJKsc-Regular-74" transform="translate(2492.699509 0)"/>
     <use xlink:href="#NotoSansCJKsc-Regular-73" transform="translate(2530.399506 0)"/>
    </g>
   </g>
   <g id="legend_1">
    <g id="patch_11">
     <path d="M 682.344281 94.713562 
L 704.344281 94.713562 
L 704.344281 87.013562 
L 682.344281 87.013562 
z
" style="fill: #94a3b8"/>
    </g>
    <g id="text_18">
     <!-- baseline -->
     <g style="fill: #0f172a" transform="translate(713.144281 94.713562) scale(0.11 -0.11)">
      <use xlink:href="#NotoSansCJKsc-Regular-62"/>
      <use xlink:href="#NotoSansCJKsc-Regular-61" transform="translate(61.799988 0)"/>
      <use xlink:href="#NotoSansCJKsc-Regular-73" transform="translate(118.099976 0)"/>
      <use xlink:href="#NotoSansCJKsc-Regular-65" transform="translate(164.899963 0)"/>
      <use xlink:href="#NotoSansCJKsc-Regular-6c" transform="translate(220.299957 0)"/>
      <use xlink:href="#NotoSansCJKsc-Regular-69" transform="translate(248.699951 0)"/>
      <use xlink:href="#NotoSansCJKsc-Regular-6e" transform="translate(276.199936 0)"/>
      <use xlink:href="#NotoSansCJKsc-Regular-65" transform="translate(337.199921 0)"/>
     </g>
    </g>
    <g id="patch_12">
     <path d="M 682.344281 111.488562 
L 704.344281 111.488562 
L 704.344281 103.788562 
L 682.344281 103.788562 
z
" style="fill: #2563eb"/>
    </g>
    <g id="text_19">
     <!-- MODE-RAG -->
     <g style="fill: #0f172a" transform="translate(713.144281 111.488562) scale(0.11 -0.11)">
      <defs>
       <path id="NotoSansCJKsc-Regular-4f" d="M 2374 -83 
C 3552 -83 4378 858 4378 2362 
C 4378 3866 3552 4774 2374 4774 
C 1197 4774 371 3866 371 2362 
C 371 858 1197 -83 2374 -83 
z
M 2374 435 
C 1530 435 979 1190 979 2362 
C 979 3533 1530 4256 2374 4256 
C 3219 4256 3770 3533 3770 2362 
C 3770 1190 3219 435 2374 435 
z
" transform="scale(0.015625)"/>
       <path id="NotoSansCJKsc-Regular-44" d="M 646 0 
L 1843 0 
C 3258 0 4026 877 4026 2362 
C 4026 3859 3258 4691 1818 4691 
L 646 4691 
L 646 0 
z
M 1235 486 
L 1235 4211 
L 1766 4211 
C 2874 4211 3418 3552 3418 2362 
C 3418 1178 2874 486 1766 486 
L 1235 486 
z
" transform="scale(0.015625)"/>
       <path id="NotoSansCJKsc-Regular-45" d="M 646 0 
L 3418 0 
L 3418 506 
L 1235 506 
L 1235 2214 
L 3014 2214 
L 3014 2720 
L 1235 2720 
L 1235 4192 
L 3347 4192 
L 3347 4691 
L 646 4691 
L 646 0 
z
" transform="scale(0.015625)"/>
       <path id="NotoSansCJKsc-Regular-2d" d="M 294 1568 
L 1933 1568 
L 1933 2016 
L 294 2016 
L 294 1568 
z
" transform="scale(0.015625)"/>
       <path id="NotoSansCJKsc-Regular-52" d="M 1235 2464 
L 1235 4211 
L 2022 4211 
C 2758 4211 3162 3994 3162 3379 
C 3162 2765 2758 2464 2022 2464 
L 1235 2464 
z
M 3219 0 
L 3885 0 
L 2694 2054 
C 3328 2208 3750 2643 3750 3379 
C 3750 4352 3066 4691 2112 4691 
L 646 4691 
L 646 0 
L 1235 0 
L 1235 1990 
L 2080 1990 
L 3219 0 
z
" transform="scale(0.015625)"/>
       <path id="NotoSansCJKsc-Regular-47" d="M 2490 -83 
C 3117 -83 3635 147 3936 461 
L 3936 2432 
L 2394 2432 
L 2394 1939 
L 3392 1939 
L 3392 710 
C 3206 538 2880 435 2547 435 
C 1542 435 979 1178 979 2362 
C 979 3533 1594 4256 2541 4256 
C 3008 4256 3315 4058 3552 3814 
L 3872 4198 
C 3603 4480 3174 4774 2522 4774 
C 1280 4774 371 3859 371 2342 
C 371 819 1254 -83 2490 -83 
z
" transform="scale(0.015625)"/>
      </defs>
      <use xlink:href="#NotoSansCJKsc-Regular-4d"/>
      <use xlink:href="#NotoSansCJKsc-Regular-4f" transform="translate(81.199982 0)"/>
      <use xlink:href="#NotoSansCJKsc-Regular-44" transform="translate(155.399963 0)"/>
      <use xlink:href="#NotoSansCJKsc-Regular-45" transform="translate(224.199951 0)"/>
      <use xlink:href="#NotoSansCJKsc-Regular-2d" transform="translate(283.099945 0)"/>
      <use xlink:href="#NotoSansCJKsc-Regular-52" transform="translate(317.799942 0)"/>
      <use xlink:href="#NotoSansCJKsc-Regular-41" transform="translate(381.299927 0)"/>
      <use xlink:href="#NotoSansCJKsc-Regular-47" transform="translate(442.099915 0)"/>
     </g>
    </g>
   </g>
  </g>
  <g id="text_20">
   <!-- MODE-RAG — ModeVent improvements (Total) -->
   <g style="fill: #0f172a" transform="translate(8.64 19.885078) scale(0.135 -0.135)">
    <defs>
     <path id="NotoSansCJKsc-Bold-4d" d="M 582 0 
L 1434 0 
L 1434 1978 
C 1434 2432 1357 3085 1312 3533 
L 1338 3533 
L 1715 2419 
L 2451 429 
L 2995 429 
L 3725 2419 
L 4109 3533 
L 4141 3533 
C 4090 3085 4019 2432 4019 1978 
L 4019 0 
L 4883 0 
L 4883 4742 
L 3834 4742 
L 3040 2515 
C 2944 2227 2861 1914 2758 1613 
L 2726 1613 
C 2630 1914 2541 2227 2438 2515 
L 1632 4742 
L 582 4742 
L 582 0 
z
" transform="scale(0.015625)"/>
     <path id="NotoSansCJKsc-Bold-4f" d="M 2464 -90 
C 3718 -90 4582 851 4582 2394 
C 4582 3930 3718 4826 2464 4826 
C 1210 4826 346 3930 346 2394 
C 346 851 1210 -90 2464 -90 
z
M 2464 730 
C 1760 730 1318 1382 1318 2394 
C 1318 3405 1760 4013 2464 4013 
C 3168 4013 3616 3405 3616 2394 
C 3616 1382 3168 730 2464 730 
z
" transform="scale(0.015625)"/>
     <path id="NotoSansCJKsc-Bold-44" d="M 582 0 
L 1933 0 
C 3334 0 4224 794 4224 2394 
C 4224 3987 3334 4742 1882 4742 
L 582 4742 
L 582 0 
z
M 1530 768 
L 1530 3981 
L 1818 3981 
C 2707 3981 3258 3546 3258 2394 
C 3258 1242 2707 768 1818 768 
L 1530 768 
z
" transform="scale(0.015625)"/>
     <path id="NotoSansCJKsc-Bold-45" d="M 582 0 
L 3558 0 
L 3558 794 
L 1530 794 
L 1530 2061 
L 3187 2061 
L 3187 2854 
L 1530 2854 
L 1530 3949 
L 3488 3949 
L 3488 4742 
L 582 4742 
L 582 0 
z
" transform="scale(0.015625)"/>
     <path id="NotoSansCJKsc-Bold-2d" d="M 314 1491 
L 2061 1491 
L 2061 2170 
L 314 2170 
L 314 1491 
z
" transform="scale(0.015625)"/>
     <path id="NotoSansCJKsc-Bold-52" d="M 1530 2541 
L 1530 3987 
L 2144 3987 
C 2752 3987 3085 3814 3085 3302 
C 3085 2797 2752 2541 2144 2541 
L 1530 2541 
z
M 3162 0 
L 4218 0 
L 3110 1939 
C 3654 2150 4013 2592 4013 3302 
C 4013 4390 3226 4742 2227 4742 
L 582 4742 
L 582 0 
L 1530 0 
L 1530 1792 
L 2189 1792 
L 3162 0 
z
" transform="scale(0.015625)"/>
     <path id="NotoSansCJKsc-Bold-41" d="M -26 0 
L 934 0 
L 1267 1216 
L 2797 1216 
L 3130 0 
L 4128 0 
L 2611 4742 
L 1491 4742 
L -26 0 
z
M 1472 1952 
L 1613 2470 
C 1754 2963 1888 3501 2016 4019 
L 2042 4019 
C 2182 3514 2310 2963 2458 2470 
L 2598 1952 
L 1472 1952 
z
" transform="scale(0.015625)"/>
     <path id="NotoSansCJKsc-Bold-47" d="M 2618 -90 
C 3270 -90 3834 160 4160 480 
L 4160 2618 
L 2470 2618 
L 2470 1843 
L 3309 1843 
L 3309 909 
C 3181 794 2944 730 2720 730 
C 1786 730 1318 1350 1318 2381 
C 1318 3398 1856 4013 2650 4013 
C 3072 4013 3341 3840 3578 3616 
L 4083 4218 
C 3776 4531 3302 4826 2618 4826 
C 1357 4826 346 3910 346 2349 
C 346 768 1331 -90 2618 -90 
z
" transform="scale(0.015625)"/>
     <path id="NotoSansCJKsc-Bold-20" transform="scale(0.015625)"/>
     <path id="NotoSansCJKsc-Bold-2014" d="M 314 1536 
L 5498 1536 
L 5498 2138 
L 314 2138 
L 314 1536 
z
" transform="scale(0.015625)"/>
     <path id="NotoSansCJKsc-Bold-6f" d="M 2003 -90 
C 2899 -90 3725 602 3725 1792 
C 3725 2982 2899 3674 2003 3674 
C 1101 3674 282 2982 282 1792 
C 282 602 1101 -90 2003 -90 
z
M 2003 678 
C 1510 678 1242 1114 1242 1792 
C 1242 2464 1510 2906 2003 2906 
C 2490 2906 2765 2464 2765 1792 
C 2765 1114 2490 678 2003 678 
z
" transform="scale(0.015625)"/>
     <path id="NotoSansCJKsc-Bold-64" d="M 1766 -90 
C 2138 -90 2496 109 2758 371 
L 2784 371 
L 2854 0 
L 3622 0 
L 3622 5107 
L 2682 5107 
L 2682 3846 
L 2714 3283 
C 2458 3520 2208 3674 1805 3674 
C 1037 3674 301 2957 301 1792 
C 301 614 870 -90 1766 -90 
z
M 2010 685 
C 1536 685 1267 1056 1267 1805 
C 1267 2515 1606 2899 2010 2899 
C 2240 2899 2464 2829 2682 2630 
L 2682 1056 
C 2477 787 2259 685 2010 685 
z
" transform="scale(0.015625)"/>
     <path id="NotoSansCJKsc-Bold-65" d="M 2067 -90 
C 2509 -90 2963 64 3315 307 
L 2995 883 
C 2733 723 2483 640 2195 640 
C 1658 640 1274 941 1197 1523 
L 3405 1523 
C 3430 1613 3450 1786 3450 1958 
C 3450 2957 2938 3674 1952 3674 
C 1101 3674 282 2950 282 1792 
C 282 608 1062 -90 2067 -90 
z
M 1178 2157 
C 1254 2675 1587 2944 1965 2944 
C 2432 2944 2643 2637 2643 2157 
L 1178 2157 
z
" transform="scale(0.015625)"/>
     <path id="NotoSansCJKsc-Bold-56" d="M 1414 0 
L 2547 0 
L 3994 4742 
L 3034 4742 
L 2419 2432 
C 2272 1907 2170 1434 2016 902 
L 1984 902 
C 1837 1434 1734 1907 1587 2432 
L 966 4742 
L -32 4742 
L 1414 0 
z
" transform="scale(0.015625)"/>
     <path id="NotoSansCJKsc-Bold-6e" d="M 506 0 
L 1446 0 
L 1446 2464 
C 1709 2726 1901 2867 2189 2867 
C 2541 2867 2694 2675 2694 2118 
L 2694 0 
L 3635 0 
L 3635 2234 
C 3635 3136 3302 3674 2528 3674 
C 2042 3674 1677 3418 1363 3110 
L 1344 3110 
L 1274 3584 
L 506 3584 
L 506 0 
z
" transform="scale(0.015625)"/>
     <path id="NotoSansCJKsc-Bold-74" d="M 1818 -90 
C 2131 -90 2381 -13 2579 45 
L 2419 730 
C 2323 691 2182 653 2067 653 
C 1747 653 1574 845 1574 1254 
L 1574 2842 
L 2464 2842 
L 2464 3584 
L 1574 3584 
L 1574 4550 
L 800 4550 
L 691 3584 
L 134 3539 
L 134 2842 
L 640 2842 
L 640 1248 
C 640 454 966 -90 1818 -90 
z
" transform="scale(0.015625)"/>
     <path id="NotoSansCJKsc-Bold-69" d="M 506 0 
L 1446 0 
L 1446 3584 
L 506 3584 
L 506 0 
z
M 979 4166 
C 1299 4166 1523 4365 1523 4678 
C 1523 4986 1299 5190 979 5190 
C 646 5190 435 4986 435 4678 
C 435 4365 646 4166 979 4166 
z
" transform="scale(0.015625)"/>
     <path id="NotoSansCJKsc-Bold-6d" d="M 506 0 
L 1446 0 
L 1446 2464 
C 1696 2739 1926 2867 2131 2867 
C 2477 2867 2637 2675 2637 2118 
L 2637 0 
L 3571 0 
L 3571 2464 
C 3827 2739 4058 2867 4262 2867 
C 4602 2867 4762 2675 4762 2118 
L 4762 0 
L 5696 0 
L 5696 2234 
C 5696 3136 5350 3674 4589 3674 
C 4128 3674 3776 3392 3443 3046 
C 3277 3443 2976 3674 2464 3674 
C 1997 3674 1664 3418 1363 3104 
L 1344 3104 
L 1274 3584 
L 506 3584 
L 506 0 
z
" transform="scale(0.015625)"/>
     <path id="NotoSansCJKsc-Bold-70" d="M 506 -1376 
L 1446 -1376 
L 1446 -282 
L 1414 301 
C 1683 51 1990 -90 2304 -90 
C 3091 -90 3827 621 3827 1850 
C 3827 2950 3296 3674 2419 3674 
C 2029 3674 1664 3469 1363 3213 
L 1344 3213 
L 1274 3584 
L 506 3584 
L 506 -1376 
z
M 2099 685 
C 1901 685 1677 755 1446 954 
L 1446 2534 
C 1690 2778 1907 2899 2150 2899 
C 2643 2899 2861 2522 2861 1837 
C 2861 1056 2522 685 2099 685 
z
" transform="scale(0.015625)"/>
     <path id="NotoSansCJKsc-Bold-72" d="M 506 0 
L 1446 0 
L 1446 2138 
C 1651 2656 1984 2842 2259 2842 
C 2413 2842 2515 2822 2643 2784 
L 2797 3597 
C 2694 3642 2579 3674 2381 3674 
C 2010 3674 1626 3418 1363 2950 
L 1344 2950 
L 1274 3584 
L 506 3584 
L 506 0 
z
" transform="scale(0.015625)"/>
     <path id="NotoSansCJKsc-Bold-76" d="M 1312 0 
L 2400 0 
L 3597 3584 
L 2694 3584 
L 2170 1798 
C 2074 1446 1978 1075 1882 710 
L 1850 710 
C 1747 1075 1658 1446 1555 1798 
L 1037 3584 
L 90 3584 
L 1312 0 
z
" transform="scale(0.015625)"/>
     <path id="NotoSansCJKsc-Bold-73" d="M 1530 -90 
C 2458 -90 2957 410 2957 1043 
C 2957 1702 2432 1946 1958 2125 
C 1574 2266 1248 2362 1248 2624 
C 1248 2829 1402 2970 1728 2970 
C 1990 2970 2240 2842 2496 2662 
L 2918 3232 
C 2624 3462 2221 3674 1702 3674 
C 883 3674 365 3219 365 2579 
C 365 1978 870 1702 1325 1530 
C 1702 1382 2074 1261 2074 992 
C 2074 768 1914 614 1555 614 
C 1216 614 915 762 595 1005 
L 166 410 
C 525 115 1050 -90 1530 -90 
z
" transform="scale(0.015625)"/>
     <path id="NotoSansCJKsc-Bold-28" d="M 1504 -1293 
L 2086 -1043 
C 1549 -109 1306 966 1306 2016 
C 1306 3066 1549 4147 2086 5082 
L 1504 5331 
C 896 4339 544 3296 544 2016 
C 544 736 896 -307 1504 -1293 
z
" transform="scale(0.015625)"/>
     <path id="NotoSansCJKsc-Bold-54" d="M 1523 0 
L 2470 0 
L 2470 3949 
L 3808 3949 
L 3808 4742 
L 192 4742 
L 192 3949 
L 1523 3949 
L 1523 0 
z
" transform="scale(0.015625)"/>
     <path id="NotoSansCJKsc-Bold-61" d="M 1382 -90 
C 1798 -90 2157 109 2464 384 
L 2496 384 
L 2560 0 
L 3328 0 
L 3328 2093 
C 3328 3130 2861 3674 1952 3674 
C 1389 3674 877 3456 461 3200 
L 794 2573 
C 1126 2771 1446 2918 1779 2918 
C 2221 2918 2374 2650 2387 2298 
C 947 2144 326 1741 326 979 
C 326 365 742 -90 1382 -90 
z
M 1696 646 
C 1421 646 1222 768 1222 1050 
C 1222 1376 1510 1613 2387 1715 
L 2387 998 
C 2163 774 1965 646 1696 646 
z
" transform="scale(0.015625)"/>
     <path id="NotoSansCJKsc-Bold-6c" d="M 1395 -90 
C 1613 -90 1766 -51 1875 -6 
L 1760 691 
C 1696 678 1670 678 1632 678 
C 1542 678 1446 749 1446 966 
L 1446 5107 
L 506 5107 
L 506 1005 
C 506 339 736 -90 1395 -90 
z
" transform="scale(0.015625)"/>
     <path id="NotoSansCJKsc-Bold-29" d="M 915 -1293 
C 1523 -307 1875 736 1875 2016 
C 1875 3296 1523 4339 915 5331 
L 333 5082 
C 870 4147 1114 3066 1114 2016 
C 1114 966 870 -109 333 -1043 
L 915 -1293 
z
" transform="scale(0.015625)"/>
    </defs>
    <use xlink:href="#NotoSansCJKsc-Bold-4d"/>
    <use xlink:href="#NotoSansCJKsc-Bold-4f" transform="translate(85.299988 0)"/>
    <use xlink:href="#NotoSansCJKsc-Bold-44" transform="translate(162.299973 0)"/>
    <use xlink:href="#NotoSansCJKsc-Bold-45" transform="translate(233.699966 0)"/>
    <use xlink:href="#NotoSansCJKsc-Bold-2d" transform="translate(295.199951 0)"/>
    <use xlink:href="#NotoSansCJKsc-Bold-52" transform="translate(332.199936 0)"/>
    <use xlink:href="#NotoSansCJKsc-Bold-41" transform="translate(400.399918 0)"/>
    <use xlink:href="#NotoSansCJKsc-Bold-47" transform="translate(464.499908 0)"/>
    <use xlink:href="#NotoSansCJKsc-Bold-20" transform="translate(536.19989 0)"/>
    <use xlink:href="#NotoSansCJKsc-Bold-2014" transform="translate(558.899887 0)"/>
    <use xlink:href="#NotoSansCJKsc-Bold-20" transform="translate(649.699875 0)"/>
    <use xlink:href="#NotoSansCJKsc-Bold-4d" transform="translate(672.399872 0)"/>
    <use xlink:href="#NotoSansCJKsc-Bold-6f" transform="translate(757.69986 0)"/>
    <use xlink:href="#NotoSansCJKsc-Bold-64" transform="translate(820.29985 0)"/>
    <use xlink:href="#NotoSansCJKsc-Bold-65" transform="translate(884.699844 0)"/>
    <use xlink:href="#NotoSansCJKsc-Bold-56" transform="translate(942.799835 0)"/>
    <use xlink:href="#NotoSansCJKsc-Bold-65" transform="translate(1004.699829 0)"/>
    <use xlink:href="#NotoSansCJKsc-Bold-6e" transform="translate(1062.79982 0)"/>
    <use xlink:href="#NotoSansCJKsc-Bold-74" transform="translate(1126.899811 0)"/>
    <use xlink:href="#NotoSansCJKsc-Bold-20" transform="translate(1168.999802 0)"/>
    <use xlink:href="#NotoSansCJKsc-Bold-69" transform="translate(1191.699799 0)"/>
    <use xlink:href="#NotoSansCJKsc-Bold-6d" transform="translate(1222.099792 0)"/>
    <use xlink:href="#NotoSansCJKsc-Bold-70" transform="translate(1318.499786 0)"/>
    <use xlink:href="#NotoSansCJKsc-Bold-72" transform="translate(1382.89978 0)"/>
    <use xlink:href="#NotoSansCJKsc-Bold-6f" transform="translate(1426.499771 0)"/>
    <use xlink:href="#NotoSansCJKsc-Bold-76" transform="translate(1489.099762 0)"/>
    <use xlink:href="#NotoSansCJKsc-Bold-65" transform="translate(1546.699753 0)"/>
    <use xlink:href="#NotoSansCJKsc-Bold-6d" transform="translate(1604.799744 0)"/>
    <use xlink:href="#NotoSansCJKsc-Bold-65" transform="translate(1701.199738 0)"/>
    <use xlink:href="#NotoSansCJKsc-Bold-6e" transform="translate(1759.299728 0)"/>
    <use xlink:href="#NotoSansCJKsc-Bold-74" transform="translate(1823.399719 0)"/>
    <use xlink:href="#NotoSansCJKsc-Bold-73" transform="translate(1865.49971 0)"/>
    <use xlink:href="#NotoSansCJKsc-Bold-20" transform="translate(1914.999695 0)"/>
    <use xlink:href="#NotoSansCJKsc-Bold-28" transform="translate(1937.699692 0)"/>
    <use xlink:href="#NotoSansCJKsc-Bold-54" transform="translate(1975.49968 0)"/>
    <use xlink:href="#NotoSansCJKsc-Bold-6f" transform="translate(2037.999664 0)"/>
    <use xlink:href="#NotoSansCJKsc-Bold-74" transform="translate(2100.599655 0)"/>
    <use xlink:href="#NotoSansCJKsc-Bold-61" transform="translate(2142.699646 0)"/>
    <use xlink:href="#NotoSansCJKsc-Bold-6c" transform="translate(2201.799637 0)"/>
    <use xlink:href="#NotoSansCJKsc-Bold-29" transform="translate(2233.299622 0)"/>
   </g>
  </g>
 </g>
 <defs>
  <clipPath id="p330b69f6b6">
   <rect x="40.466" y="76.05825" width="738.79" height="198.49775"/>
  </clipPath>
 </defs>
</svg>
