<?xml version="1.0" encoding="utf-8" standalone="no"?>
<!DOCTYPE svg PUBLIC "-//W3C//DTD SVG 1.1//EN"
  "http://www.w3.org/Graphics/SVG/1.1/DTD/svg11.dtd">
<svg xmlns:xlink="http://www.w3.org/1999/xlink" width="787.896pt" height="315.813312pt" viewBox="0 0 787.896 315.813312" xmlns="http://www.w3.org/2000/svg" version="1.1">
 <metadata>
  <rdf:RDF xmlns:dc="http://purl.org/dc/elements/1.1/" xmlns:cc="http://creativecommons.org/ns#" xmlns:rdf="http://www.w3.org/1999/02/22-rdf-syntax-ns#">
   <cc:Work>
    <dc:type rdf:resource="http://purl.org/dc/dcmitype/StillImage"/>
    <dc:date>2026-06-25T19:42:37.580189</dc:date>
    <dc:format>image/svg+xml</dc:format>
    <dc:creator>
     <cc:Agent>
      <dc:title>Matplotlib v3.10.5, https://matplotlib.org/</dc:title>
     </cc:Agent>
    </dc:creator>
   </cc:Work>
  </rdf:RDF>
 </metadata>
 <defs>
  <style type="text/css">*{stroke-linejoin: round; stroke-linecap: butt}</style>
 </defs>
 <g id="figure_1">
  <g id="patch_1">
   <path d="M 0 315.813312 
L 787.896 315.813312 
L 787.896 0 
L 0 0 
z
" style="fill: #ffffff"/>
  </g>
  <g id="axes_1">
   <g id="patch_2">
    <path d="M 46.496 288.668 
L 389.196 288.668 
L 389.196 75.372 
L 46.496 75.372 
z
" style="fill: #ffffff"/>
   </g>
   <g id="matplotlib.axis_1">
    <g id="xtick_1">
     <g id="line2d_1">
      <defs>
       <path id="m341e1d6334" d="M 0 0 
L 0 3.5 
" style="stroke: #475569; stroke-width: 0.8"/>
      </defs>
      <g>
       <use xlink:href="#m341e1d6334" x="119.255666" y="288.668" style="fill: #475569; stroke: #475569; stroke-width: 0.8"/>
      </g>
     </g>
     <g id="text_1">
      <!-- VideoProgress@50% -->
      <g style="fill: #475569" transform="translate(66.038869 304.423312) scale(0.11 -0.11)">
       <defs>
        <path id="NotoSansCJKsc-Regular-56" d="M 1504 0 
L 2189 0 
L 3680 4691 
L 3078 4691 
L 2323 2150 
C 2163 1600 2048 1152 1869 602 
L 1843 602 
C 1670 1152 1549 1600 1389 2150 
L 627 4691 
L 6 4691 
L 1504 0 
z
" transform="scale(0.015625)"/>
        <path id="NotoSansCJKsc-Regular-69" d="M 589 0 
L 1178 0 
L 1178 3475 
L 589 3475 
L 589 0 
z
M 883 4192 
C 1114 4192 1274 4346 1274 4582 
C 1274 4806 1114 4960 883 4960 
C 653 4960 499 4806 499 4582 
C 499 4346 653 4192 883 4192 
z
" transform="scale(0.015625)"/>
        <path id="NotoSansCJKsc-Regular-64" d="M 1773 -83 
C 2189 -83 2560 141 2829 410 
L 2848 410 
L 2899 0 
L 3379 0 
L 3379 5094 
L 2790 5094 
L 2790 3757 
L 2822 3162 
C 2515 3411 2253 3565 1843 3565 
C 1050 3565 339 2861 339 1734 
C 339 576 902 -83 1773 -83 
z
M 1901 410 
C 1293 410 941 902 941 1741 
C 941 2534 1389 3072 1946 3072 
C 2234 3072 2502 2970 2790 2707 
L 2790 883 
C 2502 563 2221 410 1901 410 
z
" transform="scale(0.015625)"/>
        <path id="NotoSansCJKsc-Regular-65" d="M 1997 -83 
C 2464 -83 2835 70 3136 269 
L 2931 659 
C 2669 486 2400 384 2061 384 
C 1402 384 947 858 909 1600 
L 3251 1600 
C 3264 1690 3277 1805 3277 1933 
C 3277 2925 2778 3565 1888 3565 
C 1094 3565 333 2867 333 1734 
C 333 589 1069 -83 1997 -83 
z
M 902 2016 
C 973 2707 1408 3098 1901 3098 
C 2445 3098 2765 2720 2765 2016 
L 902 2016 
z
" transform="scale(0.015625)"/>
        <path id="NotoSansCJKsc-Regular-6f" d="M 1939 -83 
C 2790 -83 3546 582 3546 1734 
C 3546 2893 2790 3565 1939 3565 
C 1088 3565 333 2893 333 1734 
C 333 582 1088 -83 1939 -83 
z
M 1939 403 
C 1338 403 934 934 934 1734 
C 934 2534 1338 3072 1939 3072 
C 2541 3072 2950 2534 2950 1734 
C 2950 934 2541 403 1939 403 
z
" transform="scale(0.015625)"/>
        <path id="NotoSansCJKsc-Regular-50" d="M 646 0 
L 1235 0 
L 1235 1869 
L 2010 1869 
C 3040 1869 3738 2323 3738 3315 
C 3738 4339 3034 4691 1984 4691 
L 646 4691 
L 646 0 
z
M 1235 2349 
L 1235 4211 
L 1907 4211 
C 2733 4211 3149 4000 3149 3315 
C 3149 2643 2758 2349 1933 2349 
L 1235 2349 
z
" transform="scale(0.015625)"/>
        <path id="NotoSansCJKsc-Regular-72" d="M 589 0 
L 1178 0 
L 1178 2234 
C 1408 2822 1760 3040 2048 3040 
C 2195 3040 2272 3021 2387 2982 
L 2496 3488 
C 2387 3546 2278 3565 2125 3565 
C 1741 3565 1382 3283 1139 2842 
L 1126 2842 
L 1069 3475 
L 589 3475 
L 589 0 
z
" transform="scale(0.015625)"/>
        <path id="NotoSansCJKsc-Regular-67" d="M 1760 -1600 
C 2835 -1600 3520 -1043 3520 -397 
C 3520 179 3110 429 2310 429 
L 1626 429 
C 1158 429 1018 589 1018 806 
C 1018 998 1114 1114 1242 1222 
C 1395 1146 1587 1101 1754 1101 
C 2470 1101 3027 1568 3027 2310 
C 3027 2611 2912 2867 2746 3027 
L 3456 3027 
L 3456 3475 
L 2246 3475 
C 2125 3526 1952 3565 1754 3565 
C 1056 3565 454 3085 454 2323 
C 454 1907 678 1568 909 1389 
L 909 1363 
C 723 1235 525 1005 525 717 
C 525 442 659 256 838 147 
L 838 115 
C 512 -83 326 -371 326 -672 
C 326 -1267 915 -1600 1760 -1600 
z
M 1754 1498 
C 1357 1498 1018 1818 1018 2323 
C 1018 2835 1350 3136 1754 3136 
C 2170 3136 2496 2835 2496 2323 
C 2496 1818 2157 1498 1754 1498 
z
M 1843 -1197 
C 1210 -1197 838 -960 838 -589 
C 838 -390 941 -179 1190 0 
C 1344 -38 1510 -51 1638 -51 
L 2240 -51 
C 2701 -51 2944 -166 2944 -493 
C 2944 -851 2515 -1197 1843 -1197 
z
" transform="scale(0.015625)"/>
        <path id="NotoSansCJKsc-Regular-73" d="M 1498 -83 
C 2317 -83 2758 384 2758 947 
C 2758 1606 2208 1811 1702 2003 
C 1312 2150 954 2278 954 2605 
C 954 2880 1158 3110 1600 3110 
C 1907 3110 2150 2976 2387 2803 
L 2669 3168 
C 2406 3386 2022 3565 1594 3565 
C 832 3565 397 3130 397 2579 
C 397 1984 922 1754 1408 1574 
C 1792 1434 2202 1267 2202 915 
C 2202 614 1978 371 1517 371 
C 1101 371 794 538 486 787 
L 205 397 
C 531 122 1005 -83 1498 -83 
z
" transform="scale(0.015625)"/>
        <path id="NotoSansCJKsc-Regular-40" d="M 2874 -1107 
C 3373 -1107 3821 -992 4237 -742 
L 4077 -397 
C 3763 -582 3360 -717 2918 -717 
C 1702 -717 787 77 787 1472 
C 787 3142 2022 4230 3296 4230 
C 4595 4230 5280 3386 5280 2227 
C 5280 1306 4768 749 4314 749 
C 3923 749 3782 1024 3923 1594 
L 4205 3021 
L 3821 3021 
L 3738 2726 
L 3725 2726 
C 3590 2963 3398 3078 3155 3078 
C 2317 3078 1773 2176 1773 1421 
C 1773 768 2150 403 2637 403 
C 2957 403 3277 621 3507 896 
L 3526 896 
C 3571 531 3872 352 4262 352 
C 4909 352 5690 1005 5690 2253 
C 5690 3661 4781 4621 3347 4621 
C 1747 4621 358 3366 358 1453 
C 358 -218 1478 -1107 2874 -1107 
z
M 2752 806 
C 2464 806 2246 992 2246 1453 
C 2246 1997 2598 2669 3155 2669 
C 3354 2669 3482 2592 3616 2368 
L 3418 1235 
C 3168 934 2950 806 2752 806 
z
" transform="scale(0.015625)"/>
        <path id="NotoSansCJKsc-Regular-35" d="M 1677 -83 
C 2464 -83 3213 499 3213 1523 
C 3213 2560 2573 3021 1798 3021 
C 1517 3021 1306 2950 1094 2835 
L 1216 4192 
L 2982 4192 
L 2982 4691 
L 704 4691 
L 550 2502 
L 864 2304 
C 1133 2483 1331 2579 1645 2579 
C 2234 2579 2618 2182 2618 1510 
C 2618 826 2176 403 1619 403 
C 1075 403 730 653 467 922 
L 173 538 
C 493 224 941 -83 1677 -83 
z
" transform="scale(0.015625)"/>
        <path id="NotoSansCJKsc-Regular-30" d="M 1779 -83 
C 2669 -83 3238 723 3238 2362 
C 3238 3987 2669 4774 1779 4774 
C 883 4774 320 3987 320 2362 
C 320 723 883 -83 1779 -83 
z
M 1779 390 
C 1248 390 883 986 883 2362 
C 883 3731 1248 4314 1779 4314 
C 2310 4314 2675 3731 2675 2362 
C 2675 986 2310 390 1779 390 
z
" transform="scale(0.015625)"/>
        <path id="NotoSansCJKsc-Regular-25" d="M 1312 1818 
C 1958 1818 2381 2362 2381 3309 
C 2381 4243 1958 4774 1312 4774 
C 672 4774 250 4243 250 3309 
C 250 2362 672 1818 1312 1818 
z
M 1312 2176 
C 941 2176 691 2560 691 3309 
C 691 4058 941 4416 1312 4416 
C 1683 4416 1933 4058 1933 3309 
C 1933 2560 1683 2176 1312 2176 
z
M 1446 -83 
L 1843 -83 
L 4435 4774 
L 4038 4774 
L 1446 -83 
z
M 4582 -83 
C 5222 -83 5645 454 5645 1402 
C 5645 2342 5222 2874 4582 2874 
C 3942 2874 3520 2342 3520 1402 
C 3520 454 3942 -83 4582 -83 
z
M 4582 275 
C 4211 275 3955 653 3955 1402 
C 3955 2150 4211 2515 4582 2515 
C 4947 2515 5210 2150 5210 1402 
C 5210 653 4947 275 4582 275 
z
" transform="scale(0.015625)"/>
       </defs>
       <use xlink:href="#NotoSansCJKsc-Regular-56"/>
       <use xlink:href="#NotoSansCJKsc-Regular-69" transform="translate(57.499985 0)"/>
       <use xlink:href="#NotoSansCJKsc-Regular-64" transform="translate(84.999969 0)"/>
       <use xlink:href="#NotoSansCJKsc-Regular-65" transform="translate(146.999954 0)"/>
       <use xlink:href="#NotoSansCJKsc-Regular-6f" transform="translate(202.399948 0)"/>
       <use xlink:href="#NotoSansCJKsc-Regular-50" transform="translate(262.999939 0)"/>
       <use xlink:href="#NotoSansCJKsc-Regular-72" transform="translate(326.299927 0)"/>
       <use xlink:href="#NotoSansCJKsc-Regular-6f" transform="translate(365.099915 0)"/>
       <use xlink:href="#NotoSansCJKsc-Regular-67" transform="translate(425.699905 0)"/>
       <use xlink:href="#NotoSansCJKsc-Regular-72" transform="translate(482.099899 0)"/>
       <use xlink:href="#NotoSansCJKsc-Regular-65" transform="translate(520.899887 0)"/>
       <use xlink:href="#NotoSansCJKsc-Regular-73" transform="translate(576.299881 0)"/>
       <use xlink:href="#NotoSansCJKsc-Regular-73" transform="translate(623.099869 0)"/>
       <use xlink:href="#NotoSansCJKsc-Regular-40" transform="translate(669.899857 0)"/>
       <use xlink:href="#NotoSansCJKsc-Regular-35" transform="translate(764.499847 0)"/>
       <use xlink:href="#NotoSansCJKsc-Regular-30" transform="translate(819.999832 0)"/>
       <use xlink:href="#NotoSansCJKsc-Regular-25" transform="translate(875.499817 0)"/>
      </g>
     </g>
    </g>
    <g id="xtick_2">
     <g id="line2d_2">
      <g>
       <use xlink:href="#m341e1d6334" x="316.436334" y="288.668" style="fill: #475569; stroke: #475569; stroke-width: 0.8"/>
      </g>
     </g>
     <g id="text_2">
      <!-- Start→25% conv -->
      <g style="fill: #475569" transform="translate(273.520865 304.423312) scale(0.11 -0.11)">
       <defs>
        <path id="NotoSansCJKsc-Regular-53" d="M 1946 -83 
C 2925 -83 3539 506 3539 1248 
C 3539 1946 3117 2266 2573 2502 
L 1907 2790 
C 1542 2944 1126 3117 1126 3578 
C 1126 3994 1472 4256 2003 4256 
C 2438 4256 2784 4090 3072 3821 
L 3379 4198 
C 3053 4538 2560 4774 2003 4774 
C 1152 4774 525 4256 525 3533 
C 525 2848 1043 2515 1478 2330 
L 2150 2035 
C 2598 1837 2938 1683 2938 1197 
C 2938 742 2573 435 1952 435 
C 1466 435 992 666 659 1018 
L 307 608 
C 710 186 1280 -83 1946 -83 
z
" transform="scale(0.015625)"/>
        <path id="NotoSansCJKsc-Regular-74" d="M 1677 -83 
C 1894 -83 2125 -19 2323 45 
L 2208 486 
C 2093 435 1939 390 1811 390 
C 1408 390 1274 634 1274 1056 
L 1274 3002 
L 2221 3002 
L 2221 3475 
L 1274 3475 
L 1274 4454 
L 787 4454 
L 723 3475 
L 173 3443 
L 173 3002 
L 691 3002 
L 691 1075 
C 691 378 941 -83 1677 -83 
z
" transform="scale(0.015625)"/>
        <path id="NotoSansCJKsc-Regular-61" d="M 1389 -83 
C 1818 -83 2208 141 2541 416 
L 2560 416 
L 2611 0 
L 3091 0 
L 3091 2138 
C 3091 3002 2739 3565 1888 3565 
C 1325 3565 838 3315 525 3110 
L 749 2707 
C 1024 2893 1389 3078 1792 3078 
C 2362 3078 2509 2650 2509 2202 
C 1030 2035 378 1658 378 902 
C 378 275 806 -83 1389 -83 
z
M 1555 390 
C 1210 390 941 544 941 941 
C 941 1389 1338 1677 2509 1811 
L 2509 845 
C 2170 544 1888 390 1555 390 
z
" transform="scale(0.015625)"/>
        <path id="NotoSansCJKsc-Regular-2192" d="M 5190 2650 
L 256 2650 
L 256 2214 
L 5190 2214 
C 4864 1965 4442 1562 4154 1165 
L 4538 941 
C 4966 1504 5606 2067 6176 2432 
C 5606 2797 4966 3360 4538 3923 
L 4154 3699 
C 4442 3302 4864 2899 5190 2650 
z
" transform="scale(0.015625)"/>
        <path id="NotoSansCJKsc-Regular-32" d="M 282 0 
L 3232 0 
L 3232 506 
L 1933 506 
C 1696 506 1408 480 1165 461 
C 2266 1504 3008 2458 3008 3398 
C 3008 4230 2477 4774 1638 4774 
C 1043 4774 634 4506 256 4090 
L 595 3757 
C 858 4070 1184 4301 1568 4301 
C 2150 4301 2432 3910 2432 3373 
C 2432 2566 1754 1632 282 346 
L 282 0 
z
" transform="scale(0.015625)"/>
        <path id="NotoSansCJKsc-Regular-20" transform="scale(0.015625)"/>
        <path id="NotoSansCJKsc-Regular-63" d="M 1958 -83 
C 2374 -83 2771 83 3085 352 
L 2829 749 
C 2611 557 2330 403 2010 403 
C 1370 403 934 934 934 1734 
C 934 2534 1395 3072 2029 3072 
C 2298 3072 2522 2950 2720 2771 
L 3014 3155 
C 2771 3373 2458 3565 2003 3565 
C 1107 3565 333 2893 333 1734 
C 333 582 1037 -83 1958 -83 
z
" transform="scale(0.015625)"/>
        <path id="NotoSansCJKsc-Regular-6e" d="M 589 0 
L 1178 0 
L 1178 2522 
C 1523 2874 1766 3053 2125 3053 
C 2586 3053 2784 2778 2784 2125 
L 2784 0 
L 3366 0 
L 3366 2202 
C 3366 3085 3034 3565 2304 3565 
C 1830 3565 1466 3302 1139 2970 
L 1126 2970 
L 1069 3475 
L 589 3475 
L 589 0 
z
" transform="scale(0.015625)"/>
        <path id="NotoSansCJKsc-Regular-76" d="M 1338 0 
L 2022 0 
L 3251 3475 
L 2675 3475 
L 2016 1498 
C 1914 1158 1798 806 1696 474 
L 1664 474 
C 1562 806 1453 1158 1344 1498 
L 691 3475 
L 83 3475 
L 1338 0 
z
" transform="scale(0.015625)"/>
       </defs>
       <use xlink:href="#NotoSansCJKsc-Regular-53"/>
       <use xlink:href="#NotoSansCJKsc-Regular-74" transform="translate(59.599991 0)"/>
       <use xlink:href="#NotoSansCJKsc-Regular-61" transform="translate(97.299988 0)"/>
       <use xlink:href="#NotoSansCJKsc-Regular-72" transform="translate(153.599976 0)"/>
       <use xlink:href="#NotoSansCJKsc-Regular-74" transform="translate(192.399963 0)"/>
       <use xlink:href="#NotoSansCJKsc-Regular-2192" transform="translate(230.09996 0)"/>
       <use xlink:href="#NotoSansCJKsc-Regular-32" transform="translate(330.099945 0)"/>
       <use xlink:href="#NotoSansCJKsc-Regular-35" transform="translate(385.59993 0)"/>
       <use xlink:href="#NotoSansCJKsc-Regular-25" transform="translate(441.099915 0)"/>
       <use xlink:href="#NotoSansCJKsc-Regular-20" transform="translate(533.199905 0)"/>
       <use xlink:href="#NotoSansCJKsc-Regular-63" transform="translate(555.599899 0)"/>
       <use xlink:href="#NotoSansCJKsc-Regular-6f" transform="translate(606.599884 0)"/>
       <use xlink:href="#NotoSansCJKsc-Regular-6e" transform="translate(667.199875 0)"/>
       <use xlink:href="#NotoSansCJKsc-Regular-76" transform="translate(728.19986 0)"/>
      </g>
     </g>
    </g>
   </g>
   <g id="matplotlib.axis_2">
    <g id="ytick_1">
     <g id="line2d_3">
      <path d="M 46.496 288.668 
L 389.196 288.668 
" clip-path="url(#p94a15456a9)" style="fill: none; stroke: #e5e7eb; stroke-width: 0.8; stroke-linecap: square"/>
     </g>
     <g id="line2d_4">
      <defs>
       <path id="m9453cc1a05" d="M 0 0 
L -3.5 0 
" style="stroke: #475569; stroke-width: 0.8"/>
      </defs>
      <g>
       <use xlink:href="#m9453cc1a05" x="46.496" y="288.668" style="fill: #475569; stroke: #475569; stroke-width: 0.8"/>
      </g>
     </g>
     <g id="text_3">
      <!-- 0 -->
      <g style="fill: #475569" transform="translate(33.391 293.045656) scale(0.11 -0.11)">
       <use xlink:href="#NotoSansCJKsc-Regular-30"/>
      </g>
     </g>
    </g>
    <g id="ytick_2">
     <g id="line2d_5">
      <path d="M 46.496 253.118667 
L 389.196 253.118667 
" clip-path="url(#p94a15456a9)" style="fill: none; stroke: #e5e7eb; stroke-width: 0.8; stroke-linecap: square"/>
     </g>
     <g id="line2d_6">
      <g>
       <use xlink:href="#m9453cc1a05" x="46.496" y="253.118667" style="fill: #475569; stroke: #475569; stroke-width: 0.8"/>
      </g>
     </g>
     <g id="text_4">
      <!-- 10 -->
      <g style="fill: #475569" transform="translate(27.286 257.496323) scale(0.11 -0.11)">
       <defs>
        <path id="NotoSansCJKsc-Regular-31" d="M 563 0 
L 3136 0 
L 3136 486 
L 2195 486 
L 2195 4691 
L 1747 4691 
C 1491 4544 1190 4435 774 4358 
L 774 3987 
L 1613 3987 
L 1613 486 
L 563 486 
L 563 0 
z
" transform="scale(0.015625)"/>
       </defs>
       <use xlink:href="#NotoSansCJKsc-Regular-31"/>
       <use xlink:href="#NotoSansCJKsc-Regular-30" transform="translate(55.499985 0)"/>
      </g>
     </g>
    </g>
    <g id="ytick_3">
     <g id="line2d_7">
      <path d="M 46.496 217.569333 
L 389.196 217.569333 
" clip-path="url(#p94a15456a9)" style="fill: none; stroke: #e5e7eb; stroke-width: 0.8; stroke-linecap: square"/>
     </g>
     <g id="line2d_8">
      <g>
       <use xlink:href="#m9453cc1a05" x="46.496" y="217.569333" style="fill: #475569; stroke: #475569; stroke-width: 0.8"/>
      </g>
     </g>
     <g id="text_5">
      <!-- 20 -->
      <g style="fill: #475569" transform="translate(27.286 221.94699) scale(0.11 -0.11)">
       <use xlink:href="#NotoSansCJKsc-Regular-32"/>
       <use xlink:href="#NotoSansCJKsc-Regular-30" transform="translate(55.499985 0)"/>
      </g>
     </g>
    </g>
    <g id="ytick_4">
     <g id="line2d_9">
      <path d="M 46.496 182.02 
L 389.196 182.02 
" clip-path="url(#p94a15456a9)" style="fill: none; stroke: #e5e7eb; stroke-width: 0.8; stroke-linecap: square"/>
     </g>
     <g id="line2d_10">
      <g>
       <use xlink:href="#m9453cc1a05" x="46.496" y="182.02" style="fill: #475569; stroke: #475569; stroke-width: 0.8"/>
      </g>
     </g>
     <g id="text_6">
      <!-- 30 -->
      <g style="fill: #475569" transform="translate(27.286 186.397656) scale(0.11 -0.11)">
       <defs>
        <path id="NotoSansCJKsc-Regular-33" d="M 1683 -83 
C 2522 -83 3194 416 3194 1254 
C 3194 1901 2752 2310 2202 2445 
L 2202 2477 
C 2701 2650 3034 3034 3034 3603 
C 3034 4346 2458 4774 1664 4774 
C 1126 4774 710 4538 358 4218 
L 672 3846 
C 941 4115 1267 4301 1645 4301 
C 2138 4301 2438 4006 2438 3558 
C 2438 3053 2112 2662 1139 2662 
L 1139 2214 
C 2227 2214 2598 1843 2598 1274 
C 2598 736 2208 403 1645 403 
C 1114 403 762 659 486 941 
L 186 563 
C 493 224 954 -83 1683 -83 
z
" transform="scale(0.015625)"/>
       </defs>
       <use xlink:href="#NotoSansCJKsc-Regular-33"/>
       <use xlink:href="#NotoSansCJKsc-Regular-30" transform="translate(55.499985 0)"/>
      </g>
     </g>
    </g>
    <g id="ytick_5">
     <g id="line2d_11">
      <path d="M 46.496 146.470667 
L 389.196 146.470667 
" clip-path="url(#p94a15456a9)" style="fill: none; stroke: #e5e7eb; stroke-width: 0.8; stroke-linecap: square"/>
     </g>
     <g id="line2d_12">
      <g>
       <use xlink:href="#m9453cc1a05" x="46.496" y="146.470667" style="fill: #475569; stroke: #475569; stroke-width: 0.8"/>
      </g>
     </g>
     <g id="text_7">
      <!-- 40 -->
      <g style="fill: #475569" transform="translate(27.286 150.848323) scale(0.11 -0.11)">
       <defs>
        <path id="NotoSansCJKsc-Regular-34" d="M 2176 0 
L 2726 0 
L 2726 1293 
L 3354 1293 
L 3354 1760 
L 2726 1760 
L 2726 4691 
L 2080 4691 
L 128 1677 
L 128 1293 
L 2176 1293 
L 2176 0 
z
M 2176 1760 
L 736 1760 
L 1805 3360 
C 1939 3590 2067 3827 2182 4051 
L 2208 4051 
C 2195 3814 2176 3430 2176 3200 
L 2176 1760 
z
" transform="scale(0.015625)"/>
       </defs>
       <use xlink:href="#NotoSansCJKsc-Regular-34"/>
       <use xlink:href="#NotoSansCJKsc-Regular-30" transform="translate(55.499985 0)"/>
      </g>
     </g>
    </g>
    <g id="ytick_6">
     <g id="line2d_13">
      <path d="M 46.496 110.921333 
L 389.196 110.921333 
" clip-path="url(#p94a15456a9)" style="fill: none; stroke: #e5e7eb; stroke-width: 0.8; stroke-linecap: square"/>
     </g>
     <g id="line2d_14">
      <g>
       <use xlink:href="#m9453cc1a05" x="46.496" y="110.921333" style="fill: #475569; stroke: #475569; stroke-width: 0.8"/>
      </g>
     </g>
     <g id="text_8">
      <!-- 50 -->
      <g style="fill: #475569" transform="translate(27.286 115.29899) scale(0.11 -0.11)">
       <use xlink:href="#NotoSansCJKsc-Regular-35"/>
       <use xlink:href="#NotoSansCJKsc-Regular-30" transform="translate(55.499985 0)"/>
      </g>
     </g>
    </g>
    <g id="ytick_7">
     <g id="line2d_15">
      <path d="M 46.496 75.372 
L 389.196 75.372 
" clip-path="url(#p94a15456a9)" style="fill: none; stroke: #e5e7eb; stroke-width: 0.8; stroke-linecap: square"/>
     </g>
     <g id="line2d_16">
      <g>
       <use xlink:href="#m9453cc1a05" x="46.496" y="75.372" style="fill: #475569; stroke: #475569; stroke-width: 0.8"/>
      </g>
     </g>
     <g id="text_9">
      <!-- 60 -->
      <g style="fill: #475569" transform="translate(27.286 79.749656) scale(0.11 -0.11)">
       <defs>
        <path id="NotoSansCJKsc-Regular-36" d="M 1926 -83 
C 2656 -83 3277 531 3277 1440 
C 3277 2426 2765 2912 1971 2912 
C 1606 2912 1197 2701 909 2349 
C 934 3802 1466 4294 2118 4294 
C 2400 4294 2682 4154 2861 3936 
L 3194 4294 
C 2931 4576 2579 4774 2093 4774 
C 1184 4774 358 4077 358 2240 
C 358 691 1030 -83 1926 -83 
z
M 922 1882 
C 1229 2317 1587 2477 1875 2477 
C 2445 2477 2720 2074 2720 1440 
C 2720 800 2374 378 1926 378 
C 1338 378 986 909 922 1882 
z
" transform="scale(0.015625)"/>
       </defs>
       <use xlink:href="#NotoSansCJKsc-Regular-36"/>
       <use xlink:href="#NotoSansCJKsc-Regular-30" transform="translate(55.499985 0)"/>
      </g>
     </g>
    </g>
    <g id="text_10">
     <!-- Relative lift -->
     <g style="fill: #0f172a" transform="translate(20.766313 210.885547) rotate(-90) scale(0.11 -0.11)">
      <defs>
       <path id="NotoSansCJKsc-Regular-52" d="M 1235 2464 
L 1235 4211 
L 2022 4211 
C 2758 4211 3162 3994 3162 3379 
C 3162 2765 2758 2464 2022 2464 
L 1235 2464 
z
M 3219 0 
L 3885 0 
L 2694 2054 
C 3328 2208 3750 2643 3750 3379 
C 3750 4352 3066 4691 2112 4691 
L 646 4691 
L 646 0 
L 1235 0 
L 1235 1990 
L 2080 1990 
L 3219 0 
z
" transform="scale(0.015625)"/>
       <path id="NotoSansCJKsc-Regular-6c" d="M 1203 -83 
C 1363 -83 1459 -58 1542 -32 
L 1459 416 
C 1395 403 1370 403 1338 403 
C 1248 403 1178 474 1178 653 
L 1178 5094 
L 589 5094 
L 589 691 
C 589 198 768 -83 1203 -83 
z
" transform="scale(0.015625)"/>
       <path id="NotoSansCJKsc-Regular-66" d="M 211 3002 
L 685 3002 
L 685 0 
L 1267 0 
L 1267 3002 
L 2003 3002 
L 2003 3475 
L 1267 3475 
L 1267 4026 
C 1267 4474 1427 4710 1760 4710 
C 1882 4710 2022 4678 2150 4614 
L 2278 5069 
C 2118 5133 1914 5178 1696 5178 
C 1005 5178 685 4736 685 4032 
L 685 3475 
L 211 3443 
L 211 3002 
z
" transform="scale(0.015625)"/>
      </defs>
      <use xlink:href="#NotoSansCJKsc-Regular-52"/>
      <use xlink:href="#NotoSansCJKsc-Regular-65" transform="translate(63.499985 0)"/>
      <use xlink:href="#NotoSansCJKsc-Regular-6c" transform="translate(118.899979 0)"/>
      <use xlink:href="#NotoSansCJKsc-Regular-61" transform="translate(147.299973 0)"/>
      <use xlink:href="#NotoSansCJKsc-Regular-74" transform="translate(203.59996 0)"/>
      <use xlink:href="#NotoSansCJKsc-Regular-69" transform="translate(241.299957 0)"/>
      <use xlink:href="#NotoSansCJKsc-Regular-76" transform="translate(268.799942 0)"/>
      <use xlink:href="#NotoSansCJKsc-Regular-65" transform="translate(320.899933 0)"/>
      <use xlink:href="#NotoSansCJKsc-Regular-20" transform="translate(376.299927 0)"/>
      <use xlink:href="#NotoSansCJKsc-Regular-6c" transform="translate(398.699921 0)"/>
      <use xlink:href="#NotoSansCJKsc-Regular-69" transform="translate(427.099915 0)"/>
      <use xlink:href="#NotoSansCJKsc-Regular-66" transform="translate(454.599899 0)"/>
      <use xlink:href="#NotoSansCJKsc-Regular-74" transform="translate(487.099884 0)"/>
     </g>
    </g>
   </g>
   <g id="patch_3">
    <path d="M 46.496 288.668 
L 46.496 75.372 
" style="fill: none; stroke: #94a3b8; stroke-width: 0.8; stroke-linejoin: miter; stroke-linecap: square"/>
   </g>
   <g id="patch_4">
    <path d="M 46.496 288.668 
L 389.196 288.668 
" style="fill: none; stroke: #94a3b8; stroke-width: 0.8; stroke-linejoin: miter; stroke-linecap: square"/>
   </g>
   <g id="patch_5">
    <path d="M 62.073273 288.668 
L 176.43806 288.668 
L 176.43806 110.56584 
L 62.073273 110.56584 
z
" clip-path="url(#p94a15456a9)" style="fill: #2563eb"/>
   </g>
   <g id="patch_6">
    <path d="M 259.25394 288.668 
L 373.618727 288.668 
L 373.618727 180.882421 
L 259.25394 180.882421 
z
" clip-path="url(#p94a15456a9)" style="fill: #10b981"/>
   </g>
   <g id="text_11">
    <!-- 50.10% -->
    <g style="fill: #0f172a" transform="translate(102.292612 108.56634) scale(0.093 -0.093)">
     <defs>
      <path id="NotoSansCJKsc-Bold-35" d="M 1773 -90 
C 2637 -90 3424 518 3424 1574 
C 3424 2605 2765 3072 1965 3072 
C 1747 3072 1581 3034 1395 2944 
L 1485 3949 
L 3206 3949 
L 3206 4742 
L 672 4742 
L 544 2438 
L 973 2163 
C 1254 2342 1408 2406 1683 2406 
C 2157 2406 2483 2099 2483 1549 
C 2483 992 2138 678 1645 678 
C 1210 678 870 896 602 1158 
L 166 557 
C 525 205 1018 -90 1773 -90 
z
" transform="scale(0.015625)"/>
      <path id="NotoSansCJKsc-Bold-30" d="M 1888 -90 
C 2854 -90 3494 755 3494 2394 
C 3494 4019 2854 4826 1888 4826 
C 922 4826 282 4026 282 2394 
C 282 755 922 -90 1888 -90 
z
M 1888 646 
C 1478 646 1171 1056 1171 2394 
C 1171 3712 1478 4102 1888 4102 
C 2298 4102 2598 3712 2598 2394 
C 2598 1056 2298 646 1888 646 
z
" transform="scale(0.015625)"/>
      <path id="NotoSansCJKsc-Bold-2e" d="M 1043 -90 
C 1376 -90 1626 179 1626 525 
C 1626 877 1376 1139 1043 1139 
C 704 1139 454 877 454 525 
C 454 179 704 -90 1043 -90 
z
" transform="scale(0.015625)"/>
      <path id="NotoSansCJKsc-Bold-31" d="M 525 0 
L 3373 0 
L 3373 768 
L 2483 768 
L 2483 4742 
L 1786 4742 
C 1485 4550 1165 4429 685 4346 
L 685 3757 
L 1549 3757 
L 1549 768 
L 525 768 
L 525 0 
z
" transform="scale(0.015625)"/>
      <path id="NotoSansCJKsc-Bold-25" d="M 1357 1824 
C 2035 1824 2515 2381 2515 3334 
C 2515 4282 2035 4826 1357 4826 
C 678 4826 205 4282 205 3334 
C 205 2381 678 1824 1357 1824 
z
M 1357 2355 
C 1082 2355 864 2637 864 3334 
C 864 4026 1082 4294 1357 4294 
C 1632 4294 1850 4026 1850 3334 
C 1850 2637 1632 2355 1357 2355 
z
M 1510 -90 
L 2074 -90 
L 4646 4826 
L 4090 4826 
L 1510 -90 
z
M 4806 -90 
C 5478 -90 5958 467 5958 1421 
C 5958 2368 5478 2918 4806 2918 
C 4128 2918 3648 2368 3648 1421 
C 3648 467 4128 -90 4806 -90 
z
M 4806 448 
C 4525 448 4314 730 4314 1421 
C 4314 2125 4525 2381 4806 2381 
C 5082 2381 5293 2125 5293 1421 
C 5293 730 5082 448 4806 448 
z
" transform="scale(0.015625)"/>
     </defs>
     <use xlink:href="#NotoSansCJKsc-Bold-35"/>
     <use xlink:href="#NotoSansCJKsc-Bold-30" transform="translate(58.999985 0)"/>
     <use xlink:href="#NotoSansCJKsc-Bold-2e" transform="translate(117.999969 0)"/>
     <use xlink:href="#NotoSansCJKsc-Bold-31" transform="translate(150.499954 0)"/>
     <use xlink:href="#NotoSansCJKsc-Bold-30" transform="translate(209.499939 0)"/>
     <use xlink:href="#NotoSansCJKsc-Bold-25" transform="translate(268.499924 0)"/>
    </g>
   </g>
   <g id="text_12">
    <!-- 30.32% -->
    <g style="fill: #0f172a" transform="translate(299.473279 178.882921) scale(0.093 -0.093)">
     <defs>
      <path id="NotoSansCJKsc-Bold-33" d="M 1747 -90 
C 2656 -90 3418 410 3418 1280 
C 3418 1907 3008 2304 2477 2451 
L 2477 2483 
C 2976 2682 3264 3053 3264 3565 
C 3264 4378 2643 4826 1728 4826 
C 1171 4826 717 4602 307 4250 
L 794 3667 
C 1069 3930 1344 4083 1683 4083 
C 2086 4083 2317 3866 2317 3494 
C 2317 3066 2035 2771 1171 2771 
L 1171 2093 
C 2195 2093 2470 1805 2470 1338 
C 2470 915 2144 678 1664 678 
C 1229 678 890 890 608 1165 
L 166 570 
C 499 192 1005 -90 1747 -90 
z
" transform="scale(0.015625)"/>
      <path id="NotoSansCJKsc-Bold-32" d="M 275 0 
L 3450 0 
L 3450 794 
L 2426 794 
C 2202 794 1888 768 1645 736 
C 2509 1587 3226 2509 3226 3366 
C 3226 4250 2630 4826 1734 4826 
C 1088 4826 666 4576 224 4102 
L 749 3597 
C 986 3859 1267 4083 1613 4083 
C 2067 4083 2323 3789 2323 3322 
C 2323 2586 1568 1696 275 544 
L 275 0 
z
" transform="scale(0.015625)"/>
     </defs>
     <use xlink:href="#NotoSansCJKsc-Bold-33"/>
     <use xlink:href="#NotoSansCJKsc-Bold-30" transform="translate(58.999985 0)"/>
     <use xlink:href="#NotoSansCJKsc-Bold-2e" transform="translate(117.999969 0)"/>
     <use xlink:href="#NotoSansCJKsc-Bold-33" transform="translate(150.499954 0)"/>
     <use xlink:href="#NotoSansCJKsc-Bold-32" transform="translate(209.499939 0)"/>
     <use xlink:href="#NotoSansCJKsc-Bold-25" transform="translate(268.499924 0)"/>
    </g>
   </g>
   <g id="text_13">
    <!-- Large online gains in cold-start -->
    <g style="fill: #475569" transform="translate(138.908109 69.372) scale(0.11 -0.11)">
     <defs>
      <path id="NotoSansCJKsc-Regular-4c" d="M 646 0 
L 3290 0 
L 3290 506 
L 1235 506 
L 1235 4691 
L 646 4691 
L 646 0 
z
" transform="scale(0.015625)"/>
      <path id="NotoSansCJKsc-Regular-2d" d="M 294 1568 
L 1933 1568 
L 1933 2016 
L 294 2016 
L 294 1568 
z
" transform="scale(0.015625)"/>
     </defs>
     <use xlink:href="#NotoSansCJKsc-Regular-4c"/>
     <use xlink:href="#NotoSansCJKsc-Regular-61" transform="translate(54.299988 0)"/>
     <use xlink:href="#NotoSansCJKsc-Regular-72" transform="translate(110.599976 0)"/>
     <use xlink:href="#NotoSansCJKsc-Regular-67" transform="translate(149.399963 0)"/>
     <use xlink:href="#NotoSansCJKsc-Regular-65" transform="translate(205.799957 0)"/>
     <use xlink:href="#NotoSansCJKsc-Regular-20" transform="translate(261.199951 0)"/>
     <use xlink:href="#NotoSansCJKsc-Regular-6f" transform="translate(283.599945 0)"/>
     <use xlink:href="#NotoSansCJKsc-Regular-6e" transform="translate(344.199936 0)"/>
     <use xlink:href="#NotoSansCJKsc-Regular-6c" transform="translate(405.199921 0)"/>
     <use xlink:href="#NotoSansCJKsc-Regular-69" transform="translate(433.599915 0)"/>
     <use xlink:href="#NotoSansCJKsc-Regular-6e" transform="translate(461.099899 0)"/>
     <use xlink:href="#NotoSansCJKsc-Regular-65" transform="translate(522.099884 0)"/>
     <use xlink:href="#NotoSansCJKsc-Regular-20" transform="translate(577.499878 0)"/>
     <use xlink:href="#NotoSansCJKsc-Regular-67" transform="translate(599.899872 0)"/>
     <use xlink:href="#NotoSansCJKsc-Regular-61" transform="translate(656.299866 0)"/>
     <use xlink:href="#NotoSansCJKsc-Regular-69" transform="translate(712.599854 0)"/>
     <use xlink:href="#NotoSansCJKsc-Regular-6e" transform="translate(740.099838 0)"/>
     <use xlink:href="#NotoSansCJKsc-Regular-73" transform="translate(801.099823 0)"/>
     <use xlink:href="#NotoSansCJKsc-Regular-20" transform="translate(847.899811 0)"/>
     <use xlink:href="#NotoSansCJKsc-Regular-69" transform="translate(870.299805 0)"/>
     <use xlink:href="#NotoSansCJKsc-Regular-6e" transform="translate(897.799789 0)"/>
     <use xlink:href="#NotoSansCJKsc-Regular-20" transform="translate(958.799774 0)"/>
     <use xlink:href="#NotoSansCJKsc-Regular-63" transform="translate(981.199768 0)"/>
     <use xlink:href="#NotoSansCJKsc-Regular-6f" transform="translate(1032.199753 0)"/>
     <use xlink:href="#NotoSansCJKsc-Regular-6c" transform="translate(1092.799744 0)"/>
     <use xlink:href="#NotoSansCJKsc-Regular-64" transform="translate(1121.199738 0)"/>
     <use xlink:href="#NotoSansCJKsc-Regular-2d" transform="translate(1183.199722 0)"/>
     <use xlink:href="#NotoSansCJKsc-Regular-73" transform="translate(1217.899719 0)"/>
     <use xlink:href="#NotoSansCJKsc-Regular-74" transform="translate(1264.699707 0)"/>
     <use xlink:href="#NotoSansCJKsc-Regular-61" transform="translate(1302.399704 0)"/>
     <use xlink:href="#NotoSansCJKsc-Regular-72" transform="translate(1358.699692 0)"/>
     <use xlink:href="#NotoSansCJKsc-Regular-74" transform="translate(1397.49968 0)"/>
    </g>
   </g>
  </g>
  <g id="axes_2">
   <g id="patch_7">
    <path d="M 436.556 288.668 
L 779.256 288.668 
L 779.256 75.372 
L 436.556 75.372 
z
" style="fill: #ffffff"/>
   </g>
   <g id="matplotlib.axis_3">
    <g id="xtick_3">
     <g id="line2d_17">
      <g>
       <use xlink:href="#m341e1d6334" x="607.906" y="288.668" style="fill: #475569; stroke: #475569; stroke-width: 0.8"/>
      </g>
     </g>
     <g id="text_14">
      <!-- P50 latency -->
      <g style="fill: #475569" transform="translate(578.282484 304.423312) scale(0.11 -0.11)">
       <defs>
        <path id="NotoSansCJKsc-Regular-79" d="M 646 -1498 
C 1338 -1498 1702 -973 1946 -294 
L 3251 3475 
L 2682 3475 
L 2054 1549 
C 1965 1235 1862 883 1773 563 
L 1741 563 
C 1619 890 1504 1242 1395 1549 
L 691 3475 
L 83 3475 
L 1478 -6 
L 1402 -269 
C 1254 -698 1011 -1018 621 -1018 
C 525 -1018 422 -986 352 -960 
L 237 -1427 
C 346 -1472 486 -1498 646 -1498 
z
" transform="scale(0.015625)"/>
       </defs>
       <use xlink:href="#NotoSansCJKsc-Regular-50"/>
       <use xlink:href="#NotoSansCJKsc-Regular-35" transform="translate(63.299988 0)"/>
       <use xlink:href="#NotoSansCJKsc-Regular-30" transform="translate(118.799973 0)"/>
       <use xlink:href="#NotoSansCJKsc-Regular-20" transform="translate(174.299957 0)"/>
       <use xlink:href="#NotoSansCJKsc-Regular-6c" transform="translate(196.699951 0)"/>
       <use xlink:href="#NotoSansCJKsc-Regular-61" transform="translate(225.099945 0)"/>
       <use xlink:href="#NotoSansCJKsc-Regular-74" transform="translate(281.399933 0)"/>
       <use xlink:href="#NotoSansCJKsc-Regular-65" transform="translate(319.09993 0)"/>
       <use xlink:href="#NotoSansCJKsc-Regular-6e" transform="translate(374.499924 0)"/>
       <use xlink:href="#NotoSansCJKsc-Regular-63" transform="translate(435.499908 0)"/>
       <use xlink:href="#NotoSansCJKsc-Regular-79" transform="translate(486.499893 0)"/>
      </g>
     </g>
    </g>
   </g>
   <g id="matplotlib.axis_4">
    <g id="ytick_8">
     <g id="line2d_18">
      <path d="M 436.556 288.668 
L 779.256 288.668 
" clip-path="url(#p51e89d61be)" style="fill: none; stroke: #e5e7eb; stroke-width: 0.8; stroke-linecap: square"/>
     </g>
     <g id="line2d_19">
      <g>
       <use xlink:href="#m9453cc1a05" x="436.556" y="288.668" style="fill: #475569; stroke: #475569; stroke-width: 0.8"/>
      </g>
     </g>
     <g id="text_15">
      <!-- 0 -->
      <g style="fill: #475569" transform="translate(423.451 293.045656) scale(0.11 -0.11)">
       <use xlink:href="#NotoSansCJKsc-Regular-30"/>
      </g>
     </g>
    </g>
    <g id="ytick_9">
     <g id="line2d_20">
      <path d="M 436.556 246.0088 
L 779.256 246.0088 
" clip-path="url(#p51e89d61be)" style="fill: none; stroke: #e5e7eb; stroke-width: 0.8; stroke-linecap: square"/>
     </g>
     <g id="line2d_21">
      <g>
       <use xlink:href="#m9453cc1a05" x="436.556" y="246.0088" style="fill: #475569; stroke: #475569; stroke-width: 0.8"/>
      </g>
     </g>
     <g id="text_16">
      <!-- 5 -->
      <g style="fill: #475569" transform="translate(423.451 250.386456) scale(0.11 -0.11)">
       <use xlink:href="#NotoSansCJKsc-Regular-35"/>
      </g>
     </g>
    </g>
    <g id="ytick_10">
     <g id="line2d_22">
      <path d="M 436.556 203.3496 
L 779.256 203.3496 
" clip-path="url(#p51e89d61be)" style="fill: none; stroke: #e5e7eb; stroke-width: 0.8; stroke-linecap: square"/>
     </g>
     <g id="line2d_23">
      <g>
       <use xlink:href="#m9453cc1a05" x="436.556" y="203.3496" style="fill: #475569; stroke: #475569; stroke-width: 0.8"/>
      </g>
     </g>
     <g id="text_17">
      <!-- 10 -->
      <g style="fill: #475569" transform="translate(417.346 207.727256) scale(0.11 -0.11)">
       <use xlink:href="#NotoSansCJKsc-Regular-31"/>
       <use xlink:href="#NotoSansCJKsc-Regular-30" transform="translate(55.499985 0)"/>
      </g>
     </g>
    </g>
    <g id="ytick_11">
     <g id="line2d_24">
      <path d="M 436.556 160.6904 
L 779.256 160.6904 
" clip-path="url(#p51e89d61be)" style="fill: none; stroke: #e5e7eb; stroke-width: 0.8; stroke-linecap: square"/>
     </g>
     <g id="line2d_25">
      <g>
       <use xlink:href="#m9453cc1a05" x="436.556" y="160.6904" style="fill: #475569; stroke: #475569; stroke-width: 0.8"/>
      </g>
     </g>
     <g id="text_18">
      <!-- 15 -->
      <g style="fill: #475569" transform="translate(417.346 165.068056) scale(0.11 -0.11)">
       <use xlink:href="#NotoSansCJKsc-Regular-31"/>
       <use xlink:href="#NotoSansCJKsc-Regular-35" transform="translate(55.499985 0)"/>
      </g>
     </g>
    </g>
    <g id="ytick_12">
     <g id="line2d_26">
      <path d="M 436.556 118.0312 
L 779.256 118.0312 
" clip-path="url(#p51e89d61be)" style="fill: none; stroke: #e5e7eb; stroke-width: 0.8; stroke-linecap: square"/>
     </g>
     <g id="line2d_27">
      <g>
       <use xlink:href="#m9453cc1a05" x="436.556" y="118.0312" style="fill: #475569; stroke: #475569; stroke-width: 0.8"/>
      </g>
     </g>
     <g id="text_19">
      <!-- 20 -->
      <g style="fill: #475569" transform="translate(417.346 122.408856) scale(0.11 -0.11)">
       <use xlink:href="#NotoSansCJKsc-Regular-32"/>
       <use xlink:href="#NotoSansCJKsc-Regular-30" transform="translate(55.499985 0)"/>
      </g>
     </g>
    </g>
    <g id="ytick_13">
     <g id="line2d_28">
      <path d="M 436.556 75.372 
L 779.256 75.372 
" clip-path="url(#p51e89d61be)" style="fill: none; stroke: #e5e7eb; stroke-width: 0.8; stroke-linecap: square"/>
     </g>
     <g id="line2d_29">
      <g>
       <use xlink:href="#m9453cc1a05" x="436.556" y="75.372" style="fill: #475569; stroke: #475569; stroke-width: 0.8"/>
      </g>
     </g>
     <g id="text_20">
      <!-- 25 -->
      <g style="fill: #475569" transform="translate(417.346 79.749656) scale(0.11 -0.11)">
       <use xlink:href="#NotoSansCJKsc-Regular-32"/>
       <use xlink:href="#NotoSansCJKsc-Regular-35" transform="translate(55.499985 0)"/>
      </g>
     </g>
    </g>
    <g id="text_21">
     <!-- Median latency -->
     <g style="fill: #0f172a" transform="translate(410.771313 220.944531) rotate(-90) scale(0.11 -0.11)">
      <defs>
       <path id="NotoSansCJKsc-Regular-4d" d="M 646 0 
L 1178 0 
L 1178 2598 
C 1178 3002 1139 3571 1101 3981 
L 1126 3981 
L 1504 2912 
L 2394 474 
L 2790 474 
L 3674 2912 
L 4051 3981 
L 4077 3981 
C 4045 3571 4000 3002 4000 2598 
L 4000 0 
L 4550 0 
L 4550 4691 
L 3840 4691 
L 2944 2182 
C 2835 1862 2739 1530 2618 1203 
L 2592 1203 
C 2477 1530 2374 1862 2253 2182 
L 1357 4691 
L 646 4691 
L 646 0 
z
" transform="scale(0.015625)"/>
      </defs>
      <use xlink:href="#NotoSansCJKsc-Regular-4d"/>
      <use xlink:href="#NotoSansCJKsc-Regular-65" transform="translate(81.199982 0)"/>
      <use xlink:href="#NotoSansCJKsc-Regular-64" transform="translate(136.599976 0)"/>
      <use xlink:href="#NotoSansCJKsc-Regular-69" transform="translate(198.59996 0)"/>
      <use xlink:href="#NotoSansCJKsc-Regular-61" transform="translate(226.099945 0)"/>
      <use xlink:href="#NotoSansCJKsc-Regular-6e" transform="translate(282.399933 0)"/>
      <use xlink:href="#NotoSansCJKsc-Regular-20" transform="translate(343.399918 0)"/>
      <use xlink:href="#NotoSansCJKsc-Regular-6c" transform="translate(365.799911 0)"/>
      <use xlink:href="#NotoSansCJKsc-Regular-61" transform="translate(394.199905 0)"/>
      <use xlink:href="#NotoSansCJKsc-Regular-74" transform="translate(450.499893 0)"/>
      <use xlink:href="#NotoSansCJKsc-Regular-65" transform="translate(488.19989 0)"/>
      <use xlink:href="#NotoSansCJKsc-Regular-6e" transform="translate(543.599884 0)"/>
      <use xlink:href="#NotoSansCJKsc-Regular-63" transform="translate(604.599869 0)"/>
      <use xlink:href="#NotoSansCJKsc-Regular-79" transform="translate(655.599854 0)"/>
     </g>
    </g>
   </g>
   <g id="patch_8">
    <path d="M 436.556 288.668 
L 436.556 75.372 
" style="fill: none; stroke: #94a3b8; stroke-width: 0.8; stroke-linejoin: miter; stroke-linecap: square"/>
   </g>
   <g id="patch_9">
    <path d="M 436.556 288.668 
L 779.256 288.668 
" style="fill: none; stroke: #94a3b8; stroke-width: 0.8; stroke-linejoin: miter; stroke-linecap: square"/>
   </g>
   <g id="patch_10">
    <path d="M 452.133273 288.668 
L 763.678727 288.668 
L 763.678727 139.3608 
L 452.133273 139.3608 
z
" clip-path="url(#p51e89d61be)" style="fill: #0891b2"/>
   </g>
   <g id="text_22">
    <!-- 17.5ms -->
    <g style="fill: #0f172a" transform="translate(591.379609 137.3613) scale(0.093 -0.093)">
     <defs>
      <path id="NotoSansCJKsc-Bold-37" d="M 1190 0 
L 2138 0 
C 2221 1850 2368 2822 3469 4166 
L 3469 4742 
L 320 4742 
L 320 3949 
L 2451 3949 
C 1549 2694 1274 1645 1190 0 
z
" transform="scale(0.015625)"/>
      <path id="NotoSansCJKsc-Bold-6d" d="M 506 0 
L 1446 0 
L 1446 2464 
C 1696 2739 1926 2867 2131 2867 
C 2477 2867 2637 2675 2637 2118 
L 2637 0 
L 3571 0 
L 3571 2464 
C 3827 2739 4058 2867 4262 2867 
C 4602 2867 4762 2675 4762 2118 
L 4762 0 
L 5696 0 
L 5696 2234 
C 5696 3136 5350 3674 4589 3674 
C 4128 3674 3776 3392 3443 3046 
C 3277 3443 2976 3674 2464 3674 
C 1997 3674 1664 3418 1363 3104 
L 1344 3104 
L 1274 3584 
L 506 3584 
L 506 0 
z
" transform="scale(0.015625)"/>
      <path id="NotoSansCJKsc-Bold-73" d="M 1530 -90 
C 2458 -90 2957 410 2957 1043 
C 2957 1702 2432 1946 1958 2125 
C 1574 2266 1248 2362 1248 2624 
C 1248 2829 1402 2970 1728 2970 
C 1990 2970 2240 2842 2496 2662 
L 2918 3232 
C 2624 3462 2221 3674 1702 3674 
C 883 3674 365 3219 365 2579 
C 365 1978 870 1702 1325 1530 
C 1702 1382 2074 1261 2074 992 
C 2074 768 1914 614 1555 614 
C 1216 614 915 762 595 1005 
L 166 410 
C 525 115 1050 -90 1530 -90 
z
" transform="scale(0.015625)"/>
     </defs>
     <use xlink:href="#NotoSansCJKsc-Bold-31"/>
     <use xlink:href="#NotoSansCJKsc-Bold-37" transform="translate(58.999985 0)"/>
     <use xlink:href="#NotoSansCJKsc-Bold-2e" transform="translate(117.999969 0)"/>
     <use xlink:href="#NotoSansCJKsc-Bold-35" transform="translate(150.499954 0)"/>
     <use xlink:href="#NotoSansCJKsc-Bold-6d" transform="translate(209.499939 0)"/>
     <use xlink:href="#NotoSansCJKsc-Bold-73" transform="translate(305.899933 0)"/>
    </g>
   </g>
   <g id="text_23">
    <!-- Vector retrieval is real-time -->
    <g style="fill: #475569" transform="translate(538.620609 69.372) scale(0.11 -0.11)">
     <defs>
      <path id="NotoSansCJKsc-Regular-6d" d="M 589 0 
L 1178 0 
L 1178 2522 
C 1491 2880 1786 3053 2048 3053 
C 2490 3053 2694 2778 2694 2125 
L 2694 0 
L 3277 0 
L 3277 2522 
C 3603 2880 3885 3053 4154 3053 
C 4595 3053 4800 2778 4800 2125 
L 4800 0 
L 5382 0 
L 5382 2202 
C 5382 3085 5043 3565 4333 3565 
C 3904 3565 3546 3290 3181 2899 
C 3040 3309 2758 3565 2221 3565 
C 1805 3565 1446 3302 1139 2970 
L 1126 2970 
L 1069 3475 
L 589 3475 
L 589 0 
z
" transform="scale(0.015625)"/>
     </defs>
     <use xlink:href="#NotoSansCJKsc-Regular-56"/>
     <use xlink:href="#NotoSansCJKsc-Regular-65" transform="translate(57.499985 0)"/>
     <use xlink:href="#NotoSansCJKsc-Regular-63" transform="translate(112.899979 0)"/>
     <use xlink:href="#NotoSansCJKsc-Regular-74" transform="translate(163.899963 0)"/>
     <use xlink:href="#NotoSansCJKsc-Regular-6f" transform="translate(201.59996 0)"/>
     <use xlink:href="#NotoSansCJKsc-Regular-72" transform="translate(262.199951 0)"/>
     <use xlink:href="#NotoSansCJKsc-Regular-20" transform="translate(300.999939 0)"/>
     <use xlink:href="#NotoSansCJKsc-Regular-72" transform="translate(323.399933 0)"/>
     <use xlink:href="#NotoSansCJKsc-Regular-65" transform="translate(362.199921 0)"/>
     <use xlink:href="#NotoSansCJKsc-Regular-74" transform="translate(417.599915 0)"/>
     <use xlink:href="#NotoSansCJKsc-Regular-72" transform="translate(455.299911 0)"/>
     <use xlink:href="#NotoSansCJKsc-Regular-69" transform="translate(494.099899 0)"/>
     <use xlink:href="#NotoSansCJKsc-Regular-65" transform="translate(521.599884 0)"/>
     <use xlink:href="#NotoSansCJKsc-Regular-76" transform="translate(576.999878 0)"/>
     <use xlink:href="#NotoSansCJKsc-Regular-61" transform="translate(629.099869 0)"/>
     <use xlink:href="#NotoSansCJKsc-Regular-6c" transform="translate(685.399857 0)"/>
     <use xlink:href="#NotoSansCJKsc-Regular-20" transform="translate(713.79985 0)"/>
     <use xlink:href="#NotoSansCJKsc-Regular-69" transform="translate(736.199844 0)"/>
     <use xlink:href="#NotoSansCJKsc-Regular-73" transform="translate(763.699829 0)"/>
     <use xlink:href="#NotoSansCJKsc-Regular-20" transform="translate(810.499817 0)"/>
     <use xlink:href="#NotoSansCJKsc-Regular-72" transform="translate(832.899811 0)"/>
     <use xlink:href="#NotoSansCJKsc-Regular-65" transform="translate(871.699799 0)"/>
     <use xlink:href="#NotoSansCJKsc-Regular-61" transform="translate(927.099792 0)"/>
     <use xlink:href="#NotoSansCJKsc-Regular-6c" transform="translate(983.39978 0)"/>
     <use xlink:href="#NotoSansCJKsc-Regular-2d" transform="translate(1011.799774 0)"/>
     <use xlink:href="#NotoSansCJKsc-Regular-74" transform="translate(1046.499771 0)"/>
     <use xlink:href="#NotoSansCJKsc-Regular-69" transform="translate(1084.199768 0)"/>
     <use xlink:href="#NotoSansCJKsc-Regular-6d" transform="translate(1111.699753 0)"/>
     <use xlink:href="#NotoSansCJKsc-Regular-65" transform="translate(1204.299744 0)"/>
    </g>
   </g>
  </g>
  <g id="text_24">
   <!-- VCG — online uplift &amp; latency -->
   <g style="fill: #0f172a" transform="translate(8.64 19.602422) scale(0.135 -0.135)">
    <defs>
     <path id="NotoSansCJKsc-Bold-56" d="M 1414 0 
L 2547 0 
L 3994 4742 
L 3034 4742 
L 2419 2432 
C 2272 1907 2170 1434 2016 902 
L 1984 902 
C 1837 1434 1734 1907 1587 2432 
L 966 4742 
L -32 4742 
L 1414 0 
z
" transform="scale(0.015625)"/>
     <path id="NotoSansCJKsc-Bold-43" d="M 2509 -90 
C 3130 -90 3635 154 4026 608 
L 3520 1197 
C 3270 922 2957 730 2547 730 
C 1798 730 1318 1350 1318 2381 
C 1318 3398 1850 4013 2566 4013 
C 2925 4013 3200 3846 3443 3616 
L 3936 4218 
C 3629 4538 3155 4826 2547 4826 
C 1350 4826 346 3910 346 2349 
C 346 768 1318 -90 2509 -90 
z
" transform="scale(0.015625)"/>
     <path id="NotoSansCJKsc-Bold-47" d="M 2618 -90 
C 3270 -90 3834 160 4160 480 
L 4160 2618 
L 2470 2618 
L 2470 1843 
L 3309 1843 
L 3309 909 
C 3181 794 2944 730 2720 730 
C 1786 730 1318 1350 1318 2381 
C 1318 3398 1856 4013 2650 4013 
C 3072 4013 3341 3840 3578 3616 
L 4083 4218 
C 3776 4531 3302 4826 2618 4826 
C 1357 4826 346 3910 346 2349 
C 346 768 1331 -90 2618 -90 
z
" transform="scale(0.015625)"/>
     <path id="NotoSansCJKsc-Bold-20" transform="scale(0.015625)"/>
     <path id="NotoSansCJKsc-Bold-2014" d="M 314 1536 
L 5498 1536 
L 5498 2138 
L 314 2138 
L 314 1536 
z
" transform="scale(0.015625)"/>
     <path id="NotoSansCJKsc-Bold-6f" d="M 2003 -90 
C 2899 -90 3725 602 3725 1792 
C 3725 2982 2899 3674 2003 3674 
C 1101 3674 282 2982 282 1792 
C 282 602 1101 -90 2003 -90 
z
M 2003 678 
C 1510 678 1242 1114 1242 1792 
C 1242 2464 1510 2906 2003 2906 
C 2490 2906 2765 2464 2765 1792 
C 2765 1114 2490 678 2003 678 
z
" transform="scale(0.015625)"/>
     <path id="NotoSansCJKsc-Bold-6e" d="M 506 0 
L 1446 0 
L 1446 2464 
C 1709 2726 1901 2867 2189 2867 
C 2541 2867 2694 2675 2694 2118 
L 2694 0 
L 3635 0 
L 3635 2234 
C 3635 3136 3302 3674 2528 3674 
C 2042 3674 1677 3418 1363 3110 
L 1344 3110 
L 1274 3584 
L 506 3584 
L 506 0 
z
" transform="scale(0.015625)"/>
     <path id="NotoSansCJKsc-Bold-6c" d="M 1395 -90 
C 1613 -90 1766 -51 1875 -6 
L 1760 691 
C 1696 678 1670 678 1632 678 
C 1542 678 1446 749 1446 966 
L 1446 5107 
L 506 5107 
L 506 1005 
C 506 339 736 -90 1395 -90 
z
" transform="scale(0.015625)"/>
     <path id="NotoSansCJKsc-Bold-69" d="M 506 0 
L 1446 0 
L 1446 3584 
L 506 3584 
L 506 0 
z
M 979 4166 
C 1299 4166 1523 4365 1523 4678 
C 1523 4986 1299 5190 979 5190 
C 646 5190 435 4986 435 4678 
C 435 4365 646 4166 979 4166 
z
" transform="scale(0.015625)"/>
     <path id="NotoSansCJKsc-Bold-65" d="M 2067 -90 
C 2509 -90 2963 64 3315 307 
L 2995 883 
C 2733 723 2483 640 2195 640 
C 1658 640 1274 941 1197 1523 
L 3405 1523 
C 3430 1613 3450 1786 3450 1958 
C 3450 2957 2938 3674 1952 3674 
C 1101 3674 282 2950 282 1792 
C 282 608 1062 -90 2067 -90 
z
M 1178 2157 
C 1254 2675 1587 2944 1965 2944 
C 2432 2944 2643 2637 2643 2157 
L 1178 2157 
z
" transform="scale(0.015625)"/>
     <path id="NotoSansCJKsc-Bold-75" d="M 1574 -90 
C 2067 -90 2406 154 2714 518 
L 2739 518 
L 2810 0 
L 3578 0 
L 3578 3584 
L 2637 3584 
L 2637 1165 
C 2394 845 2202 717 1914 717 
C 1562 717 1402 909 1402 1466 
L 1402 3584 
L 467 3584 
L 467 1350 
C 467 448 800 -90 1574 -90 
z
" transform="scale(0.015625)"/>
     <path id="NotoSansCJKsc-Bold-70" d="M 506 -1376 
L 1446 -1376 
L 1446 -282 
L 1414 301 
C 1683 51 1990 -90 2304 -90 
C 3091 -90 3827 621 3827 1850 
C 3827 2950 3296 3674 2419 3674 
C 2029 3674 1664 3469 1363 3213 
L 1344 3213 
L 1274 3584 
L 506 3584 
L 506 -1376 
z
M 2099 685 
C 1901 685 1677 755 1446 954 
L 1446 2534 
C 1690 2778 1907 2899 2150 2899 
C 2643 2899 2861 2522 2861 1837 
C 2861 1056 2522 685 2099 685 
z
" transform="scale(0.015625)"/>
     <path id="NotoSansCJKsc-Bold-66" d="M 179 2842 
L 666 2842 
L 666 0 
L 1600 0 
L 1600 2842 
L 2285 2842 
L 2285 3584 
L 1600 3584 
L 1600 3891 
C 1600 4288 1760 4454 2035 4454 
C 2163 4454 2298 4429 2419 4371 
L 2592 5075 
C 2432 5139 2189 5197 1907 5197 
C 1011 5197 666 4614 666 3872 
L 666 3578 
L 179 3539 
L 179 2842 
z
" transform="scale(0.015625)"/>
     <path id="NotoSansCJKsc-Bold-74" d="M 1818 -90 
C 2131 -90 2381 -13 2579 45 
L 2419 730 
C 2323 691 2182 653 2067 653 
C 1747 653 1574 845 1574 1254 
L 1574 2842 
L 2464 2842 
L 2464 3584 
L 1574 3584 
L 1574 4550 
L 800 4550 
L 691 3584 
L 134 3539 
L 134 2842 
L 640 2842 
L 640 1248 
C 640 454 966 -90 1818 -90 
z
" transform="scale(0.015625)"/>
     <path id="NotoSansCJKsc-Bold-26" d="M 1741 -90 
C 2323 -90 2797 102 3187 410 
C 3590 160 3994 -6 4378 -90 
L 4602 678 
C 4358 723 4070 845 3763 1018 
C 4134 1510 4390 2054 4570 2650 
L 3706 2650 
C 3584 2176 3379 1773 3130 1440 
C 2746 1728 2387 2067 2106 2426 
C 2611 2771 3123 3162 3123 3789 
C 3123 4410 2694 4826 2022 4826 
C 1267 4826 787 4282 787 3622 
C 787 3309 896 2957 1082 2605 
C 608 2298 192 1914 192 1254 
C 192 525 749 -90 1741 -90 
z
M 2541 870 
C 2323 723 2093 640 1856 640 
C 1402 640 1088 909 1088 1312 
C 1088 1568 1248 1779 1478 1978 
C 1779 1581 2144 1203 2541 870 
z
M 1734 2995 
C 1626 3213 1562 3430 1562 3629 
C 1562 3968 1766 4198 2042 4198 
C 2285 4198 2394 4026 2394 3789 
C 2394 3443 2106 3219 1734 2995 
z
" transform="scale(0.015625)"/>
     <path id="NotoSansCJKsc-Bold-61" d="M 1382 -90 
C 1798 -90 2157 109 2464 384 
L 2496 384 
L 2560 0 
L 3328 0 
L 3328 2093 
C 3328 3130 2861 3674 1952 3674 
C 1389 3674 877 3456 461 3200 
L 794 2573 
C 1126 2771 1446 2918 1779 2918 
C 2221 2918 2374 2650 2387 2298 
C 947 2144 326 1741 326 979 
C 326 365 742 -90 1382 -90 
z
M 1696 646 
C 1421 646 1222 768 1222 1050 
C 1222 1376 1510 1613 2387 1715 
L 2387 998 
C 2163 774 1965 646 1696 646 
z
" transform="scale(0.015625)"/>
     <path id="NotoSansCJKsc-Bold-63" d="M 2029 -90 
C 2426 -90 2861 45 3200 346 
L 2829 966 
C 2630 800 2394 678 2131 678 
C 1613 678 1242 1114 1242 1792 
C 1242 2464 1613 2906 2163 2906 
C 2362 2906 2528 2822 2707 2675 
L 3155 3270 
C 2893 3507 2554 3674 2112 3674 
C 1139 3674 282 2982 282 1792 
C 282 602 1043 -90 2029 -90 
z
" transform="scale(0.015625)"/>
     <path id="NotoSansCJKsc-Bold-79" d="M 819 -1434 
C 1619 -1434 2003 -954 2317 -109 
L 3590 3584 
L 2688 3584 
L 2195 1920 
C 2106 1587 2016 1242 1939 909 
L 1907 909 
C 1805 1254 1715 1600 1606 1920 
L 1037 3584 
L 90 3584 
L 1485 70 
L 1421 -147 
C 1318 -461 1114 -691 749 -691 
C 666 -691 563 -666 499 -646 
L 326 -1370 
C 467 -1408 608 -1434 819 -1434 
z
" transform="scale(0.015625)"/>
    </defs>
    <use xlink:href="#NotoSansCJKsc-Bold-56"/>
    <use xlink:href="#NotoSansCJKsc-Bold-43" transform="translate(61.899994 0)"/>
    <use xlink:href="#NotoSansCJKsc-Bold-47" transform="translate(127.499985 0)"/>
    <use xlink:href="#NotoSansCJKsc-Bold-20" transform="translate(199.199966 0)"/>
    <use xlink:href="#NotoSansCJKsc-Bold-2014" transform="translate(221.899963 0)"/>
    <use xlink:href="#NotoSansCJKsc-Bold-20" transform="translate(312.699951 0)"/>
    <use xlink:href="#NotoSansCJKsc-Bold-6f" transform="translate(335.399948 0)"/>
    <use xlink:href="#NotoSansCJKsc-Bold-6e" transform="translate(397.999939 0)"/>
    <use xlink:href="#NotoSansCJKsc-Bold-6c" transform="translate(462.09993 0)"/>
    <use xlink:href="#NotoSansCJKsc-Bold-69" transform="translate(493.599915 0)"/>
    <use xlink:href="#NotoSansCJKsc-Bold-6e" transform="translate(523.999908 0)"/>
    <use xlink:href="#NotoSansCJKsc-Bold-65" transform="translate(588.099899 0)"/>
    <use xlink:href="#NotoSansCJKsc-Bold-20" transform="translate(646.19989 0)"/>
    <use xlink:href="#NotoSansCJKsc-Bold-75" transform="translate(668.899887 0)"/>
    <use xlink:href="#NotoSansCJKsc-Bold-70" transform="translate(732.599884 0)"/>
    <use xlink:href="#NotoSansCJKsc-Bold-6c" transform="translate(796.999878 0)"/>
    <use xlink:href="#NotoSansCJKsc-Bold-69" transform="translate(828.499863 0)"/>
    <use xlink:href="#NotoSansCJKsc-Bold-66" transform="translate(858.899857 0)"/>
    <use xlink:href="#NotoSansCJKsc-Bold-74" transform="translate(896.099854 0)"/>
    <use xlink:href="#NotoSansCJKsc-Bold-20" transform="translate(938.199844 0)"/>
    <use xlink:href="#NotoSansCJKsc-Bold-26" transform="translate(960.899841 0)"/>
    <use xlink:href="#NotoSansCJKsc-Bold-20" transform="translate(1034.899826 0)"/>
    <use xlink:href="#NotoSansCJKsc-Bold-6c" transform="translate(1057.599823 0)"/>
    <use xlink:href="#NotoSansCJKsc-Bold-61" transform="translate(1089.099808 0)"/>
    <use xlink:href="#NotoSansCJKsc-Bold-74" transform="translate(1148.199799 0)"/>
    <use xlink:href="#NotoSansCJKsc-Bold-65" transform="translate(1190.299789 0)"/>
    <use xlink:href="#NotoSansCJKsc-Bold-6e" transform="translate(1248.39978 0)"/>
    <use xlink:href="#NotoSansCJKsc-Bold-63" transform="translate(1312.499771 0)"/>
    <use xlink:href="#NotoSansCJKsc-Bold-79" transform="translate(1365.199768 0)"/>
   </g>
  </g>
 </g>
 <defs>
  <clipPath id="p94a15456a9">
   <rect x="46.496" y="75.372" width="342.7" height="213.296"/>
  </clipPath>
  <clipPath id="p51e89d61be">
   <rect x="436.556" y="75.372" width="342.7" height="213.296"/>
  </clipPath>
 </defs>
</svg>
