<?xml version="1.0" encoding="utf-8" standalone="no"?>
<!DOCTYPE svg PUBLIC "-//W3C//DTD SVG 1.1//EN"
  "http://www.w3.org/Graphics/SVG/1.1/DTD/svg11.dtd">
<svg xmlns:xlink="http://www.w3.org/1999/xlink" width="631.08pt" height="244.584pt" viewBox="0 0 631.08 244.584" xmlns="http://www.w3.org/2000/svg" version="1.1">
 <metadata>
  <rdf:RDF xmlns:dc="http://purl.org/dc/elements/1.1/" xmlns:cc="http://creativecommons.org/ns#" xmlns:rdf="http://www.w3.org/1999/02/22-rdf-syntax-ns#">
   <cc:Work>
    <dc:type rdf:resource="http://purl.org/dc/dcmitype/StillImage"/>
    <dc:date>2026-06-28T20:08:34.955833</dc:date>
    <dc:format>image/svg+xml</dc:format>
    <dc:creator>
     <cc:Agent>
      <dc:title>Matplotlib v3.10.5, https://matplotlib.org/</dc:title>
     </cc:Agent>
    </dc:creator>
   </cc:Work>
  </rdf:RDF>
 </metadata>
 <defs>
  <style type="text/css">*{stroke-linejoin: round; stroke-linecap: butt}</style>
 </defs>
 <g id="figure_1">
  <g id="patch_1">
   <path d="M 0 244.584 
L 631.08 244.584 
L 631.08 0 
L 0 0 
z
" style="fill: #ffffff"/>
  </g>
  <g id="axes_1">
   <g id="patch_2">
    <path d="M 62.6544 163.661328 
L 212.4216 163.661328 
Q 224.6976 163.661328 224.6976 159.115248 
L 224.6976 80.922672 
Q 224.6976 76.376592 212.4216 76.376592 
L 62.6544 76.376592 
Q 50.3784 76.376592 50.3784 80.922672 
L 50.3784 159.115248 
Q 50.3784 163.661328 62.6544 163.661328 
z
" clip-path="url(#p8efc695e2e)" style="fill: #fff1f2; stroke: #fecdd3; stroke-width: 1.4; stroke-linejoin: miter"/>
   </g>
   <g id="patch_3">
    <path d="M 240.6564 163.661328 
L 390.4236 163.661328 
Q 402.6996 163.661328 402.6996 159.115248 
L 402.6996 80.922672 
Q 402.6996 76.376592 390.4236 76.376592 
L 240.6564 76.376592 
Q 228.3804 76.376592 228.3804 80.922672 
L 228.3804 159.115248 
Q 228.3804 163.661328 240.6564 163.661328 
z
" clip-path="url(#p8efc695e2e)" style="fill: #fffbeb; stroke: #fde68a; stroke-width: 1.4; stroke-linejoin: miter"/>
   </g>
   <g id="patch_4">
    <path d="M 418.6584 163.661328 
L 568.4256 163.661328 
Q 580.7016 163.661328 580.7016 159.115248 
L 580.7016 80.922672 
Q 580.7016 76.376592 568.4256 76.376592 
L 418.6584 76.376592 
Q 406.3824 76.376592 406.3824 80.922672 
L 406.3824 159.115248 
Q 406.3824 163.661328 418.6584 163.661328 
z
" clip-path="url(#p8efc695e2e)" style="fill: #ecfdf5; stroke: #bbf7d0; stroke-width: 1.4; stroke-linejoin: miter"/>
   </g>
   <g id="text_1">
    <!-- BetXplain — dataset structure -->
    <g style="fill: #0f172a" transform="translate(16.0056 42.803411) scale(0.155 -0.155)">
     <defs>
      <path id="NotoSansCJKsc-Bold-42" d="M 582 0 
L 2272 0 
C 3315 0 4102 442 4102 1395 
C 4102 2029 3731 2394 3219 2515 
L 3219 2541 
C 3622 2688 3866 3130 3866 3571 
C 3866 4454 3123 4742 2150 4742 
L 582 4742 
L 582 0 
z
M 1530 2810 
L 1530 4013 
L 2093 4013 
C 2662 4013 2944 3846 2944 3430 
C 2944 3053 2688 2810 2086 2810 
L 1530 2810 
z
M 1530 730 
L 1530 2112 
L 2189 2112 
C 2842 2112 3181 1914 3181 1453 
C 3181 960 2829 730 2189 730 
L 1530 730 
z
" transform="scale(0.015625)"/>
      <path id="NotoSansCJKsc-Bold-65" d="M 2067 -90 
C 2509 -90 2963 64 3315 307 
L 2995 883 
C 2733 723 2483 640 2195 640 
C 1658 640 1274 941 1197 1523 
L 3405 1523 
C 3430 1613 3450 1786 3450 1958 
C 3450 2957 2938 3674 1952 3674 
C 1101 3674 282 2950 282 1792 
C 282 608 1062 -90 2067 -90 
z
M 1178 2157 
C 1254 2675 1587 2944 1965 2944 
C 2432 2944 2643 2637 2643 2157 
L 1178 2157 
z
" transform="scale(0.015625)"/>
      <path id="NotoSansCJKsc-Bold-74" d="M 1818 -90 
C 2131 -90 2381 -13 2579 45 
L 2419 730 
C 2323 691 2182 653 2067 653 
C 1747 653 1574 845 1574 1254 
L 1574 2842 
L 2464 2842 
L 2464 3584 
L 1574 3584 
L 1574 4550 
L 800 4550 
L 691 3584 
L 134 3539 
L 134 2842 
L 640 2842 
L 640 1248 
C 640 454 966 -90 1818 -90 
z
" transform="scale(0.015625)"/>
      <path id="NotoSansCJKsc-Bold-58" d="M 96 0 
L 1094 0 
L 1600 1050 
C 1715 1293 1824 1542 1946 1830 
L 1971 1830 
C 2106 1542 2227 1293 2342 1050 
L 2874 0 
L 3923 0 
L 2592 2400 
L 3840 4742 
L 2842 4742 
L 2394 3757 
C 2291 3539 2189 3309 2074 3014 
L 2048 3014 
C 1907 3309 1811 3539 1696 3757 
L 1222 4742 
L 166 4742 
L 1421 2438 
L 96 0 
z
" transform="scale(0.015625)"/>
      <path id="NotoSansCJKsc-Bold-70" d="M 506 -1376 
L 1446 -1376 
L 1446 -282 
L 1414 301 
C 1683 51 1990 -90 2304 -90 
C 3091 -90 3827 621 3827 1850 
C 3827 2950 3296 3674 2419 3674 
C 2029 3674 1664 3469 1363 3213 
L 1344 3213 
L 1274 3584 
L 506 3584 
L 506 -1376 
z
M 2099 685 
C 1901 685 1677 755 1446 954 
L 1446 2534 
C 1690 2778 1907 2899 2150 2899 
C 2643 2899 2861 2522 2861 1837 
C 2861 1056 2522 685 2099 685 
z
" transform="scale(0.015625)"/>
      <path id="NotoSansCJKsc-Bold-6c" d="M 1395 -90 
C 1613 -90 1766 -51 1875 -6 
L 1760 691 
C 1696 678 1670 678 1632 678 
C 1542 678 1446 749 1446 966 
L 1446 5107 
L 506 5107 
L 506 1005 
C 506 339 736 -90 1395 -90 
z
" transform="scale(0.015625)"/>
      <path id="NotoSansCJKsc-Bold-61" d="M 1382 -90 
C 1798 -90 2157 109 2464 384 
L 2496 384 
L 2560 0 
L 3328 0 
L 3328 2093 
C 3328 3130 2861 3674 1952 3674 
C 1389 3674 877 3456 461 3200 
L 794 2573 
C 1126 2771 1446 2918 1779 2918 
C 2221 2918 2374 2650 2387 2298 
C 947 2144 326 1741 326 979 
C 326 365 742 -90 1382 -90 
z
M 1696 646 
C 1421 646 1222 768 1222 1050 
C 1222 1376 1510 1613 2387 1715 
L 2387 998 
C 2163 774 1965 646 1696 646 
z
" transform="scale(0.015625)"/>
      <path id="NotoSansCJKsc-Bold-69" d="M 506 0 
L 1446 0 
L 1446 3584 
L 506 3584 
L 506 0 
z
M 979 4166 
C 1299 4166 1523 4365 1523 4678 
C 1523 4986 1299 5190 979 5190 
C 646 5190 435 4986 435 4678 
C 435 4365 646 4166 979 4166 
z
" transform="scale(0.015625)"/>
      <path id="NotoSansCJKsc-Bold-6e" d="M 506 0 
L 1446 0 
L 1446 2464 
C 1709 2726 1901 2867 2189 2867 
C 2541 2867 2694 2675 2694 2118 
L 2694 0 
L 3635 0 
L 3635 2234 
C 3635 3136 3302 3674 2528 3674 
C 2042 3674 1677 3418 1363 3110 
L 1344 3110 
L 1274 3584 
L 506 3584 
L 506 0 
z
" transform="scale(0.015625)"/>
      <path id="NotoSansCJKsc-Bold-20" transform="scale(0.015625)"/>
      <path id="NotoSansCJKsc-Bold-2014" d="M 314 1536 
L 5498 1536 
L 5498 2138 
L 314 2138 
L 314 1536 
z
" transform="scale(0.015625)"/>
      <path id="NotoSansCJKsc-Bold-64" d="M 1766 -90 
C 2138 -90 2496 109 2758 371 
L 2784 371 
L 2854 0 
L 3622 0 
L 3622 5107 
L 2682 5107 
L 2682 3846 
L 2714 3283 
C 2458 3520 2208 3674 1805 3674 
C 1037 3674 301 2957 301 1792 
C 301 614 870 -90 1766 -90 
z
M 2010 685 
C 1536 685 1267 1056 1267 1805 
C 1267 2515 1606 2899 2010 2899 
C 2240 2899 2464 2829 2682 2630 
L 2682 1056 
C 2477 787 2259 685 2010 685 
z
" transform="scale(0.015625)"/>
      <path id="NotoSansCJKsc-Bold-73" d="M 1530 -90 
C 2458 -90 2957 410 2957 1043 
C 2957 1702 2432 1946 1958 2125 
C 1574 2266 1248 2362 1248 2624 
C 1248 2829 1402 2970 1728 2970 
C 1990 2970 2240 2842 2496 2662 
L 2918 3232 
C 2624 3462 2221 3674 1702 3674 
C 883 3674 365 3219 365 2579 
C 365 1978 870 1702 1325 1530 
C 1702 1382 2074 1261 2074 992 
C 2074 768 1914 614 1555 614 
C 1216 614 915 762 595 1005 
L 166 410 
C 525 115 1050 -90 1530 -90 
z
" transform="scale(0.015625)"/>
      <path id="NotoSansCJKsc-Bold-72" d="M 506 0 
L 1446 0 
L 1446 2138 
C 1651 2656 1984 2842 2259 2842 
C 2413 2842 2515 2822 2643 2784 
L 2797 3597 
C 2694 3642 2579 3674 2381 3674 
C 2010 3674 1626 3418 1363 2950 
L 1344 2950 
L 1274 3584 
L 506 3584 
L 506 0 
z
" transform="scale(0.015625)"/>
      <path id="NotoSansCJKsc-Bold-75" d="M 1574 -90 
C 2067 -90 2406 154 2714 518 
L 2739 518 
L 2810 0 
L 3578 0 
L 3578 3584 
L 2637 3584 
L 2637 1165 
C 2394 845 2202 717 1914 717 
C 1562 717 1402 909 1402 1466 
L 1402 3584 
L 467 3584 
L 467 1350 
C 467 448 800 -90 1574 -90 
z
" transform="scale(0.015625)"/>
      <path id="NotoSansCJKsc-Bold-63" d="M 2029 -90 
C 2426 -90 2861 45 3200 346 
L 2829 966 
C 2630 800 2394 678 2131 678 
C 1613 678 1242 1114 1242 1792 
C 1242 2464 1613 2906 2163 2906 
C 2362 2906 2528 2822 2707 2675 
L 3155 3270 
C 2893 3507 2554 3674 2112 3674 
C 1139 3674 282 2982 282 1792 
C 282 602 1043 -90 2029 -90 
z
" transform="scale(0.015625)"/>
     </defs>
     <use xlink:href="#NotoSansCJKsc-Bold-42"/>
     <use xlink:href="#NotoSansCJKsc-Bold-65" transform="translate(68.099991 0)"/>
     <use xlink:href="#NotoSansCJKsc-Bold-74" transform="translate(126.199982 0)"/>
     <use xlink:href="#NotoSansCJKsc-Bold-58" transform="translate(168.299973 0)"/>
     <use xlink:href="#NotoSansCJKsc-Bold-70" transform="translate(230.999969 0)"/>
     <use xlink:href="#NotoSansCJKsc-Bold-6c" transform="translate(295.399963 0)"/>
     <use xlink:href="#NotoSansCJKsc-Bold-61" transform="translate(326.899948 0)"/>
     <use xlink:href="#NotoSansCJKsc-Bold-69" transform="translate(385.999939 0)"/>
     <use xlink:href="#NotoSansCJKsc-Bold-6e" transform="translate(416.399933 0)"/>
     <use xlink:href="#NotoSansCJKsc-Bold-20" transform="translate(480.499924 0)"/>
     <use xlink:href="#NotoSansCJKsc-Bold-2014" transform="translate(503.199921 0)"/>
     <use xlink:href="#NotoSansCJKsc-Bold-20" transform="translate(593.999908 0)"/>
     <use xlink:href="#NotoSansCJKsc-Bold-64" transform="translate(616.699905 0)"/>
     <use xlink:href="#NotoSansCJKsc-Bold-61" transform="translate(681.099899 0)"/>
     <use xlink:href="#NotoSansCJKsc-Bold-74" transform="translate(740.19989 0)"/>
     <use xlink:href="#NotoSansCJKsc-Bold-61" transform="translate(782.299881 0)"/>
     <use xlink:href="#NotoSansCJKsc-Bold-73" transform="translate(841.399872 0)"/>
     <use xlink:href="#NotoSansCJKsc-Bold-65" transform="translate(890.899857 0)"/>
     <use xlink:href="#NotoSansCJKsc-Bold-74" transform="translate(948.999847 0)"/>
     <use xlink:href="#NotoSansCJKsc-Bold-20" transform="translate(991.099838 0)"/>
     <use xlink:href="#NotoSansCJKsc-Bold-73" transform="translate(1013.799835 0)"/>
     <use xlink:href="#NotoSansCJKsc-Bold-74" transform="translate(1063.29982 0)"/>
     <use xlink:href="#NotoSansCJKsc-Bold-72" transform="translate(1105.399811 0)"/>
     <use xlink:href="#NotoSansCJKsc-Bold-75" transform="translate(1148.999802 0)"/>
     <use xlink:href="#NotoSansCJKsc-Bold-63" transform="translate(1212.699799 0)"/>
     <use xlink:href="#NotoSansCJKsc-Bold-74" transform="translate(1265.399796 0)"/>
     <use xlink:href="#NotoSansCJKsc-Bold-75" transform="translate(1307.499786 0)"/>
     <use xlink:href="#NotoSansCJKsc-Bold-72" transform="translate(1371.199783 0)"/>
     <use xlink:href="#NotoSansCJKsc-Bold-65" transform="translate(1414.799774 0)"/>
    </g>
   </g>
   <g id="text_2">
    <!-- Counts are not disclosed in the anonymized version; below shows the supervision schema. -->
    <g style="fill: #64748b" transform="translate(16.0056 49.921992) scale(0.096 -0.096)">
     <defs>
      <path id="NotoSansCJKsc-Regular-43" d="M 2413 -83 
C 3021 -83 3482 160 3853 589 
L 3526 966 
C 3226 634 2886 435 2438 435 
C 1542 435 979 1178 979 2362 
C 979 3533 1574 4256 2458 4256 
C 2861 4256 3168 4077 3418 3814 
L 3738 4198 
C 3469 4499 3021 4774 2451 4774 
C 1261 4774 371 3859 371 2342 
C 371 819 1242 -83 2413 -83 
z
" transform="scale(0.015625)"/>
      <path id="NotoSansCJKsc-Regular-6f" d="M 1939 -83 
C 2790 -83 3546 582 3546 1734 
C 3546 2893 2790 3565 1939 3565 
C 1088 3565 333 2893 333 1734 
C 333 582 1088 -83 1939 -83 
z
M 1939 403 
C 1338 403 934 934 934 1734 
C 934 2534 1338 3072 1939 3072 
C 2541 3072 2950 2534 2950 1734 
C 2950 934 2541 403 1939 403 
z
" transform="scale(0.015625)"/>
      <path id="NotoSansCJKsc-Regular-75" d="M 1606 -83 
C 2080 -83 2426 166 2752 544 
L 2771 544 
L 2816 0 
L 3302 0 
L 3302 3475 
L 2720 3475 
L 2720 1011 
C 2387 602 2138 422 1779 422 
C 1318 422 1126 698 1126 1344 
L 1126 3475 
L 538 3475 
L 538 1274 
C 538 384 870 -83 1606 -83 
z
" transform="scale(0.015625)"/>
      <path id="NotoSansCJKsc-Regular-6e" d="M 589 0 
L 1178 0 
L 1178 2522 
C 1523 2874 1766 3053 2125 3053 
C 2586 3053 2784 2778 2784 2125 
L 2784 0 
L 3366 0 
L 3366 2202 
C 3366 3085 3034 3565 2304 3565 
C 1830 3565 1466 3302 1139 2970 
L 1126 2970 
L 1069 3475 
L 589 3475 
L 589 0 
z
" transform="scale(0.015625)"/>
      <path id="NotoSansCJKsc-Regular-74" d="M 1677 -83 
C 1894 -83 2125 -19 2323 45 
L 2208 486 
C 2093 435 1939 390 1811 390 
C 1408 390 1274 634 1274 1056 
L 1274 3002 
L 2221 3002 
L 2221 3475 
L 1274 3475 
L 1274 4454 
L 787 4454 
L 723 3475 
L 173 3443 
L 173 3002 
L 691 3002 
L 691 1075 
C 691 378 941 -83 1677 -83 
z
" transform="scale(0.015625)"/>
      <path id="NotoSansCJKsc-Regular-73" d="M 1498 -83 
C 2317 -83 2758 384 2758 947 
C 2758 1606 2208 1811 1702 2003 
C 1312 2150 954 2278 954 2605 
C 954 2880 1158 3110 1600 3110 
C 1907 3110 2150 2976 2387 2803 
L 2669 3168 
C 2406 3386 2022 3565 1594 3565 
C 832 3565 397 3130 397 2579 
C 397 1984 922 1754 1408 1574 
C 1792 1434 2202 1267 2202 915 
C 2202 614 1978 371 1517 371 
C 1101 371 794 538 486 787 
L 205 397 
C 531 122 1005 -83 1498 -83 
z
" transform="scale(0.015625)"/>
      <path id="NotoSansCJKsc-Regular-20" transform="scale(0.015625)"/>
      <path id="NotoSansCJKsc-Regular-61" d="M 1389 -83 
C 1818 -83 2208 141 2541 416 
L 2560 416 
L 2611 0 
L 3091 0 
L 3091 2138 
C 3091 3002 2739 3565 1888 3565 
C 1325 3565 838 3315 525 3110 
L 749 2707 
C 1024 2893 1389 3078 1792 3078 
C 2362 3078 2509 2650 2509 2202 
C 1030 2035 378 1658 378 902 
C 378 275 806 -83 1389 -83 
z
M 1555 390 
C 1210 390 941 544 941 941 
C 941 1389 1338 1677 2509 1811 
L 2509 845 
C 2170 544 1888 390 1555 390 
z
" transform="scale(0.015625)"/>
      <path id="NotoSansCJKsc-Regular-72" d="M 589 0 
L 1178 0 
L 1178 2234 
C 1408 2822 1760 3040 2048 3040 
C 2195 3040 2272 3021 2387 2982 
L 2496 3488 
C 2387 3546 2278 3565 2125 3565 
C 1741 3565 1382 3283 1139 2842 
L 1126 2842 
L 1069 3475 
L 589 3475 
L 589 0 
z
" transform="scale(0.015625)"/>
      <path id="NotoSansCJKsc-Regular-65" d="M 1997 -83 
C 2464 -83 2835 70 3136 269 
L 2931 659 
C 2669 486 2400 384 2061 384 
C 1402 384 947 858 909 1600 
L 3251 1600 
C 3264 1690 3277 1805 3277 1933 
C 3277 2925 2778 3565 1888 3565 
C 1094 3565 333 2867 333 1734 
C 333 589 1069 -83 1997 -83 
z
M 902 2016 
C 973 2707 1408 3098 1901 3098 
C 2445 3098 2765 2720 2765 2016 
L 902 2016 
z
" transform="scale(0.015625)"/>
      <path id="NotoSansCJKsc-Regular-64" d="M 1773 -83 
C 2189 -83 2560 141 2829 410 
L 2848 410 
L 2899 0 
L 3379 0 
L 3379 5094 
L 2790 5094 
L 2790 3757 
L 2822 3162 
C 2515 3411 2253 3565 1843 3565 
C 1050 3565 339 2861 339 1734 
C 339 576 902 -83 1773 -83 
z
M 1901 410 
C 1293 410 941 902 941 1741 
C 941 2534 1389 3072 1946 3072 
C 2234 3072 2502 2970 2790 2707 
L 2790 883 
C 2502 563 2221 410 1901 410 
z
" transform="scale(0.015625)"/>
      <path id="NotoSansCJKsc-Regular-69" d="M 589 0 
L 1178 0 
L 1178 3475 
L 589 3475 
L 589 0 
z
M 883 4192 
C 1114 4192 1274 4346 1274 4582 
C 1274 4806 1114 4960 883 4960 
C 653 4960 499 4806 499 4582 
C 499 4346 653 4192 883 4192 
z
" transform="scale(0.015625)"/>
      <path id="NotoSansCJKsc-Regular-63" d="M 1958 -83 
C 2374 -83 2771 83 3085 352 
L 2829 749 
C 2611 557 2330 403 2010 403 
C 1370 403 934 934 934 1734 
C 934 2534 1395 3072 2029 3072 
C 2298 3072 2522 2950 2720 2771 
L 3014 3155 
C 2771 3373 2458 3565 2003 3565 
C 1107 3565 333 2893 333 1734 
C 333 582 1037 -83 1958 -83 
z
" transform="scale(0.015625)"/>
      <path id="NotoSansCJKsc-Regular-6c" d="M 1203 -83 
C 1363 -83 1459 -58 1542 -32 
L 1459 416 
C 1395 403 1370 403 1338 403 
C 1248 403 1178 474 1178 653 
L 1178 5094 
L 589 5094 
L 589 691 
C 589 198 768 -83 1203 -83 
z
" transform="scale(0.015625)"/>
      <path id="NotoSansCJKsc-Regular-68" d="M 589 0 
L 1178 0 
L 1178 2522 
C 1523 2874 1766 3053 2125 3053 
C 2586 3053 2784 2778 2784 2125 
L 2784 0 
L 3366 0 
L 3366 2202 
C 3366 3085 3034 3565 2304 3565 
C 1830 3565 1472 3302 1152 2982 
L 1178 3699 
L 1178 5094 
L 589 5094 
L 589 0 
z
" transform="scale(0.015625)"/>
      <path id="NotoSansCJKsc-Regular-79" d="M 646 -1498 
C 1338 -1498 1702 -973 1946 -294 
L 3251 3475 
L 2682 3475 
L 2054 1549 
C 1965 1235 1862 883 1773 563 
L 1741 563 
C 1619 890 1504 1242 1395 1549 
L 691 3475 
L 83 3475 
L 1478 -6 
L 1402 -269 
C 1254 -698 1011 -1018 621 -1018 
C 525 -1018 422 -986 352 -960 
L 237 -1427 
C 346 -1472 486 -1498 646 -1498 
z
" transform="scale(0.015625)"/>
      <path id="NotoSansCJKsc-Regular-6d" d="M 589 0 
L 1178 0 
L 1178 2522 
C 1491 2880 1786 3053 2048 3053 
C 2490 3053 2694 2778 2694 2125 
L 2694 0 
L 3277 0 
L 3277 2522 
C 3603 2880 3885 3053 4154 3053 
C 4595 3053 4800 2778 4800 2125 
L 4800 0 
L 5382 0 
L 5382 2202 
C 5382 3085 5043 3565 4333 3565 
C 3904 3565 3546 3290 3181 2899 
C 3040 3309 2758 3565 2221 3565 
C 1805 3565 1446 3302 1139 2970 
L 1126 2970 
L 1069 3475 
L 589 3475 
L 589 0 
z
" transform="scale(0.015625)"/>
      <path id="NotoSansCJKsc-Regular-7a" d="M 224 0 
L 2854 0 
L 2854 474 
L 960 474 
L 2797 3162 
L 2797 3475 
L 422 3475 
L 422 3002 
L 2054 3002 
L 224 314 
L 224 0 
z
" transform="scale(0.015625)"/>
      <path id="NotoSansCJKsc-Regular-76" d="M 1338 0 
L 2022 0 
L 3251 3475 
L 2675 3475 
L 2016 1498 
C 1914 1158 1798 806 1696 474 
L 1664 474 
C 1562 806 1453 1158 1344 1498 
L 691 3475 
L 83 3475 
L 1338 0 
z
" transform="scale(0.015625)"/>
      <path id="NotoSansCJKsc-Regular-3b" d="M 890 2496 
C 1120 2496 1312 2675 1312 2944 
C 1312 3206 1120 3392 890 3392 
C 653 3392 467 3206 467 2944 
C 467 2675 653 2496 890 2496 
z
M 480 -1216 
C 1056 -973 1414 -493 1414 122 
C 1414 550 1229 806 922 806 
C 685 806 480 653 480 397 
C 480 141 678 -13 909 -13 
L 979 -6 
C 973 -390 736 -698 339 -870 
L 480 -1216 
z
" transform="scale(0.015625)"/>
      <path id="NotoSansCJKsc-Regular-62" d="M 2118 -83 
C 2912 -83 3629 602 3629 1792 
C 3629 2867 3142 3565 2246 3565 
C 1856 3565 1472 3347 1152 3078 
L 1178 3699 
L 1178 5094 
L 589 5094 
L 589 0 
L 1056 0 
L 1107 358 
L 1133 358 
C 1434 83 1798 -83 2118 -83 
z
M 2022 410 
C 1792 410 1478 499 1178 768 
L 1178 2598 
C 1504 2906 1811 3072 2099 3072 
C 2765 3072 3021 2560 3021 1786 
C 3021 928 2598 410 2022 410 
z
" transform="scale(0.015625)"/>
      <path id="NotoSansCJKsc-Regular-77" d="M 1139 0 
L 1818 0 
L 2310 1862 
C 2400 2195 2470 2522 2547 2874 
L 2579 2874 
C 2662 2522 2726 2202 2816 1875 
L 3315 0 
L 4026 0 
L 4966 3475 
L 4403 3475 
L 3898 1466 
C 3821 1133 3757 819 3686 499 
L 3654 499 
C 3571 819 3494 1133 3411 1466 
L 2867 3475 
L 2298 3475 
L 1754 1466 
C 1670 1133 1594 819 1523 499 
L 1491 499 
C 1421 819 1357 1133 1286 1466 
L 768 3475 
L 173 3475 
L 1139 0 
z
" transform="scale(0.015625)"/>
      <path id="NotoSansCJKsc-Regular-70" d="M 589 -1466 
L 1178 -1466 
L 1178 -288 
L 1158 320 
C 1472 58 1805 -83 2118 -83 
C 2912 -83 3629 602 3629 1792 
C 3629 2867 3142 3565 2246 3565 
C 1843 3565 1453 3334 1139 3072 
L 1126 3072 
L 1069 3475 
L 589 3475 
L 589 -1466 
z
M 2022 410 
C 1792 410 1485 499 1178 768 
L 1178 2598 
C 1510 2906 1811 3072 2099 3072 
C 2765 3072 3021 2560 3021 1786 
C 3021 928 2598 410 2022 410 
z
" transform="scale(0.015625)"/>
      <path id="NotoSansCJKsc-Regular-2e" d="M 890 -83 
C 1120 -83 1312 96 1312 358 
C 1312 627 1120 806 890 806 
C 653 806 467 627 467 358 
C 467 96 653 -83 890 -83 
z
" transform="scale(0.015625)"/>
     </defs>
     <use xlink:href="#NotoSansCJKsc-Regular-43"/>
     <use xlink:href="#NotoSansCJKsc-Regular-6f" transform="translate(63.799988 0)"/>
     <use xlink:href="#NotoSansCJKsc-Regular-75" transform="translate(124.399979 0)"/>
     <use xlink:href="#NotoSansCJKsc-Regular-6e" transform="translate(185.099976 0)"/>
     <use xlink:href="#NotoSansCJKsc-Regular-74" transform="translate(246.09996 0)"/>
     <use xlink:href="#NotoSansCJKsc-Regular-73" transform="translate(283.799957 0)"/>
     <use xlink:href="#NotoSansCJKsc-Regular-20" transform="translate(330.599945 0)"/>
     <use xlink:href="#NotoSansCJKsc-Regular-61" transform="translate(352.999939 0)"/>
     <use xlink:href="#NotoSansCJKsc-Regular-72" transform="translate(409.299927 0)"/>
     <use xlink:href="#NotoSansCJKsc-Regular-65" transform="translate(448.099915 0)"/>
     <use xlink:href="#NotoSansCJKsc-Regular-20" transform="translate(503.499908 0)"/>
     <use xlink:href="#NotoSansCJKsc-Regular-6e" transform="translate(525.899902 0)"/>
     <use xlink:href="#NotoSansCJKsc-Regular-6f" transform="translate(586.899887 0)"/>
     <use xlink:href="#NotoSansCJKsc-Regular-74" transform="translate(647.499878 0)"/>
     <use xlink:href="#NotoSansCJKsc-Regular-20" transform="translate(685.199875 0)"/>
     <use xlink:href="#NotoSansCJKsc-Regular-64" transform="translate(707.599869 0)"/>
     <use xlink:href="#NotoSansCJKsc-Regular-69" transform="translate(769.599854 0)"/>
     <use xlink:href="#NotoSansCJKsc-Regular-73" transform="translate(797.099838 0)"/>
     <use xlink:href="#NotoSansCJKsc-Regular-63" transform="translate(843.899826 0)"/>
     <use xlink:href="#NotoSansCJKsc-Regular-6c" transform="translate(894.899811 0)"/>
     <use xlink:href="#NotoSansCJKsc-Regular-6f" transform="translate(923.299805 0)"/>
     <use xlink:href="#NotoSansCJKsc-Regular-73" transform="translate(983.899796 0)"/>
     <use xlink:href="#NotoSansCJKsc-Regular-65" transform="translate(1030.699783 0)"/>
     <use xlink:href="#NotoSansCJKsc-Regular-64" transform="translate(1086.099777 0)"/>
     <use xlink:href="#NotoSansCJKsc-Regular-20" transform="translate(1148.099762 0)"/>
     <use xlink:href="#NotoSansCJKsc-Regular-69" transform="translate(1170.499756 0)"/>
     <use xlink:href="#NotoSansCJKsc-Regular-6e" transform="translate(1197.999741 0)"/>
     <use xlink:href="#NotoSansCJKsc-Regular-20" transform="translate(1258.999725 0)"/>
     <use xlink:href="#NotoSansCJKsc-Regular-74" transform="translate(1281.399719 0)"/>
     <use xlink:href="#NotoSansCJKsc-Regular-68" transform="translate(1319.099716 0)"/>
     <use xlink:href="#NotoSansCJKsc-Regular-65" transform="translate(1379.799713 0)"/>
     <use xlink:href="#NotoSansCJKsc-Regular-20" transform="translate(1435.199707 0)"/>
     <use xlink:href="#NotoSansCJKsc-Regular-61" transform="translate(1457.599701 0)"/>
     <use xlink:href="#NotoSansCJKsc-Regular-6e" transform="translate(1513.899689 0)"/>
     <use xlink:href="#NotoSansCJKsc-Regular-6f" transform="translate(1574.899673 0)"/>
     <use xlink:href="#NotoSansCJKsc-Regular-6e" transform="translate(1635.499664 0)"/>
     <use xlink:href="#NotoSansCJKsc-Regular-79" transform="translate(1696.499649 0)"/>
     <use xlink:href="#NotoSansCJKsc-Regular-6d" transform="translate(1748.59964 0)"/>
     <use xlink:href="#NotoSansCJKsc-Regular-69" transform="translate(1841.199631 0)"/>
     <use xlink:href="#NotoSansCJKsc-Regular-7a" transform="translate(1868.699615 0)"/>
     <use xlink:href="#NotoSansCJKsc-Regular-65" transform="translate(1916.1996 0)"/>
     <use xlink:href="#NotoSansCJKsc-Regular-64" transform="translate(1971.599594 0)"/>
     <use xlink:href="#NotoSansCJKsc-Regular-20" transform="translate(2033.599579 0)"/>
     <use xlink:href="#NotoSansCJKsc-Regular-76" transform="translate(2055.999573 0)"/>
     <use xlink:href="#NotoSansCJKsc-Regular-65" transform="translate(2108.099564 0)"/>
     <use xlink:href="#NotoSansCJKsc-Regular-72" transform="translate(2163.499557 0)"/>
     <use xlink:href="#NotoSansCJKsc-Regular-73" transform="translate(2202.299545 0)"/>
     <use xlink:href="#NotoSansCJKsc-Regular-69" transform="translate(2249.099533 0)"/>
     <use xlink:href="#NotoSansCJKsc-Regular-6f" transform="translate(2276.599518 0)"/>
     <use xlink:href="#NotoSansCJKsc-Regular-6e" transform="translate(2337.199509 0)"/>
     <use xlink:href="#NotoSansCJKsc-Regular-3b" transform="translate(2398.199493 0)"/>
     <use xlink:href="#NotoSansCJKsc-Regular-20" transform="translate(2425.999481 0)"/>
     <use xlink:href="#NotoSansCJKsc-Regular-62" transform="translate(2448.399475 0)"/>
     <use xlink:href="#NotoSansCJKsc-Regular-65" transform="translate(2510.199463 0)"/>
     <use xlink:href="#NotoSansCJKsc-Regular-6c" transform="translate(2565.599457 0)"/>
     <use xlink:href="#NotoSansCJKsc-Regular-6f" transform="translate(2593.999451 0)"/>
     <use xlink:href="#NotoSansCJKsc-Regular-77" transform="translate(2654.599442 0)"/>
     <use xlink:href="#NotoSansCJKsc-Regular-20" transform="translate(2734.799423 0)"/>
     <use xlink:href="#NotoSansCJKsc-Regular-73" transform="translate(2757.199417 0)"/>
     <use xlink:href="#NotoSansCJKsc-Regular-68" transform="translate(2803.999405 0)"/>
     <use xlink:href="#NotoSansCJKsc-Regular-6f" transform="translate(2864.699402 0)"/>
     <use xlink:href="#NotoSansCJKsc-Regular-77" transform="translate(2925.299393 0)"/>
     <use xlink:href="#NotoSansCJKsc-Regular-73" transform="translate(3005.499374 0)"/>
     <use xlink:href="#NotoSansCJKsc-Regular-20" transform="translate(3052.299362 0)"/>
     <use xlink:href="#NotoSansCJKsc-Regular-74" transform="translate(3074.699356 0)"/>
     <use xlink:href="#NotoSansCJKsc-Regular-68" transform="translate(3112.399353 0)"/>
     <use xlink:href="#NotoSansCJKsc-Regular-65" transform="translate(3173.09935 0)"/>
     <use xlink:href="#NotoSansCJKsc-Regular-20" transform="translate(3228.499344 0)"/>
     <use xlink:href="#NotoSansCJKsc-Regular-73" transform="translate(3250.899338 0)"/>
     <use xlink:href="#NotoSansCJKsc-Regular-75" transform="translate(3297.699326 0)"/>
     <use xlink:href="#NotoSansCJKsc-Regular-70" transform="translate(3358.399323 0)"/>
     <use xlink:href="#NotoSansCJKsc-Regular-65" transform="translate(3420.399307 0)"/>
     <use xlink:href="#NotoSansCJKsc-Regular-72" transform="translate(3475.799301 0)"/>
     <use xlink:href="#NotoSansCJKsc-Regular-76" transform="translate(3514.599289 0)"/>
     <use xlink:href="#NotoSansCJKsc-Regular-69" transform="translate(3566.69928 0)"/>
     <use xlink:href="#NotoSansCJKsc-Regular-73" transform="translate(3594.199265 0)"/>
     <use xlink:href="#NotoSansCJKsc-Regular-69" transform="translate(3640.999252 0)"/>
     <use xlink:href="#NotoSansCJKsc-Regular-6f" transform="translate(3668.499237 0)"/>
     <use xlink:href="#NotoSansCJKsc-Regular-6e" transform="translate(3729.099228 0)"/>
     <use xlink:href="#NotoSansCJKsc-Regular-20" transform="translate(3790.099213 0)"/>
     <use xlink:href="#NotoSansCJKsc-Regular-73" transform="translate(3812.499207 0)"/>
     <use xlink:href="#NotoSansCJKsc-Regular-63" transform="translate(3859.299194 0)"/>
     <use xlink:href="#NotoSansCJKsc-Regular-68" transform="translate(3910.299179 0)"/>
     <use xlink:href="#NotoSansCJKsc-Regular-65" transform="translate(3970.999176 0)"/>
     <use xlink:href="#NotoSansCJKsc-Regular-6d" transform="translate(4026.39917 0)"/>
     <use xlink:href="#NotoSansCJKsc-Regular-61" transform="translate(4118.999161 0)"/>
     <use xlink:href="#NotoSansCJKsc-Regular-2e" transform="translate(4175.299149 0)"/>
    </g>
   </g>
   <g id="text_3">
    <!-- Deceptive -->
    <g style="fill: #e11d48" transform="translate(110.429016 99.844361) scale(0.11 -0.11)">
     <defs>
      <path id="NotoSansCJKsc-Bold-44" d="M 582 0 
L 1933 0 
C 3334 0 4224 794 4224 2394 
C 4224 3987 3334 4742 1882 4742 
L 582 4742 
L 582 0 
z
M 1530 768 
L 1530 3981 
L 1818 3981 
C 2707 3981 3258 3546 3258 2394 
C 3258 1242 2707 768 1818 768 
L 1530 768 
z
" transform="scale(0.015625)"/>
      <path id="NotoSansCJKsc-Bold-76" d="M 1312 0 
L 2400 0 
L 3597 3584 
L 2694 3584 
L 2170 1798 
C 2074 1446 1978 1075 1882 710 
L 1850 710 
C 1747 1075 1658 1446 1555 1798 
L 1037 3584 
L 90 3584 
L 1312 0 
z
" transform="scale(0.015625)"/>
     </defs>
     <use xlink:href="#NotoSansCJKsc-Bold-44"/>
     <use xlink:href="#NotoSansCJKsc-Bold-65" transform="translate(71.399994 0)"/>
     <use xlink:href="#NotoSansCJKsc-Bold-63" transform="translate(129.499985 0)"/>
     <use xlink:href="#NotoSansCJKsc-Bold-65" transform="translate(182.199982 0)"/>
     <use xlink:href="#NotoSansCJKsc-Bold-70" transform="translate(240.299973 0)"/>
     <use xlink:href="#NotoSansCJKsc-Bold-74" transform="translate(304.699966 0)"/>
     <use xlink:href="#NotoSansCJKsc-Bold-69" transform="translate(346.799957 0)"/>
     <use xlink:href="#NotoSansCJKsc-Bold-76" transform="translate(377.199951 0)"/>
     <use xlink:href="#NotoSansCJKsc-Bold-65" transform="translate(434.799942 0)"/>
    </g>
   </g>
   <g id="text_4">
    <!-- false claims -->
    <g style="fill: #475569" transform="translate(113.039719 111.725726) scale(0.09 -0.09)">
     <defs>
      <path id="NotoSansCJKsc-Regular-66" d="M 211 3002 
L 685 3002 
L 685 0 
L 1267 0 
L 1267 3002 
L 2003 3002 
L 2003 3475 
L 1267 3475 
L 1267 4026 
C 1267 4474 1427 4710 1760 4710 
C 1882 4710 2022 4678 2150 4614 
L 2278 5069 
C 2118 5133 1914 5178 1696 5178 
C 1005 5178 685 4736 685 4032 
L 685 3475 
L 211 3443 
L 211 3002 
z
" transform="scale(0.015625)"/>
     </defs>
     <use xlink:href="#NotoSansCJKsc-Regular-66"/>
     <use xlink:href="#NotoSansCJKsc-Regular-61" transform="translate(32.499985 0)"/>
     <use xlink:href="#NotoSansCJKsc-Regular-6c" transform="translate(88.799973 0)"/>
     <use xlink:href="#NotoSansCJKsc-Regular-73" transform="translate(117.199966 0)"/>
     <use xlink:href="#NotoSansCJKsc-Regular-65" transform="translate(163.999954 0)"/>
     <use xlink:href="#NotoSansCJKsc-Regular-20" transform="translate(219.399948 0)"/>
     <use xlink:href="#NotoSansCJKsc-Regular-63" transform="translate(241.799942 0)"/>
     <use xlink:href="#NotoSansCJKsc-Regular-6c" transform="translate(292.799927 0)"/>
     <use xlink:href="#NotoSansCJKsc-Regular-61" transform="translate(321.199921 0)"/>
     <use xlink:href="#NotoSansCJKsc-Regular-69" transform="translate(377.499908 0)"/>
     <use xlink:href="#NotoSansCJKsc-Regular-6d" transform="translate(404.999893 0)"/>
     <use xlink:href="#NotoSansCJKsc-Regular-73" transform="translate(497.599884 0)"/>
    </g>
   </g>
   <g id="text_5">
    <!-- misleading odds -->
    <g style="fill: #475569" transform="translate(102.991359 123.090926) scale(0.09 -0.09)">
     <defs>
      <path id="NotoSansCJKsc-Regular-67" d="M 1760 -1600 
C 2835 -1600 3520 -1043 3520 -397 
C 3520 179 3110 429 2310 429 
L 1626 429 
C 1158 429 1018 589 1018 806 
C 1018 998 1114 1114 1242 1222 
C 1395 1146 1587 1101 1754 1101 
C 2470 1101 3027 1568 3027 2310 
C 3027 2611 2912 2867 2746 3027 
L 3456 3027 
L 3456 3475 
L 2246 3475 
C 2125 3526 1952 3565 1754 3565 
C 1056 3565 454 3085 454 2323 
C 454 1907 678 1568 909 1389 
L 909 1363 
C 723 1235 525 1005 525 717 
C 525 442 659 256 838 147 
L 838 115 
C 512 -83 326 -371 326 -672 
C 326 -1267 915 -1600 1760 -1600 
z
M 1754 1498 
C 1357 1498 1018 1818 1018 2323 
C 1018 2835 1350 3136 1754 3136 
C 2170 3136 2496 2835 2496 2323 
C 2496 1818 2157 1498 1754 1498 
z
M 1843 -1197 
C 1210 -1197 838 -960 838 -589 
C 838 -390 941 -179 1190 0 
C 1344 -38 1510 -51 1638 -51 
L 2240 -51 
C 2701 -51 2944 -166 2944 -493 
C 2944 -851 2515 -1197 1843 -1197 
z
" transform="scale(0.015625)"/>
     </defs>
     <use xlink:href="#NotoSansCJKsc-Regular-6d"/>
     <use xlink:href="#NotoSansCJKsc-Regular-69" transform="translate(92.599991 0)"/>
     <use xlink:href="#NotoSansCJKsc-Regular-73" transform="translate(120.099976 0)"/>
     <use xlink:href="#NotoSansCJKsc-Regular-6c" transform="translate(166.899963 0)"/>
     <use xlink:href="#NotoSansCJKsc-Regular-65" transform="translate(195.299957 0)"/>
     <use xlink:href="#NotoSansCJKsc-Regular-61" transform="translate(250.699951 0)"/>
     <use xlink:href="#NotoSansCJKsc-Regular-64" transform="translate(306.999939 0)"/>
     <use xlink:href="#NotoSansCJKsc-Regular-69" transform="translate(368.999924 0)"/>
     <use xlink:href="#NotoSansCJKsc-Regular-6e" transform="translate(396.499908 0)"/>
     <use xlink:href="#NotoSansCJKsc-Regular-67" transform="translate(457.499893 0)"/>
     <use xlink:href="#NotoSansCJKsc-Regular-20" transform="translate(513.899887 0)"/>
     <use xlink:href="#NotoSansCJKsc-Regular-6f" transform="translate(536.299881 0)"/>
     <use xlink:href="#NotoSansCJKsc-Regular-64" transform="translate(596.899872 0)"/>
     <use xlink:href="#NotoSansCJKsc-Regular-64" transform="translate(658.899857 0)"/>
     <use xlink:href="#NotoSansCJKsc-Regular-73" transform="translate(720.899841 0)"/>
    </g>
   </g>
   <g id="text_6">
    <!-- bait -->
    <g style="fill: #475569" transform="translate(129.289641 134.456126) scale(0.09 -0.09)">
     <use xlink:href="#NotoSansCJKsc-Regular-62"/>
     <use xlink:href="#NotoSansCJKsc-Regular-61" transform="translate(61.799988 0)"/>
     <use xlink:href="#NotoSansCJKsc-Regular-69" transform="translate(118.099976 0)"/>
     <use xlink:href="#NotoSansCJKsc-Regular-74" transform="translate(145.59996 0)"/>
    </g>
   </g>
   <g id="text_7">
    <!-- Manipulative -->
    <g style="fill: #d97706" transform="translate(280.022031 99.844361) scale(0.11 -0.11)">
     <defs>
      <path id="NotoSansCJKsc-Bold-4d" d="M 582 0 
L 1434 0 
L 1434 1978 
C 1434 2432 1357 3085 1312 3533 
L 1338 3533 
L 1715 2419 
L 2451 429 
L 2995 429 
L 3725 2419 
L 4109 3533 
L 4141 3533 
C 4090 3085 4019 2432 4019 1978 
L 4019 0 
L 4883 0 
L 4883 4742 
L 3834 4742 
L 3040 2515 
C 2944 2227 2861 1914 2758 1613 
L 2726 1613 
C 2630 1914 2541 2227 2438 2515 
L 1632 4742 
L 582 4742 
L 582 0 
z
" transform="scale(0.015625)"/>
     </defs>
     <use xlink:href="#NotoSansCJKsc-Bold-4d"/>
     <use xlink:href="#NotoSansCJKsc-Bold-61" transform="translate(85.299988 0)"/>
     <use xlink:href="#NotoSansCJKsc-Bold-6e" transform="translate(144.399979 0)"/>
     <use xlink:href="#NotoSansCJKsc-Bold-69" transform="translate(208.499969 0)"/>
     <use xlink:href="#NotoSansCJKsc-Bold-70" transform="translate(238.899963 0)"/>
     <use xlink:href="#NotoSansCJKsc-Bold-75" transform="translate(303.299957 0)"/>
     <use xlink:href="#NotoSansCJKsc-Bold-6c" transform="translate(366.999954 0)"/>
     <use xlink:href="#NotoSansCJKsc-Bold-61" transform="translate(398.499939 0)"/>
     <use xlink:href="#NotoSansCJKsc-Bold-74" transform="translate(457.59993 0)"/>
     <use xlink:href="#NotoSansCJKsc-Bold-69" transform="translate(499.699921 0)"/>
     <use xlink:href="#NotoSansCJKsc-Bold-76" transform="translate(530.099915 0)"/>
     <use xlink:href="#NotoSansCJKsc-Bold-65" transform="translate(587.699905 0)"/>
    </g>
   </g>
   <g id="text_8">
    <!-- pressure -->
    <g style="fill: #475569" transform="translate(297.328359 111.725726) scale(0.09 -0.09)">
     <use xlink:href="#NotoSansCJKsc-Regular-70"/>
     <use xlink:href="#NotoSansCJKsc-Regular-72" transform="translate(61.999985 0)"/>
     <use xlink:href="#NotoSansCJKsc-Regular-65" transform="translate(100.799973 0)"/>
     <use xlink:href="#NotoSansCJKsc-Regular-73" transform="translate(156.199966 0)"/>
     <use xlink:href="#NotoSansCJKsc-Regular-73" transform="translate(202.999954 0)"/>
     <use xlink:href="#NotoSansCJKsc-Regular-75" transform="translate(249.799942 0)"/>
     <use xlink:href="#NotoSansCJKsc-Regular-72" transform="translate(310.499939 0)"/>
     <use xlink:href="#NotoSansCJKsc-Regular-65" transform="translate(349.299927 0)"/>
    </g>
   </g>
   <g id="text_9">
    <!-- FOMO -->
    <g style="fill: #475569" transform="translate(302.723438 123.090926) scale(0.09 -0.09)">
     <defs>
      <path id="NotoSansCJKsc-Regular-46" d="M 646 0 
L 1235 0 
L 1235 2106 
L 3027 2106 
L 3027 2605 
L 1235 2605 
L 1235 4192 
L 3347 4192 
L 3347 4691 
L 646 4691 
L 646 0 
z
" transform="scale(0.015625)"/>
      <path id="NotoSansCJKsc-Regular-4f" d="M 2374 -83 
C 3552 -83 4378 858 4378 2362 
C 4378 3866 3552 4774 2374 4774 
C 1197 4774 371 3866 371 2362 
C 371 858 1197 -83 2374 -83 
z
M 2374 435 
C 1530 435 979 1190 979 2362 
C 979 3533 1530 4256 2374 4256 
C 3219 4256 3770 3533 3770 2362 
C 3770 1190 3219 435 2374 435 
z
" transform="scale(0.015625)"/>
      <path id="NotoSansCJKsc-Regular-4d" d="M 646 0 
L 1178 0 
L 1178 2598 
C 1178 3002 1139 3571 1101 3981 
L 1126 3981 
L 1504 2912 
L 2394 474 
L 2790 474 
L 3674 2912 
L 4051 3981 
L 4077 3981 
C 4045 3571 4000 3002 4000 2598 
L 4000 0 
L 4550 0 
L 4550 4691 
L 3840 4691 
L 2944 2182 
C 2835 1862 2739 1530 2618 1203 
L 2592 1203 
C 2477 1530 2374 1862 2253 2182 
L 1357 4691 
L 646 4691 
L 646 0 
z
" transform="scale(0.015625)"/>
     </defs>
     <use xlink:href="#NotoSansCJKsc-Regular-46"/>
     <use xlink:href="#NotoSansCJKsc-Regular-4f" transform="translate(55.199997 0)"/>
     <use xlink:href="#NotoSansCJKsc-Regular-4d" transform="translate(129.399979 0)"/>
     <use xlink:href="#NotoSansCJKsc-Regular-4f" transform="translate(210.59996 0)"/>
    </g>
   </g>
   <g id="text_10">
    <!-- dark patterns -->
    <g style="fill: #475569" transform="translate(287.171719 134.456126) scale(0.09 -0.09)">
     <defs>
      <path id="NotoSansCJKsc-Regular-6b" d="M 589 0 
L 1165 0 
L 1165 915 
L 1818 1677 
L 2835 0 
L 3469 0 
L 2157 2074 
L 3315 3475 
L 2662 3475 
L 1190 1645 
L 1165 1645 
L 1165 5094 
L 589 5094 
L 589 0 
z
" transform="scale(0.015625)"/>
     </defs>
     <use xlink:href="#NotoSansCJKsc-Regular-64"/>
     <use xlink:href="#NotoSansCJKsc-Regular-61" transform="translate(61.999985 0)"/>
     <use xlink:href="#NotoSansCJKsc-Regular-72" transform="translate(118.299973 0)"/>
     <use xlink:href="#NotoSansCJKsc-Regular-6b" transform="translate(157.09996 0)"/>
     <use xlink:href="#NotoSansCJKsc-Regular-20" transform="translate(212.299957 0)"/>
     <use xlink:href="#NotoSansCJKsc-Regular-70" transform="translate(234.699951 0)"/>
     <use xlink:href="#NotoSansCJKsc-Regular-61" transform="translate(296.699936 0)"/>
     <use xlink:href="#NotoSansCJKsc-Regular-74" transform="translate(352.999924 0)"/>
     <use xlink:href="#NotoSansCJKsc-Regular-74" transform="translate(390.699921 0)"/>
     <use xlink:href="#NotoSansCJKsc-Regular-65" transform="translate(428.399918 0)"/>
     <use xlink:href="#NotoSansCJKsc-Regular-72" transform="translate(483.799911 0)"/>
     <use xlink:href="#NotoSansCJKsc-Regular-6e" transform="translate(522.599899 0)"/>
     <use xlink:href="#NotoSansCJKsc-Regular-73" transform="translate(583.599884 0)"/>
    </g>
   </g>
   <g id="text_11">
    <!-- Responsible -->
    <g style="fill: #10b981" transform="translate(460.498172 99.844361) scale(0.11 -0.11)">
     <defs>
      <path id="NotoSansCJKsc-Bold-52" d="M 1530 2541 
L 1530 3987 
L 2144 3987 
C 2752 3987 3085 3814 3085 3302 
C 3085 2797 2752 2541 2144 2541 
L 1530 2541 
z
M 3162 0 
L 4218 0 
L 3110 1939 
C 3654 2150 4013 2592 4013 3302 
C 4013 4390 3226 4742 2227 4742 
L 582 4742 
L 582 0 
L 1530 0 
L 1530 1792 
L 2189 1792 
L 3162 0 
z
" transform="scale(0.015625)"/>
      <path id="NotoSansCJKsc-Bold-6f" d="M 2003 -90 
C 2899 -90 3725 602 3725 1792 
C 3725 2982 2899 3674 2003 3674 
C 1101 3674 282 2982 282 1792 
C 282 602 1101 -90 2003 -90 
z
M 2003 678 
C 1510 678 1242 1114 1242 1792 
C 1242 2464 1510 2906 2003 2906 
C 2490 2906 2765 2464 2765 1792 
C 2765 1114 2490 678 2003 678 
z
" transform="scale(0.015625)"/>
      <path id="NotoSansCJKsc-Bold-62" d="M 2304 -90 
C 3091 -90 3827 621 3827 1856 
C 3827 2950 3296 3674 2413 3674 
C 2061 3674 1702 3501 1414 3245 
L 1446 3821 
L 1446 5107 
L 506 5107 
L 506 0 
L 1242 0 
L 1318 378 
L 1350 378 
C 1638 77 1984 -90 2304 -90 
z
M 2099 685 
C 1901 685 1664 755 1446 954 
L 1446 2534 
C 1690 2778 1907 2899 2150 2899 
C 2643 2899 2861 2522 2861 1837 
C 2861 1056 2522 685 2099 685 
z
" transform="scale(0.015625)"/>
     </defs>
     <use xlink:href="#NotoSansCJKsc-Bold-52"/>
     <use xlink:href="#NotoSansCJKsc-Bold-65" transform="translate(68.199982 0)"/>
     <use xlink:href="#NotoSansCJKsc-Bold-73" transform="translate(126.299973 0)"/>
     <use xlink:href="#NotoSansCJKsc-Bold-70" transform="translate(175.799957 0)"/>
     <use xlink:href="#NotoSansCJKsc-Bold-6f" transform="translate(240.199951 0)"/>
     <use xlink:href="#NotoSansCJKsc-Bold-6e" transform="translate(302.799942 0)"/>
     <use xlink:href="#NotoSansCJKsc-Bold-73" transform="translate(366.899933 0)"/>
     <use xlink:href="#NotoSansCJKsc-Bold-69" transform="translate(416.399918 0)"/>
     <use xlink:href="#NotoSansCJKsc-Bold-62" transform="translate(446.799911 0)"/>
     <use xlink:href="#NotoSansCJKsc-Bold-6c" transform="translate(511.199905 0)"/>
     <use xlink:href="#NotoSansCJKsc-Bold-65" transform="translate(542.69989 0)"/>
    </g>
   </g>
   <g id="text_12">
    <!-- balanced -->
    <g style="fill: #475569" transform="translate(474.092859 111.725726) scale(0.09 -0.09)">
     <use xlink:href="#NotoSansCJKsc-Regular-62"/>
     <use xlink:href="#NotoSansCJKsc-Regular-61" transform="translate(61.799988 0)"/>
     <use xlink:href="#NotoSansCJKsc-Regular-6c" transform="translate(118.099976 0)"/>
     <use xlink:href="#NotoSansCJKsc-Regular-61" transform="translate(146.499969 0)"/>
     <use xlink:href="#NotoSansCJKsc-Regular-6e" transform="translate(202.799957 0)"/>
     <use xlink:href="#NotoSansCJKsc-Regular-63" transform="translate(263.799942 0)"/>
     <use xlink:href="#NotoSansCJKsc-Regular-65" transform="translate(314.799927 0)"/>
     <use xlink:href="#NotoSansCJKsc-Regular-64" transform="translate(370.199921 0)"/>
    </g>
   </g>
   <g id="text_13">
    <!-- warning -->
    <g style="fill: #475569" transform="translate(476.387859 122.902488) scale(0.09 -0.09)">
     <use xlink:href="#NotoSansCJKsc-Regular-77"/>
     <use xlink:href="#NotoSansCJKsc-Regular-61" transform="translate(80.199982 0)"/>
     <use xlink:href="#NotoSansCJKsc-Regular-72" transform="translate(136.499969 0)"/>
     <use xlink:href="#NotoSansCJKsc-Regular-6e" transform="translate(175.299957 0)"/>
     <use xlink:href="#NotoSansCJKsc-Regular-69" transform="translate(236.299942 0)"/>
     <use xlink:href="#NotoSansCJKsc-Regular-6e" transform="translate(263.799927 0)"/>
     <use xlink:href="#NotoSansCJKsc-Regular-67" transform="translate(324.799911 0)"/>
    </g>
   </g>
   <g id="text_14">
    <!-- no coercion -->
    <g style="fill: #475569" transform="translate(468.796922 134.456126) scale(0.09 -0.09)">
     <use xlink:href="#NotoSansCJKsc-Regular-6e"/>
     <use xlink:href="#NotoSansCJKsc-Regular-6f" transform="translate(60.999985 0)"/>
     <use xlink:href="#NotoSansCJKsc-Regular-20" transform="translate(121.599976 0)"/>
     <use xlink:href="#NotoSansCJKsc-Regular-63" transform="translate(143.999969 0)"/>
     <use xlink:href="#NotoSansCJKsc-Regular-6f" transform="translate(194.999954 0)"/>
     <use xlink:href="#NotoSansCJKsc-Regular-65" transform="translate(255.599945 0)"/>
     <use xlink:href="#NotoSansCJKsc-Regular-72" transform="translate(310.999939 0)"/>
     <use xlink:href="#NotoSansCJKsc-Regular-63" transform="translate(349.799927 0)"/>
     <use xlink:href="#NotoSansCJKsc-Regular-69" transform="translate(400.799911 0)"/>
     <use xlink:href="#NotoSansCJKsc-Regular-6f" transform="translate(428.299896 0)"/>
     <use xlink:href="#NotoSansCJKsc-Regular-6e" transform="translate(488.899887 0)"/>
    </g>
   </g>
   <g id="text_15">
    <!-- Each sample includes a human-written explanation for why the label applies. -->
    <g style="fill: #475569" transform="translate(140.261641 197.84678) scale(0.098 -0.098)">
     <defs>
      <path id="NotoSansCJKsc-Regular-45" d="M 646 0 
L 3418 0 
L 3418 506 
L 1235 506 
L 1235 2214 
L 3014 2214 
L 3014 2720 
L 1235 2720 
L 1235 4192 
L 3347 4192 
L 3347 4691 
L 646 4691 
L 646 0 
z
" transform="scale(0.015625)"/>
      <path id="NotoSansCJKsc-Regular-2d" d="M 294 1568 
L 1933 1568 
L 1933 2016 
L 294 2016 
L 294 1568 
z
" transform="scale(0.015625)"/>
      <path id="NotoSansCJKsc-Regular-78" d="M 96 0 
L 710 0 
L 1178 813 
C 1299 1024 1408 1235 1530 1434 
L 1562 1434 
C 1696 1235 1824 1024 1939 813 
L 2451 0 
L 3091 0 
L 1946 1754 
L 3002 3475 
L 2394 3475 
L 1965 2714 
C 1856 2515 1760 2330 1658 2131 
L 1626 2131 
C 1510 2330 1389 2515 1286 2714 
L 819 3475 
L 186 3475 
L 1242 1811 
L 96 0 
z
" transform="scale(0.015625)"/>
     </defs>
     <use xlink:href="#NotoSansCJKsc-Regular-45"/>
     <use xlink:href="#NotoSansCJKsc-Regular-61" transform="translate(58.899994 0)"/>
     <use xlink:href="#NotoSansCJKsc-Regular-63" transform="translate(115.199982 0)"/>
     <use xlink:href="#NotoSansCJKsc-Regular-68" transform="translate(166.199966 0)"/>
     <use xlink:href="#NotoSansCJKsc-Regular-20" transform="translate(226.899963 0)"/>
     <use xlink:href="#NotoSansCJKsc-Regular-73" transform="translate(249.299957 0)"/>
     <use xlink:href="#NotoSansCJKsc-Regular-61" transform="translate(296.099945 0)"/>
     <use xlink:href="#NotoSansCJKsc-Regular-6d" transform="translate(352.399933 0)"/>
     <use xlink:href="#NotoSansCJKsc-Regular-70" transform="translate(444.999924 0)"/>
     <use xlink:href="#NotoSansCJKsc-Regular-6c" transform="translate(506.999908 0)"/>
     <use xlink:href="#NotoSansCJKsc-Regular-65" transform="translate(535.399902 0)"/>
     <use xlink:href="#NotoSansCJKsc-Regular-20" transform="translate(590.799896 0)"/>
     <use xlink:href="#NotoSansCJKsc-Regular-69" transform="translate(613.19989 0)"/>
     <use xlink:href="#NotoSansCJKsc-Regular-6e" transform="translate(640.699875 0)"/>
     <use xlink:href="#NotoSansCJKsc-Regular-63" transform="translate(701.69986 0)"/>
     <use xlink:href="#NotoSansCJKsc-Regular-6c" transform="translate(752.699844 0)"/>
     <use xlink:href="#NotoSansCJKsc-Regular-75" transform="translate(781.099838 0)"/>
     <use xlink:href="#NotoSansCJKsc-Regular-64" transform="translate(841.799835 0)"/>
     <use xlink:href="#NotoSansCJKsc-Regular-65" transform="translate(903.79982 0)"/>
     <use xlink:href="#NotoSansCJKsc-Regular-73" transform="translate(959.199814 0)"/>
     <use xlink:href="#NotoSansCJKsc-Regular-20" transform="translate(1005.999802 0)"/>
     <use xlink:href="#NotoSansCJKsc-Regular-61" transform="translate(1028.399796 0)"/>
     <use xlink:href="#NotoSansCJKsc-Regular-20" transform="translate(1084.699783 0)"/>
     <use xlink:href="#NotoSansCJKsc-Regular-68" transform="translate(1107.099777 0)"/>
     <use xlink:href="#NotoSansCJKsc-Regular-75" transform="translate(1167.799774 0)"/>
     <use xlink:href="#NotoSansCJKsc-Regular-6d" transform="translate(1228.499771 0)"/>
     <use xlink:href="#NotoSansCJKsc-Regular-61" transform="translate(1321.099762 0)"/>
     <use xlink:href="#NotoSansCJKsc-Regular-6e" transform="translate(1377.39975 0)"/>
     <use xlink:href="#NotoSansCJKsc-Regular-2d" transform="translate(1438.399734 0)"/>
     <use xlink:href="#NotoSansCJKsc-Regular-77" transform="translate(1473.099731 0)"/>
     <use xlink:href="#NotoSansCJKsc-Regular-72" transform="translate(1553.299713 0)"/>
     <use xlink:href="#NotoSansCJKsc-Regular-69" transform="translate(1592.099701 0)"/>
     <use xlink:href="#NotoSansCJKsc-Regular-74" transform="translate(1619.599686 0)"/>
     <use xlink:href="#NotoSansCJKsc-Regular-74" transform="translate(1657.299683 0)"/>
     <use xlink:href="#NotoSansCJKsc-Regular-65" transform="translate(1694.99968 0)"/>
     <use xlink:href="#NotoSansCJKsc-Regular-6e" transform="translate(1750.399673 0)"/>
     <use xlink:href="#NotoSansCJKsc-Regular-20" transform="translate(1811.399658 0)"/>
     <use xlink:href="#NotoSansCJKsc-Regular-65" transform="translate(1833.799652 0)"/>
     <use xlink:href="#NotoSansCJKsc-Regular-78" transform="translate(1889.199646 0)"/>
     <use xlink:href="#NotoSansCJKsc-Regular-70" transform="translate(1938.999634 0)"/>
     <use xlink:href="#NotoSansCJKsc-Regular-6c" transform="translate(2000.999619 0)"/>
     <use xlink:href="#NotoSansCJKsc-Regular-61" transform="translate(2029.399612 0)"/>
     <use xlink:href="#NotoSansCJKsc-Regular-6e" transform="translate(2085.6996 0)"/>
     <use xlink:href="#NotoSansCJKsc-Regular-61" transform="translate(2146.699585 0)"/>
     <use xlink:href="#NotoSansCJKsc-Regular-74" transform="translate(2202.999573 0)"/>
     <use xlink:href="#NotoSansCJKsc-Regular-69" transform="translate(2240.69957 0)"/>
     <use xlink:href="#NotoSansCJKsc-Regular-6f" transform="translate(2268.199554 0)"/>
     <use xlink:href="#NotoSansCJKsc-Regular-6e" transform="translate(2328.799545 0)"/>
     <use xlink:href="#NotoSansCJKsc-Regular-20" transform="translate(2389.79953 0)"/>
     <use xlink:href="#NotoSansCJKsc-Regular-66" transform="translate(2412.199524 0)"/>
     <use xlink:href="#NotoSansCJKsc-Regular-6f" transform="translate(2444.699509 0)"/>
     <use xlink:href="#NotoSansCJKsc-Regular-72" transform="translate(2505.2995 0)"/>
     <use xlink:href="#NotoSansCJKsc-Regular-20" transform="translate(2544.099487 0)"/>
     <use xlink:href="#NotoSansCJKsc-Regular-77" transform="translate(2566.499481 0)"/>
     <use xlink:href="#NotoSansCJKsc-Regular-68" transform="translate(2646.699463 0)"/>
     <use xlink:href="#NotoSansCJKsc-Regular-79" transform="translate(2707.39946 0)"/>
     <use xlink:href="#NotoSansCJKsc-Regular-20" transform="translate(2759.499451 0)"/>
     <use xlink:href="#NotoSansCJKsc-Regular-74" transform="translate(2781.899445 0)"/>
     <use xlink:href="#NotoSansCJKsc-Regular-68" transform="translate(2819.599442 0)"/>
     <use xlink:href="#NotoSansCJKsc-Regular-65" transform="translate(2880.299438 0)"/>
     <use xlink:href="#NotoSansCJKsc-Regular-20" transform="translate(2935.699432 0)"/>
     <use xlink:href="#NotoSansCJKsc-Regular-6c" transform="translate(2958.099426 0)"/>
     <use xlink:href="#NotoSansCJKsc-Regular-61" transform="translate(2986.49942 0)"/>
     <use xlink:href="#NotoSansCJKsc-Regular-62" transform="translate(3042.799408 0)"/>
     <use xlink:href="#NotoSansCJKsc-Regular-65" transform="translate(3104.599396 0)"/>
     <use xlink:href="#NotoSansCJKsc-Regular-6c" transform="translate(3159.99939 0)"/>
     <use xlink:href="#NotoSansCJKsc-Regular-20" transform="translate(3188.399384 0)"/>
     <use xlink:href="#NotoSansCJKsc-Regular-61" transform="translate(3210.799377 0)"/>
     <use xlink:href="#NotoSansCJKsc-Regular-70" transform="translate(3267.099365 0)"/>
     <use xlink:href="#NotoSansCJKsc-Regular-70" transform="translate(3329.09935 0)"/>
     <use xlink:href="#NotoSansCJKsc-Regular-6c" transform="translate(3391.099335 0)"/>
     <use xlink:href="#NotoSansCJKsc-Regular-69" transform="translate(3419.499329 0)"/>
     <use xlink:href="#NotoSansCJKsc-Regular-65" transform="translate(3446.999313 0)"/>
     <use xlink:href="#NotoSansCJKsc-Regular-73" transform="translate(3502.399307 0)"/>
     <use xlink:href="#NotoSansCJKsc-Regular-2e" transform="translate(3549.199295 0)"/>
    </g>
   </g>
   <g id="patch_5">
    <path d="M 16.0056 24.55128 
L 77.3856 24.55128 
L 77.3856 14.3226 
L 16.0056 14.3226 
z
" clip-path="url(#p8efc695e2e)" style="fill: #2563eb; stroke: #2563eb; stroke-linejoin: miter"/>
   </g>
  </g>
 </g>
 <defs>
  <clipPath id="p8efc695e2e">
   <rect x="8.64" y="8.64" width="613.8" height="227.304"/>
  </clipPath>
 </defs>
</svg>
