<?xml version="1.0" encoding="utf-8" standalone="no"?>
<!DOCTYPE svg PUBLIC "-//W3C//DTD SVG 1.1//EN"
  "http://www.w3.org/Graphics/SVG/1.1/DTD/svg11.dtd">
<svg xmlns:xlink="http://www.w3.org/1999/xlink" width="631.08pt" height="272.304pt" viewBox="0 0 631.08 272.304" xmlns="http://www.w3.org/2000/svg" version="1.1">
 <metadata>
  <rdf:RDF xmlns:dc="http://purl.org/dc/elements/1.1/" xmlns:cc="http://creativecommons.org/ns#" xmlns:rdf="http://www.w3.org/1999/02/22-rdf-syntax-ns#">
   <cc:Work>
    <dc:type rdf:resource="http://purl.org/dc/dcmitype/StillImage"/>
    <dc:date>2026-06-28T20:08:33.681720</dc:date>
    <dc:format>image/svg+xml</dc:format>
    <dc:creator>
     <cc:Agent>
      <dc:title>Matplotlib v3.10.5, https://matplotlib.org/</dc:title>
     </cc:Agent>
    </dc:creator>
   </cc:Work>
  </rdf:RDF>
 </metadata>
 <defs>
  <style type="text/css">*{stroke-linejoin: round; stroke-linecap: butt}</style>
 </defs>
 <g id="figure_1">
  <g id="patch_1">
   <path d="M 0 272.304 
L 631.08 272.304 
L 631.08 0 
L 0 0 
z
" style="fill: #ffffff"/>
  </g>
  <g id="axes_1">
   <g id="patch_2">
    <path d="M 128.492093 123.4008 
Q 133.548351 123.4008 136.677681 123.4008 
" clip-path="url(#p8fda996cbf)" style="fill: none; stroke: #94a3b8; stroke-width: 1.9; stroke-linecap: round"/>
    <path d="M 130.677681 120.0008 
L 136.677681 123.4008 
L 130.677681 126.8008 
" clip-path="url(#p8fda996cbf)" style="fill: none; stroke: #94a3b8; stroke-width: 1.9; stroke-linecap: round"/>
   </g>
   <g id="patch_3">
    <path d="M 253.093493 123.4008 
Q 258.149751 123.4008 261.279081 123.4008 
" clip-path="url(#p8fda996cbf)" style="fill: none; stroke: #94a3b8; stroke-width: 1.9; stroke-linecap: round"/>
    <path d="M 255.279081 120.0008 
L 261.279081 123.4008 
L 255.279081 126.8008 
" clip-path="url(#p8fda996cbf)" style="fill: none; stroke: #94a3b8; stroke-width: 1.9; stroke-linecap: round"/>
   </g>
   <g id="patch_4">
    <path d="M 377.694893 123.4008 
Q 382.751151 123.4008 385.880481 123.4008 
" clip-path="url(#p8fda996cbf)" style="fill: none; stroke: #94a3b8; stroke-width: 1.9; stroke-linecap: round"/>
    <path d="M 379.880481 120.0008 
L 385.880481 123.4008 
L 379.880481 126.8008 
" clip-path="url(#p8fda996cbf)" style="fill: none; stroke: #94a3b8; stroke-width: 1.9; stroke-linecap: round"/>
   </g>
   <g id="patch_5">
    <path d="M 502.296293 123.4008 
Q 507.352551 123.4008 510.481881 123.4008 
" clip-path="url(#p8fda996cbf)" style="fill: none; stroke: #94a3b8; stroke-width: 1.9; stroke-linecap: round"/>
    <path d="M 504.481881 120.0008 
L 510.481881 123.4008 
L 504.481881 126.8008 
" clip-path="url(#p8fda996cbf)" style="fill: none; stroke: #94a3b8; stroke-width: 1.9; stroke-linecap: round"/>
   </g>
   <g id="patch_6">
    <path d="M 315.54 163.652067 
Q 315.54 173.130445 315.54 180.681895 
" clip-path="url(#p8fda996cbf)" style="fill: none; stroke-dasharray: 9.5,7.6; stroke-dashoffset: 0; stroke: #334155; stroke-width: 1.9; stroke-linecap: round"/>
    <path d="M 318.94 174.681895 
L 315.54 180.681895 
L 312.14 174.681895 
" clip-path="url(#p8fda996cbf)" style="fill: none; stroke-dasharray: 9.5,7.6; stroke-dashoffset: 0; stroke: #334155; stroke-width: 1.9; stroke-linecap: round"/>
   </g>
   <g id="patch_7">
    <path d="M 20.916 164.714688 
L 121.5792 164.714688 
Q 133.8552 164.714688 133.8552 159.614208 
L 133.8552 87.187392 
Q 133.8552 82.086912 121.5792 82.086912 
L 20.916 82.086912 
Q 8.64 82.086912 8.64 87.187392 
L 8.64 159.614208 
Q 8.64 164.714688 20.916 164.714688 
z
" clip-path="url(#p8fda996cbf)" style="fill: #ecfeff; stroke: #a5f3fc; stroke-width: 1.4; stroke-linejoin: miter"/>
   </g>
   <g id="patch_8">
    <path d="M 145.5174 164.714688 
L 246.1806 164.714688 
Q 258.4566 164.714688 258.4566 159.614208 
L 258.4566 87.187392 
Q 258.4566 82.086912 246.1806 82.086912 
L 145.5174 82.086912 
Q 133.2414 82.086912 133.2414 87.187392 
L 133.2414 159.614208 
Q 133.2414 164.714688 145.5174 164.714688 
z
" clip-path="url(#p8fda996cbf)" style="fill: #eff6ff; stroke: #bfdbfe; stroke-width: 1.4; stroke-linejoin: miter"/>
   </g>
   <g id="patch_9">
    <path d="M 270.1188 164.714688 
L 370.782 164.714688 
Q 383.058 164.714688 383.058 159.614208 
L 383.058 87.187392 
Q 383.058 82.086912 370.782 82.086912 
L 270.1188 82.086912 
Q 257.8428 82.086912 257.8428 87.187392 
L 257.8428 159.614208 
Q 257.8428 164.714688 270.1188 164.714688 
z
" clip-path="url(#p8fda996cbf)" style="fill: #f5f3ff; stroke: #ddd6fe; stroke-width: 1.4; stroke-linejoin: miter"/>
   </g>
   <g id="patch_10">
    <path d="M 394.7202 164.714688 
L 495.3834 164.714688 
Q 507.6594 164.714688 507.6594 159.614208 
L 507.6594 87.187392 
Q 507.6594 82.086912 495.3834 82.086912 
L 394.7202 82.086912 
Q 382.4442 82.086912 382.4442 87.187392 
L 382.4442 159.614208 
Q 382.4442 164.714688 394.7202 164.714688 
z
" clip-path="url(#p8fda996cbf)" style="fill: #fffbeb; stroke: #fde68a; stroke-width: 1.4; stroke-linejoin: miter"/>
   </g>
   <g id="patch_11">
    <path d="M 519.3216 164.714688 
L 619.9848 164.714688 
Q 632.2608 164.714688 632.2608 159.614208 
L 632.2608 87.187392 
Q 632.2608 82.086912 619.9848 82.086912 
L 519.3216 82.086912 
Q 507.0456 82.086912 507.0456 87.187392 
L 507.0456 159.614208 
Q 507.0456 164.714688 519.3216 164.714688 
z
" clip-path="url(#p8fda996cbf)" style="fill: #ecfdf5; stroke: #bbf7d0; stroke-width: 1.4; stroke-linejoin: miter"/>
   </g>
   <g id="patch_12">
    <path d="M 222.2424 228.470688 
L 408.8376 228.470688 
Q 421.1136 228.470688 421.1136 223.370208 
L 421.1136 186.646752 
Q 421.1136 181.546272 408.8376 181.546272 
L 222.2424 181.546272 
Q 209.9664 181.546272 209.9664 186.646752 
L 209.9664 223.370208 
Q 209.9664 228.470688 222.2424 228.470688 
z
" clip-path="url(#p8fda996cbf)" style="fill: #f8fafc; stroke: #e2e8f0; stroke-width: 1.4; stroke-linejoin: miter"/>
   </g>
   <g id="text_1">
    <!-- Scaling Dense Retrieval — structured mining + curriculum -->
    <g style="fill: #0f172a" transform="translate(16.0056 45.436811) scale(0.155 -0.155)">
     <defs>
      <path id="NotoSansCJKsc-Bold-53" d="M 1997 -90 
C 3091 -90 3738 570 3738 1344 
C 3738 2029 3360 2400 2784 2637 
L 2163 2886 
C 1760 3053 1427 3174 1427 3514 
C 1427 3827 1683 4013 2099 4013 
C 2496 4013 2810 3866 3110 3622 
L 3590 4211 
C 3206 4602 2656 4826 2099 4826 
C 1146 4826 461 4224 461 3456 
C 461 2765 947 2381 1427 2189 
L 2054 1914 
C 2477 1734 2771 1626 2771 1274 
C 2771 941 2509 730 2016 730 
C 1600 730 1146 941 813 1254 
L 269 602 
C 730 154 1363 -90 1997 -90 
z
" transform="scale(0.015625)"/>
      <path id="NotoSansCJKsc-Bold-63" d="M 2029 -90 
C 2426 -90 2861 45 3200 346 
L 2829 966 
C 2630 800 2394 678 2131 678 
C 1613 678 1242 1114 1242 1792 
C 1242 2464 1613 2906 2163 2906 
C 2362 2906 2528 2822 2707 2675 
L 3155 3270 
C 2893 3507 2554 3674 2112 3674 
C 1139 3674 282 2982 282 1792 
C 282 602 1043 -90 2029 -90 
z
" transform="scale(0.015625)"/>
      <path id="NotoSansCJKsc-Bold-61" d="M 1382 -90 
C 1798 -90 2157 109 2464 384 
L 2496 384 
L 2560 0 
L 3328 0 
L 3328 2093 
C 3328 3130 2861 3674 1952 3674 
C 1389 3674 877 3456 461 3200 
L 794 2573 
C 1126 2771 1446 2918 1779 2918 
C 2221 2918 2374 2650 2387 2298 
C 947 2144 326 1741 326 979 
C 326 365 742 -90 1382 -90 
z
M 1696 646 
C 1421 646 1222 768 1222 1050 
C 1222 1376 1510 1613 2387 1715 
L 2387 998 
C 2163 774 1965 646 1696 646 
z
" transform="scale(0.015625)"/>
      <path id="NotoSansCJKsc-Bold-6c" d="M 1395 -90 
C 1613 -90 1766 -51 1875 -6 
L 1760 691 
C 1696 678 1670 678 1632 678 
C 1542 678 1446 749 1446 966 
L 1446 5107 
L 506 5107 
L 506 1005 
C 506 339 736 -90 1395 -90 
z
" transform="scale(0.015625)"/>
      <path id="NotoSansCJKsc-Bold-69" d="M 506 0 
L 1446 0 
L 1446 3584 
L 506 3584 
L 506 0 
z
M 979 4166 
C 1299 4166 1523 4365 1523 4678 
C 1523 4986 1299 5190 979 5190 
C 646 5190 435 4986 435 4678 
C 435 4365 646 4166 979 4166 
z
" transform="scale(0.015625)"/>
      <path id="NotoSansCJKsc-Bold-6e" d="M 506 0 
L 1446 0 
L 1446 2464 
C 1709 2726 1901 2867 2189 2867 
C 2541 2867 2694 2675 2694 2118 
L 2694 0 
L 3635 0 
L 3635 2234 
C 3635 3136 3302 3674 2528 3674 
C 2042 3674 1677 3418 1363 3110 
L 1344 3110 
L 1274 3584 
L 506 3584 
L 506 0 
z
" transform="scale(0.015625)"/>
      <path id="NotoSansCJKsc-Bold-67" d="M 1766 -1555 
C 2963 -1555 3718 -1005 3718 -282 
C 3718 346 3245 614 2381 614 
L 1766 614 
C 1350 614 1203 717 1203 902 
C 1203 1056 1267 1133 1357 1216 
C 1517 1158 1683 1133 1818 1133 
C 2592 1133 3206 1536 3206 2349 
C 3206 2573 3136 2771 3046 2893 
L 3654 2893 
L 3654 3584 
L 2368 3584 
C 2214 3635 2029 3674 1818 3674 
C 1062 3674 378 3219 378 2381 
C 378 1958 608 1619 858 1440 
L 858 1414 
C 640 1261 461 1011 461 749 
C 461 448 595 262 787 141 
L 787 109 
C 448 -77 275 -333 275 -634 
C 275 -1267 922 -1555 1766 -1555 
z
M 1818 1715 
C 1510 1715 1261 1952 1261 2381 
C 1261 2797 1504 3027 1818 3027 
C 2138 3027 2387 2797 2387 2381 
C 2387 1952 2138 1715 1818 1715 
z
M 1907 -954 
C 1389 -954 1056 -787 1056 -493 
C 1056 -339 1126 -198 1286 -70 
C 1421 -102 1568 -115 1779 -115 
L 2221 -115 
C 2605 -115 2816 -186 2816 -442 
C 2816 -717 2451 -954 1907 -954 
z
" transform="scale(0.015625)"/>
      <path id="NotoSansCJKsc-Bold-20" transform="scale(0.015625)"/>
      <path id="NotoSansCJKsc-Bold-44" d="M 582 0 
L 1933 0 
C 3334 0 4224 794 4224 2394 
C 4224 3987 3334 4742 1882 4742 
L 582 4742 
L 582 0 
z
M 1530 768 
L 1530 3981 
L 1818 3981 
C 2707 3981 3258 3546 3258 2394 
C 3258 1242 2707 768 1818 768 
L 1530 768 
z
" transform="scale(0.015625)"/>
      <path id="NotoSansCJKsc-Bold-65" d="M 2067 -90 
C 2509 -90 2963 64 3315 307 
L 2995 883 
C 2733 723 2483 640 2195 640 
C 1658 640 1274 941 1197 1523 
L 3405 1523 
C 3430 1613 3450 1786 3450 1958 
C 3450 2957 2938 3674 1952 3674 
C 1101 3674 282 2950 282 1792 
C 282 608 1062 -90 2067 -90 
z
M 1178 2157 
C 1254 2675 1587 2944 1965 2944 
C 2432 2944 2643 2637 2643 2157 
L 1178 2157 
z
" transform="scale(0.015625)"/>
      <path id="NotoSansCJKsc-Bold-73" d="M 1530 -90 
C 2458 -90 2957 410 2957 1043 
C 2957 1702 2432 1946 1958 2125 
C 1574 2266 1248 2362 1248 2624 
C 1248 2829 1402 2970 1728 2970 
C 1990 2970 2240 2842 2496 2662 
L 2918 3232 
C 2624 3462 2221 3674 1702 3674 
C 883 3674 365 3219 365 2579 
C 365 1978 870 1702 1325 1530 
C 1702 1382 2074 1261 2074 992 
C 2074 768 1914 614 1555 614 
C 1216 614 915 762 595 1005 
L 166 410 
C 525 115 1050 -90 1530 -90 
z
" transform="scale(0.015625)"/>
      <path id="NotoSansCJKsc-Bold-52" d="M 1530 2541 
L 1530 3987 
L 2144 3987 
C 2752 3987 3085 3814 3085 3302 
C 3085 2797 2752 2541 2144 2541 
L 1530 2541 
z
M 3162 0 
L 4218 0 
L 3110 1939 
C 3654 2150 4013 2592 4013 3302 
C 4013 4390 3226 4742 2227 4742 
L 582 4742 
L 582 0 
L 1530 0 
L 1530 1792 
L 2189 1792 
L 3162 0 
z
" transform="scale(0.015625)"/>
      <path id="NotoSansCJKsc-Bold-74" d="M 1818 -90 
C 2131 -90 2381 -13 2579 45 
L 2419 730 
C 2323 691 2182 653 2067 653 
C 1747 653 1574 845 1574 1254 
L 1574 2842 
L 2464 2842 
L 2464 3584 
L 1574 3584 
L 1574 4550 
L 800 4550 
L 691 3584 
L 134 3539 
L 134 2842 
L 640 2842 
L 640 1248 
C 640 454 966 -90 1818 -90 
z
" transform="scale(0.015625)"/>
      <path id="NotoSansCJKsc-Bold-72" d="M 506 0 
L 1446 0 
L 1446 2138 
C 1651 2656 1984 2842 2259 2842 
C 2413 2842 2515 2822 2643 2784 
L 2797 3597 
C 2694 3642 2579 3674 2381 3674 
C 2010 3674 1626 3418 1363 2950 
L 1344 2950 
L 1274 3584 
L 506 3584 
L 506 0 
z
" transform="scale(0.015625)"/>
      <path id="NotoSansCJKsc-Bold-76" d="M 1312 0 
L 2400 0 
L 3597 3584 
L 2694 3584 
L 2170 1798 
C 2074 1446 1978 1075 1882 710 
L 1850 710 
C 1747 1075 1658 1446 1555 1798 
L 1037 3584 
L 90 3584 
L 1312 0 
z
" transform="scale(0.015625)"/>
      <path id="NotoSansCJKsc-Bold-2014" d="M 314 1536 
L 5498 1536 
L 5498 2138 
L 314 2138 
L 314 1536 
z
" transform="scale(0.015625)"/>
      <path id="NotoSansCJKsc-Bold-75" d="M 1574 -90 
C 2067 -90 2406 154 2714 518 
L 2739 518 
L 2810 0 
L 3578 0 
L 3578 3584 
L 2637 3584 
L 2637 1165 
C 2394 845 2202 717 1914 717 
C 1562 717 1402 909 1402 1466 
L 1402 3584 
L 467 3584 
L 467 1350 
C 467 448 800 -90 1574 -90 
z
" transform="scale(0.015625)"/>
      <path id="NotoSansCJKsc-Bold-64" d="M 1766 -90 
C 2138 -90 2496 109 2758 371 
L 2784 371 
L 2854 0 
L 3622 0 
L 3622 5107 
L 2682 5107 
L 2682 3846 
L 2714 3283 
C 2458 3520 2208 3674 1805 3674 
C 1037 3674 301 2957 301 1792 
C 301 614 870 -90 1766 -90 
z
M 2010 685 
C 1536 685 1267 1056 1267 1805 
C 1267 2515 1606 2899 2010 2899 
C 2240 2899 2464 2829 2682 2630 
L 2682 1056 
C 2477 787 2259 685 2010 685 
z
" transform="scale(0.015625)"/>
      <path id="NotoSansCJKsc-Bold-6d" d="M 506 0 
L 1446 0 
L 1446 2464 
C 1696 2739 1926 2867 2131 2867 
C 2477 2867 2637 2675 2637 2118 
L 2637 0 
L 3571 0 
L 3571 2464 
C 3827 2739 4058 2867 4262 2867 
C 4602 2867 4762 2675 4762 2118 
L 4762 0 
L 5696 0 
L 5696 2234 
C 5696 3136 5350 3674 4589 3674 
C 4128 3674 3776 3392 3443 3046 
C 3277 3443 2976 3674 2464 3674 
C 1997 3674 1664 3418 1363 3104 
L 1344 3104 
L 1274 3584 
L 506 3584 
L 506 0 
z
" transform="scale(0.015625)"/>
      <path id="NotoSansCJKsc-Bold-2b" d="M 1536 704 
L 2234 704 
L 2234 2061 
L 3526 2061 
L 3526 2733 
L 2234 2733 
L 2234 4096 
L 1536 4096 
L 1536 2733 
L 250 2733 
L 250 2061 
L 1536 2061 
L 1536 704 
z
" transform="scale(0.015625)"/>
     </defs>
     <use xlink:href="#NotoSansCJKsc-Bold-53"/>
     <use xlink:href="#NotoSansCJKsc-Bold-63" transform="translate(62.399994 0)"/>
     <use xlink:href="#NotoSansCJKsc-Bold-61" transform="translate(115.099991 0)"/>
     <use xlink:href="#NotoSansCJKsc-Bold-6c" transform="translate(174.199982 0)"/>
     <use xlink:href="#NotoSansCJKsc-Bold-69" transform="translate(205.699966 0)"/>
     <use xlink:href="#NotoSansCJKsc-Bold-6e" transform="translate(236.09996 0)"/>
     <use xlink:href="#NotoSansCJKsc-Bold-67" transform="translate(300.199951 0)"/>
     <use xlink:href="#NotoSansCJKsc-Bold-20" transform="translate(359.899948 0)"/>
     <use xlink:href="#NotoSansCJKsc-Bold-44" transform="translate(382.599945 0)"/>
     <use xlink:href="#NotoSansCJKsc-Bold-65" transform="translate(453.999939 0)"/>
     <use xlink:href="#NotoSansCJKsc-Bold-6e" transform="translate(512.09993 0)"/>
     <use xlink:href="#NotoSansCJKsc-Bold-73" transform="translate(576.199921 0)"/>
     <use xlink:href="#NotoSansCJKsc-Bold-65" transform="translate(625.699905 0)"/>
     <use xlink:href="#NotoSansCJKsc-Bold-20" transform="translate(683.799896 0)"/>
     <use xlink:href="#NotoSansCJKsc-Bold-52" transform="translate(706.499893 0)"/>
     <use xlink:href="#NotoSansCJKsc-Bold-65" transform="translate(774.699875 0)"/>
     <use xlink:href="#NotoSansCJKsc-Bold-74" transform="translate(832.799866 0)"/>
     <use xlink:href="#NotoSansCJKsc-Bold-72" transform="translate(874.899857 0)"/>
     <use xlink:href="#NotoSansCJKsc-Bold-69" transform="translate(918.499847 0)"/>
     <use xlink:href="#NotoSansCJKsc-Bold-65" transform="translate(948.899841 0)"/>
     <use xlink:href="#NotoSansCJKsc-Bold-76" transform="translate(1006.999832 0)"/>
     <use xlink:href="#NotoSansCJKsc-Bold-61" transform="translate(1064.599823 0)"/>
     <use xlink:href="#NotoSansCJKsc-Bold-6c" transform="translate(1123.699814 0)"/>
     <use xlink:href="#NotoSansCJKsc-Bold-20" transform="translate(1155.199799 0)"/>
     <use xlink:href="#NotoSansCJKsc-Bold-2014" transform="translate(1177.899796 0)"/>
     <use xlink:href="#NotoSansCJKsc-Bold-20" transform="translate(1268.699783 0)"/>
     <use xlink:href="#NotoSansCJKsc-Bold-73" transform="translate(1291.39978 0)"/>
     <use xlink:href="#NotoSansCJKsc-Bold-74" transform="translate(1340.899765 0)"/>
     <use xlink:href="#NotoSansCJKsc-Bold-72" transform="translate(1382.999756 0)"/>
     <use xlink:href="#NotoSansCJKsc-Bold-75" transform="translate(1426.599747 0)"/>
     <use xlink:href="#NotoSansCJKsc-Bold-63" transform="translate(1490.299744 0)"/>
     <use xlink:href="#NotoSansCJKsc-Bold-74" transform="translate(1542.999741 0)"/>
     <use xlink:href="#NotoSansCJKsc-Bold-75" transform="translate(1585.099731 0)"/>
     <use xlink:href="#NotoSansCJKsc-Bold-72" transform="translate(1648.799728 0)"/>
     <use xlink:href="#NotoSansCJKsc-Bold-65" transform="translate(1692.399719 0)"/>
     <use xlink:href="#NotoSansCJKsc-Bold-64" transform="translate(1750.49971 0)"/>
     <use xlink:href="#NotoSansCJKsc-Bold-20" transform="translate(1814.899704 0)"/>
     <use xlink:href="#NotoSansCJKsc-Bold-6d" transform="translate(1837.599701 0)"/>
     <use xlink:href="#NotoSansCJKsc-Bold-69" transform="translate(1933.999695 0)"/>
     <use xlink:href="#NotoSansCJKsc-Bold-6e" transform="translate(1964.399689 0)"/>
     <use xlink:href="#NotoSansCJKsc-Bold-69" transform="translate(2028.49968 0)"/>
     <use xlink:href="#NotoSansCJKsc-Bold-6e" transform="translate(2058.899673 0)"/>
     <use xlink:href="#NotoSansCJKsc-Bold-67" transform="translate(2122.999664 0)"/>
     <use xlink:href="#NotoSansCJKsc-Bold-20" transform="translate(2182.699661 0)"/>
     <use xlink:href="#NotoSansCJKsc-Bold-2b" transform="translate(2205.399658 0)"/>
     <use xlink:href="#NotoSansCJKsc-Bold-20" transform="translate(2264.399643 0)"/>
     <use xlink:href="#NotoSansCJKsc-Bold-63" transform="translate(2287.09964 0)"/>
     <use xlink:href="#NotoSansCJKsc-Bold-75" transform="translate(2339.799637 0)"/>
     <use xlink:href="#NotoSansCJKsc-Bold-72" transform="translate(2403.499634 0)"/>
     <use xlink:href="#NotoSansCJKsc-Bold-72" transform="translate(2447.099625 0)"/>
     <use xlink:href="#NotoSansCJKsc-Bold-69" transform="translate(2490.699615 0)"/>
     <use xlink:href="#NotoSansCJKsc-Bold-63" transform="translate(2521.099609 0)"/>
     <use xlink:href="#NotoSansCJKsc-Bold-75" transform="translate(2573.799606 0)"/>
     <use xlink:href="#NotoSansCJKsc-Bold-6c" transform="translate(2637.499603 0)"/>
     <use xlink:href="#NotoSansCJKsc-Bold-75" transform="translate(2668.999588 0)"/>
     <use xlink:href="#NotoSansCJKsc-Bold-6d" transform="translate(2732.699585 0)"/>
    </g>
   </g>
   <g id="text_2">
    <!-- Multi-channel disagreement -&gt; LLM cascade labels -&gt; BCE/MNR/Triplet -&gt; deployable dual-encoder -->
    <g style="fill: #64748b" transform="translate(16.0056 54.024552) scale(0.096 -0.096)">
     <defs>
      <path id="NotoSansCJKsc-Regular-4d" d="M 646 0 
L 1178 0 
L 1178 2598 
C 1178 3002 1139 3571 1101 3981 
L 1126 3981 
L 1504 2912 
L 2394 474 
L 2790 474 
L 3674 2912 
L 4051 3981 
L 4077 3981 
C 4045 3571 4000 3002 4000 2598 
L 4000 0 
L 4550 0 
L 4550 4691 
L 3840 4691 
L 2944 2182 
C 2835 1862 2739 1530 2618 1203 
L 2592 1203 
C 2477 1530 2374 1862 2253 2182 
L 1357 4691 
L 646 4691 
L 646 0 
z
" transform="scale(0.015625)"/>
      <path id="NotoSansCJKsc-Regular-75" d="M 1606 -83 
C 2080 -83 2426 166 2752 544 
L 2771 544 
L 2816 0 
L 3302 0 
L 3302 3475 
L 2720 3475 
L 2720 1011 
C 2387 602 2138 422 1779 422 
C 1318 422 1126 698 1126 1344 
L 1126 3475 
L 538 3475 
L 538 1274 
C 538 384 870 -83 1606 -83 
z
" transform="scale(0.015625)"/>
      <path id="NotoSansCJKsc-Regular-6c" d="M 1203 -83 
C 1363 -83 1459 -58 1542 -32 
L 1459 416 
C 1395 403 1370 403 1338 403 
C 1248 403 1178 474 1178 653 
L 1178 5094 
L 589 5094 
L 589 691 
C 589 198 768 -83 1203 -83 
z
" transform="scale(0.015625)"/>
      <path id="NotoSansCJKsc-Regular-74" d="M 1677 -83 
C 1894 -83 2125 -19 2323 45 
L 2208 486 
C 2093 435 1939 390 1811 390 
C 1408 390 1274 634 1274 1056 
L 1274 3002 
L 2221 3002 
L 2221 3475 
L 1274 3475 
L 1274 4454 
L 787 4454 
L 723 3475 
L 173 3443 
L 173 3002 
L 691 3002 
L 691 1075 
C 691 378 941 -83 1677 -83 
z
" transform="scale(0.015625)"/>
      <path id="NotoSansCJKsc-Regular-69" d="M 589 0 
L 1178 0 
L 1178 3475 
L 589 3475 
L 589 0 
z
M 883 4192 
C 1114 4192 1274 4346 1274 4582 
C 1274 4806 1114 4960 883 4960 
C 653 4960 499 4806 499 4582 
C 499 4346 653 4192 883 4192 
z
" transform="scale(0.015625)"/>
      <path id="NotoSansCJKsc-Regular-2d" d="M 294 1568 
L 1933 1568 
L 1933 2016 
L 294 2016 
L 294 1568 
z
" transform="scale(0.015625)"/>
      <path id="NotoSansCJKsc-Regular-63" d="M 1958 -83 
C 2374 -83 2771 83 3085 352 
L 2829 749 
C 2611 557 2330 403 2010 403 
C 1370 403 934 934 934 1734 
C 934 2534 1395 3072 2029 3072 
C 2298 3072 2522 2950 2720 2771 
L 3014 3155 
C 2771 3373 2458 3565 2003 3565 
C 1107 3565 333 2893 333 1734 
C 333 582 1037 -83 1958 -83 
z
" transform="scale(0.015625)"/>
      <path id="NotoSansCJKsc-Regular-68" d="M 589 0 
L 1178 0 
L 1178 2522 
C 1523 2874 1766 3053 2125 3053 
C 2586 3053 2784 2778 2784 2125 
L 2784 0 
L 3366 0 
L 3366 2202 
C 3366 3085 3034 3565 2304 3565 
C 1830 3565 1472 3302 1152 2982 
L 1178 3699 
L 1178 5094 
L 589 5094 
L 589 0 
z
" transform="scale(0.015625)"/>
      <path id="NotoSansCJKsc-Regular-61" d="M 1389 -83 
C 1818 -83 2208 141 2541 416 
L 2560 416 
L 2611 0 
L 3091 0 
L 3091 2138 
C 3091 3002 2739 3565 1888 3565 
C 1325 3565 838 3315 525 3110 
L 749 2707 
C 1024 2893 1389 3078 1792 3078 
C 2362 3078 2509 2650 2509 2202 
C 1030 2035 378 1658 378 902 
C 378 275 806 -83 1389 -83 
z
M 1555 390 
C 1210 390 941 544 941 941 
C 941 1389 1338 1677 2509 1811 
L 2509 845 
C 2170 544 1888 390 1555 390 
z
" transform="scale(0.015625)"/>
      <path id="NotoSansCJKsc-Regular-6e" d="M 589 0 
L 1178 0 
L 1178 2522 
C 1523 2874 1766 3053 2125 3053 
C 2586 3053 2784 2778 2784 2125 
L 2784 0 
L 3366 0 
L 3366 2202 
C 3366 3085 3034 3565 2304 3565 
C 1830 3565 1466 3302 1139 2970 
L 1126 2970 
L 1069 3475 
L 589 3475 
L 589 0 
z
" transform="scale(0.015625)"/>
      <path id="NotoSansCJKsc-Regular-65" d="M 1997 -83 
C 2464 -83 2835 70 3136 269 
L 2931 659 
C 2669 486 2400 384 2061 384 
C 1402 384 947 858 909 1600 
L 3251 1600 
C 3264 1690 3277 1805 3277 1933 
C 3277 2925 2778 3565 1888 3565 
C 1094 3565 333 2867 333 1734 
C 333 589 1069 -83 1997 -83 
z
M 902 2016 
C 973 2707 1408 3098 1901 3098 
C 2445 3098 2765 2720 2765 2016 
L 902 2016 
z
" transform="scale(0.015625)"/>
      <path id="NotoSansCJKsc-Regular-20" transform="scale(0.015625)"/>
      <path id="NotoSansCJKsc-Regular-64" d="M 1773 -83 
C 2189 -83 2560 141 2829 410 
L 2848 410 
L 2899 0 
L 3379 0 
L 3379 5094 
L 2790 5094 
L 2790 3757 
L 2822 3162 
C 2515 3411 2253 3565 1843 3565 
C 1050 3565 339 2861 339 1734 
C 339 576 902 -83 1773 -83 
z
M 1901 410 
C 1293 410 941 902 941 1741 
C 941 2534 1389 3072 1946 3072 
C 2234 3072 2502 2970 2790 2707 
L 2790 883 
C 2502 563 2221 410 1901 410 
z
" transform="scale(0.015625)"/>
      <path id="NotoSansCJKsc-Regular-73" d="M 1498 -83 
C 2317 -83 2758 384 2758 947 
C 2758 1606 2208 1811 1702 2003 
C 1312 2150 954 2278 954 2605 
C 954 2880 1158 3110 1600 3110 
C 1907 3110 2150 2976 2387 2803 
L 2669 3168 
C 2406 3386 2022 3565 1594 3565 
C 832 3565 397 3130 397 2579 
C 397 1984 922 1754 1408 1574 
C 1792 1434 2202 1267 2202 915 
C 2202 614 1978 371 1517 371 
C 1101 371 794 538 486 787 
L 205 397 
C 531 122 1005 -83 1498 -83 
z
" transform="scale(0.015625)"/>
      <path id="NotoSansCJKsc-Regular-67" d="M 1760 -1600 
C 2835 -1600 3520 -1043 3520 -397 
C 3520 179 3110 429 2310 429 
L 1626 429 
C 1158 429 1018 589 1018 806 
C 1018 998 1114 1114 1242 1222 
C 1395 1146 1587 1101 1754 1101 
C 2470 1101 3027 1568 3027 2310 
C 3027 2611 2912 2867 2746 3027 
L 3456 3027 
L 3456 3475 
L 2246 3475 
C 2125 3526 1952 3565 1754 3565 
C 1056 3565 454 3085 454 2323 
C 454 1907 678 1568 909 1389 
L 909 1363 
C 723 1235 525 1005 525 717 
C 525 442 659 256 838 147 
L 838 115 
C 512 -83 326 -371 326 -672 
C 326 -1267 915 -1600 1760 -1600 
z
M 1754 1498 
C 1357 1498 1018 1818 1018 2323 
C 1018 2835 1350 3136 1754 3136 
C 2170 3136 2496 2835 2496 2323 
C 2496 1818 2157 1498 1754 1498 
z
M 1843 -1197 
C 1210 -1197 838 -960 838 -589 
C 838 -390 941 -179 1190 0 
C 1344 -38 1510 -51 1638 -51 
L 2240 -51 
C 2701 -51 2944 -166 2944 -493 
C 2944 -851 2515 -1197 1843 -1197 
z
" transform="scale(0.015625)"/>
      <path id="NotoSansCJKsc-Regular-72" d="M 589 0 
L 1178 0 
L 1178 2234 
C 1408 2822 1760 3040 2048 3040 
C 2195 3040 2272 3021 2387 2982 
L 2496 3488 
C 2387 3546 2278 3565 2125 3565 
C 1741 3565 1382 3283 1139 2842 
L 1126 2842 
L 1069 3475 
L 589 3475 
L 589 0 
z
" transform="scale(0.015625)"/>
      <path id="NotoSansCJKsc-Regular-6d" d="M 589 0 
L 1178 0 
L 1178 2522 
C 1491 2880 1786 3053 2048 3053 
C 2490 3053 2694 2778 2694 2125 
L 2694 0 
L 3277 0 
L 3277 2522 
C 3603 2880 3885 3053 4154 3053 
C 4595 3053 4800 2778 4800 2125 
L 4800 0 
L 5382 0 
L 5382 2202 
C 5382 3085 5043 3565 4333 3565 
C 3904 3565 3546 3290 3181 2899 
C 3040 3309 2758 3565 2221 3565 
C 1805 3565 1446 3302 1139 2970 
L 1126 2970 
L 1069 3475 
L 589 3475 
L 589 0 
z
" transform="scale(0.015625)"/>
      <path id="NotoSansCJKsc-Regular-3e" d="M 243 934 
L 3315 2144 
L 3315 2605 
L 243 3814 
L 243 3309 
L 1754 2746 
L 2714 2387 
L 2714 2362 
L 1754 2003 
L 243 1446 
L 243 934 
z
" transform="scale(0.015625)"/>
      <path id="NotoSansCJKsc-Regular-4c" d="M 646 0 
L 3290 0 
L 3290 506 
L 1235 506 
L 1235 4691 
L 646 4691 
L 646 0 
z
" transform="scale(0.015625)"/>
      <path id="NotoSansCJKsc-Regular-62" d="M 2118 -83 
C 2912 -83 3629 602 3629 1792 
C 3629 2867 3142 3565 2246 3565 
C 1856 3565 1472 3347 1152 3078 
L 1178 3699 
L 1178 5094 
L 589 5094 
L 589 0 
L 1056 0 
L 1107 358 
L 1133 358 
C 1434 83 1798 -83 2118 -83 
z
M 2022 410 
C 1792 410 1478 499 1178 768 
L 1178 2598 
C 1504 2906 1811 3072 2099 3072 
C 2765 3072 3021 2560 3021 1786 
C 3021 928 2598 410 2022 410 
z
" transform="scale(0.015625)"/>
      <path id="NotoSansCJKsc-Regular-42" d="M 646 0 
L 2138 0 
C 3187 0 3917 454 3917 1376 
C 3917 2016 3520 2387 2963 2496 
L 2963 2528 
C 3405 2669 3648 3078 3648 3546 
C 3648 4371 2982 4691 2035 4691 
L 646 4691 
L 646 0 
z
M 1235 2701 
L 1235 4224 
L 1958 4224 
C 2694 4224 3066 4019 3066 3469 
C 3066 2989 2739 2701 1933 2701 
L 1235 2701 
z
M 1235 474 
L 1235 2240 
L 2054 2240 
C 2880 2240 3334 1978 3334 1395 
C 3334 762 2861 474 2054 474 
L 1235 474 
z
" transform="scale(0.015625)"/>
      <path id="NotoSansCJKsc-Regular-43" d="M 2413 -83 
C 3021 -83 3482 160 3853 589 
L 3526 966 
C 3226 634 2886 435 2438 435 
C 1542 435 979 1178 979 2362 
C 979 3533 1574 4256 2458 4256 
C 2861 4256 3168 4077 3418 3814 
L 3738 4198 
C 3469 4499 3021 4774 2451 4774 
C 1261 4774 371 3859 371 2342 
C 371 819 1242 -83 2413 -83 
z
" transform="scale(0.015625)"/>
      <path id="NotoSansCJKsc-Regular-45" d="M 646 0 
L 3418 0 
L 3418 506 
L 1235 506 
L 1235 2214 
L 3014 2214 
L 3014 2720 
L 1235 2720 
L 1235 4192 
L 3347 4192 
L 3347 4691 
L 646 4691 
L 646 0 
z
" transform="scale(0.015625)"/>
      <path id="NotoSansCJKsc-Regular-2f" d="M 70 -1146 
L 499 -1146 
L 2413 5082 
L 1990 5082 
L 70 -1146 
z
" transform="scale(0.015625)"/>
      <path id="NotoSansCJKsc-Regular-4e" d="M 646 0 
L 1203 0 
L 1203 2464 
C 1203 2957 1158 3456 1133 3930 
L 1158 3930 
L 1664 2963 
L 3373 0 
L 3981 0 
L 3981 4691 
L 3418 4691 
L 3418 2253 
C 3418 1766 3462 1235 3501 768 
L 3469 768 
L 2963 1734 
L 1248 4691 
L 646 4691 
L 646 0 
z
" transform="scale(0.015625)"/>
      <path id="NotoSansCJKsc-Regular-52" d="M 1235 2464 
L 1235 4211 
L 2022 4211 
C 2758 4211 3162 3994 3162 3379 
C 3162 2765 2758 2464 2022 2464 
L 1235 2464 
z
M 3219 0 
L 3885 0 
L 2694 2054 
C 3328 2208 3750 2643 3750 3379 
C 3750 4352 3066 4691 2112 4691 
L 646 4691 
L 646 0 
L 1235 0 
L 1235 1990 
L 2080 1990 
L 3219 0 
z
" transform="scale(0.015625)"/>
      <path id="NotoSansCJKsc-Regular-54" d="M 1619 0 
L 2214 0 
L 2214 4192 
L 3635 4192 
L 3635 4691 
L 198 4691 
L 198 4192 
L 1619 4192 
L 1619 0 
z
" transform="scale(0.015625)"/>
      <path id="NotoSansCJKsc-Regular-70" d="M 589 -1466 
L 1178 -1466 
L 1178 -288 
L 1158 320 
C 1472 58 1805 -83 2118 -83 
C 2912 -83 3629 602 3629 1792 
C 3629 2867 3142 3565 2246 3565 
C 1843 3565 1453 3334 1139 3072 
L 1126 3072 
L 1069 3475 
L 589 3475 
L 589 -1466 
z
M 2022 410 
C 1792 410 1485 499 1178 768 
L 1178 2598 
C 1510 2906 1811 3072 2099 3072 
C 2765 3072 3021 2560 3021 1786 
C 3021 928 2598 410 2022 410 
z
" transform="scale(0.015625)"/>
      <path id="NotoSansCJKsc-Regular-6f" d="M 1939 -83 
C 2790 -83 3546 582 3546 1734 
C 3546 2893 2790 3565 1939 3565 
C 1088 3565 333 2893 333 1734 
C 333 582 1088 -83 1939 -83 
z
M 1939 403 
C 1338 403 934 934 934 1734 
C 934 2534 1338 3072 1939 3072 
C 2541 3072 2950 2534 2950 1734 
C 2950 934 2541 403 1939 403 
z
" transform="scale(0.015625)"/>
      <path id="NotoSansCJKsc-Regular-79" d="M 646 -1498 
C 1338 -1498 1702 -973 1946 -294 
L 3251 3475 
L 2682 3475 
L 2054 1549 
C 1965 1235 1862 883 1773 563 
L 1741 563 
C 1619 890 1504 1242 1395 1549 
L 691 3475 
L 83 3475 
L 1478 -6 
L 1402 -269 
C 1254 -698 1011 -1018 621 -1018 
C 525 -1018 422 -986 352 -960 
L 237 -1427 
C 346 -1472 486 -1498 646 -1498 
z
" transform="scale(0.015625)"/>
     </defs>
     <use xlink:href="#NotoSansCJKsc-Regular-4d"/>
     <use xlink:href="#NotoSansCJKsc-Regular-75" transform="translate(81.199982 0)"/>
     <use xlink:href="#NotoSansCJKsc-Regular-6c" transform="translate(141.899979 0)"/>
     <use xlink:href="#NotoSansCJKsc-Regular-74" transform="translate(170.299973 0)"/>
     <use xlink:href="#NotoSansCJKsc-Regular-69" transform="translate(207.999969 0)"/>
     <use xlink:href="#NotoSansCJKsc-Regular-2d" transform="translate(235.499954 0)"/>
     <use xlink:href="#NotoSansCJKsc-Regular-63" transform="translate(270.199951 0)"/>
     <use xlink:href="#NotoSansCJKsc-Regular-68" transform="translate(321.199936 0)"/>
     <use xlink:href="#NotoSansCJKsc-Regular-61" transform="translate(381.899933 0)"/>
     <use xlink:href="#NotoSansCJKsc-Regular-6e" transform="translate(438.199921 0)"/>
     <use xlink:href="#NotoSansCJKsc-Regular-6e" transform="translate(499.199905 0)"/>
     <use xlink:href="#NotoSansCJKsc-Regular-65" transform="translate(560.19989 0)"/>
     <use xlink:href="#NotoSansCJKsc-Regular-6c" transform="translate(615.599884 0)"/>
     <use xlink:href="#NotoSansCJKsc-Regular-20" transform="translate(643.999878 0)"/>
     <use xlink:href="#NotoSansCJKsc-Regular-64" transform="translate(666.399872 0)"/>
     <use xlink:href="#NotoSansCJKsc-Regular-69" transform="translate(728.399857 0)"/>
     <use xlink:href="#NotoSansCJKsc-Regular-73" transform="translate(755.899841 0)"/>
     <use xlink:href="#NotoSansCJKsc-Regular-61" transform="translate(802.699829 0)"/>
     <use xlink:href="#NotoSansCJKsc-Regular-67" transform="translate(858.999817 0)"/>
     <use xlink:href="#NotoSansCJKsc-Regular-72" transform="translate(915.399811 0)"/>
     <use xlink:href="#NotoSansCJKsc-Regular-65" transform="translate(954.199799 0)"/>
     <use xlink:href="#NotoSansCJKsc-Regular-65" transform="translate(1009.599792 0)"/>
     <use xlink:href="#NotoSansCJKsc-Regular-6d" transform="translate(1064.999786 0)"/>
     <use xlink:href="#NotoSansCJKsc-Regular-65" transform="translate(1157.599777 0)"/>
     <use xlink:href="#NotoSansCJKsc-Regular-6e" transform="translate(1212.999771 0)"/>
     <use xlink:href="#NotoSansCJKsc-Regular-74" transform="translate(1273.999756 0)"/>
     <use xlink:href="#NotoSansCJKsc-Regular-20" transform="translate(1311.699753 0)"/>
     <use xlink:href="#NotoSansCJKsc-Regular-2d" transform="translate(1334.099747 0)"/>
     <use xlink:href="#NotoSansCJKsc-Regular-3e" transform="translate(1368.799744 0)"/>
     <use xlink:href="#NotoSansCJKsc-Regular-20" transform="translate(1424.299728 0)"/>
     <use xlink:href="#NotoSansCJKsc-Regular-4c" transform="translate(1446.699722 0)"/>
     <use xlink:href="#NotoSansCJKsc-Regular-4c" transform="translate(1500.99971 0)"/>
     <use xlink:href="#NotoSansCJKsc-Regular-4d" transform="translate(1555.299698 0)"/>
     <use xlink:href="#NotoSansCJKsc-Regular-20" transform="translate(1636.49968 0)"/>
     <use xlink:href="#NotoSansCJKsc-Regular-63" transform="translate(1658.899673 0)"/>
     <use xlink:href="#NotoSansCJKsc-Regular-61" transform="translate(1709.899658 0)"/>
     <use xlink:href="#NotoSansCJKsc-Regular-73" transform="translate(1766.199646 0)"/>
     <use xlink:href="#NotoSansCJKsc-Regular-63" transform="translate(1812.999634 0)"/>
     <use xlink:href="#NotoSansCJKsc-Regular-61" transform="translate(1863.999619 0)"/>
     <use xlink:href="#NotoSansCJKsc-Regular-64" transform="translate(1920.299606 0)"/>
     <use xlink:href="#NotoSansCJKsc-Regular-65" transform="translate(1982.299591 0)"/>
     <use xlink:href="#NotoSansCJKsc-Regular-20" transform="translate(2037.699585 0)"/>
     <use xlink:href="#NotoSansCJKsc-Regular-6c" transform="translate(2060.099579 0)"/>
     <use xlink:href="#NotoSansCJKsc-Regular-61" transform="translate(2088.499573 0)"/>
     <use xlink:href="#NotoSansCJKsc-Regular-62" transform="translate(2144.799561 0)"/>
     <use xlink:href="#NotoSansCJKsc-Regular-65" transform="translate(2206.599548 0)"/>
     <use xlink:href="#NotoSansCJKsc-Regular-6c" transform="translate(2261.999542 0)"/>
     <use xlink:href="#NotoSansCJKsc-Regular-73" transform="translate(2290.399536 0)"/>
     <use xlink:href="#NotoSansCJKsc-Regular-20" transform="translate(2337.199524 0)"/>
     <use xlink:href="#NotoSansCJKsc-Regular-2d" transform="translate(2359.599518 0)"/>
     <use xlink:href="#NotoSansCJKsc-Regular-3e" transform="translate(2394.299515 0)"/>
     <use xlink:href="#NotoSansCJKsc-Regular-20" transform="translate(2449.7995 0)"/>
     <use xlink:href="#NotoSansCJKsc-Regular-42" transform="translate(2472.199493 0)"/>
     <use xlink:href="#NotoSansCJKsc-Regular-43" transform="translate(2537.89949 0)"/>
     <use xlink:href="#NotoSansCJKsc-Regular-45" transform="translate(2601.699478 0)"/>
     <use xlink:href="#NotoSansCJKsc-Regular-2f" transform="translate(2660.599472 0)"/>
     <use xlink:href="#NotoSansCJKsc-Regular-4d" transform="translate(2699.799469 0)"/>
     <use xlink:href="#NotoSansCJKsc-Regular-4e" transform="translate(2780.999451 0)"/>
     <use xlink:href="#NotoSansCJKsc-Regular-52" transform="translate(2853.299438 0)"/>
     <use xlink:href="#NotoSansCJKsc-Regular-2f" transform="translate(2916.799423 0)"/>
     <use xlink:href="#NotoSansCJKsc-Regular-54" transform="translate(2955.99942 0)"/>
     <use xlink:href="#NotoSansCJKsc-Regular-72" transform="translate(3015.899414 0)"/>
     <use xlink:href="#NotoSansCJKsc-Regular-69" transform="translate(3054.699402 0)"/>
     <use xlink:href="#NotoSansCJKsc-Regular-70" transform="translate(3082.199387 0)"/>
     <use xlink:href="#NotoSansCJKsc-Regular-6c" transform="translate(3144.199371 0)"/>
     <use xlink:href="#NotoSansCJKsc-Regular-65" transform="translate(3172.599365 0)"/>
     <use xlink:href="#NotoSansCJKsc-Regular-74" transform="translate(3227.999359 0)"/>
     <use xlink:href="#NotoSansCJKsc-Regular-20" transform="translate(3265.699356 0)"/>
     <use xlink:href="#NotoSansCJKsc-Regular-2d" transform="translate(3288.09935 0)"/>
     <use xlink:href="#NotoSansCJKsc-Regular-3e" transform="translate(3322.799347 0)"/>
     <use xlink:href="#NotoSansCJKsc-Regular-20" transform="translate(3378.299332 0)"/>
     <use xlink:href="#NotoSansCJKsc-Regular-64" transform="translate(3400.699326 0)"/>
     <use xlink:href="#NotoSansCJKsc-Regular-65" transform="translate(3462.69931 0)"/>
     <use xlink:href="#NotoSansCJKsc-Regular-70" transform="translate(3518.099304 0)"/>
     <use xlink:href="#NotoSansCJKsc-Regular-6c" transform="translate(3580.099289 0)"/>
     <use xlink:href="#NotoSansCJKsc-Regular-6f" transform="translate(3608.499283 0)"/>
     <use xlink:href="#NotoSansCJKsc-Regular-79" transform="translate(3669.099274 0)"/>
     <use xlink:href="#NotoSansCJKsc-Regular-61" transform="translate(3721.199265 0)"/>
     <use xlink:href="#NotoSansCJKsc-Regular-62" transform="translate(3777.499252 0)"/>
     <use xlink:href="#NotoSansCJKsc-Regular-6c" transform="translate(3839.29924 0)"/>
     <use xlink:href="#NotoSansCJKsc-Regular-65" transform="translate(3867.699234 0)"/>
     <use xlink:href="#NotoSansCJKsc-Regular-20" transform="translate(3923.099228 0)"/>
     <use xlink:href="#NotoSansCJKsc-Regular-64" transform="translate(3945.499222 0)"/>
     <use xlink:href="#NotoSansCJKsc-Regular-75" transform="translate(4007.499207 0)"/>
     <use xlink:href="#NotoSansCJKsc-Regular-61" transform="translate(4068.199203 0)"/>
     <use xlink:href="#NotoSansCJKsc-Regular-6c" transform="translate(4124.499191 0)"/>
     <use xlink:href="#NotoSansCJKsc-Regular-2d" transform="translate(4152.899185 0)"/>
     <use xlink:href="#NotoSansCJKsc-Regular-65" transform="translate(4187.599182 0)"/>
     <use xlink:href="#NotoSansCJKsc-Regular-6e" transform="translate(4242.999176 0)"/>
     <use xlink:href="#NotoSansCJKsc-Regular-63" transform="translate(4303.999161 0)"/>
     <use xlink:href="#NotoSansCJKsc-Regular-6f" transform="translate(4354.999146 0)"/>
     <use xlink:href="#NotoSansCJKsc-Regular-64" transform="translate(4415.599136 0)"/>
     <use xlink:href="#NotoSansCJKsc-Regular-65" transform="translate(4477.599121 0)"/>
     <use xlink:href="#NotoSansCJKsc-Regular-72" transform="translate(4532.999115 0)"/>
    </g>
   </g>
   <g id="text_3">
    <!-- Retrievers -->
    <g style="fill: #0891b2" transform="translate(43.237991 107.186104) scale(0.11 -0.11)">
     <use xlink:href="#NotoSansCJKsc-Bold-52"/>
     <use xlink:href="#NotoSansCJKsc-Bold-65" transform="translate(68.199982 0)"/>
     <use xlink:href="#NotoSansCJKsc-Bold-74" transform="translate(126.299973 0)"/>
     <use xlink:href="#NotoSansCJKsc-Bold-72" transform="translate(168.399963 0)"/>
     <use xlink:href="#NotoSansCJKsc-Bold-69" transform="translate(211.999954 0)"/>
     <use xlink:href="#NotoSansCJKsc-Bold-65" transform="translate(242.399948 0)"/>
     <use xlink:href="#NotoSansCJKsc-Bold-76" transform="translate(300.499939 0)"/>
     <use xlink:href="#NotoSansCJKsc-Bold-65" transform="translate(358.09993 0)"/>
     <use xlink:href="#NotoSansCJKsc-Bold-72" transform="translate(416.199921 0)"/>
     <use xlink:href="#NotoSansCJKsc-Bold-73" transform="translate(459.799911 0)"/>
    </g>
   </g>
   <g id="text_4">
    <!-- lexical -->
    <g style="fill: #475569" transform="translate(57.891038 120.873325) scale(0.09 -0.09)">
     <defs>
      <path id="NotoSansCJKsc-Regular-78" d="M 96 0 
L 710 0 
L 1178 813 
C 1299 1024 1408 1235 1530 1434 
L 1562 1434 
C 1696 1235 1824 1024 1939 813 
L 2451 0 
L 3091 0 
L 1946 1754 
L 3002 3475 
L 2394 3475 
L 1965 2714 
C 1856 2515 1760 2330 1658 2131 
L 1626 2131 
C 1510 2330 1389 2515 1286 2714 
L 819 3475 
L 186 3475 
L 1242 1811 
L 96 0 
z
" transform="scale(0.015625)"/>
     </defs>
     <use xlink:href="#NotoSansCJKsc-Regular-6c"/>
     <use xlink:href="#NotoSansCJKsc-Regular-65" transform="translate(28.399994 0)"/>
     <use xlink:href="#NotoSansCJKsc-Regular-78" transform="translate(83.799988 0)"/>
     <use xlink:href="#NotoSansCJKsc-Regular-69" transform="translate(133.599976 0)"/>
     <use xlink:href="#NotoSansCJKsc-Regular-63" transform="translate(161.09996 0)"/>
     <use xlink:href="#NotoSansCJKsc-Regular-61" transform="translate(212.099945 0)"/>
     <use xlink:href="#NotoSansCJKsc-Regular-6c" transform="translate(268.399933 0)"/>
    </g>
   </g>
   <g id="text_5">
    <!-- BM25/ANN -->
    <g style="fill: #475569" transform="translate(48.6351 133.624526) scale(0.09 -0.09)">
     <defs>
      <path id="NotoSansCJKsc-Regular-32" d="M 282 0 
L 3232 0 
L 3232 506 
L 1933 506 
C 1696 506 1408 480 1165 461 
C 2266 1504 3008 2458 3008 3398 
C 3008 4230 2477 4774 1638 4774 
C 1043 4774 634 4506 256 4090 
L 595 3757 
C 858 4070 1184 4301 1568 4301 
C 2150 4301 2432 3910 2432 3373 
C 2432 2566 1754 1632 282 346 
L 282 0 
z
" transform="scale(0.015625)"/>
      <path id="NotoSansCJKsc-Regular-35" d="M 1677 -83 
C 2464 -83 3213 499 3213 1523 
C 3213 2560 2573 3021 1798 3021 
C 1517 3021 1306 2950 1094 2835 
L 1216 4192 
L 2982 4192 
L 2982 4691 
L 704 4691 
L 550 2502 
L 864 2304 
C 1133 2483 1331 2579 1645 2579 
C 2234 2579 2618 2182 2618 1510 
C 2618 826 2176 403 1619 403 
C 1075 403 730 653 467 922 
L 173 538 
C 493 224 941 -83 1677 -83 
z
" transform="scale(0.015625)"/>
      <path id="NotoSansCJKsc-Regular-41" d="M 26 0 
L 621 0 
L 1075 1434 
L 2790 1434 
L 3238 0 
L 3866 0 
L 2272 4691 
L 1613 4691 
L 26 0 
z
M 1222 1901 
L 1453 2624 
C 1619 3155 1773 3661 1920 4211 
L 1946 4211 
C 2099 3667 2246 3155 2419 2624 
L 2643 1901 
L 1222 1901 
z
" transform="scale(0.015625)"/>
     </defs>
     <use xlink:href="#NotoSansCJKsc-Regular-42"/>
     <use xlink:href="#NotoSansCJKsc-Regular-4d" transform="translate(65.699997 0)"/>
     <use xlink:href="#NotoSansCJKsc-Regular-32" transform="translate(146.899979 0)"/>
     <use xlink:href="#NotoSansCJKsc-Regular-35" transform="translate(202.399963 0)"/>
     <use xlink:href="#NotoSansCJKsc-Regular-2f" transform="translate(257.899948 0)"/>
     <use xlink:href="#NotoSansCJKsc-Regular-41" transform="translate(297.099945 0)"/>
     <use xlink:href="#NotoSansCJKsc-Regular-4e" transform="translate(357.899933 0)"/>
     <use xlink:href="#NotoSansCJKsc-Regular-4e" transform="translate(430.199921 0)"/>
    </g>
   </g>
   <g id="text_6">
    <!-- prod logs -->
    <g style="fill: #475569" transform="translate(51.5376 146.375725) scale(0.09 -0.09)">
     <use xlink:href="#NotoSansCJKsc-Regular-70"/>
     <use xlink:href="#NotoSansCJKsc-Regular-72" transform="translate(61.999985 0)"/>
     <use xlink:href="#NotoSansCJKsc-Regular-6f" transform="translate(100.799973 0)"/>
     <use xlink:href="#NotoSansCJKsc-Regular-64" transform="translate(161.399963 0)"/>
     <use xlink:href="#NotoSansCJKsc-Regular-20" transform="translate(223.399948 0)"/>
     <use xlink:href="#NotoSansCJKsc-Regular-6c" transform="translate(245.799942 0)"/>
     <use xlink:href="#NotoSansCJKsc-Regular-6f" transform="translate(274.199936 0)"/>
     <use xlink:href="#NotoSansCJKsc-Regular-67" transform="translate(334.799927 0)"/>
     <use xlink:href="#NotoSansCJKsc-Regular-73" transform="translate(391.199921 0)"/>
    </g>
   </g>
   <g id="text_7">
    <!-- Mining -->
    <g style="fill: #2563eb" transform="translate(177.479 107.32876) scale(0.11 -0.11)">
     <defs>
      <path id="NotoSansCJKsc-Bold-4d" d="M 582 0 
L 1434 0 
L 1434 1978 
C 1434 2432 1357 3085 1312 3533 
L 1338 3533 
L 1715 2419 
L 2451 429 
L 2995 429 
L 3725 2419 
L 4109 3533 
L 4141 3533 
C 4090 3085 4019 2432 4019 1978 
L 4019 0 
L 4883 0 
L 4883 4742 
L 3834 4742 
L 3040 2515 
C 2944 2227 2861 1914 2758 1613 
L 2726 1613 
C 2630 1914 2541 2227 2438 2515 
L 1632 4742 
L 582 4742 
L 582 0 
z
" transform="scale(0.015625)"/>
     </defs>
     <use xlink:href="#NotoSansCJKsc-Bold-4d"/>
     <use xlink:href="#NotoSansCJKsc-Bold-69" transform="translate(85.299988 0)"/>
     <use xlink:href="#NotoSansCJKsc-Bold-6e" transform="translate(115.699982 0)"/>
     <use xlink:href="#NotoSansCJKsc-Bold-69" transform="translate(179.799973 0)"/>
     <use xlink:href="#NotoSansCJKsc-Bold-6e" transform="translate(210.199966 0)"/>
     <use xlink:href="#NotoSansCJKsc-Bold-67" transform="translate(274.299957 0)"/>
    </g>
   </g>
   <g id="text_8">
    <!-- disagreement -->
    <g style="fill: #475569" transform="translate(166.809938 120.873325) scale(0.09 -0.09)">
     <use xlink:href="#NotoSansCJKsc-Regular-64"/>
     <use xlink:href="#NotoSansCJKsc-Regular-69" transform="translate(61.999985 0)"/>
     <use xlink:href="#NotoSansCJKsc-Regular-73" transform="translate(89.499969 0)"/>
     <use xlink:href="#NotoSansCJKsc-Regular-61" transform="translate(136.299957 0)"/>
     <use xlink:href="#NotoSansCJKsc-Regular-67" transform="translate(192.599945 0)"/>
     <use xlink:href="#NotoSansCJKsc-Regular-72" transform="translate(248.999939 0)"/>
     <use xlink:href="#NotoSansCJKsc-Regular-65" transform="translate(287.799927 0)"/>
     <use xlink:href="#NotoSansCJKsc-Regular-65" transform="translate(343.199921 0)"/>
     <use xlink:href="#NotoSansCJKsc-Regular-6d" transform="translate(398.599915 0)"/>
     <use xlink:href="#NotoSansCJKsc-Regular-65" transform="translate(491.199905 0)"/>
     <use xlink:href="#NotoSansCJKsc-Regular-6e" transform="translate(546.599899 0)"/>
     <use xlink:href="#NotoSansCJKsc-Regular-74" transform="translate(607.599884 0)"/>
    </g>
   </g>
   <g id="text_9">
    <!-- easy/hard -->
    <g style="fill: #475569" transform="translate(174.807281 133.624526) scale(0.09 -0.09)">
     <use xlink:href="#NotoSansCJKsc-Regular-65"/>
     <use xlink:href="#NotoSansCJKsc-Regular-61" transform="translate(55.399994 0)"/>
     <use xlink:href="#NotoSansCJKsc-Regular-73" transform="translate(111.699982 0)"/>
     <use xlink:href="#NotoSansCJKsc-Regular-79" transform="translate(158.499969 0)"/>
     <use xlink:href="#NotoSansCJKsc-Regular-2f" transform="translate(210.59996 0)"/>
     <use xlink:href="#NotoSansCJKsc-Regular-68" transform="translate(249.799957 0)"/>
     <use xlink:href="#NotoSansCJKsc-Regular-61" transform="translate(310.499954 0)"/>
     <use xlink:href="#NotoSansCJKsc-Regular-72" transform="translate(366.799942 0)"/>
     <use xlink:href="#NotoSansCJKsc-Regular-64" transform="translate(405.59993 0)"/>
    </g>
   </g>
   <g id="text_10">
    <!-- negatives -->
    <g style="fill: #475569" transform="translate(175.661578 146.187288) scale(0.09 -0.09)">
     <defs>
      <path id="NotoSansCJKsc-Regular-76" d="M 1338 0 
L 2022 0 
L 3251 3475 
L 2675 3475 
L 2016 1498 
C 1914 1158 1798 806 1696 474 
L 1664 474 
C 1562 806 1453 1158 1344 1498 
L 691 3475 
L 83 3475 
L 1338 0 
z
" transform="scale(0.015625)"/>
     </defs>
     <use xlink:href="#NotoSansCJKsc-Regular-6e"/>
     <use xlink:href="#NotoSansCJKsc-Regular-65" transform="translate(60.999985 0)"/>
     <use xlink:href="#NotoSansCJKsc-Regular-67" transform="translate(116.399979 0)"/>
     <use xlink:href="#NotoSansCJKsc-Regular-61" transform="translate(172.799973 0)"/>
     <use xlink:href="#NotoSansCJKsc-Regular-74" transform="translate(229.09996 0)"/>
     <use xlink:href="#NotoSansCJKsc-Regular-69" transform="translate(266.799957 0)"/>
     <use xlink:href="#NotoSansCJKsc-Regular-76" transform="translate(294.299942 0)"/>
     <use xlink:href="#NotoSansCJKsc-Regular-65" transform="translate(346.399933 0)"/>
     <use xlink:href="#NotoSansCJKsc-Regular-73" transform="translate(401.799927 0)"/>
    </g>
   </g>
   <g id="text_11">
    <!-- LLM Cascade -->
    <g style="fill: #7c3aed" transform="translate(285.686103 107.186104) scale(0.11 -0.11)">
     <defs>
      <path id="NotoSansCJKsc-Bold-4c" d="M 582 0 
L 3456 0 
L 3456 794 
L 1530 794 
L 1530 4742 
L 582 4742 
L 582 0 
z
" transform="scale(0.015625)"/>
      <path id="NotoSansCJKsc-Bold-43" d="M 2509 -90 
C 3130 -90 3635 154 4026 608 
L 3520 1197 
C 3270 922 2957 730 2547 730 
C 1798 730 1318 1350 1318 2381 
C 1318 3398 1850 4013 2566 4013 
C 2925 4013 3200 3846 3443 3616 
L 3936 4218 
C 3629 4538 3155 4826 2547 4826 
C 1350 4826 346 3910 346 2349 
C 346 768 1318 -90 2509 -90 
z
" transform="scale(0.015625)"/>
     </defs>
     <use xlink:href="#NotoSansCJKsc-Bold-4c"/>
     <use xlink:href="#NotoSansCJKsc-Bold-4c" transform="translate(57.799988 0)"/>
     <use xlink:href="#NotoSansCJKsc-Bold-4d" transform="translate(115.599976 0)"/>
     <use xlink:href="#NotoSansCJKsc-Bold-20" transform="translate(200.899963 0)"/>
     <use xlink:href="#NotoSansCJKsc-Bold-43" transform="translate(223.59996 0)"/>
     <use xlink:href="#NotoSansCJKsc-Bold-61" transform="translate(289.199951 0)"/>
     <use xlink:href="#NotoSansCJKsc-Bold-73" transform="translate(348.299942 0)"/>
     <use xlink:href="#NotoSansCJKsc-Bold-63" transform="translate(397.799927 0)"/>
     <use xlink:href="#NotoSansCJKsc-Bold-61" transform="translate(450.499924 0)"/>
     <use xlink:href="#NotoSansCJKsc-Bold-64" transform="translate(509.599915 0)"/>
     <use xlink:href="#NotoSansCJKsc-Bold-65" transform="translate(573.999908 0)"/>
    </g>
   </g>
   <g id="text_12">
    <!-- 3-stage -->
    <g style="fill: #475569" transform="translate(305.023838 120.684888) scale(0.09 -0.09)">
     <defs>
      <path id="NotoSansCJKsc-Regular-33" d="M 1683 -83 
C 2522 -83 3194 416 3194 1254 
C 3194 1901 2752 2310 2202 2445 
L 2202 2477 
C 2701 2650 3034 3034 3034 3603 
C 3034 4346 2458 4774 1664 4774 
C 1126 4774 710 4538 358 4218 
L 672 3846 
C 941 4115 1267 4301 1645 4301 
C 2138 4301 2438 4006 2438 3558 
C 2438 3053 2112 2662 1139 2662 
L 1139 2214 
C 2227 2214 2598 1843 2598 1274 
C 2598 736 2208 403 1645 403 
C 1114 403 762 659 486 941 
L 186 563 
C 493 224 954 -83 1683 -83 
z
" transform="scale(0.015625)"/>
     </defs>
     <use xlink:href="#NotoSansCJKsc-Regular-33"/>
     <use xlink:href="#NotoSansCJKsc-Regular-2d" transform="translate(55.499985 0)"/>
     <use xlink:href="#NotoSansCJKsc-Regular-73" transform="translate(90.199982 0)"/>
     <use xlink:href="#NotoSansCJKsc-Regular-74" transform="translate(136.999969 0)"/>
     <use xlink:href="#NotoSansCJKsc-Regular-61" transform="translate(174.699966 0)"/>
     <use xlink:href="#NotoSansCJKsc-Regular-67" transform="translate(230.999954 0)"/>
     <use xlink:href="#NotoSansCJKsc-Regular-65" transform="translate(287.399948 0)"/>
    </g>
   </g>
   <g id="text_13">
    <!-- calibration -->
    <g style="fill: #475569" transform="translate(297.640322 133.624526) scale(0.09 -0.09)">
     <use xlink:href="#NotoSansCJKsc-Regular-63"/>
     <use xlink:href="#NotoSansCJKsc-Regular-61" transform="translate(50.999985 0)"/>
     <use xlink:href="#NotoSansCJKsc-Regular-6c" transform="translate(107.299973 0)"/>
     <use xlink:href="#NotoSansCJKsc-Regular-69" transform="translate(135.699966 0)"/>
     <use xlink:href="#NotoSansCJKsc-Regular-62" transform="translate(163.199951 0)"/>
     <use xlink:href="#NotoSansCJKsc-Regular-72" transform="translate(224.999939 0)"/>
     <use xlink:href="#NotoSansCJKsc-Regular-61" transform="translate(263.799927 0)"/>
     <use xlink:href="#NotoSansCJKsc-Regular-74" transform="translate(320.099915 0)"/>
     <use xlink:href="#NotoSansCJKsc-Regular-69" transform="translate(357.799911 0)"/>
     <use xlink:href="#NotoSansCJKsc-Regular-6f" transform="translate(385.299896 0)"/>
     <use xlink:href="#NotoSansCJKsc-Regular-6e" transform="translate(445.899887 0)"/>
    </g>
   </g>
   <g id="text_14">
    <!-- 5-grade -->
    <g style="fill: #475569" transform="translate(304.290478 146.375725) scale(0.09 -0.09)">
     <use xlink:href="#NotoSansCJKsc-Regular-35"/>
     <use xlink:href="#NotoSansCJKsc-Regular-2d" transform="translate(55.499985 0)"/>
     <use xlink:href="#NotoSansCJKsc-Regular-67" transform="translate(90.199982 0)"/>
     <use xlink:href="#NotoSansCJKsc-Regular-72" transform="translate(146.599976 0)"/>
     <use xlink:href="#NotoSansCJKsc-Regular-61" transform="translate(185.399963 0)"/>
     <use xlink:href="#NotoSansCJKsc-Regular-64" transform="translate(241.699951 0)"/>
     <use xlink:href="#NotoSansCJKsc-Regular-65" transform="translate(303.699936 0)"/>
    </g>
   </g>
   <g id="text_15">
    <!-- Curriculum -->
    <g style="fill: #d97706" transform="translate(414.531956 107.186104) scale(0.11 -0.11)">
     <use xlink:href="#NotoSansCJKsc-Bold-43"/>
     <use xlink:href="#NotoSansCJKsc-Bold-75" transform="translate(65.599991 0)"/>
     <use xlink:href="#NotoSansCJKsc-Bold-72" transform="translate(129.299988 0)"/>
     <use xlink:href="#NotoSansCJKsc-Bold-72" transform="translate(172.899979 0)"/>
     <use xlink:href="#NotoSansCJKsc-Bold-69" transform="translate(216.499969 0)"/>
     <use xlink:href="#NotoSansCJKsc-Bold-63" transform="translate(246.899963 0)"/>
     <use xlink:href="#NotoSansCJKsc-Bold-75" transform="translate(299.59996 0)"/>
     <use xlink:href="#NotoSansCJKsc-Bold-6c" transform="translate(363.299957 0)"/>
     <use xlink:href="#NotoSansCJKsc-Bold-75" transform="translate(394.799942 0)"/>
     <use xlink:href="#NotoSansCJKsc-Bold-6d" transform="translate(458.499939 0)"/>
    </g>
   </g>
   <g id="text_16">
    <!-- BCE -->
    <g style="fill: #475569" transform="translate(436.573519 120.873325) scale(0.09 -0.09)">
     <use xlink:href="#NotoSansCJKsc-Regular-42"/>
     <use xlink:href="#NotoSansCJKsc-Regular-43" transform="translate(65.699997 0)"/>
     <use xlink:href="#NotoSansCJKsc-Regular-45" transform="translate(129.499985 0)"/>
    </g>
   </g>
   <g id="text_17">
    <!-- MNR -->
    <g style="fill: #475569" transform="translate(435.2868 133.624526) scale(0.09 -0.09)">
     <use xlink:href="#NotoSansCJKsc-Regular-4d"/>
     <use xlink:href="#NotoSansCJKsc-Regular-4e" transform="translate(81.199982 0)"/>
     <use xlink:href="#NotoSansCJKsc-Regular-52" transform="translate(153.499969 0)"/>
    </g>
   </g>
   <g id="text_18">
    <!-- Triplet -->
    <g style="fill: #475569" transform="translate(431.114456 146.375725) scale(0.09 -0.09)">
     <use xlink:href="#NotoSansCJKsc-Regular-54"/>
     <use xlink:href="#NotoSansCJKsc-Regular-72" transform="translate(59.899994 0)"/>
     <use xlink:href="#NotoSansCJKsc-Regular-69" transform="translate(98.699982 0)"/>
     <use xlink:href="#NotoSansCJKsc-Regular-70" transform="translate(126.199966 0)"/>
     <use xlink:href="#NotoSansCJKsc-Regular-6c" transform="translate(188.199951 0)"/>
     <use xlink:href="#NotoSansCJKsc-Regular-65" transform="translate(216.599945 0)"/>
     <use xlink:href="#NotoSansCJKsc-Regular-74" transform="translate(271.999939 0)"/>
    </g>
   </g>
   <g id="text_19">
    <!-- Deploy -->
    <g style="fill: #10b981" transform="translate(550.655856 107.186104) scale(0.11 -0.11)">
     <defs>
      <path id="NotoSansCJKsc-Bold-70" d="M 506 -1376 
L 1446 -1376 
L 1446 -282 
L 1414 301 
C 1683 51 1990 -90 2304 -90 
C 3091 -90 3827 621 3827 1850 
C 3827 2950 3296 3674 2419 3674 
C 2029 3674 1664 3469 1363 3213 
L 1344 3213 
L 1274 3584 
L 506 3584 
L 506 -1376 
z
M 2099 685 
C 1901 685 1677 755 1446 954 
L 1446 2534 
C 1690 2778 1907 2899 2150 2899 
C 2643 2899 2861 2522 2861 1837 
C 2861 1056 2522 685 2099 685 
z
" transform="scale(0.015625)"/>
      <path id="NotoSansCJKsc-Bold-6f" d="M 2003 -90 
C 2899 -90 3725 602 3725 1792 
C 3725 2982 2899 3674 2003 3674 
C 1101 3674 282 2982 282 1792 
C 282 602 1101 -90 2003 -90 
z
M 2003 678 
C 1510 678 1242 1114 1242 1792 
C 1242 2464 1510 2906 2003 2906 
C 2490 2906 2765 2464 2765 1792 
C 2765 1114 2490 678 2003 678 
z
" transform="scale(0.015625)"/>
      <path id="NotoSansCJKsc-Bold-79" d="M 819 -1434 
C 1619 -1434 2003 -954 2317 -109 
L 3590 3584 
L 2688 3584 
L 2195 1920 
C 2106 1587 2016 1242 1939 909 
L 1907 909 
C 1805 1254 1715 1600 1606 1920 
L 1037 3584 
L 90 3584 
L 1485 70 
L 1421 -147 
C 1318 -461 1114 -691 749 -691 
C 666 -691 563 -666 499 -646 
L 326 -1370 
C 467 -1408 608 -1434 819 -1434 
z
" transform="scale(0.015625)"/>
     </defs>
     <use xlink:href="#NotoSansCJKsc-Bold-44"/>
     <use xlink:href="#NotoSansCJKsc-Bold-65" transform="translate(71.399994 0)"/>
     <use xlink:href="#NotoSansCJKsc-Bold-70" transform="translate(129.499985 0)"/>
     <use xlink:href="#NotoSansCJKsc-Bold-6c" transform="translate(193.899979 0)"/>
     <use xlink:href="#NotoSansCJKsc-Bold-6f" transform="translate(225.399963 0)"/>
     <use xlink:href="#NotoSansCJKsc-Bold-79" transform="translate(287.999954 0)"/>
    </g>
   </g>
   <g id="text_20">
    <!-- dual-encoder -->
    <g style="fill: #475569" transform="translate(541.469137 120.873325) scale(0.09 -0.09)">
     <use xlink:href="#NotoSansCJKsc-Regular-64"/>
     <use xlink:href="#NotoSansCJKsc-Regular-75" transform="translate(61.999985 0)"/>
     <use xlink:href="#NotoSansCJKsc-Regular-61" transform="translate(122.699982 0)"/>
     <use xlink:href="#NotoSansCJKsc-Regular-6c" transform="translate(178.999969 0)"/>
     <use xlink:href="#NotoSansCJKsc-Regular-2d" transform="translate(207.399963 0)"/>
     <use xlink:href="#NotoSansCJKsc-Regular-65" transform="translate(242.09996 0)"/>
     <use xlink:href="#NotoSansCJKsc-Regular-6e" transform="translate(297.499954 0)"/>
     <use xlink:href="#NotoSansCJKsc-Regular-63" transform="translate(358.499939 0)"/>
     <use xlink:href="#NotoSansCJKsc-Regular-6f" transform="translate(409.499924 0)"/>
     <use xlink:href="#NotoSansCJKsc-Regular-64" transform="translate(470.099915 0)"/>
     <use xlink:href="#NotoSansCJKsc-Regular-65" transform="translate(532.099899 0)"/>
     <use xlink:href="#NotoSansCJKsc-Regular-72" transform="translate(587.499893 0)"/>
    </g>
   </g>
   <g id="text_21">
    <!-- ANN index -->
    <g style="fill: #475569" transform="translate(547.8957 133.624526) scale(0.09 -0.09)">
     <use xlink:href="#NotoSansCJKsc-Regular-41"/>
     <use xlink:href="#NotoSansCJKsc-Regular-4e" transform="translate(60.799988 0)"/>
     <use xlink:href="#NotoSansCJKsc-Regular-4e" transform="translate(133.099976 0)"/>
     <use xlink:href="#NotoSansCJKsc-Regular-20" transform="translate(205.399963 0)"/>
     <use xlink:href="#NotoSansCJKsc-Regular-69" transform="translate(227.799957 0)"/>
     <use xlink:href="#NotoSansCJKsc-Regular-6e" transform="translate(255.299942 0)"/>
     <use xlink:href="#NotoSansCJKsc-Regular-64" transform="translate(316.299927 0)"/>
     <use xlink:href="#NotoSansCJKsc-Regular-65" transform="translate(378.299911 0)"/>
     <use xlink:href="#NotoSansCJKsc-Regular-78" transform="translate(433.699905 0)"/>
    </g>
   </g>
   <g id="text_22">
    <!-- online -->
    <g style="fill: #475569" transform="translate(556.427419 146.375725) scale(0.09 -0.09)">
     <use xlink:href="#NotoSansCJKsc-Regular-6f"/>
     <use xlink:href="#NotoSansCJKsc-Regular-6e" transform="translate(60.599991 0)"/>
     <use xlink:href="#NotoSansCJKsc-Regular-6c" transform="translate(121.599976 0)"/>
     <use xlink:href="#NotoSansCJKsc-Regular-69" transform="translate(149.999969 0)"/>
     <use xlink:href="#NotoSansCJKsc-Regular-6e" transform="translate(177.499954 0)"/>
     <use xlink:href="#NotoSansCJKsc-Regular-65" transform="translate(238.499939 0)"/>
    </g>
   </g>
   <g id="text_23">
    <!-- Scale -->
    <g style="fill: #334155" transform="translate(301.031172 206.645464) scale(0.11 -0.11)">
     <use xlink:href="#NotoSansCJKsc-Bold-53"/>
     <use xlink:href="#NotoSansCJKsc-Bold-63" transform="translate(62.399994 0)"/>
     <use xlink:href="#NotoSansCJKsc-Bold-61" transform="translate(115.099991 0)"/>
     <use xlink:href="#NotoSansCJKsc-Bold-6c" transform="translate(174.199982 0)"/>
     <use xlink:href="#NotoSansCJKsc-Bold-65" transform="translate(205.699966 0)"/>
    </g>
   </g>
   <g id="text_24">
    <!-- 240M+ pairs -->
    <g style="fill: #475569" transform="translate(290.475 220.332685) scale(0.09 -0.09)">
     <defs>
      <path id="NotoSansCJKsc-Regular-34" d="M 2176 0 
L 2726 0 
L 2726 1293 
L 3354 1293 
L 3354 1760 
L 2726 1760 
L 2726 4691 
L 2080 4691 
L 128 1677 
L 128 1293 
L 2176 1293 
L 2176 0 
z
M 2176 1760 
L 736 1760 
L 1805 3360 
C 1939 3590 2067 3827 2182 4051 
L 2208 4051 
C 2195 3814 2176 3430 2176 3200 
L 2176 1760 
z
" transform="scale(0.015625)"/>
      <path id="NotoSansCJKsc-Regular-30" d="M 1779 -83 
C 2669 -83 3238 723 3238 2362 
C 3238 3987 2669 4774 1779 4774 
C 883 4774 320 3987 320 2362 
C 320 723 883 -83 1779 -83 
z
M 1779 390 
C 1248 390 883 986 883 2362 
C 883 3731 1248 4314 1779 4314 
C 2310 4314 2675 3731 2675 2362 
C 2675 986 2310 390 1779 390 
z
" transform="scale(0.015625)"/>
      <path id="NotoSansCJKsc-Regular-2b" d="M 1542 742 
L 2010 742 
L 2010 2144 
L 3315 2144 
L 3315 2579 
L 2010 2579 
L 2010 3981 
L 1542 3981 
L 1542 2579 
L 243 2579 
L 243 2144 
L 1542 2144 
L 1542 742 
z
" transform="scale(0.015625)"/>
     </defs>
     <use xlink:href="#NotoSansCJKsc-Regular-32"/>
     <use xlink:href="#NotoSansCJKsc-Regular-34" transform="translate(55.499985 0)"/>
     <use xlink:href="#NotoSansCJKsc-Regular-30" transform="translate(110.999969 0)"/>
     <use xlink:href="#NotoSansCJKsc-Regular-4d" transform="translate(166.499954 0)"/>
     <use xlink:href="#NotoSansCJKsc-Regular-2b" transform="translate(247.699936 0)"/>
     <use xlink:href="#NotoSansCJKsc-Regular-20" transform="translate(303.199921 0)"/>
     <use xlink:href="#NotoSansCJKsc-Regular-70" transform="translate(325.599915 0)"/>
     <use xlink:href="#NotoSansCJKsc-Regular-61" transform="translate(387.599899 0)"/>
     <use xlink:href="#NotoSansCJKsc-Regular-69" transform="translate(443.899887 0)"/>
     <use xlink:href="#NotoSansCJKsc-Regular-72" transform="translate(471.399872 0)"/>
     <use xlink:href="#NotoSansCJKsc-Regular-73" transform="translate(510.19986 0)"/>
    </g>
   </g>
   <g id="text_25">
    <!-- 4M queries -->
    <g style="fill: #475569" transform="translate(292.782656 233.083885) scale(0.09 -0.09)">
     <defs>
      <path id="NotoSansCJKsc-Regular-71" d="M 2790 -1466 
L 3379 -1466 
L 3379 3475 
L 2912 3475 
L 2854 3149 
L 2842 3149 
C 2534 3418 2253 3565 1843 3565 
C 1050 3565 339 2861 339 1734 
C 339 576 902 -83 1773 -83 
C 2176 -83 2541 128 2822 403 
L 2790 -230 
L 2790 -1466 
z
M 1901 410 
C 1293 410 941 902 941 1741 
C 941 2534 1389 3072 1946 3072 
C 2234 3072 2502 2970 2790 2707 
L 2790 883 
C 2502 563 2221 410 1901 410 
z
" transform="scale(0.015625)"/>
     </defs>
     <use xlink:href="#NotoSansCJKsc-Regular-34"/>
     <use xlink:href="#NotoSansCJKsc-Regular-4d" transform="translate(55.499985 0)"/>
     <use xlink:href="#NotoSansCJKsc-Regular-20" transform="translate(136.699966 0)"/>
     <use xlink:href="#NotoSansCJKsc-Regular-71" transform="translate(159.09996 0)"/>
     <use xlink:href="#NotoSansCJKsc-Regular-75" transform="translate(221.099945 0)"/>
     <use xlink:href="#NotoSansCJKsc-Regular-65" transform="translate(281.799942 0)"/>
     <use xlink:href="#NotoSansCJKsc-Regular-72" transform="translate(337.199936 0)"/>
     <use xlink:href="#NotoSansCJKsc-Regular-69" transform="translate(375.999924 0)"/>
     <use xlink:href="#NotoSansCJKsc-Regular-65" transform="translate(403.499908 0)"/>
     <use xlink:href="#NotoSansCJKsc-Regular-73" transform="translate(458.899902 0)"/>
    </g>
   </g>
   <g id="text_26">
    <!-- tail gains -->
    <g style="fill: #475569" transform="translate(296.625938 245.835085) scale(0.09 -0.09)">
     <use xlink:href="#NotoSansCJKsc-Regular-74"/>
     <use xlink:href="#NotoSansCJKsc-Regular-61" transform="translate(37.699997 0)"/>
     <use xlink:href="#NotoSansCJKsc-Regular-69" transform="translate(93.999985 0)"/>
     <use xlink:href="#NotoSansCJKsc-Regular-6c" transform="translate(121.499969 0)"/>
     <use xlink:href="#NotoSansCJKsc-Regular-20" transform="translate(149.899963 0)"/>
     <use xlink:href="#NotoSansCJKsc-Regular-67" transform="translate(172.299957 0)"/>
     <use xlink:href="#NotoSansCJKsc-Regular-61" transform="translate(228.699951 0)"/>
     <use xlink:href="#NotoSansCJKsc-Regular-69" transform="translate(284.999939 0)"/>
     <use xlink:href="#NotoSansCJKsc-Regular-6e" transform="translate(312.499924 0)"/>
     <use xlink:href="#NotoSansCJKsc-Regular-73" transform="translate(373.499908 0)"/>
    </g>
   </g>
   <g id="text_27">
    <!-- Key idea: turn production retrieval disagreements into structured supervision, then train progressively. -->
    <g style="fill: #64748b" transform="translate(100.504688 246.11256) scale(0.09 -0.09)">
     <defs>
      <path id="NotoSansCJKsc-Regular-4b" d="M 646 0 
L 1235 0 
L 1235 1485 
L 2042 2445 
L 3450 0 
L 4109 0 
L 2413 2912 
L 3885 4691 
L 3213 4691 
L 1248 2336 
L 1235 2336 
L 1235 4691 
L 646 4691 
L 646 0 
z
" transform="scale(0.015625)"/>
      <path id="NotoSansCJKsc-Regular-3a" d="M 890 2496 
C 1120 2496 1312 2675 1312 2944 
C 1312 3206 1120 3392 890 3392 
C 653 3392 467 3206 467 2944 
C 467 2675 653 2496 890 2496 
z
M 890 -83 
C 1120 -83 1312 96 1312 358 
C 1312 627 1120 806 890 806 
C 653 806 467 627 467 358 
C 467 96 653 -83 890 -83 
z
" transform="scale(0.015625)"/>
      <path id="NotoSansCJKsc-Regular-2c" d="M 480 -1216 
C 1056 -973 1414 -493 1414 122 
C 1414 550 1229 806 922 806 
C 685 806 480 653 480 397 
C 480 141 678 -13 909 -13 
L 979 -6 
C 973 -390 736 -698 339 -870 
L 480 -1216 
z
" transform="scale(0.015625)"/>
      <path id="NotoSansCJKsc-Regular-2e" d="M 890 -83 
C 1120 -83 1312 96 1312 358 
C 1312 627 1120 806 890 806 
C 653 806 467 627 467 358 
C 467 96 653 -83 890 -83 
z
" transform="scale(0.015625)"/>
     </defs>
     <use xlink:href="#NotoSansCJKsc-Regular-4b"/>
     <use xlink:href="#NotoSansCJKsc-Regular-65" transform="translate(64.599991 0)"/>
     <use xlink:href="#NotoSansCJKsc-Regular-79" transform="translate(119.999985 0)"/>
     <use xlink:href="#NotoSansCJKsc-Regular-20" transform="translate(172.099976 0)"/>
     <use xlink:href="#NotoSansCJKsc-Regular-69" transform="translate(194.499969 0)"/>
     <use xlink:href="#NotoSansCJKsc-Regular-64" transform="translate(221.999954 0)"/>
     <use xlink:href="#NotoSansCJKsc-Regular-65" transform="translate(283.999939 0)"/>
     <use xlink:href="#NotoSansCJKsc-Regular-61" transform="translate(339.399933 0)"/>
     <use xlink:href="#NotoSansCJKsc-Regular-3a" transform="translate(395.699921 0)"/>
     <use xlink:href="#NotoSansCJKsc-Regular-20" transform="translate(423.499908 0)"/>
     <use xlink:href="#NotoSansCJKsc-Regular-74" transform="translate(445.899902 0)"/>
     <use xlink:href="#NotoSansCJKsc-Regular-75" transform="translate(483.599899 0)"/>
     <use xlink:href="#NotoSansCJKsc-Regular-72" transform="translate(544.299896 0)"/>
     <use xlink:href="#NotoSansCJKsc-Regular-6e" transform="translate(583.099884 0)"/>
     <use xlink:href="#NotoSansCJKsc-Regular-20" transform="translate(644.099869 0)"/>
     <use xlink:href="#NotoSansCJKsc-Regular-70" transform="translate(666.499863 0)"/>
     <use xlink:href="#NotoSansCJKsc-Regular-72" transform="translate(728.499847 0)"/>
     <use xlink:href="#NotoSansCJKsc-Regular-6f" transform="translate(767.299835 0)"/>
     <use xlink:href="#NotoSansCJKsc-Regular-64" transform="translate(827.899826 0)"/>
     <use xlink:href="#NotoSansCJKsc-Regular-75" transform="translate(889.899811 0)"/>
     <use xlink:href="#NotoSansCJKsc-Regular-63" transform="translate(950.599808 0)"/>
     <use xlink:href="#NotoSansCJKsc-Regular-74" transform="translate(1001.599792 0)"/>
     <use xlink:href="#NotoSansCJKsc-Regular-69" transform="translate(1039.299789 0)"/>
     <use xlink:href="#NotoSansCJKsc-Regular-6f" transform="translate(1066.799774 0)"/>
     <use xlink:href="#NotoSansCJKsc-Regular-6e" transform="translate(1127.399765 0)"/>
     <use xlink:href="#NotoSansCJKsc-Regular-20" transform="translate(1188.39975 0)"/>
     <use xlink:href="#NotoSansCJKsc-Regular-72" transform="translate(1210.799744 0)"/>
     <use xlink:href="#NotoSansCJKsc-Regular-65" transform="translate(1249.599731 0)"/>
     <use xlink:href="#NotoSansCJKsc-Regular-74" transform="translate(1304.999725 0)"/>
     <use xlink:href="#NotoSansCJKsc-Regular-72" transform="translate(1342.699722 0)"/>
     <use xlink:href="#NotoSansCJKsc-Regular-69" transform="translate(1381.49971 0)"/>
     <use xlink:href="#NotoSansCJKsc-Regular-65" transform="translate(1408.999695 0)"/>
     <use xlink:href="#NotoSansCJKsc-Regular-76" transform="translate(1464.399689 0)"/>
     <use xlink:href="#NotoSansCJKsc-Regular-61" transform="translate(1516.49968 0)"/>
     <use xlink:href="#NotoSansCJKsc-Regular-6c" transform="translate(1572.799667 0)"/>
     <use xlink:href="#NotoSansCJKsc-Regular-20" transform="translate(1601.199661 0)"/>
     <use xlink:href="#NotoSansCJKsc-Regular-64" transform="translate(1623.599655 0)"/>
     <use xlink:href="#NotoSansCJKsc-Regular-69" transform="translate(1685.59964 0)"/>
     <use xlink:href="#NotoSansCJKsc-Regular-73" transform="translate(1713.099625 0)"/>
     <use xlink:href="#NotoSansCJKsc-Regular-61" transform="translate(1759.899612 0)"/>
     <use xlink:href="#NotoSansCJKsc-Regular-67" transform="translate(1816.1996 0)"/>
     <use xlink:href="#NotoSansCJKsc-Regular-72" transform="translate(1872.599594 0)"/>
     <use xlink:href="#NotoSansCJKsc-Regular-65" transform="translate(1911.399582 0)"/>
     <use xlink:href="#NotoSansCJKsc-Regular-65" transform="translate(1966.799576 0)"/>
     <use xlink:href="#NotoSansCJKsc-Regular-6d" transform="translate(2022.19957 0)"/>
     <use xlink:href="#NotoSansCJKsc-Regular-65" transform="translate(2114.799561 0)"/>
     <use xlink:href="#NotoSansCJKsc-Regular-6e" transform="translate(2170.199554 0)"/>
     <use xlink:href="#NotoSansCJKsc-Regular-74" transform="translate(2231.199539 0)"/>
     <use xlink:href="#NotoSansCJKsc-Regular-73" transform="translate(2268.899536 0)"/>
     <use xlink:href="#NotoSansCJKsc-Regular-20" transform="translate(2315.699524 0)"/>
     <use xlink:href="#NotoSansCJKsc-Regular-69" transform="translate(2338.099518 0)"/>
     <use xlink:href="#NotoSansCJKsc-Regular-6e" transform="translate(2365.599503 0)"/>
     <use xlink:href="#NotoSansCJKsc-Regular-74" transform="translate(2426.599487 0)"/>
     <use xlink:href="#NotoSansCJKsc-Regular-6f" transform="translate(2464.299484 0)"/>
     <use xlink:href="#NotoSansCJKsc-Regular-20" transform="translate(2524.899475 0)"/>
     <use xlink:href="#NotoSansCJKsc-Regular-73" transform="translate(2547.299469 0)"/>
     <use xlink:href="#NotoSansCJKsc-Regular-74" transform="translate(2594.099457 0)"/>
     <use xlink:href="#NotoSansCJKsc-Regular-72" transform="translate(2631.799454 0)"/>
     <use xlink:href="#NotoSansCJKsc-Regular-75" transform="translate(2670.599442 0)"/>
     <use xlink:href="#NotoSansCJKsc-Regular-63" transform="translate(2731.299438 0)"/>
     <use xlink:href="#NotoSansCJKsc-Regular-74" transform="translate(2782.299423 0)"/>
     <use xlink:href="#NotoSansCJKsc-Regular-75" transform="translate(2819.99942 0)"/>
     <use xlink:href="#NotoSansCJKsc-Regular-72" transform="translate(2880.699417 0)"/>
     <use xlink:href="#NotoSansCJKsc-Regular-65" transform="translate(2919.499405 0)"/>
     <use xlink:href="#NotoSansCJKsc-Regular-64" transform="translate(2974.899399 0)"/>
     <use xlink:href="#NotoSansCJKsc-Regular-20" transform="translate(3036.899384 0)"/>
     <use xlink:href="#NotoSansCJKsc-Regular-73" transform="translate(3059.299377 0)"/>
     <use xlink:href="#NotoSansCJKsc-Regular-75" transform="translate(3106.099365 0)"/>
     <use xlink:href="#NotoSansCJKsc-Regular-70" transform="translate(3166.799362 0)"/>
     <use xlink:href="#NotoSansCJKsc-Regular-65" transform="translate(3228.799347 0)"/>
     <use xlink:href="#NotoSansCJKsc-Regular-72" transform="translate(3284.199341 0)"/>
     <use xlink:href="#NotoSansCJKsc-Regular-76" transform="translate(3322.999329 0)"/>
     <use xlink:href="#NotoSansCJKsc-Regular-69" transform="translate(3375.099319 0)"/>
     <use xlink:href="#NotoSansCJKsc-Regular-73" transform="translate(3402.599304 0)"/>
     <use xlink:href="#NotoSansCJKsc-Regular-69" transform="translate(3449.399292 0)"/>
     <use xlink:href="#NotoSansCJKsc-Regular-6f" transform="translate(3476.899277 0)"/>
     <use xlink:href="#NotoSansCJKsc-Regular-6e" transform="translate(3537.499268 0)"/>
     <use xlink:href="#NotoSansCJKsc-Regular-2c" transform="translate(3598.499252 0)"/>
     <use xlink:href="#NotoSansCJKsc-Regular-20" transform="translate(3626.29924 0)"/>
     <use xlink:href="#NotoSansCJKsc-Regular-74" transform="translate(3648.699234 0)"/>
     <use xlink:href="#NotoSansCJKsc-Regular-68" transform="translate(3686.399231 0)"/>
     <use xlink:href="#NotoSansCJKsc-Regular-65" transform="translate(3747.099228 0)"/>
     <use xlink:href="#NotoSansCJKsc-Regular-6e" transform="translate(3802.499222 0)"/>
     <use xlink:href="#NotoSansCJKsc-Regular-20" transform="translate(3863.499207 0)"/>
     <use xlink:href="#NotoSansCJKsc-Regular-74" transform="translate(3885.8992 0)"/>
     <use xlink:href="#NotoSansCJKsc-Regular-72" transform="translate(3923.599197 0)"/>
     <use xlink:href="#NotoSansCJKsc-Regular-61" transform="translate(3962.399185 0)"/>
     <use xlink:href="#NotoSansCJKsc-Regular-69" transform="translate(4018.699173 0)"/>
     <use xlink:href="#NotoSansCJKsc-Regular-6e" transform="translate(4046.199158 0)"/>
     <use xlink:href="#NotoSansCJKsc-Regular-20" transform="translate(4107.199142 0)"/>
     <use xlink:href="#NotoSansCJKsc-Regular-70" transform="translate(4129.599136 0)"/>
     <use xlink:href="#NotoSansCJKsc-Regular-72" transform="translate(4191.599121 0)"/>
     <use xlink:href="#NotoSansCJKsc-Regular-6f" transform="translate(4230.399109 0)"/>
     <use xlink:href="#NotoSansCJKsc-Regular-67" transform="translate(4290.9991 0)"/>
     <use xlink:href="#NotoSansCJKsc-Regular-72" transform="translate(4347.399094 0)"/>
     <use xlink:href="#NotoSansCJKsc-Regular-65" transform="translate(4386.199081 0)"/>
     <use xlink:href="#NotoSansCJKsc-Regular-73" transform="translate(4441.599075 0)"/>
     <use xlink:href="#NotoSansCJKsc-Regular-73" transform="translate(4488.399063 0)"/>
     <use xlink:href="#NotoSansCJKsc-Regular-69" transform="translate(4535.199051 0)"/>
     <use xlink:href="#NotoSansCJKsc-Regular-76" transform="translate(4562.699036 0)"/>
     <use xlink:href="#NotoSansCJKsc-Regular-65" transform="translate(4614.799026 0)"/>
     <use xlink:href="#NotoSansCJKsc-Regular-6c" transform="translate(4670.19902 0)"/>
     <use xlink:href="#NotoSansCJKsc-Regular-79" transform="translate(4698.599014 0)"/>
     <use xlink:href="#NotoSansCJKsc-Regular-2e" transform="translate(4750.699005 0)"/>
    </g>
   </g>
   <g id="patch_13">
    <path d="M 16.0056 26.49168 
L 77.3856 26.49168 
L 77.3856 15.0156 
L 16.0056 15.0156 
z
" clip-path="url(#p8fda996cbf)" style="fill: #2563eb; stroke: #2563eb; stroke-linejoin: miter"/>
   </g>
  </g>
 </g>
 <defs>
  <clipPath id="p8fda996cbf">
   <rect x="8.64" y="8.64" width="613.8" height="255.024"/>
  </clipPath>
 </defs>
</svg>
