<svg xmlns="http://www.w3.org/2000/svg" width="720" height="420" viewBox="0 0 720 420"><rect width="720" height="420" fill="#f8fafc"/><text x="36" y="48" font-size="24" font-family="Arial" font-weight="700" fill="#0f172a">QueryAgent-R1 Method</text><rect x="40" y="90" width="150" height="80" rx="16" fill="#dbeafe" stroke="#2563eb"/><text x="60" y="122" font-size="14" font-family="Arial">User behavior</text><text x="60" y="146" font-size="12" font-family="Arial">search/click logs</text><path d="M195 130 H260" stroke="#64748b" stroke-width="3" marker-end="url(#a)"/><rect x="260" y="82" width="170" height="96" rx="16" fill="#dcfce7" stroke="#16a34a"/><text x="284" y="116" font-size="14" font-family="Arial">Memory Tool</text><text x="284" y="140" font-size="12" font-family="Arial">LatestIntent + InterestGraph</text><path d="M435 130 H500" stroke="#64748b" stroke-width="3" marker-end="url(#a)"/><rect x="500" y="90" width="170" height="80" rx="16" fill="#fef3c7" stroke="#d97706"/><text x="526" y="122" font-size="14" font-family="Arial">Query policy</text><text x="526" y="146" font-size="12" font-family="Arial">candidate query</text><path d="M585 174 V230" stroke="#64748b" stroke-width="3" marker-end="url(#a)"/><rect x="485" y="230" width="200" height="88" rx="16" fill="#fae8ff" stroke="#9333ea"/><text x="512" y="264" font-size="14" font-family="Arial">Product_Search</text><text x="512" y="288" font-size="12" font-family="Arial">retrieve & rerank inventory</text><path d="M485 274 H360 V180" stroke="#64748b" stroke-width="3" stroke-dasharray="8 6" marker-end="url(#a)"/><rect x="58" y="246" width="330" height="92" rx="16" fill="#fff" stroke="#cbd5e1"/><text x="80" y="280" font-size="14" font-family="Arial">Chain-of-Retrieval reward</text><text x="80" y="306" font-size="12" font-family="Arial">Query EM + Item HitRate + ROUGE + format</text><defs><marker id="a" markerWidth="8" markerHeight="8" refX="7" refY="4" orient="auto"><path d="M0,0 L8,4 L0,8 z" fill="#64748b"/></marker></defs></svg>