<?xml version="1.0" encoding="utf-8" standalone="no"?>
<!DOCTYPE svg PUBLIC "-//W3C//DTD SVG 1.1//EN"
  "http://www.w3.org/Graphics/SVG/1.1/DTD/svg11.dtd">
<svg xmlns:xlink="http://www.w3.org/1999/xlink" width="631.08pt" height="272.304pt" viewBox="0 0 631.08 272.304" xmlns="http://www.w3.org/2000/svg" version="1.1">
 <metadata>
  <rdf:RDF xmlns:dc="http://purl.org/dc/elements/1.1/" xmlns:cc="http://creativecommons.org/ns#" xmlns:rdf="http://www.w3.org/1999/02/22-rdf-syntax-ns#">
   <cc:Work>
    <dc:type rdf:resource="http://purl.org/dc/dcmitype/StillImage"/>
    <dc:date>2026-06-25T19:42:38.085210</dc:date>
    <dc:format>image/svg+xml</dc:format>
    <dc:creator>
     <cc:Agent>
      <dc:title>Matplotlib v3.10.5, https://matplotlib.org/</dc:title>
     </cc:Agent>
    </dc:creator>
   </cc:Work>
  </rdf:RDF>
 </metadata>
 <defs>
  <style type="text/css">*{stroke-linejoin: round; stroke-linecap: butt}</style>
 </defs>
 <g id="figure_1">
  <g id="patch_1">
   <path d="M 0 272.304 
L 631.08 272.304 
L 631.08 0 
L 0 0 
z
" style="fill: #ffffff"/>
  </g>
  <g id="axes_1">
   <g id="patch_2">
    <path d="M 122.354093 123.4008 
Q 127.410351 123.4008 130.539681 123.4008 
" clip-path="url(#p32b6f16193)" style="fill: none; stroke: #94a3b8; stroke-width: 1.9; stroke-linecap: round"/>
    <path d="M 124.539681 120.0008 
L 130.539681 123.4008 
L 124.539681 126.8008 
" clip-path="url(#p32b6f16193)" style="fill: none; stroke: #94a3b8; stroke-width: 1.9; stroke-linecap: round"/>
   </g>
   <g id="patch_3">
    <path d="M 240.817493 123.4008 
Q 245.873751 123.4008 249.003081 123.4008 
" clip-path="url(#p32b6f16193)" style="fill: none; stroke: #94a3b8; stroke-width: 1.9; stroke-linecap: round"/>
    <path d="M 243.003081 120.0008 
L 249.003081 123.4008 
L 243.003081 126.8008 
" clip-path="url(#p32b6f16193)" style="fill: none; stroke: #94a3b8; stroke-width: 1.9; stroke-linecap: round"/>
   </g>
   <g id="patch_4">
    <path d="M 359.280893 123.4008 
Q 364.337151 123.4008 367.466481 123.4008 
" clip-path="url(#p32b6f16193)" style="fill: none; stroke: #94a3b8; stroke-width: 1.9; stroke-linecap: round"/>
    <path d="M 361.466481 120.0008 
L 367.466481 123.4008 
L 361.466481 126.8008 
" clip-path="url(#p32b6f16193)" style="fill: none; stroke: #94a3b8; stroke-width: 1.9; stroke-linecap: round"/>
   </g>
   <g id="patch_5">
    <path d="M 477.744293 123.4008 
Q 482.800551 123.4008 485.929881 123.4008 
" clip-path="url(#p32b6f16193)" style="fill: none; stroke: #94a3b8; stroke-width: 1.9; stroke-linecap: round"/>
    <path d="M 479.929881 120.0008 
L 485.929881 123.4008 
L 479.929881 126.8008 
" clip-path="url(#p32b6f16193)" style="fill: none; stroke: #94a3b8; stroke-width: 1.9; stroke-linecap: round"/>
   </g>
   <g id="patch_6">
    <path d="M 20.916 164.714688 
L 115.4412 164.714688 
Q 127.7172 164.714688 127.7172 159.614208 
L 127.7172 87.187392 
Q 127.7172 82.086912 115.4412 82.086912 
L 20.916 82.086912 
Q 8.64 82.086912 8.64 87.187392 
L 8.64 159.614208 
Q 8.64 164.714688 20.916 164.714688 
z
" clip-path="url(#p32b6f16193)" style="fill: #ecfeff; stroke: #a5f3fc; stroke-width: 1.4; stroke-linejoin: miter"/>
   </g>
   <g id="patch_7">
    <path d="M 139.3794 164.714688 
L 233.9046 164.714688 
Q 246.1806 164.714688 246.1806 159.614208 
L 246.1806 87.187392 
Q 246.1806 82.086912 233.9046 82.086912 
L 139.3794 82.086912 
Q 127.1034 82.086912 127.1034 87.187392 
L 127.1034 159.614208 
Q 127.1034 164.714688 139.3794 164.714688 
z
" clip-path="url(#p32b6f16193)" style="fill: #eff6ff; stroke: #bfdbfe; stroke-width: 1.4; stroke-linejoin: miter"/>
   </g>
   <g id="patch_8">
    <path d="M 257.8428 164.714688 
L 352.368 164.714688 
Q 364.644 164.714688 364.644 159.614208 
L 364.644 87.187392 
Q 364.644 82.086912 352.368 82.086912 
L 257.8428 82.086912 
Q 245.5668 82.086912 245.5668 87.187392 
L 245.5668 159.614208 
Q 245.5668 164.714688 257.8428 164.714688 
z
" clip-path="url(#p32b6f16193)" style="fill: #f5f3ff; stroke: #ddd6fe; stroke-width: 1.4; stroke-linejoin: miter"/>
   </g>
   <g id="patch_9">
    <path d="M 376.3062 164.714688 
L 470.8314 164.714688 
Q 483.1074 164.714688 483.1074 159.614208 
L 483.1074 87.187392 
Q 483.1074 82.086912 470.8314 82.086912 
L 376.3062 82.086912 
Q 364.0302 82.086912 364.0302 87.187392 
L 364.0302 159.614208 
Q 364.0302 164.714688 376.3062 164.714688 
z
" clip-path="url(#p32b6f16193)" style="fill: #fffbeb; stroke: #fde68a; stroke-width: 1.4; stroke-linejoin: miter"/>
   </g>
   <g id="patch_10">
    <path d="M 494.7696 164.714688 
L 601.5708 164.714688 
Q 613.8468 164.714688 613.8468 159.614208 
L 613.8468 87.187392 
Q 613.8468 82.086912 601.5708 82.086912 
L 494.7696 82.086912 
Q 482.4936 82.086912 482.4936 87.187392 
L 482.4936 159.614208 
Q 482.4936 164.714688 494.7696 164.714688 
z
" clip-path="url(#p32b6f16193)" style="fill: #ecfdf5; stroke: #bbf7d0; stroke-width: 1.4; stroke-linejoin: miter"/>
   </g>
   <g id="text_1">
    <!-- MemeReason — GRPO + CoT for Explainable Meme Moderation -->
    <g style="fill: #0f172a" transform="translate(16.0056 45.453764) scale(0.155 -0.155)">
     <defs>
      <path id="NotoSansCJKsc-Bold-4d" d="M 582 0 
L 1434 0 
L 1434 1978 
C 1434 2432 1357 3085 1312 3533 
L 1338 3533 
L 1715 2419 
L 2451 429 
L 2995 429 
L 3725 2419 
L 4109 3533 
L 4141 3533 
C 4090 3085 4019 2432 4019 1978 
L 4019 0 
L 4883 0 
L 4883 4742 
L 3834 4742 
L 3040 2515 
C 2944 2227 2861 1914 2758 1613 
L 2726 1613 
C 2630 1914 2541 2227 2438 2515 
L 1632 4742 
L 582 4742 
L 582 0 
z
" transform="scale(0.015625)"/>
      <path id="NotoSansCJKsc-Bold-65" d="M 2067 -90 
C 2509 -90 2963 64 3315 307 
L 2995 883 
C 2733 723 2483 640 2195 640 
C 1658 640 1274 941 1197 1523 
L 3405 1523 
C 3430 1613 3450 1786 3450 1958 
C 3450 2957 2938 3674 1952 3674 
C 1101 3674 282 2950 282 1792 
C 282 608 1062 -90 2067 -90 
z
M 1178 2157 
C 1254 2675 1587 2944 1965 2944 
C 2432 2944 2643 2637 2643 2157 
L 1178 2157 
z
" transform="scale(0.015625)"/>
      <path id="NotoSansCJKsc-Bold-6d" d="M 506 0 
L 1446 0 
L 1446 2464 
C 1696 2739 1926 2867 2131 2867 
C 2477 2867 2637 2675 2637 2118 
L 2637 0 
L 3571 0 
L 3571 2464 
C 3827 2739 4058 2867 4262 2867 
C 4602 2867 4762 2675 4762 2118 
L 4762 0 
L 5696 0 
L 5696 2234 
C 5696 3136 5350 3674 4589 3674 
C 4128 3674 3776 3392 3443 3046 
C 3277 3443 2976 3674 2464 3674 
C 1997 3674 1664 3418 1363 3104 
L 1344 3104 
L 1274 3584 
L 506 3584 
L 506 0 
z
" transform="scale(0.015625)"/>
      <path id="NotoSansCJKsc-Bold-52" d="M 1530 2541 
L 1530 3987 
L 2144 3987 
C 2752 3987 3085 3814 3085 3302 
C 3085 2797 2752 2541 2144 2541 
L 1530 2541 
z
M 3162 0 
L 4218 0 
L 3110 1939 
C 3654 2150 4013 2592 4013 3302 
C 4013 4390 3226 4742 2227 4742 
L 582 4742 
L 582 0 
L 1530 0 
L 1530 1792 
L 2189 1792 
L 3162 0 
z
" transform="scale(0.015625)"/>
      <path id="NotoSansCJKsc-Bold-61" d="M 1382 -90 
C 1798 -90 2157 109 2464 384 
L 2496 384 
L 2560 0 
L 3328 0 
L 3328 2093 
C 3328 3130 2861 3674 1952 3674 
C 1389 3674 877 3456 461 3200 
L 794 2573 
C 1126 2771 1446 2918 1779 2918 
C 2221 2918 2374 2650 2387 2298 
C 947 2144 326 1741 326 979 
C 326 365 742 -90 1382 -90 
z
M 1696 646 
C 1421 646 1222 768 1222 1050 
C 1222 1376 1510 1613 2387 1715 
L 2387 998 
C 2163 774 1965 646 1696 646 
z
" transform="scale(0.015625)"/>
      <path id="NotoSansCJKsc-Bold-73" d="M 1530 -90 
C 2458 -90 2957 410 2957 1043 
C 2957 1702 2432 1946 1958 2125 
C 1574 2266 1248 2362 1248 2624 
C 1248 2829 1402 2970 1728 2970 
C 1990 2970 2240 2842 2496 2662 
L 2918 3232 
C 2624 3462 2221 3674 1702 3674 
C 883 3674 365 3219 365 2579 
C 365 1978 870 1702 1325 1530 
C 1702 1382 2074 1261 2074 992 
C 2074 768 1914 614 1555 614 
C 1216 614 915 762 595 1005 
L 166 410 
C 525 115 1050 -90 1530 -90 
z
" transform="scale(0.015625)"/>
      <path id="NotoSansCJKsc-Bold-6f" d="M 2003 -90 
C 2899 -90 3725 602 3725 1792 
C 3725 2982 2899 3674 2003 3674 
C 1101 3674 282 2982 282 1792 
C 282 602 1101 -90 2003 -90 
z
M 2003 678 
C 1510 678 1242 1114 1242 1792 
C 1242 2464 1510 2906 2003 2906 
C 2490 2906 2765 2464 2765 1792 
C 2765 1114 2490 678 2003 678 
z
" transform="scale(0.015625)"/>
      <path id="NotoSansCJKsc-Bold-6e" d="M 506 0 
L 1446 0 
L 1446 2464 
C 1709 2726 1901 2867 2189 2867 
C 2541 2867 2694 2675 2694 2118 
L 2694 0 
L 3635 0 
L 3635 2234 
C 3635 3136 3302 3674 2528 3674 
C 2042 3674 1677 3418 1363 3110 
L 1344 3110 
L 1274 3584 
L 506 3584 
L 506 0 
z
" transform="scale(0.015625)"/>
      <path id="NotoSansCJKsc-Bold-20" transform="scale(0.015625)"/>
      <path id="NotoSansCJKsc-Bold-2014" d="M 314 1536 
L 5498 1536 
L 5498 2138 
L 314 2138 
L 314 1536 
z
" transform="scale(0.015625)"/>
      <path id="NotoSansCJKsc-Bold-47" d="M 2618 -90 
C 3270 -90 3834 160 4160 480 
L 4160 2618 
L 2470 2618 
L 2470 1843 
L 3309 1843 
L 3309 909 
C 3181 794 2944 730 2720 730 
C 1786 730 1318 1350 1318 2381 
C 1318 3398 1856 4013 2650 4013 
C 3072 4013 3341 3840 3578 3616 
L 4083 4218 
C 3776 4531 3302 4826 2618 4826 
C 1357 4826 346 3910 346 2349 
C 346 768 1331 -90 2618 -90 
z
" transform="scale(0.015625)"/>
      <path id="NotoSansCJKsc-Bold-50" d="M 582 0 
L 1530 0 
L 1530 1683 
L 2163 1683 
C 3181 1683 3994 2170 3994 3251 
C 3994 4371 3187 4742 2138 4742 
L 582 4742 
L 582 0 
z
M 1530 2432 
L 1530 3987 
L 2067 3987 
C 2720 3987 3066 3802 3066 3251 
C 3066 2707 2752 2432 2099 2432 
L 1530 2432 
z
" transform="scale(0.015625)"/>
      <path id="NotoSansCJKsc-Bold-4f" d="M 2464 -90 
C 3718 -90 4582 851 4582 2394 
C 4582 3930 3718 4826 2464 4826 
C 1210 4826 346 3930 346 2394 
C 346 851 1210 -90 2464 -90 
z
M 2464 730 
C 1760 730 1318 1382 1318 2394 
C 1318 3405 1760 4013 2464 4013 
C 3168 4013 3616 3405 3616 2394 
C 3616 1382 3168 730 2464 730 
z
" transform="scale(0.015625)"/>
      <path id="NotoSansCJKsc-Bold-2b" d="M 1536 704 
L 2234 704 
L 2234 2061 
L 3526 2061 
L 3526 2733 
L 2234 2733 
L 2234 4096 
L 1536 4096 
L 1536 2733 
L 250 2733 
L 250 2061 
L 1536 2061 
L 1536 704 
z
" transform="scale(0.015625)"/>
      <path id="NotoSansCJKsc-Bold-43" d="M 2509 -90 
C 3130 -90 3635 154 4026 608 
L 3520 1197 
C 3270 922 2957 730 2547 730 
C 1798 730 1318 1350 1318 2381 
C 1318 3398 1850 4013 2566 4013 
C 2925 4013 3200 3846 3443 3616 
L 3936 4218 
C 3629 4538 3155 4826 2547 4826 
C 1350 4826 346 3910 346 2349 
C 346 768 1318 -90 2509 -90 
z
" transform="scale(0.015625)"/>
      <path id="NotoSansCJKsc-Bold-54" d="M 1523 0 
L 2470 0 
L 2470 3949 
L 3808 3949 
L 3808 4742 
L 192 4742 
L 192 3949 
L 1523 3949 
L 1523 0 
z
" transform="scale(0.015625)"/>
      <path id="NotoSansCJKsc-Bold-66" d="M 179 2842 
L 666 2842 
L 666 0 
L 1600 0 
L 1600 2842 
L 2285 2842 
L 2285 3584 
L 1600 3584 
L 1600 3891 
C 1600 4288 1760 4454 2035 4454 
C 2163 4454 2298 4429 2419 4371 
L 2592 5075 
C 2432 5139 2189 5197 1907 5197 
C 1011 5197 666 4614 666 3872 
L 666 3578 
L 179 3539 
L 179 2842 
z
" transform="scale(0.015625)"/>
      <path id="NotoSansCJKsc-Bold-72" d="M 506 0 
L 1446 0 
L 1446 2138 
C 1651 2656 1984 2842 2259 2842 
C 2413 2842 2515 2822 2643 2784 
L 2797 3597 
C 2694 3642 2579 3674 2381 3674 
C 2010 3674 1626 3418 1363 2950 
L 1344 2950 
L 1274 3584 
L 506 3584 
L 506 0 
z
" transform="scale(0.015625)"/>
      <path id="NotoSansCJKsc-Bold-45" d="M 582 0 
L 3558 0 
L 3558 794 
L 1530 794 
L 1530 2061 
L 3187 2061 
L 3187 2854 
L 1530 2854 
L 1530 3949 
L 3488 3949 
L 3488 4742 
L 582 4742 
L 582 0 
z
" transform="scale(0.015625)"/>
      <path id="NotoSansCJKsc-Bold-78" d="M 102 0 
L 1082 0 
L 1408 659 
C 1510 870 1606 1082 1709 1280 
L 1741 1280 
C 1856 1082 1978 870 2086 659 
L 2483 0 
L 3494 0 
L 2374 1760 
L 3424 3584 
L 2451 3584 
L 2150 2950 
C 2067 2746 1971 2541 1888 2342 
L 1862 2342 
C 1754 2541 1645 2746 1542 2950 
L 1184 3584 
L 173 3584 
L 1222 1862 
L 102 0 
z
" transform="scale(0.015625)"/>
      <path id="NotoSansCJKsc-Bold-70" d="M 506 -1376 
L 1446 -1376 
L 1446 -282 
L 1414 301 
C 1683 51 1990 -90 2304 -90 
C 3091 -90 3827 621 3827 1850 
C 3827 2950 3296 3674 2419 3674 
C 2029 3674 1664 3469 1363 3213 
L 1344 3213 
L 1274 3584 
L 506 3584 
L 506 -1376 
z
M 2099 685 
C 1901 685 1677 755 1446 954 
L 1446 2534 
C 1690 2778 1907 2899 2150 2899 
C 2643 2899 2861 2522 2861 1837 
C 2861 1056 2522 685 2099 685 
z
" transform="scale(0.015625)"/>
      <path id="NotoSansCJKsc-Bold-6c" d="M 1395 -90 
C 1613 -90 1766 -51 1875 -6 
L 1760 691 
C 1696 678 1670 678 1632 678 
C 1542 678 1446 749 1446 966 
L 1446 5107 
L 506 5107 
L 506 1005 
C 506 339 736 -90 1395 -90 
z
" transform="scale(0.015625)"/>
      <path id="NotoSansCJKsc-Bold-69" d="M 506 0 
L 1446 0 
L 1446 3584 
L 506 3584 
L 506 0 
z
M 979 4166 
C 1299 4166 1523 4365 1523 4678 
C 1523 4986 1299 5190 979 5190 
C 646 5190 435 4986 435 4678 
C 435 4365 646 4166 979 4166 
z
" transform="scale(0.015625)"/>
      <path id="NotoSansCJKsc-Bold-62" d="M 2304 -90 
C 3091 -90 3827 621 3827 1856 
C 3827 2950 3296 3674 2413 3674 
C 2061 3674 1702 3501 1414 3245 
L 1446 3821 
L 1446 5107 
L 506 5107 
L 506 0 
L 1242 0 
L 1318 378 
L 1350 378 
C 1638 77 1984 -90 2304 -90 
z
M 2099 685 
C 1901 685 1664 755 1446 954 
L 1446 2534 
C 1690 2778 1907 2899 2150 2899 
C 2643 2899 2861 2522 2861 1837 
C 2861 1056 2522 685 2099 685 
z
" transform="scale(0.015625)"/>
      <path id="NotoSansCJKsc-Bold-64" d="M 1766 -90 
C 2138 -90 2496 109 2758 371 
L 2784 371 
L 2854 0 
L 3622 0 
L 3622 5107 
L 2682 5107 
L 2682 3846 
L 2714 3283 
C 2458 3520 2208 3674 1805 3674 
C 1037 3674 301 2957 301 1792 
C 301 614 870 -90 1766 -90 
z
M 2010 685 
C 1536 685 1267 1056 1267 1805 
C 1267 2515 1606 2899 2010 2899 
C 2240 2899 2464 2829 2682 2630 
L 2682 1056 
C 2477 787 2259 685 2010 685 
z
" transform="scale(0.015625)"/>
      <path id="NotoSansCJKsc-Bold-74" d="M 1818 -90 
C 2131 -90 2381 -13 2579 45 
L 2419 730 
C 2323 691 2182 653 2067 653 
C 1747 653 1574 845 1574 1254 
L 1574 2842 
L 2464 2842 
L 2464 3584 
L 1574 3584 
L 1574 4550 
L 800 4550 
L 691 3584 
L 134 3539 
L 134 2842 
L 640 2842 
L 640 1248 
C 640 454 966 -90 1818 -90 
z
" transform="scale(0.015625)"/>
     </defs>
     <use xlink:href="#NotoSansCJKsc-Bold-4d"/>
     <use xlink:href="#NotoSansCJKsc-Bold-65" transform="translate(85.299988 0)"/>
     <use xlink:href="#NotoSansCJKsc-Bold-6d" transform="translate(143.399979 0)"/>
     <use xlink:href="#NotoSansCJKsc-Bold-65" transform="translate(239.799973 0)"/>
     <use xlink:href="#NotoSansCJKsc-Bold-52" transform="translate(297.899963 0)"/>
     <use xlink:href="#NotoSansCJKsc-Bold-65" transform="translate(366.099945 0)"/>
     <use xlink:href="#NotoSansCJKsc-Bold-61" transform="translate(424.199936 0)"/>
     <use xlink:href="#NotoSansCJKsc-Bold-73" transform="translate(483.299927 0)"/>
     <use xlink:href="#NotoSansCJKsc-Bold-6f" transform="translate(532.799911 0)"/>
     <use xlink:href="#NotoSansCJKsc-Bold-6e" transform="translate(595.399902 0)"/>
     <use xlink:href="#NotoSansCJKsc-Bold-20" transform="translate(659.499893 0)"/>
     <use xlink:href="#NotoSansCJKsc-Bold-2014" transform="translate(682.19989 0)"/>
     <use xlink:href="#NotoSansCJKsc-Bold-20" transform="translate(772.999878 0)"/>
     <use xlink:href="#NotoSansCJKsc-Bold-47" transform="translate(795.699875 0)"/>
     <use xlink:href="#NotoSansCJKsc-Bold-52" transform="translate(867.399857 0)"/>
     <use xlink:href="#NotoSansCJKsc-Bold-50" transform="translate(935.599838 0)"/>
     <use xlink:href="#NotoSansCJKsc-Bold-4f" transform="translate(1002.299835 0)"/>
     <use xlink:href="#NotoSansCJKsc-Bold-20" transform="translate(1079.29982 0)"/>
     <use xlink:href="#NotoSansCJKsc-Bold-2b" transform="translate(1101.999817 0)"/>
     <use xlink:href="#NotoSansCJKsc-Bold-20" transform="translate(1160.999802 0)"/>
     <use xlink:href="#NotoSansCJKsc-Bold-43" transform="translate(1183.699799 0)"/>
     <use xlink:href="#NotoSansCJKsc-Bold-6f" transform="translate(1249.299789 0)"/>
     <use xlink:href="#NotoSansCJKsc-Bold-54" transform="translate(1311.89978 0)"/>
     <use xlink:href="#NotoSansCJKsc-Bold-20" transform="translate(1374.399765 0)"/>
     <use xlink:href="#NotoSansCJKsc-Bold-66" transform="translate(1397.099762 0)"/>
     <use xlink:href="#NotoSansCJKsc-Bold-6f" transform="translate(1434.299759 0)"/>
     <use xlink:href="#NotoSansCJKsc-Bold-72" transform="translate(1496.89975 0)"/>
     <use xlink:href="#NotoSansCJKsc-Bold-20" transform="translate(1540.499741 0)"/>
     <use xlink:href="#NotoSansCJKsc-Bold-45" transform="translate(1563.199738 0)"/>
     <use xlink:href="#NotoSansCJKsc-Bold-78" transform="translate(1624.699722 0)"/>
     <use xlink:href="#NotoSansCJKsc-Bold-70" transform="translate(1680.899719 0)"/>
     <use xlink:href="#NotoSansCJKsc-Bold-6c" transform="translate(1745.299713 0)"/>
     <use xlink:href="#NotoSansCJKsc-Bold-61" transform="translate(1776.799698 0)"/>
     <use xlink:href="#NotoSansCJKsc-Bold-69" transform="translate(1835.899689 0)"/>
     <use xlink:href="#NotoSansCJKsc-Bold-6e" transform="translate(1866.299683 0)"/>
     <use xlink:href="#NotoSansCJKsc-Bold-61" transform="translate(1930.399673 0)"/>
     <use xlink:href="#NotoSansCJKsc-Bold-62" transform="translate(1989.499664 0)"/>
     <use xlink:href="#NotoSansCJKsc-Bold-6c" transform="translate(2053.899658 0)"/>
     <use xlink:href="#NotoSansCJKsc-Bold-65" transform="translate(2085.399643 0)"/>
     <use xlink:href="#NotoSansCJKsc-Bold-20" transform="translate(2143.499634 0)"/>
     <use xlink:href="#NotoSansCJKsc-Bold-4d" transform="translate(2166.199631 0)"/>
     <use xlink:href="#NotoSansCJKsc-Bold-65" transform="translate(2251.499619 0)"/>
     <use xlink:href="#NotoSansCJKsc-Bold-6d" transform="translate(2309.599609 0)"/>
     <use xlink:href="#NotoSansCJKsc-Bold-65" transform="translate(2405.999603 0)"/>
     <use xlink:href="#NotoSansCJKsc-Bold-20" transform="translate(2464.099594 0)"/>
     <use xlink:href="#NotoSansCJKsc-Bold-4d" transform="translate(2486.799591 0)"/>
     <use xlink:href="#NotoSansCJKsc-Bold-6f" transform="translate(2572.099579 0)"/>
     <use xlink:href="#NotoSansCJKsc-Bold-64" transform="translate(2634.69957 0)"/>
     <use xlink:href="#NotoSansCJKsc-Bold-65" transform="translate(2699.099564 0)"/>
     <use xlink:href="#NotoSansCJKsc-Bold-72" transform="translate(2757.199554 0)"/>
     <use xlink:href="#NotoSansCJKsc-Bold-61" transform="translate(2800.799545 0)"/>
     <use xlink:href="#NotoSansCJKsc-Bold-74" transform="translate(2859.899536 0)"/>
     <use xlink:href="#NotoSansCJKsc-Bold-69" transform="translate(2901.999527 0)"/>
     <use xlink:href="#NotoSansCJKsc-Bold-6f" transform="translate(2932.399521 0)"/>
     <use xlink:href="#NotoSansCJKsc-Bold-6e" transform="translate(2994.999512 0)"/>
    </g>
   </g>
   <g id="text_2">
    <!-- Image+text meme -&gt; MLLM -&gt; SFT warmup -&gt; GRPO post-training -&gt; label + rationale -->
    <g style="fill: #64748b" transform="translate(16.0056 54.024552) scale(0.096 -0.096)">
     <defs>
      <path id="NotoSansCJKsc-Regular-49" d="M 646 0 
L 1235 0 
L 1235 4691 
L 646 4691 
L 646 0 
z
" transform="scale(0.015625)"/>
      <path id="NotoSansCJKsc-Regular-6d" d="M 589 0 
L 1178 0 
L 1178 2522 
C 1491 2880 1786 3053 2048 3053 
C 2490 3053 2694 2778 2694 2125 
L 2694 0 
L 3277 0 
L 3277 2522 
C 3603 2880 3885 3053 4154 3053 
C 4595 3053 4800 2778 4800 2125 
L 4800 0 
L 5382 0 
L 5382 2202 
C 5382 3085 5043 3565 4333 3565 
C 3904 3565 3546 3290 3181 2899 
C 3040 3309 2758 3565 2221 3565 
C 1805 3565 1446 3302 1139 2970 
L 1126 2970 
L 1069 3475 
L 589 3475 
L 589 0 
z
" transform="scale(0.015625)"/>
      <path id="NotoSansCJKsc-Regular-61" d="M 1389 -83 
C 1818 -83 2208 141 2541 416 
L 2560 416 
L 2611 0 
L 3091 0 
L 3091 2138 
C 3091 3002 2739 3565 1888 3565 
C 1325 3565 838 3315 525 3110 
L 749 2707 
C 1024 2893 1389 3078 1792 3078 
C 2362 3078 2509 2650 2509 2202 
C 1030 2035 378 1658 378 902 
C 378 275 806 -83 1389 -83 
z
M 1555 390 
C 1210 390 941 544 941 941 
C 941 1389 1338 1677 2509 1811 
L 2509 845 
C 2170 544 1888 390 1555 390 
z
" transform="scale(0.015625)"/>
      <path id="NotoSansCJKsc-Regular-67" d="M 1760 -1600 
C 2835 -1600 3520 -1043 3520 -397 
C 3520 179 3110 429 2310 429 
L 1626 429 
C 1158 429 1018 589 1018 806 
C 1018 998 1114 1114 1242 1222 
C 1395 1146 1587 1101 1754 1101 
C 2470 1101 3027 1568 3027 2310 
C 3027 2611 2912 2867 2746 3027 
L 3456 3027 
L 3456 3475 
L 2246 3475 
C 2125 3526 1952 3565 1754 3565 
C 1056 3565 454 3085 454 2323 
C 454 1907 678 1568 909 1389 
L 909 1363 
C 723 1235 525 1005 525 717 
C 525 442 659 256 838 147 
L 838 115 
C 512 -83 326 -371 326 -672 
C 326 -1267 915 -1600 1760 -1600 
z
M 1754 1498 
C 1357 1498 1018 1818 1018 2323 
C 1018 2835 1350 3136 1754 3136 
C 2170 3136 2496 2835 2496 2323 
C 2496 1818 2157 1498 1754 1498 
z
M 1843 -1197 
C 1210 -1197 838 -960 838 -589 
C 838 -390 941 -179 1190 0 
C 1344 -38 1510 -51 1638 -51 
L 2240 -51 
C 2701 -51 2944 -166 2944 -493 
C 2944 -851 2515 -1197 1843 -1197 
z
" transform="scale(0.015625)"/>
      <path id="NotoSansCJKsc-Regular-65" d="M 1997 -83 
C 2464 -83 2835 70 3136 269 
L 2931 659 
C 2669 486 2400 384 2061 384 
C 1402 384 947 858 909 1600 
L 3251 1600 
C 3264 1690 3277 1805 3277 1933 
C 3277 2925 2778 3565 1888 3565 
C 1094 3565 333 2867 333 1734 
C 333 589 1069 -83 1997 -83 
z
M 902 2016 
C 973 2707 1408 3098 1901 3098 
C 2445 3098 2765 2720 2765 2016 
L 902 2016 
z
" transform="scale(0.015625)"/>
      <path id="NotoSansCJKsc-Regular-2b" d="M 1542 742 
L 2010 742 
L 2010 2144 
L 3315 2144 
L 3315 2579 
L 2010 2579 
L 2010 3981 
L 1542 3981 
L 1542 2579 
L 243 2579 
L 243 2144 
L 1542 2144 
L 1542 742 
z
" transform="scale(0.015625)"/>
      <path id="NotoSansCJKsc-Regular-74" d="M 1677 -83 
C 1894 -83 2125 -19 2323 45 
L 2208 486 
C 2093 435 1939 390 1811 390 
C 1408 390 1274 634 1274 1056 
L 1274 3002 
L 2221 3002 
L 2221 3475 
L 1274 3475 
L 1274 4454 
L 787 4454 
L 723 3475 
L 173 3443 
L 173 3002 
L 691 3002 
L 691 1075 
C 691 378 941 -83 1677 -83 
z
" transform="scale(0.015625)"/>
      <path id="NotoSansCJKsc-Regular-78" d="M 96 0 
L 710 0 
L 1178 813 
C 1299 1024 1408 1235 1530 1434 
L 1562 1434 
C 1696 1235 1824 1024 1939 813 
L 2451 0 
L 3091 0 
L 1946 1754 
L 3002 3475 
L 2394 3475 
L 1965 2714 
C 1856 2515 1760 2330 1658 2131 
L 1626 2131 
C 1510 2330 1389 2515 1286 2714 
L 819 3475 
L 186 3475 
L 1242 1811 
L 96 0 
z
" transform="scale(0.015625)"/>
      <path id="NotoSansCJKsc-Regular-20" transform="scale(0.015625)"/>
      <path id="NotoSansCJKsc-Regular-2d" d="M 294 1568 
L 1933 1568 
L 1933 2016 
L 294 2016 
L 294 1568 
z
" transform="scale(0.015625)"/>
      <path id="NotoSansCJKsc-Regular-3e" d="M 243 934 
L 3315 2144 
L 3315 2605 
L 243 3814 
L 243 3309 
L 1754 2746 
L 2714 2387 
L 2714 2362 
L 1754 2003 
L 243 1446 
L 243 934 
z
" transform="scale(0.015625)"/>
      <path id="NotoSansCJKsc-Regular-4d" d="M 646 0 
L 1178 0 
L 1178 2598 
C 1178 3002 1139 3571 1101 3981 
L 1126 3981 
L 1504 2912 
L 2394 474 
L 2790 474 
L 3674 2912 
L 4051 3981 
L 4077 3981 
C 4045 3571 4000 3002 4000 2598 
L 4000 0 
L 4550 0 
L 4550 4691 
L 3840 4691 
L 2944 2182 
C 2835 1862 2739 1530 2618 1203 
L 2592 1203 
C 2477 1530 2374 1862 2253 2182 
L 1357 4691 
L 646 4691 
L 646 0 
z
" transform="scale(0.015625)"/>
      <path id="NotoSansCJKsc-Regular-4c" d="M 646 0 
L 3290 0 
L 3290 506 
L 1235 506 
L 1235 4691 
L 646 4691 
L 646 0 
z
" transform="scale(0.015625)"/>
      <path id="NotoSansCJKsc-Regular-53" d="M 1946 -83 
C 2925 -83 3539 506 3539 1248 
C 3539 1946 3117 2266 2573 2502 
L 1907 2790 
C 1542 2944 1126 3117 1126 3578 
C 1126 3994 1472 4256 2003 4256 
C 2438 4256 2784 4090 3072 3821 
L 3379 4198 
C 3053 4538 2560 4774 2003 4774 
C 1152 4774 525 4256 525 3533 
C 525 2848 1043 2515 1478 2330 
L 2150 2035 
C 2598 1837 2938 1683 2938 1197 
C 2938 742 2573 435 1952 435 
C 1466 435 992 666 659 1018 
L 307 608 
C 710 186 1280 -83 1946 -83 
z
" transform="scale(0.015625)"/>
      <path id="NotoSansCJKsc-Regular-46" d="M 646 0 
L 1235 0 
L 1235 2106 
L 3027 2106 
L 3027 2605 
L 1235 2605 
L 1235 4192 
L 3347 4192 
L 3347 4691 
L 646 4691 
L 646 0 
z
" transform="scale(0.015625)"/>
      <path id="NotoSansCJKsc-Regular-54" d="M 1619 0 
L 2214 0 
L 2214 4192 
L 3635 4192 
L 3635 4691 
L 198 4691 
L 198 4192 
L 1619 4192 
L 1619 0 
z
" transform="scale(0.015625)"/>
      <path id="NotoSansCJKsc-Regular-77" d="M 1139 0 
L 1818 0 
L 2310 1862 
C 2400 2195 2470 2522 2547 2874 
L 2579 2874 
C 2662 2522 2726 2202 2816 1875 
L 3315 0 
L 4026 0 
L 4966 3475 
L 4403 3475 
L 3898 1466 
C 3821 1133 3757 819 3686 499 
L 3654 499 
C 3571 819 3494 1133 3411 1466 
L 2867 3475 
L 2298 3475 
L 1754 1466 
C 1670 1133 1594 819 1523 499 
L 1491 499 
C 1421 819 1357 1133 1286 1466 
L 768 3475 
L 173 3475 
L 1139 0 
z
" transform="scale(0.015625)"/>
      <path id="NotoSansCJKsc-Regular-72" d="M 589 0 
L 1178 0 
L 1178 2234 
C 1408 2822 1760 3040 2048 3040 
C 2195 3040 2272 3021 2387 2982 
L 2496 3488 
C 2387 3546 2278 3565 2125 3565 
C 1741 3565 1382 3283 1139 2842 
L 1126 2842 
L 1069 3475 
L 589 3475 
L 589 0 
z
" transform="scale(0.015625)"/>
      <path id="NotoSansCJKsc-Regular-75" d="M 1606 -83 
C 2080 -83 2426 166 2752 544 
L 2771 544 
L 2816 0 
L 3302 0 
L 3302 3475 
L 2720 3475 
L 2720 1011 
C 2387 602 2138 422 1779 422 
C 1318 422 1126 698 1126 1344 
L 1126 3475 
L 538 3475 
L 538 1274 
C 538 384 870 -83 1606 -83 
z
" transform="scale(0.015625)"/>
      <path id="NotoSansCJKsc-Regular-70" d="M 589 -1466 
L 1178 -1466 
L 1178 -288 
L 1158 320 
C 1472 58 1805 -83 2118 -83 
C 2912 -83 3629 602 3629 1792 
C 3629 2867 3142 3565 2246 3565 
C 1843 3565 1453 3334 1139 3072 
L 1126 3072 
L 1069 3475 
L 589 3475 
L 589 -1466 
z
M 2022 410 
C 1792 410 1485 499 1178 768 
L 1178 2598 
C 1510 2906 1811 3072 2099 3072 
C 2765 3072 3021 2560 3021 1786 
C 3021 928 2598 410 2022 410 
z
" transform="scale(0.015625)"/>
      <path id="NotoSansCJKsc-Regular-47" d="M 2490 -83 
C 3117 -83 3635 147 3936 461 
L 3936 2432 
L 2394 2432 
L 2394 1939 
L 3392 1939 
L 3392 710 
C 3206 538 2880 435 2547 435 
C 1542 435 979 1178 979 2362 
C 979 3533 1594 4256 2541 4256 
C 3008 4256 3315 4058 3552 3814 
L 3872 4198 
C 3603 4480 3174 4774 2522 4774 
C 1280 4774 371 3859 371 2342 
C 371 819 1254 -83 2490 -83 
z
" transform="scale(0.015625)"/>
      <path id="NotoSansCJKsc-Regular-52" d="M 1235 2464 
L 1235 4211 
L 2022 4211 
C 2758 4211 3162 3994 3162 3379 
C 3162 2765 2758 2464 2022 2464 
L 1235 2464 
z
M 3219 0 
L 3885 0 
L 2694 2054 
C 3328 2208 3750 2643 3750 3379 
C 3750 4352 3066 4691 2112 4691 
L 646 4691 
L 646 0 
L 1235 0 
L 1235 1990 
L 2080 1990 
L 3219 0 
z
" transform="scale(0.015625)"/>
      <path id="NotoSansCJKsc-Regular-50" d="M 646 0 
L 1235 0 
L 1235 1869 
L 2010 1869 
C 3040 1869 3738 2323 3738 3315 
C 3738 4339 3034 4691 1984 4691 
L 646 4691 
L 646 0 
z
M 1235 2349 
L 1235 4211 
L 1907 4211 
C 2733 4211 3149 4000 3149 3315 
C 3149 2643 2758 2349 1933 2349 
L 1235 2349 
z
" transform="scale(0.015625)"/>
      <path id="NotoSansCJKsc-Regular-4f" d="M 2374 -83 
C 3552 -83 4378 858 4378 2362 
C 4378 3866 3552 4774 2374 4774 
C 1197 4774 371 3866 371 2362 
C 371 858 1197 -83 2374 -83 
z
M 2374 435 
C 1530 435 979 1190 979 2362 
C 979 3533 1530 4256 2374 4256 
C 3219 4256 3770 3533 3770 2362 
C 3770 1190 3219 435 2374 435 
z
" transform="scale(0.015625)"/>
      <path id="NotoSansCJKsc-Regular-6f" d="M 1939 -83 
C 2790 -83 3546 582 3546 1734 
C 3546 2893 2790 3565 1939 3565 
C 1088 3565 333 2893 333 1734 
C 333 582 1088 -83 1939 -83 
z
M 1939 403 
C 1338 403 934 934 934 1734 
C 934 2534 1338 3072 1939 3072 
C 2541 3072 2950 2534 2950 1734 
C 2950 934 2541 403 1939 403 
z
" transform="scale(0.015625)"/>
      <path id="NotoSansCJKsc-Regular-73" d="M 1498 -83 
C 2317 -83 2758 384 2758 947 
C 2758 1606 2208 1811 1702 2003 
C 1312 2150 954 2278 954 2605 
C 954 2880 1158 3110 1600 3110 
C 1907 3110 2150 2976 2387 2803 
L 2669 3168 
C 2406 3386 2022 3565 1594 3565 
C 832 3565 397 3130 397 2579 
C 397 1984 922 1754 1408 1574 
C 1792 1434 2202 1267 2202 915 
C 2202 614 1978 371 1517 371 
C 1101 371 794 538 486 787 
L 205 397 
C 531 122 1005 -83 1498 -83 
z
" transform="scale(0.015625)"/>
      <path id="NotoSansCJKsc-Regular-69" d="M 589 0 
L 1178 0 
L 1178 3475 
L 589 3475 
L 589 0 
z
M 883 4192 
C 1114 4192 1274 4346 1274 4582 
C 1274 4806 1114 4960 883 4960 
C 653 4960 499 4806 499 4582 
C 499 4346 653 4192 883 4192 
z
" transform="scale(0.015625)"/>
      <path id="NotoSansCJKsc-Regular-6e" d="M 589 0 
L 1178 0 
L 1178 2522 
C 1523 2874 1766 3053 2125 3053 
C 2586 3053 2784 2778 2784 2125 
L 2784 0 
L 3366 0 
L 3366 2202 
C 3366 3085 3034 3565 2304 3565 
C 1830 3565 1466 3302 1139 2970 
L 1126 2970 
L 1069 3475 
L 589 3475 
L 589 0 
z
" transform="scale(0.015625)"/>
      <path id="NotoSansCJKsc-Regular-6c" d="M 1203 -83 
C 1363 -83 1459 -58 1542 -32 
L 1459 416 
C 1395 403 1370 403 1338 403 
C 1248 403 1178 474 1178 653 
L 1178 5094 
L 589 5094 
L 589 691 
C 589 198 768 -83 1203 -83 
z
" transform="scale(0.015625)"/>
      <path id="NotoSansCJKsc-Regular-62" d="M 2118 -83 
C 2912 -83 3629 602 3629 1792 
C 3629 2867 3142 3565 2246 3565 
C 1856 3565 1472 3347 1152 3078 
L 1178 3699 
L 1178 5094 
L 589 5094 
L 589 0 
L 1056 0 
L 1107 358 
L 1133 358 
C 1434 83 1798 -83 2118 -83 
z
M 2022 410 
C 1792 410 1478 499 1178 768 
L 1178 2598 
C 1504 2906 1811 3072 2099 3072 
C 2765 3072 3021 2560 3021 1786 
C 3021 928 2598 410 2022 410 
z
" transform="scale(0.015625)"/>
     </defs>
     <use xlink:href="#NotoSansCJKsc-Regular-49"/>
     <use xlink:href="#NotoSansCJKsc-Regular-6d" transform="translate(29.299988 0)"/>
     <use xlink:href="#NotoSansCJKsc-Regular-61" transform="translate(121.899979 0)"/>
     <use xlink:href="#NotoSansCJKsc-Regular-67" transform="translate(178.199966 0)"/>
     <use xlink:href="#NotoSansCJKsc-Regular-65" transform="translate(234.59996 0)"/>
     <use xlink:href="#NotoSansCJKsc-Regular-2b" transform="translate(289.999954 0)"/>
     <use xlink:href="#NotoSansCJKsc-Regular-74" transform="translate(345.499939 0)"/>
     <use xlink:href="#NotoSansCJKsc-Regular-65" transform="translate(383.199936 0)"/>
     <use xlink:href="#NotoSansCJKsc-Regular-78" transform="translate(438.59993 0)"/>
     <use xlink:href="#NotoSansCJKsc-Regular-74" transform="translate(488.399918 0)"/>
     <use xlink:href="#NotoSansCJKsc-Regular-20" transform="translate(526.099915 0)"/>
     <use xlink:href="#NotoSansCJKsc-Regular-6d" transform="translate(548.499908 0)"/>
     <use xlink:href="#NotoSansCJKsc-Regular-65" transform="translate(641.099899 0)"/>
     <use xlink:href="#NotoSansCJKsc-Regular-6d" transform="translate(696.499893 0)"/>
     <use xlink:href="#NotoSansCJKsc-Regular-65" transform="translate(789.099884 0)"/>
     <use xlink:href="#NotoSansCJKsc-Regular-20" transform="translate(844.499878 0)"/>
     <use xlink:href="#NotoSansCJKsc-Regular-2d" transform="translate(866.899872 0)"/>
     <use xlink:href="#NotoSansCJKsc-Regular-3e" transform="translate(901.599869 0)"/>
     <use xlink:href="#NotoSansCJKsc-Regular-20" transform="translate(957.099854 0)"/>
     <use xlink:href="#NotoSansCJKsc-Regular-4d" transform="translate(979.499847 0)"/>
     <use xlink:href="#NotoSansCJKsc-Regular-4c" transform="translate(1060.699829 0)"/>
     <use xlink:href="#NotoSansCJKsc-Regular-4c" transform="translate(1114.999817 0)"/>
     <use xlink:href="#NotoSansCJKsc-Regular-4d" transform="translate(1169.299805 0)"/>
     <use xlink:href="#NotoSansCJKsc-Regular-20" transform="translate(1250.499786 0)"/>
     <use xlink:href="#NotoSansCJKsc-Regular-2d" transform="translate(1272.89978 0)"/>
     <use xlink:href="#NotoSansCJKsc-Regular-3e" transform="translate(1307.599777 0)"/>
     <use xlink:href="#NotoSansCJKsc-Regular-20" transform="translate(1363.099762 0)"/>
     <use xlink:href="#NotoSansCJKsc-Regular-53" transform="translate(1385.499756 0)"/>
     <use xlink:href="#NotoSansCJKsc-Regular-46" transform="translate(1445.099747 0)"/>
     <use xlink:href="#NotoSansCJKsc-Regular-54" transform="translate(1500.299744 0)"/>
     <use xlink:href="#NotoSansCJKsc-Regular-20" transform="translate(1560.199738 0)"/>
     <use xlink:href="#NotoSansCJKsc-Regular-77" transform="translate(1582.599731 0)"/>
     <use xlink:href="#NotoSansCJKsc-Regular-61" transform="translate(1662.799713 0)"/>
     <use xlink:href="#NotoSansCJKsc-Regular-72" transform="translate(1719.099701 0)"/>
     <use xlink:href="#NotoSansCJKsc-Regular-6d" transform="translate(1757.899689 0)"/>
     <use xlink:href="#NotoSansCJKsc-Regular-75" transform="translate(1850.49968 0)"/>
     <use xlink:href="#NotoSansCJKsc-Regular-70" transform="translate(1911.199677 0)"/>
     <use xlink:href="#NotoSansCJKsc-Regular-20" transform="translate(1973.199661 0)"/>
     <use xlink:href="#NotoSansCJKsc-Regular-2d" transform="translate(1995.599655 0)"/>
     <use xlink:href="#NotoSansCJKsc-Regular-3e" transform="translate(2030.299652 0)"/>
     <use xlink:href="#NotoSansCJKsc-Regular-20" transform="translate(2085.799637 0)"/>
     <use xlink:href="#NotoSansCJKsc-Regular-47" transform="translate(2108.199631 0)"/>
     <use xlink:href="#NotoSansCJKsc-Regular-52" transform="translate(2177.099625 0)"/>
     <use xlink:href="#NotoSansCJKsc-Regular-50" transform="translate(2240.599609 0)"/>
     <use xlink:href="#NotoSansCJKsc-Regular-4f" transform="translate(2303.899597 0)"/>
     <use xlink:href="#NotoSansCJKsc-Regular-20" transform="translate(2378.099579 0)"/>
     <use xlink:href="#NotoSansCJKsc-Regular-70" transform="translate(2400.499573 0)"/>
     <use xlink:href="#NotoSansCJKsc-Regular-6f" transform="translate(2462.499557 0)"/>
     <use xlink:href="#NotoSansCJKsc-Regular-73" transform="translate(2523.099548 0)"/>
     <use xlink:href="#NotoSansCJKsc-Regular-74" transform="translate(2569.899536 0)"/>
     <use xlink:href="#NotoSansCJKsc-Regular-2d" transform="translate(2607.599533 0)"/>
     <use xlink:href="#NotoSansCJKsc-Regular-74" transform="translate(2642.29953 0)"/>
     <use xlink:href="#NotoSansCJKsc-Regular-72" transform="translate(2679.999527 0)"/>
     <use xlink:href="#NotoSansCJKsc-Regular-61" transform="translate(2718.799515 0)"/>
     <use xlink:href="#NotoSansCJKsc-Regular-69" transform="translate(2775.099503 0)"/>
     <use xlink:href="#NotoSansCJKsc-Regular-6e" transform="translate(2802.599487 0)"/>
     <use xlink:href="#NotoSansCJKsc-Regular-69" transform="translate(2863.599472 0)"/>
     <use xlink:href="#NotoSansCJKsc-Regular-6e" transform="translate(2891.099457 0)"/>
     <use xlink:href="#NotoSansCJKsc-Regular-67" transform="translate(2952.099442 0)"/>
     <use xlink:href="#NotoSansCJKsc-Regular-20" transform="translate(3008.499435 0)"/>
     <use xlink:href="#NotoSansCJKsc-Regular-2d" transform="translate(3030.899429 0)"/>
     <use xlink:href="#NotoSansCJKsc-Regular-3e" transform="translate(3065.599426 0)"/>
     <use xlink:href="#NotoSansCJKsc-Regular-20" transform="translate(3121.099411 0)"/>
     <use xlink:href="#NotoSansCJKsc-Regular-6c" transform="translate(3143.499405 0)"/>
     <use xlink:href="#NotoSansCJKsc-Regular-61" transform="translate(3171.899399 0)"/>
     <use xlink:href="#NotoSansCJKsc-Regular-62" transform="translate(3228.199387 0)"/>
     <use xlink:href="#NotoSansCJKsc-Regular-65" transform="translate(3289.999374 0)"/>
     <use xlink:href="#NotoSansCJKsc-Regular-6c" transform="translate(3345.399368 0)"/>
     <use xlink:href="#NotoSansCJKsc-Regular-20" transform="translate(3373.799362 0)"/>
     <use xlink:href="#NotoSansCJKsc-Regular-2b" transform="translate(3396.199356 0)"/>
     <use xlink:href="#NotoSansCJKsc-Regular-20" transform="translate(3451.699341 0)"/>
     <use xlink:href="#NotoSansCJKsc-Regular-72" transform="translate(3474.099335 0)"/>
     <use xlink:href="#NotoSansCJKsc-Regular-61" transform="translate(3512.899323 0)"/>
     <use xlink:href="#NotoSansCJKsc-Regular-74" transform="translate(3569.19931 0)"/>
     <use xlink:href="#NotoSansCJKsc-Regular-69" transform="translate(3606.899307 0)"/>
     <use xlink:href="#NotoSansCJKsc-Regular-6f" transform="translate(3634.399292 0)"/>
     <use xlink:href="#NotoSansCJKsc-Regular-6e" transform="translate(3694.999283 0)"/>
     <use xlink:href="#NotoSansCJKsc-Regular-61" transform="translate(3755.999268 0)"/>
     <use xlink:href="#NotoSansCJKsc-Regular-6c" transform="translate(3812.299255 0)"/>
     <use xlink:href="#NotoSansCJKsc-Regular-65" transform="translate(3840.699249 0)"/>
    </g>
   </g>
   <g id="text_3">
    <!-- Meme -->
    <g style="fill: #0891b2" transform="translate(52.539342 106.78712) scale(0.105 -0.105)">
     <use xlink:href="#NotoSansCJKsc-Bold-4d"/>
     <use xlink:href="#NotoSansCJKsc-Bold-65" transform="translate(85.299988 0)"/>
     <use xlink:href="#NotoSansCJKsc-Bold-6d" transform="translate(143.399979 0)"/>
     <use xlink:href="#NotoSansCJKsc-Bold-65" transform="translate(239.799973 0)"/>
    </g>
   </g>
   <g id="text_4">
    <!-- image + text -->
    <g style="fill: #475569" transform="translate(42.567975 120.684888) scale(0.09 -0.09)">
     <use xlink:href="#NotoSansCJKsc-Regular-69"/>
     <use xlink:href="#NotoSansCJKsc-Regular-6d" transform="translate(27.499985 0)"/>
     <use xlink:href="#NotoSansCJKsc-Regular-61" transform="translate(120.099976 0)"/>
     <use xlink:href="#NotoSansCJKsc-Regular-67" transform="translate(176.399963 0)"/>
     <use xlink:href="#NotoSansCJKsc-Regular-65" transform="translate(232.799957 0)"/>
     <use xlink:href="#NotoSansCJKsc-Regular-20" transform="translate(288.199951 0)"/>
     <use xlink:href="#NotoSansCJKsc-Regular-2b" transform="translate(310.599945 0)"/>
     <use xlink:href="#NotoSansCJKsc-Regular-20" transform="translate(366.09993 0)"/>
     <use xlink:href="#NotoSansCJKsc-Regular-74" transform="translate(388.499924 0)"/>
     <use xlink:href="#NotoSansCJKsc-Regular-65" transform="translate(426.199921 0)"/>
     <use xlink:href="#NotoSansCJKsc-Regular-78" transform="translate(481.599915 0)"/>
     <use xlink:href="#NotoSansCJKsc-Regular-74" transform="translate(531.399902 0)"/>
    </g>
   </g>
   <g id="text_5">
    <!-- implicit harm -->
    <g style="fill: #475569" transform="translate(40.0536 133.624526) scale(0.09 -0.09)">
     <defs>
      <path id="NotoSansCJKsc-Regular-63" d="M 1958 -83 
C 2374 -83 2771 83 3085 352 
L 2829 749 
C 2611 557 2330 403 2010 403 
C 1370 403 934 934 934 1734 
C 934 2534 1395 3072 2029 3072 
C 2298 3072 2522 2950 2720 2771 
L 3014 3155 
C 2771 3373 2458 3565 2003 3565 
C 1107 3565 333 2893 333 1734 
C 333 582 1037 -83 1958 -83 
z
" transform="scale(0.015625)"/>
      <path id="NotoSansCJKsc-Regular-68" d="M 589 0 
L 1178 0 
L 1178 2522 
C 1523 2874 1766 3053 2125 3053 
C 2586 3053 2784 2778 2784 2125 
L 2784 0 
L 3366 0 
L 3366 2202 
C 3366 3085 3034 3565 2304 3565 
C 1830 3565 1472 3302 1152 2982 
L 1178 3699 
L 1178 5094 
L 589 5094 
L 589 0 
z
" transform="scale(0.015625)"/>
     </defs>
     <use xlink:href="#NotoSansCJKsc-Regular-69"/>
     <use xlink:href="#NotoSansCJKsc-Regular-6d" transform="translate(27.499985 0)"/>
     <use xlink:href="#NotoSansCJKsc-Regular-70" transform="translate(120.099976 0)"/>
     <use xlink:href="#NotoSansCJKsc-Regular-6c" transform="translate(182.09996 0)"/>
     <use xlink:href="#NotoSansCJKsc-Regular-69" transform="translate(210.499954 0)"/>
     <use xlink:href="#NotoSansCJKsc-Regular-63" transform="translate(237.999939 0)"/>
     <use xlink:href="#NotoSansCJKsc-Regular-69" transform="translate(288.999924 0)"/>
     <use xlink:href="#NotoSansCJKsc-Regular-74" transform="translate(316.499908 0)"/>
     <use xlink:href="#NotoSansCJKsc-Regular-20" transform="translate(354.199905 0)"/>
     <use xlink:href="#NotoSansCJKsc-Regular-68" transform="translate(376.599899 0)"/>
     <use xlink:href="#NotoSansCJKsc-Regular-61" transform="translate(437.299896 0)"/>
     <use xlink:href="#NotoSansCJKsc-Regular-72" transform="translate(493.599884 0)"/>
     <use xlink:href="#NotoSansCJKsc-Regular-6d" transform="translate(532.399872 0)"/>
    </g>
   </g>
   <g id="text_6">
    <!-- MLLM -->
    <g style="fill: #2563eb" transform="translate(171.617156 106.78712) scale(0.105 -0.105)">
     <defs>
      <path id="NotoSansCJKsc-Bold-4c" d="M 582 0 
L 3456 0 
L 3456 794 
L 1530 794 
L 1530 4742 
L 582 4742 
L 582 0 
z
" transform="scale(0.015625)"/>
     </defs>
     <use xlink:href="#NotoSansCJKsc-Bold-4d"/>
     <use xlink:href="#NotoSansCJKsc-Bold-4c" transform="translate(85.299988 0)"/>
     <use xlink:href="#NotoSansCJKsc-Bold-4c" transform="translate(143.099976 0)"/>
     <use xlink:href="#NotoSansCJKsc-Bold-4d" transform="translate(200.899963 0)"/>
    </g>
   </g>
   <g id="text_7">
    <!-- reasoning -->
    <g style="fill: #475569" transform="translate(165.771141 120.684888) scale(0.09 -0.09)">
     <use xlink:href="#NotoSansCJKsc-Regular-72"/>
     <use xlink:href="#NotoSansCJKsc-Regular-65" transform="translate(38.799988 0)"/>
     <use xlink:href="#NotoSansCJKsc-Regular-61" transform="translate(94.199982 0)"/>
     <use xlink:href="#NotoSansCJKsc-Regular-73" transform="translate(150.499969 0)"/>
     <use xlink:href="#NotoSansCJKsc-Regular-6f" transform="translate(197.299957 0)"/>
     <use xlink:href="#NotoSansCJKsc-Regular-6e" transform="translate(257.899948 0)"/>
     <use xlink:href="#NotoSansCJKsc-Regular-69" transform="translate(318.899933 0)"/>
     <use xlink:href="#NotoSansCJKsc-Regular-6e" transform="translate(346.399918 0)"/>
     <use xlink:href="#NotoSansCJKsc-Regular-67" transform="translate(407.399902 0)"/>
    </g>
   </g>
   <g id="text_8">
    <!-- multimodal -->
    <g style="fill: #475569" transform="translate(162.036141 133.624526) scale(0.09 -0.09)">
     <defs>
      <path id="NotoSansCJKsc-Regular-64" d="M 1773 -83 
C 2189 -83 2560 141 2829 410 
L 2848 410 
L 2899 0 
L 3379 0 
L 3379 5094 
L 2790 5094 
L 2790 3757 
L 2822 3162 
C 2515 3411 2253 3565 1843 3565 
C 1050 3565 339 2861 339 1734 
C 339 576 902 -83 1773 -83 
z
M 1901 410 
C 1293 410 941 902 941 1741 
C 941 2534 1389 3072 1946 3072 
C 2234 3072 2502 2970 2790 2707 
L 2790 883 
C 2502 563 2221 410 1901 410 
z
" transform="scale(0.015625)"/>
     </defs>
     <use xlink:href="#NotoSansCJKsc-Regular-6d"/>
     <use xlink:href="#NotoSansCJKsc-Regular-75" transform="translate(92.599991 0)"/>
     <use xlink:href="#NotoSansCJKsc-Regular-6c" transform="translate(153.299988 0)"/>
     <use xlink:href="#NotoSansCJKsc-Regular-74" transform="translate(181.699982 0)"/>
     <use xlink:href="#NotoSansCJKsc-Regular-69" transform="translate(219.399979 0)"/>
     <use xlink:href="#NotoSansCJKsc-Regular-6d" transform="translate(246.899963 0)"/>
     <use xlink:href="#NotoSansCJKsc-Regular-6f" transform="translate(339.499954 0)"/>
     <use xlink:href="#NotoSansCJKsc-Regular-64" transform="translate(400.099945 0)"/>
     <use xlink:href="#NotoSansCJKsc-Regular-61" transform="translate(462.09993 0)"/>
     <use xlink:href="#NotoSansCJKsc-Regular-6c" transform="translate(518.399918 0)"/>
    </g>
   </g>
   <g id="text_9">
    <!-- SFT -->
    <g style="fill: #7c3aed" transform="translate(295.751681 106.547729) scale(0.102 -0.102)">
     <defs>
      <path id="NotoSansCJKsc-Bold-53" d="M 1997 -90 
C 3091 -90 3738 570 3738 1344 
C 3738 2029 3360 2400 2784 2637 
L 2163 2886 
C 1760 3053 1427 3174 1427 3514 
C 1427 3827 1683 4013 2099 4013 
C 2496 4013 2810 3866 3110 3622 
L 3590 4211 
C 3206 4602 2656 4826 2099 4826 
C 1146 4826 461 4224 461 3456 
C 461 2765 947 2381 1427 2189 
L 2054 1914 
C 2477 1734 2771 1626 2771 1274 
C 2771 941 2509 730 2016 730 
C 1600 730 1146 941 813 1254 
L 269 602 
C 730 154 1363 -90 1997 -90 
z
" transform="scale(0.015625)"/>
      <path id="NotoSansCJKsc-Bold-46" d="M 582 0 
L 1530 0 
L 1530 1920 
L 3213 1920 
L 3213 2714 
L 1530 2714 
L 1530 3949 
L 3501 3949 
L 3501 4742 
L 582 4742 
L 582 0 
z
" transform="scale(0.015625)"/>
     </defs>
     <use xlink:href="#NotoSansCJKsc-Bold-53"/>
     <use xlink:href="#NotoSansCJKsc-Bold-46" transform="translate(62.399994 0)"/>
     <use xlink:href="#NotoSansCJKsc-Bold-54" transform="translate(120.899979 0)"/>
    </g>
   </g>
   <g id="text_10">
    <!-- CoT distill -->
    <g style="fill: #475569" transform="translate(284.179697 120.873325) scale(0.09 -0.09)">
     <defs>
      <path id="NotoSansCJKsc-Regular-43" d="M 2413 -83 
C 3021 -83 3482 160 3853 589 
L 3526 966 
C 3226 634 2886 435 2438 435 
C 1542 435 979 1178 979 2362 
C 979 3533 1574 4256 2458 4256 
C 2861 4256 3168 4077 3418 3814 
L 3738 4198 
C 3469 4499 3021 4774 2451 4774 
C 1261 4774 371 3859 371 2342 
C 371 819 1242 -83 2413 -83 
z
" transform="scale(0.015625)"/>
     </defs>
     <use xlink:href="#NotoSansCJKsc-Regular-43"/>
     <use xlink:href="#NotoSansCJKsc-Regular-6f" transform="translate(63.799988 0)"/>
     <use xlink:href="#NotoSansCJKsc-Regular-54" transform="translate(124.399979 0)"/>
     <use xlink:href="#NotoSansCJKsc-Regular-20" transform="translate(184.299973 0)"/>
     <use xlink:href="#NotoSansCJKsc-Regular-64" transform="translate(206.699966 0)"/>
     <use xlink:href="#NotoSansCJKsc-Regular-69" transform="translate(268.699951 0)"/>
     <use xlink:href="#NotoSansCJKsc-Regular-73" transform="translate(296.199936 0)"/>
     <use xlink:href="#NotoSansCJKsc-Regular-74" transform="translate(342.999924 0)"/>
     <use xlink:href="#NotoSansCJKsc-Regular-69" transform="translate(380.699921 0)"/>
     <use xlink:href="#NotoSansCJKsc-Regular-6c" transform="translate(408.199905 0)"/>
     <use xlink:href="#NotoSansCJKsc-Regular-6c" transform="translate(436.599899 0)"/>
    </g>
   </g>
   <g id="text_11">
    <!-- fine-grained labels -->
    <g style="fill: #475569" transform="translate(266.043994 133.742651) scale(0.09 -0.09)">
     <defs>
      <path id="NotoSansCJKsc-Regular-66" d="M 211 3002 
L 685 3002 
L 685 0 
L 1267 0 
L 1267 3002 
L 2003 3002 
L 2003 3475 
L 1267 3475 
L 1267 4026 
C 1267 4474 1427 4710 1760 4710 
C 1882 4710 2022 4678 2150 4614 
L 2278 5069 
C 2118 5133 1914 5178 1696 5178 
C 1005 5178 685 4736 685 4032 
L 685 3475 
L 211 3443 
L 211 3002 
z
" transform="scale(0.015625)"/>
     </defs>
     <use xlink:href="#NotoSansCJKsc-Regular-66"/>
     <use xlink:href="#NotoSansCJKsc-Regular-69" transform="translate(32.499985 0)"/>
     <use xlink:href="#NotoSansCJKsc-Regular-6e" transform="translate(59.999969 0)"/>
     <use xlink:href="#NotoSansCJKsc-Regular-65" transform="translate(120.999954 0)"/>
     <use xlink:href="#NotoSansCJKsc-Regular-2d" transform="translate(176.399948 0)"/>
     <use xlink:href="#NotoSansCJKsc-Regular-67" transform="translate(211.099945 0)"/>
     <use xlink:href="#NotoSansCJKsc-Regular-72" transform="translate(267.499939 0)"/>
     <use xlink:href="#NotoSansCJKsc-Regular-61" transform="translate(306.299927 0)"/>
     <use xlink:href="#NotoSansCJKsc-Regular-69" transform="translate(362.599915 0)"/>
     <use xlink:href="#NotoSansCJKsc-Regular-6e" transform="translate(390.099899 0)"/>
     <use xlink:href="#NotoSansCJKsc-Regular-65" transform="translate(451.099884 0)"/>
     <use xlink:href="#NotoSansCJKsc-Regular-64" transform="translate(506.499878 0)"/>
     <use xlink:href="#NotoSansCJKsc-Regular-20" transform="translate(568.499863 0)"/>
     <use xlink:href="#NotoSansCJKsc-Regular-6c" transform="translate(590.899857 0)"/>
     <use xlink:href="#NotoSansCJKsc-Regular-61" transform="translate(619.29985 0)"/>
     <use xlink:href="#NotoSansCJKsc-Regular-62" transform="translate(675.599838 0)"/>
     <use xlink:href="#NotoSansCJKsc-Regular-65" transform="translate(737.399826 0)"/>
     <use xlink:href="#NotoSansCJKsc-Regular-6c" transform="translate(792.79982 0)"/>
     <use xlink:href="#NotoSansCJKsc-Regular-73" transform="translate(821.199814 0)"/>
    </g>
   </g>
   <g id="text_12">
    <!-- GRPO -->
    <g style="fill: #d97706" transform="translate(409.104722 106.547729) scale(0.102 -0.102)">
     <use xlink:href="#NotoSansCJKsc-Bold-47"/>
     <use xlink:href="#NotoSansCJKsc-Bold-52" transform="translate(71.699982 0)"/>
     <use xlink:href="#NotoSansCJKsc-Bold-50" transform="translate(139.899963 0)"/>
     <use xlink:href="#NotoSansCJKsc-Bold-4f" transform="translate(206.59996 0)"/>
    </g>
   </g>
   <g id="text_13">
    <!-- reward: correct -->
    <g style="fill: #475569" transform="translate(391.3938 120.873325) scale(0.09 -0.09)">
     <defs>
      <path id="NotoSansCJKsc-Regular-3a" d="M 890 2496 
C 1120 2496 1312 2675 1312 2944 
C 1312 3206 1120 3392 890 3392 
C 653 3392 467 3206 467 2944 
C 467 2675 653 2496 890 2496 
z
M 890 -83 
C 1120 -83 1312 96 1312 358 
C 1312 627 1120 806 890 806 
C 653 806 467 627 467 358 
C 467 96 653 -83 890 -83 
z
" transform="scale(0.015625)"/>
     </defs>
     <use xlink:href="#NotoSansCJKsc-Regular-72"/>
     <use xlink:href="#NotoSansCJKsc-Regular-65" transform="translate(38.799988 0)"/>
     <use xlink:href="#NotoSansCJKsc-Regular-77" transform="translate(94.199982 0)"/>
     <use xlink:href="#NotoSansCJKsc-Regular-61" transform="translate(174.399963 0)"/>
     <use xlink:href="#NotoSansCJKsc-Regular-72" transform="translate(230.699951 0)"/>
     <use xlink:href="#NotoSansCJKsc-Regular-64" transform="translate(269.499939 0)"/>
     <use xlink:href="#NotoSansCJKsc-Regular-3a" transform="translate(331.499924 0)"/>
     <use xlink:href="#NotoSansCJKsc-Regular-20" transform="translate(359.299911 0)"/>
     <use xlink:href="#NotoSansCJKsc-Regular-63" transform="translate(381.699905 0)"/>
     <use xlink:href="#NotoSansCJKsc-Regular-6f" transform="translate(432.69989 0)"/>
     <use xlink:href="#NotoSansCJKsc-Regular-72" transform="translate(493.299881 0)"/>
     <use xlink:href="#NotoSansCJKsc-Regular-72" transform="translate(532.099869 0)"/>
     <use xlink:href="#NotoSansCJKsc-Regular-65" transform="translate(570.899857 0)"/>
     <use xlink:href="#NotoSansCJKsc-Regular-63" transform="translate(626.29985 0)"/>
     <use xlink:href="#NotoSansCJKsc-Regular-74" transform="translate(677.299835 0)"/>
    </g>
   </g>
   <g id="text_14">
    <!-- + rationale -->
    <g style="fill: #475569" transform="translate(401.073019 133.624526) scale(0.09 -0.09)">
     <use xlink:href="#NotoSansCJKsc-Regular-2b"/>
     <use xlink:href="#NotoSansCJKsc-Regular-20" transform="translate(55.499985 0)"/>
     <use xlink:href="#NotoSansCJKsc-Regular-72" transform="translate(77.899979 0)"/>
     <use xlink:href="#NotoSansCJKsc-Regular-61" transform="translate(116.699966 0)"/>
     <use xlink:href="#NotoSansCJKsc-Regular-74" transform="translate(172.999954 0)"/>
     <use xlink:href="#NotoSansCJKsc-Regular-69" transform="translate(210.699951 0)"/>
     <use xlink:href="#NotoSansCJKsc-Regular-6f" transform="translate(238.199936 0)"/>
     <use xlink:href="#NotoSansCJKsc-Regular-6e" transform="translate(298.799927 0)"/>
     <use xlink:href="#NotoSansCJKsc-Regular-61" transform="translate(359.799911 0)"/>
     <use xlink:href="#NotoSansCJKsc-Regular-6c" transform="translate(416.099899 0)"/>
     <use xlink:href="#NotoSansCJKsc-Regular-65" transform="translate(444.499893 0)"/>
    </g>
   </g>
   <g id="text_15">
    <!-- + format -->
    <g style="fill: #475569" transform="translate(405.731222 146.375725) scale(0.09 -0.09)">
     <use xlink:href="#NotoSansCJKsc-Regular-2b"/>
     <use xlink:href="#NotoSansCJKsc-Regular-20" transform="translate(55.499985 0)"/>
     <use xlink:href="#NotoSansCJKsc-Regular-66" transform="translate(77.899979 0)"/>
     <use xlink:href="#NotoSansCJKsc-Regular-6f" transform="translate(110.399963 0)"/>
     <use xlink:href="#NotoSansCJKsc-Regular-72" transform="translate(170.999954 0)"/>
     <use xlink:href="#NotoSansCJKsc-Regular-6d" transform="translate(209.799942 0)"/>
     <use xlink:href="#NotoSansCJKsc-Regular-61" transform="translate(302.399933 0)"/>
     <use xlink:href="#NotoSansCJKsc-Regular-74" transform="translate(358.699921 0)"/>
    </g>
   </g>
   <g id="text_16">
    <!-- Output -->
    <g style="fill: #10b981" transform="translate(529.6377 106.78712) scale(0.105 -0.105)">
     <defs>
      <path id="NotoSansCJKsc-Bold-75" d="M 1574 -90 
C 2067 -90 2406 154 2714 518 
L 2739 518 
L 2810 0 
L 3578 0 
L 3578 3584 
L 2637 3584 
L 2637 1165 
C 2394 845 2202 717 1914 717 
C 1562 717 1402 909 1402 1466 
L 1402 3584 
L 467 3584 
L 467 1350 
C 467 448 800 -90 1574 -90 
z
" transform="scale(0.015625)"/>
     </defs>
     <use xlink:href="#NotoSansCJKsc-Bold-4f"/>
     <use xlink:href="#NotoSansCJKsc-Bold-75" transform="translate(76.999985 0)"/>
     <use xlink:href="#NotoSansCJKsc-Bold-74" transform="translate(140.699982 0)"/>
     <use xlink:href="#NotoSansCJKsc-Bold-70" transform="translate(182.799973 0)"/>
     <use xlink:href="#NotoSansCJKsc-Bold-75" transform="translate(247.199966 0)"/>
     <use xlink:href="#NotoSansCJKsc-Bold-74" transform="translate(310.899963 0)"/>
    </g>
   </g>
   <g id="text_17">
    <!-- hate/propaganda -->
    <g style="fill: #475569" transform="translate(511.2252 120.873325) scale(0.09 -0.09)">
     <defs>
      <path id="NotoSansCJKsc-Regular-2f" d="M 70 -1146 
L 499 -1146 
L 2413 5082 
L 1990 5082 
L 70 -1146 
z
" transform="scale(0.015625)"/>
     </defs>
     <use xlink:href="#NotoSansCJKsc-Regular-68"/>
     <use xlink:href="#NotoSansCJKsc-Regular-61" transform="translate(60.699997 0)"/>
     <use xlink:href="#NotoSansCJKsc-Regular-74" transform="translate(116.999985 0)"/>
     <use xlink:href="#NotoSansCJKsc-Regular-65" transform="translate(154.699982 0)"/>
     <use xlink:href="#NotoSansCJKsc-Regular-2f" transform="translate(210.099976 0)"/>
     <use xlink:href="#NotoSansCJKsc-Regular-70" transform="translate(249.299973 0)"/>
     <use xlink:href="#NotoSansCJKsc-Regular-72" transform="translate(311.299957 0)"/>
     <use xlink:href="#NotoSansCJKsc-Regular-6f" transform="translate(350.099945 0)"/>
     <use xlink:href="#NotoSansCJKsc-Regular-70" transform="translate(410.699936 0)"/>
     <use xlink:href="#NotoSansCJKsc-Regular-61" transform="translate(472.699921 0)"/>
     <use xlink:href="#NotoSansCJKsc-Regular-67" transform="translate(528.999908 0)"/>
     <use xlink:href="#NotoSansCJKsc-Regular-61" transform="translate(585.399902 0)"/>
     <use xlink:href="#NotoSansCJKsc-Regular-6e" transform="translate(641.69989 0)"/>
     <use xlink:href="#NotoSansCJKsc-Regular-64" transform="translate(702.699875 0)"/>
     <use xlink:href="#NotoSansCJKsc-Regular-61" transform="translate(764.69986 0)"/>
    </g>
   </g>
   <g id="text_18">
    <!-- + explanation -->
    <g style="fill: #475569" transform="translate(519.644419 133.624526) scale(0.09 -0.09)">
     <use xlink:href="#NotoSansCJKsc-Regular-2b"/>
     <use xlink:href="#NotoSansCJKsc-Regular-20" transform="translate(55.499985 0)"/>
     <use xlink:href="#NotoSansCJKsc-Regular-65" transform="translate(77.899979 0)"/>
     <use xlink:href="#NotoSansCJKsc-Regular-78" transform="translate(133.299973 0)"/>
     <use xlink:href="#NotoSansCJKsc-Regular-70" transform="translate(183.09996 0)"/>
     <use xlink:href="#NotoSansCJKsc-Regular-6c" transform="translate(245.099945 0)"/>
     <use xlink:href="#NotoSansCJKsc-Regular-61" transform="translate(273.499939 0)"/>
     <use xlink:href="#NotoSansCJKsc-Regular-6e" transform="translate(329.799927 0)"/>
     <use xlink:href="#NotoSansCJKsc-Regular-61" transform="translate(390.799911 0)"/>
     <use xlink:href="#NotoSansCJKsc-Regular-74" transform="translate(447.099899 0)"/>
     <use xlink:href="#NotoSansCJKsc-Regular-69" transform="translate(484.799896 0)"/>
     <use xlink:href="#NotoSansCJKsc-Regular-6f" transform="translate(512.299881 0)"/>
     <use xlink:href="#NotoSansCJKsc-Regular-6e" transform="translate(572.899872 0)"/>
    </g>
   </g>
   <g id="text_19">
    <!-- Key idea: optimize both classification and explanation with RL. -->
    <g style="fill: #64748b" transform="translate(184.597734 246.255997) scale(0.09 -0.09)">
     <defs>
      <path id="NotoSansCJKsc-Regular-4b" d="M 646 0 
L 1235 0 
L 1235 1485 
L 2042 2445 
L 3450 0 
L 4109 0 
L 2413 2912 
L 3885 4691 
L 3213 4691 
L 1248 2336 
L 1235 2336 
L 1235 4691 
L 646 4691 
L 646 0 
z
" transform="scale(0.015625)"/>
      <path id="NotoSansCJKsc-Regular-79" d="M 646 -1498 
C 1338 -1498 1702 -973 1946 -294 
L 3251 3475 
L 2682 3475 
L 2054 1549 
C 1965 1235 1862 883 1773 563 
L 1741 563 
C 1619 890 1504 1242 1395 1549 
L 691 3475 
L 83 3475 
L 1478 -6 
L 1402 -269 
C 1254 -698 1011 -1018 621 -1018 
C 525 -1018 422 -986 352 -960 
L 237 -1427 
C 346 -1472 486 -1498 646 -1498 
z
" transform="scale(0.015625)"/>
      <path id="NotoSansCJKsc-Regular-7a" d="M 224 0 
L 2854 0 
L 2854 474 
L 960 474 
L 2797 3162 
L 2797 3475 
L 422 3475 
L 422 3002 
L 2054 3002 
L 224 314 
L 224 0 
z
" transform="scale(0.015625)"/>
      <path id="NotoSansCJKsc-Regular-2e" d="M 890 -83 
C 1120 -83 1312 96 1312 358 
C 1312 627 1120 806 890 806 
C 653 806 467 627 467 358 
C 467 96 653 -83 890 -83 
z
" transform="scale(0.015625)"/>
     </defs>
     <use xlink:href="#NotoSansCJKsc-Regular-4b"/>
     <use xlink:href="#NotoSansCJKsc-Regular-65" transform="translate(64.599991 0)"/>
     <use xlink:href="#NotoSansCJKsc-Regular-79" transform="translate(119.999985 0)"/>
     <use xlink:href="#NotoSansCJKsc-Regular-20" transform="translate(172.099976 0)"/>
     <use xlink:href="#NotoSansCJKsc-Regular-69" transform="translate(194.499969 0)"/>
     <use xlink:href="#NotoSansCJKsc-Regular-64" transform="translate(221.999954 0)"/>
     <use xlink:href="#NotoSansCJKsc-Regular-65" transform="translate(283.999939 0)"/>
     <use xlink:href="#NotoSansCJKsc-Regular-61" transform="translate(339.399933 0)"/>
     <use xlink:href="#NotoSansCJKsc-Regular-3a" transform="translate(395.699921 0)"/>
     <use xlink:href="#NotoSansCJKsc-Regular-20" transform="translate(423.499908 0)"/>
     <use xlink:href="#NotoSansCJKsc-Regular-6f" transform="translate(445.899902 0)"/>
     <use xlink:href="#NotoSansCJKsc-Regular-70" transform="translate(506.499893 0)"/>
     <use xlink:href="#NotoSansCJKsc-Regular-74" transform="translate(568.499878 0)"/>
     <use xlink:href="#NotoSansCJKsc-Regular-69" transform="translate(606.199875 0)"/>
     <use xlink:href="#NotoSansCJKsc-Regular-6d" transform="translate(633.69986 0)"/>
     <use xlink:href="#NotoSansCJKsc-Regular-69" transform="translate(726.29985 0)"/>
     <use xlink:href="#NotoSansCJKsc-Regular-7a" transform="translate(753.799835 0)"/>
     <use xlink:href="#NotoSansCJKsc-Regular-65" transform="translate(801.29982 0)"/>
     <use xlink:href="#NotoSansCJKsc-Regular-20" transform="translate(856.699814 0)"/>
     <use xlink:href="#NotoSansCJKsc-Regular-62" transform="translate(879.099808 0)"/>
     <use xlink:href="#NotoSansCJKsc-Regular-6f" transform="translate(940.899796 0)"/>
     <use xlink:href="#NotoSansCJKsc-Regular-74" transform="translate(1001.499786 0)"/>
     <use xlink:href="#NotoSansCJKsc-Regular-68" transform="translate(1039.199783 0)"/>
     <use xlink:href="#NotoSansCJKsc-Regular-20" transform="translate(1099.89978 0)"/>
     <use xlink:href="#NotoSansCJKsc-Regular-63" transform="translate(1122.299774 0)"/>
     <use xlink:href="#NotoSansCJKsc-Regular-6c" transform="translate(1173.299759 0)"/>
     <use xlink:href="#NotoSansCJKsc-Regular-61" transform="translate(1201.699753 0)"/>
     <use xlink:href="#NotoSansCJKsc-Regular-73" transform="translate(1257.999741 0)"/>
     <use xlink:href="#NotoSansCJKsc-Regular-73" transform="translate(1304.799728 0)"/>
     <use xlink:href="#NotoSansCJKsc-Regular-69" transform="translate(1351.599716 0)"/>
     <use xlink:href="#NotoSansCJKsc-Regular-66" transform="translate(1379.099701 0)"/>
     <use xlink:href="#NotoSansCJKsc-Regular-69" transform="translate(1411.599686 0)"/>
     <use xlink:href="#NotoSansCJKsc-Regular-63" transform="translate(1439.09967 0)"/>
     <use xlink:href="#NotoSansCJKsc-Regular-61" transform="translate(1490.099655 0)"/>
     <use xlink:href="#NotoSansCJKsc-Regular-74" transform="translate(1546.399643 0)"/>
     <use xlink:href="#NotoSansCJKsc-Regular-69" transform="translate(1584.09964 0)"/>
     <use xlink:href="#NotoSansCJKsc-Regular-6f" transform="translate(1611.599625 0)"/>
     <use xlink:href="#NotoSansCJKsc-Regular-6e" transform="translate(1672.199615 0)"/>
     <use xlink:href="#NotoSansCJKsc-Regular-20" transform="translate(1733.1996 0)"/>
     <use xlink:href="#NotoSansCJKsc-Regular-61" transform="translate(1755.599594 0)"/>
     <use xlink:href="#NotoSansCJKsc-Regular-6e" transform="translate(1811.899582 0)"/>
     <use xlink:href="#NotoSansCJKsc-Regular-64" transform="translate(1872.899567 0)"/>
     <use xlink:href="#NotoSansCJKsc-Regular-20" transform="translate(1934.899551 0)"/>
     <use xlink:href="#NotoSansCJKsc-Regular-65" transform="translate(1957.299545 0)"/>
     <use xlink:href="#NotoSansCJKsc-Regular-78" transform="translate(2012.699539 0)"/>
     <use xlink:href="#NotoSansCJKsc-Regular-70" transform="translate(2062.499527 0)"/>
     <use xlink:href="#NotoSansCJKsc-Regular-6c" transform="translate(2124.499512 0)"/>
     <use xlink:href="#NotoSansCJKsc-Regular-61" transform="translate(2152.899506 0)"/>
     <use xlink:href="#NotoSansCJKsc-Regular-6e" transform="translate(2209.199493 0)"/>
     <use xlink:href="#NotoSansCJKsc-Regular-61" transform="translate(2270.199478 0)"/>
     <use xlink:href="#NotoSansCJKsc-Regular-74" transform="translate(2326.499466 0)"/>
     <use xlink:href="#NotoSansCJKsc-Regular-69" transform="translate(2364.199463 0)"/>
     <use xlink:href="#NotoSansCJKsc-Regular-6f" transform="translate(2391.699448 0)"/>
     <use xlink:href="#NotoSansCJKsc-Regular-6e" transform="translate(2452.299438 0)"/>
     <use xlink:href="#NotoSansCJKsc-Regular-20" transform="translate(2513.299423 0)"/>
     <use xlink:href="#NotoSansCJKsc-Regular-77" transform="translate(2535.699417 0)"/>
     <use xlink:href="#NotoSansCJKsc-Regular-69" transform="translate(2615.899399 0)"/>
     <use xlink:href="#NotoSansCJKsc-Regular-74" transform="translate(2643.399384 0)"/>
     <use xlink:href="#NotoSansCJKsc-Regular-68" transform="translate(2681.09938 0)"/>
     <use xlink:href="#NotoSansCJKsc-Regular-20" transform="translate(2741.799377 0)"/>
     <use xlink:href="#NotoSansCJKsc-Regular-52" transform="translate(2764.199371 0)"/>
     <use xlink:href="#NotoSansCJKsc-Regular-4c" transform="translate(2827.699356 0)"/>
     <use xlink:href="#NotoSansCJKsc-Regular-2e" transform="translate(2881.999344 0)"/>
    </g>
   </g>
   <g id="patch_11">
    <path d="M 16.0056 26.49168 
L 77.3856 26.49168 
L 77.3856 15.0156 
L 16.0056 15.0156 
z
" clip-path="url(#p32b6f16193)" style="fill: #2563eb; stroke: #2563eb; stroke-linejoin: miter"/>
   </g>
  </g>
 </g>
 <defs>
  <clipPath id="p32b6f16193">
   <rect x="8.64" y="8.64" width="613.8" height="255.024"/>
  </clipPath>
 </defs>
</svg>
