<svg xmlns="http://www.w3.org/2000/svg" width="900" height="520"><defs><marker id="m" markerWidth="10" markerHeight="10" refX="8" refY="3" orient="auto"><path d="M0,0 L8,3 L0,6 Z" fill="#4b7bec"/></marker><style>text{font-family:Inter,Arial;fill:#182033}.box{fill:#fff;stroke:#c9d7eb;stroke-width:2}.arr{stroke:#4b7bec;stroke-width:3;marker-end:url(#m)}</style></defs><rect width="900" height="520" rx="28" fill="#f4f8ff"/><text x="42" y="58" font-size="30" font-weight="700">UNIVID Moderation Pipeline</text><rect class="box" x="45" y="150" width="160" height="120" rx="20"/><text x="72" y="190" font-size="19" font-weight="700">Video + OCR</text><text x="72" y="222" font-size="14">frames, title</text><rect class="box" x="280" y="120" width="190" height="180" rx="20"/><text x="315" y="160" font-size="20" font-weight="700">UNIVID VLM</text><text x="315" y="195" font-size="14">policy-aware caption</text><text x="315" y="220" font-size="14">embedding cache</text><text x="315" y="245" font-size="14">human evidence</text><rect class="box" x="555" y="75" width="250" height="88" rx="18"/><text x="585" y="112" font-size="18" font-weight="700">Risk Filter</text><text x="585" y="138" font-size="14">high-throughput funnel</text><rect class="box" x="555" y="215" width="250" height="88" rx="18"/><text x="585" y="252" font-size="18" font-weight="700">Moderation Actor</text><text x="585" y="278" font-size="14">UNIVID-Lite + RAG</text><rect class="box" x="555" y="355" width="250" height="88" rx="18"/><text x="585" y="392" font-size="18" font-weight="700">Trend Governance</text><text x="585" y="418" font-size="14">few-shot emerging risks</text><path class="arr" d="M205 210 L280 210"/><path class="arr" d="M470 190 C520 190 515 119 555 119"/><path class="arr" d="M470 210 L555 259"/><path class="arr" d="M470 232 C525 270 510 399 555 399"/></svg>