<?xml version="1.0" encoding="utf-8" standalone="no"?>
<!DOCTYPE svg PUBLIC "-//W3C//DTD SVG 1.1//EN"
  "http://www.w3.org/Graphics/SVG/1.1/DTD/svg11.dtd">
<svg xmlns:xlink="http://www.w3.org/1999/xlink" width="787.896pt" height="314.497062pt" viewBox="0 0 787.896 314.497062" xmlns="http://www.w3.org/2000/svg" version="1.1">
 <metadata>
  <rdf:RDF xmlns:dc="http://purl.org/dc/elements/1.1/" xmlns:cc="http://creativecommons.org/ns#" xmlns:rdf="http://www.w3.org/1999/02/22-rdf-syntax-ns#">
   <cc:Work>
    <dc:type rdf:resource="http://purl.org/dc/dcmitype/StillImage"/>
    <dc:date>2026-06-28T20:08:33.970105</dc:date>
    <dc:format>image/svg+xml</dc:format>
    <dc:creator>
     <cc:Agent>
      <dc:title>Matplotlib v3.10.5, https://matplotlib.org/</dc:title>
     </cc:Agent>
    </dc:creator>
   </cc:Work>
  </rdf:RDF>
 </metadata>
 <defs>
  <style type="text/css">*{stroke-linejoin: round; stroke-linecap: butt}</style>
 </defs>
 <g id="figure_1">
  <g id="patch_1">
   <path d="M 0 314.497062 
L 787.896 314.497062 
L 787.896 0 
L 0 0 
z
" style="fill: #ffffff"/>
  </g>
  <g id="axes_1">
   <g id="patch_2">
    <path d="M 46.496 274.556 
L 779.256 274.556 
L 779.256 75.372 
L 46.496 75.372 
z
" style="fill: #ffffff"/>
   </g>
   <g id="matplotlib.axis_1">
    <g id="xtick_1">
     <g id="line2d_1">
      <defs>
       <path id="m0128a90c73" d="M 0 0 
L 0 3.5 
" style="stroke: #475569; stroke-width: 0.8"/>
      </defs>
      <g>
       <use xlink:href="#m0128a90c73" x="135.315394" y="274.556" style="fill: #475569; stroke: #475569; stroke-width: 0.8"/>
      </g>
     </g>
     <g id="text_1">
      <!-- Query -->
      <g style="fill: #475569" transform="translate(119.849222 290.256312) scale(0.11 -0.11)">
       <defs>
        <path id="NotoSansCJKsc-Regular-51" d="M 2374 410 
C 1530 410 979 1165 979 2362 
C 979 3533 1530 4256 2374 4256 
C 3219 4256 3770 3533 3770 2362 
C 3770 1165 3219 410 2374 410 
z
M 3808 -1178 
C 4090 -1178 4339 -1133 4480 -1069 
L 4365 -614 
C 4243 -653 4083 -685 3872 -685 
C 3366 -685 2931 -474 2720 -58 
C 3712 115 4378 1011 4378 2362 
C 4378 3866 3552 4774 2374 4774 
C 1197 4774 371 3866 371 2362 
C 371 986 1062 77 2086 -64 
C 2349 -704 2944 -1178 3808 -1178 
z
" transform="scale(0.015625)"/>
        <path id="NotoSansCJKsc-Regular-75" d="M 1606 -83 
C 2080 -83 2426 166 2752 544 
L 2771 544 
L 2816 0 
L 3302 0 
L 3302 3475 
L 2720 3475 
L 2720 1011 
C 2387 602 2138 422 1779 422 
C 1318 422 1126 698 1126 1344 
L 1126 3475 
L 538 3475 
L 538 1274 
C 538 384 870 -83 1606 -83 
z
" transform="scale(0.015625)"/>
        <path id="NotoSansCJKsc-Regular-65" d="M 1997 -83 
C 2464 -83 2835 70 3136 269 
L 2931 659 
C 2669 486 2400 384 2061 384 
C 1402 384 947 858 909 1600 
L 3251 1600 
C 3264 1690 3277 1805 3277 1933 
C 3277 2925 2778 3565 1888 3565 
C 1094 3565 333 2867 333 1734 
C 333 589 1069 -83 1997 -83 
z
M 902 2016 
C 973 2707 1408 3098 1901 3098 
C 2445 3098 2765 2720 2765 2016 
L 902 2016 
z
" transform="scale(0.015625)"/>
        <path id="NotoSansCJKsc-Regular-72" d="M 589 0 
L 1178 0 
L 1178 2234 
C 1408 2822 1760 3040 2048 3040 
C 2195 3040 2272 3021 2387 2982 
L 2496 3488 
C 2387 3546 2278 3565 2125 3565 
C 1741 3565 1382 3283 1139 2842 
L 1126 2842 
L 1069 3475 
L 589 3475 
L 589 0 
z
" transform="scale(0.015625)"/>
        <path id="NotoSansCJKsc-Regular-79" d="M 646 -1498 
C 1338 -1498 1702 -973 1946 -294 
L 3251 3475 
L 2682 3475 
L 2054 1549 
C 1965 1235 1862 883 1773 563 
L 1741 563 
C 1619 890 1504 1242 1395 1549 
L 691 3475 
L 83 3475 
L 1478 -6 
L 1402 -269 
C 1254 -698 1011 -1018 621 -1018 
C 525 -1018 422 -986 352 -960 
L 237 -1427 
C 346 -1472 486 -1498 646 -1498 
z
" transform="scale(0.015625)"/>
       </defs>
       <use xlink:href="#NotoSansCJKsc-Regular-51"/>
       <use xlink:href="#NotoSansCJKsc-Regular-75" transform="translate(74.199982 0)"/>
       <use xlink:href="#NotoSansCJKsc-Regular-65" transform="translate(134.899979 0)"/>
       <use xlink:href="#NotoSansCJKsc-Regular-72" transform="translate(190.299973 0)"/>
       <use xlink:href="#NotoSansCJKsc-Regular-79" transform="translate(229.09996 0)"/>
      </g>
      <!-- Exposure -->
      <g style="fill: #475569" transform="translate(111.500394 303.337375) scale(0.11 -0.11)">
       <defs>
        <path id="NotoSansCJKsc-Regular-45" d="M 646 0 
L 3418 0 
L 3418 506 
L 1235 506 
L 1235 2214 
L 3014 2214 
L 3014 2720 
L 1235 2720 
L 1235 4192 
L 3347 4192 
L 3347 4691 
L 646 4691 
L 646 0 
z
" transform="scale(0.015625)"/>
        <path id="NotoSansCJKsc-Regular-78" d="M 96 0 
L 710 0 
L 1178 813 
C 1299 1024 1408 1235 1530 1434 
L 1562 1434 
C 1696 1235 1824 1024 1939 813 
L 2451 0 
L 3091 0 
L 1946 1754 
L 3002 3475 
L 2394 3475 
L 1965 2714 
C 1856 2515 1760 2330 1658 2131 
L 1626 2131 
C 1510 2330 1389 2515 1286 2714 
L 819 3475 
L 186 3475 
L 1242 1811 
L 96 0 
z
" transform="scale(0.015625)"/>
        <path id="NotoSansCJKsc-Regular-70" d="M 589 -1466 
L 1178 -1466 
L 1178 -288 
L 1158 320 
C 1472 58 1805 -83 2118 -83 
C 2912 -83 3629 602 3629 1792 
C 3629 2867 3142 3565 2246 3565 
C 1843 3565 1453 3334 1139 3072 
L 1126 3072 
L 1069 3475 
L 589 3475 
L 589 -1466 
z
M 2022 410 
C 1792 410 1485 499 1178 768 
L 1178 2598 
C 1510 2906 1811 3072 2099 3072 
C 2765 3072 3021 2560 3021 1786 
C 3021 928 2598 410 2022 410 
z
" transform="scale(0.015625)"/>
        <path id="NotoSansCJKsc-Regular-6f" d="M 1939 -83 
C 2790 -83 3546 582 3546 1734 
C 3546 2893 2790 3565 1939 3565 
C 1088 3565 333 2893 333 1734 
C 333 582 1088 -83 1939 -83 
z
M 1939 403 
C 1338 403 934 934 934 1734 
C 934 2534 1338 3072 1939 3072 
C 2541 3072 2950 2534 2950 1734 
C 2950 934 2541 403 1939 403 
z
" transform="scale(0.015625)"/>
        <path id="NotoSansCJKsc-Regular-73" d="M 1498 -83 
C 2317 -83 2758 384 2758 947 
C 2758 1606 2208 1811 1702 2003 
C 1312 2150 954 2278 954 2605 
C 954 2880 1158 3110 1600 3110 
C 1907 3110 2150 2976 2387 2803 
L 2669 3168 
C 2406 3386 2022 3565 1594 3565 
C 832 3565 397 3130 397 2579 
C 397 1984 922 1754 1408 1574 
C 1792 1434 2202 1267 2202 915 
C 2202 614 1978 371 1517 371 
C 1101 371 794 538 486 787 
L 205 397 
C 531 122 1005 -83 1498 -83 
z
" transform="scale(0.015625)"/>
       </defs>
       <use xlink:href="#NotoSansCJKsc-Regular-45"/>
       <use xlink:href="#NotoSansCJKsc-Regular-78" transform="translate(58.899994 0)"/>
       <use xlink:href="#NotoSansCJKsc-Regular-70" transform="translate(108.699982 0)"/>
       <use xlink:href="#NotoSansCJKsc-Regular-6f" transform="translate(170.699966 0)"/>
       <use xlink:href="#NotoSansCJKsc-Regular-73" transform="translate(231.299957 0)"/>
       <use xlink:href="#NotoSansCJKsc-Regular-75" transform="translate(278.099945 0)"/>
       <use xlink:href="#NotoSansCJKsc-Regular-72" transform="translate(338.799942 0)"/>
       <use xlink:href="#NotoSansCJKsc-Regular-65" transform="translate(377.59993 0)"/>
      </g>
     </g>
    </g>
    <g id="xtick_2">
     <g id="line2d_2">
      <g>
       <use xlink:href="#m0128a90c73" x="320.355798" y="274.556" style="fill: #475569; stroke: #475569; stroke-width: 0.8"/>
      </g>
     </g>
     <g id="text_2">
      <!-- Query -->
      <g style="fill: #475569" transform="translate(304.889626 290.256312) scale(0.11 -0.11)">
       <use xlink:href="#NotoSansCJKsc-Regular-51"/>
       <use xlink:href="#NotoSansCJKsc-Regular-75" transform="translate(74.199982 0)"/>
       <use xlink:href="#NotoSansCJKsc-Regular-65" transform="translate(134.899979 0)"/>
       <use xlink:href="#NotoSansCJKsc-Regular-72" transform="translate(190.299973 0)"/>
       <use xlink:href="#NotoSansCJKsc-Regular-79" transform="translate(229.09996 0)"/>
      </g>
      <!-- Click -->
      <g style="fill: #475569" transform="translate(307.930954 303.337375) scale(0.11 -0.11)">
       <defs>
        <path id="NotoSansCJKsc-Regular-43" d="M 2413 -83 
C 3021 -83 3482 160 3853 589 
L 3526 966 
C 3226 634 2886 435 2438 435 
C 1542 435 979 1178 979 2362 
C 979 3533 1574 4256 2458 4256 
C 2861 4256 3168 4077 3418 3814 
L 3738 4198 
C 3469 4499 3021 4774 2451 4774 
C 1261 4774 371 3859 371 2342 
C 371 819 1242 -83 2413 -83 
z
" transform="scale(0.015625)"/>
        <path id="NotoSansCJKsc-Regular-6c" d="M 1203 -83 
C 1363 -83 1459 -58 1542 -32 
L 1459 416 
C 1395 403 1370 403 1338 403 
C 1248 403 1178 474 1178 653 
L 1178 5094 
L 589 5094 
L 589 691 
C 589 198 768 -83 1203 -83 
z
" transform="scale(0.015625)"/>
        <path id="NotoSansCJKsc-Regular-69" d="M 589 0 
L 1178 0 
L 1178 3475 
L 589 3475 
L 589 0 
z
M 883 4192 
C 1114 4192 1274 4346 1274 4582 
C 1274 4806 1114 4960 883 4960 
C 653 4960 499 4806 499 4582 
C 499 4346 653 4192 883 4192 
z
" transform="scale(0.015625)"/>
        <path id="NotoSansCJKsc-Regular-63" d="M 1958 -83 
C 2374 -83 2771 83 3085 352 
L 2829 749 
C 2611 557 2330 403 2010 403 
C 1370 403 934 934 934 1734 
C 934 2534 1395 3072 2029 3072 
C 2298 3072 2522 2950 2720 2771 
L 3014 3155 
C 2771 3373 2458 3565 2003 3565 
C 1107 3565 333 2893 333 1734 
C 333 582 1037 -83 1958 -83 
z
" transform="scale(0.015625)"/>
        <path id="NotoSansCJKsc-Regular-6b" d="M 589 0 
L 1165 0 
L 1165 915 
L 1818 1677 
L 2835 0 
L 3469 0 
L 2157 2074 
L 3315 3475 
L 2662 3475 
L 1190 1645 
L 1165 1645 
L 1165 5094 
L 589 5094 
L 589 0 
z
" transform="scale(0.015625)"/>
       </defs>
       <use xlink:href="#NotoSansCJKsc-Regular-43"/>
       <use xlink:href="#NotoSansCJKsc-Regular-6c" transform="translate(63.799988 0)"/>
       <use xlink:href="#NotoSansCJKsc-Regular-69" transform="translate(92.199982 0)"/>
       <use xlink:href="#NotoSansCJKsc-Regular-63" transform="translate(119.699966 0)"/>
       <use xlink:href="#NotoSansCJKsc-Regular-6b" transform="translate(170.699951 0)"/>
      </g>
     </g>
    </g>
    <g id="xtick_3">
     <g id="line2d_3">
      <g>
       <use xlink:href="#m0128a90c73" x="505.396202" y="274.556" style="fill: #475569; stroke: #475569; stroke-width: 0.8"/>
      </g>
     </g>
     <g id="text_3">
      <!-- Orders -->
      <g style="fill: #475569" transform="translate(488.016202 290.311312) scale(0.11 -0.11)">
       <defs>
        <path id="NotoSansCJKsc-Regular-4f" d="M 2374 -83 
C 3552 -83 4378 858 4378 2362 
C 4378 3866 3552 4774 2374 4774 
C 1197 4774 371 3866 371 2362 
C 371 858 1197 -83 2374 -83 
z
M 2374 435 
C 1530 435 979 1190 979 2362 
C 979 3533 1530 4256 2374 4256 
C 3219 4256 3770 3533 3770 2362 
C 3770 1190 3219 435 2374 435 
z
" transform="scale(0.015625)"/>
        <path id="NotoSansCJKsc-Regular-64" d="M 1773 -83 
C 2189 -83 2560 141 2829 410 
L 2848 410 
L 2899 0 
L 3379 0 
L 3379 5094 
L 2790 5094 
L 2790 3757 
L 2822 3162 
C 2515 3411 2253 3565 1843 3565 
C 1050 3565 339 2861 339 1734 
C 339 576 902 -83 1773 -83 
z
M 1901 410 
C 1293 410 941 902 941 1741 
C 941 2534 1389 3072 1946 3072 
C 2234 3072 2502 2970 2790 2707 
L 2790 883 
C 2502 563 2221 410 1901 410 
z
" transform="scale(0.015625)"/>
       </defs>
       <use xlink:href="#NotoSansCJKsc-Regular-4f"/>
       <use xlink:href="#NotoSansCJKsc-Regular-72" transform="translate(74.199982 0)"/>
       <use xlink:href="#NotoSansCJKsc-Regular-64" transform="translate(112.999969 0)"/>
       <use xlink:href="#NotoSansCJKsc-Regular-65" transform="translate(174.999954 0)"/>
       <use xlink:href="#NotoSansCJKsc-Regular-72" transform="translate(230.399948 0)"/>
       <use xlink:href="#NotoSansCJKsc-Regular-73" transform="translate(269.199936 0)"/>
      </g>
     </g>
    </g>
    <g id="xtick_4">
     <g id="line2d_4">
      <g>
       <use xlink:href="#m0128a90c73" x="690.436606" y="274.556" style="fill: #475569; stroke: #475569; stroke-width: 0.8"/>
      </g>
     </g>
     <g id="text_4">
      <!-- GMV -->
      <g style="fill: #475569" transform="translate(679.01809 290.311312) scale(0.11 -0.11)">
       <defs>
        <path id="NotoSansCJKsc-Regular-47" d="M 2490 -83 
C 3117 -83 3635 147 3936 461 
L 3936 2432 
L 2394 2432 
L 2394 1939 
L 3392 1939 
L 3392 710 
C 3206 538 2880 435 2547 435 
C 1542 435 979 1178 979 2362 
C 979 3533 1594 4256 2541 4256 
C 3008 4256 3315 4058 3552 3814 
L 3872 4198 
C 3603 4480 3174 4774 2522 4774 
C 1280 4774 371 3859 371 2342 
C 371 819 1254 -83 2490 -83 
z
" transform="scale(0.015625)"/>
        <path id="NotoSansCJKsc-Regular-4d" d="M 646 0 
L 1178 0 
L 1178 2598 
C 1178 3002 1139 3571 1101 3981 
L 1126 3981 
L 1504 2912 
L 2394 474 
L 2790 474 
L 3674 2912 
L 4051 3981 
L 4077 3981 
C 4045 3571 4000 3002 4000 2598 
L 4000 0 
L 4550 0 
L 4550 4691 
L 3840 4691 
L 2944 2182 
C 2835 1862 2739 1530 2618 1203 
L 2592 1203 
C 2477 1530 2374 1862 2253 2182 
L 1357 4691 
L 646 4691 
L 646 0 
z
" transform="scale(0.015625)"/>
        <path id="NotoSansCJKsc-Regular-56" d="M 1504 0 
L 2189 0 
L 3680 4691 
L 3078 4691 
L 2323 2150 
C 2163 1600 2048 1152 1869 602 
L 1843 602 
C 1670 1152 1549 1600 1389 2150 
L 627 4691 
L 6 4691 
L 1504 0 
z
" transform="scale(0.015625)"/>
       </defs>
       <use xlink:href="#NotoSansCJKsc-Regular-47"/>
       <use xlink:href="#NotoSansCJKsc-Regular-4d" transform="translate(68.899994 0)"/>
       <use xlink:href="#NotoSansCJKsc-Regular-56" transform="translate(150.099976 0)"/>
      </g>
     </g>
    </g>
   </g>
   <g id="matplotlib.axis_2">
    <g id="ytick_1">
     <g id="line2d_5">
      <path d="M 46.496 274.556 
L 779.256 274.556 
" clip-path="url(#p0499a4957a)" style="fill: none; stroke: #e5e7eb; stroke-width: 0.8; stroke-linecap: square"/>
     </g>
     <g id="line2d_6">
      <defs>
       <path id="m5af5eacc94" d="M 0 0 
L -3.5 0 
" style="stroke: #475569; stroke-width: 0.8"/>
      </defs>
      <g>
       <use xlink:href="#m5af5eacc94" x="46.496" y="274.556" style="fill: #475569; stroke: #475569; stroke-width: 0.8"/>
      </g>
     </g>
     <g id="text_5">
      <!-- 0 -->
      <g style="fill: #475569" transform="translate(33.391 278.933656) scale(0.11 -0.11)">
       <defs>
        <path id="NotoSansCJKsc-Regular-30" d="M 1779 -83 
C 2669 -83 3238 723 3238 2362 
C 3238 3987 2669 4774 1779 4774 
C 883 4774 320 3987 320 2362 
C 320 723 883 -83 1779 -83 
z
M 1779 390 
C 1248 390 883 986 883 2362 
C 883 3731 1248 4314 1779 4314 
C 2310 4314 2675 3731 2675 2362 
C 2675 986 2310 390 1779 390 
z
" transform="scale(0.015625)"/>
       </defs>
       <use xlink:href="#NotoSansCJKsc-Regular-30"/>
      </g>
     </g>
    </g>
    <g id="ytick_2">
     <g id="line2d_7">
      <path d="M 46.496 238.987429 
L 779.256 238.987429 
" clip-path="url(#p0499a4957a)" style="fill: none; stroke: #e5e7eb; stroke-width: 0.8; stroke-linecap: square"/>
     </g>
     <g id="line2d_8">
      <g>
       <use xlink:href="#m5af5eacc94" x="46.496" y="238.987429" style="fill: #475569; stroke: #475569; stroke-width: 0.8"/>
      </g>
     </g>
     <g id="text_6">
      <!-- 5 -->
      <g style="fill: #475569" transform="translate(33.391 243.365085) scale(0.11 -0.11)">
       <defs>
        <path id="NotoSansCJKsc-Regular-35" d="M 1677 -83 
C 2464 -83 3213 499 3213 1523 
C 3213 2560 2573 3021 1798 3021 
C 1517 3021 1306 2950 1094 2835 
L 1216 4192 
L 2982 4192 
L 2982 4691 
L 704 4691 
L 550 2502 
L 864 2304 
C 1133 2483 1331 2579 1645 2579 
C 2234 2579 2618 2182 2618 1510 
C 2618 826 2176 403 1619 403 
C 1075 403 730 653 467 922 
L 173 538 
C 493 224 941 -83 1677 -83 
z
" transform="scale(0.015625)"/>
       </defs>
       <use xlink:href="#NotoSansCJKsc-Regular-35"/>
      </g>
     </g>
    </g>
    <g id="ytick_3">
     <g id="line2d_9">
      <path d="M 46.496 203.418857 
L 779.256 203.418857 
" clip-path="url(#p0499a4957a)" style="fill: none; stroke: #e5e7eb; stroke-width: 0.8; stroke-linecap: square"/>
     </g>
     <g id="line2d_10">
      <g>
       <use xlink:href="#m5af5eacc94" x="46.496" y="203.418857" style="fill: #475569; stroke: #475569; stroke-width: 0.8"/>
      </g>
     </g>
     <g id="text_7">
      <!-- 10 -->
      <g style="fill: #475569" transform="translate(27.286 207.796513) scale(0.11 -0.11)">
       <defs>
        <path id="NotoSansCJKsc-Regular-31" d="M 563 0 
L 3136 0 
L 3136 486 
L 2195 486 
L 2195 4691 
L 1747 4691 
C 1491 4544 1190 4435 774 4358 
L 774 3987 
L 1613 3987 
L 1613 486 
L 563 486 
L 563 0 
z
" transform="scale(0.015625)"/>
       </defs>
       <use xlink:href="#NotoSansCJKsc-Regular-31"/>
       <use xlink:href="#NotoSansCJKsc-Regular-30" transform="translate(55.499985 0)"/>
      </g>
     </g>
    </g>
    <g id="ytick_4">
     <g id="line2d_11">
      <path d="M 46.496 167.850286 
L 779.256 167.850286 
" clip-path="url(#p0499a4957a)" style="fill: none; stroke: #e5e7eb; stroke-width: 0.8; stroke-linecap: square"/>
     </g>
     <g id="line2d_12">
      <g>
       <use xlink:href="#m5af5eacc94" x="46.496" y="167.850286" style="fill: #475569; stroke: #475569; stroke-width: 0.8"/>
      </g>
     </g>
     <g id="text_8">
      <!-- 15 -->
      <g style="fill: #475569" transform="translate(27.286 172.227942) scale(0.11 -0.11)">
       <use xlink:href="#NotoSansCJKsc-Regular-31"/>
       <use xlink:href="#NotoSansCJKsc-Regular-35" transform="translate(55.499985 0)"/>
      </g>
     </g>
    </g>
    <g id="ytick_5">
     <g id="line2d_13">
      <path d="M 46.496 132.281714 
L 779.256 132.281714 
" clip-path="url(#p0499a4957a)" style="fill: none; stroke: #e5e7eb; stroke-width: 0.8; stroke-linecap: square"/>
     </g>
     <g id="line2d_14">
      <g>
       <use xlink:href="#m5af5eacc94" x="46.496" y="132.281714" style="fill: #475569; stroke: #475569; stroke-width: 0.8"/>
      </g>
     </g>
     <g id="text_9">
      <!-- 20 -->
      <g style="fill: #475569" transform="translate(27.286 136.659371) scale(0.11 -0.11)">
       <defs>
        <path id="NotoSansCJKsc-Regular-32" d="M 282 0 
L 3232 0 
L 3232 506 
L 1933 506 
C 1696 506 1408 480 1165 461 
C 2266 1504 3008 2458 3008 3398 
C 3008 4230 2477 4774 1638 4774 
C 1043 4774 634 4506 256 4090 
L 595 3757 
C 858 4070 1184 4301 1568 4301 
C 2150 4301 2432 3910 2432 3373 
C 2432 2566 1754 1632 282 346 
L 282 0 
z
" transform="scale(0.015625)"/>
       </defs>
       <use xlink:href="#NotoSansCJKsc-Regular-32"/>
       <use xlink:href="#NotoSansCJKsc-Regular-30" transform="translate(55.499985 0)"/>
      </g>
     </g>
    </g>
    <g id="ytick_6">
     <g id="line2d_15">
      <path d="M 46.496 96.713143 
L 779.256 96.713143 
" clip-path="url(#p0499a4957a)" style="fill: none; stroke: #e5e7eb; stroke-width: 0.8; stroke-linecap: square"/>
     </g>
     <g id="line2d_16">
      <g>
       <use xlink:href="#m5af5eacc94" x="46.496" y="96.713143" style="fill: #475569; stroke: #475569; stroke-width: 0.8"/>
      </g>
     </g>
     <g id="text_10">
      <!-- 25 -->
      <g style="fill: #475569" transform="translate(27.286 101.090799) scale(0.11 -0.11)">
       <use xlink:href="#NotoSansCJKsc-Regular-32"/>
       <use xlink:href="#NotoSansCJKsc-Regular-35" transform="translate(55.499985 0)"/>
      </g>
     </g>
    </g>
    <g id="text_11">
     <!-- Uplift -->
     <g style="fill: #0f172a" transform="translate(20.766313 189.275172) rotate(-90) scale(0.11 -0.11)">
      <defs>
       <path id="NotoSansCJKsc-Regular-55" d="M 2310 -83 
C 3264 -83 3994 429 3994 1933 
L 3994 4691 
L 3424 4691 
L 3424 1920 
C 3424 794 2931 435 2310 435 
C 1696 435 1216 794 1216 1920 
L 1216 4691 
L 627 4691 
L 627 1933 
C 627 429 1350 -83 2310 -83 
z
" transform="scale(0.015625)"/>
       <path id="NotoSansCJKsc-Regular-66" d="M 211 3002 
L 685 3002 
L 685 0 
L 1267 0 
L 1267 3002 
L 2003 3002 
L 2003 3475 
L 1267 3475 
L 1267 4026 
C 1267 4474 1427 4710 1760 4710 
C 1882 4710 2022 4678 2150 4614 
L 2278 5069 
C 2118 5133 1914 5178 1696 5178 
C 1005 5178 685 4736 685 4032 
L 685 3475 
L 211 3443 
L 211 3002 
z
" transform="scale(0.015625)"/>
       <path id="NotoSansCJKsc-Regular-74" d="M 1677 -83 
C 1894 -83 2125 -19 2323 45 
L 2208 486 
C 2093 435 1939 390 1811 390 
C 1408 390 1274 634 1274 1056 
L 1274 3002 
L 2221 3002 
L 2221 3475 
L 1274 3475 
L 1274 4454 
L 787 4454 
L 723 3475 
L 173 3443 
L 173 3002 
L 691 3002 
L 691 1075 
C 691 378 941 -83 1677 -83 
z
" transform="scale(0.015625)"/>
      </defs>
      <use xlink:href="#NotoSansCJKsc-Regular-55"/>
      <use xlink:href="#NotoSansCJKsc-Regular-70" transform="translate(72.099991 0)"/>
      <use xlink:href="#NotoSansCJKsc-Regular-6c" transform="translate(134.099976 0)"/>
      <use xlink:href="#NotoSansCJKsc-Regular-69" transform="translate(162.499969 0)"/>
      <use xlink:href="#NotoSansCJKsc-Regular-66" transform="translate(189.999954 0)"/>
      <use xlink:href="#NotoSansCJKsc-Regular-74" transform="translate(222.499939 0)"/>
     </g>
    </g>
   </g>
   <g id="patch_3">
    <path d="M 46.496 274.556 
L 46.496 75.372 
" style="fill: none; stroke: #94a3b8; stroke-width: 0.8; stroke-linejoin: miter; stroke-linecap: square"/>
   </g>
   <g id="patch_4">
    <path d="M 46.496 274.556 
L 779.256 274.556 
" style="fill: none; stroke: #94a3b8; stroke-width: 0.8; stroke-linejoin: miter; stroke-linecap: square"/>
   </g>
   <g id="patch_5">
    <path d="M 79.803273 274.556 
L 190.827515 274.556 
L 190.827515 154.263091 
L 79.803273 154.263091 
z
" clip-path="url(#p0499a4957a)" style="fill: #2563eb"/>
   </g>
   <g id="patch_6">
    <path d="M 264.843677 274.556 
L 375.867919 274.556 
L 375.867919 141.671817 
L 264.843677 141.671817 
z
" clip-path="url(#p0499a4957a)" style="fill: #0891b2"/>
   </g>
   <g id="patch_7">
    <path d="M 449.884081 274.556 
L 560.908323 274.556 
L 560.908323 129.720777 
L 449.884081 129.720777 
z
" clip-path="url(#p0499a4957a)" style="fill: #10b981"/>
   </g>
   <g id="patch_8">
    <path d="M 634.924485 274.556 
L 745.948727 274.556 
L 745.948727 120.401811 
L 634.924485 120.401811 
z
" clip-path="url(#p0499a4957a)" style="fill: #d97706"/>
   </g>
   <g id="text_12">
    <!-- 16.91% -->
    <g style="fill: #0f172a" transform="translate(118.352339 152.263591) scale(0.093 -0.093)">
     <defs>
      <path id="NotoSansCJKsc-Bold-31" d="M 525 0 
L 3373 0 
L 3373 768 
L 2483 768 
L 2483 4742 
L 1786 4742 
C 1485 4550 1165 4429 685 4346 
L 685 3757 
L 1549 3757 
L 1549 768 
L 525 768 
L 525 0 
z
" transform="scale(0.015625)"/>
      <path id="NotoSansCJKsc-Bold-36" d="M 2022 -90 
C 2829 -90 3507 525 3507 1498 
C 3507 2509 2938 2982 2144 2982 
C 1843 2982 1440 2803 1178 2483 
C 1222 3661 1664 4070 2214 4070 
C 2483 4070 2771 3910 2938 3725 
L 3437 4288 
C 3155 4582 2733 4826 2150 4826 
C 1197 4826 320 4070 320 2304 
C 320 640 1126 -90 2022 -90 
z
M 1197 1818 
C 1434 2176 1722 2317 1971 2317 
C 2381 2317 2650 2061 2650 1498 
C 2650 922 2362 621 2003 621 
C 1606 621 1286 954 1197 1818 
z
" transform="scale(0.015625)"/>
      <path id="NotoSansCJKsc-Bold-2e" d="M 1043 -90 
C 1376 -90 1626 179 1626 525 
C 1626 877 1376 1139 1043 1139 
C 704 1139 454 877 454 525 
C 454 179 704 -90 1043 -90 
z
" transform="scale(0.015625)"/>
      <path id="NotoSansCJKsc-Bold-39" d="M 1632 -90 
C 2573 -90 3450 685 3450 2477 
C 3450 4122 2650 4826 1747 4826 
C 934 4826 256 4218 256 3245 
C 256 2240 819 1754 1613 1754 
C 1933 1754 2336 1946 2586 2266 
C 2541 1082 2106 678 1581 678 
C 1299 678 1005 826 832 1018 
L 333 448 
C 614 160 1043 -90 1632 -90 
z
M 2573 2938 
C 2342 2566 2048 2426 1792 2426 
C 1382 2426 1120 2688 1120 3245 
C 1120 3827 1408 4115 1760 4115 
C 2163 4115 2490 3795 2573 2938 
z
" transform="scale(0.015625)"/>
      <path id="NotoSansCJKsc-Bold-25" d="M 1357 1824 
C 2035 1824 2515 2381 2515 3334 
C 2515 4282 2035 4826 1357 4826 
C 678 4826 205 4282 205 3334 
C 205 2381 678 1824 1357 1824 
z
M 1357 2355 
C 1082 2355 864 2637 864 3334 
C 864 4026 1082 4294 1357 4294 
C 1632 4294 1850 4026 1850 3334 
C 1850 2637 1632 2355 1357 2355 
z
M 1510 -90 
L 2074 -90 
L 4646 4826 
L 4090 4826 
L 1510 -90 
z
M 4806 -90 
C 5478 -90 5958 467 5958 1421 
C 5958 2368 5478 2918 4806 2918 
C 4128 2918 3648 2368 3648 1421 
C 3648 467 4128 -90 4806 -90 
z
M 4806 448 
C 4525 448 4314 730 4314 1421 
C 4314 2125 4525 2381 4806 2381 
C 5082 2381 5293 2125 5293 1421 
C 5293 730 5082 448 4806 448 
z
" transform="scale(0.015625)"/>
     </defs>
     <use xlink:href="#NotoSansCJKsc-Bold-31"/>
     <use xlink:href="#NotoSansCJKsc-Bold-36" transform="translate(58.999985 0)"/>
     <use xlink:href="#NotoSansCJKsc-Bold-2e" transform="translate(117.999969 0)"/>
     <use xlink:href="#NotoSansCJKsc-Bold-39" transform="translate(150.499954 0)"/>
     <use xlink:href="#NotoSansCJKsc-Bold-31" transform="translate(209.499939 0)"/>
     <use xlink:href="#NotoSansCJKsc-Bold-25" transform="translate(268.499924 0)"/>
    </g>
   </g>
   <g id="text_13">
    <!-- 18.68% -->
    <g style="fill: #0f172a" transform="translate(303.392743 139.672317) scale(0.093 -0.093)">
     <defs>
      <path id="NotoSansCJKsc-Bold-38" d="M 1888 -90 
C 2842 -90 3482 461 3482 1178 
C 3482 1824 3123 2208 2682 2445 
L 2682 2477 
C 2989 2701 3290 3091 3290 3558 
C 3290 4314 2752 4819 1914 4819 
C 1088 4819 486 4333 486 3565 
C 486 3066 749 2707 1114 2445 
L 1114 2413 
C 672 2182 301 1786 301 1178 
C 301 435 973 -90 1888 -90 
z
M 2182 2707 
C 1690 2906 1318 3123 1318 3565 
C 1318 3949 1574 4160 1894 4160 
C 2291 4160 2522 3885 2522 3501 
C 2522 3219 2413 2944 2182 2707 
z
M 1907 576 
C 1466 576 1114 851 1114 1280 
C 1114 1638 1293 1952 1549 2163 
C 2163 1901 2605 1702 2605 1210 
C 2605 800 2310 576 1907 576 
z
" transform="scale(0.015625)"/>
     </defs>
     <use xlink:href="#NotoSansCJKsc-Bold-31"/>
     <use xlink:href="#NotoSansCJKsc-Bold-38" transform="translate(58.999985 0)"/>
     <use xlink:href="#NotoSansCJKsc-Bold-2e" transform="translate(117.999969 0)"/>
     <use xlink:href="#NotoSansCJKsc-Bold-36" transform="translate(150.499954 0)"/>
     <use xlink:href="#NotoSansCJKsc-Bold-38" transform="translate(209.499939 0)"/>
     <use xlink:href="#NotoSansCJKsc-Bold-25" transform="translate(268.499924 0)"/>
    </g>
   </g>
   <g id="text_14">
    <!-- 20.36% -->
    <g style="fill: #0f172a" transform="translate(488.433147 127.721277) scale(0.093 -0.093)">
     <defs>
      <path id="NotoSansCJKsc-Bold-32" d="M 275 0 
L 3450 0 
L 3450 794 
L 2426 794 
C 2202 794 1888 768 1645 736 
C 2509 1587 3226 2509 3226 3366 
C 3226 4250 2630 4826 1734 4826 
C 1088 4826 666 4576 224 4102 
L 749 3597 
C 986 3859 1267 4083 1613 4083 
C 2067 4083 2323 3789 2323 3322 
C 2323 2586 1568 1696 275 544 
L 275 0 
z
" transform="scale(0.015625)"/>
      <path id="NotoSansCJKsc-Bold-30" d="M 1888 -90 
C 2854 -90 3494 755 3494 2394 
C 3494 4019 2854 4826 1888 4826 
C 922 4826 282 4026 282 2394 
C 282 755 922 -90 1888 -90 
z
M 1888 646 
C 1478 646 1171 1056 1171 2394 
C 1171 3712 1478 4102 1888 4102 
C 2298 4102 2598 3712 2598 2394 
C 2598 1056 2298 646 1888 646 
z
" transform="scale(0.015625)"/>
      <path id="NotoSansCJKsc-Bold-33" d="M 1747 -90 
C 2656 -90 3418 410 3418 1280 
C 3418 1907 3008 2304 2477 2451 
L 2477 2483 
C 2976 2682 3264 3053 3264 3565 
C 3264 4378 2643 4826 1728 4826 
C 1171 4826 717 4602 307 4250 
L 794 3667 
C 1069 3930 1344 4083 1683 4083 
C 2086 4083 2317 3866 2317 3494 
C 2317 3066 2035 2771 1171 2771 
L 1171 2093 
C 2195 2093 2470 1805 2470 1338 
C 2470 915 2144 678 1664 678 
C 1229 678 890 890 608 1165 
L 166 570 
C 499 192 1005 -90 1747 -90 
z
" transform="scale(0.015625)"/>
     </defs>
     <use xlink:href="#NotoSansCJKsc-Bold-32"/>
     <use xlink:href="#NotoSansCJKsc-Bold-30" transform="translate(58.999985 0)"/>
     <use xlink:href="#NotoSansCJKsc-Bold-2e" transform="translate(117.999969 0)"/>
     <use xlink:href="#NotoSansCJKsc-Bold-33" transform="translate(150.499954 0)"/>
     <use xlink:href="#NotoSansCJKsc-Bold-36" transform="translate(209.499939 0)"/>
     <use xlink:href="#NotoSansCJKsc-Bold-25" transform="translate(268.499924 0)"/>
    </g>
   </g>
   <g id="text_15">
    <!-- 21.67% -->
    <g style="fill: #0f172a" transform="translate(673.473551 118.402311) scale(0.093 -0.093)">
     <defs>
      <path id="NotoSansCJKsc-Bold-37" d="M 1190 0 
L 2138 0 
C 2221 1850 2368 2822 3469 4166 
L 3469 4742 
L 320 4742 
L 320 3949 
L 2451 3949 
C 1549 2694 1274 1645 1190 0 
z
" transform="scale(0.015625)"/>
     </defs>
     <use xlink:href="#NotoSansCJKsc-Bold-32"/>
     <use xlink:href="#NotoSansCJKsc-Bold-31" transform="translate(58.999985 0)"/>
     <use xlink:href="#NotoSansCJKsc-Bold-2e" transform="translate(117.999969 0)"/>
     <use xlink:href="#NotoSansCJKsc-Bold-36" transform="translate(150.499954 0)"/>
     <use xlink:href="#NotoSansCJKsc-Bold-37" transform="translate(209.499939 0)"/>
     <use xlink:href="#NotoSansCJKsc-Bold-25" transform="translate(268.499924 0)"/>
    </g>
   </g>
   <g id="text_16">
    <!-- All key business metrics move together -->
    <g style="fill: #475569" transform="translate(313.197094 69.372) scale(0.11 -0.11)">
     <defs>
      <path id="NotoSansCJKsc-Regular-41" d="M 26 0 
L 621 0 
L 1075 1434 
L 2790 1434 
L 3238 0 
L 3866 0 
L 2272 4691 
L 1613 4691 
L 26 0 
z
M 1222 1901 
L 1453 2624 
C 1619 3155 1773 3661 1920 4211 
L 1946 4211 
C 2099 3667 2246 3155 2419 2624 
L 2643 1901 
L 1222 1901 
z
" transform="scale(0.015625)"/>
      <path id="NotoSansCJKsc-Regular-20" transform="scale(0.015625)"/>
      <path id="NotoSansCJKsc-Regular-62" d="M 2118 -83 
C 2912 -83 3629 602 3629 1792 
C 3629 2867 3142 3565 2246 3565 
C 1856 3565 1472 3347 1152 3078 
L 1178 3699 
L 1178 5094 
L 589 5094 
L 589 0 
L 1056 0 
L 1107 358 
L 1133 358 
C 1434 83 1798 -83 2118 -83 
z
M 2022 410 
C 1792 410 1478 499 1178 768 
L 1178 2598 
C 1504 2906 1811 3072 2099 3072 
C 2765 3072 3021 2560 3021 1786 
C 3021 928 2598 410 2022 410 
z
" transform="scale(0.015625)"/>
      <path id="NotoSansCJKsc-Regular-6e" d="M 589 0 
L 1178 0 
L 1178 2522 
C 1523 2874 1766 3053 2125 3053 
C 2586 3053 2784 2778 2784 2125 
L 2784 0 
L 3366 0 
L 3366 2202 
C 3366 3085 3034 3565 2304 3565 
C 1830 3565 1466 3302 1139 2970 
L 1126 2970 
L 1069 3475 
L 589 3475 
L 589 0 
z
" transform="scale(0.015625)"/>
      <path id="NotoSansCJKsc-Regular-6d" d="M 589 0 
L 1178 0 
L 1178 2522 
C 1491 2880 1786 3053 2048 3053 
C 2490 3053 2694 2778 2694 2125 
L 2694 0 
L 3277 0 
L 3277 2522 
C 3603 2880 3885 3053 4154 3053 
C 4595 3053 4800 2778 4800 2125 
L 4800 0 
L 5382 0 
L 5382 2202 
C 5382 3085 5043 3565 4333 3565 
C 3904 3565 3546 3290 3181 2899 
C 3040 3309 2758 3565 2221 3565 
C 1805 3565 1446 3302 1139 2970 
L 1126 2970 
L 1069 3475 
L 589 3475 
L 589 0 
z
" transform="scale(0.015625)"/>
      <path id="NotoSansCJKsc-Regular-76" d="M 1338 0 
L 2022 0 
L 3251 3475 
L 2675 3475 
L 2016 1498 
C 1914 1158 1798 806 1696 474 
L 1664 474 
C 1562 806 1453 1158 1344 1498 
L 691 3475 
L 83 3475 
L 1338 0 
z
" transform="scale(0.015625)"/>
      <path id="NotoSansCJKsc-Regular-67" d="M 1760 -1600 
C 2835 -1600 3520 -1043 3520 -397 
C 3520 179 3110 429 2310 429 
L 1626 429 
C 1158 429 1018 589 1018 806 
C 1018 998 1114 1114 1242 1222 
C 1395 1146 1587 1101 1754 1101 
C 2470 1101 3027 1568 3027 2310 
C 3027 2611 2912 2867 2746 3027 
L 3456 3027 
L 3456 3475 
L 2246 3475 
C 2125 3526 1952 3565 1754 3565 
C 1056 3565 454 3085 454 2323 
C 454 1907 678 1568 909 1389 
L 909 1363 
C 723 1235 525 1005 525 717 
C 525 442 659 256 838 147 
L 838 115 
C 512 -83 326 -371 326 -672 
C 326 -1267 915 -1600 1760 -1600 
z
M 1754 1498 
C 1357 1498 1018 1818 1018 2323 
C 1018 2835 1350 3136 1754 3136 
C 2170 3136 2496 2835 2496 2323 
C 2496 1818 2157 1498 1754 1498 
z
M 1843 -1197 
C 1210 -1197 838 -960 838 -589 
C 838 -390 941 -179 1190 0 
C 1344 -38 1510 -51 1638 -51 
L 2240 -51 
C 2701 -51 2944 -166 2944 -493 
C 2944 -851 2515 -1197 1843 -1197 
z
" transform="scale(0.015625)"/>
      <path id="NotoSansCJKsc-Regular-68" d="M 589 0 
L 1178 0 
L 1178 2522 
C 1523 2874 1766 3053 2125 3053 
C 2586 3053 2784 2778 2784 2125 
L 2784 0 
L 3366 0 
L 3366 2202 
C 3366 3085 3034 3565 2304 3565 
C 1830 3565 1472 3302 1152 2982 
L 1178 3699 
L 1178 5094 
L 589 5094 
L 589 0 
z
" transform="scale(0.015625)"/>
     </defs>
     <use xlink:href="#NotoSansCJKsc-Regular-41"/>
     <use xlink:href="#NotoSansCJKsc-Regular-6c" transform="translate(60.799988 0)"/>
     <use xlink:href="#NotoSansCJKsc-Regular-6c" transform="translate(89.199982 0)"/>
     <use xlink:href="#NotoSansCJKsc-Regular-20" transform="translate(117.599976 0)"/>
     <use xlink:href="#NotoSansCJKsc-Regular-6b" transform="translate(139.999969 0)"/>
     <use xlink:href="#NotoSansCJKsc-Regular-65" transform="translate(195.199966 0)"/>
     <use xlink:href="#NotoSansCJKsc-Regular-79" transform="translate(250.59996 0)"/>
     <use xlink:href="#NotoSansCJKsc-Regular-20" transform="translate(302.699951 0)"/>
     <use xlink:href="#NotoSansCJKsc-Regular-62" transform="translate(325.099945 0)"/>
     <use xlink:href="#NotoSansCJKsc-Regular-75" transform="translate(386.899933 0)"/>
     <use xlink:href="#NotoSansCJKsc-Regular-73" transform="translate(447.59993 0)"/>
     <use xlink:href="#NotoSansCJKsc-Regular-69" transform="translate(494.399918 0)"/>
     <use xlink:href="#NotoSansCJKsc-Regular-6e" transform="translate(521.899902 0)"/>
     <use xlink:href="#NotoSansCJKsc-Regular-65" transform="translate(582.899887 0)"/>
     <use xlink:href="#NotoSansCJKsc-Regular-73" transform="translate(638.299881 0)"/>
     <use xlink:href="#NotoSansCJKsc-Regular-73" transform="translate(685.099869 0)"/>
     <use xlink:href="#NotoSansCJKsc-Regular-20" transform="translate(731.899857 0)"/>
     <use xlink:href="#NotoSansCJKsc-Regular-6d" transform="translate(754.29985 0)"/>
     <use xlink:href="#NotoSansCJKsc-Regular-65" transform="translate(846.899841 0)"/>
     <use xlink:href="#NotoSansCJKsc-Regular-74" transform="translate(902.299835 0)"/>
     <use xlink:href="#NotoSansCJKsc-Regular-72" transform="translate(939.999832 0)"/>
     <use xlink:href="#NotoSansCJKsc-Regular-69" transform="translate(978.79982 0)"/>
     <use xlink:href="#NotoSansCJKsc-Regular-63" transform="translate(1006.299805 0)"/>
     <use xlink:href="#NotoSansCJKsc-Regular-73" transform="translate(1057.299789 0)"/>
     <use xlink:href="#NotoSansCJKsc-Regular-20" transform="translate(1104.099777 0)"/>
     <use xlink:href="#NotoSansCJKsc-Regular-6d" transform="translate(1126.499771 0)"/>
     <use xlink:href="#NotoSansCJKsc-Regular-6f" transform="translate(1219.099762 0)"/>
     <use xlink:href="#NotoSansCJKsc-Regular-76" transform="translate(1279.699753 0)"/>
     <use xlink:href="#NotoSansCJKsc-Regular-65" transform="translate(1331.799744 0)"/>
     <use xlink:href="#NotoSansCJKsc-Regular-20" transform="translate(1387.199738 0)"/>
     <use xlink:href="#NotoSansCJKsc-Regular-74" transform="translate(1409.599731 0)"/>
     <use xlink:href="#NotoSansCJKsc-Regular-6f" transform="translate(1447.299728 0)"/>
     <use xlink:href="#NotoSansCJKsc-Regular-67" transform="translate(1507.899719 0)"/>
     <use xlink:href="#NotoSansCJKsc-Regular-65" transform="translate(1564.299713 0)"/>
     <use xlink:href="#NotoSansCJKsc-Regular-74" transform="translate(1619.699707 0)"/>
     <use xlink:href="#NotoSansCJKsc-Regular-68" transform="translate(1657.399704 0)"/>
     <use xlink:href="#NotoSansCJKsc-Regular-65" transform="translate(1718.099701 0)"/>
     <use xlink:href="#NotoSansCJKsc-Regular-72" transform="translate(1773.499695 0)"/>
    </g>
   </g>
  </g>
  <g id="text_17">
   <!-- OneBar — online A/B uplift -->
   <g style="fill: #0f172a" transform="translate(8.64 19.602422) scale(0.135 -0.135)">
    <defs>
     <path id="NotoSansCJKsc-Bold-4f" d="M 2464 -90 
C 3718 -90 4582 851 4582 2394 
C 4582 3930 3718 4826 2464 4826 
C 1210 4826 346 3930 346 2394 
C 346 851 1210 -90 2464 -90 
z
M 2464 730 
C 1760 730 1318 1382 1318 2394 
C 1318 3405 1760 4013 2464 4013 
C 3168 4013 3616 3405 3616 2394 
C 3616 1382 3168 730 2464 730 
z
" transform="scale(0.015625)"/>
     <path id="NotoSansCJKsc-Bold-6e" d="M 506 0 
L 1446 0 
L 1446 2464 
C 1709 2726 1901 2867 2189 2867 
C 2541 2867 2694 2675 2694 2118 
L 2694 0 
L 3635 0 
L 3635 2234 
C 3635 3136 3302 3674 2528 3674 
C 2042 3674 1677 3418 1363 3110 
L 1344 3110 
L 1274 3584 
L 506 3584 
L 506 0 
z
" transform="scale(0.015625)"/>
     <path id="NotoSansCJKsc-Bold-65" d="M 2067 -90 
C 2509 -90 2963 64 3315 307 
L 2995 883 
C 2733 723 2483 640 2195 640 
C 1658 640 1274 941 1197 1523 
L 3405 1523 
C 3430 1613 3450 1786 3450 1958 
C 3450 2957 2938 3674 1952 3674 
C 1101 3674 282 2950 282 1792 
C 282 608 1062 -90 2067 -90 
z
M 1178 2157 
C 1254 2675 1587 2944 1965 2944 
C 2432 2944 2643 2637 2643 2157 
L 1178 2157 
z
" transform="scale(0.015625)"/>
     <path id="NotoSansCJKsc-Bold-42" d="M 582 0 
L 2272 0 
C 3315 0 4102 442 4102 1395 
C 4102 2029 3731 2394 3219 2515 
L 3219 2541 
C 3622 2688 3866 3130 3866 3571 
C 3866 4454 3123 4742 2150 4742 
L 582 4742 
L 582 0 
z
M 1530 2810 
L 1530 4013 
L 2093 4013 
C 2662 4013 2944 3846 2944 3430 
C 2944 3053 2688 2810 2086 2810 
L 1530 2810 
z
M 1530 730 
L 1530 2112 
L 2189 2112 
C 2842 2112 3181 1914 3181 1453 
C 3181 960 2829 730 2189 730 
L 1530 730 
z
" transform="scale(0.015625)"/>
     <path id="NotoSansCJKsc-Bold-61" d="M 1382 -90 
C 1798 -90 2157 109 2464 384 
L 2496 384 
L 2560 0 
L 3328 0 
L 3328 2093 
C 3328 3130 2861 3674 1952 3674 
C 1389 3674 877 3456 461 3200 
L 794 2573 
C 1126 2771 1446 2918 1779 2918 
C 2221 2918 2374 2650 2387 2298 
C 947 2144 326 1741 326 979 
C 326 365 742 -90 1382 -90 
z
M 1696 646 
C 1421 646 1222 768 1222 1050 
C 1222 1376 1510 1613 2387 1715 
L 2387 998 
C 2163 774 1965 646 1696 646 
z
" transform="scale(0.015625)"/>
     <path id="NotoSansCJKsc-Bold-72" d="M 506 0 
L 1446 0 
L 1446 2138 
C 1651 2656 1984 2842 2259 2842 
C 2413 2842 2515 2822 2643 2784 
L 2797 3597 
C 2694 3642 2579 3674 2381 3674 
C 2010 3674 1626 3418 1363 2950 
L 1344 2950 
L 1274 3584 
L 506 3584 
L 506 0 
z
" transform="scale(0.015625)"/>
     <path id="NotoSansCJKsc-Bold-20" transform="scale(0.015625)"/>
     <path id="NotoSansCJKsc-Bold-2014" d="M 314 1536 
L 5498 1536 
L 5498 2138 
L 314 2138 
L 314 1536 
z
" transform="scale(0.015625)"/>
     <path id="NotoSansCJKsc-Bold-6f" d="M 2003 -90 
C 2899 -90 3725 602 3725 1792 
C 3725 2982 2899 3674 2003 3674 
C 1101 3674 282 2982 282 1792 
C 282 602 1101 -90 2003 -90 
z
M 2003 678 
C 1510 678 1242 1114 1242 1792 
C 1242 2464 1510 2906 2003 2906 
C 2490 2906 2765 2464 2765 1792 
C 2765 1114 2490 678 2003 678 
z
" transform="scale(0.015625)"/>
     <path id="NotoSansCJKsc-Bold-6c" d="M 1395 -90 
C 1613 -90 1766 -51 1875 -6 
L 1760 691 
C 1696 678 1670 678 1632 678 
C 1542 678 1446 749 1446 966 
L 1446 5107 
L 506 5107 
L 506 1005 
C 506 339 736 -90 1395 -90 
z
" transform="scale(0.015625)"/>
     <path id="NotoSansCJKsc-Bold-69" d="M 506 0 
L 1446 0 
L 1446 3584 
L 506 3584 
L 506 0 
z
M 979 4166 
C 1299 4166 1523 4365 1523 4678 
C 1523 4986 1299 5190 979 5190 
C 646 5190 435 4986 435 4678 
C 435 4365 646 4166 979 4166 
z
" transform="scale(0.015625)"/>
     <path id="NotoSansCJKsc-Bold-41" d="M -26 0 
L 934 0 
L 1267 1216 
L 2797 1216 
L 3130 0 
L 4128 0 
L 2611 4742 
L 1491 4742 
L -26 0 
z
M 1472 1952 
L 1613 2470 
C 1754 2963 1888 3501 2016 4019 
L 2042 4019 
C 2182 3514 2310 2963 2458 2470 
L 2598 1952 
L 1472 1952 
z
" transform="scale(0.015625)"/>
     <path id="NotoSansCJKsc-Bold-2f" d="M 90 -1158 
L 717 -1158 
L 2304 5158 
L 1683 5158 
L 90 -1158 
z
" transform="scale(0.015625)"/>
     <path id="NotoSansCJKsc-Bold-75" d="M 1574 -90 
C 2067 -90 2406 154 2714 518 
L 2739 518 
L 2810 0 
L 3578 0 
L 3578 3584 
L 2637 3584 
L 2637 1165 
C 2394 845 2202 717 1914 717 
C 1562 717 1402 909 1402 1466 
L 1402 3584 
L 467 3584 
L 467 1350 
C 467 448 800 -90 1574 -90 
z
" transform="scale(0.015625)"/>
     <path id="NotoSansCJKsc-Bold-70" d="M 506 -1376 
L 1446 -1376 
L 1446 -282 
L 1414 301 
C 1683 51 1990 -90 2304 -90 
C 3091 -90 3827 621 3827 1850 
C 3827 2950 3296 3674 2419 3674 
C 2029 3674 1664 3469 1363 3213 
L 1344 3213 
L 1274 3584 
L 506 3584 
L 506 -1376 
z
M 2099 685 
C 1901 685 1677 755 1446 954 
L 1446 2534 
C 1690 2778 1907 2899 2150 2899 
C 2643 2899 2861 2522 2861 1837 
C 2861 1056 2522 685 2099 685 
z
" transform="scale(0.015625)"/>
     <path id="NotoSansCJKsc-Bold-66" d="M 179 2842 
L 666 2842 
L 666 0 
L 1600 0 
L 1600 2842 
L 2285 2842 
L 2285 3584 
L 1600 3584 
L 1600 3891 
C 1600 4288 1760 4454 2035 4454 
C 2163 4454 2298 4429 2419 4371 
L 2592 5075 
C 2432 5139 2189 5197 1907 5197 
C 1011 5197 666 4614 666 3872 
L 666 3578 
L 179 3539 
L 179 2842 
z
" transform="scale(0.015625)"/>
     <path id="NotoSansCJKsc-Bold-74" d="M 1818 -90 
C 2131 -90 2381 -13 2579 45 
L 2419 730 
C 2323 691 2182 653 2067 653 
C 1747 653 1574 845 1574 1254 
L 1574 2842 
L 2464 2842 
L 2464 3584 
L 1574 3584 
L 1574 4550 
L 800 4550 
L 691 3584 
L 134 3539 
L 134 2842 
L 640 2842 
L 640 1248 
C 640 454 966 -90 1818 -90 
z
" transform="scale(0.015625)"/>
    </defs>
    <use xlink:href="#NotoSansCJKsc-Bold-4f"/>
    <use xlink:href="#NotoSansCJKsc-Bold-6e" transform="translate(76.999985 0)"/>
    <use xlink:href="#NotoSansCJKsc-Bold-65" transform="translate(141.099976 0)"/>
    <use xlink:href="#NotoSansCJKsc-Bold-42" transform="translate(199.199966 0)"/>
    <use xlink:href="#NotoSansCJKsc-Bold-61" transform="translate(267.299957 0)"/>
    <use xlink:href="#NotoSansCJKsc-Bold-72" transform="translate(326.399948 0)"/>
    <use xlink:href="#NotoSansCJKsc-Bold-20" transform="translate(369.999939 0)"/>
    <use xlink:href="#NotoSansCJKsc-Bold-2014" transform="translate(392.699936 0)"/>
    <use xlink:href="#NotoSansCJKsc-Bold-20" transform="translate(483.499924 0)"/>
    <use xlink:href="#NotoSansCJKsc-Bold-6f" transform="translate(506.199921 0)"/>
    <use xlink:href="#NotoSansCJKsc-Bold-6e" transform="translate(568.799911 0)"/>
    <use xlink:href="#NotoSansCJKsc-Bold-6c" transform="translate(632.899902 0)"/>
    <use xlink:href="#NotoSansCJKsc-Bold-69" transform="translate(664.399887 0)"/>
    <use xlink:href="#NotoSansCJKsc-Bold-6e" transform="translate(694.799881 0)"/>
    <use xlink:href="#NotoSansCJKsc-Bold-65" transform="translate(758.899872 0)"/>
    <use xlink:href="#NotoSansCJKsc-Bold-20" transform="translate(816.999863 0)"/>
    <use xlink:href="#NotoSansCJKsc-Bold-41" transform="translate(839.69986 0)"/>
    <use xlink:href="#NotoSansCJKsc-Bold-2f" transform="translate(903.79985 0)"/>
    <use xlink:href="#NotoSansCJKsc-Bold-42" transform="translate(942.499847 0)"/>
    <use xlink:href="#NotoSansCJKsc-Bold-20" transform="translate(1010.599838 0)"/>
    <use xlink:href="#NotoSansCJKsc-Bold-75" transform="translate(1033.299835 0)"/>
    <use xlink:href="#NotoSansCJKsc-Bold-70" transform="translate(1096.999832 0)"/>
    <use xlink:href="#NotoSansCJKsc-Bold-6c" transform="translate(1161.399826 0)"/>
    <use xlink:href="#NotoSansCJKsc-Bold-69" transform="translate(1192.899811 0)"/>
    <use xlink:href="#NotoSansCJKsc-Bold-66" transform="translate(1223.299805 0)"/>
    <use xlink:href="#NotoSansCJKsc-Bold-74" transform="translate(1260.499802 0)"/>
   </g>
  </g>
 </g>
 <defs>
  <clipPath id="p0499a4957a">
   <rect x="46.496" y="75.372" width="732.76" height="199.184"/>
  </clipPath>
 </defs>
</svg>
