<?xml version="1.0" encoding="utf-8" standalone="no"?>
<!DOCTYPE svg PUBLIC "-//W3C//DTD SVG 1.1//EN"
  "http://www.w3.org/Graphics/SVG/1.1/DTD/svg11.dtd">
<svg xmlns:xlink="http://www.w3.org/1999/xlink" width="787.896pt" height="301.762604pt" viewBox="0 0 787.896 301.762604" xmlns="http://www.w3.org/2000/svg" version="1.1">
 <metadata>
  <rdf:RDF xmlns:dc="http://purl.org/dc/elements/1.1/" xmlns:cc="http://creativecommons.org/ns#" xmlns:rdf="http://www.w3.org/1999/02/22-rdf-syntax-ns#">
   <cc:Work>
    <dc:type rdf:resource="http://purl.org/dc/dcmitype/StillImage"/>
    <dc:date>2026-06-21T19:29:08.214700</dc:date>
    <dc:format>image/svg+xml</dc:format>
    <dc:creator>
     <cc:Agent>
      <dc:title>Matplotlib v3.10.5, https://matplotlib.org/</dc:title>
     </cc:Agent>
    </dc:creator>
   </cc:Work>
  </rdf:RDF>
 </metadata>
 <defs>
  <style type="text/css">*{stroke-linejoin: round; stroke-linecap: butt}</style>
 </defs>
 <g id="figure_1">
  <g id="patch_1">
   <path d="M 0 301.762604 
L 787.896 301.762604 
L 787.896 0 
L 0 0 
z
" style="fill: #ffffff"/>
  </g>
  <g id="axes_1">
   <g id="patch_2">
    <path d="M 52.616 261.41328 
L 779.256 261.41328 
L 779.256 75.372 
L 52.616 75.372 
z
" style="fill: #ffffff"/>
   </g>
   <g id="matplotlib.axis_1">
    <g id="xtick_1">
     <g id="line2d_1">
      <defs>
       <path id="me991e5e71c" d="M 0 0 
L 0 3.5 
" style="stroke: #475569; stroke-width: 0.8"/>
      </defs>
      <g>
       <use xlink:href="#me991e5e71c" x="173.075037" y="261.41328" style="fill: #475569; stroke: #475569; stroke-width: 0.8"/>
      </g>
     </g>
     <g id="text_1">
      <!-- In-domain -->
      <g style="fill: #475569" transform="translate(146.400897 277.168592) scale(0.11 -0.11)">
       <defs>
        <path id="NotoSansCJKsc-Regular-49" d="M 646 0 
L 1235 0 
L 1235 4691 
L 646 4691 
L 646 0 
z
" transform="scale(0.015625)"/>
        <path id="NotoSansCJKsc-Regular-6e" d="M 589 0 
L 1178 0 
L 1178 2522 
C 1523 2874 1766 3053 2125 3053 
C 2586 3053 2784 2778 2784 2125 
L 2784 0 
L 3366 0 
L 3366 2202 
C 3366 3085 3034 3565 2304 3565 
C 1830 3565 1466 3302 1139 2970 
L 1126 2970 
L 1069 3475 
L 589 3475 
L 589 0 
z
" transform="scale(0.015625)"/>
        <path id="NotoSansCJKsc-Regular-2d" d="M 294 1568 
L 1933 1568 
L 1933 2016 
L 294 2016 
L 294 1568 
z
" transform="scale(0.015625)"/>
        <path id="NotoSansCJKsc-Regular-64" d="M 1773 -83 
C 2189 -83 2560 141 2829 410 
L 2848 410 
L 2899 0 
L 3379 0 
L 3379 5094 
L 2790 5094 
L 2790 3757 
L 2822 3162 
C 2515 3411 2253 3565 1843 3565 
C 1050 3565 339 2861 339 1734 
C 339 576 902 -83 1773 -83 
z
M 1901 410 
C 1293 410 941 902 941 1741 
C 941 2534 1389 3072 1946 3072 
C 2234 3072 2502 2970 2790 2707 
L 2790 883 
C 2502 563 2221 410 1901 410 
z
" transform="scale(0.015625)"/>
        <path id="NotoSansCJKsc-Regular-6f" d="M 1939 -83 
C 2790 -83 3546 582 3546 1734 
C 3546 2893 2790 3565 1939 3565 
C 1088 3565 333 2893 333 1734 
C 333 582 1088 -83 1939 -83 
z
M 1939 403 
C 1338 403 934 934 934 1734 
C 934 2534 1338 3072 1939 3072 
C 2541 3072 2950 2534 2950 1734 
C 2950 934 2541 403 1939 403 
z
" transform="scale(0.015625)"/>
        <path id="NotoSansCJKsc-Regular-6d" d="M 589 0 
L 1178 0 
L 1178 2522 
C 1491 2880 1786 3053 2048 3053 
C 2490 3053 2694 2778 2694 2125 
L 2694 0 
L 3277 0 
L 3277 2522 
C 3603 2880 3885 3053 4154 3053 
C 4595 3053 4800 2778 4800 2125 
L 4800 0 
L 5382 0 
L 5382 2202 
C 5382 3085 5043 3565 4333 3565 
C 3904 3565 3546 3290 3181 2899 
C 3040 3309 2758 3565 2221 3565 
C 1805 3565 1446 3302 1139 2970 
L 1126 2970 
L 1069 3475 
L 589 3475 
L 589 0 
z
" transform="scale(0.015625)"/>
        <path id="NotoSansCJKsc-Regular-61" d="M 1389 -83 
C 1818 -83 2208 141 2541 416 
L 2560 416 
L 2611 0 
L 3091 0 
L 3091 2138 
C 3091 3002 2739 3565 1888 3565 
C 1325 3565 838 3315 525 3110 
L 749 2707 
C 1024 2893 1389 3078 1792 3078 
C 2362 3078 2509 2650 2509 2202 
C 1030 2035 378 1658 378 902 
C 378 275 806 -83 1389 -83 
z
M 1555 390 
C 1210 390 941 544 941 941 
C 941 1389 1338 1677 2509 1811 
L 2509 845 
C 2170 544 1888 390 1555 390 
z
" transform="scale(0.015625)"/>
        <path id="NotoSansCJKsc-Regular-69" d="M 589 0 
L 1178 0 
L 1178 3475 
L 589 3475 
L 589 0 
z
M 883 4192 
C 1114 4192 1274 4346 1274 4582 
C 1274 4806 1114 4960 883 4960 
C 653 4960 499 4806 499 4582 
C 499 4346 653 4192 883 4192 
z
" transform="scale(0.015625)"/>
       </defs>
       <use xlink:href="#NotoSansCJKsc-Regular-49"/>
       <use xlink:href="#NotoSansCJKsc-Regular-6e" transform="translate(29.299988 0)"/>
       <use xlink:href="#NotoSansCJKsc-Regular-2d" transform="translate(90.299973 0)"/>
       <use xlink:href="#NotoSansCJKsc-Regular-64" transform="translate(124.999969 0)"/>
       <use xlink:href="#NotoSansCJKsc-Regular-6f" transform="translate(186.999954 0)"/>
       <use xlink:href="#NotoSansCJKsc-Regular-6d" transform="translate(247.599945 0)"/>
       <use xlink:href="#NotoSansCJKsc-Regular-61" transform="translate(340.199936 0)"/>
       <use xlink:href="#NotoSansCJKsc-Regular-69" transform="translate(396.499924 0)"/>
       <use xlink:href="#NotoSansCJKsc-Regular-6e" transform="translate(423.999908 0)"/>
      </g>
     </g>
    </g>
    <g id="xtick_2">
     <g id="line2d_2">
      <g>
       <use xlink:href="#me991e5e71c" x="415.936" y="261.41328" style="fill: #475569; stroke: #475569; stroke-width: 0.8"/>
      </g>
     </g>
     <g id="text_2">
      <!-- Cross-domain -->
      <g style="fill: #475569" transform="translate(380.105219 277.168592) scale(0.11 -0.11)">
       <defs>
        <path id="NotoSansCJKsc-Regular-43" d="M 2413 -83 
C 3021 -83 3482 160 3853 589 
L 3526 966 
C 3226 634 2886 435 2438 435 
C 1542 435 979 1178 979 2362 
C 979 3533 1574 4256 2458 4256 
C 2861 4256 3168 4077 3418 3814 
L 3738 4198 
C 3469 4499 3021 4774 2451 4774 
C 1261 4774 371 3859 371 2342 
C 371 819 1242 -83 2413 -83 
z
" transform="scale(0.015625)"/>
        <path id="NotoSansCJKsc-Regular-72" d="M 589 0 
L 1178 0 
L 1178 2234 
C 1408 2822 1760 3040 2048 3040 
C 2195 3040 2272 3021 2387 2982 
L 2496 3488 
C 2387 3546 2278 3565 2125 3565 
C 1741 3565 1382 3283 1139 2842 
L 1126 2842 
L 1069 3475 
L 589 3475 
L 589 0 
z
" transform="scale(0.015625)"/>
        <path id="NotoSansCJKsc-Regular-73" d="M 1498 -83 
C 2317 -83 2758 384 2758 947 
C 2758 1606 2208 1811 1702 2003 
C 1312 2150 954 2278 954 2605 
C 954 2880 1158 3110 1600 3110 
C 1907 3110 2150 2976 2387 2803 
L 2669 3168 
C 2406 3386 2022 3565 1594 3565 
C 832 3565 397 3130 397 2579 
C 397 1984 922 1754 1408 1574 
C 1792 1434 2202 1267 2202 915 
C 2202 614 1978 371 1517 371 
C 1101 371 794 538 486 787 
L 205 397 
C 531 122 1005 -83 1498 -83 
z
" transform="scale(0.015625)"/>
       </defs>
       <use xlink:href="#NotoSansCJKsc-Regular-43"/>
       <use xlink:href="#NotoSansCJKsc-Regular-72" transform="translate(63.799988 0)"/>
       <use xlink:href="#NotoSansCJKsc-Regular-6f" transform="translate(102.599976 0)"/>
       <use xlink:href="#NotoSansCJKsc-Regular-73" transform="translate(163.199966 0)"/>
       <use xlink:href="#NotoSansCJKsc-Regular-73" transform="translate(209.999954 0)"/>
       <use xlink:href="#NotoSansCJKsc-Regular-2d" transform="translate(256.799942 0)"/>
       <use xlink:href="#NotoSansCJKsc-Regular-64" transform="translate(291.499939 0)"/>
       <use xlink:href="#NotoSansCJKsc-Regular-6f" transform="translate(353.499924 0)"/>
       <use xlink:href="#NotoSansCJKsc-Regular-6d" transform="translate(414.099915 0)"/>
       <use xlink:href="#NotoSansCJKsc-Regular-61" transform="translate(506.699905 0)"/>
       <use xlink:href="#NotoSansCJKsc-Regular-69" transform="translate(562.999893 0)"/>
       <use xlink:href="#NotoSansCJKsc-Regular-6e" transform="translate(590.499878 0)"/>
      </g>
     </g>
    </g>
    <g id="xtick_3">
     <g id="line2d_3">
      <g>
       <use xlink:href="#me991e5e71c" x="658.796963" y="261.41328" style="fill: #475569; stroke: #475569; stroke-width: 0.8"/>
      </g>
     </g>
     <g id="text_3">
      <!-- Ralph-loop -->
      <g style="fill: #475569" transform="translate(630.350791 277.168592) scale(0.11 -0.11)">
       <defs>
        <path id="NotoSansCJKsc-Regular-52" d="M 1235 2464 
L 1235 4211 
L 2022 4211 
C 2758 4211 3162 3994 3162 3379 
C 3162 2765 2758 2464 2022 2464 
L 1235 2464 
z
M 3219 0 
L 3885 0 
L 2694 2054 
C 3328 2208 3750 2643 3750 3379 
C 3750 4352 3066 4691 2112 4691 
L 646 4691 
L 646 0 
L 1235 0 
L 1235 1990 
L 2080 1990 
L 3219 0 
z
" transform="scale(0.015625)"/>
        <path id="NotoSansCJKsc-Regular-6c" d="M 1203 -83 
C 1363 -83 1459 -58 1542 -32 
L 1459 416 
C 1395 403 1370 403 1338 403 
C 1248 403 1178 474 1178 653 
L 1178 5094 
L 589 5094 
L 589 691 
C 589 198 768 -83 1203 -83 
z
" transform="scale(0.015625)"/>
        <path id="NotoSansCJKsc-Regular-70" d="M 589 -1466 
L 1178 -1466 
L 1178 -288 
L 1158 320 
C 1472 58 1805 -83 2118 -83 
C 2912 -83 3629 602 3629 1792 
C 3629 2867 3142 3565 2246 3565 
C 1843 3565 1453 3334 1139 3072 
L 1126 3072 
L 1069 3475 
L 589 3475 
L 589 -1466 
z
M 2022 410 
C 1792 410 1485 499 1178 768 
L 1178 2598 
C 1510 2906 1811 3072 2099 3072 
C 2765 3072 3021 2560 3021 1786 
C 3021 928 2598 410 2022 410 
z
" transform="scale(0.015625)"/>
        <path id="NotoSansCJKsc-Regular-68" d="M 589 0 
L 1178 0 
L 1178 2522 
C 1523 2874 1766 3053 2125 3053 
C 2586 3053 2784 2778 2784 2125 
L 2784 0 
L 3366 0 
L 3366 2202 
C 3366 3085 3034 3565 2304 3565 
C 1830 3565 1472 3302 1152 2982 
L 1178 3699 
L 1178 5094 
L 589 5094 
L 589 0 
z
" transform="scale(0.015625)"/>
       </defs>
       <use xlink:href="#NotoSansCJKsc-Regular-52"/>
       <use xlink:href="#NotoSansCJKsc-Regular-61" transform="translate(63.499985 0)"/>
       <use xlink:href="#NotoSansCJKsc-Regular-6c" transform="translate(119.799973 0)"/>
       <use xlink:href="#NotoSansCJKsc-Regular-70" transform="translate(148.199966 0)"/>
       <use xlink:href="#NotoSansCJKsc-Regular-68" transform="translate(210.199951 0)"/>
       <use xlink:href="#NotoSansCJKsc-Regular-2d" transform="translate(270.899948 0)"/>
       <use xlink:href="#NotoSansCJKsc-Regular-6c" transform="translate(305.599945 0)"/>
       <use xlink:href="#NotoSansCJKsc-Regular-6f" transform="translate(333.999939 0)"/>
       <use xlink:href="#NotoSansCJKsc-Regular-6f" transform="translate(394.59993 0)"/>
       <use xlink:href="#NotoSansCJKsc-Regular-70" transform="translate(455.199921 0)"/>
      </g>
      <!-- (OOD) -->
      <g style="fill: #475569" transform="translate(643.133134 290.194655) scale(0.11 -0.11)">
       <defs>
        <path id="NotoSansCJKsc-Regular-28" d="M 1530 -1254 
L 1888 -1094 
C 1338 -186 1075 902 1075 1990 
C 1075 3072 1338 4154 1888 5069 
L 1530 5235 
C 941 4275 589 3245 589 1990 
C 589 730 941 -301 1530 -1254 
z
" transform="scale(0.015625)"/>
        <path id="NotoSansCJKsc-Regular-4f" d="M 2374 -83 
C 3552 -83 4378 858 4378 2362 
C 4378 3866 3552 4774 2374 4774 
C 1197 4774 371 3866 371 2362 
C 371 858 1197 -83 2374 -83 
z
M 2374 435 
C 1530 435 979 1190 979 2362 
C 979 3533 1530 4256 2374 4256 
C 3219 4256 3770 3533 3770 2362 
C 3770 1190 3219 435 2374 435 
z
" transform="scale(0.015625)"/>
        <path id="NotoSansCJKsc-Regular-44" d="M 646 0 
L 1843 0 
C 3258 0 4026 877 4026 2362 
C 4026 3859 3258 4691 1818 4691 
L 646 4691 
L 646 0 
z
M 1235 486 
L 1235 4211 
L 1766 4211 
C 2874 4211 3418 3552 3418 2362 
C 3418 1178 2874 486 1766 486 
L 1235 486 
z
" transform="scale(0.015625)"/>
        <path id="NotoSansCJKsc-Regular-29" d="M 634 -1254 
C 1222 -301 1574 730 1574 1990 
C 1574 3245 1222 4275 634 5235 
L 269 5069 
C 819 4154 1094 3072 1094 1990 
C 1094 902 819 -186 269 -1094 
L 634 -1254 
z
" transform="scale(0.015625)"/>
       </defs>
       <use xlink:href="#NotoSansCJKsc-Regular-28"/>
       <use xlink:href="#NotoSansCJKsc-Regular-4f" transform="translate(33.799988 0)"/>
       <use xlink:href="#NotoSansCJKsc-Regular-4f" transform="translate(107.999969 0)"/>
       <use xlink:href="#NotoSansCJKsc-Regular-44" transform="translate(182.199951 0)"/>
       <use xlink:href="#NotoSansCJKsc-Regular-29" transform="translate(250.999939 0)"/>
      </g>
     </g>
    </g>
   </g>
   <g id="matplotlib.axis_2">
    <g id="ytick_1">
     <g id="line2d_4">
      <path d="M 52.616 261.41328 
L 779.256 261.41328 
" clip-path="url(#pd309ab5910)" style="fill: none; stroke: #e5e7eb; stroke-width: 0.8; stroke-linecap: square"/>
     </g>
     <g id="line2d_5">
      <defs>
       <path id="m1385b070e0" d="M 0 0 
L -3.5 0 
" style="stroke: #475569; stroke-width: 0.8"/>
      </defs>
      <g>
       <use xlink:href="#m1385b070e0" x="52.616" y="261.41328" style="fill: #475569; stroke: #475569; stroke-width: 0.8"/>
      </g>
     </g>
     <g id="text_4">
      <!-- 0 -->
      <g style="fill: #475569" transform="translate(39.511 265.790936) scale(0.11 -0.11)">
       <defs>
        <path id="NotoSansCJKsc-Regular-30" d="M 1779 -83 
C 2669 -83 3238 723 3238 2362 
C 3238 3987 2669 4774 1779 4774 
C 883 4774 320 3987 320 2362 
C 320 723 883 -83 1779 -83 
z
M 1779 390 
C 1248 390 883 986 883 2362 
C 883 3731 1248 4314 1779 4314 
C 2310 4314 2675 3731 2675 2362 
C 2675 986 2310 390 1779 390 
z
" transform="scale(0.015625)"/>
       </defs>
       <use xlink:href="#NotoSansCJKsc-Regular-30"/>
      </g>
     </g>
    </g>
    <g id="ytick_2">
     <g id="line2d_6">
      <path d="M 52.616 224.205024 
L 779.256 224.205024 
" clip-path="url(#pd309ab5910)" style="fill: none; stroke: #e5e7eb; stroke-width: 0.8; stroke-linecap: square"/>
     </g>
     <g id="line2d_7">
      <g>
       <use xlink:href="#m1385b070e0" x="52.616" y="224.205024" style="fill: #475569; stroke: #475569; stroke-width: 0.8"/>
      </g>
     </g>
     <g id="text_5">
      <!-- 20 -->
      <g style="fill: #475569" transform="translate(33.406 228.58268) scale(0.11 -0.11)">
       <defs>
        <path id="NotoSansCJKsc-Regular-32" d="M 282 0 
L 3232 0 
L 3232 506 
L 1933 506 
C 1696 506 1408 480 1165 461 
C 2266 1504 3008 2458 3008 3398 
C 3008 4230 2477 4774 1638 4774 
C 1043 4774 634 4506 256 4090 
L 595 3757 
C 858 4070 1184 4301 1568 4301 
C 2150 4301 2432 3910 2432 3373 
C 2432 2566 1754 1632 282 346 
L 282 0 
z
" transform="scale(0.015625)"/>
       </defs>
       <use xlink:href="#NotoSansCJKsc-Regular-32"/>
       <use xlink:href="#NotoSansCJKsc-Regular-30" transform="translate(55.499985 0)"/>
      </g>
     </g>
    </g>
    <g id="ytick_3">
     <g id="line2d_8">
      <path d="M 52.616 186.996768 
L 779.256 186.996768 
" clip-path="url(#pd309ab5910)" style="fill: none; stroke: #e5e7eb; stroke-width: 0.8; stroke-linecap: square"/>
     </g>
     <g id="line2d_9">
      <g>
       <use xlink:href="#m1385b070e0" x="52.616" y="186.996768" style="fill: #475569; stroke: #475569; stroke-width: 0.8"/>
      </g>
     </g>
     <g id="text_6">
      <!-- 40 -->
      <g style="fill: #475569" transform="translate(33.406 191.374424) scale(0.11 -0.11)">
       <defs>
        <path id="NotoSansCJKsc-Regular-34" d="M 2176 0 
L 2726 0 
L 2726 1293 
L 3354 1293 
L 3354 1760 
L 2726 1760 
L 2726 4691 
L 2080 4691 
L 128 1677 
L 128 1293 
L 2176 1293 
L 2176 0 
z
M 2176 1760 
L 736 1760 
L 1805 3360 
C 1939 3590 2067 3827 2182 4051 
L 2208 4051 
C 2195 3814 2176 3430 2176 3200 
L 2176 1760 
z
" transform="scale(0.015625)"/>
       </defs>
       <use xlink:href="#NotoSansCJKsc-Regular-34"/>
       <use xlink:href="#NotoSansCJKsc-Regular-30" transform="translate(55.499985 0)"/>
      </g>
     </g>
    </g>
    <g id="ytick_4">
     <g id="line2d_10">
      <path d="M 52.616 149.788512 
L 779.256 149.788512 
" clip-path="url(#pd309ab5910)" style="fill: none; stroke: #e5e7eb; stroke-width: 0.8; stroke-linecap: square"/>
     </g>
     <g id="line2d_11">
      <g>
       <use xlink:href="#m1385b070e0" x="52.616" y="149.788512" style="fill: #475569; stroke: #475569; stroke-width: 0.8"/>
      </g>
     </g>
     <g id="text_7">
      <!-- 60 -->
      <g style="fill: #475569" transform="translate(33.406 154.166168) scale(0.11 -0.11)">
       <defs>
        <path id="NotoSansCJKsc-Regular-36" d="M 1926 -83 
C 2656 -83 3277 531 3277 1440 
C 3277 2426 2765 2912 1971 2912 
C 1606 2912 1197 2701 909 2349 
C 934 3802 1466 4294 2118 4294 
C 2400 4294 2682 4154 2861 3936 
L 3194 4294 
C 2931 4576 2579 4774 2093 4774 
C 1184 4774 358 4077 358 2240 
C 358 691 1030 -83 1926 -83 
z
M 922 1882 
C 1229 2317 1587 2477 1875 2477 
C 2445 2477 2720 2074 2720 1440 
C 2720 800 2374 378 1926 378 
C 1338 378 986 909 922 1882 
z
" transform="scale(0.015625)"/>
       </defs>
       <use xlink:href="#NotoSansCJKsc-Regular-36"/>
       <use xlink:href="#NotoSansCJKsc-Regular-30" transform="translate(55.499985 0)"/>
      </g>
     </g>
    </g>
    <g id="ytick_5">
     <g id="line2d_12">
      <path d="M 52.616 112.580256 
L 779.256 112.580256 
" clip-path="url(#pd309ab5910)" style="fill: none; stroke: #e5e7eb; stroke-width: 0.8; stroke-linecap: square"/>
     </g>
     <g id="line2d_13">
      <g>
       <use xlink:href="#m1385b070e0" x="52.616" y="112.580256" style="fill: #475569; stroke: #475569; stroke-width: 0.8"/>
      </g>
     </g>
     <g id="text_8">
      <!-- 80 -->
      <g style="fill: #475569" transform="translate(33.406 116.957912) scale(0.11 -0.11)">
       <defs>
        <path id="NotoSansCJKsc-Regular-38" d="M 1792 -83 
C 2669 -83 3258 448 3258 1126 
C 3258 1773 2880 2125 2470 2362 
L 2470 2394 
C 2746 2611 3091 3034 3091 3526 
C 3091 4250 2605 4762 1805 4762 
C 1075 4762 518 4282 518 3571 
C 518 3078 813 2726 1152 2490 
L 1152 2464 
C 723 2234 294 1792 294 1165 
C 294 442 922 -83 1792 -83 
z
M 2112 2547 
C 1555 2765 1050 3014 1050 3571 
C 1050 4026 1363 4326 1798 4326 
C 2298 4326 2592 3962 2592 3494 
C 2592 3149 2426 2829 2112 2547 
z
M 1798 352 
C 1235 352 813 717 813 1216 
C 813 1664 1082 2035 1459 2278 
C 2125 2010 2701 1779 2701 1146 
C 2701 678 2342 352 1798 352 
z
" transform="scale(0.015625)"/>
       </defs>
       <use xlink:href="#NotoSansCJKsc-Regular-38"/>
       <use xlink:href="#NotoSansCJKsc-Regular-30" transform="translate(55.499985 0)"/>
      </g>
     </g>
    </g>
    <g id="ytick_6">
     <g id="line2d_14">
      <path d="M 52.616 75.372 
L 779.256 75.372 
" clip-path="url(#pd309ab5910)" style="fill: none; stroke: #e5e7eb; stroke-width: 0.8; stroke-linecap: square"/>
     </g>
     <g id="line2d_15">
      <g>
       <use xlink:href="#m1385b070e0" x="52.616" y="75.372" style="fill: #475569; stroke: #475569; stroke-width: 0.8"/>
      </g>
     </g>
     <g id="text_9">
      <!-- 100 -->
      <g style="fill: #475569" transform="translate(27.301 79.749656) scale(0.11 -0.11)">
       <defs>
        <path id="NotoSansCJKsc-Regular-31" d="M 563 0 
L 3136 0 
L 3136 486 
L 2195 486 
L 2195 4691 
L 1747 4691 
C 1491 4544 1190 4435 774 4358 
L 774 3987 
L 1613 3987 
L 1613 486 
L 563 486 
L 563 0 
z
" transform="scale(0.015625)"/>
       </defs>
       <use xlink:href="#NotoSansCJKsc-Regular-31"/>
       <use xlink:href="#NotoSansCJKsc-Regular-30" transform="translate(55.499985 0)"/>
       <use xlink:href="#NotoSansCJKsc-Regular-30" transform="translate(110.999969 0)"/>
      </g>
     </g>
    </g>
    <g id="text_10">
     <!-- Task success (%, illustrative) -->
     <g style="fill: #0f172a" transform="translate(20.781313 241.472171) rotate(-90) scale(0.11 -0.11)">
      <defs>
       <path id="NotoSansCJKsc-Regular-54" d="M 1619 0 
L 2214 0 
L 2214 4192 
L 3635 4192 
L 3635 4691 
L 198 4691 
L 198 4192 
L 1619 4192 
L 1619 0 
z
" transform="scale(0.015625)"/>
       <path id="NotoSansCJKsc-Regular-6b" d="M 589 0 
L 1165 0 
L 1165 915 
L 1818 1677 
L 2835 0 
L 3469 0 
L 2157 2074 
L 3315 3475 
L 2662 3475 
L 1190 1645 
L 1165 1645 
L 1165 5094 
L 589 5094 
L 589 0 
z
" transform="scale(0.015625)"/>
       <path id="NotoSansCJKsc-Regular-20" transform="scale(0.015625)"/>
       <path id="NotoSansCJKsc-Regular-75" d="M 1606 -83 
C 2080 -83 2426 166 2752 544 
L 2771 544 
L 2816 0 
L 3302 0 
L 3302 3475 
L 2720 3475 
L 2720 1011 
C 2387 602 2138 422 1779 422 
C 1318 422 1126 698 1126 1344 
L 1126 3475 
L 538 3475 
L 538 1274 
C 538 384 870 -83 1606 -83 
z
" transform="scale(0.015625)"/>
       <path id="NotoSansCJKsc-Regular-63" d="M 1958 -83 
C 2374 -83 2771 83 3085 352 
L 2829 749 
C 2611 557 2330 403 2010 403 
C 1370 403 934 934 934 1734 
C 934 2534 1395 3072 2029 3072 
C 2298 3072 2522 2950 2720 2771 
L 3014 3155 
C 2771 3373 2458 3565 2003 3565 
C 1107 3565 333 2893 333 1734 
C 333 582 1037 -83 1958 -83 
z
" transform="scale(0.015625)"/>
       <path id="NotoSansCJKsc-Regular-65" d="M 1997 -83 
C 2464 -83 2835 70 3136 269 
L 2931 659 
C 2669 486 2400 384 2061 384 
C 1402 384 947 858 909 1600 
L 3251 1600 
C 3264 1690 3277 1805 3277 1933 
C 3277 2925 2778 3565 1888 3565 
C 1094 3565 333 2867 333 1734 
C 333 589 1069 -83 1997 -83 
z
M 902 2016 
C 973 2707 1408 3098 1901 3098 
C 2445 3098 2765 2720 2765 2016 
L 902 2016 
z
" transform="scale(0.015625)"/>
       <path id="NotoSansCJKsc-Regular-25" d="M 1312 1818 
C 1958 1818 2381 2362 2381 3309 
C 2381 4243 1958 4774 1312 4774 
C 672 4774 250 4243 250 3309 
C 250 2362 672 1818 1312 1818 
z
M 1312 2176 
C 941 2176 691 2560 691 3309 
C 691 4058 941 4416 1312 4416 
C 1683 4416 1933 4058 1933 3309 
C 1933 2560 1683 2176 1312 2176 
z
M 1446 -83 
L 1843 -83 
L 4435 4774 
L 4038 4774 
L 1446 -83 
z
M 4582 -83 
C 5222 -83 5645 454 5645 1402 
C 5645 2342 5222 2874 4582 2874 
C 3942 2874 3520 2342 3520 1402 
C 3520 454 3942 -83 4582 -83 
z
M 4582 275 
C 4211 275 3955 653 3955 1402 
C 3955 2150 4211 2515 4582 2515 
C 4947 2515 5210 2150 5210 1402 
C 5210 653 4947 275 4582 275 
z
" transform="scale(0.015625)"/>
       <path id="NotoSansCJKsc-Regular-2c" d="M 480 -1216 
C 1056 -973 1414 -493 1414 122 
C 1414 550 1229 806 922 806 
C 685 806 480 653 480 397 
C 480 141 678 -13 909 -13 
L 979 -6 
C 973 -390 736 -698 339 -870 
L 480 -1216 
z
" transform="scale(0.015625)"/>
       <path id="NotoSansCJKsc-Regular-74" d="M 1677 -83 
C 1894 -83 2125 -19 2323 45 
L 2208 486 
C 2093 435 1939 390 1811 390 
C 1408 390 1274 634 1274 1056 
L 1274 3002 
L 2221 3002 
L 2221 3475 
L 1274 3475 
L 1274 4454 
L 787 4454 
L 723 3475 
L 173 3443 
L 173 3002 
L 691 3002 
L 691 1075 
C 691 378 941 -83 1677 -83 
z
" transform="scale(0.015625)"/>
       <path id="NotoSansCJKsc-Regular-76" d="M 1338 0 
L 2022 0 
L 3251 3475 
L 2675 3475 
L 2016 1498 
C 1914 1158 1798 806 1696 474 
L 1664 474 
C 1562 806 1453 1158 1344 1498 
L 691 3475 
L 83 3475 
L 1338 0 
z
" transform="scale(0.015625)"/>
      </defs>
      <use xlink:href="#NotoSansCJKsc-Regular-54"/>
      <use xlink:href="#NotoSansCJKsc-Regular-61" transform="translate(59.899994 0)"/>
      <use xlink:href="#NotoSansCJKsc-Regular-73" transform="translate(116.199982 0)"/>
      <use xlink:href="#NotoSansCJKsc-Regular-6b" transform="translate(162.999969 0)"/>
      <use xlink:href="#NotoSansCJKsc-Regular-20" transform="translate(218.199966 0)"/>
      <use xlink:href="#NotoSansCJKsc-Regular-73" transform="translate(240.59996 0)"/>
      <use xlink:href="#NotoSansCJKsc-Regular-75" transform="translate(287.399948 0)"/>
      <use xlink:href="#NotoSansCJKsc-Regular-63" transform="translate(348.099945 0)"/>
      <use xlink:href="#NotoSansCJKsc-Regular-63" transform="translate(399.09993 0)"/>
      <use xlink:href="#NotoSansCJKsc-Regular-65" transform="translate(450.099915 0)"/>
      <use xlink:href="#NotoSansCJKsc-Regular-73" transform="translate(505.499908 0)"/>
      <use xlink:href="#NotoSansCJKsc-Regular-73" transform="translate(552.299896 0)"/>
      <use xlink:href="#NotoSansCJKsc-Regular-20" transform="translate(599.099884 0)"/>
      <use xlink:href="#NotoSansCJKsc-Regular-28" transform="translate(621.499878 0)"/>
      <use xlink:href="#NotoSansCJKsc-Regular-25" transform="translate(655.299866 0)"/>
      <use xlink:href="#NotoSansCJKsc-Regular-2c" transform="translate(747.399857 0)"/>
      <use xlink:href="#NotoSansCJKsc-Regular-20" transform="translate(775.199844 0)"/>
      <use xlink:href="#NotoSansCJKsc-Regular-69" transform="translate(797.599838 0)"/>
      <use xlink:href="#NotoSansCJKsc-Regular-6c" transform="translate(825.099823 0)"/>
      <use xlink:href="#NotoSansCJKsc-Regular-6c" transform="translate(853.499817 0)"/>
      <use xlink:href="#NotoSansCJKsc-Regular-75" transform="translate(881.899811 0)"/>
      <use xlink:href="#NotoSansCJKsc-Regular-73" transform="translate(942.599808 0)"/>
      <use xlink:href="#NotoSansCJKsc-Regular-74" transform="translate(989.399796 0)"/>
      <use xlink:href="#NotoSansCJKsc-Regular-72" transform="translate(1027.099792 0)"/>
      <use xlink:href="#NotoSansCJKsc-Regular-61" transform="translate(1065.89978 0)"/>
      <use xlink:href="#NotoSansCJKsc-Regular-74" transform="translate(1122.199768 0)"/>
      <use xlink:href="#NotoSansCJKsc-Regular-69" transform="translate(1159.899765 0)"/>
      <use xlink:href="#NotoSansCJKsc-Regular-76" transform="translate(1187.39975 0)"/>
      <use xlink:href="#NotoSansCJKsc-Regular-65" transform="translate(1239.499741 0)"/>
      <use xlink:href="#NotoSansCJKsc-Regular-29" transform="translate(1294.899734 0)"/>
     </g>
    </g>
   </g>
   <g id="patch_3">
    <path d="M 52.616 261.41328 
L 52.616 75.372 
" style="fill: none; stroke: #94a3b8; stroke-width: 0.8; stroke-linejoin: miter; stroke-linecap: square"/>
   </g>
   <g id="patch_4">
    <path d="M 52.616 261.41328 
L 779.256 261.41328 
" style="fill: none; stroke: #94a3b8; stroke-width: 0.8; stroke-linejoin: miter; stroke-linecap: square"/>
   </g>
   <g id="patch_5">
    <path d="M 85.645091 261.41328 
L 173.075037 261.41328 
L 173.075037 160.950989 
L 85.645091 160.950989 
z
" clip-path="url(#pd309ab5910)" style="fill: #94a3b8"/>
   </g>
   <g id="patch_6">
    <path d="M 328.506053 261.41328 
L 415.936 261.41328 
L 415.936 185.136355 
L 328.506053 185.136355 
z
" clip-path="url(#pd309ab5910)" style="fill: #94a3b8"/>
   </g>
   <g id="patch_7">
    <path d="M 571.367016 261.41328 
L 658.796963 261.41328 
L 658.796963 200.019658 
L 571.367016 200.019658 
z
" clip-path="url(#pd309ab5910)" style="fill: #94a3b8"/>
   </g>
   <g id="patch_8">
    <path d="M 173.075037 261.41328 
L 260.504984 261.41328 
L 260.504984 116.301082 
L 173.075037 116.301082 
z
" clip-path="url(#pd309ab5910)" style="fill: #7c3aed"/>
   </g>
   <g id="patch_9">
    <path d="M 415.936 261.41328 
L 503.365947 261.41328 
L 503.365947 138.626035 
L 415.936 138.626035 
z
" clip-path="url(#pd309ab5910)" style="fill: #7c3aed"/>
   </g>
   <g id="patch_10">
    <path d="M 658.796963 261.41328 
L 746.226909 261.41328 
L 746.226909 153.509338 
L 658.796963 153.509338 
z
" clip-path="url(#pd309ab5910)" style="fill: #7c3aed"/>
   </g>
   <g id="text_11">
    <!-- 54 -->
    <g style="fill: #0f172a" transform="translate(123.873064 158.951489) scale(0.093 -0.093)">
     <defs>
      <path id="NotoSansCJKsc-Bold-35" d="M 1773 -90 
C 2637 -90 3424 518 3424 1574 
C 3424 2605 2765 3072 1965 3072 
C 1747 3072 1581 3034 1395 2944 
L 1485 3949 
L 3206 3949 
L 3206 4742 
L 672 4742 
L 544 2438 
L 973 2163 
C 1254 2342 1408 2406 1683 2406 
C 2157 2406 2483 2099 2483 1549 
C 2483 992 2138 678 1645 678 
C 1210 678 870 896 602 1158 
L 166 557 
C 525 205 1018 -90 1773 -90 
z
" transform="scale(0.015625)"/>
      <path id="NotoSansCJKsc-Bold-34" d="M 2157 0 
L 3034 0 
L 3034 1229 
L 3597 1229 
L 3597 1946 
L 3034 1946 
L 3034 4742 
L 1901 4742 
L 134 1869 
L 134 1229 
L 2157 1229 
L 2157 0 
z
M 2157 1946 
L 1050 1946 
L 1786 3123 
C 1920 3379 2048 3642 2163 3898 
L 2195 3898 
C 2176 3616 2157 3187 2157 2912 
L 2157 1946 
z
" transform="scale(0.015625)"/>
     </defs>
     <use xlink:href="#NotoSansCJKsc-Bold-35"/>
     <use xlink:href="#NotoSansCJKsc-Bold-34" transform="translate(58.999985 0)"/>
    </g>
   </g>
   <g id="text_12">
    <!-- 41 -->
    <g style="fill: #0f172a" transform="translate(366.734027 183.136855) scale(0.093 -0.093)">
     <defs>
      <path id="NotoSansCJKsc-Bold-31" d="M 525 0 
L 3373 0 
L 3373 768 
L 2483 768 
L 2483 4742 
L 1786 4742 
C 1485 4550 1165 4429 685 4346 
L 685 3757 
L 1549 3757 
L 1549 768 
L 525 768 
L 525 0 
z
" transform="scale(0.015625)"/>
     </defs>
     <use xlink:href="#NotoSansCJKsc-Bold-34"/>
     <use xlink:href="#NotoSansCJKsc-Bold-31" transform="translate(58.999985 0)"/>
    </g>
   </g>
   <g id="text_13">
    <!-- 33 -->
    <g style="fill: #0f172a" transform="translate(609.594989 198.020158) scale(0.093 -0.093)">
     <defs>
      <path id="NotoSansCJKsc-Bold-33" d="M 1747 -90 
C 2656 -90 3418 410 3418 1280 
C 3418 1907 3008 2304 2477 2451 
L 2477 2483 
C 2976 2682 3264 3053 3264 3565 
C 3264 4378 2643 4826 1728 4826 
C 1171 4826 717 4602 307 4250 
L 794 3667 
C 1069 3930 1344 4083 1683 4083 
C 2086 4083 2317 3866 2317 3494 
C 2317 3066 2035 2771 1171 2771 
L 1171 2093 
C 2195 2093 2470 1805 2470 1338 
C 2470 915 2144 678 1664 678 
C 1229 678 890 890 608 1165 
L 166 570 
C 499 192 1005 -90 1747 -90 
z
" transform="scale(0.015625)"/>
     </defs>
     <use xlink:href="#NotoSansCJKsc-Bold-33"/>
     <use xlink:href="#NotoSansCJKsc-Bold-33" transform="translate(58.999985 0)"/>
    </g>
   </g>
   <g id="text_14">
    <!-- 78 -->
    <g style="fill: #0f172a" transform="translate(211.303011 114.301582) scale(0.093 -0.093)">
     <defs>
      <path id="NotoSansCJKsc-Bold-37" d="M 1190 0 
L 2138 0 
C 2221 1850 2368 2822 3469 4166 
L 3469 4742 
L 320 4742 
L 320 3949 
L 2451 3949 
C 1549 2694 1274 1645 1190 0 
z
" transform="scale(0.015625)"/>
      <path id="NotoSansCJKsc-Bold-38" d="M 1888 -90 
C 2842 -90 3482 461 3482 1178 
C 3482 1824 3123 2208 2682 2445 
L 2682 2477 
C 2989 2701 3290 3091 3290 3558 
C 3290 4314 2752 4819 1914 4819 
C 1088 4819 486 4333 486 3565 
C 486 3066 749 2707 1114 2445 
L 1114 2413 
C 672 2182 301 1786 301 1178 
C 301 435 973 -90 1888 -90 
z
M 2182 2707 
C 1690 2906 1318 3123 1318 3565 
C 1318 3949 1574 4160 1894 4160 
C 2291 4160 2522 3885 2522 3501 
C 2522 3219 2413 2944 2182 2707 
z
M 1907 576 
C 1466 576 1114 851 1114 1280 
C 1114 1638 1293 1952 1549 2163 
C 2163 1901 2605 1702 2605 1210 
C 2605 800 2310 576 1907 576 
z
" transform="scale(0.015625)"/>
     </defs>
     <use xlink:href="#NotoSansCJKsc-Bold-37"/>
     <use xlink:href="#NotoSansCJKsc-Bold-38" transform="translate(58.999985 0)"/>
    </g>
   </g>
   <g id="text_15">
    <!-- 66 -->
    <g style="fill: #0f172a" transform="translate(454.163973 136.626535) scale(0.093 -0.093)">
     <defs>
      <path id="NotoSansCJKsc-Bold-36" d="M 2022 -90 
C 2829 -90 3507 525 3507 1498 
C 3507 2509 2938 2982 2144 2982 
C 1843 2982 1440 2803 1178 2483 
C 1222 3661 1664 4070 2214 4070 
C 2483 4070 2771 3910 2938 3725 
L 3437 4288 
C 3155 4582 2733 4826 2150 4826 
C 1197 4826 320 4070 320 2304 
C 320 640 1126 -90 2022 -90 
z
M 1197 1818 
C 1434 2176 1722 2317 1971 2317 
C 2381 2317 2650 2061 2650 1498 
C 2650 922 2362 621 2003 621 
C 1606 621 1286 954 1197 1818 
z
" transform="scale(0.015625)"/>
     </defs>
     <use xlink:href="#NotoSansCJKsc-Bold-36"/>
     <use xlink:href="#NotoSansCJKsc-Bold-36" transform="translate(58.999985 0)"/>
    </g>
   </g>
   <g id="text_16">
    <!-- 58 -->
    <g style="fill: #0f172a" transform="translate(697.024936 151.509838) scale(0.093 -0.093)">
     <use xlink:href="#NotoSansCJKsc-Bold-35"/>
     <use xlink:href="#NotoSansCJKsc-Bold-38" transform="translate(58.999985 0)"/>
    </g>
   </g>
   <g id="text_17">
    <!-- Proof-of-concept numbers illustrate the reported trend (open-source: Trinity-RFT); paper reports no standard SOTA table. -->
    <g style="fill: #64748b" transform="translate(181.482398 291.179885) scale(0.083 -0.083)">
     <defs>
      <path id="NotoSansCJKsc-Regular-50" d="M 646 0 
L 1235 0 
L 1235 1869 
L 2010 1869 
C 3040 1869 3738 2323 3738 3315 
C 3738 4339 3034 4691 1984 4691 
L 646 4691 
L 646 0 
z
M 1235 2349 
L 1235 4211 
L 1907 4211 
C 2733 4211 3149 4000 3149 3315 
C 3149 2643 2758 2349 1933 2349 
L 1235 2349 
z
" transform="scale(0.015625)"/>
      <path id="NotoSansCJKsc-Regular-66" d="M 211 3002 
L 685 3002 
L 685 0 
L 1267 0 
L 1267 3002 
L 2003 3002 
L 2003 3475 
L 1267 3475 
L 1267 4026 
C 1267 4474 1427 4710 1760 4710 
C 1882 4710 2022 4678 2150 4614 
L 2278 5069 
C 2118 5133 1914 5178 1696 5178 
C 1005 5178 685 4736 685 4032 
L 685 3475 
L 211 3443 
L 211 3002 
z
" transform="scale(0.015625)"/>
      <path id="NotoSansCJKsc-Regular-62" d="M 2118 -83 
C 2912 -83 3629 602 3629 1792 
C 3629 2867 3142 3565 2246 3565 
C 1856 3565 1472 3347 1152 3078 
L 1178 3699 
L 1178 5094 
L 589 5094 
L 589 0 
L 1056 0 
L 1107 358 
L 1133 358 
C 1434 83 1798 -83 2118 -83 
z
M 2022 410 
C 1792 410 1478 499 1178 768 
L 1178 2598 
C 1504 2906 1811 3072 2099 3072 
C 2765 3072 3021 2560 3021 1786 
C 3021 928 2598 410 2022 410 
z
" transform="scale(0.015625)"/>
      <path id="NotoSansCJKsc-Regular-3a" d="M 890 2496 
C 1120 2496 1312 2675 1312 2944 
C 1312 3206 1120 3392 890 3392 
C 653 3392 467 3206 467 2944 
C 467 2675 653 2496 890 2496 
z
M 890 -83 
C 1120 -83 1312 96 1312 358 
C 1312 627 1120 806 890 806 
C 653 806 467 627 467 358 
C 467 96 653 -83 890 -83 
z
" transform="scale(0.015625)"/>
      <path id="NotoSansCJKsc-Regular-79" d="M 646 -1498 
C 1338 -1498 1702 -973 1946 -294 
L 3251 3475 
L 2682 3475 
L 2054 1549 
C 1965 1235 1862 883 1773 563 
L 1741 563 
C 1619 890 1504 1242 1395 1549 
L 691 3475 
L 83 3475 
L 1478 -6 
L 1402 -269 
C 1254 -698 1011 -1018 621 -1018 
C 525 -1018 422 -986 352 -960 
L 237 -1427 
C 346 -1472 486 -1498 646 -1498 
z
" transform="scale(0.015625)"/>
      <path id="NotoSansCJKsc-Regular-46" d="M 646 0 
L 1235 0 
L 1235 2106 
L 3027 2106 
L 3027 2605 
L 1235 2605 
L 1235 4192 
L 3347 4192 
L 3347 4691 
L 646 4691 
L 646 0 
z
" transform="scale(0.015625)"/>
      <path id="NotoSansCJKsc-Regular-3b" d="M 890 2496 
C 1120 2496 1312 2675 1312 2944 
C 1312 3206 1120 3392 890 3392 
C 653 3392 467 3206 467 2944 
C 467 2675 653 2496 890 2496 
z
M 480 -1216 
C 1056 -973 1414 -493 1414 122 
C 1414 550 1229 806 922 806 
C 685 806 480 653 480 397 
C 480 141 678 -13 909 -13 
L 979 -6 
C 973 -390 736 -698 339 -870 
L 480 -1216 
z
" transform="scale(0.015625)"/>
      <path id="NotoSansCJKsc-Regular-53" d="M 1946 -83 
C 2925 -83 3539 506 3539 1248 
C 3539 1946 3117 2266 2573 2502 
L 1907 2790 
C 1542 2944 1126 3117 1126 3578 
C 1126 3994 1472 4256 2003 4256 
C 2438 4256 2784 4090 3072 3821 
L 3379 4198 
C 3053 4538 2560 4774 2003 4774 
C 1152 4774 525 4256 525 3533 
C 525 2848 1043 2515 1478 2330 
L 2150 2035 
C 2598 1837 2938 1683 2938 1197 
C 2938 742 2573 435 1952 435 
C 1466 435 992 666 659 1018 
L 307 608 
C 710 186 1280 -83 1946 -83 
z
" transform="scale(0.015625)"/>
      <path id="NotoSansCJKsc-Regular-41" d="M 26 0 
L 621 0 
L 1075 1434 
L 2790 1434 
L 3238 0 
L 3866 0 
L 2272 4691 
L 1613 4691 
L 26 0 
z
M 1222 1901 
L 1453 2624 
C 1619 3155 1773 3661 1920 4211 
L 1946 4211 
C 2099 3667 2246 3155 2419 2624 
L 2643 1901 
L 1222 1901 
z
" transform="scale(0.015625)"/>
      <path id="NotoSansCJKsc-Regular-2e" d="M 890 -83 
C 1120 -83 1312 96 1312 358 
C 1312 627 1120 806 890 806 
C 653 806 467 627 467 358 
C 467 96 653 -83 890 -83 
z
" transform="scale(0.015625)"/>
     </defs>
     <use xlink:href="#NotoSansCJKsc-Regular-50"/>
     <use xlink:href="#NotoSansCJKsc-Regular-72" transform="translate(63.299988 0)"/>
     <use xlink:href="#NotoSansCJKsc-Regular-6f" transform="translate(102.099976 0)"/>
     <use xlink:href="#NotoSansCJKsc-Regular-6f" transform="translate(162.699966 0)"/>
     <use xlink:href="#NotoSansCJKsc-Regular-66" transform="translate(223.299957 0)"/>
     <use xlink:href="#NotoSansCJKsc-Regular-2d" transform="translate(255.799942 0)"/>
     <use xlink:href="#NotoSansCJKsc-Regular-6f" transform="translate(290.499939 0)"/>
     <use xlink:href="#NotoSansCJKsc-Regular-66" transform="translate(351.09993 0)"/>
     <use xlink:href="#NotoSansCJKsc-Regular-2d" transform="translate(383.599915 0)"/>
     <use xlink:href="#NotoSansCJKsc-Regular-63" transform="translate(418.299911 0)"/>
     <use xlink:href="#NotoSansCJKsc-Regular-6f" transform="translate(469.299896 0)"/>
     <use xlink:href="#NotoSansCJKsc-Regular-6e" transform="translate(529.899887 0)"/>
     <use xlink:href="#NotoSansCJKsc-Regular-63" transform="translate(590.899872 0)"/>
     <use xlink:href="#NotoSansCJKsc-Regular-65" transform="translate(641.899857 0)"/>
     <use xlink:href="#NotoSansCJKsc-Regular-70" transform="translate(697.29985 0)"/>
     <use xlink:href="#NotoSansCJKsc-Regular-74" transform="translate(759.299835 0)"/>
     <use xlink:href="#NotoSansCJKsc-Regular-20" transform="translate(796.999832 0)"/>
     <use xlink:href="#NotoSansCJKsc-Regular-6e" transform="translate(819.399826 0)"/>
     <use xlink:href="#NotoSansCJKsc-Regular-75" transform="translate(880.399811 0)"/>
     <use xlink:href="#NotoSansCJKsc-Regular-6d" transform="translate(941.099808 0)"/>
     <use xlink:href="#NotoSansCJKsc-Regular-62" transform="translate(1033.699799 0)"/>
     <use xlink:href="#NotoSansCJKsc-Regular-65" transform="translate(1095.499786 0)"/>
     <use xlink:href="#NotoSansCJKsc-Regular-72" transform="translate(1150.89978 0)"/>
     <use xlink:href="#NotoSansCJKsc-Regular-73" transform="translate(1189.699768 0)"/>
     <use xlink:href="#NotoSansCJKsc-Regular-20" transform="translate(1236.499756 0)"/>
     <use xlink:href="#NotoSansCJKsc-Regular-69" transform="translate(1258.89975 0)"/>
     <use xlink:href="#NotoSansCJKsc-Regular-6c" transform="translate(1286.399734 0)"/>
     <use xlink:href="#NotoSansCJKsc-Regular-6c" transform="translate(1314.799728 0)"/>
     <use xlink:href="#NotoSansCJKsc-Regular-75" transform="translate(1343.199722 0)"/>
     <use xlink:href="#NotoSansCJKsc-Regular-73" transform="translate(1403.899719 0)"/>
     <use xlink:href="#NotoSansCJKsc-Regular-74" transform="translate(1450.699707 0)"/>
     <use xlink:href="#NotoSansCJKsc-Regular-72" transform="translate(1488.399704 0)"/>
     <use xlink:href="#NotoSansCJKsc-Regular-61" transform="translate(1527.199692 0)"/>
     <use xlink:href="#NotoSansCJKsc-Regular-74" transform="translate(1583.49968 0)"/>
     <use xlink:href="#NotoSansCJKsc-Regular-65" transform="translate(1621.199677 0)"/>
     <use xlink:href="#NotoSansCJKsc-Regular-20" transform="translate(1676.59967 0)"/>
     <use xlink:href="#NotoSansCJKsc-Regular-74" transform="translate(1698.999664 0)"/>
     <use xlink:href="#NotoSansCJKsc-Regular-68" transform="translate(1736.699661 0)"/>
     <use xlink:href="#NotoSansCJKsc-Regular-65" transform="translate(1797.399658 0)"/>
     <use xlink:href="#NotoSansCJKsc-Regular-20" transform="translate(1852.799652 0)"/>
     <use xlink:href="#NotoSansCJKsc-Regular-72" transform="translate(1875.199646 0)"/>
     <use xlink:href="#NotoSansCJKsc-Regular-65" transform="translate(1913.999634 0)"/>
     <use xlink:href="#NotoSansCJKsc-Regular-70" transform="translate(1969.399628 0)"/>
     <use xlink:href="#NotoSansCJKsc-Regular-6f" transform="translate(2031.399612 0)"/>
     <use xlink:href="#NotoSansCJKsc-Regular-72" transform="translate(2091.999603 0)"/>
     <use xlink:href="#NotoSansCJKsc-Regular-74" transform="translate(2130.799591 0)"/>
     <use xlink:href="#NotoSansCJKsc-Regular-65" transform="translate(2168.499588 0)"/>
     <use xlink:href="#NotoSansCJKsc-Regular-64" transform="translate(2223.899582 0)"/>
     <use xlink:href="#NotoSansCJKsc-Regular-20" transform="translate(2285.899567 0)"/>
     <use xlink:href="#NotoSansCJKsc-Regular-74" transform="translate(2308.299561 0)"/>
     <use xlink:href="#NotoSansCJKsc-Regular-72" transform="translate(2345.999557 0)"/>
     <use xlink:href="#NotoSansCJKsc-Regular-65" transform="translate(2384.799545 0)"/>
     <use xlink:href="#NotoSansCJKsc-Regular-6e" transform="translate(2440.199539 0)"/>
     <use xlink:href="#NotoSansCJKsc-Regular-64" transform="translate(2501.199524 0)"/>
     <use xlink:href="#NotoSansCJKsc-Regular-20" transform="translate(2563.199509 0)"/>
     <use xlink:href="#NotoSansCJKsc-Regular-28" transform="translate(2585.599503 0)"/>
     <use xlink:href="#NotoSansCJKsc-Regular-6f" transform="translate(2619.39949 0)"/>
     <use xlink:href="#NotoSansCJKsc-Regular-70" transform="translate(2679.999481 0)"/>
     <use xlink:href="#NotoSansCJKsc-Regular-65" transform="translate(2741.999466 0)"/>
     <use xlink:href="#NotoSansCJKsc-Regular-6e" transform="translate(2797.39946 0)"/>
     <use xlink:href="#NotoSansCJKsc-Regular-2d" transform="translate(2858.399445 0)"/>
     <use xlink:href="#NotoSansCJKsc-Regular-73" transform="translate(2893.099442 0)"/>
     <use xlink:href="#NotoSansCJKsc-Regular-6f" transform="translate(2939.899429 0)"/>
     <use xlink:href="#NotoSansCJKsc-Regular-75" transform="translate(3000.49942 0)"/>
     <use xlink:href="#NotoSansCJKsc-Regular-72" transform="translate(3061.199417 0)"/>
     <use xlink:href="#NotoSansCJKsc-Regular-63" transform="translate(3099.999405 0)"/>
     <use xlink:href="#NotoSansCJKsc-Regular-65" transform="translate(3150.99939 0)"/>
     <use xlink:href="#NotoSansCJKsc-Regular-3a" transform="translate(3206.399384 0)"/>
     <use xlink:href="#NotoSansCJKsc-Regular-20" transform="translate(3234.199371 0)"/>
     <use xlink:href="#NotoSansCJKsc-Regular-54" transform="translate(3256.599365 0)"/>
     <use xlink:href="#NotoSansCJKsc-Regular-72" transform="translate(3316.499359 0)"/>
     <use xlink:href="#NotoSansCJKsc-Regular-69" transform="translate(3355.299347 0)"/>
     <use xlink:href="#NotoSansCJKsc-Regular-6e" transform="translate(3382.799332 0)"/>
     <use xlink:href="#NotoSansCJKsc-Regular-69" transform="translate(3443.799316 0)"/>
     <use xlink:href="#NotoSansCJKsc-Regular-74" transform="translate(3471.299301 0)"/>
     <use xlink:href="#NotoSansCJKsc-Regular-79" transform="translate(3508.999298 0)"/>
     <use xlink:href="#NotoSansCJKsc-Regular-2d" transform="translate(3561.099289 0)"/>
     <use xlink:href="#NotoSansCJKsc-Regular-52" transform="translate(3595.799286 0)"/>
     <use xlink:href="#NotoSansCJKsc-Regular-46" transform="translate(3659.299271 0)"/>
     <use xlink:href="#NotoSansCJKsc-Regular-54" transform="translate(3714.499268 0)"/>
     <use xlink:href="#NotoSansCJKsc-Regular-29" transform="translate(3774.399261 0)"/>
     <use xlink:href="#NotoSansCJKsc-Regular-3b" transform="translate(3808.199249 0)"/>
     <use xlink:href="#NotoSansCJKsc-Regular-20" transform="translate(3835.999237 0)"/>
     <use xlink:href="#NotoSansCJKsc-Regular-70" transform="translate(3858.399231 0)"/>
     <use xlink:href="#NotoSansCJKsc-Regular-61" transform="translate(3920.399216 0)"/>
     <use xlink:href="#NotoSansCJKsc-Regular-70" transform="translate(3976.699203 0)"/>
     <use xlink:href="#NotoSansCJKsc-Regular-65" transform="translate(4038.699188 0)"/>
     <use xlink:href="#NotoSansCJKsc-Regular-72" transform="translate(4094.099182 0)"/>
     <use xlink:href="#NotoSansCJKsc-Regular-20" transform="translate(4132.89917 0)"/>
     <use xlink:href="#NotoSansCJKsc-Regular-72" transform="translate(4155.299164 0)"/>
     <use xlink:href="#NotoSansCJKsc-Regular-65" transform="translate(4194.099152 0)"/>
     <use xlink:href="#NotoSansCJKsc-Regular-70" transform="translate(4249.499146 0)"/>
     <use xlink:href="#NotoSansCJKsc-Regular-6f" transform="translate(4311.49913 0)"/>
     <use xlink:href="#NotoSansCJKsc-Regular-72" transform="translate(4372.099121 0)"/>
     <use xlink:href="#NotoSansCJKsc-Regular-74" transform="translate(4410.899109 0)"/>
     <use xlink:href="#NotoSansCJKsc-Regular-73" transform="translate(4448.599106 0)"/>
     <use xlink:href="#NotoSansCJKsc-Regular-20" transform="translate(4495.399094 0)"/>
     <use xlink:href="#NotoSansCJKsc-Regular-6e" transform="translate(4517.799088 0)"/>
     <use xlink:href="#NotoSansCJKsc-Regular-6f" transform="translate(4578.799072 0)"/>
     <use xlink:href="#NotoSansCJKsc-Regular-20" transform="translate(4639.399063 0)"/>
     <use xlink:href="#NotoSansCJKsc-Regular-73" transform="translate(4661.799057 0)"/>
     <use xlink:href="#NotoSansCJKsc-Regular-74" transform="translate(4708.599045 0)"/>
     <use xlink:href="#NotoSansCJKsc-Regular-61" transform="translate(4746.299042 0)"/>
     <use xlink:href="#NotoSansCJKsc-Regular-6e" transform="translate(4802.59903 0)"/>
     <use xlink:href="#NotoSansCJKsc-Regular-64" transform="translate(4863.599014 0)"/>
     <use xlink:href="#NotoSansCJKsc-Regular-61" transform="translate(4925.598999 0)"/>
     <use xlink:href="#NotoSansCJKsc-Regular-72" transform="translate(4981.898987 0)"/>
     <use xlink:href="#NotoSansCJKsc-Regular-64" transform="translate(5020.698975 0)"/>
     <use xlink:href="#NotoSansCJKsc-Regular-20" transform="translate(5082.698959 0)"/>
     <use xlink:href="#NotoSansCJKsc-Regular-53" transform="translate(5105.098953 0)"/>
     <use xlink:href="#NotoSansCJKsc-Regular-4f" transform="translate(5164.698944 0)"/>
     <use xlink:href="#NotoSansCJKsc-Regular-54" transform="translate(5238.898926 0)"/>
     <use xlink:href="#NotoSansCJKsc-Regular-41" transform="translate(5298.79892 0)"/>
     <use xlink:href="#NotoSansCJKsc-Regular-20" transform="translate(5359.598907 0)"/>
     <use xlink:href="#NotoSansCJKsc-Regular-74" transform="translate(5381.998901 0)"/>
     <use xlink:href="#NotoSansCJKsc-Regular-61" transform="translate(5419.698898 0)"/>
     <use xlink:href="#NotoSansCJKsc-Regular-62" transform="translate(5475.998886 0)"/>
     <use xlink:href="#NotoSansCJKsc-Regular-6c" transform="translate(5537.798874 0)"/>
     <use xlink:href="#NotoSansCJKsc-Regular-65" transform="translate(5566.198868 0)"/>
     <use xlink:href="#NotoSansCJKsc-Regular-2e" transform="translate(5621.598862 0)"/>
    </g>
   </g>
   <g id="text_18">
    <!-- Gains hold within, across domains, and transferring to Ralph-loop -->
    <g style="fill: #475569" transform="translate(247.937641 69.372) scale(0.11 -0.11)">
     <defs>
      <path id="NotoSansCJKsc-Regular-47" d="M 2490 -83 
C 3117 -83 3635 147 3936 461 
L 3936 2432 
L 2394 2432 
L 2394 1939 
L 3392 1939 
L 3392 710 
C 3206 538 2880 435 2547 435 
C 1542 435 979 1178 979 2362 
C 979 3533 1594 4256 2541 4256 
C 3008 4256 3315 4058 3552 3814 
L 3872 4198 
C 3603 4480 3174 4774 2522 4774 
C 1280 4774 371 3859 371 2342 
C 371 819 1254 -83 2490 -83 
z
" transform="scale(0.015625)"/>
      <path id="NotoSansCJKsc-Regular-77" d="M 1139 0 
L 1818 0 
L 2310 1862 
C 2400 2195 2470 2522 2547 2874 
L 2579 2874 
C 2662 2522 2726 2202 2816 1875 
L 3315 0 
L 4026 0 
L 4966 3475 
L 4403 3475 
L 3898 1466 
C 3821 1133 3757 819 3686 499 
L 3654 499 
C 3571 819 3494 1133 3411 1466 
L 2867 3475 
L 2298 3475 
L 1754 1466 
C 1670 1133 1594 819 1523 499 
L 1491 499 
C 1421 819 1357 1133 1286 1466 
L 768 3475 
L 173 3475 
L 1139 0 
z
" transform="scale(0.015625)"/>
      <path id="NotoSansCJKsc-Regular-67" d="M 1760 -1600 
C 2835 -1600 3520 -1043 3520 -397 
C 3520 179 3110 429 2310 429 
L 1626 429 
C 1158 429 1018 589 1018 806 
C 1018 998 1114 1114 1242 1222 
C 1395 1146 1587 1101 1754 1101 
C 2470 1101 3027 1568 3027 2310 
C 3027 2611 2912 2867 2746 3027 
L 3456 3027 
L 3456 3475 
L 2246 3475 
C 2125 3526 1952 3565 1754 3565 
C 1056 3565 454 3085 454 2323 
C 454 1907 678 1568 909 1389 
L 909 1363 
C 723 1235 525 1005 525 717 
C 525 442 659 256 838 147 
L 838 115 
C 512 -83 326 -371 326 -672 
C 326 -1267 915 -1600 1760 -1600 
z
M 1754 1498 
C 1357 1498 1018 1818 1018 2323 
C 1018 2835 1350 3136 1754 3136 
C 2170 3136 2496 2835 2496 2323 
C 2496 1818 2157 1498 1754 1498 
z
M 1843 -1197 
C 1210 -1197 838 -960 838 -589 
C 838 -390 941 -179 1190 0 
C 1344 -38 1510 -51 1638 -51 
L 2240 -51 
C 2701 -51 2944 -166 2944 -493 
C 2944 -851 2515 -1197 1843 -1197 
z
" transform="scale(0.015625)"/>
     </defs>
     <use xlink:href="#NotoSansCJKsc-Regular-47"/>
     <use xlink:href="#NotoSansCJKsc-Regular-61" transform="translate(68.899994 0)"/>
     <use xlink:href="#NotoSansCJKsc-Regular-69" transform="translate(125.199982 0)"/>
     <use xlink:href="#NotoSansCJKsc-Regular-6e" transform="translate(152.699966 0)"/>
     <use xlink:href="#NotoSansCJKsc-Regular-73" transform="translate(213.699951 0)"/>
     <use xlink:href="#NotoSansCJKsc-Regular-20" transform="translate(260.499939 0)"/>
     <use xlink:href="#NotoSansCJKsc-Regular-68" transform="translate(282.899933 0)"/>
     <use xlink:href="#NotoSansCJKsc-Regular-6f" transform="translate(343.59993 0)"/>
     <use xlink:href="#NotoSansCJKsc-Regular-6c" transform="translate(404.199921 0)"/>
     <use xlink:href="#NotoSansCJKsc-Regular-64" transform="translate(432.599915 0)"/>
     <use xlink:href="#NotoSansCJKsc-Regular-20" transform="translate(494.599899 0)"/>
     <use xlink:href="#NotoSansCJKsc-Regular-77" transform="translate(516.999893 0)"/>
     <use xlink:href="#NotoSansCJKsc-Regular-69" transform="translate(597.199875 0)"/>
     <use xlink:href="#NotoSansCJKsc-Regular-74" transform="translate(624.69986 0)"/>
     <use xlink:href="#NotoSansCJKsc-Regular-68" transform="translate(662.399857 0)"/>
     <use xlink:href="#NotoSansCJKsc-Regular-69" transform="translate(723.099854 0)"/>
     <use xlink:href="#NotoSansCJKsc-Regular-6e" transform="translate(750.599838 0)"/>
     <use xlink:href="#NotoSansCJKsc-Regular-2c" transform="translate(811.599823 0)"/>
     <use xlink:href="#NotoSansCJKsc-Regular-20" transform="translate(839.399811 0)"/>
     <use xlink:href="#NotoSansCJKsc-Regular-61" transform="translate(861.799805 0)"/>
     <use xlink:href="#NotoSansCJKsc-Regular-63" transform="translate(918.099792 0)"/>
     <use xlink:href="#NotoSansCJKsc-Regular-72" transform="translate(969.099777 0)"/>
     <use xlink:href="#NotoSansCJKsc-Regular-6f" transform="translate(1007.899765 0)"/>
     <use xlink:href="#NotoSansCJKsc-Regular-73" transform="translate(1068.499756 0)"/>
     <use xlink:href="#NotoSansCJKsc-Regular-73" transform="translate(1115.299744 0)"/>
     <use xlink:href="#NotoSansCJKsc-Regular-20" transform="translate(1162.099731 0)"/>
     <use xlink:href="#NotoSansCJKsc-Regular-64" transform="translate(1184.499725 0)"/>
     <use xlink:href="#NotoSansCJKsc-Regular-6f" transform="translate(1246.49971 0)"/>
     <use xlink:href="#NotoSansCJKsc-Regular-6d" transform="translate(1307.099701 0)"/>
     <use xlink:href="#NotoSansCJKsc-Regular-61" transform="translate(1399.699692 0)"/>
     <use xlink:href="#NotoSansCJKsc-Regular-69" transform="translate(1455.99968 0)"/>
     <use xlink:href="#NotoSansCJKsc-Regular-6e" transform="translate(1483.499664 0)"/>
     <use xlink:href="#NotoSansCJKsc-Regular-73" transform="translate(1544.499649 0)"/>
     <use xlink:href="#NotoSansCJKsc-Regular-2c" transform="translate(1591.299637 0)"/>
     <use xlink:href="#NotoSansCJKsc-Regular-20" transform="translate(1619.099625 0)"/>
     <use xlink:href="#NotoSansCJKsc-Regular-61" transform="translate(1641.499619 0)"/>
     <use xlink:href="#NotoSansCJKsc-Regular-6e" transform="translate(1697.799606 0)"/>
     <use xlink:href="#NotoSansCJKsc-Regular-64" transform="translate(1758.799591 0)"/>
     <use xlink:href="#NotoSansCJKsc-Regular-20" transform="translate(1820.799576 0)"/>
     <use xlink:href="#NotoSansCJKsc-Regular-74" transform="translate(1843.19957 0)"/>
     <use xlink:href="#NotoSansCJKsc-Regular-72" transform="translate(1880.899567 0)"/>
     <use xlink:href="#NotoSansCJKsc-Regular-61" transform="translate(1919.699554 0)"/>
     <use xlink:href="#NotoSansCJKsc-Regular-6e" transform="translate(1975.999542 0)"/>
     <use xlink:href="#NotoSansCJKsc-Regular-73" transform="translate(2036.999527 0)"/>
     <use xlink:href="#NotoSansCJKsc-Regular-66" transform="translate(2083.799515 0)"/>
     <use xlink:href="#NotoSansCJKsc-Regular-65" transform="translate(2116.2995 0)"/>
     <use xlink:href="#NotoSansCJKsc-Regular-72" transform="translate(2171.699493 0)"/>
     <use xlink:href="#NotoSansCJKsc-Regular-72" transform="translate(2210.499481 0)"/>
     <use xlink:href="#NotoSansCJKsc-Regular-69" transform="translate(2249.299469 0)"/>
     <use xlink:href="#NotoSansCJKsc-Regular-6e" transform="translate(2276.799454 0)"/>
     <use xlink:href="#NotoSansCJKsc-Regular-67" transform="translate(2337.799438 0)"/>
     <use xlink:href="#NotoSansCJKsc-Regular-20" transform="translate(2394.199432 0)"/>
     <use xlink:href="#NotoSansCJKsc-Regular-74" transform="translate(2416.599426 0)"/>
     <use xlink:href="#NotoSansCJKsc-Regular-6f" transform="translate(2454.299423 0)"/>
     <use xlink:href="#NotoSansCJKsc-Regular-20" transform="translate(2514.899414 0)"/>
     <use xlink:href="#NotoSansCJKsc-Regular-52" transform="translate(2537.299408 0)"/>
     <use xlink:href="#NotoSansCJKsc-Regular-61" transform="translate(2600.799393 0)"/>
     <use xlink:href="#NotoSansCJKsc-Regular-6c" transform="translate(2657.09938 0)"/>
     <use xlink:href="#NotoSansCJKsc-Regular-70" transform="translate(2685.499374 0)"/>
     <use xlink:href="#NotoSansCJKsc-Regular-68" transform="translate(2747.499359 0)"/>
     <use xlink:href="#NotoSansCJKsc-Regular-2d" transform="translate(2808.199356 0)"/>
     <use xlink:href="#NotoSansCJKsc-Regular-6c" transform="translate(2842.899353 0)"/>
     <use xlink:href="#NotoSansCJKsc-Regular-6f" transform="translate(2871.299347 0)"/>
     <use xlink:href="#NotoSansCJKsc-Regular-6f" transform="translate(2931.899338 0)"/>
     <use xlink:href="#NotoSansCJKsc-Regular-70" transform="translate(2992.499329 0)"/>
    </g>
   </g>
   <g id="legend_1">
    <g id="patch_11">
     <path d="M 644.099203 91.483406 
L 663.099203 91.483406 
L 663.099203 84.833406 
L 644.099203 84.833406 
z
" style="fill: #94a3b8"/>
    </g>
    <g id="text_19">
     <!-- Fixed context (no CoD) -->
     <g style="fill: #0f172a" transform="translate(670.699203 91.483406) scale(0.095 -0.095)">
      <defs>
       <path id="NotoSansCJKsc-Regular-78" d="M 96 0 
L 710 0 
L 1178 813 
C 1299 1024 1408 1235 1530 1434 
L 1562 1434 
C 1696 1235 1824 1024 1939 813 
L 2451 0 
L 3091 0 
L 1946 1754 
L 3002 3475 
L 2394 3475 
L 1965 2714 
C 1856 2515 1760 2330 1658 2131 
L 1626 2131 
C 1510 2330 1389 2515 1286 2714 
L 819 3475 
L 186 3475 
L 1242 1811 
L 96 0 
z
" transform="scale(0.015625)"/>
      </defs>
      <use xlink:href="#NotoSansCJKsc-Regular-46"/>
      <use xlink:href="#NotoSansCJKsc-Regular-69" transform="translate(55.199997 0)"/>
      <use xlink:href="#NotoSansCJKsc-Regular-78" transform="translate(82.699982 0)"/>
      <use xlink:href="#NotoSansCJKsc-Regular-65" transform="translate(132.499969 0)"/>
      <use xlink:href="#NotoSansCJKsc-Regular-64" transform="translate(187.899963 0)"/>
      <use xlink:href="#NotoSansCJKsc-Regular-20" transform="translate(249.899948 0)"/>
      <use xlink:href="#NotoSansCJKsc-Regular-63" transform="translate(272.299942 0)"/>
      <use xlink:href="#NotoSansCJKsc-Regular-6f" transform="translate(323.299927 0)"/>
      <use xlink:href="#NotoSansCJKsc-Regular-6e" transform="translate(383.899918 0)"/>
      <use xlink:href="#NotoSansCJKsc-Regular-74" transform="translate(444.899902 0)"/>
      <use xlink:href="#NotoSansCJKsc-Regular-65" transform="translate(482.599899 0)"/>
      <use xlink:href="#NotoSansCJKsc-Regular-78" transform="translate(537.999893 0)"/>
      <use xlink:href="#NotoSansCJKsc-Regular-74" transform="translate(587.799881 0)"/>
      <use xlink:href="#NotoSansCJKsc-Regular-20" transform="translate(625.499878 0)"/>
      <use xlink:href="#NotoSansCJKsc-Regular-28" transform="translate(647.899872 0)"/>
      <use xlink:href="#NotoSansCJKsc-Regular-6e" transform="translate(681.69986 0)"/>
      <use xlink:href="#NotoSansCJKsc-Regular-6f" transform="translate(742.699844 0)"/>
      <use xlink:href="#NotoSansCJKsc-Regular-20" transform="translate(803.299835 0)"/>
      <use xlink:href="#NotoSansCJKsc-Regular-43" transform="translate(825.699829 0)"/>
      <use xlink:href="#NotoSansCJKsc-Regular-6f" transform="translate(889.499817 0)"/>
      <use xlink:href="#NotoSansCJKsc-Regular-44" transform="translate(950.099808 0)"/>
      <use xlink:href="#NotoSansCJKsc-Regular-29" transform="translate(1018.899796 0)"/>
     </g>
    </g>
    <g id="patch_12">
     <path d="M 644.099203 106.180203 
L 663.099203 106.180203 
L 663.099203 99.530203 
L 644.099203 99.530203 
z
" style="fill: #7c3aed"/>
    </g>
    <g id="text_20">
     <!-- CoD (self-updating) -->
     <g style="fill: #0f172a" transform="translate(670.699203 106.180203) scale(0.095 -0.095)">
      <use xlink:href="#NotoSansCJKsc-Regular-43"/>
      <use xlink:href="#NotoSansCJKsc-Regular-6f" transform="translate(63.799988 0)"/>
      <use xlink:href="#NotoSansCJKsc-Regular-44" transform="translate(124.399979 0)"/>
      <use xlink:href="#NotoSansCJKsc-Regular-20" transform="translate(193.199966 0)"/>
      <use xlink:href="#NotoSansCJKsc-Regular-28" transform="translate(215.59996 0)"/>
      <use xlink:href="#NotoSansCJKsc-Regular-73" transform="translate(249.399948 0)"/>
      <use xlink:href="#NotoSansCJKsc-Regular-65" transform="translate(296.199936 0)"/>
      <use xlink:href="#NotoSansCJKsc-Regular-6c" transform="translate(351.59993 0)"/>
      <use xlink:href="#NotoSansCJKsc-Regular-66" transform="translate(379.999924 0)"/>
      <use xlink:href="#NotoSansCJKsc-Regular-2d" transform="translate(412.499908 0)"/>
      <use xlink:href="#NotoSansCJKsc-Regular-75" transform="translate(447.199905 0)"/>
      <use xlink:href="#NotoSansCJKsc-Regular-70" transform="translate(507.899902 0)"/>
      <use xlink:href="#NotoSansCJKsc-Regular-64" transform="translate(569.899887 0)"/>
      <use xlink:href="#NotoSansCJKsc-Regular-61" transform="translate(631.899872 0)"/>
      <use xlink:href="#NotoSansCJKsc-Regular-74" transform="translate(688.19986 0)"/>
      <use xlink:href="#NotoSansCJKsc-Regular-69" transform="translate(725.899857 0)"/>
      <use xlink:href="#NotoSansCJKsc-Regular-6e" transform="translate(753.399841 0)"/>
      <use xlink:href="#NotoSansCJKsc-Regular-67" transform="translate(814.399826 0)"/>
      <use xlink:href="#NotoSansCJKsc-Regular-29" transform="translate(870.79982 0)"/>
     </g>
    </g>
   </g>
  </g>
  <g id="text_21">
   <!-- CoD — proof-of-concept: experience-updated context drives OOD generalization -->
   <g style="fill: #0f172a" transform="translate(8.64 19.602422) scale(0.135 -0.135)">
    <defs>
     <path id="NotoSansCJKsc-Bold-43" d="M 2509 -90 
C 3130 -90 3635 154 4026 608 
L 3520 1197 
C 3270 922 2957 730 2547 730 
C 1798 730 1318 1350 1318 2381 
C 1318 3398 1850 4013 2566 4013 
C 2925 4013 3200 3846 3443 3616 
L 3936 4218 
C 3629 4538 3155 4826 2547 4826 
C 1350 4826 346 3910 346 2349 
C 346 768 1318 -90 2509 -90 
z
" transform="scale(0.015625)"/>
     <path id="NotoSansCJKsc-Bold-6f" d="M 2003 -90 
C 2899 -90 3725 602 3725 1792 
C 3725 2982 2899 3674 2003 3674 
C 1101 3674 282 2982 282 1792 
C 282 602 1101 -90 2003 -90 
z
M 2003 678 
C 1510 678 1242 1114 1242 1792 
C 1242 2464 1510 2906 2003 2906 
C 2490 2906 2765 2464 2765 1792 
C 2765 1114 2490 678 2003 678 
z
" transform="scale(0.015625)"/>
     <path id="NotoSansCJKsc-Bold-44" d="M 582 0 
L 1933 0 
C 3334 0 4224 794 4224 2394 
C 4224 3987 3334 4742 1882 4742 
L 582 4742 
L 582 0 
z
M 1530 768 
L 1530 3981 
L 1818 3981 
C 2707 3981 3258 3546 3258 2394 
C 3258 1242 2707 768 1818 768 
L 1530 768 
z
" transform="scale(0.015625)"/>
     <path id="NotoSansCJKsc-Bold-20" transform="scale(0.015625)"/>
     <path id="NotoSansCJKsc-Bold-2014" d="M 314 1536 
L 5498 1536 
L 5498 2138 
L 314 2138 
L 314 1536 
z
" transform="scale(0.015625)"/>
     <path id="NotoSansCJKsc-Bold-70" d="M 506 -1376 
L 1446 -1376 
L 1446 -282 
L 1414 301 
C 1683 51 1990 -90 2304 -90 
C 3091 -90 3827 621 3827 1850 
C 3827 2950 3296 3674 2419 3674 
C 2029 3674 1664 3469 1363 3213 
L 1344 3213 
L 1274 3584 
L 506 3584 
L 506 -1376 
z
M 2099 685 
C 1901 685 1677 755 1446 954 
L 1446 2534 
C 1690 2778 1907 2899 2150 2899 
C 2643 2899 2861 2522 2861 1837 
C 2861 1056 2522 685 2099 685 
z
" transform="scale(0.015625)"/>
     <path id="NotoSansCJKsc-Bold-72" d="M 506 0 
L 1446 0 
L 1446 2138 
C 1651 2656 1984 2842 2259 2842 
C 2413 2842 2515 2822 2643 2784 
L 2797 3597 
C 2694 3642 2579 3674 2381 3674 
C 2010 3674 1626 3418 1363 2950 
L 1344 2950 
L 1274 3584 
L 506 3584 
L 506 0 
z
" transform="scale(0.015625)"/>
     <path id="NotoSansCJKsc-Bold-66" d="M 179 2842 
L 666 2842 
L 666 0 
L 1600 0 
L 1600 2842 
L 2285 2842 
L 2285 3584 
L 1600 3584 
L 1600 3891 
C 1600 4288 1760 4454 2035 4454 
C 2163 4454 2298 4429 2419 4371 
L 2592 5075 
C 2432 5139 2189 5197 1907 5197 
C 1011 5197 666 4614 666 3872 
L 666 3578 
L 179 3539 
L 179 2842 
z
" transform="scale(0.015625)"/>
     <path id="NotoSansCJKsc-Bold-2d" d="M 314 1491 
L 2061 1491 
L 2061 2170 
L 314 2170 
L 314 1491 
z
" transform="scale(0.015625)"/>
     <path id="NotoSansCJKsc-Bold-63" d="M 2029 -90 
C 2426 -90 2861 45 3200 346 
L 2829 966 
C 2630 800 2394 678 2131 678 
C 1613 678 1242 1114 1242 1792 
C 1242 2464 1613 2906 2163 2906 
C 2362 2906 2528 2822 2707 2675 
L 3155 3270 
C 2893 3507 2554 3674 2112 3674 
C 1139 3674 282 2982 282 1792 
C 282 602 1043 -90 2029 -90 
z
" transform="scale(0.015625)"/>
     <path id="NotoSansCJKsc-Bold-6e" d="M 506 0 
L 1446 0 
L 1446 2464 
C 1709 2726 1901 2867 2189 2867 
C 2541 2867 2694 2675 2694 2118 
L 2694 0 
L 3635 0 
L 3635 2234 
C 3635 3136 3302 3674 2528 3674 
C 2042 3674 1677 3418 1363 3110 
L 1344 3110 
L 1274 3584 
L 506 3584 
L 506 0 
z
" transform="scale(0.015625)"/>
     <path id="NotoSansCJKsc-Bold-65" d="M 2067 -90 
C 2509 -90 2963 64 3315 307 
L 2995 883 
C 2733 723 2483 640 2195 640 
C 1658 640 1274 941 1197 1523 
L 3405 1523 
C 3430 1613 3450 1786 3450 1958 
C 3450 2957 2938 3674 1952 3674 
C 1101 3674 282 2950 282 1792 
C 282 608 1062 -90 2067 -90 
z
M 1178 2157 
C 1254 2675 1587 2944 1965 2944 
C 2432 2944 2643 2637 2643 2157 
L 1178 2157 
z
" transform="scale(0.015625)"/>
     <path id="NotoSansCJKsc-Bold-74" d="M 1818 -90 
C 2131 -90 2381 -13 2579 45 
L 2419 730 
C 2323 691 2182 653 2067 653 
C 1747 653 1574 845 1574 1254 
L 1574 2842 
L 2464 2842 
L 2464 3584 
L 1574 3584 
L 1574 4550 
L 800 4550 
L 691 3584 
L 134 3539 
L 134 2842 
L 640 2842 
L 640 1248 
C 640 454 966 -90 1818 -90 
z
" transform="scale(0.015625)"/>
     <path id="NotoSansCJKsc-Bold-3a" d="M 1043 2342 
C 1376 2342 1626 2605 1626 2950 
C 1626 3302 1376 3565 1043 3565 
C 704 3565 454 3302 454 2950 
C 454 2605 704 2342 1043 2342 
z
M 1043 -90 
C 1376 -90 1626 179 1626 525 
C 1626 877 1376 1139 1043 1139 
C 704 1139 454 877 454 525 
C 454 179 704 -90 1043 -90 
z
" transform="scale(0.015625)"/>
     <path id="NotoSansCJKsc-Bold-78" d="M 102 0 
L 1082 0 
L 1408 659 
C 1510 870 1606 1082 1709 1280 
L 1741 1280 
C 1856 1082 1978 870 2086 659 
L 2483 0 
L 3494 0 
L 2374 1760 
L 3424 3584 
L 2451 3584 
L 2150 2950 
C 2067 2746 1971 2541 1888 2342 
L 1862 2342 
C 1754 2541 1645 2746 1542 2950 
L 1184 3584 
L 173 3584 
L 1222 1862 
L 102 0 
z
" transform="scale(0.015625)"/>
     <path id="NotoSansCJKsc-Bold-69" d="M 506 0 
L 1446 0 
L 1446 3584 
L 506 3584 
L 506 0 
z
M 979 4166 
C 1299 4166 1523 4365 1523 4678 
C 1523 4986 1299 5190 979 5190 
C 646 5190 435 4986 435 4678 
C 435 4365 646 4166 979 4166 
z
" transform="scale(0.015625)"/>
     <path id="NotoSansCJKsc-Bold-75" d="M 1574 -90 
C 2067 -90 2406 154 2714 518 
L 2739 518 
L 2810 0 
L 3578 0 
L 3578 3584 
L 2637 3584 
L 2637 1165 
C 2394 845 2202 717 1914 717 
C 1562 717 1402 909 1402 1466 
L 1402 3584 
L 467 3584 
L 467 1350 
C 467 448 800 -90 1574 -90 
z
" transform="scale(0.015625)"/>
     <path id="NotoSansCJKsc-Bold-64" d="M 1766 -90 
C 2138 -90 2496 109 2758 371 
L 2784 371 
L 2854 0 
L 3622 0 
L 3622 5107 
L 2682 5107 
L 2682 3846 
L 2714 3283 
C 2458 3520 2208 3674 1805 3674 
C 1037 3674 301 2957 301 1792 
C 301 614 870 -90 1766 -90 
z
M 2010 685 
C 1536 685 1267 1056 1267 1805 
C 1267 2515 1606 2899 2010 2899 
C 2240 2899 2464 2829 2682 2630 
L 2682 1056 
C 2477 787 2259 685 2010 685 
z
" transform="scale(0.015625)"/>
     <path id="NotoSansCJKsc-Bold-61" d="M 1382 -90 
C 1798 -90 2157 109 2464 384 
L 2496 384 
L 2560 0 
L 3328 0 
L 3328 2093 
C 3328 3130 2861 3674 1952 3674 
C 1389 3674 877 3456 461 3200 
L 794 2573 
C 1126 2771 1446 2918 1779 2918 
C 2221 2918 2374 2650 2387 2298 
C 947 2144 326 1741 326 979 
C 326 365 742 -90 1382 -90 
z
M 1696 646 
C 1421 646 1222 768 1222 1050 
C 1222 1376 1510 1613 2387 1715 
L 2387 998 
C 2163 774 1965 646 1696 646 
z
" transform="scale(0.015625)"/>
     <path id="NotoSansCJKsc-Bold-76" d="M 1312 0 
L 2400 0 
L 3597 3584 
L 2694 3584 
L 2170 1798 
C 2074 1446 1978 1075 1882 710 
L 1850 710 
C 1747 1075 1658 1446 1555 1798 
L 1037 3584 
L 90 3584 
L 1312 0 
z
" transform="scale(0.015625)"/>
     <path id="NotoSansCJKsc-Bold-73" d="M 1530 -90 
C 2458 -90 2957 410 2957 1043 
C 2957 1702 2432 1946 1958 2125 
C 1574 2266 1248 2362 1248 2624 
C 1248 2829 1402 2970 1728 2970 
C 1990 2970 2240 2842 2496 2662 
L 2918 3232 
C 2624 3462 2221 3674 1702 3674 
C 883 3674 365 3219 365 2579 
C 365 1978 870 1702 1325 1530 
C 1702 1382 2074 1261 2074 992 
C 2074 768 1914 614 1555 614 
C 1216 614 915 762 595 1005 
L 166 410 
C 525 115 1050 -90 1530 -90 
z
" transform="scale(0.015625)"/>
     <path id="NotoSansCJKsc-Bold-4f" d="M 2464 -90 
C 3718 -90 4582 851 4582 2394 
C 4582 3930 3718 4826 2464 4826 
C 1210 4826 346 3930 346 2394 
C 346 851 1210 -90 2464 -90 
z
M 2464 730 
C 1760 730 1318 1382 1318 2394 
C 1318 3405 1760 4013 2464 4013 
C 3168 4013 3616 3405 3616 2394 
C 3616 1382 3168 730 2464 730 
z
" transform="scale(0.015625)"/>
     <path id="NotoSansCJKsc-Bold-67" d="M 1766 -1555 
C 2963 -1555 3718 -1005 3718 -282 
C 3718 346 3245 614 2381 614 
L 1766 614 
C 1350 614 1203 717 1203 902 
C 1203 1056 1267 1133 1357 1216 
C 1517 1158 1683 1133 1818 1133 
C 2592 1133 3206 1536 3206 2349 
C 3206 2573 3136 2771 3046 2893 
L 3654 2893 
L 3654 3584 
L 2368 3584 
C 2214 3635 2029 3674 1818 3674 
C 1062 3674 378 3219 378 2381 
C 378 1958 608 1619 858 1440 
L 858 1414 
C 640 1261 461 1011 461 749 
C 461 448 595 262 787 141 
L 787 109 
C 448 -77 275 -333 275 -634 
C 275 -1267 922 -1555 1766 -1555 
z
M 1818 1715 
C 1510 1715 1261 1952 1261 2381 
C 1261 2797 1504 3027 1818 3027 
C 2138 3027 2387 2797 2387 2381 
C 2387 1952 2138 1715 1818 1715 
z
M 1907 -954 
C 1389 -954 1056 -787 1056 -493 
C 1056 -339 1126 -198 1286 -70 
C 1421 -102 1568 -115 1779 -115 
L 2221 -115 
C 2605 -115 2816 -186 2816 -442 
C 2816 -717 2451 -954 1907 -954 
z
" transform="scale(0.015625)"/>
     <path id="NotoSansCJKsc-Bold-6c" d="M 1395 -90 
C 1613 -90 1766 -51 1875 -6 
L 1760 691 
C 1696 678 1670 678 1632 678 
C 1542 678 1446 749 1446 966 
L 1446 5107 
L 506 5107 
L 506 1005 
C 506 339 736 -90 1395 -90 
z
" transform="scale(0.015625)"/>
     <path id="NotoSansCJKsc-Bold-7a" d="M 262 0 
L 3098 0 
L 3098 742 
L 1434 742 
L 3040 3078 
L 3040 3584 
L 442 3584 
L 442 2842 
L 1869 2842 
L 262 499 
L 262 0 
z
" transform="scale(0.015625)"/>
    </defs>
    <use xlink:href="#NotoSansCJKsc-Bold-43"/>
    <use xlink:href="#NotoSansCJKsc-Bold-6f" transform="translate(65.599991 0)"/>
    <use xlink:href="#NotoSansCJKsc-Bold-44" transform="translate(128.199982 0)"/>
    <use xlink:href="#NotoSansCJKsc-Bold-20" transform="translate(199.599976 0)"/>
    <use xlink:href="#NotoSansCJKsc-Bold-2014" transform="translate(222.299973 0)"/>
    <use xlink:href="#NotoSansCJKsc-Bold-20" transform="translate(313.09996 0)"/>
    <use xlink:href="#NotoSansCJKsc-Bold-70" transform="translate(335.799957 0)"/>
    <use xlink:href="#NotoSansCJKsc-Bold-72" transform="translate(400.199951 0)"/>
    <use xlink:href="#NotoSansCJKsc-Bold-6f" transform="translate(443.799942 0)"/>
    <use xlink:href="#NotoSansCJKsc-Bold-6f" transform="translate(506.399933 0)"/>
    <use xlink:href="#NotoSansCJKsc-Bold-66" transform="translate(568.999924 0)"/>
    <use xlink:href="#NotoSansCJKsc-Bold-2d" transform="translate(606.199921 0)"/>
    <use xlink:href="#NotoSansCJKsc-Bold-6f" transform="translate(643.199905 0)"/>
    <use xlink:href="#NotoSansCJKsc-Bold-66" transform="translate(705.799896 0)"/>
    <use xlink:href="#NotoSansCJKsc-Bold-2d" transform="translate(742.999893 0)"/>
    <use xlink:href="#NotoSansCJKsc-Bold-63" transform="translate(779.999878 0)"/>
    <use xlink:href="#NotoSansCJKsc-Bold-6f" transform="translate(832.699875 0)"/>
    <use xlink:href="#NotoSansCJKsc-Bold-6e" transform="translate(895.299866 0)"/>
    <use xlink:href="#NotoSansCJKsc-Bold-63" transform="translate(959.399857 0)"/>
    <use xlink:href="#NotoSansCJKsc-Bold-65" transform="translate(1012.099854 0)"/>
    <use xlink:href="#NotoSansCJKsc-Bold-70" transform="translate(1070.199844 0)"/>
    <use xlink:href="#NotoSansCJKsc-Bold-74" transform="translate(1134.599838 0)"/>
    <use xlink:href="#NotoSansCJKsc-Bold-3a" transform="translate(1176.699829 0)"/>
    <use xlink:href="#NotoSansCJKsc-Bold-20" transform="translate(1209.199814 0)"/>
    <use xlink:href="#NotoSansCJKsc-Bold-65" transform="translate(1231.899811 0)"/>
    <use xlink:href="#NotoSansCJKsc-Bold-78" transform="translate(1289.999802 0)"/>
    <use xlink:href="#NotoSansCJKsc-Bold-70" transform="translate(1346.199799 0)"/>
    <use xlink:href="#NotoSansCJKsc-Bold-65" transform="translate(1410.599792 0)"/>
    <use xlink:href="#NotoSansCJKsc-Bold-72" transform="translate(1468.699783 0)"/>
    <use xlink:href="#NotoSansCJKsc-Bold-69" transform="translate(1512.299774 0)"/>
    <use xlink:href="#NotoSansCJKsc-Bold-65" transform="translate(1542.699768 0)"/>
    <use xlink:href="#NotoSansCJKsc-Bold-6e" transform="translate(1600.799759 0)"/>
    <use xlink:href="#NotoSansCJKsc-Bold-63" transform="translate(1664.89975 0)"/>
    <use xlink:href="#NotoSansCJKsc-Bold-65" transform="translate(1717.599747 0)"/>
    <use xlink:href="#NotoSansCJKsc-Bold-2d" transform="translate(1775.699738 0)"/>
    <use xlink:href="#NotoSansCJKsc-Bold-75" transform="translate(1812.699722 0)"/>
    <use xlink:href="#NotoSansCJKsc-Bold-70" transform="translate(1876.399719 0)"/>
    <use xlink:href="#NotoSansCJKsc-Bold-64" transform="translate(1940.799713 0)"/>
    <use xlink:href="#NotoSansCJKsc-Bold-61" transform="translate(2005.199707 0)"/>
    <use xlink:href="#NotoSansCJKsc-Bold-74" transform="translate(2064.299698 0)"/>
    <use xlink:href="#NotoSansCJKsc-Bold-65" transform="translate(2106.399689 0)"/>
    <use xlink:href="#NotoSansCJKsc-Bold-64" transform="translate(2164.49968 0)"/>
    <use xlink:href="#NotoSansCJKsc-Bold-20" transform="translate(2228.899673 0)"/>
    <use xlink:href="#NotoSansCJKsc-Bold-63" transform="translate(2251.59967 0)"/>
    <use xlink:href="#NotoSansCJKsc-Bold-6f" transform="translate(2304.299667 0)"/>
    <use xlink:href="#NotoSansCJKsc-Bold-6e" transform="translate(2366.899658 0)"/>
    <use xlink:href="#NotoSansCJKsc-Bold-74" transform="translate(2430.999649 0)"/>
    <use xlink:href="#NotoSansCJKsc-Bold-65" transform="translate(2473.09964 0)"/>
    <use xlink:href="#NotoSansCJKsc-Bold-78" transform="translate(2531.199631 0)"/>
    <use xlink:href="#NotoSansCJKsc-Bold-74" transform="translate(2587.399628 0)"/>
    <use xlink:href="#NotoSansCJKsc-Bold-20" transform="translate(2629.499619 0)"/>
    <use xlink:href="#NotoSansCJKsc-Bold-64" transform="translate(2652.199615 0)"/>
    <use xlink:href="#NotoSansCJKsc-Bold-72" transform="translate(2716.599609 0)"/>
    <use xlink:href="#NotoSansCJKsc-Bold-69" transform="translate(2760.1996 0)"/>
    <use xlink:href="#NotoSansCJKsc-Bold-76" transform="translate(2790.599594 0)"/>
    <use xlink:href="#NotoSansCJKsc-Bold-65" transform="translate(2848.199585 0)"/>
    <use xlink:href="#NotoSansCJKsc-Bold-73" transform="translate(2906.299576 0)"/>
    <use xlink:href="#NotoSansCJKsc-Bold-20" transform="translate(2955.799561 0)"/>
    <use xlink:href="#NotoSansCJKsc-Bold-4f" transform="translate(2978.499557 0)"/>
    <use xlink:href="#NotoSansCJKsc-Bold-4f" transform="translate(3055.499542 0)"/>
    <use xlink:href="#NotoSansCJKsc-Bold-44" transform="translate(3132.499527 0)"/>
    <use xlink:href="#NotoSansCJKsc-Bold-20" transform="translate(3203.899521 0)"/>
    <use xlink:href="#NotoSansCJKsc-Bold-67" transform="translate(3226.599518 0)"/>
    <use xlink:href="#NotoSansCJKsc-Bold-65" transform="translate(3286.299515 0)"/>
    <use xlink:href="#NotoSansCJKsc-Bold-6e" transform="translate(3344.399506 0)"/>
    <use xlink:href="#NotoSansCJKsc-Bold-65" transform="translate(3408.499496 0)"/>
    <use xlink:href="#NotoSansCJKsc-Bold-72" transform="translate(3466.599487 0)"/>
    <use xlink:href="#NotoSansCJKsc-Bold-61" transform="translate(3510.199478 0)"/>
    <use xlink:href="#NotoSansCJKsc-Bold-6c" transform="translate(3569.299469 0)"/>
    <use xlink:href="#NotoSansCJKsc-Bold-69" transform="translate(3600.799454 0)"/>
    <use xlink:href="#NotoSansCJKsc-Bold-7a" transform="translate(3631.199448 0)"/>
    <use xlink:href="#NotoSansCJKsc-Bold-61" transform="translate(3682.299438 0)"/>
    <use xlink:href="#NotoSansCJKsc-Bold-74" transform="translate(3741.399429 0)"/>
    <use xlink:href="#NotoSansCJKsc-Bold-69" transform="translate(3783.49942 0)"/>
    <use xlink:href="#NotoSansCJKsc-Bold-6f" transform="translate(3813.899414 0)"/>
    <use xlink:href="#NotoSansCJKsc-Bold-6e" transform="translate(3876.499405 0)"/>
   </g>
  </g>
 </g>
 <defs>
  <clipPath id="pd309ab5910">
   <rect x="52.616" y="75.372" width="726.64" height="186.04128"/>
  </clipPath>
 </defs>
</svg>
