<svg xmlns="http://www.w3.org/2000/svg" width="960" height="520" viewBox="0 0 960 520"><rect width="960" height="520" rx="28" fill="#f8fbff"/><text x="48" y="60" font-family="Inter,Arial" font-size="28" font-weight="800" fill="#0f172a">SciDiagramEdit</text><g font-family="Inter,Arial"><rect x="80" y="145" width="220" height="230" rx="22" fill="#fff" stroke="#dbeafe"/><text x="112" y="185" font-size="18" font-weight="700" fill="#1e3a8a">Before figure</text><rect x="120" y="220" width="135" height="85" rx="10" fill="#e0f2fe"/><path d="M135 285L175 245L205 275L238 235" stroke="#2563eb" stroke-width="6" fill="none"/><rect x="370" y="145" width="220" height="230" rx="22" fill="#fff" stroke="#d1fae5"/><text x="404" y="185" font-size="18" font-weight="700" fill="#047857">Revision intent</text><text x="400" y="245" font-size="15" fill="#334155">relabel panel</text><text x="400" y="275" font-size="15" fill="#334155">move arrow</text><text x="400" y="305" font-size="15" fill="#334155">restyle plot</text><rect x="660" y="145" width="220" height="230" rx="22" fill="#fff" stroke="#fef3c7"/><text x="700" y="185" font-size="18" font-weight="700" fill="#92400e">Editable output</text><rect x="700" y="220" width="135" height="85" rx="10" fill="#ecfdf5"/><path d="M715 270L755 235L785 268L820 225" stroke="#10b981" stroke-width="6" fill="none"/></g><path d="M315 260h40M605 260h40" stroke="#64748b" stroke-width="5" stroke-linecap="round"/><text x="74" y="450" font-family="Inter,Arial" font-size="16" fill="#475569">Mines arXiv before/after paper revision pairs and evolves editing skills from execution traces.</text></svg>