<svg xmlns="http://www.w3.org/2000/svg" width="760" height="240" viewBox="0 0 760 240">
  <defs><marker id="arrow" viewBox="0 0 10 10" refX="8" refY="5" markerWidth="6" markerHeight="6" orient="auto-start-reverse"><path d="M0 0L10 5L0 10z" fill="#334155"/></marker></defs>
  <rect width="760" height="240" rx="24" fill="#f8fafc"/>
  <text x="32" y="42" font-size="22" font-weight="800" fill="#0f172a">DetailAnywhere methodology</text>
  <text x="32" y="66" font-size="13" fill="#64748b">Input → model mechanism → governance/content output</text>
  <path d="M148 124 L164 124" stroke="#334155" stroke-width="2" marker-end="url(#arrow)"/><path d="M286 124 L302 124" stroke="#334155" stroke-width="2" marker-end="url(#arrow)"/><path d="M424 124 L440 124" stroke="#334155" stroke-width="2" marker-end="url(#arrow)"/><path d="M562 124 L578 124" stroke="#334155" stroke-width="2" marker-end="url(#arrow)"/><rect x="28" y="88" width="116" height="72" rx="16" fill="#2563eb" opacity="0.92"/><text x="86" y="119" text-anchor="middle" font-size="12" fill="white" font-weight="700">Reference garment</text><rect x="166" y="88" width="116" height="72" rx="16" fill="#0f766e" opacity="0.92"/><text x="224" y="119" text-anchor="middle" font-size="12" fill="white" font-weight="700">Focus box</text><rect x="304" y="88" width="116" height="72" rx="16" fill="#7c3aed" opacity="0.92"/><text x="362" y="119" text-anchor="middle" font-size="12" fill="white" font-weight="700">CFAD teacher</text><rect x="442" y="88" width="116" height="72" rx="16" fill="#ea580c" opacity="0.92"/><text x="500" y="119" text-anchor="middle" font-size="12" fill="white" font-weight="700">MMDiT branches</text><rect x="580" y="88" width="116" height="72" rx="16" fill="#0891b2" opacity="0.92"/><text x="638" y="119" text-anchor="middle" font-size="12" fill="white" font-weight="700">Detail close-up</text>
  <rect x="28" y="184" width="704" height="28" rx="14" fill="#e0f2fe"/>
  <text x="380" y="203" text-anchor="middle" font-size="13" fill="#075985">Research-style schematic generated for the daily paper radar</text>
</svg>