<svg xmlns="http://www.w3.org/2000/svg" width="900" height="420"><rect width="100%" height="100%" fill="#f8fafc"/><text x="36" y="48" font-size="28" font-family="Inter,Arial" font-weight="700" fill="#0f172a">CanniUplift Methodology</text><g font-family="Inter,Arial" font-size="18"><rect x="42" y="100" width="180" height="82" rx="18" fill="#dbeafe"/><text x="68" y="135">User × Seller</text><text x="68" y="160">coupon logs</text><rect x="282" y="100" width="190" height="82" rx="18" fill="#dcfce7"/><text x="312" y="135">Treat-Attention</text><text x="312" y="160">interaction encoder</text><rect x="532" y="70" width="250" height="82" rx="18" fill="#fef3c7"/><text x="562" y="105">PGA: align seller</text><text x="562" y="130">uplift to platform GMV</text><rect x="532" y="185" width="250" height="82" rx="18" fill="#fee2e2"/><text x="562" y="220">RDD: redeemed vs</text><text x="562" y="245">non-redeemed paths</text><rect x="318" y="310" width="250" height="64" rx="18" fill="#ede9fe"/><text x="346" y="350">Rank true incremental users</text></g><path d="M222 141H282M472 141H532M472 141C500 141 500 226 532 226M657 267C657 325 570 342 568 342M657 152C657 304 568 328 568 342" stroke="#2563eb" stroke-width="4" fill="none" marker-end="url(#a)"/><defs><marker id="a" markerWidth="10" markerHeight="10" refX="9" refY="3" orient="auto"><path d="M0,0 L0,6 L9,3 z" fill="#2563eb"/></marker></defs></svg>