<svg xmlns="http://www.w3.org/2000/svg" width="780" height="260" viewBox="0 0 780 260">
  <defs><marker id="arrow" viewBox="0 0 10 10" refX="8" refY="5" markerWidth="6" markerHeight="6" orient="auto-start-reverse"><path d="M0 0L10 5L0 10z" fill="#334155"/></marker></defs>
  <rect width="780" height="260" rx="24" fill="#f8fafc"/>
  <rect x="22" y="20" width="736" height="42" rx="16" fill="#e2e8f0"/>
  <text x="38" y="47" font-size="22" font-weight="800" fill="#0f172a">ABot-AgentOS methodology</text>
  <text x="38" y="70" font-size="13" fill="#64748b">Input evidence → modeling / reasoning core → output for governance or retrieval usage</text>
  <path d="M148 123 L164 123" stroke="#334155" stroke-width="2.5" marker-end="url(#arrow)"/><path d="M288 123 L304 123" stroke="#334155" stroke-width="2.5" marker-end="url(#arrow)"/><path d="M428 123 L444 123" stroke="#334155" stroke-width="2.5" marker-end="url(#arrow)"/><path d="M568 123 L584 123" stroke="#334155" stroke-width="2.5" marker-end="url(#arrow)"/><rect x="26" y="84" width="118" height="78" rx="16" fill="#2563eb" opacity="0.94"/><text x="85" y="116" text-anchor="middle" font-size="12" fill="white" font-weight="700">Task + observations</text><rect x="166" y="84" width="118" height="78" rx="16" fill="#0f766e" opacity="0.94"/><text x="225" y="116" text-anchor="middle" font-size="12" fill="white" font-weight="700">Typed graph memory</text><rect x="306" y="84" width="118" height="78" rx="16" fill="#7c3aed" opacity="0.94"/><text x="365" y="116" text-anchor="middle" font-size="12" fill="white" font-weight="700">Hybrid retrieval</text><rect x="446" y="84" width="118" height="78" rx="16" fill="#ea580c" opacity="0.94"/><text x="505" y="116" text-anchor="middle" font-size="12" fill="white" font-weight="700">Agent execution</text><rect x="586" y="84" width="118" height="78" rx="16" fill="#0891b2" opacity="0.94"/><text x="645" y="116" text-anchor="middle" font-size="12" fill="white" font-weight="700">Self-evolution loop</text>
  <rect x="30" y="188" width="720" height="46" rx="16" fill="#ecfeff"/>
  <text x="390" y="216" text-anchor="middle" font-size="13" fill="#155e75">Figure generated for the bilingual daily paper radar; intended to mirror each paper's input-output story</text>
</svg>