<svg xmlns="http://www.w3.org/2000/svg" width="900" height="520" viewBox="0 0 900 520"><defs><linearGradient id="g" x1="0" x2="1"><stop stop-color="#eef7ff"/><stop offset="1" stop-color="#f7ecff"/></linearGradient><style>text{font-family:Inter,Arial,sans-serif;fill:#172033}.box{fill:white;stroke:#c7d7ee;stroke-width:2}.pill{fill:#edf5ff;stroke:#89aee8}.arrow{stroke:#6b7cff;stroke-width:3;marker-end:url(#m)}</style><marker id="m" markerWidth="10" markerHeight="10" refX="8" refY="3" orient="auto"><path d="M0,0 L8,3 L0,6 Z" fill="#6b7cff"/></marker></defs><rect width="900" height="520" rx="28" fill="url(#g)"/><text x="42" y="58" font-size="30" font-weight="700">PolicyShiftGuard Methodology</text><text x="42" y="92" font-size="16">Same image + runtime policy bundle → policy-sensitive moderation decision</text><rect class="box" x="50" y="145" width="190" height="120" rx="20"/><text x="78" y="185" font-size="20" font-weight="700">Input Image</text><text x="78" y="218" font-size="15">visual attributes</text><text x="78" y="242" font-size="15">fine-grained evidence</text><rect class="box" x="355" y="90" width="210" height="105" rx="20"/><text x="386" y="128" font-size="19" font-weight="700">Policy Bundle A</text><text x="386" y="158" font-size="15">category allowed</text><rect class="box" x="355" y="250" width="210" height="105" rx="20"/><text x="386" y="288" font-size="19" font-weight="700">Policy Bundle B</text><text x="386" y="318" font-size="15">category blocked</text><rect class="box" x="665" y="145" width="185" height="125" rx="20"/><text x="692" y="183" font-size="19" font-weight="700">PSG 7B</text><text x="692" y="214" font-size="15">RP-SFT + BP-Adapt</text><text x="692" y="240" font-size="15">structured output</text><path class="arrow" d="M240 205 C285 205 310 143 355 143"/><path class="arrow" d="M240 205 C285 205 310 303 355 303"/><path class="arrow" d="M565 143 C615 143 620 185 665 185"/><path class="arrow" d="M565 303 C615 303 620 225 665 225"/><rect class="pill" x="155" y="395" width="230" height="62" rx="31"/><text x="185" y="433" font-size="17" font-weight="700">PSS rewards policy flips</text><rect class="pill" x="470" y="395" width="275" height="62" rx="31"/><text x="500" y="433" font-size="17" font-weight="700">Same evidence, different outcome</text></svg>