<svg xmlns="http://www.w3.org/2000/svg" width="960" height="520" viewBox="0 0 960 520"><rect width="960" height="520" rx="28" fill="#fffdf8"/><text x="48" y="60" font-family="Inter,Arial" font-size="28" font-weight="800" fill="#0f172a">TikStance Dataset</text><g font-family="Inter,Arial"><rect x="90" y="135" width="210" height="250" rx="22" fill="#fff" stroke="#e2e8f0"/><text x="130" y="178" font-size="20" font-weight="700" fill="#0f172a">Video</text><rect x="128" y="210" width="130" height="90" rx="14" fill="#fee2e2"/><polygon points="178,232 178,278 218,255" fill="#ef4444"/><rect x="375" y="115" width="260" height="290" rx="22" fill="#fff" stroke="#dbeafe"/><text x="418" y="158" font-size="20" font-weight="700" fill="#1d4ed8">Comment tree</text><circle cx="505" cy="210" r="26" fill="#dbeafe"/><circle cx="455" cy="285" r="22" fill="#d1fae5"/><circle cx="555" cy="285" r="22" fill="#fef3c7"/><circle cx="505" cy="350" r="20" fill="#fee2e2"/><path d="M492 232L468 264M518 232L542 264M505 311V330" stroke="#64748b" stroke-width="4"/><rect x="710" y="135" width="170" height="250" rx="22" fill="#fff" stroke="#d1fae5"/><text x="744" y="178" font-size="20" font-weight="700" fill="#047857">Labels</text><text x="746" y="230" font-size="16" fill="#334155">Favor</text><text x="746" y="270" font-size="16" fill="#334155">Against</text><text x="746" y="310" font-size="16" fill="#334155">None</text></g><text x="80" y="455" font-family="Inter,Arial" font-size="16" fill="#475569">Multimodal short-video conversations preserve audiovisual context and hierarchical replies for stance analysis.</text></svg>