<svg xmlns="http://www.w3.org/2000/svg" width="900" height="420"><rect width="100%" height="100%" fill="#f8fafc"/><text x="36" y="50" font-size="28" font-family="Arial" font-weight="700">CMDR-Embed: Contextual Page Retrieval</text><g font-family="Arial" font-size="18"><rect x="50" y="100" width="175" height="210" rx="18" fill="#e0f2fe"/><text x="80" y="140">Multi-page</text><text x="80" y="165">document</text><text x="86" y="215">P1 P2 P3</text><rect x="300" y="110" width="210" height="85" rx="18" fill="#dcfce7"/><text x="330" y="145">Joint contextual</text><text x="330" y="170">encoding window</text><rect x="585" y="110" width="220" height="85" rx="18" fill="#fef3c7"/><text x="620" y="145">Split to page</text><text x="620" y="170">embeddings</text><rect x="330" y="280" width="240" height="70" rx="18" fill="#ede9fe"/><text x="370" y="322">CMCL hard negatives</text></g><path d="M225 155H300M510 155H585M695 195C695 290 570 315 570 315" stroke="#2563eb" stroke-width="4" fill="none" marker-end="url(#a)"/><defs><marker id="a" markerWidth="10" markerHeight="10" refX="9" refY="3" orient="auto"><path d="M0,0 L0,6 L9,3 z" fill="#2563eb"/></marker></defs></svg>