<svg xmlns="http://www.w3.org/2000/svg" width="900" height="520"><defs><marker id="m" markerWidth="10" markerHeight="10" refX="8" refY="3" orient="auto"><path d="M0,0 L8,3 L0,6 Z" fill="#7251b5"/></marker><style>text{font-family:Inter,Arial;fill:#1d2433}.box{fill:white;stroke:#d4c6f6;stroke-width:2}.arr{stroke:#7251b5;stroke-width:3;marker-end:url(#m)}</style></defs><rect width="900" height="520" rx="28" fill="#fbf7ff"/><text x="42" y="58" font-size="30" font-weight="700">SynthAVE LLM-Arena Validation</text><rect class="box" x="45" y="155" width="170" height="110" rx="18"/><text x="73" y="194" font-size="18" font-weight="700">Product Text</text><text x="73" y="226" font-size="14">title / bullets</text><rect class="box" x="290" y="115" width="190" height="190" rx="20"/><text x="320" y="154" font-size="19" font-weight="700">Synthetic AVE</text><text x="320" y="190" font-size="14">attribute-value labels</text><text x="320" y="218" font-size="14">multilingual catalog</text><rect class="box" x="555" y="100" width="280" height="220" rx="20"/><text x="585" y="140" font-size="19" font-weight="700">21 Judge Configs</text><text x="585" y="176" font-size="14">7 model families × 3 prompts</text><text x="585" y="208" font-size="14">majority vote</text><text x="585" y="240" font-size="14">agreement as confidence</text><text x="585" y="272" font-size="14">low-agreement human triage</text><path class="arr" d="M215 210 L290 210"/><path class="arr" d="M480 210 L555 210"/><rect class="box" x="220" y="375" width="460" height="70" rx="22"/><text x="270" y="418" font-size="20" font-weight="700">Cleaned labels for LLM fine-tuning and evaluation</text></svg>