<svg xmlns="http://www.w3.org/2000/svg" width="780" height="260" viewBox="0 0 780 260">
  <defs><marker id="arrow" viewBox="0 0 10 10" refX="8" refY="5" markerWidth="6" markerHeight="6" orient="auto"><path d="M0 0L10 5L0 10z" fill="#64748b"/></marker></defs>
  <rect width="780" height="260" rx="24" fill="#ffffff"/>
  <rect x="24" y="22" width="732" height="216" rx="22" fill="#f1f5f9"/>
  <text x="46" y="55" font-size="21" font-weight="800" fill="#0f172a">ABot-AgentOS experiment highlight</text>
  <rect x="52" y="88" width="165" height="94" rx="18" fill="#dbeafe"/>
  <text x="134" y="120" text-anchor="middle" font-size="18" font-weight="800" fill="#1d4ed8">Setting</text>
  <text x="134" y="145" text-anchor="middle" font-size="12" fill="#334155">realistic benchmark</text>
  <text x="134" y="163" text-anchor="middle" font-size="12" fill="#334155">or production A/B</text>
  <rect x="304" y="76" width="172" height="118" rx="18" fill="#dcfce7"/>
  <text x="390" y="114" text-anchor="middle" font-size="19" font-weight="800" fill="#166534">Result</text>
  <text x="390" y="144" text-anchor="middle" font-size="11.5" fill="#334155">TSR +11.99% and GCR +10.84% over single-controller baseline</text>
  <rect x="560" y="88" width="165" height="94" rx="18" fill="#fef3c7"/>
  <text x="642" y="120" text-anchor="middle" font-size="18" font-weight="800" fill="#92400e">Value</text>
  <text x="642" y="145" text-anchor="middle" font-size="12" fill="#334155">content ecology /</text>
  <text x="642" y="163" text-anchor="middle" font-size="12" fill="#334155">creator governance</text>
  <path d="M219 136 C252 136 266 136 296 136" stroke="#64748b" stroke-width="3" fill="none" marker-end="url(#arrow)"/>
  <path d="M480 136 C514 136 528 136 552 136" stroke="#64748b" stroke-width="3" fill="none" marker-end="url(#arrow)"/>
</svg>