<svg xmlns="http://www.w3.org/2000/svg" width="900" height="420"><rect width="100%" height="100%" fill="#f8fafc"/><text x="36" y="50" font-size="28" font-family="Arial" font-weight="700">SaMer: Object-Evidence Preserving Merge</text><g font-family="Arial" font-size="18"><rect x="45" y="105" width="180" height="90" rx="18" fill="#dbeafe"/><text x="75" y="145">Image tokens</text><text x="75" y="170">N dense patches</text><rect x="300" y="105" width="210" height="90" rx="18" fill="#dcfce7"/><text x="326" y="140">Feature + spatial</text><text x="326" y="165">soft assignment</text><rect x="585" y="105" width="220" height="90" rx="18" fill="#fef3c7"/><text x="615" y="140">K centroids</text><text x="615" y="165">object-aware evidence</text><rect x="340" y="270" width="220" height="70" rx="18" fill="#ede9fe"/><text x="370" y="312">MaxSim retrieval</text></g><path d="M225 150H300M510 150H585M695 195C695 290 560 305 560 305" stroke="#2563eb" stroke-width="4" fill="none" marker-end="url(#a)"/><defs><marker id="a" markerWidth="10" markerHeight="10" refX="9" refY="3" orient="auto"><path d="M0,0 L0,6 L9,3 z" fill="#2563eb"/></marker></defs></svg>