<svg xmlns="http://www.w3.org/2000/svg" width="900" height="420"><rect width="100%" height="100%" fill="#f8fafc"/><text x="36" y="50" font-size="28" font-family="Arial" font-weight="700">Cognitive-structured Multimodal Agent</text><g font-family="Arial" font-size="18"><rect x="50" y="115" width="190" height="80" rx="18" fill="#dbeafe"/><text x="82" y="150">PAE abstracts</text><text x="82" y="174">visual memory</text><rect x="330" y="115" width="190" height="80" rx="18" fill="#dcfce7"/><text x="365" y="150">CoRE retrieves</text><text x="365" y="174">episodes</text><rect x="610" y="115" width="210" height="80" rx="18" fill="#fef3c7"/><text x="642" y="150">MEC routes</text><text x="642" y="174">tools/tasks</text><rect x="320" y="285" width="260" height="70" rx="18" fill="#ede9fe"/><text x="348" y="328">Generate · Edit · Answer</text></g><path d="M240 155H330M520 155H610M715 195C715 295 580 320 580 320" stroke="#2563eb" stroke-width="4" fill="none" marker-end="url(#a)"/><defs><marker id="a" markerWidth="10" markerHeight="10" refX="9" refY="3" orient="auto"><path d="M0,0 L0,6 L9,3 z" fill="#2563eb"/></marker></defs></svg>