<svg xmlns="http://www.w3.org/2000/svg" width="760" height="240" viewBox="0 0 760 240">
  <rect width="760" height="240" rx="24" fill="#ffffff"/>
  <rect x="24" y="24" width="712" height="192" rx="20" fill="#f1f5f9"/>
  <text x="44" y="58" font-size="21" font-weight="800" fill="#0f172a">UniClawBench experiment highlight</text>
  <rect x="50" y="92" width="160" height="82" rx="16" fill="#dbeafe"/><text x="130" y="126" text-anchor="middle" font-size="16" font-weight="700" fill="#1d4ed8">Task</text><text x="130" y="149" text-anchor="middle" font-size="12" fill="#334155">paper takeaway</text>
  <rect x="300" y="78" width="160" height="110" rx="18" fill="#dcfce7"/><text x="380" y="120" text-anchor="middle" font-size="18" font-weight="800" fill="#166534">Result</text><text x="380" y="146" text-anchor="middle" font-size="12" fill="#334155">Framework choice shifts overall pass rate from 0.338 to 0.407 for GPT-5.4</text>
  <rect x="550" y="92" width="160" height="82" rx="16" fill="#fef3c7"/><text x="630" y="126" text-anchor="middle" font-size="16" font-weight="700" fill="#92400e">Value</text><text x="630" y="149" text-anchor="middle" font-size="12" fill="#334155">daily governance radar</text>
  <path d="M215 133 C250 133 260 133 292 133" stroke="#64748b" stroke-width="3" fill="none" marker-end="url(#arrow)"/><path d="M468 133 C505 133 515 133 542 133" stroke="#64748b" stroke-width="3" fill="none" marker-end="url(#arrow)"/>
  <defs><marker id="arrow" viewBox="0 0 10 10" refX="8" refY="5" markerWidth="6" markerHeight="6" orient="auto"><path d="M0 0L10 5L0 10z" fill="#64748b"/></marker></defs>
</svg>