<svg xmlns="http://www.w3.org/2000/svg" width="900" height="420"><rect width="100%" height="100%" fill="#f8fafc"/><text x="36" y="50" font-size="28" font-family="Arial" font-weight="700">COBART Controlled Ad Headline Generation</text><g font-family="Arial" font-size="18"><rect x="50" y="115" width="190" height="80" rx="18" fill="#dbeafe"/><text x="82" y="150">Product titles</text><text x="82" y="174">and attributes</text><rect x="315" y="115" width="220" height="80" rx="18" fill="#dcfce7"/><text x="342" y="150">Prefix controls</text><text x="342" y="174">CTR bucket + length</text><rect x="610" y="115" width="210" height="80" rx="18" fill="#fef3c7"/><text x="642" y="150">BART encoder</text><text x="642" y="174">decoder</text><rect x="320" y="290" width="260" height="70" rx="18" fill="#ede9fe"/><text x="350" y="333">Optimized ad headline</text></g><path d="M240 155H315M535 155H610M715 195C715 295 580 325 580 325" stroke="#2563eb" stroke-width="4" fill="none" marker-end="url(#a)"/><defs><marker id="a" markerWidth="10" markerHeight="10" refX="9" refY="3" orient="auto"><path d="M0,0 L0,6 L9,3 z" fill="#2563eb"/></marker></defs></svg>