<svg xmlns="http://www.w3.org/2000/svg" width="1200" height="680" viewBox="0 0 1200 680"><rect width="100%" height="100%" rx="28" fill="#f8fafc"/><rect x="28" y="24" width="1144" height="96" rx="24" fill="#e2e8f0"/><text x="56" y="72" font-size="28" font-family="Inter,Arial" font-weight="700" fill="#0f172a">Sequential Multimodal Evidence Optimization for Product Media Ranking in E-Commerce</text><text x="56" y="104" font-size="18" font-family="Inter,Arial" fill="#334155">Methodology overview · 2608.15662</text><rect x="52" y="190" width="248" height="260" rx="26" fill="white" stroke="#7c3aed" stroke-width="3"/><circle cx="88" cy="226" r="18" fill="#7c3aed"/><text x="83" y="233" font-size="18" font-family="Inter,Arial" font-weight="700" fill="white">1</text><text x="76" y="278" font-size="24" font-family="Inter,Arial" font-weight="600" fill="#0f172a">User browses a</text><text x="76" y="312" font-size="24" font-family="Inter,Arial" font-weight="600" fill="#0f172a">prefix of product</text><text x="76" y="346" font-size="24" font-family="Inter,Arial" font-weight="600" fill="#0f172a">media assets</text><path d="M 308 320 L 324 320 L 324 308 L 348 330 L 324 352 L 324 340 L 308 340 Z" fill="#94a3b8"/><rect x="328" y="190" width="248" height="260" rx="26" fill="white" stroke="#2563eb" stroke-width="3"/><circle cx="364" cy="226" r="18" fill="#2563eb"/><text x="359" y="233" font-size="18" font-family="Inter,Arial" font-weight="700" fill="white">2</text><text x="352" y="278" font-size="24" font-family="Inter,Arial" font-weight="600" fill="#0f172a">Utility model</text><text x="352" y="312" font-size="24" font-family="Inter,Arial" font-weight="600" fill="#0f172a">estimates how much</text><text x="352" y="346" font-size="24" font-family="Inter,Arial" font-weight="600" fill="#0f172a">purchase evidence</text><text x="352" y="380" font-size="24" font-family="Inter,Arial" font-weight="600" fill="#0f172a">the prefix already</text><text x="352" y="414" font-size="24" font-family="Inter,Arial" font-weight="600" fill="#0f172a">provides</text><path d="M 584 320 L 600 320 L 600 308 L 624 330 L 600 352 L 600 340 L 584 340 Z" fill="#94a3b8"/><rect x="604" y="190" width="248" height="260" rx="26" fill="white" stroke="#0f766e" stroke-width="3"/><circle cx="640" cy="226" r="18" fill="#0f766e"/><text x="635" y="233" font-size="18" font-family="Inter,Arial" font-weight="700" fill="white">3</text><text x="628" y="278" font-size="24" font-family="Inter,Arial" font-weight="600" fill="#0f172a">Ranking policy</text><text x="628" y="312" font-size="24" font-family="Inter,Arial" font-weight="600" fill="#0f172a">optimizes</text><text x="628" y="346" font-size="24" font-family="Inter,Arial" font-weight="600" fill="#0f172a">survival-weighted</text><text x="628" y="380" font-size="24" font-family="Inter,Arial" font-weight="600" fill="#0f172a">reward-to-go over</text><text x="628" y="414" font-size="24" font-family="Inter,Arial" font-weight="600" fill="#0f172a">remaining assets</text><path d="M 860 320 L 876 320 L 876 308 L 900 330 L 876 352 L 876 340 L 860 340 Z" fill="#94a3b8"/><rect x="880" y="190" width="248" height="260" rx="26" fill="white" stroke="#db2777" stroke-width="3"/><circle cx="916" cy="226" r="18" fill="#db2777"/><text x="911" y="233" font-size="18" font-family="Inter,Arial" font-weight="700" fill="white">4</text><text x="904" y="278" font-size="24" font-family="Inter,Arial" font-weight="600" fill="#0f172a">Decision-critical</text><text x="904" y="312" font-size="24" font-family="Inter,Arial" font-weight="600" fill="#0f172a">media is surfaced</text><text x="904" y="346" font-size="24" font-family="Inter,Arial" font-weight="600" fill="#0f172a">earlier with fewer</text><text x="904" y="380" font-size="24" font-family="Inter,Arial" font-weight="600" fill="#0f172a">swipes</text><rect x="52" y="500" width="1096" height="124" rx="24" fill="#ffffff" stroke="#cbd5e1"/><text x="82" y="548" font-size="22" font-family="Inter,Arial" font-weight="700" fill="#0f172a">Key message</text><text x="82" y="586" font-size="20" font-family="Inter,Arial" fill="#334155">The figure highlights the minimum deployable logic so the paper card can show methodology without overflowing the layout.</text></svg>