<svg xmlns="http://www.w3.org/2000/svg" width="960" height="540"><rect width="960" height="540" fill="#f8fafc"/><text x="50" y="58" font-family="Arial" font-size="28" font-weight="700" fill="#0f172a">E-commerce VLM Adaptation Recipe</text><rect x="55" y="130" width="180" height="110" rx="18" fill="#dbeafe"/><text x="80" y="175" font-family="Arial" font-size="17" font-weight="700">15M Listings</text><text x="80" y="205" font-family="Arial" font-size="13">image + seller aspects</text><rect x="300" y="130" width="190" height="110" rx="18" fill="#dcfce7"/><text x="330" y="175" font-family="Arial" font-size="17" font-weight="700">Visual Verify</text><text x="330" y="205" font-family="Arial" font-size="13">caption + aspect check</text><rect x="555" y="130" width="180" height="110" rx="18" fill="#ede9fe"/><text x="590" y="175" font-family="Arial" font-size="17" font-weight="700">4M Instructions</text><text x="590" y="205" font-family="Arial" font-size="13">VQA / DAE / listings</text><rect x="320" y="330" width="320" height="120" rx="22" fill="#fff7ed" stroke="#fed7aa"/><text x="382" y="378" font-family="Arial" font-size="20" font-weight="700">Adapted VLM</text><text x="365" y="410" font-family="Arial" font-size="14">alignment → mid-stage → instruction tuning</text><path d="M235 185 L300 185" stroke="#64748b" stroke-width="4"/><path d="M490 185 L555 185" stroke="#64748b" stroke-width="4"/><path d="M645 240 C635 290 570 330 530 330" stroke="#64748b" stroke-width="4"/><path d="M145 240 C190 320 260 360 320 380" stroke="#64748b" stroke-width="4"/></svg>