<svg xmlns="http://www.w3.org/2000/svg" width="960" height="540"><rect width="960" height="540" fill="#f8fafc"/><text x="48" y="58" font-family="Arial" font-size="28" font-weight="700" fill="#0f172a">GrocLM Category Recommendation Pipeline</text><rect x="55" y="135" width="180" height="110" rx="18" fill="#dbeafe" stroke="#93c5fd"/><text x="80" y="178" font-family="Arial" font-size="17" font-weight="700">Purchase History</text><text x="80" y="207" font-family="Arial" font-size="13">apple, milk, eggs...</text><rect x="55" y="310" width="180" height="90" rx="18" fill="#e0f2fe" stroke="#7dd3fc"/><text x="95" y="363" font-family="Arial" font-size="17" font-weight="700">User Query</text><rect x="310" y="105" width="230" height="130" rx="20" fill="#dcfce7" stroke="#86efac"/><text x="344" y="150" font-family="Arial" font-size="18" font-weight="700">Stage 1</text><text x="340" y="180" font-family="Arial" font-size="14">Rebuy cycle prior</text><text x="340" y="205" font-family="Arial" font-size="14">category-level statistics</text><rect x="310" y="300" width="230" height="130" rx="20" fill="#ede9fe" stroke="#c4b5fd"/><text x="344" y="345" font-family="Arial" font-size="18" font-weight="700">Stage 2</text><text x="340" y="375" font-family="Arial" font-size="14">Sequential relation tuning</text><text x="340" y="400" font-family="Arial" font-size="14">history + query context</text><rect x="625" y="150" width="250" height="210" rx="24" fill="#fff7ed" stroke="#fed7aa"/><text x="675" y="200" font-family="Arial" font-size="20" font-weight="700">Trie Decoding</text><text x="660" y="245" font-family="Arial" font-size="15">valid categories only</text><text x="660" y="285" font-family="Arial" font-size="15">apple ✓  lettuce ✓</text><text x="660" y="325" font-family="Arial" font-size="15">free-form hallucination ✕</text><path d="M235 190 L310 170" stroke="#64748b" stroke-width="4"/><path d="M235 355 L310 365" stroke="#64748b" stroke-width="4"/><path d="M540 170 L625 230" stroke="#64748b" stroke-width="4"/><path d="M540 365 L625 290" stroke="#64748b" stroke-width="4"/></svg>