<svg xmlns="http://www.w3.org/2000/svg" width="900" height="520" viewBox="0 0 900 520"><rect width="900" height="520" rx="28" fill="#f8fafc"/><text x="42" y="58" font-family="Inter,Arial" font-size="26" font-weight="800" fill="#0f172a">Memora Methodology</text><text x="42" y="88" font-family="Inter,Arial" font-size="14" fill="#64748b">Long-horizon agent memory for traceable governance workflows</text><g font-family="Inter,Arial"><rect x="60" y="145" width="190" height="230" rx="22" fill="#eff6ff" stroke="#bfdbfe"/><text x="92" y="185" font-size="18" font-weight="800" fill="#1d4ed8">Interaction Stream</text><text x="92" y="226" font-size="14" fill="#334155">chat turns</text><text x="92" y="258" font-size="14" fill="#334155">evidence snippets</text><text x="92" y="290" font-size="14" fill="#334155">creator history</text><rect x="345" y="120" width="220" height="280" rx="26" fill="#fff" stroke="#cbd5e1"/><text x="392" y="160" font-size="18" font-weight="900" fill="#0f172a">Memory Organizer</text><rect x="382" y="190" width="145" height="42" rx="13" fill="#dcfce7"/><text x="405" y="217" font-size="13" fill="#166534">atomic facts</text><rect x="382" y="250" width="145" height="42" rx="13" fill="#fef3c7"/><text x="402" y="277" font-size="13" fill="#92400e">raw snippets</text><rect x="382" y="310" width="145" height="42" rx="13" fill="#ede9fe"/><text x="397" y="337" font-size="13" fill="#5b21b6">relations graph</text><rect x="650" y="145" width="190" height="230" rx="22" fill="#f0fdf4" stroke="#bbf7d0"/><text x="692" y="185" font-size="18" font-weight="800" fill="#15803d">Patrol Agent</text><text x="687" y="226" font-size="14" fill="#334155">retrieve</text><text x="687" y="258" font-size="14" fill="#334155">reason</text><text x="687" y="290" font-size="14" fill="#334155">continue task</text></g><path d="M250 260h95M565 260h85" stroke="#2563eb" stroke-width="4" marker-end="url(#m)"/><defs><marker id="m" markerWidth="10" markerHeight="10" refX="8" refY="3" orient="auto"><path d="M0,0 L0,6 L9,3 z" fill="#2563eb"/></marker></defs></svg>
