<svg xmlns="http://www.w3.org/2000/svg" width="960" height="540" viewBox="0 0 960 540"><rect width="960" height="540" fill="#f8fafc"/><text x="48" y="58" font-family="Inter,Arial" font-size="28" font-weight="700" fill="#0f172a">MIRAGE Metadata-first Multimodal Grounding</text><rect x="50" y="110" width="190" height="120" rx="18" fill="#dbeafe" stroke="#93c5fd"/><text x="78" y="155" font-family="Arial" font-size="18" font-weight="700">KB Chunk</text><text x="78" y="185" font-family="Arial" font-size="14">"open SIM tray"</text><rect x="50" y="300" width="190" height="120" rx="18" fill="#dcfce7" stroke="#86efac"/><text x="78" y="345" font-family="Arial" font-size="18" font-weight="700">Product Image</text><text x="78" y="375" font-family="Arial" font-size="14">phone side view</text><rect x="340" y="95" width="260" height="350" rx="24" fill="#ffffff" stroke="#cbd5e1"/><text x="386" y="140" font-family="Arial" font-size="22" font-weight="700">Shared Metadata</text><text x="380" y="190" font-family="Arial" font-size="16">Product: phone</text><text x="380" y="235" font-family="Arial" font-size="16">Context: cannot receive calls</text><text x="380" y="280" font-family="Arial" font-size="16">Aspect: SIM tray</text><text x="380" y="325" font-family="Arial" font-size="16">Guardrail: exact model match</text><text x="380" y="370" font-family="Arial" font-size="16">Schema score &gt; threshold</text><rect x="700" y="110" width="210" height="95" rx="18" fill="#fef3c7" stroke="#fcd34d"/><text x="748" y="150" font-family="Arial" font-size="18" font-weight="700">M-Link</text><text x="728" y="177" font-family="Arial" font-size="14">valid image-text pair</text><rect x="700" y="245" width="210" height="95" rx="18" fill="#ede9fe" stroke="#c4b5fd"/><text x="748" y="285" font-family="Arial" font-size="18" font-weight="700">M-Gen</text><text x="724" y="312" font-family="Arial" font-size="14">metadata-conditioned RAG</text><rect x="700" y="380" width="210" height="95" rx="18" fill="#fee2e2" stroke="#fca5a5"/><text x="748" y="420" font-family="Arial" font-size="18" font-weight="700">M-Eval</text><text x="722" y="447" font-family="Arial" font-size="14">relevance + grounding</text><path d="M240 170 C285 170 300 170 340 170" stroke="#2563eb" stroke-width="4" fill="none" marker-end="url(#a)"/><path d="M240 360 C285 360 300 360 340 360" stroke="#16a34a" stroke-width="4" fill="none" marker-end="url(#a)"/><path d="M600 270 C650 270 660 158 700 158" stroke="#64748b" stroke-width="4" fill="none" marker-end="url(#a)"/><path d="M600 270 C650 270 660 292 700 292" stroke="#64748b" stroke-width="4" fill="none" marker-end="url(#a)"/><path d="M600 270 C650 270 660 428 700 428" stroke="#64748b" stroke-width="4" fill="none" marker-end="url(#a)"/><defs><marker id="a" markerWidth="10" markerHeight="10" refX="8" refY="3" orient="auto"><path d="M0,0 L0,6 L9,3 z" fill="#64748b"/></marker></defs></svg>