<svg xmlns="http://www.w3.org/2000/svg" width="900" height="520" viewBox="0 0 900 520"><rect width="900" height="520" rx="28" fill="#f8fafc"/><text x="42" y="58" font-family="Inter,Arial" font-size="26" font-weight="800" fill="#0f172a">RoboBrain Orca Methodology</text><text x="42" y="88" font-family="Inter,Arial" font-size="14" fill="#64748b">Next-state prediction over a unified multimodal world representation</text><g font-family="Inter,Arial"><rect x="52" y="142" width="170" height="230" rx="22" fill="#eff6ff" stroke="#bfdbfe"/><text x="80" y="180" font-size="17" font-weight="800" fill="#1d4ed8">Inputs</text><text x="82" y="220" font-size="14" fill="#334155">Video</text><text x="82" y="252" font-size="14" fill="#334155">Image</text><text x="82" y="284" font-size="14" fill="#334155">Text instruction</text><text x="82" y="316" font-size="14" fill="#334155">Event description</text><rect x="300" y="115" width="300" height="280" rx="28" fill="#fff" stroke="#cbd5e1"/><text x="356" y="155" font-size="19" font-weight="900" fill="#0f172a">World Latent Space</text><circle cx="450" cy="250" r="82" fill="#dcfce7" stroke="#86efac"/><text x="390" y="242" font-size="15" font-weight="800" fill="#166534">Unconscious</text><text x="397" y="265" font-size="13" fill="#166534">video dynamics</text><circle cx="505" cy="282" r="72" fill="#fef3c7" stroke="#fbbf24" fill-opacity="0.82"/><text x="462" y="278" font-size="15" font-weight="800" fill="#92400e">Conscious</text><text x="465" y="300" font-size="13" fill="#92400e">VQA + events</text><rect x="680" y="142" width="170" height="230" rx="22" fill="#f0fdf4" stroke="#bbf7d0"/><text x="712" y="180" font-size="17" font-weight="800" fill="#15803d">Outputs</text><text x="712" y="226" font-size="14" fill="#334155">Next state</text><text x="712" y="258" font-size="14" fill="#334155">Causal transition</text><text x="712" y="290" font-size="14" fill="#334155">Action consequence</text></g><path d="M222 255h78M600 255h80" stroke="#2563eb" stroke-width="4" marker-end="url(#m)"/><defs><marker id="m" markerWidth="10" markerHeight="10" refX="8" refY="3" orient="auto"><path d="M0,0 L0,6 L9,3 z" fill="#2563eb"/></marker></defs></svg>
